<svg xmlns="http://www.w3.org/2000/svg" width="840" height="320" viewBox="0 0 840 320">
  <rect x="0" y="0" width="840" height="320" fill="#ffffff" />
  <rect x="36" y="36" width="768" height="248" fill="#f7fbff" stroke="#c8d9e6" />
  <polyline fill="none" stroke="#8f1d2c" stroke-width="1.5" stroke-dasharray="5 3" points="36.00,217.50 158.88,102.14 335.52,260.76 519.84,82.91 665.76,174.24 804.00,135.79" />
  <polyline fill="none" stroke="#005f73" stroke-width="2" points="36.00,217.50 36.64,213.94 37.28,210.43 37.92,206.97 38.56,203.55 39.20,200.18 39.84,196.86 40.48,193.59 41.12,190.37 41.76,187.19 42.41,184.06 43.05,180.97 43.69,177.93 44.33,174.94 44.97,171.99 45.61,169.08 46.25,166.22 46.89,163.40 47.53,160.63 48.17,157.90 48.81,155.21 49.45,152.57 50.09,149.97 50.73,147.41 51.37,144.89 52.01,142.41 52.65,139.98 53.29,137.58 53.93,135.23 54.58,132.92 55.22,130.64 55.86,128.41 56.50,126.22 57.14,124.06 57.78,121.94 58.42,119.87 59.06,117.83 59.70,115.82 60.34,113.86 60.98,111.93 61.62,110.04 62.26,108.19 62.90,106.37 63.54,104.59 64.18,102.84 64.82,101.13 65.46,99.46 66.11,97.82 66.75,96.21 67.39,94.64 68.03,93.10 68.67,91.60 69.31,90.13 69.95,88.69 70.59,87.29 71.23,85.92 71.87,84.58 72.51,83.27 73.15,82.00 73.79,80.75 74.43,79.54 75.07,78.36 75.71,77.21 76.35,76.09 76.99,75.00 77.63,73.94 78.28,72.91 78.92,71.91 79.56,70.94 80.20,69.99 80.84,69.08 81.48,68.19 82.12,67.34 82.76,66.51 83.40,65.71 84.04,64.93 84.68,64.18 85.32,63.46 85.96,62.77 86.60,62.10 87.24,61.46 87.88,60.84 88.52,60.25 89.16,59.69 89.80,59.15 90.45,58.63 91.09,58.14 91.73,57.67 92.37,57.23 93.01,56.81 93.65,56.42 94.29,56.05 94.93,55.70 95.57,55.38 96.21,55.07 96.85,54.80 97.49,54.54 98.13,54.30 98.77,54.09 99.41,53.90 100.05,53.73 100.69,53.58 101.33,53.45 101.97,53.34 102.62,53.25 103.26,53.19 103.90,53.14 104.54,53.11 105.18,53.10 105.82,53.11 106.46,53.15 107.10,53.20 107.74,53.26 108.38,53.35 109.02,53.46 109.66,53.58 110.30,53.72 110.94,53.88 111.58,54.05 112.22,54.25 112.86,54.46 113.50,54.69 114.15,54.93 114.79,55.19 115.43,55.47 116.07,55.76 116.71,56.07 117.35,56.39 117.99,56.73 118.63,57.09 119.27,57.46 119.91,57.84 120.55,58.24 121.19,58.65 121.83,59.08 122.47,59.52 123.11,59.98 123.75,60.45 124.39,60.93 125.03,61.43 125.67,61.94 126.32,62.46 126.96,63.00 127.60,63.54 128.24,64.10 128.88,64.68 129.52,65.26 130.16,65.86 130.80,66.47 131.44,67.09 132.08,67.72 132.72,68.36 133.36,69.01 134.00,69.68 134.64,70.35 135.28,71.04 135.92,71.73 136.56,72.44 137.20,73.15 137.84,73.88 138.49,74.61 139.13,75.36 139.77,76.11 140.41,76.88 141.05,77.65 141.69,78.43 142.33,79.22 142.97,80.02 143.61,80.82 144.25,81.64 144.89,82.46 145.53,83.29 146.17,84.13 146.81,84.98 147.45,85.83 148.09,86.69 148.73,87.56 149.37,88.43 150.02,89.31 150.66,90.20 151.30,91.10 151.94,92.00 152.58,92.91 153.22,93.82 153.86,94.74 154.50,95.67 155.14,96.60 155.78,97.53 156.42,98.47 157.06,99.42 157.70,100.37 158.34,101.33 158.98,102.29 159.62,103.26 160.26,104.23 160.90,105.21 161.54,106.19 162.19,107.17 162.83,108.16 163.47,109.15 164.11,110.15 164.75,111.15 165.39,112.15 166.03,113.16 166.67,114.17 167.31,115.18 167.95,116.20 168.59,117.22 169.23,118.24 169.87,119.26 170.51,120.29 171.15,121.32 171.79,122.35 172.43,123.38 173.07,124.42 173.71,125.46 174.36,126.50 175.00,127.54 175.64,128.58 176.28,129.63 176.92,130.67 177.56,131.72 178.20,132.77 178.84,133.82 179.48,134.87 180.12,135.92 180.76,136.97 181.40,138.02 182.04,139.08 182.68,140.13 183.32,141.19 183.96,142.24 184.60,143.29 185.24,144.35 185.88,145.40 186.53,146.45 187.17,147.51 187.81,148.56 188.45,149.61 189.09,150.67 189.73,151.72 190.37,152.77 191.01,153.82 191.65,154.87 192.29,155.91 192.93,156.96 193.57,158.01 194.21,159.05 194.85,160.09 195.49,161.13 196.13,162.17 196.77,163.21 197.41,164.24 198.06,165.28 198.70,166.31 199.34,167.34 199.98,168.37 200.62,169.39 201.26,170.42 201.90,171.44 202.54,172.46 203.18,173.47 203.82,174.49 204.46,175.50 205.10,176.50 205.74,177.51 206.38,178.51 207.02,179.51 207.66,180.51 208.30,181.50 208.94,182.49 209.58,183.48 210.23,184.46 210.87,185.44 211.51,186.41 212.15,187.39 212.79,188.36 213.43,189.32 214.07,190.28 214.71,191.24 215.35,192.19 215.99,193.14 216.63,194.09 217.27,195.03 217.91,195.97 218.55,196.90 219.19,197.83 219.83,198.75 220.47,199.67 221.11,200.59 221.75,201.50 222.40,202.41 223.04,203.31 223.68,204.20 224.32,205.10 224.96,205.98 225.60,206.87 226.24,207.74 226.88,208.62 227.52,209.48 228.16,210.35 228.80,211.20 229.44,212.06 230.08,212.90 230.72,213.75 231.36,214.58 232.00,215.41 232.64,216.24 233.28,217.06 233.92,217.87 234.57,218.68 235.21,219.48 235.85,220.28 236.49,221.07 237.13,221.86 237.77,222.64 238.41,223.41 239.05,224.18 239.69,224.94 240.33,225.70 240.97,226.45 241.61,227.20 242.25,227.93 242.89,228.67 243.53,229.39 244.17,230.11 244.81,230.83 245.45,231.53 246.10,232.23 246.74,232.93 247.38,233.62 248.02,234.30 248.66,234.97 249.30,235.64 249.94,236.31 250.58,236.96 251.22,237.61 251.86,238.25 252.50,238.89 253.14,239.52 253.78,240.14 254.42,240.76 255.06,241.37 255.70,241.97 256.34,242.56 256.98,243.15 257.62,243.74 258.27,244.31 258.91,244.88 259.55,245.44 260.19,245.99 260.83,246.54 261.47,247.08 262.11,247.62 262.75,248.14 263.39,248.66 264.03,249.17 264.67,249.68 265.31,250.18 265.95,250.67 266.59,251.15 267.23,251.63 267.87,252.10 268.51,252.56 269.15,253.02 269.79,253.46 270.44,253.91 271.08,254.34 271.72,254.76 272.36,255.18 273.00,255.60 273.64,256.00 274.28,256.40 274.92,256.79 275.56,257.17 276.20,257.54 276.84,257.91 277.48,258.27 278.12,258.63 278.76,258.97 279.40,259.31 280.04,259.64 280.68,259.97 281.32,260.28 281.96,260.59 282.61,260.89 283.25,261.19 283.89,261.47 284.53,261.75 285.17,262.02 285.81,262.29 286.45,262.55 287.09,262.80 287.73,263.04 288.37,263.27 289.01,263.50 289.65,263.72 290.29,263.93 290.93,264.14 291.57,264.34 292.21,264.53 292.85,264.71 293.49,264.88 294.14,265.05 294.78,265.21 295.42,265.37 296.06,265.51 296.70,265.65 297.34,265.78 297.98,265.91 298.62,266.02 299.26,266.13 299.90,266.23 300.54,266.33 301.18,266.42 301.82,266.50 302.46,266.57 303.10,266.63 303.74,266.69 304.38,266.74 305.02,266.79 305.66,266.82 306.31,266.85 306.95,266.87 307.59,266.89 308.23,266.90 308.87,266.90 309.51,266.89 310.15,266.88 310.79,266.85 311.43,266.83 312.07,266.79 312.71,266.75 313.35,266.70 313.99,266.64 314.63,266.58 315.27,266.51 315.91,266.43 316.55,266.34 317.19,266.25 317.83,266.15 318.48,266.05 319.12,265.94 319.76,265.82 320.40,265.69 321.04,265.56 321.68,265.42 322.32,265.27 322.96,265.12 323.60,264.95 324.24,264.79 324.88,264.61 325.52,264.43 326.16,264.25 326.80,264.05 327.44,263.85 328.08,263.64 328.72,263.43 329.36,263.21 330.01,262.98 330.65,262.75 331.29,262.51 331.93,262.26 332.57,262.01 333.21,261.75 333.85,261.49 334.49,261.21 335.13,260.93 335.77,260.65 336.41,260.36 337.05,260.06 337.69,259.76 338.33,259.45 338.97,259.13 339.61,258.81 340.25,258.48 340.89,258.15 341.53,257.81 342.18,257.46 342.82,257.11 343.46,256.75 344.10,256.39 344.74,256.02 345.38,255.65 346.02,255.26 346.66,254.88 347.30,254.49 347.94,254.09 348.58,253.68 349.22,253.27 349.86,252.86 350.50,252.44 351.14,252.01 351.78,251.58 352.42,251.14 353.06,250.70 353.70,250.25 354.35,249.80 354.99,249.34 355.63,248.87 356.27,248.40 356.91,247.93 357.55,247.45 358.19,246.96 358.83,246.47 359.47,245.98 360.11,245.48 360.75,244.97 361.39,244.46 362.03,243.95 362.67,243.43 363.31,242.90 363.95,242.37 364.59,241.84 365.23,241.30 365.87,240.76 366.52,240.21 367.16,239.66 367.80,239.10 368.44,238.54 369.08,237.97 369.72,237.40 370.36,236.82 371.00,236.24 371.64,235.66 372.28,235.07 372.92,234.48 373.56,233.88 374.20,233.28 374.84,232.68 375.48,232.07 376.12,231.46 376.76,230.84 377.40,230.22 378.05,229.59 378.69,228.97 379.33,228.33 379.97,227.70 380.61,227.06 381.25,226.41 381.89,225.77 382.53,225.12 383.17,224.46 383.81,223.81 384.45,223.15 385.09,222.48 385.73,221.81 386.37,221.14 387.01,220.47 387.65,219.79 388.29,219.11 388.93,218.43 389.57,217.74 390.22,217.05 390.86,216.36 391.50,215.66 392.14,214.96 392.78,214.26 393.42,213.56 394.06,212.85 394.70,212.14 395.34,211.43 395.98,210.71 396.62,210.00 397.26,209.28 397.90,208.56 398.54,207.83 399.18,207.10 399.82,206.37 400.46,205.64 401.10,204.91 401.74,204.17 402.39,203.43 403.03,202.69 403.67,201.95 404.31,201.21 404.95,200.46 405.59,199.71 406.23,198.96 406.87,198.21 407.51,197.46 408.15,196.70 408.79,195.95 409.43,195.19 410.07,194.43 410.71,193.67 411.35,192.91 411.99,192.14 412.63,191.38 413.27,190.61 413.91,189.84 414.56,189.07 415.20,188.30 415.84,187.53 416.48,186.76 417.12,185.98 417.76,185.21 418.40,184.43 419.04,183.66 419.68,182.88 420.32,182.10 420.96,181.33 421.60,180.55 422.24,179.77 422.88,178.99 423.52,178.21 424.16,177.43 424.80,176.64 425.44,175.86 426.09,175.08 426.73,174.30 427.37,173.51 428.01,172.73 428.65,171.95 429.29,171.17 429.93,170.38 430.57,169.60 431.21,168.82 431.85,168.04 432.49,167.25 433.13,166.47 433.77,165.69 434.41,164.91 435.05,164.13 435.69,163.35 436.33,162.57 436.97,161.79 437.61,161.01 438.26,160.23 438.90,159.45 439.54,158.68 440.18,157.90 440.82,157.12 441.46,156.35 442.10,155.58 442.74,154.80 443.38,154.03 444.02,153.26 444.66,152.49 445.30,151.73 445.94,150.96 446.58,150.19 447.22,149.43 447.86,148.67 448.50,147.91 449.14,147.15 449.78,146.39 450.43,145.63 451.07,144.88 451.71,144.13 452.35,143.37 452.99,142.62 453.63,141.88 454.27,141.13 454.91,140.39 455.55,139.64 456.19,138.90 456.83,138.17 457.47,137.43 458.11,136.70 458.75,135.97 459.39,135.24 460.03,134.51 460.67,133.78 461.31,133.06 461.95,132.34 462.60,131.63 463.24,130.91 463.88,130.20 464.52,129.49 465.16,128.78 465.80,128.08 466.44,127.38 467.08,126.68 467.72,125.98 468.36,125.29 469.00,124.60 469.64,123.91 470.28,123.23 470.92,122.55 471.56,121.87 472.20,121.20 472.84,120.53 473.48,119.86 474.13,119.19 474.77,118.53 475.41,117.87 476.05,117.22 476.69,116.57 477.33,115.92 477.97,115.28 478.61,114.64 479.25,114.00 479.89,113.37 480.53,112.74 481.17,112.12 481.81,111.49 482.45,110.88 483.09,110.26 483.73,109.65 484.37,109.05 485.01,108.45 485.65,107.85 486.30,107.26 486.94,106.67 487.58,106.08 488.22,105.50 488.86,104.92 489.50,104.35 490.14,103.78 490.78,103.22 491.42,102.66 492.06,102.11 492.70,101.56 493.34,101.01 493.98,100.47 494.62,99.94 495.26,99.40 495.90,98.88 496.54,98.36 497.18,97.84 497.82,97.33 498.47,96.82 499.11,96.32 499.75,95.82 500.39,95.33 501.03,94.84 501.67,94.36 502.31,93.88 502.95,93.41 503.59,92.94 504.23,92.48 504.87,92.02 505.51,91.57 506.15,91.12 506.79,90.68 507.43,90.25 508.07,89.82 508.71,89.39 509.35,88.97 509.99,88.56 510.64,88.15 511.28,87.75 511.92,87.35 512.56,86.96 513.20,86.57 513.84,86.19 514.48,85.82 515.12,85.45 515.76,85.09 516.40,84.73 517.04,84.38 517.68,84.03 518.32,83.69 518.96,83.36 519.60,83.03 520.24,82.71 520.88,82.39 521.52,82.09 522.17,81.78 522.81,81.48 523.45,81.19 524.09,80.91 524.73,80.63 525.37,80.36 526.01,80.09 526.65,79.83 527.29,79.57 527.93,79.33 528.57,79.08 529.21,78.85 529.85,78.62 530.49,78.40 531.13,78.18 531.77,77.97 532.41,77.77 533.05,77.57 533.69,77.38 534.34,77.20 534.98,77.02 535.62,76.85 536.26,76.69 536.90,76.53 537.54,76.38 538.18,76.23 538.82,76.10 539.46,75.97 540.10,75.84 540.74,75.72 541.38,75.61 542.02,75.51 542.66,75.41 543.30,75.32 543.94,75.24 544.58,75.16 545.22,75.09 545.86,75.03 546.51,74.97 547.15,74.92 547.79,74.88 548.43,74.84 549.07,74.81 549.71,74.79 550.35,74.77 550.99,74.77 551.63,74.76 552.27,74.77 552.91,74.78 553.55,74.80 554.19,74.83 554.83,74.86 555.47,74.90 556.11,74.95 556.75,75.00 557.39,75.06 558.04,75.13 558.68,75.21 559.32,75.29 559.96,75.38 560.60,75.48 561.24,75.58 561.88,75.69 562.52,75.81 563.16,75.93 563.80,76.06 564.44,76.20 565.08,76.35 565.72,76.50 566.36,76.66 567.00,76.83 567.64,77.00 568.28,77.18 568.92,77.37 569.56,77.57 570.21,77.77 570.85,77.98 571.49,78.19 572.13,78.42 572.77,78.65 573.41,78.89 574.05,79.13 574.69,79.38 575.33,79.64 575.97,79.91 576.61,80.18 577.25,80.46 577.89,80.74 578.53,81.04 579.17,81.34 579.81,81.65 580.45,81.96 581.09,82.28 581.73,82.61 582.38,82.94 583.02,83.29 583.66,83.64 584.30,83.99 584.94,84.35 585.58,84.72 586.22,85.10 586.86,85.48 587.50,85.87 588.14,86.27 588.78,86.67 589.42,87.08 590.06,87.50 590.70,87.92 591.34,88.35 591.98,88.79 592.62,89.24 593.26,89.69 593.90,90.14 594.55,90.61 595.19,91.08 595.83,91.55 596.47,92.04 597.11,92.53 597.75,93.02 598.39,93.53 599.03,94.04 599.67,94.55 600.31,95.07 600.95,95.60 601.59,96.14 602.23,96.68 602.87,97.22 603.51,97.78 604.15,98.34 604.79,98.90 605.43,99.48 606.08,100.05 606.72,100.64 607.36,101.23 608.00,101.82 608.64,102.43 609.28,103.03 609.92,103.65 610.56,104.27 611.20,104.89 611.84,105.53 612.48,106.16 613.12,106.81 613.76,107.46 614.40,108.11 615.04,108.77 615.68,109.44 616.32,110.11 616.96,110.78 617.60,111.47 618.25,112.15 618.89,112.85 619.53,113.54 620.17,114.25 620.81,114.96 621.45,115.67 622.09,116.39 622.73,117.11 623.37,117.84 624.01,118.58 624.65,119.32 625.29,120.06 625.93,120.81 626.57,121.56 627.21,122.32 627.85,123.08 628.49,123.85 629.13,124.62 629.77,125.40 630.42,126.18 631.06,126.97 631.70,127.76 632.34,128.55 632.98,129.35 633.62,130.15 634.26,130.96 634.90,131.77 635.54,132.58 636.18,133.40 636.82,134.22 637.46,135.05 638.10,135.88 638.74,136.71 639.38,137.55 640.02,138.39 640.66,139.23 641.30,140.08 641.94,140.93 642.59,141.79 643.23,142.64 643.87,143.50 644.51,144.37 645.15,145.23 645.79,146.10 646.43,146.98 647.07,147.85 647.71,148.73 648.35,149.61 648.99,150.49 649.63,151.38 650.27,152.27 650.91,153.16 651.55,154.05 652.19,154.94 652.83,155.84 653.47,156.74 654.12,157.64 654.76,158.54 655.40,159.44 656.04,160.35 656.68,161.26 657.32,162.17 657.96,163.08 658.60,163.99 659.24,164.90 659.88,165.81 660.52,166.73 661.16,167.64 661.80,168.56 662.44,169.48 663.08,170.40 663.72,171.32 664.36,172.24 665.00,173.15 665.64,174.07 666.29,175.00 666.93,175.92 667.57,176.84 668.21,177.76 668.85,178.68 669.49,179.60 670.13,180.52 670.77,181.43 671.41,182.35 672.05,183.27 672.69,184.19 673.33,185.10 673.97,186.02 674.61,186.93 675.25,187.84 675.89,188.76 676.53,189.67 677.17,190.57 677.81,191.48 678.46,192.39 679.10,193.29 679.74,194.19 680.38,195.09 681.02,195.98 681.66,196.88 682.30,197.77 682.94,198.66 683.58,199.55 684.22,200.43 684.86,201.31 685.50,202.19 686.14,203.06 686.78,203.94 687.42,204.80 688.06,205.67 688.70,206.53 689.34,207.39 689.98,208.24 690.63,209.09 691.27,209.93 691.91,210.77 692.55,211.61 693.19,212.44 693.83,213.27 694.47,214.09 695.11,214.91 695.75,215.72 696.39,216.52 697.03,217.33 697.67,218.12 698.31,218.91 698.95,219.70 699.59,220.47 700.23,221.25 700.87,222.01 701.51,222.77 702.16,223.53 702.80,224.27 703.44,225.01 704.08,225.74 704.72,226.47 705.36,227.19 706.00,227.90 706.64,228.60 707.28,229.30 707.92,229.99 708.56,230.67 709.20,231.34 709.84,232.00 710.48,232.66 711.12,233.31 711.76,233.94 712.40,234.57 713.04,235.19 713.68,235.80 714.33,236.41 714.97,237.00 715.61,237.58 716.25,238.15 716.89,238.71 717.53,239.27 718.17,239.81 718.81,240.34 719.45,240.86 720.09,241.37 720.73,241.87 721.37,242.35 722.01,242.83 722.65,243.29 723.29,243.74 723.93,244.19 724.57,244.61 725.21,245.03 725.85,245.43 726.50,245.82 727.14,246.20 727.78,246.57 728.42,246.92 729.06,247.26 729.70,247.58 730.34,247.89 730.98,248.19 731.62,248.47 732.26,248.74 732.90,249.00 733.54,249.24 734.18,249.46 734.82,249.67 735.46,249.87 736.10,250.04 736.74,250.21 737.38,250.36 738.03,250.49 738.67,250.60 739.31,250.70 739.95,250.78 740.59,250.85 741.23,250.90 741.87,250.93 742.51,250.94 743.15,250.94 743.79,250.92 744.43,250.88 745.07,250.82 745.71,250.74 746.35,250.64 746.99,250.53 747.63,250.40 748.27,250.24 748.91,250.07 749.55,249.88 750.20,249.67 750.84,249.43 751.48,249.18 752.12,248.91 752.76,248.61 753.40,248.30 754.04,247.96 754.68,247.60 755.32,247.22 755.96,246.82 756.60,246.40 757.24,245.95 757.88,245.48 758.52,244.99 759.16,244.47 759.80,243.93 760.44,243.37 761.08,242.78 761.72,242.17 762.37,241.54 763.01,240.88 763.65,240.20 764.29,239.49 764.93,238.75 765.57,237.99 766.21,237.21 766.85,236.40 767.49,235.56 768.13,234.69 768.77,233.80 769.41,232.88 770.05,231.94 770.69,230.96 771.33,229.96 771.97,228.93 772.61,227.88 773.25,226.79 773.89,225.68 774.54,224.53 775.18,223.36 775.82,222.16 776.46,220.92 777.10,219.66 777.74,218.37 778.38,217.05 779.02,215.69 779.66,214.31 780.30,212.89 780.94,211.44 781.58,209.96 782.22,208.45 782.86,206.90 783.50,205.32 784.14,203.71 784.78,202.07 785.42,200.39 786.07,198.68 786.71,196.93 787.35,195.15 787.99,193.33 788.63,191.48 789.27,189.60 789.91,187.67 790.55,185.72 791.19,183.72 791.83,181.69 792.47,179.63 793.11,177.52 793.75,175.38 794.39,173.20 795.03,170.98 795.67,168.73 796.31,166.43 796.95,164.10 797.59,161.73 798.24,159.32 798.88,156.87 799.52,154.37 800.16,151.84 800.80,149.27 801.44,146.66 802.08,144.00 802.72,141.31 803.36,138.57 804.00,135.79" />
  <circle cx="36.00" cy="217.50" r="3.2" fill="#b42318" /><text x="40.00" y="211.50" font-family="Arial, Helvetica, sans-serif" font-size="10" fill="#7a271a">p0</text><circle cx="158.88" cy="102.14" r="3.2" fill="#b42318" /><text x="162.88" y="96.14" font-family="Arial, Helvetica, sans-serif" font-size="10" fill="#7a271a">p1</text><circle cx="335.52" cy="260.76" r="3.2" fill="#b42318" /><text x="339.52" y="254.76" font-family="Arial, Helvetica, sans-serif" font-size="10" fill="#7a271a">p2</text><circle cx="519.84" cy="82.91" r="3.2" fill="#b42318" /><text x="523.84" y="76.91" font-family="Arial, Helvetica, sans-serif" font-size="10" fill="#7a271a">p3</text><circle cx="665.76" cy="174.24" r="3.2" fill="#b42318" /><text x="669.76" y="168.24" font-family="Arial, Helvetica, sans-serif" font-size="10" fill="#7a271a">p4</text><circle cx="804.00" cy="135.79" r="3.2" fill="#b42318" /><text x="808.00" y="129.79" font-family="Arial, Helvetica, sans-serif" font-size="10" fill="#7a271a">p5</text>
  <rect x="554" y="44" width="250" height="74" rx="6" ry="6" fill="#ffffff" stroke="#c8d9e6" />
  <line x1="564" y1="62" x2="612" y2="62" stroke="#005f73" stroke-width="2" />
  <text x="620" y="66" font-family="Arial, Helvetica, sans-serif" font-size="10" fill="#243b53">interpolated curve u(t)</text>
  <line x1="564" y1="82" x2="612" y2="82" stroke="#8f1d2c" stroke-width="1.5" stroke-dasharray="5 3" />
  <text x="620" y="86" font-family="Arial, Helvetica, sans-serif" font-size="10" fill="#243b53">piecewise control polyline</text>
  <circle cx="588" cy="100" r="3.2" fill="#b42318" />
  <text x="620" y="104" font-family="Arial, Helvetica, sans-serif" font-size="10" fill="#243b53">control points p_i</text>
  <text x="420.0" y="22" text-anchor="middle" font-family="Arial, Helvetica, sans-serif" font-size="15" fill="#102a43">polynomial order 5 interpolation</text>
  <text x="420.0" y="312" text-anchor="middle" font-family="Arial, Helvetica, sans-serif" font-size="12" fill="#334e68">normalized control time</text>
  <text x="14" y="160.0" transform="rotate(-90 14,160.0)" text-anchor="middle" font-family="Arial, Helvetica, sans-serif" font-size="12" fill="#334e68">control value</text>
  <text x="36" y="302" font-family="Arial, Helvetica, sans-serif" font-size="11" fill="#486581">0</text>
  <text x="804" y="302" text-anchor="end" font-family="Arial, Helvetica, sans-serif" font-size="11" fill="#486581">1</text>
  <text x="30" y="40" text-anchor="end" font-family="Arial, Helvetica, sans-serif" font-size="11" fill="#486581">1.76</text>
  <text x="30" y="288" text-anchor="end" font-family="Arial, Helvetica, sans-serif" font-size="11" fill="#486581">0.72</text>
</svg>
