<svg xmlns="http://www.w3.org/2000/svg" width="840" height="320" viewBox="0 0 840 320">
  <rect x="0" y="0" width="840" height="320" fill="#ffffff" />
  <rect x="36" y="36" width="768" height="248" fill="#f7fbff" stroke="#c8d9e6" />
  <polyline fill="none" stroke="#8f1d2c" stroke-width="1.5" stroke-dasharray="5 3" points="36.00,217.50 158.88,102.14 335.52,260.76 519.84,82.91 665.76,174.24 804.00,135.79" />
  <polyline fill="none" stroke="#005f73" stroke-width="2" points="36.00,187.48 36.64,187.44 37.28,187.40 37.92,187.35 38.56,187.31 39.20,187.27 39.84,187.23 40.48,187.19 41.12,187.14 41.76,187.10 42.41,187.06 43.05,187.02 43.69,186.97 44.33,186.93 44.97,186.89 45.61,186.85 46.25,186.81 46.89,186.76 47.53,186.72 48.17,186.68 48.81,186.64 49.45,186.60 50.09,186.55 50.73,186.51 51.37,186.47 52.01,186.43 52.65,186.38 53.29,186.34 53.93,186.30 54.58,186.26 55.22,186.22 55.86,186.17 56.50,186.13 57.14,186.09 57.78,186.05 58.42,186.01 59.06,185.96 59.70,185.92 60.34,185.88 60.98,185.84 61.62,185.79 62.26,185.75 62.90,185.71 63.54,185.67 64.18,185.63 64.82,185.58 65.46,185.54 66.11,185.50 66.75,185.46 67.39,185.42 68.03,185.37 68.67,185.33 69.31,185.29 69.95,185.25 70.59,185.21 71.23,185.16 71.87,185.12 72.51,185.08 73.15,185.04 73.79,184.99 74.43,184.95 75.07,184.91 75.71,184.87 76.35,184.83 76.99,184.78 77.63,184.74 78.28,184.70 78.92,184.66 79.56,184.62 80.20,184.57 80.84,184.53 81.48,184.49 82.12,184.45 82.76,184.40 83.40,184.36 84.04,184.32 84.68,184.28 85.32,184.24 85.96,184.19 86.60,184.15 87.24,184.11 87.88,184.07 88.52,184.03 89.16,183.98 89.80,183.94 90.45,183.90 91.09,183.86 91.73,183.81 92.37,183.77 93.01,183.73 93.65,183.69 94.29,183.65 94.93,183.60 95.57,183.56 96.21,183.52 96.85,183.48 97.49,183.44 98.13,183.39 98.77,183.35 99.41,183.31 100.05,183.27 100.69,183.23 101.33,183.18 101.97,183.14 102.62,183.10 103.26,183.06 103.90,183.01 104.54,182.97 105.18,182.93 105.82,182.89 106.46,182.85 107.10,182.80 107.74,182.76 108.38,182.72 109.02,182.68 109.66,182.64 110.30,182.59 110.94,182.55 111.58,182.51 112.22,182.47 112.86,182.42 113.50,182.38 114.15,182.34 114.79,182.30 115.43,182.26 116.07,182.21 116.71,182.17 117.35,182.13 117.99,182.09 118.63,182.05 119.27,182.00 119.91,181.96 120.55,181.92 121.19,181.88 121.83,181.83 122.47,181.79 123.11,181.75 123.75,181.71 124.39,181.67 125.03,181.62 125.67,181.58 126.32,181.54 126.96,181.50 127.60,181.46 128.24,181.41 128.88,181.37 129.52,181.33 130.16,181.29 130.80,181.24 131.44,181.20 132.08,181.16 132.72,181.12 133.36,181.08 134.00,181.03 134.64,180.99 135.28,180.95 135.92,180.91 136.56,180.87 137.20,180.82 137.84,180.78 138.49,180.74 139.13,180.70 139.77,180.66 140.41,180.61 141.05,180.57 141.69,180.53 142.33,180.49 142.97,180.44 143.61,180.40 144.25,180.36 144.89,180.32 145.53,180.28 146.17,180.23 146.81,180.19 147.45,180.15 148.09,180.11 148.73,180.07 149.37,180.02 150.02,179.98 150.66,179.94 151.30,179.90 151.94,179.85 152.58,179.81 153.22,179.77 153.86,179.73 154.50,179.69 155.14,179.64 155.78,179.60 156.42,179.56 157.06,179.52 157.70,179.48 158.34,179.43 158.98,179.39 159.62,179.35 160.26,179.31 160.90,179.26 161.54,179.22 162.19,179.18 162.83,179.14 163.47,179.10 164.11,179.05 164.75,179.01 165.39,178.97 166.03,178.93 166.67,178.89 167.31,178.84 167.95,178.80 168.59,178.76 169.23,178.72 169.87,178.68 170.51,178.63 171.15,178.59 171.79,178.55 172.43,178.51 173.07,178.46 173.71,178.42 174.36,178.38 175.00,178.34 175.64,178.30 176.28,178.25 176.92,178.21 177.56,178.17 178.20,178.13 178.84,178.09 179.48,178.04 180.12,178.00 180.76,177.96 181.40,177.92 182.04,177.87 182.68,177.83 183.32,177.79 183.96,177.75 184.60,177.71 185.24,177.66 185.88,177.62 186.53,177.58 187.17,177.54 187.81,177.50 188.45,177.45 189.09,177.41 189.73,177.37 190.37,177.33 191.01,177.28 191.65,177.24 192.29,177.20 192.93,177.16 193.57,177.12 194.21,177.07 194.85,177.03 195.49,176.99 196.13,176.95 196.77,176.91 197.41,176.86 198.06,176.82 198.70,176.78 199.34,176.74 199.98,176.70 200.62,176.65 201.26,176.61 201.90,176.57 202.54,176.53 203.18,176.48 203.82,176.44 204.46,176.40 205.10,176.36 205.74,176.32 206.38,176.27 207.02,176.23 207.66,176.19 208.30,176.15 208.94,176.11 209.58,176.06 210.23,176.02 210.87,175.98 211.51,175.94 212.15,175.89 212.79,175.85 213.43,175.81 214.07,175.77 214.71,175.73 215.35,175.68 215.99,175.64 216.63,175.60 217.27,175.56 217.91,175.52 218.55,175.47 219.19,175.43 219.83,175.39 220.47,175.35 221.11,175.30 221.75,175.26 222.40,175.22 223.04,175.18 223.68,175.14 224.32,175.09 224.96,175.05 225.60,175.01 226.24,174.97 226.88,174.93 227.52,174.88 228.16,174.84 228.80,174.80 229.44,174.76 230.08,174.71 230.72,174.67 231.36,174.63 232.00,174.59 232.64,174.55 233.28,174.50 233.92,174.46 234.57,174.42 235.21,174.38 235.85,174.34 236.49,174.29 237.13,174.25 237.77,174.21 238.41,174.17 239.05,174.13 239.69,174.08 240.33,174.04 240.97,174.00 241.61,173.96 242.25,173.91 242.89,173.87 243.53,173.83 244.17,173.79 244.81,173.75 245.45,173.70 246.10,173.66 246.74,173.62 247.38,173.58 248.02,173.54 248.66,173.49 249.30,173.45 249.94,173.41 250.58,173.37 251.22,173.32 251.86,173.28 252.50,173.24 253.14,173.20 253.78,173.16 254.42,173.11 255.06,173.07 255.70,173.03 256.34,172.99 256.98,172.95 257.62,172.90 258.27,172.86 258.91,172.82 259.55,172.78 260.19,172.73 260.83,172.69 261.47,172.65 262.11,172.61 262.75,172.57 263.39,172.52 264.03,172.48 264.67,172.44 265.31,172.40 265.95,172.36 266.59,172.31 267.23,172.27 267.87,172.23 268.51,172.19 269.15,172.15 269.79,172.10 270.44,172.06 271.08,172.02 271.72,171.98 272.36,171.93 273.00,171.89 273.64,171.85 274.28,171.81 274.92,171.77 275.56,171.72 276.20,171.68 276.84,171.64 277.48,171.60 278.12,171.56 278.76,171.51 279.40,171.47 280.04,171.43 280.68,171.39 281.32,171.34 281.96,171.30 282.61,171.26 283.25,171.22 283.89,171.18 284.53,171.13 285.17,171.09 285.81,171.05 286.45,171.01 287.09,170.97 287.73,170.92 288.37,170.88 289.01,170.84 289.65,170.80 290.29,170.75 290.93,170.71 291.57,170.67 292.21,170.63 292.85,170.59 293.49,170.54 294.14,170.50 294.78,170.46 295.42,170.42 296.06,170.38 296.70,170.33 297.34,170.29 297.98,170.25 298.62,170.21 299.26,170.17 299.90,170.12 300.54,170.08 301.18,170.04 301.82,170.00 302.46,169.95 303.10,169.91 303.74,169.87 304.38,169.83 305.02,169.79 305.66,169.74 306.31,169.70 306.95,169.66 307.59,169.62 308.23,169.58 308.87,169.53 309.51,169.49 310.15,169.45 310.79,169.41 311.43,169.36 312.07,169.32 312.71,169.28 313.35,169.24 313.99,169.20 314.63,169.15 315.27,169.11 315.91,169.07 316.55,169.03 317.19,168.99 317.83,168.94 318.48,168.90 319.12,168.86 319.76,168.82 320.40,168.77 321.04,168.73 321.68,168.69 322.32,168.65 322.96,168.61 323.60,168.56 324.24,168.52 324.88,168.48 325.52,168.44 326.16,168.40 326.80,168.35 327.44,168.31 328.08,168.27 328.72,168.23 329.36,168.18 330.01,168.14 330.65,168.10 331.29,168.06 331.93,168.02 332.57,167.97 333.21,167.93 333.85,167.89 334.49,167.85 335.13,167.81 335.77,167.76 336.41,167.72 337.05,167.68 337.69,167.64 338.33,167.60 338.97,167.55 339.61,167.51 340.25,167.47 340.89,167.43 341.53,167.38 342.18,167.34 342.82,167.30 343.46,167.26 344.10,167.22 344.74,167.17 345.38,167.13 346.02,167.09 346.66,167.05 347.30,167.01 347.94,166.96 348.58,166.92 349.22,166.88 349.86,166.84 350.50,166.79 351.14,166.75 351.78,166.71 352.42,166.67 353.06,166.63 353.70,166.58 354.35,166.54 354.99,166.50 355.63,166.46 356.27,166.42 356.91,166.37 357.55,166.33 358.19,166.29 358.83,166.25 359.47,166.20 360.11,166.16 360.75,166.12 361.39,166.08 362.03,166.04 362.67,165.99 363.31,165.95 363.95,165.91 364.59,165.87 365.23,165.83 365.87,165.78 366.52,165.74 367.16,165.70 367.80,165.66 368.44,165.62 369.08,165.57 369.72,165.53 370.36,165.49 371.00,165.45 371.64,165.40 372.28,165.36 372.92,165.32 373.56,165.28 374.20,165.24 374.84,165.19 375.48,165.15 376.12,165.11 376.76,165.07 377.40,165.03 378.05,164.98 378.69,164.94 379.33,164.90 379.97,164.86 380.61,164.81 381.25,164.77 381.89,164.73 382.53,164.69 383.17,164.65 383.81,164.60 384.45,164.56 385.09,164.52 385.73,164.48 386.37,164.44 387.01,164.39 387.65,164.35 388.29,164.31 388.93,164.27 389.57,164.22 390.22,164.18 390.86,164.14 391.50,164.10 392.14,164.06 392.78,164.01 393.42,163.97 394.06,163.93 394.70,163.89 395.34,163.85 395.98,163.80 396.62,163.76 397.26,163.72 397.90,163.68 398.54,163.64 399.18,163.59 399.82,163.55 400.46,163.51 401.10,163.47 401.74,163.42 402.39,163.38 403.03,163.34 403.67,163.30 404.31,163.26 404.95,163.21 405.59,163.17 406.23,163.13 406.87,163.09 407.51,163.05 408.15,163.00 408.79,162.96 409.43,162.92 410.07,162.88 410.71,162.83 411.35,162.79 411.99,162.75 412.63,162.71 413.27,162.67 413.91,162.62 414.56,162.58 415.20,162.54 415.84,162.50 416.48,162.46 417.12,162.41 417.76,162.37 418.40,162.33 419.04,162.29 419.68,162.24 420.32,162.20 420.96,162.16 421.60,162.12 422.24,162.08 422.88,162.03 423.52,161.99 424.16,161.95 424.80,161.91 425.44,161.87 426.09,161.82 426.73,161.78 427.37,161.74 428.01,161.70 428.65,161.65 429.29,161.61 429.93,161.57 430.57,161.53 431.21,161.49 431.85,161.44 432.49,161.40 433.13,161.36 433.77,161.32 434.41,161.28 435.05,161.23 435.69,161.19 436.33,161.15 436.97,161.11 437.61,161.07 438.26,161.02 438.90,160.98 439.54,160.94 440.18,160.90 440.82,160.85 441.46,160.81 442.10,160.77 442.74,160.73 443.38,160.69 444.02,160.64 444.66,160.60 445.30,160.56 445.94,160.52 446.58,160.48 447.22,160.43 447.86,160.39 448.50,160.35 449.14,160.31 449.78,160.26 450.43,160.22 451.07,160.18 451.71,160.14 452.35,160.10 452.99,160.05 453.63,160.01 454.27,159.97 454.91,159.93 455.55,159.89 456.19,159.84 456.83,159.80 457.47,159.76 458.11,159.72 458.75,159.67 459.39,159.63 460.03,159.59 460.67,159.55 461.31,159.51 461.95,159.46 462.60,159.42 463.24,159.38 463.88,159.34 464.52,159.30 465.16,159.25 465.80,159.21 466.44,159.17 467.08,159.13 467.72,159.09 468.36,159.04 469.00,159.00 469.64,158.96 470.28,158.92 470.92,158.87 471.56,158.83 472.20,158.79 472.84,158.75 473.48,158.71 474.13,158.66 474.77,158.62 475.41,158.58 476.05,158.54 476.69,158.50 477.33,158.45 477.97,158.41 478.61,158.37 479.25,158.33 479.89,158.28 480.53,158.24 481.17,158.20 481.81,158.16 482.45,158.12 483.09,158.07 483.73,158.03 484.37,157.99 485.01,157.95 485.65,157.91 486.30,157.86 486.94,157.82 487.58,157.78 488.22,157.74 488.86,157.69 489.50,157.65 490.14,157.61 490.78,157.57 491.42,157.53 492.06,157.48 492.70,157.44 493.34,157.40 493.98,157.36 494.62,157.32 495.26,157.27 495.90,157.23 496.54,157.19 497.18,157.15 497.82,157.11 498.47,157.06 499.11,157.02 499.75,156.98 500.39,156.94 501.03,156.89 501.67,156.85 502.31,156.81 502.95,156.77 503.59,156.73 504.23,156.68 504.87,156.64 505.51,156.60 506.15,156.56 506.79,156.52 507.43,156.47 508.07,156.43 508.71,156.39 509.35,156.35 509.99,156.30 510.64,156.26 511.28,156.22 511.92,156.18 512.56,156.14 513.20,156.09 513.84,156.05 514.48,156.01 515.12,155.97 515.76,155.93 516.40,155.88 517.04,155.84 517.68,155.80 518.32,155.76 518.96,155.71 519.60,155.67 520.24,155.63 520.88,155.59 521.52,155.55 522.17,155.50 522.81,155.46 523.45,155.42 524.09,155.38 524.73,155.34 525.37,155.29 526.01,155.25 526.65,155.21 527.29,155.17 527.93,155.12 528.57,155.08 529.21,155.04 529.85,155.00 530.49,154.96 531.13,154.91 531.77,154.87 532.41,154.83 533.05,154.79 533.69,154.75 534.34,154.70 534.98,154.66 535.62,154.62 536.26,154.58 536.90,154.54 537.54,154.49 538.18,154.45 538.82,154.41 539.46,154.37 540.10,154.32 540.74,154.28 541.38,154.24 542.02,154.20 542.66,154.16 543.30,154.11 543.94,154.07 544.58,154.03 545.22,153.99 545.86,153.95 546.51,153.90 547.15,153.86 547.79,153.82 548.43,153.78 549.07,153.73 549.71,153.69 550.35,153.65 550.99,153.61 551.63,153.57 552.27,153.52 552.91,153.48 553.55,153.44 554.19,153.40 554.83,153.36 555.47,153.31 556.11,153.27 556.75,153.23 557.39,153.19 558.04,153.14 558.68,153.10 559.32,153.06 559.96,153.02 560.60,152.98 561.24,152.93 561.88,152.89 562.52,152.85 563.16,152.81 563.80,152.77 564.44,152.72 565.08,152.68 565.72,152.64 566.36,152.60 567.00,152.56 567.64,152.51 568.28,152.47 568.92,152.43 569.56,152.39 570.21,152.34 570.85,152.30 571.49,152.26 572.13,152.22 572.77,152.18 573.41,152.13 574.05,152.09 574.69,152.05 575.33,152.01 575.97,151.97 576.61,151.92 577.25,151.88 577.89,151.84 578.53,151.80 579.17,151.75 579.81,151.71 580.45,151.67 581.09,151.63 581.73,151.59 582.38,151.54 583.02,151.50 583.66,151.46 584.30,151.42 584.94,151.38 585.58,151.33 586.22,151.29 586.86,151.25 587.50,151.21 588.14,151.16 588.78,151.12 589.42,151.08 590.06,151.04 590.70,151.00 591.34,150.95 591.98,150.91 592.62,150.87 593.26,150.83 593.90,150.79 594.55,150.74 595.19,150.70 595.83,150.66 596.47,150.62 597.11,150.58 597.75,150.53 598.39,150.49 599.03,150.45 599.67,150.41 600.31,150.36 600.95,150.32 601.59,150.28 602.23,150.24 602.87,150.20 603.51,150.15 604.15,150.11 604.79,150.07 605.43,150.03 606.08,149.99 606.72,149.94 607.36,149.90 608.00,149.86 608.64,149.82 609.28,149.77 609.92,149.73 610.56,149.69 611.20,149.65 611.84,149.61 612.48,149.56 613.12,149.52 613.76,149.48 614.40,149.44 615.04,149.40 615.68,149.35 616.32,149.31 616.96,149.27 617.60,149.23 618.25,149.18 618.89,149.14 619.53,149.10 620.17,149.06 620.81,149.02 621.45,148.97 622.09,148.93 622.73,148.89 623.37,148.85 624.01,148.81 624.65,148.76 625.29,148.72 625.93,148.68 626.57,148.64 627.21,148.59 627.85,148.55 628.49,148.51 629.13,148.47 629.77,148.43 630.42,148.38 631.06,148.34 631.70,148.30 632.34,148.26 632.98,148.22 633.62,148.17 634.26,148.13 634.90,148.09 635.54,148.05 636.18,148.01 636.82,147.96 637.46,147.92 638.10,147.88 638.74,147.84 639.38,147.79 640.02,147.75 640.66,147.71 641.30,147.67 641.94,147.63 642.59,147.58 643.23,147.54 643.87,147.50 644.51,147.46 645.15,147.42 645.79,147.37 646.43,147.33 647.07,147.29 647.71,147.25 648.35,147.20 648.99,147.16 649.63,147.12 650.27,147.08 650.91,147.04 651.55,146.99 652.19,146.95 652.83,146.91 653.47,146.87 654.12,146.83 654.76,146.78 655.40,146.74 656.04,146.70 656.68,146.66 657.32,146.61 657.96,146.57 658.60,146.53 659.24,146.49 659.88,146.45 660.52,146.40 661.16,146.36 661.80,146.32 662.44,146.28 663.08,146.24 663.72,146.19 664.36,146.15 665.00,146.11 665.64,146.07 666.29,146.03 666.93,145.98 667.57,145.94 668.21,145.90 668.85,145.86 669.49,145.81 670.13,145.77 670.77,145.73 671.41,145.69 672.05,145.65 672.69,145.60 673.33,145.56 673.97,145.52 674.61,145.48 675.25,145.44 675.89,145.39 676.53,145.35 677.17,145.31 677.81,145.27 678.46,145.22 679.10,145.18 679.74,145.14 680.38,145.10 681.02,145.06 681.66,145.01 682.30,144.97 682.94,144.93 683.58,144.89 684.22,144.85 684.86,144.80 685.50,144.76 686.14,144.72 686.78,144.68 687.42,144.63 688.06,144.59 688.70,144.55 689.34,144.51 689.98,144.47 690.63,144.42 691.27,144.38 691.91,144.34 692.55,144.30 693.19,144.26 693.83,144.21 694.47,144.17 695.11,144.13 695.75,144.09 696.39,144.05 697.03,144.00 697.67,143.96 698.31,143.92 698.95,143.88 699.59,143.83 700.23,143.79 700.87,143.75 701.51,143.71 702.16,143.67 702.80,143.62 703.44,143.58 704.08,143.54 704.72,143.50 705.36,143.46 706.00,143.41 706.64,143.37 707.28,143.33 707.92,143.29 708.56,143.24 709.20,143.20 709.84,143.16 710.48,143.12 711.12,143.08 711.76,143.03 712.40,142.99 713.04,142.95 713.68,142.91 714.33,142.87 714.97,142.82 715.61,142.78 716.25,142.74 716.89,142.70 717.53,142.65 718.17,142.61 718.81,142.57 719.45,142.53 720.09,142.49 720.73,142.44 721.37,142.40 722.01,142.36 722.65,142.32 723.29,142.28 723.93,142.23 724.57,142.19 725.21,142.15 725.85,142.11 726.50,142.06 727.14,142.02 727.78,141.98 728.42,141.94 729.06,141.90 729.70,141.85 730.34,141.81 730.98,141.77 731.62,141.73 732.26,141.69 732.90,141.64 733.54,141.60 734.18,141.56 734.82,141.52 735.46,141.48 736.10,141.43 736.74,141.39 737.38,141.35 738.03,141.31 738.67,141.26 739.31,141.22 739.95,141.18 740.59,141.14 741.23,141.10 741.87,141.05 742.51,141.01 743.15,140.97 743.79,140.93 744.43,140.89 745.07,140.84 745.71,140.80 746.35,140.76 746.99,140.72 747.63,140.67 748.27,140.63 748.91,140.59 749.55,140.55 750.20,140.51 750.84,140.46 751.48,140.42 752.12,140.38 752.76,140.34 753.40,140.30 754.04,140.25 754.68,140.21 755.32,140.17 755.96,140.13 756.60,140.08 757.24,140.04 757.88,140.00 758.52,139.96 759.16,139.92 759.80,139.87 760.44,139.83 761.08,139.79 761.72,139.75 762.37,139.71 763.01,139.66 763.65,139.62 764.29,139.58 764.93,139.54 765.57,139.50 766.21,139.45 766.85,139.41 767.49,139.37 768.13,139.33 768.77,139.28 769.41,139.24 770.05,139.20 770.69,139.16 771.33,139.12 771.97,139.07 772.61,139.03 773.25,138.99 773.89,138.95 774.54,138.91 775.18,138.86 775.82,138.82 776.46,138.78 777.10,138.74 777.74,138.69 778.38,138.65 779.02,138.61 779.66,138.57 780.30,138.53 780.94,138.48 781.58,138.44 782.22,138.40 782.86,138.36 783.50,138.32 784.14,138.27 784.78,138.23 785.42,138.19 786.07,138.15 786.71,138.10 787.35,138.06 787.99,138.02 788.63,137.98 789.27,137.94 789.91,137.89 790.55,137.85 791.19,137.81 791.83,137.77 792.47,137.73 793.11,137.68 793.75,137.64 794.39,137.60 795.03,137.56 795.67,137.52 796.31,137.47 796.95,137.43 797.59,137.39 798.24,137.35 798.88,137.30 799.52,137.26 800.16,137.22 800.80,137.18 801.44,137.14 802.08,137.09 802.72,137.05 803.36,137.01 804.00,136.97" />
  <circle cx="36.00" cy="217.50" r="3.2" fill="#b42318" /><text x="40.00" y="211.50" font-family="Arial, Helvetica, sans-serif" font-size="10" fill="#7a271a">p0</text><circle cx="158.88" cy="102.14" r="3.2" fill="#b42318" /><text x="162.88" y="96.14" font-family="Arial, Helvetica, sans-serif" font-size="10" fill="#7a271a">p1</text><circle cx="335.52" cy="260.76" r="3.2" fill="#b42318" /><text x="339.52" y="254.76" font-family="Arial, Helvetica, sans-serif" font-size="10" fill="#7a271a">p2</text><circle cx="519.84" cy="82.91" r="3.2" fill="#b42318" /><text x="523.84" y="76.91" font-family="Arial, Helvetica, sans-serif" font-size="10" fill="#7a271a">p3</text><circle cx="665.76" cy="174.24" r="3.2" fill="#b42318" /><text x="669.76" y="168.24" font-family="Arial, Helvetica, sans-serif" font-size="10" fill="#7a271a">p4</text><circle cx="804.00" cy="135.79" r="3.2" fill="#b42318" /><text x="808.00" y="129.79" font-family="Arial, Helvetica, sans-serif" font-size="10" fill="#7a271a">p5</text>
  <rect x="554" y="44" width="250" height="74" rx="6" ry="6" fill="#ffffff" stroke="#c8d9e6" />
  <line x1="564" y1="62" x2="612" y2="62" stroke="#005f73" stroke-width="2" />
  <text x="620" y="66" font-family="Arial, Helvetica, sans-serif" font-size="10" fill="#243b53">interpolated curve u(t)</text>
  <line x1="564" y1="82" x2="612" y2="82" stroke="#8f1d2c" stroke-width="1.5" stroke-dasharray="5 3" />
  <text x="620" y="86" font-family="Arial, Helvetica, sans-serif" font-size="10" fill="#243b53">piecewise control polyline</text>
  <circle cx="588" cy="100" r="3.2" fill="#b42318" />
  <text x="620" y="104" font-family="Arial, Helvetica, sans-serif" font-size="10" fill="#243b53">control points p_i</text>
  <text x="420.0" y="22" text-anchor="middle" font-family="Arial, Helvetica, sans-serif" font-size="15" fill="#102a43">polynomial order 1 interpolation</text>
  <text x="420.0" y="312" text-anchor="middle" font-family="Arial, Helvetica, sans-serif" font-size="12" fill="#334e68">normalized control time</text>
  <text x="14" y="160.0" transform="rotate(-90 14,160.0)" text-anchor="middle" font-family="Arial, Helvetica, sans-serif" font-size="12" fill="#334e68">control value</text>
  <text x="36" y="302" font-family="Arial, Helvetica, sans-serif" font-size="11" fill="#486581">0</text>
  <text x="804" y="302" text-anchor="end" font-family="Arial, Helvetica, sans-serif" font-size="11" fill="#486581">1</text>
  <text x="30" y="40" text-anchor="end" font-family="Arial, Helvetica, sans-serif" font-size="11" fill="#486581">1.76</text>
  <text x="30" y="288" text-anchor="end" font-family="Arial, Helvetica, sans-serif" font-size="11" fill="#486581">0.72</text>
</svg>
