<svg xmlns="http://www.w3.org/2000/svg" width="840" height="320" viewBox="0 0 840 320">
  <rect x="0" y="0" width="840" height="320" fill="#ffffff" />
  <rect x="36" y="36" width="768" height="248" fill="#f7fbff" stroke="#c8d9e6" />
  <polyline fill="none" stroke="#8f1d2c" stroke-width="1.5" stroke-dasharray="5 3" points="36.00,217.50 158.88,102.14 335.52,260.76 519.84,82.91 665.76,174.24 804.00,135.79" />
  <polyline fill="none" stroke="#005f73" stroke-width="2" points="36.00,189.78 36.64,189.72 37.28,189.66 37.92,189.60 38.56,189.54 39.20,189.49 39.84,189.43 40.48,189.37 41.12,189.31 41.76,189.26 42.41,189.20 43.05,189.14 43.69,189.08 44.33,189.03 44.97,188.97 45.61,188.91 46.25,188.85 46.89,188.80 47.53,188.74 48.17,188.68 48.81,188.63 49.45,188.57 50.09,188.51 50.73,188.45 51.37,188.40 52.01,188.34 52.65,188.28 53.29,188.23 53.93,188.17 54.58,188.11 55.22,188.05 55.86,188.00 56.50,187.94 57.14,187.88 57.78,187.83 58.42,187.77 59.06,187.71 59.70,187.66 60.34,187.60 60.98,187.54 61.62,187.49 62.26,187.43 62.90,187.37 63.54,187.32 64.18,187.26 64.82,187.20 65.46,187.15 66.11,187.09 66.75,187.03 67.39,186.98 68.03,186.92 68.67,186.86 69.31,186.81 69.95,186.75 70.59,186.70 71.23,186.64 71.87,186.58 72.51,186.53 73.15,186.47 73.79,186.41 74.43,186.36 75.07,186.30 75.71,186.25 76.35,186.19 76.99,186.13 77.63,186.08 78.28,186.02 78.92,185.97 79.56,185.91 80.20,185.85 80.84,185.80 81.48,185.74 82.12,185.69 82.76,185.63 83.40,185.57 84.04,185.52 84.68,185.46 85.32,185.41 85.96,185.35 86.60,185.30 87.24,185.24 87.88,185.18 88.52,185.13 89.16,185.07 89.80,185.02 90.45,184.96 91.09,184.91 91.73,184.85 92.37,184.80 93.01,184.74 93.65,184.68 94.29,184.63 94.93,184.57 95.57,184.52 96.21,184.46 96.85,184.41 97.49,184.35 98.13,184.30 98.77,184.24 99.41,184.19 100.05,184.13 100.69,184.08 101.33,184.02 101.97,183.97 102.62,183.91 103.26,183.86 103.90,183.80 104.54,183.75 105.18,183.69 105.82,183.64 106.46,183.58 107.10,183.53 107.74,183.47 108.38,183.42 109.02,183.36 109.66,183.31 110.30,183.25 110.94,183.20 111.58,183.14 112.22,183.09 112.86,183.04 113.50,182.98 114.15,182.93 114.79,182.87 115.43,182.82 116.07,182.76 116.71,182.71 117.35,182.65 117.99,182.60 118.63,182.55 119.27,182.49 119.91,182.44 120.55,182.38 121.19,182.33 121.83,182.27 122.47,182.22 123.11,182.17 123.75,182.11 124.39,182.06 125.03,182.00 125.67,181.95 126.32,181.89 126.96,181.84 127.60,181.79 128.24,181.73 128.88,181.68 129.52,181.63 130.16,181.57 130.80,181.52 131.44,181.46 132.08,181.41 132.72,181.36 133.36,181.30 134.00,181.25 134.64,181.19 135.28,181.14 135.92,181.09 136.56,181.03 137.20,180.98 137.84,180.93 138.49,180.87 139.13,180.82 139.77,180.77 140.41,180.71 141.05,180.66 141.69,180.61 142.33,180.55 142.97,180.50 143.61,180.45 144.25,180.39 144.89,180.34 145.53,180.29 146.17,180.23 146.81,180.18 147.45,180.13 148.09,180.07 148.73,180.02 149.37,179.97 150.02,179.91 150.66,179.86 151.30,179.81 151.94,179.75 152.58,179.70 153.22,179.65 153.86,179.60 154.50,179.54 155.14,179.49 155.78,179.44 156.42,179.38 157.06,179.33 157.70,179.28 158.34,179.23 158.98,179.17 159.62,179.12 160.26,179.07 160.90,179.02 161.54,178.96 162.19,178.91 162.83,178.86 163.47,178.80 164.11,178.75 164.75,178.70 165.39,178.65 166.03,178.60 166.67,178.54 167.31,178.49 167.95,178.44 168.59,178.39 169.23,178.33 169.87,178.28 170.51,178.23 171.15,178.18 171.79,178.12 172.43,178.07 173.07,178.02 173.71,177.97 174.36,177.92 175.00,177.86 175.64,177.81 176.28,177.76 176.92,177.71 177.56,177.66 178.20,177.60 178.84,177.55 179.48,177.50 180.12,177.45 180.76,177.40 181.40,177.34 182.04,177.29 182.68,177.24 183.32,177.19 183.96,177.14 184.60,177.09 185.24,177.03 185.88,176.98 186.53,176.93 187.17,176.88 187.81,176.83 188.45,176.78 189.09,176.73 189.73,176.67 190.37,176.62 191.01,176.57 191.65,176.52 192.29,176.47 192.93,176.42 193.57,176.37 194.21,176.31 194.85,176.26 195.49,176.21 196.13,176.16 196.77,176.11 197.41,176.06 198.06,176.01 198.70,175.96 199.34,175.91 199.98,175.85 200.62,175.80 201.26,175.75 201.90,175.70 202.54,175.65 203.18,175.60 203.82,175.55 204.46,175.50 205.10,175.45 205.74,175.40 206.38,175.35 207.02,175.29 207.66,175.24 208.30,175.19 208.94,175.14 209.58,175.09 210.23,175.04 210.87,174.99 211.51,174.94 212.15,174.89 212.79,174.84 213.43,174.79 214.07,174.74 214.71,174.69 215.35,174.64 215.99,174.59 216.63,174.54 217.27,174.49 217.91,174.44 218.55,174.39 219.19,174.34 219.83,174.29 220.47,174.23 221.11,174.18 221.75,174.13 222.40,174.08 223.04,174.03 223.68,173.98 224.32,173.93 224.96,173.88 225.60,173.83 226.24,173.78 226.88,173.73 227.52,173.68 228.16,173.63 228.80,173.58 229.44,173.53 230.08,173.49 230.72,173.44 231.36,173.39 232.00,173.34 232.64,173.29 233.28,173.24 233.92,173.19 234.57,173.14 235.21,173.09 235.85,173.04 236.49,172.99 237.13,172.94 237.77,172.89 238.41,172.84 239.05,172.79 239.69,172.74 240.33,172.69 240.97,172.64 241.61,172.59 242.25,172.54 242.89,172.49 243.53,172.45 244.17,172.40 244.81,172.35 245.45,172.30 246.10,172.25 246.74,172.20 247.38,172.15 248.02,172.10 248.66,172.05 249.30,172.00 249.94,171.95 250.58,171.91 251.22,171.86 251.86,171.81 252.50,171.76 253.14,171.71 253.78,171.66 254.42,171.61 255.06,171.56 255.70,171.51 256.34,171.47 256.98,171.42 257.62,171.37 258.27,171.32 258.91,171.27 259.55,171.22 260.19,171.17 260.83,171.13 261.47,171.08 262.11,171.03 262.75,170.98 263.39,170.93 264.03,170.88 264.67,170.83 265.31,170.79 265.95,170.74 266.59,170.69 267.23,170.64 267.87,170.59 268.51,170.54 269.15,170.50 269.79,170.45 270.44,170.40 271.08,170.35 271.72,170.30 272.36,170.26 273.00,170.21 273.64,170.16 274.28,170.11 274.92,170.06 275.56,170.02 276.20,169.97 276.84,169.92 277.48,169.87 278.12,169.82 278.76,169.78 279.40,169.73 280.04,169.68 280.68,169.63 281.32,169.59 281.96,169.54 282.61,169.49 283.25,169.44 283.89,169.40 284.53,169.35 285.17,169.30 285.81,169.25 286.45,169.21 287.09,169.16 287.73,169.11 288.37,169.06 289.01,169.02 289.65,168.97 290.29,168.92 290.93,168.87 291.57,168.83 292.21,168.78 292.85,168.73 293.49,168.68 294.14,168.64 294.78,168.59 295.42,168.54 296.06,168.50 296.70,168.45 297.34,168.40 297.98,168.35 298.62,168.31 299.26,168.26 299.90,168.21 300.54,168.17 301.18,168.12 301.82,168.07 302.46,168.03 303.10,167.98 303.74,167.93 304.38,167.89 305.02,167.84 305.66,167.79 306.31,167.75 306.95,167.70 307.59,167.65 308.23,167.61 308.87,167.56 309.51,167.51 310.15,167.47 310.79,167.42 311.43,167.37 312.07,167.33 312.71,167.28 313.35,167.23 313.99,167.19 314.63,167.14 315.27,167.10 315.91,167.05 316.55,167.00 317.19,166.96 317.83,166.91 318.48,166.86 319.12,166.82 319.76,166.77 320.40,166.73 321.04,166.68 321.68,166.63 322.32,166.59 322.96,166.54 323.60,166.50 324.24,166.45 324.88,166.40 325.52,166.36 326.16,166.31 326.80,166.27 327.44,166.22 328.08,166.17 328.72,166.13 329.36,166.08 330.01,166.04 330.65,165.99 331.29,165.95 331.93,165.90 332.57,165.85 333.21,165.81 333.85,165.76 334.49,165.72 335.13,165.67 335.77,165.63 336.41,165.58 337.05,165.54 337.69,165.49 338.33,165.45 338.97,165.40 339.61,165.35 340.25,165.31 340.89,165.26 341.53,165.22 342.18,165.17 342.82,165.13 343.46,165.08 344.10,165.04 344.74,164.99 345.38,164.95 346.02,164.90 346.66,164.86 347.30,164.81 347.94,164.77 348.58,164.72 349.22,164.68 349.86,164.63 350.50,164.59 351.14,164.54 351.78,164.50 352.42,164.45 353.06,164.41 353.70,164.36 354.35,164.32 354.99,164.28 355.63,164.23 356.27,164.19 356.91,164.14 357.55,164.10 358.19,164.05 358.83,164.01 359.47,163.96 360.11,163.92 360.75,163.87 361.39,163.83 362.03,163.79 362.67,163.74 363.31,163.70 363.95,163.65 364.59,163.61 365.23,163.56 365.87,163.52 366.52,163.48 367.16,163.43 367.80,163.39 368.44,163.34 369.08,163.30 369.72,163.25 370.36,163.21 371.00,163.17 371.64,163.12 372.28,163.08 372.92,163.03 373.56,162.99 374.20,162.95 374.84,162.90 375.48,162.86 376.12,162.82 376.76,162.77 377.40,162.73 378.05,162.68 378.69,162.64 379.33,162.60 379.97,162.55 380.61,162.51 381.25,162.47 381.89,162.42 382.53,162.38 383.17,162.33 383.81,162.29 384.45,162.25 385.09,162.20 385.73,162.16 386.37,162.12 387.01,162.07 387.65,162.03 388.29,161.99 388.93,161.94 389.57,161.90 390.22,161.86 390.86,161.81 391.50,161.77 392.14,161.73 392.78,161.69 393.42,161.64 394.06,161.60 394.70,161.56 395.34,161.51 395.98,161.47 396.62,161.43 397.26,161.38 397.90,161.34 398.54,161.30 399.18,161.26 399.82,161.21 400.46,161.17 401.10,161.13 401.74,161.08 402.39,161.04 403.03,161.00 403.67,160.96 404.31,160.91 404.95,160.87 405.59,160.83 406.23,160.79 406.87,160.74 407.51,160.70 408.15,160.66 408.79,160.62 409.43,160.57 410.07,160.53 410.71,160.49 411.35,160.45 411.99,160.40 412.63,160.36 413.27,160.32 413.91,160.28 414.56,160.23 415.20,160.19 415.84,160.15 416.48,160.11 417.12,160.07 417.76,160.02 418.40,159.98 419.04,159.94 419.68,159.90 420.32,159.86 420.96,159.81 421.60,159.77 422.24,159.73 422.88,159.69 423.52,159.65 424.16,159.60 424.80,159.56 425.44,159.52 426.09,159.48 426.73,159.44 427.37,159.39 428.01,159.35 428.65,159.31 429.29,159.27 429.93,159.23 430.57,159.19 431.21,159.14 431.85,159.10 432.49,159.06 433.13,159.02 433.77,158.98 434.41,158.94 435.05,158.90 435.69,158.85 436.33,158.81 436.97,158.77 437.61,158.73 438.26,158.69 438.90,158.65 439.54,158.61 440.18,158.57 440.82,158.52 441.46,158.48 442.10,158.44 442.74,158.40 443.38,158.36 444.02,158.32 444.66,158.28 445.30,158.24 445.94,158.20 446.58,158.16 447.22,158.11 447.86,158.07 448.50,158.03 449.14,157.99 449.78,157.95 450.43,157.91 451.07,157.87 451.71,157.83 452.35,157.79 452.99,157.75 453.63,157.71 454.27,157.67 454.91,157.63 455.55,157.58 456.19,157.54 456.83,157.50 457.47,157.46 458.11,157.42 458.75,157.38 459.39,157.34 460.03,157.30 460.67,157.26 461.31,157.22 461.95,157.18 462.60,157.14 463.24,157.10 463.88,157.06 464.52,157.02 465.16,156.98 465.80,156.94 466.44,156.90 467.08,156.86 467.72,156.82 468.36,156.78 469.00,156.74 469.64,156.70 470.28,156.66 470.92,156.62 471.56,156.58 472.20,156.54 472.84,156.50 473.48,156.46 474.13,156.42 474.77,156.38 475.41,156.34 476.05,156.30 476.69,156.26 477.33,156.22 477.97,156.18 478.61,156.14 479.25,156.10 479.89,156.06 480.53,156.02 481.17,155.98 481.81,155.94 482.45,155.90 483.09,155.87 483.73,155.83 484.37,155.79 485.01,155.75 485.65,155.71 486.30,155.67 486.94,155.63 487.58,155.59 488.22,155.55 488.86,155.51 489.50,155.47 490.14,155.43 490.78,155.39 491.42,155.36 492.06,155.32 492.70,155.28 493.34,155.24 493.98,155.20 494.62,155.16 495.26,155.12 495.90,155.08 496.54,155.04 497.18,155.00 497.82,154.97 498.47,154.93 499.11,154.89 499.75,154.85 500.39,154.81 501.03,154.77 501.67,154.73 502.31,154.69 502.95,154.66 503.59,154.62 504.23,154.58 504.87,154.54 505.51,154.50 506.15,154.46 506.79,154.42 507.43,154.39 508.07,154.35 508.71,154.31 509.35,154.27 509.99,154.23 510.64,154.19 511.28,154.16 511.92,154.12 512.56,154.08 513.20,154.04 513.84,154.00 514.48,153.97 515.12,153.93 515.76,153.89 516.40,153.85 517.04,153.81 517.68,153.77 518.32,153.74 518.96,153.70 519.60,153.66 520.24,153.62 520.88,153.58 521.52,153.55 522.17,153.51 522.81,153.47 523.45,153.43 524.09,153.40 524.73,153.36 525.37,153.32 526.01,153.28 526.65,153.25 527.29,153.21 527.93,153.17 528.57,153.13 529.21,153.09 529.85,153.06 530.49,153.02 531.13,152.98 531.77,152.94 532.41,152.91 533.05,152.87 533.69,152.83 534.34,152.80 534.98,152.76 535.62,152.72 536.26,152.68 536.90,152.65 537.54,152.61 538.18,152.57 538.82,152.53 539.46,152.50 540.10,152.46 540.74,152.42 541.38,152.39 542.02,152.35 542.66,152.31 543.30,152.28 543.94,152.24 544.58,152.20 545.22,152.16 545.86,152.13 546.51,152.09 547.15,152.05 547.79,152.02 548.43,151.98 549.07,151.94 549.71,151.91 550.35,151.87 550.99,151.83 551.63,151.80 552.27,151.76 552.91,151.72 553.55,151.69 554.19,151.65 554.83,151.61 555.47,151.58 556.11,151.54 556.75,151.50 557.39,151.47 558.04,151.43 558.68,151.40 559.32,151.36 559.96,151.32 560.60,151.29 561.24,151.25 561.88,151.21 562.52,151.18 563.16,151.14 563.80,151.11 564.44,151.07 565.08,151.03 565.72,151.00 566.36,150.96 567.00,150.93 567.64,150.89 568.28,150.85 568.92,150.82 569.56,150.78 570.21,150.75 570.85,150.71 571.49,150.67 572.13,150.64 572.77,150.60 573.41,150.57 574.05,150.53 574.69,150.50 575.33,150.46 575.97,150.42 576.61,150.39 577.25,150.35 577.89,150.32 578.53,150.28 579.17,150.25 579.81,150.21 580.45,150.18 581.09,150.14 581.73,150.10 582.38,150.07 583.02,150.03 583.66,150.00 584.30,149.96 584.94,149.93 585.58,149.89 586.22,149.86 586.86,149.82 587.50,149.79 588.14,149.75 588.78,149.72 589.42,149.68 590.06,149.65 590.70,149.61 591.34,149.58 591.98,149.54 592.62,149.51 593.26,149.47 593.90,149.44 594.55,149.40 595.19,149.37 595.83,149.33 596.47,149.30 597.11,149.26 597.75,149.23 598.39,149.19 599.03,149.16 599.67,149.12 600.31,149.09 600.95,149.06 601.59,149.02 602.23,148.99 602.87,148.95 603.51,148.92 604.15,148.88 604.79,148.85 605.43,148.81 606.08,148.78 606.72,148.74 607.36,148.71 608.00,148.68 608.64,148.64 609.28,148.61 609.92,148.57 610.56,148.54 611.20,148.50 611.84,148.47 612.48,148.44 613.12,148.40 613.76,148.37 614.40,148.33 615.04,148.30 615.68,148.27 616.32,148.23 616.96,148.20 617.60,148.16 618.25,148.13 618.89,148.10 619.53,148.06 620.17,148.03 620.81,148.00 621.45,147.96 622.09,147.93 622.73,147.89 623.37,147.86 624.01,147.83 624.65,147.79 625.29,147.76 625.93,147.73 626.57,147.69 627.21,147.66 627.85,147.63 628.49,147.59 629.13,147.56 629.77,147.52 630.42,147.49 631.06,147.46 631.70,147.42 632.34,147.39 632.98,147.36 633.62,147.32 634.26,147.29 634.90,147.26 635.54,147.23 636.18,147.19 636.82,147.16 637.46,147.13 638.10,147.09 638.74,147.06 639.38,147.03 640.02,146.99 640.66,146.96 641.30,146.93 641.94,146.89 642.59,146.86 643.23,146.83 643.87,146.80 644.51,146.76 645.15,146.73 645.79,146.70 646.43,146.66 647.07,146.63 647.71,146.60 648.35,146.57 648.99,146.53 649.63,146.50 650.27,146.47 650.91,146.44 651.55,146.40 652.19,146.37 652.83,146.34 653.47,146.31 654.12,146.27 654.76,146.24 655.40,146.21 656.04,146.18 656.68,146.14 657.32,146.11 657.96,146.08 658.60,146.05 659.24,146.02 659.88,145.98 660.52,145.95 661.16,145.92 661.80,145.89 662.44,145.85 663.08,145.82 663.72,145.79 664.36,145.76 665.00,145.73 665.64,145.69 666.29,145.66 666.93,145.63 667.57,145.60 668.21,145.57 668.85,145.54 669.49,145.50 670.13,145.47 670.77,145.44 671.41,145.41 672.05,145.38 672.69,145.34 673.33,145.31 673.97,145.28 674.61,145.25 675.25,145.22 675.89,145.19 676.53,145.16 677.17,145.12 677.81,145.09 678.46,145.06 679.10,145.03 679.74,145.00 680.38,144.97 681.02,144.94 681.66,144.90 682.30,144.87 682.94,144.84 683.58,144.81 684.22,144.78 684.86,144.75 685.50,144.72 686.14,144.69 686.78,144.65 687.42,144.62 688.06,144.59 688.70,144.56 689.34,144.53 689.98,144.50 690.63,144.47 691.27,144.44 691.91,144.41 692.55,144.38 693.19,144.34 693.83,144.31 694.47,144.28 695.11,144.25 695.75,144.22 696.39,144.19 697.03,144.16 697.67,144.13 698.31,144.10 698.95,144.07 699.59,144.04 700.23,144.01 700.87,143.98 701.51,143.95 702.16,143.92 702.80,143.89 703.44,143.86 704.08,143.82 704.72,143.79 705.36,143.76 706.00,143.73 706.64,143.70 707.28,143.67 707.92,143.64 708.56,143.61 709.20,143.58 709.84,143.55 710.48,143.52 711.12,143.49 711.76,143.46 712.40,143.43 713.04,143.40 713.68,143.37 714.33,143.34 714.97,143.31 715.61,143.28 716.25,143.25 716.89,143.22 717.53,143.19 718.17,143.16 718.81,143.13 719.45,143.10 720.09,143.07 720.73,143.04 721.37,143.01 722.01,142.98 722.65,142.95 723.29,142.93 723.93,142.90 724.57,142.87 725.21,142.84 725.85,142.81 726.50,142.78 727.14,142.75 727.78,142.72 728.42,142.69 729.06,142.66 729.70,142.63 730.34,142.60 730.98,142.57 731.62,142.54 732.26,142.51 732.90,142.48 733.54,142.46 734.18,142.43 734.82,142.40 735.46,142.37 736.10,142.34 736.74,142.31 737.38,142.28 738.03,142.25 738.67,142.22 739.31,142.19 739.95,142.16 740.59,142.14 741.23,142.11 741.87,142.08 742.51,142.05 743.15,142.02 743.79,141.99 744.43,141.96 745.07,141.93 745.71,141.91 746.35,141.88 746.99,141.85 747.63,141.82 748.27,141.79 748.91,141.76 749.55,141.73 750.20,141.71 750.84,141.68 751.48,141.65 752.12,141.62 752.76,141.59 753.40,141.56 754.04,141.54 754.68,141.51 755.32,141.48 755.96,141.45 756.60,141.42 757.24,141.39 757.88,141.37 758.52,141.34 759.16,141.31 759.80,141.28 760.44,141.25 761.08,141.23 761.72,141.20 762.37,141.17 763.01,141.14 763.65,141.11 764.29,141.09 764.93,141.06 765.57,141.03 766.21,141.00 766.85,140.97 767.49,140.95 768.13,140.92 768.77,140.89 769.41,140.86 770.05,140.84 770.69,140.81 771.33,140.78 771.97,140.75 772.61,140.72 773.25,140.70 773.89,140.67 774.54,140.64 775.18,140.61 775.82,140.59 776.46,140.56 777.10,140.53 777.74,140.51 778.38,140.48 779.02,140.45 779.66,140.42 780.30,140.40 780.94,140.37 781.58,140.34 782.22,140.31 782.86,140.29 783.50,140.26 784.14,140.23 784.78,140.21 785.42,140.18 786.07,140.15 786.71,140.12 787.35,140.10 787.99,140.07 788.63,140.04 789.27,140.02 789.91,139.99 790.55,139.96 791.19,139.94 791.83,139.91 792.47,139.88 793.11,139.86 793.75,139.83 794.39,139.80 795.03,139.78 795.67,139.75 796.31,139.72 796.95,139.70 797.59,139.67 798.24,139.64 798.88,139.62 799.52,139.59 800.16,139.56 800.80,139.54 801.44,139.51 802.08,139.48 802.72,139.46 803.36,139.43 804.00,139.41" />
  <circle cx="36.00" cy="217.50" r="3.2" fill="#b42318" /><text x="40.00" y="211.50" font-family="Arial, Helvetica, sans-serif" font-size="10" fill="#7a271a">p0</text><circle cx="158.88" cy="102.14" r="3.2" fill="#b42318" /><text x="162.88" y="96.14" font-family="Arial, Helvetica, sans-serif" font-size="10" fill="#7a271a">p1</text><circle cx="335.52" cy="260.76" r="3.2" fill="#b42318" /><text x="339.52" y="254.76" font-family="Arial, Helvetica, sans-serif" font-size="10" fill="#7a271a">p2</text><circle cx="519.84" cy="82.91" r="3.2" fill="#b42318" /><text x="523.84" y="76.91" font-family="Arial, Helvetica, sans-serif" font-size="10" fill="#7a271a">p3</text><circle cx="665.76" cy="174.24" r="3.2" fill="#b42318" /><text x="669.76" y="168.24" font-family="Arial, Helvetica, sans-serif" font-size="10" fill="#7a271a">p4</text><circle cx="804.00" cy="135.79" r="3.2" fill="#b42318" /><text x="808.00" y="129.79" font-family="Arial, Helvetica, sans-serif" font-size="10" fill="#7a271a">p5</text>
  <rect x="554" y="44" width="250" height="74" rx="6" ry="6" fill="#ffffff" stroke="#c8d9e6" />
  <line x1="564" y1="62" x2="612" y2="62" stroke="#005f73" stroke-width="2" />
  <text x="620" y="66" font-family="Arial, Helvetica, sans-serif" font-size="10" fill="#243b53">interpolated curve u(t)</text>
  <line x1="564" y1="82" x2="612" y2="82" stroke="#8f1d2c" stroke-width="1.5" stroke-dasharray="5 3" />
  <text x="620" y="86" font-family="Arial, Helvetica, sans-serif" font-size="10" fill="#243b53">piecewise control polyline</text>
  <circle cx="588" cy="100" r="3.2" fill="#b42318" />
  <text x="620" y="104" font-family="Arial, Helvetica, sans-serif" font-size="10" fill="#243b53">control points p_i</text>
  <text x="420.0" y="22" text-anchor="middle" font-family="Arial, Helvetica, sans-serif" font-size="15" fill="#102a43">polynomial order 2 interpolation</text>
  <text x="420.0" y="312" text-anchor="middle" font-family="Arial, Helvetica, sans-serif" font-size="12" fill="#334e68">normalized control time</text>
  <text x="14" y="160.0" transform="rotate(-90 14,160.0)" text-anchor="middle" font-family="Arial, Helvetica, sans-serif" font-size="12" fill="#334e68">control value</text>
  <text x="36" y="302" font-family="Arial, Helvetica, sans-serif" font-size="11" fill="#486581">0</text>
  <text x="804" y="302" text-anchor="end" font-family="Arial, Helvetica, sans-serif" font-size="11" fill="#486581">1</text>
  <text x="30" y="40" text-anchor="end" font-family="Arial, Helvetica, sans-serif" font-size="11" fill="#486581">1.76</text>
  <text x="30" y="288" text-anchor="end" font-family="Arial, Helvetica, sans-serif" font-size="11" fill="#486581">0.72</text>
</svg>
