<svg xmlns="http://www.w3.org/2000/svg" width="840" height="320" viewBox="0 0 840 320">
  <rect x="0" y="0" width="840" height="320" fill="#ffffff" />
  <rect x="36" y="36" width="768" height="248" fill="#f7fbff" stroke="#c8d9e6" />
  <polyline fill="none" stroke="#8f1d2c" stroke-width="1.5" stroke-dasharray="5 3" points="36.00,217.50 158.88,102.14 335.52,260.76 519.84,82.91 665.76,174.24 804.00,135.79" />
  <polyline fill="none" stroke="#005f73" stroke-width="2" points="36.00,191.28 36.64,191.19 37.28,191.11 37.92,191.02 38.56,190.94 39.20,190.85 39.84,190.77 40.48,190.68 41.12,190.60 41.76,190.52 42.41,190.43 43.05,190.35 43.69,190.26 44.33,190.18 44.97,190.10 45.61,190.01 46.25,189.93 46.89,189.85 47.53,189.77 48.17,189.68 48.81,189.60 49.45,189.52 50.09,189.44 50.73,189.36 51.37,189.27 52.01,189.19 52.65,189.11 53.29,189.03 53.93,188.95 54.58,188.87 55.22,188.79 55.86,188.71 56.50,188.62 57.14,188.54 57.78,188.46 58.42,188.38 59.06,188.30 59.70,188.22 60.34,188.14 60.98,188.06 61.62,187.98 62.26,187.91 62.90,187.83 63.54,187.75 64.18,187.67 64.82,187.59 65.46,187.51 66.11,187.43 66.75,187.35 67.39,187.28 68.03,187.20 68.67,187.12 69.31,187.04 69.95,186.96 70.59,186.89 71.23,186.81 71.87,186.73 72.51,186.65 73.15,186.58 73.79,186.50 74.43,186.42 75.07,186.35 75.71,186.27 76.35,186.19 76.99,186.12 77.63,186.04 78.28,185.97 78.92,185.89 79.56,185.82 80.20,185.74 80.84,185.66 81.48,185.59 82.12,185.51 82.76,185.44 83.40,185.36 84.04,185.29 84.68,185.22 85.32,185.14 85.96,185.07 86.60,184.99 87.24,184.92 87.88,184.84 88.52,184.77 89.16,184.70 89.80,184.62 90.45,184.55 91.09,184.48 91.73,184.40 92.37,184.33 93.01,184.26 93.65,184.19 94.29,184.11 94.93,184.04 95.57,183.97 96.21,183.90 96.85,183.82 97.49,183.75 98.13,183.68 98.77,183.61 99.41,183.54 100.05,183.47 100.69,183.40 101.33,183.32 101.97,183.25 102.62,183.18 103.26,183.11 103.90,183.04 104.54,182.97 105.18,182.90 105.82,182.83 106.46,182.76 107.10,182.69 107.74,182.62 108.38,182.55 109.02,182.48 109.66,182.41 110.30,182.34 110.94,182.27 111.58,182.20 112.22,182.13 112.86,182.07 113.50,182.00 114.15,181.93 114.79,181.86 115.43,181.79 116.07,181.72 116.71,181.66 117.35,181.59 117.99,181.52 118.63,181.45 119.27,181.38 119.91,181.32 120.55,181.25 121.19,181.18 121.83,181.12 122.47,181.05 123.11,180.98 123.75,180.92 124.39,180.85 125.03,180.78 125.67,180.72 126.32,180.65 126.96,180.58 127.60,180.52 128.24,180.45 128.88,180.39 129.52,180.32 130.16,180.25 130.80,180.19 131.44,180.12 132.08,180.06 132.72,179.99 133.36,179.93 134.00,179.86 134.64,179.80 135.28,179.73 135.92,179.67 136.56,179.61 137.20,179.54 137.84,179.48 138.49,179.41 139.13,179.35 139.77,179.29 140.41,179.22 141.05,179.16 141.69,179.10 142.33,179.03 142.97,178.97 143.61,178.91 144.25,178.84 144.89,178.78 145.53,178.72 146.17,178.66 146.81,178.59 147.45,178.53 148.09,178.47 148.73,178.41 149.37,178.34 150.02,178.28 150.66,178.22 151.30,178.16 151.94,178.10 152.58,178.04 153.22,177.97 153.86,177.91 154.50,177.85 155.14,177.79 155.78,177.73 156.42,177.67 157.06,177.61 157.70,177.55 158.34,177.49 158.98,177.43 159.62,177.37 160.26,177.31 160.90,177.25 161.54,177.19 162.19,177.13 162.83,177.07 163.47,177.01 164.11,176.95 164.75,176.89 165.39,176.83 166.03,176.77 166.67,176.71 167.31,176.65 167.95,176.59 168.59,176.54 169.23,176.48 169.87,176.42 170.51,176.36 171.15,176.30 171.79,176.24 172.43,176.19 173.07,176.13 173.71,176.07 174.36,176.01 175.00,175.95 175.64,175.90 176.28,175.84 176.92,175.78 177.56,175.72 178.20,175.67 178.84,175.61 179.48,175.55 180.12,175.50 180.76,175.44 181.40,175.38 182.04,175.33 182.68,175.27 183.32,175.21 183.96,175.16 184.60,175.10 185.24,175.05 185.88,174.99 186.53,174.93 187.17,174.88 187.81,174.82 188.45,174.77 189.09,174.71 189.73,174.66 190.37,174.60 191.01,174.55 191.65,174.49 192.29,174.44 192.93,174.38 193.57,174.33 194.21,174.27 194.85,174.22 195.49,174.16 196.13,174.11 196.77,174.06 197.41,174.00 198.06,173.95 198.70,173.89 199.34,173.84 199.98,173.79 200.62,173.73 201.26,173.68 201.90,173.63 202.54,173.57 203.18,173.52 203.82,173.47 204.46,173.41 205.10,173.36 205.74,173.31 206.38,173.26 207.02,173.20 207.66,173.15 208.30,173.10 208.94,173.05 209.58,172.99 210.23,172.94 210.87,172.89 211.51,172.84 212.15,172.79 212.79,172.73 213.43,172.68 214.07,172.63 214.71,172.58 215.35,172.53 215.99,172.48 216.63,172.43 217.27,172.37 217.91,172.32 218.55,172.27 219.19,172.22 219.83,172.17 220.47,172.12 221.11,172.07 221.75,172.02 222.40,171.97 223.04,171.92 223.68,171.87 224.32,171.82 224.96,171.77 225.60,171.72 226.24,171.67 226.88,171.62 227.52,171.57 228.16,171.52 228.80,171.47 229.44,171.42 230.08,171.37 230.72,171.32 231.36,171.27 232.00,171.22 232.64,171.17 233.28,171.13 233.92,171.08 234.57,171.03 235.21,170.98 235.85,170.93 236.49,170.88 237.13,170.83 237.77,170.79 238.41,170.74 239.05,170.69 239.69,170.64 240.33,170.59 240.97,170.55 241.61,170.50 242.25,170.45 242.89,170.40 243.53,170.36 244.17,170.31 244.81,170.26 245.45,170.21 246.10,170.17 246.74,170.12 247.38,170.07 248.02,170.02 248.66,169.98 249.30,169.93 249.94,169.88 250.58,169.84 251.22,169.79 251.86,169.75 252.50,169.70 253.14,169.65 253.78,169.61 254.42,169.56 255.06,169.51 255.70,169.47 256.34,169.42 256.98,169.38 257.62,169.33 258.27,169.28 258.91,169.24 259.55,169.19 260.19,169.15 260.83,169.10 261.47,169.06 262.11,169.01 262.75,168.97 263.39,168.92 264.03,168.88 264.67,168.83 265.31,168.79 265.95,168.74 266.59,168.70 267.23,168.65 267.87,168.61 268.51,168.57 269.15,168.52 269.79,168.48 270.44,168.43 271.08,168.39 271.72,168.34 272.36,168.30 273.00,168.26 273.64,168.21 274.28,168.17 274.92,168.13 275.56,168.08 276.20,168.04 276.84,167.99 277.48,167.95 278.12,167.91 278.76,167.86 279.40,167.82 280.04,167.78 280.68,167.74 281.32,167.69 281.96,167.65 282.61,167.61 283.25,167.56 283.89,167.52 284.53,167.48 285.17,167.44 285.81,167.39 286.45,167.35 287.09,167.31 287.73,167.27 288.37,167.23 289.01,167.18 289.65,167.14 290.29,167.10 290.93,167.06 291.57,167.02 292.21,166.97 292.85,166.93 293.49,166.89 294.14,166.85 294.78,166.81 295.42,166.77 296.06,166.72 296.70,166.68 297.34,166.64 297.98,166.60 298.62,166.56 299.26,166.52 299.90,166.48 300.54,166.44 301.18,166.40 301.82,166.36 302.46,166.31 303.10,166.27 303.74,166.23 304.38,166.19 305.02,166.15 305.66,166.11 306.31,166.07 306.95,166.03 307.59,165.99 308.23,165.95 308.87,165.91 309.51,165.87 310.15,165.83 310.79,165.79 311.43,165.75 312.07,165.71 312.71,165.67 313.35,165.63 313.99,165.59 314.63,165.55 315.27,165.51 315.91,165.47 316.55,165.44 317.19,165.40 317.83,165.36 318.48,165.32 319.12,165.28 319.76,165.24 320.40,165.20 321.04,165.16 321.68,165.12 322.32,165.08 322.96,165.05 323.60,165.01 324.24,164.97 324.88,164.93 325.52,164.89 326.16,164.85 326.80,164.81 327.44,164.78 328.08,164.74 328.72,164.70 329.36,164.66 330.01,164.62 330.65,164.59 331.29,164.55 331.93,164.51 332.57,164.47 333.21,164.43 333.85,164.40 334.49,164.36 335.13,164.32 335.77,164.28 336.41,164.25 337.05,164.21 337.69,164.17 338.33,164.13 338.97,164.10 339.61,164.06 340.25,164.02 340.89,163.98 341.53,163.95 342.18,163.91 342.82,163.87 343.46,163.84 344.10,163.80 344.74,163.76 345.38,163.73 346.02,163.69 346.66,163.65 347.30,163.62 347.94,163.58 348.58,163.54 349.22,163.51 349.86,163.47 350.50,163.43 351.14,163.40 351.78,163.36 352.42,163.32 353.06,163.29 353.70,163.25 354.35,163.22 354.99,163.18 355.63,163.14 356.27,163.11 356.91,163.07 357.55,163.04 358.19,163.00 358.83,162.96 359.47,162.93 360.11,162.89 360.75,162.86 361.39,162.82 362.03,162.79 362.67,162.75 363.31,162.72 363.95,162.68 364.59,162.64 365.23,162.61 365.87,162.57 366.52,162.54 367.16,162.50 367.80,162.47 368.44,162.43 369.08,162.40 369.72,162.36 370.36,162.33 371.00,162.29 371.64,162.26 372.28,162.22 372.92,162.19 373.56,162.15 374.20,162.12 374.84,162.08 375.48,162.05 376.12,162.02 376.76,161.98 377.40,161.95 378.05,161.91 378.69,161.88 379.33,161.84 379.97,161.81 380.61,161.77 381.25,161.74 381.89,161.71 382.53,161.67 383.17,161.64 383.81,161.60 384.45,161.57 385.09,161.54 385.73,161.50 386.37,161.47 387.01,161.43 387.65,161.40 388.29,161.37 388.93,161.33 389.57,161.30 390.22,161.26 390.86,161.23 391.50,161.20 392.14,161.16 392.78,161.13 393.42,161.10 394.06,161.06 394.70,161.03 395.34,161.00 395.98,160.96 396.62,160.93 397.26,160.90 397.90,160.86 398.54,160.83 399.18,160.80 399.82,160.76 400.46,160.73 401.10,160.70 401.74,160.66 402.39,160.63 403.03,160.60 403.67,160.56 404.31,160.53 404.95,160.50 405.59,160.47 406.23,160.43 406.87,160.40 407.51,160.37 408.15,160.33 408.79,160.30 409.43,160.27 410.07,160.24 410.71,160.20 411.35,160.17 411.99,160.14 412.63,160.11 413.27,160.07 413.91,160.04 414.56,160.01 415.20,159.98 415.84,159.94 416.48,159.91 417.12,159.88 417.76,159.85 418.40,159.81 419.04,159.78 419.68,159.75 420.32,159.72 420.96,159.68 421.60,159.65 422.24,159.62 422.88,159.59 423.52,159.56 424.16,159.52 424.80,159.49 425.44,159.46 426.09,159.43 426.73,159.40 427.37,159.36 428.01,159.33 428.65,159.30 429.29,159.27 429.93,159.24 430.57,159.21 431.21,159.17 431.85,159.14 432.49,159.11 433.13,159.08 433.77,159.05 434.41,159.01 435.05,158.98 435.69,158.95 436.33,158.92 436.97,158.89 437.61,158.86 438.26,158.83 438.90,158.79 439.54,158.76 440.18,158.73 440.82,158.70 441.46,158.67 442.10,158.64 442.74,158.60 443.38,158.57 444.02,158.54 444.66,158.51 445.30,158.48 445.94,158.45 446.58,158.42 447.22,158.39 447.86,158.35 448.50,158.32 449.14,158.29 449.78,158.26 450.43,158.23 451.07,158.20 451.71,158.17 452.35,158.14 452.99,158.11 453.63,158.07 454.27,158.04 454.91,158.01 455.55,157.98 456.19,157.95 456.83,157.92 457.47,157.89 458.11,157.86 458.75,157.83 459.39,157.80 460.03,157.76 460.67,157.73 461.31,157.70 461.95,157.67 462.60,157.64 463.24,157.61 463.88,157.58 464.52,157.55 465.16,157.52 465.80,157.49 466.44,157.46 467.08,157.42 467.72,157.39 468.36,157.36 469.00,157.33 469.64,157.30 470.28,157.27 470.92,157.24 471.56,157.21 472.20,157.18 472.84,157.15 473.48,157.12 474.13,157.09 474.77,157.06 475.41,157.03 476.05,157.00 476.69,156.96 477.33,156.93 477.97,156.90 478.61,156.87 479.25,156.84 479.89,156.81 480.53,156.78 481.17,156.75 481.81,156.72 482.45,156.69 483.09,156.66 483.73,156.63 484.37,156.60 485.01,156.57 485.65,156.54 486.30,156.51 486.94,156.48 487.58,156.45 488.22,156.41 488.86,156.38 489.50,156.35 490.14,156.32 490.78,156.29 491.42,156.26 492.06,156.23 492.70,156.20 493.34,156.17 493.98,156.14 494.62,156.11 495.26,156.08 495.90,156.05 496.54,156.02 497.18,155.99 497.82,155.96 498.47,155.93 499.11,155.90 499.75,155.87 500.39,155.84 501.03,155.81 501.67,155.78 502.31,155.75 502.95,155.71 503.59,155.68 504.23,155.65 504.87,155.62 505.51,155.59 506.15,155.56 506.79,155.53 507.43,155.50 508.07,155.47 508.71,155.44 509.35,155.41 509.99,155.38 510.64,155.35 511.28,155.32 511.92,155.29 512.56,155.26 513.20,155.23 513.84,155.20 514.48,155.17 515.12,155.14 515.76,155.11 516.40,155.08 517.04,155.05 517.68,155.01 518.32,154.98 518.96,154.95 519.60,154.92 520.24,154.89 520.88,154.86 521.52,154.83 522.17,154.80 522.81,154.77 523.45,154.74 524.09,154.71 524.73,154.68 525.37,154.65 526.01,154.62 526.65,154.59 527.29,154.56 527.93,154.53 528.57,154.50 529.21,154.47 529.85,154.44 530.49,154.40 531.13,154.37 531.77,154.34 532.41,154.31 533.05,154.28 533.69,154.25 534.34,154.22 534.98,154.19 535.62,154.16 536.26,154.13 536.90,154.10 537.54,154.07 538.18,154.04 538.82,154.01 539.46,153.98 540.10,153.95 540.74,153.91 541.38,153.88 542.02,153.85 542.66,153.82 543.30,153.79 543.94,153.76 544.58,153.73 545.22,153.70 545.86,153.67 546.51,153.64 547.15,153.61 547.79,153.58 548.43,153.55 549.07,153.51 549.71,153.48 550.35,153.45 550.99,153.42 551.63,153.39 552.27,153.36 552.91,153.33 553.55,153.30 554.19,153.27 554.83,153.24 555.47,153.20 556.11,153.17 556.75,153.14 557.39,153.11 558.04,153.08 558.68,153.05 559.32,153.02 559.96,152.99 560.60,152.96 561.24,152.92 561.88,152.89 562.52,152.86 563.16,152.83 563.80,152.80 564.44,152.77 565.08,152.74 565.72,152.71 566.36,152.67 567.00,152.64 567.64,152.61 568.28,152.58 568.92,152.55 569.56,152.52 570.21,152.49 570.85,152.45 571.49,152.42 572.13,152.39 572.77,152.36 573.41,152.33 574.05,152.30 574.69,152.27 575.33,152.23 575.97,152.20 576.61,152.17 577.25,152.14 577.89,152.11 578.53,152.08 579.17,152.04 579.81,152.01 580.45,151.98 581.09,151.95 581.73,151.92 582.38,151.88 583.02,151.85 583.66,151.82 584.30,151.79 584.94,151.76 585.58,151.72 586.22,151.69 586.86,151.66 587.50,151.63 588.14,151.60 588.78,151.56 589.42,151.53 590.06,151.50 590.70,151.47 591.34,151.44 591.98,151.40 592.62,151.37 593.26,151.34 593.90,151.31 594.55,151.27 595.19,151.24 595.83,151.21 596.47,151.18 597.11,151.14 597.75,151.11 598.39,151.08 599.03,151.05 599.67,151.01 600.31,150.98 600.95,150.95 601.59,150.92 602.23,150.88 602.87,150.85 603.51,150.82 604.15,150.78 604.79,150.75 605.43,150.72 606.08,150.69 606.72,150.65 607.36,150.62 608.00,150.59 608.64,150.55 609.28,150.52 609.92,150.49 610.56,150.45 611.20,150.42 611.84,150.39 612.48,150.35 613.12,150.32 613.76,150.29 614.40,150.25 615.04,150.22 615.68,150.19 616.32,150.15 616.96,150.12 617.60,150.09 618.25,150.05 618.89,150.02 619.53,149.99 620.17,149.95 620.81,149.92 621.45,149.89 622.09,149.85 622.73,149.82 623.37,149.78 624.01,149.75 624.65,149.72 625.29,149.68 625.93,149.65 626.57,149.61 627.21,149.58 627.85,149.55 628.49,149.51 629.13,149.48 629.77,149.44 630.42,149.41 631.06,149.37 631.70,149.34 632.34,149.31 632.98,149.27 633.62,149.24 634.26,149.20 634.90,149.17 635.54,149.13 636.18,149.10 636.82,149.06 637.46,149.03 638.10,148.99 638.74,148.96 639.38,148.92 640.02,148.89 640.66,148.86 641.30,148.82 641.94,148.79 642.59,148.75 643.23,148.71 643.87,148.68 644.51,148.64 645.15,148.61 645.79,148.57 646.43,148.54 647.07,148.50 647.71,148.47 648.35,148.43 648.99,148.40 649.63,148.36 650.27,148.33 650.91,148.29 651.55,148.25 652.19,148.22 652.83,148.18 653.47,148.15 654.12,148.11 654.76,148.07 655.40,148.04 656.04,148.00 656.68,147.97 657.32,147.93 657.96,147.89 658.60,147.86 659.24,147.82 659.88,147.79 660.52,147.75 661.16,147.71 661.80,147.68 662.44,147.64 663.08,147.60 663.72,147.57 664.36,147.53 665.00,147.49 665.64,147.46 666.29,147.42 666.93,147.38 667.57,147.35 668.21,147.31 668.85,147.27 669.49,147.23 670.13,147.20 670.77,147.16 671.41,147.12 672.05,147.09 672.69,147.05 673.33,147.01 673.97,146.97 674.61,146.94 675.25,146.90 675.89,146.86 676.53,146.82 677.17,146.79 677.81,146.75 678.46,146.71 679.10,146.67 679.74,146.63 680.38,146.60 681.02,146.56 681.66,146.52 682.30,146.48 682.94,146.44 683.58,146.40 684.22,146.37 684.86,146.33 685.50,146.29 686.14,146.25 686.78,146.21 687.42,146.17 688.06,146.14 688.70,146.10 689.34,146.06 689.98,146.02 690.63,145.98 691.27,145.94 691.91,145.90 692.55,145.86 693.19,145.82 693.83,145.78 694.47,145.74 695.11,145.71 695.75,145.67 696.39,145.63 697.03,145.59 697.67,145.55 698.31,145.51 698.95,145.47 699.59,145.43 700.23,145.39 700.87,145.35 701.51,145.31 702.16,145.27 702.80,145.23 703.44,145.19 704.08,145.15 704.72,145.11 705.36,145.07 706.00,145.03 706.64,144.99 707.28,144.95 707.92,144.91 708.56,144.86 709.20,144.82 709.84,144.78 710.48,144.74 711.12,144.70 711.76,144.66 712.40,144.62 713.04,144.58 713.68,144.54 714.33,144.50 714.97,144.45 715.61,144.41 716.25,144.37 716.89,144.33 717.53,144.29 718.17,144.25 718.81,144.21 719.45,144.16 720.09,144.12 720.73,144.08 721.37,144.04 722.01,144.00 722.65,143.95 723.29,143.91 723.93,143.87 724.57,143.83 725.21,143.78 725.85,143.74 726.50,143.70 727.14,143.66 727.78,143.61 728.42,143.57 729.06,143.53 729.70,143.49 730.34,143.44 730.98,143.40 731.62,143.36 732.26,143.31 732.90,143.27 733.54,143.23 734.18,143.18 734.82,143.14 735.46,143.10 736.10,143.05 736.74,143.01 737.38,142.96 738.03,142.92 738.67,142.88 739.31,142.83 739.95,142.79 740.59,142.74 741.23,142.70 741.87,142.66 742.51,142.61 743.15,142.57 743.79,142.52 744.43,142.48 745.07,142.43 745.71,142.39 746.35,142.34 746.99,142.30 747.63,142.25 748.27,142.21 748.91,142.16 749.55,142.12 750.20,142.07 750.84,142.03 751.48,141.98 752.12,141.94 752.76,141.89 753.40,141.85 754.04,141.80 754.68,141.75 755.32,141.71 755.96,141.66 756.60,141.62 757.24,141.57 757.88,141.52 758.52,141.48 759.16,141.43 759.80,141.38 760.44,141.34 761.08,141.29 761.72,141.24 762.37,141.20 763.01,141.15 763.65,141.10 764.29,141.06 764.93,141.01 765.57,140.96 766.21,140.91 766.85,140.87 767.49,140.82 768.13,140.77 768.77,140.72 769.41,140.68 770.05,140.63 770.69,140.58 771.33,140.53 771.97,140.49 772.61,140.44 773.25,140.39 773.89,140.34 774.54,140.29 775.18,140.24 775.82,140.19 776.46,140.15 777.10,140.10 777.74,140.05 778.38,140.00 779.02,139.95 779.66,139.90 780.30,139.85 780.94,139.80 781.58,139.75 782.22,139.70 782.86,139.65 783.50,139.60 784.14,139.56 784.78,139.51 785.42,139.46 786.07,139.41 786.71,139.36 787.35,139.31 787.99,139.26 788.63,139.20 789.27,139.15 789.91,139.10 790.55,139.05 791.19,139.00 791.83,138.95 792.47,138.90 793.11,138.85 793.75,138.80 794.39,138.75 795.03,138.70 795.67,138.64 796.31,138.59 796.95,138.54 797.59,138.49 798.24,138.44 798.88,138.39 799.52,138.33 800.16,138.28 800.80,138.23 801.44,138.18 802.08,138.13 802.72,138.07 803.36,138.02 804.00,137.97" />
  <circle cx="36.00" cy="217.50" r="3.2" fill="#b42318" /><text x="40.00" y="211.50" font-family="Arial, Helvetica, sans-serif" font-size="10" fill="#7a271a">p0</text><circle cx="158.88" cy="102.14" r="3.2" fill="#b42318" /><text x="162.88" y="96.14" font-family="Arial, Helvetica, sans-serif" font-size="10" fill="#7a271a">p1</text><circle cx="335.52" cy="260.76" r="3.2" fill="#b42318" /><text x="339.52" y="254.76" font-family="Arial, Helvetica, sans-serif" font-size="10" fill="#7a271a">p2</text><circle cx="519.84" cy="82.91" r="3.2" fill="#b42318" /><text x="523.84" y="76.91" font-family="Arial, Helvetica, sans-serif" font-size="10" fill="#7a271a">p3</text><circle cx="665.76" cy="174.24" r="3.2" fill="#b42318" /><text x="669.76" y="168.24" font-family="Arial, Helvetica, sans-serif" font-size="10" fill="#7a271a">p4</text><circle cx="804.00" cy="135.79" r="3.2" fill="#b42318" /><text x="808.00" y="129.79" font-family="Arial, Helvetica, sans-serif" font-size="10" fill="#7a271a">p5</text>
  <rect x="554" y="44" width="250" height="74" rx="6" ry="6" fill="#ffffff" stroke="#c8d9e6" />
  <line x1="564" y1="62" x2="612" y2="62" stroke="#005f73" stroke-width="2" />
  <text x="620" y="66" font-family="Arial, Helvetica, sans-serif" font-size="10" fill="#243b53">interpolated curve u(t)</text>
  <line x1="564" y1="82" x2="612" y2="82" stroke="#8f1d2c" stroke-width="1.5" stroke-dasharray="5 3" />
  <text x="620" y="86" font-family="Arial, Helvetica, sans-serif" font-size="10" fill="#243b53">piecewise control polyline</text>
  <circle cx="588" cy="100" r="3.2" fill="#b42318" />
  <text x="620" y="104" font-family="Arial, Helvetica, sans-serif" font-size="10" fill="#243b53">control points p_i</text>
  <text x="420.0" y="22" text-anchor="middle" font-family="Arial, Helvetica, sans-serif" font-size="15" fill="#102a43">polynomial order 3 interpolation</text>
  <text x="420.0" y="312" text-anchor="middle" font-family="Arial, Helvetica, sans-serif" font-size="12" fill="#334e68">normalized control time</text>
  <text x="14" y="160.0" transform="rotate(-90 14,160.0)" text-anchor="middle" font-family="Arial, Helvetica, sans-serif" font-size="12" fill="#334e68">control value</text>
  <text x="36" y="302" font-family="Arial, Helvetica, sans-serif" font-size="11" fill="#486581">0</text>
  <text x="804" y="302" text-anchor="end" font-family="Arial, Helvetica, sans-serif" font-size="11" fill="#486581">1</text>
  <text x="30" y="40" text-anchor="end" font-family="Arial, Helvetica, sans-serif" font-size="11" fill="#486581">1.76</text>
  <text x="30" y="288" text-anchor="end" font-family="Arial, Helvetica, sans-serif" font-size="11" fill="#486581">0.72</text>
</svg>
