<svg xmlns="http://www.w3.org/2000/svg" width="840" height="320" viewBox="0 0 840 320">
  <rect x="0" y="0" width="840" height="320" fill="#ffffff" />
  <rect x="36" y="36" width="768" height="248" fill="#f7fbff" stroke="#c8d9e6" />
  <polyline fill="none" stroke="#8f1d2c" stroke-width="1.5" stroke-dasharray="5 3" points="36.00,217.50 158.88,102.14 335.52,260.76 519.84,82.91 665.76,174.24 804.00,135.79" />
  <polyline fill="none" stroke="#005f73" stroke-width="2" points="36.00,217.50 36.64,216.90 37.28,216.30 37.92,215.70 38.56,215.10 39.20,214.49 39.84,213.89 40.48,213.29 41.12,212.69 41.76,212.09 42.41,211.49 43.05,210.89 43.69,210.29 44.33,209.68 44.97,209.08 45.61,208.48 46.25,207.88 46.89,207.28 47.53,206.68 48.17,206.08 48.81,205.47 49.45,204.87 50.09,204.27 50.73,203.67 51.37,203.07 52.01,202.47 52.65,201.87 53.29,201.27 53.93,200.66 54.58,200.06 55.22,199.46 55.86,198.86 56.50,198.26 57.14,197.66 57.78,197.06 58.42,196.45 59.06,195.85 59.70,195.25 60.34,194.65 60.98,194.05 61.62,193.45 62.26,192.85 62.90,192.24 63.54,191.64 64.18,191.04 64.82,190.44 65.46,189.84 66.11,189.24 66.75,188.64 67.39,188.04 68.03,187.43 68.67,186.83 69.31,186.23 69.95,185.63 70.59,185.03 71.23,184.43 71.87,183.83 72.51,183.22 73.15,182.62 73.79,182.02 74.43,181.42 75.07,180.82 75.71,180.22 76.35,179.62 76.99,179.02 77.63,178.41 78.28,177.81 78.92,177.21 79.56,176.61 80.20,176.01 80.84,175.41 81.48,174.81 82.12,174.20 82.76,173.60 83.40,173.00 84.04,172.40 84.68,171.80 85.32,171.20 85.96,170.60 86.60,170.00 87.24,169.39 87.88,168.79 88.52,168.19 89.16,167.59 89.80,166.99 90.45,166.39 91.09,165.79 91.73,165.18 92.37,164.58 93.01,163.98 93.65,163.38 94.29,162.78 94.93,162.18 95.57,161.58 96.21,160.97 96.85,160.37 97.49,159.77 98.13,159.17 98.77,158.57 99.41,157.97 100.05,157.37 100.69,156.77 101.33,156.16 101.97,155.56 102.62,154.96 103.26,154.36 103.90,153.76 104.54,153.16 105.18,152.56 105.82,151.95 106.46,151.35 107.10,150.75 107.74,150.15 108.38,149.55 109.02,148.95 109.66,148.35 110.30,147.75 110.94,147.14 111.58,146.54 112.22,145.94 112.86,145.34 113.50,144.74 114.15,144.14 114.79,143.54 115.43,142.93 116.07,142.33 116.71,141.73 117.35,141.13 117.99,140.53 118.63,139.93 119.27,139.33 119.91,138.73 120.55,138.12 121.19,137.52 121.83,136.92 122.47,136.32 123.11,135.72 123.75,135.12 124.39,134.52 125.03,133.91 125.67,133.31 126.32,132.71 126.96,132.11 127.60,131.51 128.24,130.91 128.88,130.31 129.52,129.71 130.16,129.10 130.80,128.50 131.44,127.90 132.08,127.30 132.72,126.70 133.36,126.10 134.00,125.50 134.64,124.89 135.28,124.29 135.92,123.69 136.56,123.09 137.20,122.49 137.84,121.89 138.49,121.29 139.13,120.68 139.77,120.08 140.41,119.48 141.05,118.88 141.69,118.28 142.33,117.68 142.97,117.08 143.61,116.48 144.25,115.87 144.89,115.27 145.53,114.67 146.17,114.07 146.81,113.47 147.45,112.87 148.09,112.27 148.73,111.66 149.37,111.06 150.02,110.46 150.66,109.86 151.30,109.26 151.94,108.66 152.58,108.06 153.22,107.46 153.86,106.85 154.50,106.25 155.14,105.65 155.78,105.05 156.42,104.45 157.06,103.85 157.70,103.25 158.34,102.64 158.98,102.23 159.62,102.81 160.26,103.38 160.90,103.96 161.54,104.53 162.19,105.11 162.83,105.68 163.47,106.26 164.11,106.83 164.75,107.41 165.39,107.98 166.03,108.56 166.67,109.13 167.31,109.71 167.95,110.28 168.59,110.86 169.23,111.43 169.87,112.01 170.51,112.58 171.15,113.16 171.79,113.74 172.43,114.31 173.07,114.89 173.71,115.46 174.36,116.04 175.00,116.61 175.64,117.19 176.28,117.76 176.92,118.34 177.56,118.91 178.20,119.49 178.84,120.06 179.48,120.64 180.12,121.21 180.76,121.79 181.40,122.36 182.04,122.94 182.68,123.51 183.32,124.09 183.96,124.66 184.60,125.24 185.24,125.81 185.88,126.39 186.53,126.96 187.17,127.54 187.81,128.12 188.45,128.69 189.09,129.27 189.73,129.84 190.37,130.42 191.01,130.99 191.65,131.57 192.29,132.14 192.93,132.72 193.57,133.29 194.21,133.87 194.85,134.44 195.49,135.02 196.13,135.59 196.77,136.17 197.41,136.74 198.06,137.32 198.70,137.89 199.34,138.47 199.98,139.04 200.62,139.62 201.26,140.19 201.90,140.77 202.54,141.34 203.18,141.92 203.82,142.50 204.46,143.07 205.10,143.65 205.74,144.22 206.38,144.80 207.02,145.37 207.66,145.95 208.30,146.52 208.94,147.10 209.58,147.67 210.23,148.25 210.87,148.82 211.51,149.40 212.15,149.97 212.79,150.55 213.43,151.12 214.07,151.70 214.71,152.27 215.35,152.85 215.99,153.42 216.63,154.00 217.27,154.57 217.91,155.15 218.55,155.72 219.19,156.30 219.83,156.88 220.47,157.45 221.11,158.03 221.75,158.60 222.40,159.18 223.04,159.75 223.68,160.33 224.32,160.90 224.96,161.48 225.60,162.05 226.24,162.63 226.88,163.20 227.52,163.78 228.16,164.35 228.80,164.93 229.44,165.50 230.08,166.08 230.72,166.65 231.36,167.23 232.00,167.80 232.64,168.38 233.28,168.95 233.92,169.53 234.57,170.10 235.21,170.68 235.85,171.26 236.49,171.83 237.13,172.41 237.77,172.98 238.41,173.56 239.05,174.13 239.69,174.71 240.33,175.28 240.97,175.86 241.61,176.43 242.25,177.01 242.89,177.58 243.53,178.16 244.17,178.73 244.81,179.31 245.45,179.88 246.10,180.46 246.74,181.03 247.38,181.61 248.02,182.18 248.66,182.76 249.30,183.33 249.94,183.91 250.58,184.48 251.22,185.06 251.86,185.64 252.50,186.21 253.14,186.79 253.78,187.36 254.42,187.94 255.06,188.51 255.70,189.09 256.34,189.66 256.98,190.24 257.62,190.81 258.27,191.39 258.91,191.96 259.55,192.54 260.19,193.11 260.83,193.69 261.47,194.26 262.11,194.84 262.75,195.41 263.39,195.99 264.03,196.56 264.67,197.14 265.31,197.71 265.95,198.29 266.59,198.86 267.23,199.44 267.87,200.02 268.51,200.59 269.15,201.17 269.79,201.74 270.44,202.32 271.08,202.89 271.72,203.47 272.36,204.04 273.00,204.62 273.64,205.19 274.28,205.77 274.92,206.34 275.56,206.92 276.20,207.49 276.84,208.07 277.48,208.64 278.12,209.22 278.76,209.79 279.40,210.37 280.04,210.94 280.68,211.52 281.32,212.09 281.96,212.67 282.61,213.24 283.25,213.82 283.89,214.40 284.53,214.97 285.17,215.55 285.81,216.12 286.45,216.70 287.09,217.27 287.73,217.85 288.37,218.42 289.01,219.00 289.65,219.57 290.29,220.15 290.93,220.72 291.57,221.30 292.21,221.87 292.85,222.45 293.49,223.02 294.14,223.60 294.78,224.17 295.42,224.75 296.06,225.32 296.70,225.90 297.34,226.47 297.98,227.05 298.62,227.62 299.26,228.20 299.90,228.78 300.54,229.35 301.18,229.93 301.82,230.50 302.46,231.08 303.10,231.65 303.74,232.23 304.38,232.80 305.02,233.38 305.66,233.95 306.31,234.53 306.95,235.10 307.59,235.68 308.23,236.25 308.87,236.83 309.51,237.40 310.15,237.98 310.79,238.55 311.43,239.13 312.07,239.70 312.71,240.28 313.35,240.85 313.99,241.43 314.63,242.00 315.27,242.58 315.91,243.16 316.55,243.73 317.19,244.31 317.83,244.88 318.48,245.46 319.12,246.03 319.76,246.61 320.40,247.18 321.04,247.76 321.68,248.33 322.32,248.91 322.96,249.48 323.60,250.06 324.24,250.63 324.88,251.21 325.52,251.78 326.16,252.36 326.80,252.93 327.44,253.51 328.08,254.08 328.72,254.66 329.36,255.23 330.01,255.81 330.65,256.38 331.29,256.96 331.93,257.54 332.57,258.11 333.21,258.69 333.85,259.26 334.49,259.84 335.13,260.41 335.77,260.52 336.41,259.90 337.05,259.28 337.69,258.67 338.33,258.05 338.97,257.43 339.61,256.81 340.25,256.19 340.89,255.58 341.53,254.96 342.18,254.34 342.82,253.72 343.46,253.10 344.10,252.49 344.74,251.87 345.38,251.25 346.02,250.63 346.66,250.01 347.30,249.40 347.94,248.78 348.58,248.16 349.22,247.54 349.86,246.92 350.50,246.31 351.14,245.69 351.78,245.07 352.42,244.45 353.06,243.83 353.70,243.22 354.35,242.60 354.99,241.98 355.63,241.36 356.27,240.74 356.91,240.13 357.55,239.51 358.19,238.89 358.83,238.27 359.47,237.65 360.11,237.04 360.75,236.42 361.39,235.80 362.03,235.18 362.67,234.56 363.31,233.94 363.95,233.33 364.59,232.71 365.23,232.09 365.87,231.47 366.52,230.85 367.16,230.24 367.80,229.62 368.44,229.00 369.08,228.38 369.72,227.76 370.36,227.15 371.00,226.53 371.64,225.91 372.28,225.29 372.92,224.67 373.56,224.06 374.20,223.44 374.84,222.82 375.48,222.20 376.12,221.58 376.76,220.97 377.40,220.35 378.05,219.73 378.69,219.11 379.33,218.49 379.97,217.88 380.61,217.26 381.25,216.64 381.89,216.02 382.53,215.40 383.17,214.79 383.81,214.17 384.45,213.55 385.09,212.93 385.73,212.31 386.37,211.70 387.01,211.08 387.65,210.46 388.29,209.84 388.93,209.22 389.57,208.60 390.22,207.99 390.86,207.37 391.50,206.75 392.14,206.13 392.78,205.51 393.42,204.90 394.06,204.28 394.70,203.66 395.34,203.04 395.98,202.42 396.62,201.81 397.26,201.19 397.90,200.57 398.54,199.95 399.18,199.33 399.82,198.72 400.46,198.10 401.10,197.48 401.74,196.86 402.39,196.24 403.03,195.63 403.67,195.01 404.31,194.39 404.95,193.77 405.59,193.15 406.23,192.54 406.87,191.92 407.51,191.30 408.15,190.68 408.79,190.06 409.43,189.45 410.07,188.83 410.71,188.21 411.35,187.59 411.99,186.97 412.63,186.36 413.27,185.74 413.91,185.12 414.56,184.50 415.20,183.88 415.84,183.26 416.48,182.65 417.12,182.03 417.76,181.41 418.40,180.79 419.04,180.17 419.68,179.56 420.32,178.94 420.96,178.32 421.60,177.70 422.24,177.08 422.88,176.47 423.52,175.85 424.16,175.23 424.80,174.61 425.44,173.99 426.09,173.38 426.73,172.76 427.37,172.14 428.01,171.52 428.65,170.90 429.29,170.29 429.93,169.67 430.57,169.05 431.21,168.43 431.85,167.81 432.49,167.20 433.13,166.58 433.77,165.96 434.41,165.34 435.05,164.72 435.69,164.11 436.33,163.49 436.97,162.87 437.61,162.25 438.26,161.63 438.90,161.02 439.54,160.40 440.18,159.78 440.82,159.16 441.46,158.54 442.10,157.92 442.74,157.31 443.38,156.69 444.02,156.07 444.66,155.45 445.30,154.83 445.94,154.22 446.58,153.60 447.22,152.98 447.86,152.36 448.50,151.74 449.14,151.13 449.78,150.51 450.43,149.89 451.07,149.27 451.71,148.65 452.35,148.04 452.99,147.42 453.63,146.80 454.27,146.18 454.91,145.56 455.55,144.95 456.19,144.33 456.83,143.71 457.47,143.09 458.11,142.47 458.75,141.86 459.39,141.24 460.03,140.62 460.67,140.00 461.31,139.38 461.95,138.77 462.60,138.15 463.24,137.53 463.88,136.91 464.52,136.29 465.16,135.68 465.80,135.06 466.44,134.44 467.08,133.82 467.72,133.20 468.36,132.58 469.00,131.97 469.64,131.35 470.28,130.73 470.92,130.11 471.56,129.49 472.20,128.88 472.84,128.26 473.48,127.64 474.13,127.02 474.77,126.40 475.41,125.79 476.05,125.17 476.69,124.55 477.33,123.93 477.97,123.31 478.61,122.70 479.25,122.08 479.89,121.46 480.53,120.84 481.17,120.22 481.81,119.61 482.45,118.99 483.09,118.37 483.73,117.75 484.37,117.13 485.01,116.52 485.65,115.90 486.30,115.28 486.94,114.66 487.58,114.04 488.22,113.43 488.86,112.81 489.50,112.19 490.14,111.57 490.78,110.95 491.42,110.34 492.06,109.72 492.70,109.10 493.34,108.48 493.98,107.86 494.62,107.24 495.26,106.63 495.90,106.01 496.54,105.39 497.18,104.77 497.82,104.15 498.47,103.54 499.11,102.92 499.75,102.30 500.39,101.68 501.03,101.06 501.67,100.45 502.31,99.83 502.95,99.21 503.59,98.59 504.23,97.97 504.87,97.36 505.51,96.74 506.15,96.12 506.79,95.50 507.43,94.88 508.07,94.27 508.71,93.65 509.35,93.03 509.99,92.41 510.64,91.79 511.28,91.18 511.92,90.56 512.56,89.94 513.20,89.32 513.84,88.70 514.48,88.09 515.12,87.47 515.76,86.85 516.40,86.23 517.04,85.61 517.68,85.00 518.32,84.38 518.96,83.76 519.60,83.14 520.24,83.16 520.88,83.57 521.52,83.97 522.17,84.37 522.81,84.77 523.45,85.17 524.09,85.57 524.73,85.97 525.37,86.37 526.01,86.77 526.65,87.17 527.29,87.57 527.93,87.98 528.57,88.38 529.21,88.78 529.85,89.18 530.49,89.58 531.13,89.98 531.77,90.38 532.41,90.78 533.05,91.18 533.69,91.58 534.34,91.98 534.98,92.39 535.62,92.79 536.26,93.19 536.90,93.59 537.54,93.99 538.18,94.39 538.82,94.79 539.46,95.19 540.10,95.59 540.74,95.99 541.38,96.39 542.02,96.80 542.66,97.20 543.30,97.60 543.94,98.00 544.58,98.40 545.22,98.80 545.86,99.20 546.51,99.60 547.15,100.00 547.79,100.40 548.43,100.80 549.07,101.21 549.71,101.61 550.35,102.01 550.99,102.41 551.63,102.81 552.27,103.21 552.91,103.61 553.55,104.01 554.19,104.41 554.83,104.81 555.47,105.21 556.11,105.62 556.75,106.02 557.39,106.42 558.04,106.82 558.68,107.22 559.32,107.62 559.96,108.02 560.60,108.42 561.24,108.82 561.88,109.22 562.52,109.62 563.16,110.02 563.80,110.43 564.44,110.83 565.08,111.23 565.72,111.63 566.36,112.03 567.00,112.43 567.64,112.83 568.28,113.23 568.92,113.63 569.56,114.03 570.21,114.43 570.85,114.84 571.49,115.24 572.13,115.64 572.77,116.04 573.41,116.44 574.05,116.84 574.69,117.24 575.33,117.64 575.97,118.04 576.61,118.44 577.25,118.84 577.89,119.25 578.53,119.65 579.17,120.05 579.81,120.45 580.45,120.85 581.09,121.25 581.73,121.65 582.38,122.05 583.02,122.45 583.66,122.85 584.30,123.25 584.94,123.66 585.58,124.06 586.22,124.46 586.86,124.86 587.50,125.26 588.14,125.66 588.78,126.06 589.42,126.46 590.06,126.86 590.70,127.26 591.34,127.66 591.98,128.07 592.62,128.47 593.26,128.87 593.90,129.27 594.55,129.67 595.19,130.07 595.83,130.47 596.47,130.87 597.11,131.27 597.75,131.67 598.39,132.07 599.03,132.48 599.67,132.88 600.31,133.28 600.95,133.68 601.59,134.08 602.23,134.48 602.87,134.88 603.51,135.28 604.15,135.68 604.79,136.08 605.43,136.48 606.08,136.89 606.72,137.29 607.36,137.69 608.00,138.09 608.64,138.49 609.28,138.89 609.92,139.29 610.56,139.69 611.20,140.09 611.84,140.49 612.48,140.89 613.12,141.29 613.76,141.70 614.40,142.10 615.04,142.50 615.68,142.90 616.32,143.30 616.96,143.70 617.60,144.10 618.25,144.50 618.89,144.90 619.53,145.30 620.17,145.70 620.81,146.11 621.45,146.51 622.09,146.91 622.73,147.31 623.37,147.71 624.01,148.11 624.65,148.51 625.29,148.91 625.93,149.31 626.57,149.71 627.21,150.11 627.85,150.52 628.49,150.92 629.13,151.32 629.77,151.72 630.42,152.12 631.06,152.52 631.70,152.92 632.34,153.32 632.98,153.72 633.62,154.12 634.26,154.52 634.90,154.93 635.54,155.33 636.18,155.73 636.82,156.13 637.46,156.53 638.10,156.93 638.74,157.33 639.38,157.73 640.02,158.13 640.66,158.53 641.30,158.93 641.94,159.34 642.59,159.74 643.23,160.14 643.87,160.54 644.51,160.94 645.15,161.34 645.79,161.74 646.43,162.14 647.07,162.54 647.71,162.94 648.35,163.34 648.99,163.75 649.63,164.15 650.27,164.55 650.91,164.95 651.55,165.35 652.19,165.75 652.83,166.15 653.47,166.55 654.12,166.95 654.76,167.35 655.40,167.75 656.04,168.15 656.68,168.56 657.32,168.96 657.96,169.36 658.60,169.76 659.24,170.16 659.88,170.56 660.52,170.96 661.16,171.36 661.80,171.76 662.44,172.16 663.08,172.56 663.72,172.97 664.36,173.37 665.00,173.77 665.64,174.17 666.29,174.09 666.93,173.92 667.57,173.74 668.21,173.56 668.85,173.38 669.49,173.20 670.13,173.03 670.77,172.85 671.41,172.67 672.05,172.49 672.69,172.31 673.33,172.13 673.97,171.96 674.61,171.78 675.25,171.60 675.89,171.42 676.53,171.24 677.17,171.07 677.81,170.89 678.46,170.71 679.10,170.53 679.74,170.35 680.38,170.17 681.02,170.00 681.66,169.82 682.30,169.64 682.94,169.46 683.58,169.28 684.22,169.11 684.86,168.93 685.50,168.75 686.14,168.57 686.78,168.39 687.42,168.21 688.06,168.04 688.70,167.86 689.34,167.68 689.98,167.50 690.63,167.32 691.27,167.15 691.91,166.97 692.55,166.79 693.19,166.61 693.83,166.43 694.47,166.25 695.11,166.08 695.75,165.90 696.39,165.72 697.03,165.54 697.67,165.36 698.31,165.19 698.95,165.01 699.59,164.83 700.23,164.65 700.87,164.47 701.51,164.29 702.16,164.12 702.80,163.94 703.44,163.76 704.08,163.58 704.72,163.40 705.36,163.23 706.00,163.05 706.64,162.87 707.28,162.69 707.92,162.51 708.56,162.33 709.20,162.16 709.84,161.98 710.48,161.80 711.12,161.62 711.76,161.44 712.40,161.27 713.04,161.09 713.68,160.91 714.33,160.73 714.97,160.55 715.61,160.37 716.25,160.20 716.89,160.02 717.53,159.84 718.17,159.66 718.81,159.48 719.45,159.31 720.09,159.13 720.73,158.95 721.37,158.77 722.01,158.59 722.65,158.41 723.29,158.24 723.93,158.06 724.57,157.88 725.21,157.70 725.85,157.52 726.50,157.35 727.14,157.17 727.78,156.99 728.42,156.81 729.06,156.63 729.70,156.46 730.34,156.28 730.98,156.10 731.62,155.92 732.26,155.74 732.90,155.56 733.54,155.39 734.18,155.21 734.82,155.03 735.46,154.85 736.10,154.67 736.74,154.50 737.38,154.32 738.03,154.14 738.67,153.96 739.31,153.78 739.95,153.60 740.59,153.43 741.23,153.25 741.87,153.07 742.51,152.89 743.15,152.71 743.79,152.54 744.43,152.36 745.07,152.18 745.71,152.00 746.35,151.82 746.99,151.64 747.63,151.47 748.27,151.29 748.91,151.11 749.55,150.93 750.20,150.75 750.84,150.58 751.48,150.40 752.12,150.22 752.76,150.04 753.40,149.86 754.04,149.68 754.68,149.51 755.32,149.33 755.96,149.15 756.60,148.97 757.24,148.79 757.88,148.62 758.52,148.44 759.16,148.26 759.80,148.08 760.44,147.90 761.08,147.72 761.72,147.55 762.37,147.37 763.01,147.19 763.65,147.01 764.29,146.83 764.93,146.66 765.57,146.48 766.21,146.30 766.85,146.12 767.49,145.94 768.13,145.76 768.77,145.59 769.41,145.41 770.05,145.23 770.69,145.05 771.33,144.87 771.97,144.70 772.61,144.52 773.25,144.34 773.89,144.16 774.54,143.98 775.18,143.80 775.82,143.63 776.46,143.45 777.10,143.27 777.74,143.09 778.38,142.91 779.02,142.74 779.66,142.56 780.30,142.38 780.94,142.20 781.58,142.02 782.22,141.84 782.86,141.67 783.50,141.49 784.14,141.31 784.78,141.13 785.42,140.95 786.07,140.78 786.71,140.60 787.35,140.42 787.99,140.24 788.63,140.06 789.27,139.88 789.91,139.71 790.55,139.53 791.19,139.35 791.83,139.17 792.47,138.99 793.11,138.82 793.75,138.64 794.39,138.46 795.03,138.28 795.67,138.10 796.31,137.92 796.95,137.75 797.59,137.57 798.24,137.39 798.88,137.21 799.52,137.03 800.16,136.86 800.80,136.68 801.44,136.50 802.08,136.32 802.72,136.14 803.36,135.96 804.00,135.79" />
  <circle cx="36.00" cy="217.50" r="3.2" fill="#b42318" /><text x="40.00" y="211.50" font-family="Arial, Helvetica, sans-serif" font-size="10" fill="#7a271a">p0</text><circle cx="158.88" cy="102.14" r="3.2" fill="#b42318" /><text x="162.88" y="96.14" font-family="Arial, Helvetica, sans-serif" font-size="10" fill="#7a271a">p1</text><circle cx="335.52" cy="260.76" r="3.2" fill="#b42318" /><text x="339.52" y="254.76" font-family="Arial, Helvetica, sans-serif" font-size="10" fill="#7a271a">p2</text><circle cx="519.84" cy="82.91" r="3.2" fill="#b42318" /><text x="523.84" y="76.91" font-family="Arial, Helvetica, sans-serif" font-size="10" fill="#7a271a">p3</text><circle cx="665.76" cy="174.24" r="3.2" fill="#b42318" /><text x="669.76" y="168.24" font-family="Arial, Helvetica, sans-serif" font-size="10" fill="#7a271a">p4</text><circle cx="804.00" cy="135.79" r="3.2" fill="#b42318" /><text x="808.00" y="129.79" font-family="Arial, Helvetica, sans-serif" font-size="10" fill="#7a271a">p5</text>
  <text x="420.0" y="22" text-anchor="middle" font-family="Arial, Helvetica, sans-serif" font-size="15" fill="#102a43">linear interpolation</text>
  <text x="420.0" y="312" text-anchor="middle" font-family="Arial, Helvetica, sans-serif" font-size="12" fill="#334e68">normalized control time</text>
  <text x="14" y="160.0" transform="rotate(-90 14,160.0)" text-anchor="middle" font-family="Arial, Helvetica, sans-serif" font-size="12" fill="#334e68">control value</text>
  <text x="36" y="302" font-family="Arial, Helvetica, sans-serif" font-size="11" fill="#486581">0</text>
  <text x="804" y="302" text-anchor="end" font-family="Arial, Helvetica, sans-serif" font-size="11" fill="#486581">1</text>
  <text x="30" y="40" text-anchor="end" font-family="Arial, Helvetica, sans-serif" font-size="11" fill="#486581">1.76</text>
  <text x="30" y="288" text-anchor="end" font-family="Arial, Helvetica, sans-serif" font-size="11" fill="#486581">0.72</text>
</svg>
