<svg xmlns="http://www.w3.org/2000/svg" width="840" height="320" viewBox="0 0 840 320">
  <rect x="0" y="0" width="840" height="320" fill="#ffffff" />
  <rect x="36" y="36" width="768" height="248" fill="#f7fbff" stroke="#c8d9e6" />
  <polyline fill="none" stroke="#8f1d2c" stroke-width="1.5" stroke-dasharray="5 3" points="36.00,217.50 158.88,102.14 335.52,260.76 519.84,82.91 665.76,174.24 804.00,135.79" />
  <polyline fill="none" stroke="#005f73" stroke-width="2" points="36.00,217.50 36.64,217.50 37.28,217.50 37.92,217.50 38.56,217.49 39.20,217.48 39.84,217.47 40.48,217.45 41.12,217.42 41.76,217.39 42.41,217.35 43.05,217.30 43.69,217.24 44.33,217.18 44.97,217.10 45.61,217.01 46.25,216.91 46.89,216.80 47.53,216.68 48.17,216.54 48.81,216.39 49.45,216.23 50.09,216.05 50.73,215.85 51.37,215.65 52.01,215.42 52.65,215.18 53.29,214.93 53.93,214.65 54.58,214.37 55.22,214.06 55.86,213.74 56.50,213.40 57.14,213.04 57.78,212.67 58.42,212.27 59.06,211.86 59.70,211.43 60.34,210.99 60.98,210.52 61.62,210.04 62.26,209.54 62.90,209.02 63.54,208.49 64.18,207.93 64.82,207.36 65.46,206.77 66.11,206.16 66.75,205.53 67.39,204.89 68.03,204.23 68.67,203.55 69.31,202.85 69.95,202.14 70.59,201.41 71.23,200.67 71.87,199.90 72.51,199.12 73.15,198.33 73.79,197.52 74.43,196.69 75.07,195.85 75.71,195.00 76.35,194.13 76.99,193.24 77.63,192.34 78.28,191.43 78.92,190.51 79.56,189.57 80.20,188.62 80.84,187.65 81.48,186.68 82.12,185.69 82.76,184.70 83.40,183.69 84.04,182.67 84.68,181.64 85.32,180.61 85.96,179.56 86.60,178.51 87.24,177.44 87.88,176.37 88.52,175.30 89.16,174.21 89.80,173.12 90.45,172.03 91.09,170.93 91.73,169.82 92.37,168.71 93.01,167.60 93.65,166.48 94.29,165.36 94.93,164.24 95.57,163.11 96.21,161.98 96.85,160.86 97.49,159.73 98.13,158.60 98.77,157.48 99.41,156.35 100.05,155.23 100.69,154.10 101.33,152.98 101.97,151.87 102.62,150.75 103.26,149.64 103.90,148.54 104.54,147.44 105.18,146.34 105.82,145.25 106.46,144.17 107.10,143.10 107.74,142.03 108.38,140.97 109.02,139.91 109.66,138.87 110.30,137.83 110.94,136.81 111.58,135.79 112.22,134.78 112.86,133.79 113.50,132.80 114.15,131.83 114.79,130.87 115.43,129.92 116.07,128.99 116.71,128.06 117.35,127.15 117.99,126.26 118.63,125.37 119.27,124.51 119.91,123.65 120.55,122.81 121.19,121.99 121.83,121.18 122.47,120.39 123.11,119.61 123.75,118.85 124.39,118.11 125.03,117.38 125.67,116.67 126.32,115.98 126.96,115.30 127.60,114.65 128.24,114.01 128.88,113.38 129.52,112.78 130.16,112.19 130.80,111.62 131.44,111.07 132.08,110.53 132.72,110.02 133.36,109.52 134.00,109.04 134.64,108.58 135.28,108.14 135.92,107.71 136.56,107.30 137.20,106.91 137.84,106.54 138.49,106.19 139.13,105.85 139.77,105.53 140.41,105.23 141.05,104.94 141.69,104.67 142.33,104.42 142.97,104.18 143.61,103.96 144.25,103.76 144.89,103.56 145.53,103.39 146.17,103.23 146.81,103.08 147.45,102.94 148.09,102.82 148.73,102.71 149.37,102.61 150.02,102.53 150.66,102.45 151.30,102.39 151.94,102.33 152.58,102.28 153.22,102.24 153.86,102.21 154.50,102.19 155.14,102.17 155.78,102.16 156.42,102.15 157.06,102.14 157.70,102.14 158.34,102.14 158.98,102.14 159.62,102.14 160.26,102.14 160.90,102.14 161.54,102.14 162.19,102.15 162.83,102.16 163.47,102.17 164.11,102.18 164.75,102.19 165.39,102.21 166.03,102.24 166.67,102.27 167.31,102.30 167.95,102.34 168.59,102.38 169.23,102.43 169.87,102.49 170.51,102.55 171.15,102.62 171.79,102.69 172.43,102.78 173.07,102.87 173.71,102.96 174.36,103.07 175.00,103.19 175.64,103.31 176.28,103.44 176.92,103.58 177.56,103.73 178.20,103.89 178.84,104.06 179.48,104.24 180.12,104.42 180.76,104.62 181.40,104.83 182.04,105.05 182.68,105.28 183.32,105.52 183.96,105.77 184.60,106.03 185.24,106.30 185.88,106.59 186.53,106.88 187.17,107.19 187.81,107.51 188.45,107.84 189.09,108.18 189.73,108.53 190.37,108.89 191.01,109.27 191.65,109.66 192.29,110.06 192.93,110.47 193.57,110.89 194.21,111.33 194.85,111.78 195.49,112.24 196.13,112.71 196.77,113.19 197.41,113.69 198.06,114.20 198.70,114.72 199.34,115.25 199.98,115.79 200.62,116.35 201.26,116.92 201.90,117.50 202.54,118.09 203.18,118.69 203.82,119.31 204.46,119.93 205.10,120.57 205.74,121.22 206.38,121.88 207.02,122.56 207.66,123.24 208.30,123.93 208.94,124.64 209.58,125.36 210.23,126.09 210.87,126.83 211.51,127.57 212.15,128.33 212.79,129.11 213.43,129.89 214.07,130.68 214.71,131.48 215.35,132.29 215.99,133.11 216.63,133.94 217.27,134.78 217.91,135.63 218.55,136.49 219.19,137.36 219.83,138.24 220.47,139.12 221.11,140.02 221.75,140.92 222.40,141.83 223.04,142.75 223.68,143.68 224.32,144.61 224.96,145.55 225.60,146.50 226.24,147.46 226.88,148.42 227.52,149.39 228.16,150.37 228.80,151.36 229.44,152.35 230.08,153.34 230.72,154.34 231.36,155.35 232.00,156.36 232.64,157.38 233.28,158.41 233.92,159.43 234.57,160.47 235.21,161.50 235.85,162.54 236.49,163.59 237.13,164.64 237.77,165.69 238.41,166.75 239.05,167.80 239.69,168.87 240.33,169.93 240.97,171.00 241.61,172.07 242.25,173.14 242.89,174.21 243.53,175.28 244.17,176.36 244.81,177.44 245.45,178.51 246.10,179.59 246.74,180.67 247.38,181.75 248.02,182.83 248.66,183.90 249.30,184.98 249.94,186.06 250.58,187.13 251.22,188.21 251.86,189.28 252.50,190.35 253.14,191.42 253.78,192.49 254.42,193.56 255.06,194.62 255.70,195.68 256.34,196.74 256.98,197.79 257.62,198.84 258.27,199.89 258.91,200.93 259.55,201.97 260.19,203.00 260.83,204.03 261.47,205.06 262.11,206.08 262.75,207.10 263.39,208.11 264.03,209.11 264.67,210.11 265.31,211.10 265.95,212.09 266.59,213.07 267.23,214.04 267.87,215.01 268.51,215.97 269.15,216.92 269.79,217.87 270.44,218.81 271.08,219.74 271.72,220.66 272.36,221.57 273.00,222.48 273.64,223.38 274.28,224.27 274.92,225.15 275.56,226.02 276.20,226.88 276.84,227.74 277.48,228.58 278.12,229.42 278.76,230.24 279.40,231.06 280.04,231.86 280.68,232.66 281.32,233.45 281.96,234.22 282.61,234.99 283.25,235.74 283.89,236.48 284.53,237.22 285.17,237.94 285.81,238.65 286.45,239.35 287.09,240.04 287.73,240.72 288.37,241.38 289.01,242.04 289.65,242.68 290.29,243.31 290.93,243.93 291.57,244.54 292.21,245.14 292.85,245.73 293.49,246.30 294.14,246.86 294.78,247.41 295.42,247.95 296.06,248.47 296.70,248.99 297.34,249.49 297.98,249.98 298.62,250.45 299.26,250.92 299.90,251.37 300.54,251.81 301.18,252.24 301.82,252.66 302.46,253.06 303.10,253.46 303.74,253.84 304.38,254.21 305.02,254.57 305.66,254.91 306.31,255.25 306.95,255.57 307.59,255.88 308.23,256.18 308.87,256.47 309.51,256.75 310.15,257.02 310.79,257.27 311.43,257.52 312.07,257.75 312.71,257.97 313.35,258.19 313.99,258.39 314.63,258.58 315.27,258.77 315.91,258.94 316.55,259.10 317.19,259.26 317.83,259.40 318.48,259.54 319.12,259.66 319.76,259.78 320.40,259.89 321.04,259.99 321.68,260.09 322.32,260.17 322.96,260.25 323.60,260.32 324.24,260.39 324.88,260.45 325.52,260.50 326.16,260.54 326.80,260.59 327.44,260.62 328.08,260.65 328.72,260.68 329.36,260.70 330.01,260.72 330.65,260.73 331.29,260.74 331.93,260.75 332.57,260.75 333.21,260.76 333.85,260.76 334.49,260.76 335.13,260.76 335.77,260.76 336.41,260.76 337.05,260.76 337.69,260.76 338.33,260.76 338.97,260.75 339.61,260.74 340.25,260.73 340.89,260.72 341.53,260.70 342.18,260.68 342.82,260.66 343.46,260.63 344.10,260.60 344.74,260.56 345.38,260.51 346.02,260.46 346.66,260.40 347.30,260.34 347.94,260.27 348.58,260.19 349.22,260.11 349.86,260.02 350.50,259.92 351.14,259.81 351.78,259.70 352.42,259.57 353.06,259.44 353.70,259.30 354.35,259.15 354.99,258.99 355.63,258.81 356.27,258.63 356.91,258.44 357.55,258.24 358.19,258.03 358.83,257.81 359.47,257.58 360.11,257.34 360.75,257.09 361.39,256.82 362.03,256.55 362.67,256.26 363.31,255.96 363.95,255.65 364.59,255.33 365.23,255.00 365.87,254.65 366.52,254.29 367.16,253.93 367.80,253.54 368.44,253.15 369.08,252.75 369.72,252.33 370.36,251.90 371.00,251.46 371.64,251.00 372.28,250.54 372.92,250.06 373.56,249.57 374.20,249.06 374.84,248.55 375.48,248.02 376.12,247.48 376.76,246.93 377.40,246.36 378.05,245.78 378.69,245.19 379.33,244.59 379.97,243.97 380.61,243.35 381.25,242.71 381.89,242.06 382.53,241.39 383.17,240.72 383.81,240.03 384.45,239.33 385.09,238.62 385.73,237.90 386.37,237.16 387.01,236.42 387.65,235.66 388.29,234.89 388.93,234.11 389.57,233.32 390.22,232.52 390.86,231.71 391.50,230.88 392.14,230.05 392.78,229.20 393.42,228.35 394.06,227.48 394.70,226.61 395.34,225.72 395.98,224.83 396.62,223.92 397.26,223.00 397.90,222.08 398.54,221.15 399.18,220.20 399.82,219.25 400.46,218.29 401.10,217.32 401.74,216.34 402.39,215.35 403.03,214.36 403.67,213.36 404.31,212.35 404.95,211.33 405.59,210.30 406.23,209.27 406.87,208.23 407.51,207.18 408.15,206.13 408.79,205.07 409.43,204.00 410.07,202.93 410.71,201.85 411.35,200.76 411.99,199.67 412.63,198.58 413.27,197.48 413.91,196.37 414.56,195.26 415.20,194.15 415.84,193.03 416.48,191.91 417.12,190.78 417.76,189.65 418.40,188.52 419.04,187.38 419.68,186.24 420.32,185.10 420.96,183.95 421.60,182.80 422.24,181.65 422.88,180.50 423.52,179.35 424.16,178.19 424.80,177.04 425.44,175.88 426.09,174.72 426.73,173.56 427.37,172.41 428.01,171.25 428.65,170.09 429.29,168.93 429.93,167.77 430.57,166.61 431.21,165.46 431.85,164.30 432.49,163.15 433.13,162.00 433.77,160.85 434.41,159.70 435.05,158.56 435.69,157.41 436.33,156.27 436.97,155.14 437.61,154.00 438.26,152.87 438.90,151.75 439.54,150.62 440.18,149.50 440.82,148.39 441.46,147.28 442.10,146.17 442.74,145.07 443.38,143.98 444.02,142.89 444.66,141.80 445.30,140.73 445.94,139.65 446.58,138.59 447.22,137.53 447.86,136.47 448.50,135.43 449.14,134.39 449.78,133.35 450.43,132.33 451.07,131.31 451.71,130.30 452.35,129.30 452.99,128.30 453.63,127.31 454.27,126.34 454.91,125.37 455.55,124.41 456.19,123.45 456.83,122.51 457.47,121.58 458.11,120.65 458.75,119.74 459.39,118.83 460.03,117.94 460.67,117.05 461.31,116.17 461.95,115.31 462.60,114.45 463.24,113.61 463.88,112.77 464.52,111.95 465.16,111.14 465.80,110.34 466.44,109.55 467.08,108.77 467.72,108.00 468.36,107.24 469.00,106.49 469.64,105.76 470.28,105.04 470.92,104.33 471.56,103.63 472.20,102.94 472.84,102.27 473.48,101.60 474.13,100.95 474.77,100.31 475.41,99.69 476.05,99.07 476.69,98.47 477.33,97.88 477.97,97.30 478.61,96.74 479.25,96.18 479.89,95.64 480.53,95.12 481.17,94.60 481.81,94.10 482.45,93.61 483.09,93.13 483.73,92.66 484.37,92.21 485.01,91.77 485.65,91.34 486.30,90.92 486.94,90.51 487.58,90.12 488.22,89.74 488.86,89.37 489.50,89.02 490.14,88.67 490.78,88.34 491.42,88.02 492.06,87.71 492.70,87.41 493.34,87.12 493.98,86.85 494.62,86.58 495.26,86.33 495.90,86.09 496.54,85.86 497.18,85.64 497.82,85.43 498.47,85.23 499.11,85.04 499.75,84.86 500.39,84.69 501.03,84.53 501.67,84.37 502.31,84.23 502.95,84.10 503.59,83.98 504.23,83.86 504.87,83.75 505.51,83.65 506.15,83.56 506.79,83.48 507.43,83.40 508.07,83.33 508.71,83.27 509.35,83.21 509.99,83.16 510.64,83.12 511.28,83.08 511.92,83.04 512.56,83.02 513.20,82.99 513.84,82.97 514.48,82.95 515.12,82.94 515.76,82.93 516.40,82.92 517.04,82.92 517.68,82.92 518.32,82.91 518.96,82.91 519.60,82.91 520.24,82.91 520.88,82.91 521.52,82.91 522.17,82.92 522.81,82.92 523.45,82.93 524.09,82.93 524.73,82.94 525.37,82.96 526.01,82.98 526.65,83.00 527.29,83.02 527.93,83.06 528.57,83.09 529.21,83.13 529.85,83.18 530.49,83.23 531.13,83.29 531.77,83.35 532.41,83.42 533.05,83.50 533.69,83.59 534.34,83.68 534.98,83.78 535.62,83.89 536.26,84.00 536.90,84.13 537.54,84.26 538.18,84.40 538.82,84.55 539.46,84.71 540.10,84.88 540.74,85.05 541.38,85.24 542.02,85.43 542.66,85.64 543.30,85.85 543.94,86.08 544.58,86.31 545.22,86.55 545.86,86.81 546.51,87.07 547.15,87.34 547.79,87.63 548.43,87.92 549.07,88.22 549.71,88.54 550.35,88.86 550.99,89.19 551.63,89.54 552.27,89.89 552.91,90.26 553.55,90.63 554.19,91.02 554.83,91.41 555.47,91.82 556.11,92.23 556.75,92.65 557.39,93.09 558.04,93.53 558.68,93.99 559.32,94.45 559.96,94.92 560.60,95.41 561.24,95.90 561.88,96.40 562.52,96.91 563.16,97.43 563.80,97.96 564.44,98.50 565.08,99.04 565.72,99.60 566.36,100.16 567.00,100.73 567.64,101.31 568.28,101.90 568.92,102.49 569.56,103.10 570.21,103.71 570.85,104.33 571.49,104.95 572.13,105.58 572.77,106.22 573.41,106.87 574.05,107.52 574.69,108.18 575.33,108.84 575.97,109.52 576.61,110.19 577.25,110.87 577.89,111.56 578.53,112.25 579.17,112.95 579.81,113.66 580.45,114.36 581.09,115.07 581.73,115.79 582.38,116.51 583.02,117.23 583.66,117.96 584.30,118.69 584.94,119.42 585.58,120.16 586.22,120.89 586.86,121.64 587.50,122.38 588.14,123.12 588.78,123.87 589.42,124.62 590.06,125.37 590.70,126.12 591.34,126.87 591.98,127.62 592.62,128.37 593.26,129.12 593.90,129.87 594.55,130.62 595.19,131.37 595.83,132.12 596.47,132.87 597.11,133.62 597.75,134.37 598.39,135.11 599.03,135.85 599.67,136.59 600.31,137.33 600.95,138.06 601.59,138.79 602.23,139.52 602.87,140.25 603.51,140.97 604.15,141.69 604.79,142.40 605.43,143.11 606.08,143.81 606.72,144.52 607.36,145.21 608.00,145.90 608.64,146.59 609.28,147.27 609.92,147.94 610.56,148.61 611.20,149.27 611.84,149.93 612.48,150.58 613.12,151.22 613.76,151.86 614.40,152.48 615.04,153.11 615.68,153.72 616.32,154.33 616.96,154.93 617.60,155.52 618.25,156.10 618.89,156.68 619.53,157.25 620.17,157.81 620.81,158.36 621.45,158.90 622.09,159.43 622.73,159.96 623.37,160.47 624.01,160.98 624.65,161.48 625.29,161.96 625.93,162.44 626.57,162.91 627.21,163.37 627.85,163.82 628.49,164.26 629.13,164.69 629.77,165.11 630.42,165.52 631.06,165.92 631.70,166.31 632.34,166.69 632.98,167.06 633.62,167.42 634.26,167.77 634.90,168.11 635.54,168.44 636.18,168.76 636.82,169.07 637.46,169.37 638.10,169.66 638.74,169.93 639.38,170.20 640.02,170.46 640.66,170.71 641.30,170.95 641.94,171.18 642.59,171.40 643.23,171.61 643.87,171.81 644.51,172.00 645.15,172.18 645.79,172.35 646.43,172.52 647.07,172.67 647.71,172.82 648.35,172.95 648.99,173.08 649.63,173.20 650.27,173.32 650.91,173.42 651.55,173.52 652.19,173.61 652.83,173.69 653.47,173.76 654.12,173.83 654.76,173.89 655.40,173.95 656.04,174.00 656.68,174.04 657.32,174.08 657.96,174.11 658.60,174.14 659.24,174.16 659.88,174.18 660.52,174.20 661.16,174.21 661.80,174.22 662.44,174.23 663.08,174.24 663.72,174.24 664.36,174.24 665.00,174.24 665.64,174.24 666.29,174.24 666.93,174.24 667.57,174.24 668.21,174.24 668.85,174.24 669.49,174.23 670.13,174.23 670.77,174.22 671.41,174.22 672.05,174.21 672.69,174.20 673.33,174.18 673.97,174.17 674.61,174.15 675.25,174.13 675.89,174.11 676.53,174.08 677.17,174.05 677.81,174.02 678.46,173.98 679.10,173.94 679.74,173.90 680.38,173.86 681.02,173.81 681.66,173.75 682.30,173.69 682.94,173.63 683.58,173.57 684.22,173.50 684.86,173.42 685.50,173.35 686.14,173.26 686.78,173.18 687.42,173.09 688.06,172.99 688.70,172.89 689.34,172.79 689.98,172.68 690.63,172.56 691.27,172.44 691.91,172.32 692.55,172.19 693.19,172.06 693.83,171.92 694.47,171.78 695.11,171.63 695.75,171.48 696.39,171.32 697.03,171.16 697.67,171.00 698.31,170.83 698.95,170.65 699.59,170.47 700.23,170.29 700.87,170.10 701.51,169.90 702.16,169.70 702.80,169.50 703.44,169.29 704.08,169.08 704.72,168.86 705.36,168.64 706.00,168.42 706.64,168.19 707.28,167.95 707.92,167.71 708.56,167.47 709.20,167.23 709.84,166.98 710.48,166.72 711.12,166.46 711.76,166.20 712.40,165.94 713.04,165.67 713.68,165.39 714.33,165.12 714.97,164.84 715.61,164.56 716.25,164.27 716.89,163.98 717.53,163.69 718.17,163.40 718.81,163.10 719.45,162.80 720.09,162.50 720.73,162.19 721.37,161.88 722.01,161.57 722.65,161.26 723.29,160.94 723.93,160.63 724.57,160.31 725.21,159.99 725.85,159.67 726.50,159.34 727.14,159.02 727.78,158.69 728.42,158.36 729.06,158.04 729.70,157.71 730.34,157.38 730.98,157.04 731.62,156.71 732.26,156.38 732.90,156.05 733.54,155.71 734.18,155.38 734.82,155.04 735.46,154.71 736.10,154.38 736.74,154.04 737.38,153.71 738.03,153.38 738.67,153.04 739.31,152.71 739.95,152.38 740.59,152.05 741.23,151.72 741.87,151.39 742.51,151.07 743.15,150.74 743.79,150.42 744.43,150.10 745.07,149.77 745.71,149.46 746.35,149.14 746.99,148.82 747.63,148.51 748.27,148.20 748.91,147.89 749.55,147.59 750.20,147.28 750.84,146.98 751.48,146.68 752.12,146.39 752.76,146.10 753.40,145.81 754.04,145.52 754.68,145.24 755.32,144.96 755.96,144.68 756.60,144.41 757.24,144.14 757.88,143.87 758.52,143.61 759.16,143.35 759.80,143.10 760.44,142.85 761.08,142.60 761.72,142.36 762.37,142.12 763.01,141.88 763.65,141.65 764.29,141.43 764.93,141.20 765.57,140.99 766.21,140.77 766.85,140.56 767.49,140.36 768.13,140.16 768.77,139.97 769.41,139.78 770.05,139.59 770.69,139.41 771.33,139.23 771.97,139.06 772.61,138.89 773.25,138.73 773.89,138.57 774.54,138.42 775.18,138.27 775.82,138.13 776.46,137.99 777.10,137.86 777.74,137.73 778.38,137.60 779.02,137.49 779.66,137.37 780.30,137.26 780.94,137.15 781.58,137.05 782.22,136.96 782.86,136.87 783.50,136.78 784.14,136.69 784.78,136.62 785.42,136.54 786.07,136.47 786.71,136.41 787.35,136.34 787.99,136.29 788.63,136.23 789.27,136.18 789.91,136.13 790.55,136.09 791.19,136.05 791.83,136.02 792.47,135.98 793.11,135.95 793.75,135.93 794.39,135.90 795.03,135.88 795.67,135.86 796.31,135.85 796.95,135.83 797.59,135.82 798.24,135.81 798.88,135.81 799.52,135.80 800.16,135.79 800.80,135.79 801.44,135.79 802.08,135.79 802.72,135.79 803.36,135.79 804.00,135.79" />
  <circle cx="36.00" cy="217.50" r="3.2" fill="#b42318" /><text x="40.00" y="211.50" font-family="Arial, Helvetica, sans-serif" font-size="10" fill="#7a271a">p0</text><circle cx="158.88" cy="102.14" r="3.2" fill="#b42318" /><text x="162.88" y="96.14" font-family="Arial, Helvetica, sans-serif" font-size="10" fill="#7a271a">p1</text><circle cx="335.52" cy="260.76" r="3.2" fill="#b42318" /><text x="339.52" y="254.76" font-family="Arial, Helvetica, sans-serif" font-size="10" fill="#7a271a">p2</text><circle cx="519.84" cy="82.91" r="3.2" fill="#b42318" /><text x="523.84" y="76.91" font-family="Arial, Helvetica, sans-serif" font-size="10" fill="#7a271a">p3</text><circle cx="665.76" cy="174.24" r="3.2" fill="#b42318" /><text x="669.76" y="168.24" font-family="Arial, Helvetica, sans-serif" font-size="10" fill="#7a271a">p4</text><circle cx="804.00" cy="135.79" r="3.2" fill="#b42318" /><text x="808.00" y="129.79" font-family="Arial, Helvetica, sans-serif" font-size="10" fill="#7a271a">p5</text>
  <rect x="554" y="44" width="250" height="74" rx="6" ry="6" fill="#ffffff" stroke="#c8d9e6" />
  <line x1="564" y1="62" x2="612" y2="62" stroke="#005f73" stroke-width="2" />
  <text x="620" y="66" font-family="Arial, Helvetica, sans-serif" font-size="10" fill="#243b53">interpolated curve u(t)</text>
  <line x1="564" y1="82" x2="612" y2="82" stroke="#8f1d2c" stroke-width="1.5" stroke-dasharray="5 3" />
  <text x="620" y="86" font-family="Arial, Helvetica, sans-serif" font-size="10" fill="#243b53">piecewise control polyline</text>
  <circle cx="588" cy="100" r="3.2" fill="#b42318" />
  <text x="620" y="104" font-family="Arial, Helvetica, sans-serif" font-size="10" fill="#243b53">control points p_i</text>
  <text x="420.0" y="22" text-anchor="middle" font-family="Arial, Helvetica, sans-serif" font-size="15" fill="#102a43">S-curve (smootherstep) interpolation</text>
  <text x="420.0" y="312" text-anchor="middle" font-family="Arial, Helvetica, sans-serif" font-size="12" fill="#334e68">normalized control time</text>
  <text x="14" y="160.0" transform="rotate(-90 14,160.0)" text-anchor="middle" font-family="Arial, Helvetica, sans-serif" font-size="12" fill="#334e68">control value</text>
  <text x="36" y="302" font-family="Arial, Helvetica, sans-serif" font-size="11" fill="#486581">0</text>
  <text x="804" y="302" text-anchor="end" font-family="Arial, Helvetica, sans-serif" font-size="11" fill="#486581">1</text>
  <text x="30" y="40" text-anchor="end" font-family="Arial, Helvetica, sans-serif" font-size="11" fill="#486581">1.76</text>
  <text x="30" y="288" text-anchor="end" font-family="Arial, Helvetica, sans-serif" font-size="11" fill="#486581">0.72</text>
</svg>
