<svg xmlns="http://www.w3.org/2000/svg" width="840" height="320" viewBox="0 0 840 320">
  <rect x="0" y="0" width="840" height="320" fill="#ffffff" />
  <rect x="36" y="36" width="768" height="248" fill="#f7fbff" stroke="#c8d9e6" />
  <polyline fill="none" stroke="#8f1d2c" stroke-width="1.5" stroke-dasharray="5 3" points="36.00,217.50 158.88,102.14 335.52,260.76 519.84,82.91 665.76,174.24 804.00,135.79" />
  <polyline fill="none" stroke="#005f73" stroke-width="2" points="36.00,217.50 36.64,217.49 37.28,217.46 37.92,217.42 38.56,217.35 39.20,217.27 39.84,217.17 40.48,217.05 41.12,216.92 41.76,216.76 42.41,216.59 43.05,216.41 43.69,216.20 44.33,215.98 44.97,215.75 45.61,215.50 46.25,215.23 46.89,214.94 47.53,214.65 48.17,214.33 48.81,214.00 49.45,213.66 50.09,213.30 50.73,212.92 51.37,212.54 52.01,212.13 52.65,211.72 53.29,211.29 53.93,210.85 54.58,210.39 55.22,209.92 55.86,209.44 56.50,208.94 57.14,208.43 57.78,207.91 58.42,207.38 59.06,206.84 59.70,206.28 60.34,205.72 60.98,205.14 61.62,204.55 62.26,203.95 62.90,203.33 63.54,202.71 64.18,202.08 64.82,201.44 65.46,200.78 66.11,200.12 66.75,199.45 67.39,198.77 68.03,198.08 68.67,197.38 69.31,196.67 69.95,195.95 70.59,195.23 71.23,194.49 71.87,193.75 72.51,193.00 73.15,192.24 73.79,191.48 74.43,190.71 75.07,189.93 75.71,189.14 76.35,188.35 76.99,187.55 77.63,186.74 78.28,185.93 78.92,185.12 79.56,184.29 80.20,183.47 80.84,182.63 81.48,181.79 82.12,180.95 82.76,180.10 83.40,179.25 84.04,178.39 84.68,177.53 85.32,176.67 85.96,175.80 86.60,174.92 87.24,174.05 87.88,173.17 88.52,172.29 89.16,171.40 89.80,170.52 90.45,169.63 91.09,168.74 91.73,167.84 92.37,166.95 93.01,166.05 93.65,165.15 94.29,164.25 94.93,163.35 95.57,162.45 96.21,161.55 96.85,160.65 97.49,159.75 98.13,158.85 98.77,157.94 99.41,157.04 100.05,156.14 100.69,155.24 101.33,154.34 101.97,153.45 102.62,152.55 103.26,151.65 103.90,150.76 104.54,149.87 105.18,148.98 105.82,148.10 106.46,147.21 107.10,146.33 107.74,145.45 108.38,144.58 109.02,143.71 109.66,142.84 110.30,141.97 110.94,141.11 111.58,140.26 112.22,139.40 112.86,138.56 113.50,137.71 114.15,136.88 114.79,136.04 115.43,135.22 116.07,134.39 116.71,133.58 117.35,132.77 117.99,131.96 118.63,131.16 119.27,130.37 119.91,129.59 120.55,128.81 121.19,128.04 121.83,127.28 122.47,126.52 123.11,125.77 123.75,125.03 124.39,124.30 125.03,123.57 125.67,122.86 126.32,122.15 126.96,121.45 127.60,120.76 128.24,120.08 128.88,119.41 129.52,118.75 130.16,118.10 130.80,117.46 131.44,116.83 132.08,116.21 132.72,115.60 133.36,115.00 134.00,114.41 134.64,113.83 135.28,113.27 135.92,112.71 136.56,112.17 137.20,111.64 137.84,111.12 138.49,110.62 139.13,110.12 139.77,109.64 140.41,109.18 141.05,108.72 141.69,108.28 142.33,107.85 142.97,107.44 143.61,107.04 144.25,106.66 144.89,106.28 145.53,105.93 146.17,105.59 146.81,105.26 147.45,104.95 148.09,104.65 148.73,104.37 149.37,104.10 150.02,103.85 150.66,103.62 151.30,103.40 151.94,103.20 152.58,103.02 153.22,102.85 153.86,102.70 154.50,102.57 155.14,102.45 155.78,102.36 156.42,102.28 157.06,102.21 157.70,102.17 158.34,102.15 158.98,102.14 159.62,102.15 160.26,102.17 160.90,102.20 161.54,102.25 162.19,102.30 162.83,102.37 163.47,102.45 164.11,102.55 164.75,102.65 165.39,102.77 166.03,102.90 166.67,103.04 167.31,103.19 167.95,103.35 168.59,103.52 169.23,103.71 169.87,103.91 170.51,104.11 171.15,104.33 171.79,104.56 172.43,104.80 173.07,105.05 173.71,105.31 174.36,105.58 175.00,105.86 175.64,106.15 176.28,106.45 176.92,106.76 177.56,107.08 178.20,107.42 178.84,107.76 179.48,108.11 180.12,108.47 180.76,108.84 181.40,109.22 182.04,109.61 182.68,110.00 183.32,110.41 183.96,110.83 184.60,111.25 185.24,111.69 185.88,112.13 186.53,112.58 187.17,113.04 187.81,113.51 188.45,113.98 189.09,114.47 189.73,114.96 190.37,115.46 191.01,115.97 191.65,116.49 192.29,117.02 192.93,117.55 193.57,118.09 194.21,118.64 194.85,119.20 195.49,119.76 196.13,120.33 196.77,120.91 197.41,121.49 198.06,122.08 198.70,122.68 199.34,123.29 199.98,123.90 200.62,124.52 201.26,125.15 201.90,125.78 202.54,126.42 203.18,127.07 203.82,127.72 204.46,128.37 205.10,129.04 205.74,129.71 206.38,130.38 207.02,131.06 207.66,131.75 208.30,132.44 208.94,133.14 209.58,133.85 210.23,134.56 210.87,135.27 211.51,135.99 212.15,136.71 212.79,137.44 213.43,138.18 214.07,138.92 214.71,139.66 215.35,140.41 215.99,141.16 216.63,141.92 217.27,142.68 217.91,143.45 218.55,144.22 219.19,144.99 219.83,145.77 220.47,146.55 221.11,147.33 221.75,148.12 222.40,148.92 223.04,149.71 223.68,150.51 224.32,151.32 224.96,152.12 225.60,152.93 226.24,153.75 226.88,154.56 227.52,155.38 228.16,156.20 228.80,157.03 229.44,157.85 230.08,158.68 230.72,159.51 231.36,160.35 232.00,161.18 232.64,162.02 233.28,162.86 233.92,163.70 234.57,164.55 235.21,165.39 235.85,166.24 236.49,167.09 237.13,167.94 237.77,168.79 238.41,169.65 239.05,170.50 239.69,171.36 240.33,172.22 240.97,173.07 241.61,173.93 242.25,174.79 242.89,175.65 243.53,176.51 244.17,177.38 244.81,178.24 245.45,179.10 246.10,179.96 246.74,180.83 247.38,181.69 248.02,182.55 248.66,183.41 249.30,184.28 249.94,185.14 250.58,186.00 251.22,186.86 251.86,187.72 252.50,188.58 253.14,189.44 253.78,190.30 254.42,191.16 255.06,192.01 255.70,192.87 256.34,193.72 256.98,194.58 257.62,195.43 258.27,196.28 258.91,197.13 259.55,197.97 260.19,198.82 260.83,199.66 261.47,200.50 262.11,201.34 262.75,202.18 263.39,203.01 264.03,203.85 264.67,204.68 265.31,205.50 265.95,206.33 266.59,207.15 267.23,207.97 267.87,208.79 268.51,209.60 269.15,210.41 269.79,211.22 270.44,212.03 271.08,212.83 271.72,213.63 272.36,214.42 273.00,215.21 273.64,216.00 274.28,216.78 274.92,217.56 275.56,218.34 276.20,219.11 276.84,219.88 277.48,220.64 278.12,221.40 278.76,222.16 279.40,222.91 280.04,223.65 280.68,224.39 281.32,225.13 281.96,225.86 282.61,226.59 283.25,227.31 283.89,228.03 284.53,228.74 285.17,229.44 285.81,230.14 286.45,230.84 287.09,231.53 287.73,232.21 288.37,232.89 289.01,233.56 289.65,234.23 290.29,234.89 290.93,235.54 291.57,236.19 292.21,236.83 292.85,237.47 293.49,238.10 294.14,238.72 294.78,239.34 295.42,239.95 296.06,240.55 296.70,241.14 297.34,241.73 297.98,242.31 298.62,242.89 299.26,243.45 299.90,244.01 300.54,244.56 301.18,245.11 301.82,245.65 302.46,246.17 303.10,246.70 303.74,247.21 304.38,247.71 305.02,248.21 305.66,248.70 306.31,249.18 306.95,249.65 307.59,250.12 308.23,250.57 308.87,251.02 309.51,251.46 310.15,251.88 310.79,252.30 311.43,252.72 312.07,253.12 312.71,253.51 313.35,253.89 313.99,254.27 314.63,254.63 315.27,254.99 315.91,255.33 316.55,255.67 317.19,255.99 317.83,256.31 318.48,256.62 319.12,256.91 319.76,257.20 320.40,257.47 321.04,257.74 321.68,257.99 322.32,258.24 322.96,258.47 323.60,258.69 324.24,258.90 324.88,259.11 325.52,259.29 326.16,259.47 326.80,259.64 327.44,259.80 328.08,259.94 328.72,260.08 329.36,260.20 330.01,260.31 330.65,260.41 331.29,260.49 331.93,260.57 332.57,260.63 333.21,260.68 333.85,260.72 334.49,260.75 335.13,260.76 335.77,260.76 336.41,260.75 337.05,260.73 337.69,260.69 338.33,260.64 338.97,260.58 339.61,260.50 340.25,260.42 340.89,260.32 341.53,260.21 342.18,260.08 342.82,259.95 343.46,259.80 344.10,259.64 344.74,259.47 345.38,259.29 346.02,259.10 346.66,258.89 347.30,258.68 347.94,258.45 348.58,258.21 349.22,257.96 349.86,257.70 350.50,257.43 351.14,257.15 351.78,256.85 352.42,256.55 353.06,256.23 353.70,255.91 354.35,255.58 354.99,255.23 355.63,254.87 356.27,254.51 356.91,254.13 357.55,253.75 358.19,253.35 358.83,252.95 359.47,252.53 360.11,252.11 360.75,251.68 361.39,251.23 362.03,250.78 362.67,250.32 363.31,249.85 363.95,249.37 364.59,248.88 365.23,248.39 365.87,247.88 366.52,247.37 367.16,246.84 367.80,246.31 368.44,245.77 369.08,245.22 369.72,244.67 370.36,244.10 371.00,243.53 371.64,242.95 372.28,242.36 372.92,241.77 373.56,241.16 374.20,240.55 374.84,239.93 375.48,239.31 376.12,238.67 376.76,238.03 377.40,237.38 378.05,236.73 378.69,236.07 379.33,235.40 379.97,234.72 380.61,234.04 381.25,233.35 381.89,232.66 382.53,231.96 383.17,231.25 383.81,230.54 384.45,229.82 385.09,229.09 385.73,228.36 386.37,227.62 387.01,226.88 387.65,226.13 388.29,225.37 388.93,224.61 389.57,223.85 390.22,223.07 390.86,222.30 391.50,221.52 392.14,220.73 392.78,219.94 393.42,219.14 394.06,218.34 394.70,217.53 395.34,216.72 395.98,215.91 396.62,215.09 397.26,214.27 397.90,213.44 398.54,212.60 399.18,211.77 399.82,210.93 400.46,210.08 401.10,209.24 401.74,208.38 402.39,207.53 403.03,206.67 403.67,205.81 404.31,204.94 404.95,204.07 405.59,203.20 406.23,202.32 406.87,201.45 407.51,200.56 408.15,199.68 408.79,198.79 409.43,197.90 410.07,197.01 410.71,196.12 411.35,195.22 411.99,194.32 412.63,193.42 413.27,192.52 413.91,191.61 414.56,190.70 415.20,189.80 415.84,188.88 416.48,187.97 417.12,187.06 417.76,186.14 418.40,185.23 419.04,184.31 419.68,183.39 420.32,182.47 420.96,181.54 421.60,180.62 422.24,179.70 422.88,178.77 423.52,177.85 424.16,176.92 424.80,176.00 425.44,175.07 426.09,174.15 426.73,173.22 427.37,172.29 428.01,171.36 428.65,170.44 429.29,169.51 429.93,168.58 430.57,167.66 431.21,166.73 431.85,165.81 432.49,164.88 433.13,163.96 433.77,163.03 434.41,162.11 435.05,161.19 435.69,160.27 436.33,159.35 436.97,158.43 437.61,157.51 438.26,156.60 438.90,155.68 439.54,154.77 440.18,153.86 440.82,152.95 441.46,152.04 442.10,151.14 442.74,150.24 443.38,149.33 444.02,148.44 444.66,147.54 445.30,146.64 445.94,145.75 446.58,144.86 447.22,143.98 447.86,143.09 448.50,142.21 449.14,141.33 449.78,140.46 450.43,139.59 451.07,138.72 451.71,137.85 452.35,136.99 452.99,136.13 453.63,135.27 454.27,134.42 454.91,133.57 455.55,132.73 456.19,131.89 456.83,131.05 457.47,130.22 458.11,129.39 458.75,128.57 459.39,127.75 460.03,126.93 460.67,126.12 461.31,125.32 461.95,124.52 462.60,123.72 463.24,122.93 463.88,122.14 464.52,121.36 465.16,120.58 465.80,119.81 466.44,119.05 467.08,118.29 467.72,117.53 468.36,116.78 469.00,116.04 469.64,115.30 470.28,114.57 470.92,113.84 471.56,113.12 472.20,112.41 472.84,111.70 473.48,111.00 474.13,110.31 474.77,109.62 475.41,108.94 476.05,108.26 476.69,107.59 477.33,106.93 477.97,106.28 478.61,105.63 479.25,104.99 479.89,104.36 480.53,103.73 481.17,103.11 481.81,102.50 482.45,101.90 483.09,101.30 483.73,100.71 484.37,100.13 485.01,99.56 485.65,99.00 486.30,98.44 486.94,97.89 487.58,97.35 488.22,96.82 488.86,96.30 489.50,95.78 490.14,95.28 490.78,94.78 491.42,94.29 492.06,93.81 492.70,93.34 493.34,92.88 493.98,92.43 494.62,91.99 495.26,91.56 495.90,91.13 496.54,90.72 497.18,90.31 497.82,89.92 498.47,89.53 499.11,89.16 499.75,88.79 500.39,88.44 501.03,88.09 501.67,87.76 502.31,87.43 502.95,87.12 503.59,86.82 504.23,86.52 504.87,86.24 505.51,85.97 506.15,85.71 506.79,85.46 507.43,85.22 508.07,84.99 508.71,84.78 509.35,84.57 509.99,84.38 510.64,84.20 511.28,84.03 511.92,83.87 512.56,83.72 513.20,83.59 513.84,83.47 514.48,83.36 515.12,83.26 515.76,83.17 516.40,83.10 517.04,83.03 517.68,82.98 518.32,82.95 518.96,82.92 519.60,82.91 520.24,82.91 520.88,82.93 521.52,82.95 522.17,82.98 522.81,83.02 523.45,83.08 524.09,83.14 524.73,83.21 525.37,83.30 526.01,83.39 526.65,83.49 527.29,83.60 527.93,83.72 528.57,83.85 529.21,83.99 529.85,84.14 530.49,84.30 531.13,84.47 531.77,84.64 532.41,84.83 533.05,85.02 533.69,85.23 534.34,85.44 534.98,85.66 535.62,85.88 536.26,86.12 536.90,86.36 537.54,86.62 538.18,86.88 538.82,87.15 539.46,87.42 540.10,87.71 540.74,88.00 541.38,88.30 542.02,88.60 542.66,88.92 543.30,89.24 543.94,89.56 544.58,89.90 545.22,90.24 545.86,90.59 546.51,90.95 547.15,91.31 547.79,91.68 548.43,92.05 549.07,92.44 549.71,92.83 550.35,93.22 550.99,93.62 551.63,94.03 552.27,94.44 552.91,94.86 553.55,95.28 554.19,95.71 554.83,96.15 555.47,96.59 556.11,97.04 556.75,97.49 557.39,97.95 558.04,98.41 558.68,98.88 559.32,99.35 559.96,99.83 560.60,100.31 561.24,100.79 561.88,101.28 562.52,101.78 563.16,102.28 563.80,102.78 564.44,103.29 565.08,103.81 565.72,104.32 566.36,104.84 567.00,105.37 567.64,105.89 568.28,106.43 568.92,106.96 569.56,107.50 570.21,108.04 570.85,108.59 571.49,109.14 572.13,109.69 572.77,110.24 573.41,110.80 574.05,111.36 574.69,111.92 575.33,112.49 575.97,113.06 576.61,113.63 577.25,114.20 577.89,114.77 578.53,115.35 579.17,115.93 579.81,116.51 580.45,117.10 581.09,117.68 581.73,118.27 582.38,118.86 583.02,119.45 583.66,120.04 584.30,120.63 584.94,121.22 585.58,121.82 586.22,122.41 586.86,123.01 587.50,123.61 588.14,124.21 588.78,124.81 589.42,125.41 590.06,126.01 590.70,126.61 591.34,127.21 591.98,127.81 592.62,128.41 593.26,129.01 593.90,129.61 594.55,130.21 595.19,130.82 595.83,131.42 596.47,132.02 597.11,132.62 597.75,133.21 598.39,133.81 599.03,134.41 599.67,135.01 600.31,135.60 600.95,136.20 601.59,136.79 602.23,137.38 602.87,137.97 603.51,138.56 604.15,139.15 604.79,139.74 605.43,140.32 606.08,140.90 606.72,141.48 607.36,142.06 608.00,142.64 608.64,143.21 609.28,143.78 609.92,144.35 610.56,144.92 611.20,145.48 611.84,146.05 612.48,146.60 613.12,147.16 613.76,147.71 614.40,148.26 615.04,148.81 615.68,149.36 616.32,149.90 616.96,150.43 617.60,150.97 618.25,151.50 618.89,152.02 619.53,152.55 620.17,153.06 620.81,153.58 621.45,154.09 622.09,154.60 622.73,155.10 623.37,155.60 624.01,156.09 624.65,156.58 625.29,157.06 625.93,157.54 626.57,158.02 627.21,158.49 627.85,158.95 628.49,159.41 629.13,159.87 629.77,160.32 630.42,160.76 631.06,161.20 631.70,161.63 632.34,162.06 632.98,162.48 633.62,162.90 634.26,163.31 634.90,163.71 635.54,164.11 636.18,164.50 636.82,164.89 637.46,165.27 638.10,165.64 638.74,166.01 639.38,166.37 640.02,166.72 640.66,167.07 641.30,167.40 641.94,167.74 642.59,168.06 643.23,168.38 643.87,168.69 644.51,168.99 645.15,169.29 645.79,169.58 646.43,169.86 647.07,170.13 647.71,170.39 648.35,170.65 648.99,170.90 649.63,171.14 650.27,171.37 650.91,171.60 651.55,171.81 652.19,172.02 652.83,172.22 653.47,172.41 654.12,172.59 654.76,172.76 655.40,172.92 656.04,173.08 656.68,173.22 657.32,173.36 657.96,173.49 658.60,173.60 659.24,173.71 659.88,173.81 660.52,173.90 661.16,173.97 661.80,174.04 662.44,174.10 663.08,174.15 663.72,174.19 664.36,174.22 665.00,174.23 665.64,174.24 666.29,174.24 666.93,174.23 667.57,174.22 668.21,174.20 668.85,174.18 669.49,174.16 670.13,174.13 670.77,174.09 671.41,174.05 672.05,174.01 672.69,173.96 673.33,173.91 673.97,173.85 674.61,173.79 675.25,173.72 675.89,173.65 676.53,173.58 677.17,173.50 677.81,173.41 678.46,173.33 679.10,173.24 679.74,173.14 680.38,173.04 681.02,172.94 681.66,172.83 682.30,172.72 682.94,172.61 683.58,172.49 684.22,172.37 684.86,172.24 685.50,172.11 686.14,171.98 686.78,171.84 687.42,171.70 688.06,171.56 688.70,171.41 689.34,171.26 689.98,171.11 690.63,170.96 691.27,170.80 691.91,170.63 692.55,170.47 693.19,170.30 693.83,170.13 694.47,169.95 695.11,169.78 695.75,169.60 696.39,169.41 697.03,169.23 697.67,169.04 698.31,168.85 698.95,168.65 699.59,168.46 700.23,168.26 700.87,168.06 701.51,167.85 702.16,167.65 702.80,167.44 703.44,167.23 704.08,167.02 704.72,166.80 705.36,166.58 706.00,166.36 706.64,166.14 707.28,165.92 707.92,165.69 708.56,165.46 709.20,165.24 709.84,165.00 710.48,164.77 711.12,164.54 711.76,164.30 712.40,164.06 713.04,163.82 713.68,163.58 714.33,163.34 714.97,163.09 715.61,162.85 716.25,162.60 716.89,162.35 717.53,162.10 718.17,161.85 718.81,161.60 719.45,161.35 720.09,161.09 720.73,160.84 721.37,160.58 722.01,160.32 722.65,160.06 723.29,159.80 723.93,159.54 724.57,159.28 725.21,159.02 725.85,158.76 726.50,158.49 727.14,158.23 727.78,157.97 728.42,157.70 729.06,157.44 729.70,157.17 730.34,156.91 730.98,156.64 731.62,156.37 732.26,156.11 732.90,155.84 733.54,155.57 734.18,155.30 734.82,155.04 735.46,154.77 736.10,154.50 736.74,154.24 737.38,153.97 738.03,153.70 738.67,153.44 739.31,153.17 739.95,152.90 740.59,152.64 741.23,152.37 741.87,152.11 742.51,151.84 743.15,151.58 743.79,151.32 744.43,151.05 745.07,150.79 745.71,150.53 746.35,150.27 746.99,150.01 747.63,149.75 748.27,149.50 748.91,149.24 749.55,148.98 750.20,148.73 750.84,148.47 751.48,148.22 752.12,147.97 752.76,147.72 753.40,147.47 754.04,147.22 754.68,146.98 755.32,146.73 755.96,146.49 756.60,146.25 757.24,146.01 757.88,145.77 758.52,145.53 759.16,145.30 759.80,145.07 760.44,144.83 761.08,144.60 761.72,144.38 762.37,144.15 763.01,143.93 763.65,143.70 764.29,143.48 764.93,143.27 765.57,143.05 766.21,142.84 766.85,142.63 767.49,142.42 768.13,142.21 768.77,142.01 769.41,141.80 770.05,141.60 770.69,141.41 771.33,141.21 771.97,141.02 772.61,140.83 773.25,140.65 773.89,140.46 774.54,140.28 775.18,140.10 775.82,139.93 776.46,139.76 777.10,139.59 777.74,139.42 778.38,139.26 779.02,139.10 779.66,138.94 780.30,138.79 780.94,138.64 781.58,138.49 782.22,138.35 782.86,138.21 783.50,138.07 784.14,137.94 784.78,137.81 785.42,137.68 786.07,137.56 786.71,137.44 787.35,137.33 787.99,137.22 788.63,137.11 789.27,137.00 789.91,136.90 790.55,136.81 791.19,136.72 791.83,136.63 792.47,136.54 793.11,136.46 793.75,136.39 794.39,136.32 795.03,136.25 795.67,136.19 796.31,136.13 796.95,136.08 797.59,136.03 798.24,135.98 798.88,135.94 799.52,135.91 800.16,135.87 800.80,135.85 801.44,135.83 802.08,135.81 802.72,135.80 803.36,135.79 804.00,135.79" />
  <circle cx="36.00" cy="217.50" r="3.2" fill="#b42318" /><text x="40.00" y="211.50" font-family="Arial, Helvetica, sans-serif" font-size="10" fill="#7a271a">p0</text><circle cx="158.88" cy="102.14" r="3.2" fill="#b42318" /><text x="162.88" y="96.14" font-family="Arial, Helvetica, sans-serif" font-size="10" fill="#7a271a">p1</text><circle cx="335.52" cy="260.76" r="3.2" fill="#b42318" /><text x="339.52" y="254.76" font-family="Arial, Helvetica, sans-serif" font-size="10" fill="#7a271a">p2</text><circle cx="519.84" cy="82.91" r="3.2" fill="#b42318" /><text x="523.84" y="76.91" font-family="Arial, Helvetica, sans-serif" font-size="10" fill="#7a271a">p3</text><circle cx="665.76" cy="174.24" r="3.2" fill="#b42318" /><text x="669.76" y="168.24" font-family="Arial, Helvetica, sans-serif" font-size="10" fill="#7a271a">p4</text><circle cx="804.00" cy="135.79" r="3.2" fill="#b42318" /><text x="808.00" y="129.79" font-family="Arial, Helvetica, sans-serif" font-size="10" fill="#7a271a">p5</text>
  <rect x="554" y="44" width="250" height="74" rx="6" ry="6" fill="#ffffff" stroke="#c8d9e6" />
  <line x1="564" y1="62" x2="612" y2="62" stroke="#005f73" stroke-width="2" />
  <text x="620" y="66" font-family="Arial, Helvetica, sans-serif" font-size="10" fill="#243b53">interpolated curve u(t)</text>
  <line x1="564" y1="82" x2="612" y2="82" stroke="#8f1d2c" stroke-width="1.5" stroke-dasharray="5 3" />
  <text x="620" y="86" font-family="Arial, Helvetica, sans-serif" font-size="10" fill="#243b53">piecewise control polyline</text>
  <circle cx="588" cy="100" r="3.2" fill="#b42318" />
  <text x="620" y="104" font-family="Arial, Helvetica, sans-serif" font-size="10" fill="#243b53">control points p_i</text>
  <text x="420.0" y="22" text-anchor="middle" font-family="Arial, Helvetica, sans-serif" font-size="15" fill="#102a43">S-curve (smoothstep) interpolation</text>
  <text x="420.0" y="312" text-anchor="middle" font-family="Arial, Helvetica, sans-serif" font-size="12" fill="#334e68">normalized control time</text>
  <text x="14" y="160.0" transform="rotate(-90 14,160.0)" text-anchor="middle" font-family="Arial, Helvetica, sans-serif" font-size="12" fill="#334e68">control value</text>
  <text x="36" y="302" font-family="Arial, Helvetica, sans-serif" font-size="11" fill="#486581">0</text>
  <text x="804" y="302" text-anchor="end" font-family="Arial, Helvetica, sans-serif" font-size="11" fill="#486581">1</text>
  <text x="30" y="40" text-anchor="end" font-family="Arial, Helvetica, sans-serif" font-size="11" fill="#486581">1.76</text>
  <text x="30" y="288" text-anchor="end" font-family="Arial, Helvetica, sans-serif" font-size="11" fill="#486581">0.72</text>
</svg>
