<svg xmlns="http://www.w3.org/2000/svg" width="840" height="320" viewBox="0 0 840 320">
  <rect x="0" y="0" width="840" height="320" fill="#ffffff" />
  <rect x="36" y="36" width="768" height="248" fill="#f7fbff" stroke="#c8d9e6" />
  <polyline fill="none" stroke="#8f1d2c" stroke-width="1.5" stroke-dasharray="5 3" points="36.00,217.50 158.88,102.14 335.52,260.76 519.84,82.91 665.76,174.24 804.00,135.79" />
  <polyline fill="none" stroke="#005f73" stroke-width="2" points="36.00,217.50 36.64,216.56 37.28,215.61 37.92,214.67 38.56,213.72 39.20,212.78 39.84,211.83 40.48,210.89 41.12,209.95 41.76,209.00 42.41,208.06 43.05,207.12 43.69,206.18 44.33,205.24 44.97,204.30 45.61,203.36 46.25,202.42 46.89,201.48 47.53,200.55 48.17,199.61 48.81,198.68 49.45,197.74 50.09,196.81 50.73,195.88 51.37,194.95 52.01,194.02 52.65,193.10 53.29,192.17 53.93,191.25 54.58,190.33 55.22,189.40 55.86,188.49 56.50,187.57 57.14,186.65 57.78,185.74 58.42,184.83 59.06,183.92 59.70,183.01 60.34,182.11 60.98,181.20 61.62,180.30 62.26,179.40 62.90,178.50 63.54,177.61 64.18,176.72 64.82,175.83 65.46,174.94 66.11,174.06 66.75,173.18 67.39,172.30 68.03,171.42 68.67,170.55 69.31,169.68 69.95,168.81 70.59,167.94 71.23,167.08 71.87,166.22 72.51,165.37 73.15,164.52 73.79,163.67 74.43,162.82 75.07,161.98 75.71,161.14 76.35,160.30 76.99,159.47 77.63,158.64 78.28,157.82 78.92,157.00 79.56,156.18 80.20,155.37 80.84,154.56 81.48,153.75 82.12,152.95 82.76,152.15 83.40,151.36 84.04,150.57 84.68,149.78 85.32,149.00 85.96,148.22 86.60,147.45 87.24,146.68 87.88,145.92 88.52,145.16 89.16,144.41 89.80,143.66 90.45,142.91 91.09,142.17 91.73,141.44 92.37,140.71 93.01,139.98 93.65,139.26 94.29,138.55 94.93,137.84 95.57,137.13 96.21,136.43 96.85,135.73 97.49,135.05 98.13,134.36 98.77,133.68 99.41,133.01 100.05,132.34 100.69,131.68 101.33,131.02 101.97,130.37 102.62,129.73 103.26,129.09 103.90,128.46 104.54,127.83 105.18,127.21 105.82,126.59 106.46,125.98 107.10,125.38 107.74,124.78 108.38,124.19 109.02,123.61 109.66,123.03 110.30,122.46 110.94,121.89 111.58,121.34 112.22,120.78 112.86,120.24 113.50,119.70 114.15,119.17 114.79,118.65 115.43,118.13 116.07,117.62 116.71,117.11 117.35,116.62 117.99,116.13 118.63,115.64 119.27,115.17 119.91,114.70 120.55,114.24 121.19,113.79 121.83,113.34 122.47,112.90 123.11,112.47 123.75,112.05 124.39,111.63 125.03,111.23 125.67,110.83 126.32,110.43 126.96,110.05 127.60,109.67 128.24,109.31 128.88,108.95 129.52,108.59 130.16,108.25 130.80,107.91 131.44,107.59 132.08,107.27 132.72,106.96 133.36,106.66 134.00,106.36 134.64,106.08 135.28,105.80 135.92,105.53 136.56,105.27 137.20,105.02 137.84,104.78 138.49,104.55 139.13,104.33 139.77,104.11 140.41,103.91 141.05,103.71 141.69,103.52 142.33,103.35 142.97,103.18 143.61,103.02 144.25,102.87 144.89,102.73 145.53,102.60 146.17,102.48 146.81,102.37 147.45,102.26 148.09,102.17 148.73,102.09 149.37,102.02 150.02,101.96 150.66,101.90 151.30,101.86 151.94,101.83 152.58,101.81 153.22,101.79 153.86,101.79 154.50,101.80 155.14,101.82 155.78,101.85 156.42,101.89 157.06,101.94 157.70,102.00 158.34,102.07 158.98,102.15 159.62,102.25 160.26,102.35 160.90,102.46 161.54,102.59 162.19,102.72 162.83,102.87 163.47,103.03 164.11,103.19 164.75,103.37 165.39,103.55 166.03,103.75 166.67,103.95 167.31,104.17 167.95,104.40 168.59,104.63 169.23,104.88 169.87,105.13 170.51,105.39 171.15,105.67 171.79,105.95 172.43,106.24 173.07,106.54 173.71,106.85 174.36,107.17 175.00,107.49 175.64,107.83 176.28,108.17 176.92,108.53 177.56,108.89 178.20,109.26 178.84,109.64 179.48,110.03 180.12,110.42 180.76,110.82 181.40,111.23 182.04,111.65 182.68,112.08 183.32,112.52 183.96,112.96 184.60,113.41 185.24,113.87 185.88,114.33 186.53,114.81 187.17,115.29 187.81,115.78 188.45,116.27 189.09,116.77 189.73,117.28 190.37,117.80 191.01,118.32 191.65,118.85 192.29,119.39 192.93,119.93 193.57,120.48 194.21,121.04 194.85,121.60 195.49,122.17 196.13,122.74 196.77,123.33 197.41,123.91 198.06,124.51 198.70,125.11 199.34,125.71 199.98,126.32 200.62,126.94 201.26,127.56 201.90,128.19 202.54,128.83 203.18,129.46 203.82,130.11 204.46,130.76 205.10,131.41 205.74,132.07 206.38,132.74 207.02,133.41 207.66,134.08 208.30,134.76 208.94,135.45 209.58,136.14 210.23,136.83 210.87,137.53 211.51,138.23 212.15,138.94 212.79,139.65 213.43,140.36 214.07,141.08 214.71,141.81 215.35,142.53 215.99,143.26 216.63,144.00 217.27,144.74 217.91,145.48 218.55,146.22 219.19,146.97 219.83,147.73 220.47,148.48 221.11,149.24 221.75,150.00 222.40,150.77 223.04,151.54 223.68,152.31 224.32,153.08 224.96,153.86 225.60,154.64 226.24,155.42 226.88,156.20 227.52,156.99 228.16,157.78 228.80,158.57 229.44,159.36 230.08,160.16 230.72,160.96 231.36,161.76 232.00,162.56 232.64,163.36 233.28,164.17 233.92,164.97 234.57,165.78 235.21,166.59 235.85,167.40 236.49,168.21 237.13,169.03 237.77,169.84 238.41,170.66 239.05,171.48 239.69,172.30 240.33,173.11 240.97,173.93 241.61,174.75 242.25,175.58 242.89,176.40 243.53,177.22 244.17,178.04 244.81,178.86 245.45,179.69 246.10,180.51 246.74,181.33 247.38,182.16 248.02,182.98 248.66,183.80 249.30,184.63 249.94,185.45 250.58,186.27 251.22,187.09 251.86,187.91 252.50,188.74 253.14,189.56 253.78,190.37 254.42,191.19 255.06,192.01 255.70,192.83 256.34,193.64 256.98,194.46 257.62,195.27 258.27,196.08 258.91,196.89 259.55,197.70 260.19,198.51 260.83,199.31 261.47,200.11 262.11,200.92 262.75,201.72 263.39,202.51 264.03,203.31 264.67,204.10 265.31,204.90 265.95,205.69 266.59,206.47 267.23,207.26 267.87,208.04 268.51,208.82 269.15,209.60 269.79,210.37 270.44,211.14 271.08,211.91 271.72,212.68 272.36,213.44 273.00,214.20 273.64,214.95 274.28,215.71 274.92,216.46 275.56,217.20 276.20,217.94 276.84,218.68 277.48,219.42 278.12,220.15 278.76,220.88 279.40,221.60 280.04,222.32 280.68,223.04 281.32,223.75 281.96,224.46 282.61,225.16 283.25,225.86 283.89,226.55 284.53,227.24 285.17,227.93 285.81,228.61 286.45,229.28 287.09,229.95 287.73,230.62 288.37,231.28 289.01,231.94 289.65,232.59 290.29,233.23 290.93,233.87 291.57,234.51 292.21,235.14 292.85,235.76 293.49,236.38 294.14,236.99 294.78,237.60 295.42,238.20 296.06,238.79 296.70,239.38 297.34,239.96 297.98,240.54 298.62,241.11 299.26,241.67 299.90,242.23 300.54,242.78 301.18,243.33 301.82,243.86 302.46,244.40 303.10,244.92 303.74,245.44 304.38,245.95 305.02,246.45 305.66,246.95 306.31,247.44 306.95,247.92 307.59,248.39 308.23,248.86 308.87,249.32 309.51,249.77 310.15,250.21 310.79,250.65 311.43,251.08 312.07,251.50 312.71,251.91 313.35,252.32 313.99,252.71 314.63,253.10 315.27,253.48 315.91,253.85 316.55,254.21 317.19,254.57 317.83,254.92 318.48,255.25 319.12,255.58 319.76,255.90 320.40,256.21 321.04,256.51 321.68,256.81 322.32,257.09 322.96,257.36 323.60,257.63 324.24,257.88 324.88,258.13 325.52,258.37 326.16,258.59 326.80,258.81 327.44,259.02 328.08,259.22 328.72,259.40 329.36,259.58 330.01,259.75 330.65,259.91 331.29,260.05 331.93,260.19 332.57,260.32 333.21,260.43 333.85,260.54 334.49,260.63 335.13,260.72 335.77,260.73 336.41,260.64 337.05,260.54 337.69,260.43 338.33,260.31 338.97,260.18 339.61,260.04 340.25,259.89 340.89,259.73 341.53,259.56 342.18,259.38 342.82,259.18 343.46,258.98 344.10,258.77 344.74,258.55 345.38,258.32 346.02,258.07 346.66,257.82 347.30,257.56 347.94,257.29 348.58,257.01 349.22,256.72 349.86,256.43 350.50,256.12 351.14,255.80 351.78,255.48 352.42,255.14 353.06,254.80 353.70,254.45 354.35,254.09 354.99,253.72 355.63,253.34 356.27,252.95 356.91,252.56 357.55,252.15 358.19,251.74 358.83,251.32 359.47,250.89 360.11,250.46 360.75,250.01 361.39,249.56 362.03,249.10 362.67,248.63 363.31,248.16 363.95,247.67 364.59,247.18 365.23,246.68 365.87,246.18 366.52,245.67 367.16,245.15 367.80,244.62 368.44,244.08 369.08,243.54 369.72,242.99 370.36,242.44 371.00,241.88 371.64,241.31 372.28,240.73 372.92,240.15 373.56,239.56 374.20,238.96 374.84,238.36 375.48,237.75 376.12,237.14 376.76,236.52 377.40,235.89 378.05,235.26 378.69,234.62 379.33,233.98 379.97,233.33 380.61,232.67 381.25,232.01 381.89,231.34 382.53,230.67 383.17,229.99 383.81,229.31 384.45,228.62 385.09,227.93 385.73,227.23 386.37,226.52 387.01,225.81 387.65,225.10 388.29,224.38 388.93,223.66 389.57,222.93 390.22,222.20 390.86,221.46 391.50,220.72 392.14,219.97 392.78,219.22 393.42,218.47 394.06,217.71 394.70,216.95 395.34,216.18 395.98,215.41 396.62,214.63 397.26,213.86 397.90,213.07 398.54,212.29 399.18,211.50 399.82,210.71 400.46,209.91 401.10,209.11 401.74,208.31 402.39,207.50 403.03,206.69 403.67,205.88 404.31,205.06 404.95,204.25 405.59,203.43 406.23,202.60 406.87,201.78 407.51,200.95 408.15,200.11 408.79,199.28 409.43,198.44 410.07,197.61 410.71,196.76 411.35,195.92 411.99,195.08 412.63,194.23 413.27,193.38 413.91,192.53 414.56,191.68 415.20,190.82 415.84,189.97 416.48,189.11 417.12,188.25 417.76,187.39 418.40,186.53 419.04,185.66 419.68,184.80 420.32,183.93 420.96,183.07 421.60,182.20 422.24,181.33 422.88,180.46 423.52,179.59 424.16,178.72 424.80,177.85 425.44,176.98 426.09,176.10 426.73,175.23 427.37,174.36 428.01,173.48 428.65,172.61 429.29,171.74 429.93,170.86 430.57,169.99 431.21,169.12 431.85,168.24 432.49,167.37 433.13,166.50 433.77,165.63 434.41,164.75 435.05,163.88 435.69,163.01 436.33,162.14 436.97,161.27 437.61,160.41 438.26,159.54 438.90,158.67 439.54,157.81 440.18,156.94 440.82,156.08 441.46,155.22 442.10,154.36 442.74,153.50 443.38,152.65 444.02,151.79 444.66,150.94 445.30,150.08 445.94,149.23 446.58,148.39 447.22,147.54 447.86,146.70 448.50,145.85 449.14,145.01 449.78,144.18 450.43,143.34 451.07,142.51 451.71,141.68 452.35,140.85 452.99,140.03 453.63,139.20 454.27,138.39 454.91,137.57 455.55,136.76 456.19,135.94 456.83,135.14 457.47,134.33 458.11,133.53 458.75,132.73 459.39,131.94 460.03,131.15 460.67,130.36 461.31,129.58 461.95,128.80 462.60,128.02 463.24,127.25 463.88,126.48 464.52,125.72 465.16,124.96 465.80,124.20 466.44,123.45 467.08,122.70 467.72,121.95 468.36,121.22 469.00,120.48 469.64,119.75 470.28,119.03 470.92,118.30 471.56,117.59 472.20,116.88 472.84,116.17 473.48,115.47 474.13,114.77 474.77,114.08 475.41,113.40 476.05,112.72 476.69,112.04 477.33,111.37 477.97,110.71 478.61,110.05 479.25,109.40 479.89,108.75 480.53,108.11 481.17,107.47 481.81,106.85 482.45,106.22 483.09,105.61 483.73,104.99 484.37,104.39 485.01,103.79 485.65,103.20 486.30,102.61 486.94,102.04 487.58,101.46 488.22,100.90 488.86,100.34 489.50,99.79 490.14,99.24 490.78,98.71 491.42,98.17 492.06,97.65 492.70,97.13 493.34,96.63 493.98,96.12 494.62,95.63 495.26,95.14 495.90,94.66 496.54,94.19 497.18,93.73 497.82,93.27 498.47,92.83 499.11,92.39 499.75,91.95 500.39,91.53 501.03,91.12 501.67,90.71 502.31,90.31 502.95,89.92 503.59,89.54 504.23,89.16 504.87,88.80 505.51,88.44 506.15,88.10 506.79,87.76 507.43,87.43 508.07,87.11 508.71,86.80 509.35,86.49 509.99,86.20 510.64,85.92 511.28,85.64 511.92,85.38 512.56,85.12 513.20,84.88 513.84,84.64 514.48,84.41 515.12,84.20 515.76,83.99 516.40,83.79 517.04,83.61 517.68,83.43 518.32,83.27 518.96,83.11 519.60,82.96 520.24,82.84 520.88,82.74 521.52,82.65 522.17,82.56 522.81,82.49 523.45,82.43 524.09,82.38 524.73,82.33 525.37,82.30 526.01,82.28 526.65,82.27 527.29,82.26 527.93,82.27 528.57,82.28 529.21,82.31 529.85,82.34 530.49,82.39 531.13,82.44 531.77,82.50 532.41,82.57 533.05,82.65 533.69,82.74 534.34,82.84 534.98,82.94 535.62,83.06 536.26,83.18 536.90,83.31 537.54,83.45 538.18,83.60 538.82,83.76 539.46,83.92 540.10,84.09 540.74,84.27 541.38,84.46 542.02,84.66 542.66,84.86 543.30,85.07 543.94,85.29 544.58,85.52 545.22,85.75 545.86,85.99 546.51,86.24 547.15,86.50 547.79,86.76 548.43,87.03 549.07,87.31 549.71,87.59 550.35,87.88 550.99,88.18 551.63,88.49 552.27,88.80 552.91,89.11 553.55,89.44 554.19,89.77 554.83,90.10 555.47,90.45 556.11,90.79 556.75,91.15 557.39,91.51 558.04,91.88 558.68,92.25 559.32,92.63 559.96,93.01 560.60,93.40 561.24,93.79 561.88,94.19 562.52,94.60 563.16,95.01 563.80,95.43 564.44,95.85 565.08,96.27 565.72,96.70 566.36,97.14 567.00,97.58 567.64,98.03 568.28,98.48 568.92,98.93 569.56,99.39 570.21,99.85 570.85,100.32 571.49,100.79 572.13,101.27 572.77,101.75 573.41,102.23 574.05,102.72 574.69,103.21 575.33,103.71 575.97,104.21 576.61,104.71 577.25,105.22 577.89,105.73 578.53,106.24 579.17,106.76 579.81,107.28 580.45,107.80 581.09,108.33 581.73,108.86 582.38,109.39 583.02,109.92 583.66,110.46 584.30,111.00 584.94,111.54 585.58,112.09 586.22,112.64 586.86,113.19 587.50,113.74 588.14,114.29 588.78,114.85 589.42,115.41 590.06,115.97 590.70,116.53 591.34,117.10 591.98,117.66 592.62,118.23 593.26,118.80 593.90,119.37 594.55,119.95 595.19,120.52 595.83,121.10 596.47,121.67 597.11,122.25 597.75,122.83 598.39,123.41 599.03,123.99 599.67,124.57 600.31,125.15 600.95,125.73 601.59,126.32 602.23,126.90 602.87,127.49 603.51,128.07 604.15,128.66 604.79,129.24 605.43,129.83 606.08,130.41 606.72,131.00 607.36,131.58 608.00,132.17 608.64,132.75 609.28,133.33 609.92,133.92 610.56,134.50 611.20,135.08 611.84,135.67 612.48,136.25 613.12,136.83 613.76,137.41 614.40,137.99 615.04,138.56 615.68,139.14 616.32,139.71 616.96,140.29 617.60,140.86 618.25,141.43 618.89,142.00 619.53,142.57 620.17,143.14 620.81,143.70 621.45,144.26 622.09,144.82 622.73,145.38 623.37,145.94 624.01,146.49 624.65,147.05 625.29,147.60 625.93,148.14 626.57,148.69 627.21,149.23 627.85,149.77 628.49,150.31 629.13,150.84 629.77,151.37 630.42,151.90 631.06,152.43 631.70,152.95 632.34,153.47 632.98,153.99 633.62,154.50 634.26,155.01 634.90,155.52 635.54,156.02 636.18,156.52 636.82,157.01 637.46,157.50 638.10,157.99 638.74,158.47 639.38,158.95 640.02,159.43 640.66,159.90 641.30,160.37 641.94,160.83 642.59,161.29 643.23,161.74 643.87,162.19 644.51,162.64 645.15,163.08 645.79,163.51 646.43,163.94 647.07,164.37 647.71,164.79 648.35,165.20 648.99,165.61 649.63,166.02 650.27,166.42 650.91,166.81 651.55,167.20 652.19,167.58 652.83,167.96 653.47,168.33 654.12,168.70 654.76,169.06 655.40,169.41 656.04,169.76 656.68,170.10 657.32,170.44 657.96,170.76 658.60,171.09 659.24,171.40 659.88,171.71 660.52,172.02 661.16,172.31 661.80,172.60 662.44,172.89 663.08,173.16 663.72,173.43 664.36,173.69 665.00,173.95 665.64,174.20 666.29,174.52 666.93,174.86 667.57,175.19 668.21,175.51 668.85,175.83 669.49,176.14 670.13,176.44 670.77,176.74 671.41,177.02 672.05,177.30 672.69,177.58 673.33,177.84 673.97,178.10 674.61,178.36 675.25,178.60 675.89,178.84 676.53,179.07 677.17,179.30 677.81,179.52 678.46,179.73 679.10,179.94 679.74,180.14 680.38,180.33 681.02,180.52 681.66,180.70 682.30,180.87 682.94,181.03 683.58,181.20 684.22,181.35 684.86,181.50 685.50,181.64 686.14,181.77 686.78,181.90 687.42,182.02 688.06,182.14 688.70,182.25 689.34,182.36 689.98,182.45 690.63,182.55 691.27,182.63 691.91,182.71 692.55,182.79 693.19,182.86 693.83,182.92 694.47,182.97 695.11,183.03 695.75,183.07 696.39,183.11 697.03,183.14 697.67,183.17 698.31,183.20 698.95,183.21 699.59,183.22 700.23,183.23 700.87,183.23 701.51,183.22 702.16,183.21 702.80,183.20 703.44,183.18 704.08,183.15 704.72,183.12 705.36,183.08 706.00,183.04 706.64,182.99 707.28,182.94 707.92,182.88 708.56,182.82 709.20,182.75 709.84,182.68 710.48,182.60 711.12,182.52 711.76,182.43 712.40,182.34 713.04,182.24 713.68,182.14 714.33,182.03 714.97,181.92 715.61,181.80 716.25,181.68 716.89,181.56 717.53,181.43 718.17,181.29 718.81,181.15 719.45,181.01 720.09,180.86 720.73,180.71 721.37,180.55 722.01,180.39 722.65,180.22 723.29,180.05 723.93,179.88 724.57,179.70 725.21,179.52 725.85,179.33 726.50,179.14 727.14,178.95 727.78,178.75 728.42,178.54 729.06,178.34 729.70,178.12 730.34,177.91 730.98,177.69 731.62,177.47 732.26,177.24 732.90,177.01 733.54,176.78 734.18,176.54 734.82,176.30 735.46,176.05 736.10,175.80 736.74,175.55 737.38,175.29 738.03,175.03 738.67,174.77 739.31,174.50 739.95,174.23 740.59,173.96 741.23,173.68 741.87,173.40 742.51,173.12 743.15,172.83 743.79,172.54 744.43,172.25 745.07,171.95 745.71,171.66 746.35,171.35 746.99,171.05 747.63,170.74 748.27,170.43 748.91,170.11 749.55,169.80 750.20,169.48 750.84,169.15 751.48,168.83 752.12,168.50 752.76,168.17 753.40,167.83 754.04,167.50 754.68,167.16 755.32,166.82 755.96,166.47 756.60,166.13 757.24,165.78 757.88,165.42 758.52,165.07 759.16,164.71 759.80,164.35 760.44,163.99 761.08,163.63 761.72,163.26 762.37,162.89 763.01,162.52 763.65,162.15 764.29,161.78 764.93,161.40 765.57,161.02 766.21,160.64 766.85,160.26 767.49,159.87 768.13,159.48 768.77,159.10 769.41,158.71 770.05,158.31 770.69,157.92 771.33,157.52 771.97,157.13 772.61,156.73 773.25,156.32 773.89,155.92 774.54,155.52 775.18,155.11 775.82,154.70 776.46,154.30 777.10,153.89 777.74,153.47 778.38,153.06 779.02,152.65 779.66,152.23 780.30,151.81 780.94,151.39 781.58,150.98 782.22,150.55 782.86,150.13 783.50,149.71 784.14,149.29 784.78,148.86 785.42,148.43 786.07,148.01 786.71,147.58 787.35,147.15 787.99,146.72 788.63,146.29 789.27,145.86 789.91,145.43 790.55,144.99 791.19,144.56 791.83,144.12 792.47,143.69 793.11,143.25 793.75,142.82 794.39,142.38 795.03,141.94 795.67,141.51 796.31,141.07 796.95,140.63 797.59,140.19 798.24,139.75 798.88,139.31 799.52,138.87 800.16,138.43 800.80,137.99 801.44,137.55 802.08,137.11 802.72,136.67 803.36,136.23 804.00,135.79" />
  <circle cx="36.00" cy="217.50" r="3.2" fill="#b42318" /><text x="40.00" y="211.50" font-family="Arial, Helvetica, sans-serif" font-size="10" fill="#7a271a">p0</text><circle cx="158.88" cy="102.14" r="3.2" fill="#b42318" /><text x="162.88" y="96.14" font-family="Arial, Helvetica, sans-serif" font-size="10" fill="#7a271a">p1</text><circle cx="335.52" cy="260.76" r="3.2" fill="#b42318" /><text x="339.52" y="254.76" font-family="Arial, Helvetica, sans-serif" font-size="10" fill="#7a271a">p2</text><circle cx="519.84" cy="82.91" r="3.2" fill="#b42318" /><text x="523.84" y="76.91" font-family="Arial, Helvetica, sans-serif" font-size="10" fill="#7a271a">p3</text><circle cx="665.76" cy="174.24" r="3.2" fill="#b42318" /><text x="669.76" y="168.24" font-family="Arial, Helvetica, sans-serif" font-size="10" fill="#7a271a">p4</text><circle cx="804.00" cy="135.79" r="3.2" fill="#b42318" /><text x="808.00" y="129.79" font-family="Arial, Helvetica, sans-serif" font-size="10" fill="#7a271a">p5</text>
  <text x="420.0" y="22" text-anchor="middle" font-family="Arial, Helvetica, sans-serif" font-size="15" fill="#102a43">cubic interpolation</text>
  <text x="420.0" y="312" text-anchor="middle" font-family="Arial, Helvetica, sans-serif" font-size="12" fill="#334e68">normalized control time</text>
  <text x="14" y="160.0" transform="rotate(-90 14,160.0)" text-anchor="middle" font-family="Arial, Helvetica, sans-serif" font-size="12" fill="#334e68">control value</text>
  <text x="36" y="302" font-family="Arial, Helvetica, sans-serif" font-size="11" fill="#486581">0</text>
  <text x="804" y="302" text-anchor="end" font-family="Arial, Helvetica, sans-serif" font-size="11" fill="#486581">1</text>
  <text x="30" y="40" text-anchor="end" font-family="Arial, Helvetica, sans-serif" font-size="11" fill="#486581">1.76</text>
  <text x="30" y="288" text-anchor="end" font-family="Arial, Helvetica, sans-serif" font-size="11" fill="#486581">0.72</text>
</svg>
