<svg xmlns="http://www.w3.org/2000/svg" width="840" height="320" viewBox="0 0 840 320">
  <rect x="0" y="0" width="840" height="320" fill="#ffffff" />
  <rect x="36" y="36" width="768" height="248" fill="#f7fbff" stroke="#c8d9e6" />
  <polyline fill="none" stroke="#8f1d2c" stroke-width="1.5" stroke-dasharray="5 3" points="36.00,217.50 158.88,102.14 335.52,260.76 519.84,82.91 665.76,174.24 804.00,135.79" />
  <polyline fill="none" stroke="#005f73" stroke-width="2" points="36.00,217.50 36.64,217.50 37.28,217.50 37.92,217.50 38.56,217.50 39.20,217.50 39.84,217.50 40.48,217.50 41.12,217.50 41.76,217.50 42.41,217.50 43.05,217.50 43.69,217.50 44.33,217.50 44.97,217.50 45.61,217.50 46.25,217.50 46.89,217.50 47.53,217.50 48.17,217.50 48.81,217.50 49.45,217.50 50.09,217.50 50.73,217.50 51.37,217.50 52.01,217.50 52.65,217.50 53.29,217.50 53.93,217.50 54.58,217.50 55.22,217.50 55.86,217.50 56.50,217.50 57.14,217.50 57.78,217.50 58.42,217.50 59.06,217.50 59.70,217.50 60.34,217.50 60.98,217.50 61.62,217.50 62.26,217.50 62.90,217.50 63.54,217.50 64.18,217.50 64.82,217.50 65.46,217.50 66.11,217.50 66.75,217.50 67.39,217.50 68.03,217.50 68.67,217.50 69.31,217.50 69.95,217.50 70.59,217.50 71.23,217.50 71.87,217.50 72.51,217.50 73.15,217.50 73.79,217.50 74.43,217.50 75.07,217.50 75.71,217.50 76.35,217.50 76.99,217.50 77.63,217.50 78.28,217.50 78.92,217.50 79.56,217.50 80.20,217.50 80.84,217.50 81.48,217.50 82.12,217.50 82.76,217.50 83.40,217.50 84.04,217.50 84.68,217.50 85.32,217.50 85.96,217.50 86.60,217.50 87.24,217.50 87.88,217.50 88.52,217.50 89.16,217.50 89.80,217.50 90.45,217.50 91.09,217.50 91.73,217.50 92.37,217.50 93.01,217.50 93.65,217.50 94.29,217.50 94.93,217.50 95.57,217.50 96.21,217.50 96.85,217.50 97.49,102.14 98.13,102.14 98.77,102.14 99.41,102.14 100.05,102.14 100.69,102.14 101.33,102.14 101.97,102.14 102.62,102.14 103.26,102.14 103.90,102.14 104.54,102.14 105.18,102.14 105.82,102.14 106.46,102.14 107.10,102.14 107.74,102.14 108.38,102.14 109.02,102.14 109.66,102.14 110.30,102.14 110.94,102.14 111.58,102.14 112.22,102.14 112.86,102.14 113.50,102.14 114.15,102.14 114.79,102.14 115.43,102.14 116.07,102.14 116.71,102.14 117.35,102.14 117.99,102.14 118.63,102.14 119.27,102.14 119.91,102.14 120.55,102.14 121.19,102.14 121.83,102.14 122.47,102.14 123.11,102.14 123.75,102.14 124.39,102.14 125.03,102.14 125.67,102.14 126.32,102.14 126.96,102.14 127.60,102.14 128.24,102.14 128.88,102.14 129.52,102.14 130.16,102.14 130.80,102.14 131.44,102.14 132.08,102.14 132.72,102.14 133.36,102.14 134.00,102.14 134.64,102.14 135.28,102.14 135.92,102.14 136.56,102.14 137.20,102.14 137.84,102.14 138.49,102.14 139.13,102.14 139.77,102.14 140.41,102.14 141.05,102.14 141.69,102.14 142.33,102.14 142.97,102.14 143.61,102.14 144.25,102.14 144.89,102.14 145.53,102.14 146.17,102.14 146.81,102.14 147.45,102.14 148.09,102.14 148.73,102.14 149.37,102.14 150.02,102.14 150.66,102.14 151.30,102.14 151.94,102.14 152.58,102.14 153.22,102.14 153.86,102.14 154.50,102.14 155.14,102.14 155.78,102.14 156.42,102.14 157.06,102.14 157.70,102.14 158.34,102.14 158.98,102.14 159.62,102.14 160.26,102.14 160.90,102.14 161.54,102.14 162.19,102.14 162.83,102.14 163.47,102.14 164.11,102.14 164.75,102.14 165.39,102.14 166.03,102.14 166.67,102.14 167.31,102.14 167.95,102.14 168.59,102.14 169.23,102.14 169.87,102.14 170.51,102.14 171.15,102.14 171.79,102.14 172.43,102.14 173.07,102.14 173.71,102.14 174.36,102.14 175.00,102.14 175.64,102.14 176.28,102.14 176.92,102.14 177.56,102.14 178.20,102.14 178.84,102.14 179.48,102.14 180.12,102.14 180.76,102.14 181.40,102.14 182.04,102.14 182.68,102.14 183.32,102.14 183.96,102.14 184.60,102.14 185.24,102.14 185.88,102.14 186.53,102.14 187.17,102.14 187.81,102.14 188.45,102.14 189.09,102.14 189.73,102.14 190.37,102.14 191.01,102.14 191.65,102.14 192.29,102.14 192.93,102.14 193.57,102.14 194.21,102.14 194.85,102.14 195.49,102.14 196.13,102.14 196.77,102.14 197.41,102.14 198.06,102.14 198.70,102.14 199.34,102.14 199.98,102.14 200.62,102.14 201.26,102.14 201.90,102.14 202.54,102.14 203.18,102.14 203.82,102.14 204.46,102.14 205.10,102.14 205.74,102.14 206.38,102.14 207.02,102.14 207.66,102.14 208.30,102.14 208.94,102.14 209.58,102.14 210.23,102.14 210.87,102.14 211.51,102.14 212.15,102.14 212.79,102.14 213.43,102.14 214.07,102.14 214.71,102.14 215.35,102.14 215.99,102.14 216.63,102.14 217.27,102.14 217.91,102.14 218.55,102.14 219.19,102.14 219.83,102.14 220.47,102.14 221.11,102.14 221.75,102.14 222.40,102.14 223.04,102.14 223.68,102.14 224.32,102.14 224.96,102.14 225.60,102.14 226.24,102.14 226.88,102.14 227.52,102.14 228.16,102.14 228.80,102.14 229.44,102.14 230.08,102.14 230.72,102.14 231.36,102.14 232.00,102.14 232.64,102.14 233.28,102.14 233.92,102.14 234.57,102.14 235.21,102.14 235.85,102.14 236.49,102.14 237.13,102.14 237.77,102.14 238.41,102.14 239.05,102.14 239.69,102.14 240.33,102.14 240.97,102.14 241.61,102.14 242.25,102.14 242.89,102.14 243.53,102.14 244.17,102.14 244.81,102.14 245.45,102.14 246.10,102.14 246.74,102.14 247.38,260.76 248.02,260.76 248.66,260.76 249.30,260.76 249.94,260.76 250.58,260.76 251.22,260.76 251.86,260.76 252.50,260.76 253.14,260.76 253.78,260.76 254.42,260.76 255.06,260.76 255.70,260.76 256.34,260.76 256.98,260.76 257.62,260.76 258.27,260.76 258.91,260.76 259.55,260.76 260.19,260.76 260.83,260.76 261.47,260.76 262.11,260.76 262.75,260.76 263.39,260.76 264.03,260.76 264.67,260.76 265.31,260.76 265.95,260.76 266.59,260.76 267.23,260.76 267.87,260.76 268.51,260.76 269.15,260.76 269.79,260.76 270.44,260.76 271.08,260.76 271.72,260.76 272.36,260.76 273.00,260.76 273.64,260.76 274.28,260.76 274.92,260.76 275.56,260.76 276.20,260.76 276.84,260.76 277.48,260.76 278.12,260.76 278.76,260.76 279.40,260.76 280.04,260.76 280.68,260.76 281.32,260.76 281.96,260.76 282.61,260.76 283.25,260.76 283.89,260.76 284.53,260.76 285.17,260.76 285.81,260.76 286.45,260.76 287.09,260.76 287.73,260.76 288.37,260.76 289.01,260.76 289.65,260.76 290.29,260.76 290.93,260.76 291.57,260.76 292.21,260.76 292.85,260.76 293.49,260.76 294.14,260.76 294.78,260.76 295.42,260.76 296.06,260.76 296.70,260.76 297.34,260.76 297.98,260.76 298.62,260.76 299.26,260.76 299.90,260.76 300.54,260.76 301.18,260.76 301.82,260.76 302.46,260.76 303.10,260.76 303.74,260.76 304.38,260.76 305.02,260.76 305.66,260.76 306.31,260.76 306.95,260.76 307.59,260.76 308.23,260.76 308.87,260.76 309.51,260.76 310.15,260.76 310.79,260.76 311.43,260.76 312.07,260.76 312.71,260.76 313.35,260.76 313.99,260.76 314.63,260.76 315.27,260.76 315.91,260.76 316.55,260.76 317.19,260.76 317.83,260.76 318.48,260.76 319.12,260.76 319.76,260.76 320.40,260.76 321.04,260.76 321.68,260.76 322.32,260.76 322.96,260.76 323.60,260.76 324.24,260.76 324.88,260.76 325.52,260.76 326.16,260.76 326.80,260.76 327.44,260.76 328.08,260.76 328.72,260.76 329.36,260.76 330.01,260.76 330.65,260.76 331.29,260.76 331.93,260.76 332.57,260.76 333.21,260.76 333.85,260.76 334.49,260.76 335.13,260.76 335.77,260.76 336.41,260.76 337.05,260.76 337.69,260.76 338.33,260.76 338.97,260.76 339.61,260.76 340.25,260.76 340.89,260.76 341.53,260.76 342.18,260.76 342.82,260.76 343.46,260.76 344.10,260.76 344.74,260.76 345.38,260.76 346.02,260.76 346.66,260.76 347.30,260.76 347.94,260.76 348.58,260.76 349.22,260.76 349.86,260.76 350.50,260.76 351.14,260.76 351.78,260.76 352.42,260.76 353.06,260.76 353.70,260.76 354.35,260.76 354.99,260.76 355.63,260.76 356.27,260.76 356.91,260.76 357.55,260.76 358.19,260.76 358.83,260.76 359.47,260.76 360.11,260.76 360.75,260.76 361.39,260.76 362.03,260.76 362.67,260.76 363.31,260.76 363.95,260.76 364.59,260.76 365.23,260.76 365.87,260.76 366.52,260.76 367.16,260.76 367.80,260.76 368.44,260.76 369.08,260.76 369.72,260.76 370.36,260.76 371.00,260.76 371.64,260.76 372.28,260.76 372.92,260.76 373.56,260.76 374.20,260.76 374.84,260.76 375.48,260.76 376.12,260.76 376.76,260.76 377.40,260.76 378.05,260.76 378.69,260.76 379.33,260.76 379.97,260.76 380.61,260.76 381.25,260.76 381.89,260.76 382.53,260.76 383.17,260.76 383.81,260.76 384.45,260.76 385.09,260.76 385.73,260.76 386.37,260.76 387.01,260.76 387.65,260.76 388.29,260.76 388.93,260.76 389.57,260.76 390.22,260.76 390.86,260.76 391.50,260.76 392.14,260.76 392.78,260.76 393.42,260.76 394.06,260.76 394.70,260.76 395.34,260.76 395.98,260.76 396.62,260.76 397.26,260.76 397.90,260.76 398.54,260.76 399.18,260.76 399.82,260.76 400.46,260.76 401.10,260.76 401.74,260.76 402.39,260.76 403.03,260.76 403.67,260.76 404.31,260.76 404.95,260.76 405.59,260.76 406.23,260.76 406.87,260.76 407.51,260.76 408.15,260.76 408.79,260.76 409.43,260.76 410.07,260.76 410.71,260.76 411.35,260.76 411.99,260.76 412.63,260.76 413.27,260.76 413.91,260.76 414.56,260.76 415.20,260.76 415.84,260.76 416.48,260.76 417.12,260.76 417.76,260.76 418.40,260.76 419.04,260.76 419.68,260.76 420.32,260.76 420.96,260.76 421.60,260.76 422.24,260.76 422.88,260.76 423.52,260.76 424.16,260.76 424.80,260.76 425.44,260.76 426.09,260.76 426.73,260.76 427.37,260.76 428.01,82.91 428.65,82.91 429.29,82.91 429.93,82.91 430.57,82.91 431.21,82.91 431.85,82.91 432.49,82.91 433.13,82.91 433.77,82.91 434.41,82.91 435.05,82.91 435.69,82.91 436.33,82.91 436.97,82.91 437.61,82.91 438.26,82.91 438.90,82.91 439.54,82.91 440.18,82.91 440.82,82.91 441.46,82.91 442.10,82.91 442.74,82.91 443.38,82.91 444.02,82.91 444.66,82.91 445.30,82.91 445.94,82.91 446.58,82.91 447.22,82.91 447.86,82.91 448.50,82.91 449.14,82.91 449.78,82.91 450.43,82.91 451.07,82.91 451.71,82.91 452.35,82.91 452.99,82.91 453.63,82.91 454.27,82.91 454.91,82.91 455.55,82.91 456.19,82.91 456.83,82.91 457.47,82.91 458.11,82.91 458.75,82.91 459.39,82.91 460.03,82.91 460.67,82.91 461.31,82.91 461.95,82.91 462.60,82.91 463.24,82.91 463.88,82.91 464.52,82.91 465.16,82.91 465.80,82.91 466.44,82.91 467.08,82.91 467.72,82.91 468.36,82.91 469.00,82.91 469.64,82.91 470.28,82.91 470.92,82.91 471.56,82.91 472.20,82.91 472.84,82.91 473.48,82.91 474.13,82.91 474.77,82.91 475.41,82.91 476.05,82.91 476.69,82.91 477.33,82.91 477.97,82.91 478.61,82.91 479.25,82.91 479.89,82.91 480.53,82.91 481.17,82.91 481.81,82.91 482.45,82.91 483.09,82.91 483.73,82.91 484.37,82.91 485.01,82.91 485.65,82.91 486.30,82.91 486.94,82.91 487.58,82.91 488.22,82.91 488.86,82.91 489.50,82.91 490.14,82.91 490.78,82.91 491.42,82.91 492.06,82.91 492.70,82.91 493.34,82.91 493.98,82.91 494.62,82.91 495.26,82.91 495.90,82.91 496.54,82.91 497.18,82.91 497.82,82.91 498.47,82.91 499.11,82.91 499.75,82.91 500.39,82.91 501.03,82.91 501.67,82.91 502.31,82.91 502.95,82.91 503.59,82.91 504.23,82.91 504.87,82.91 505.51,82.91 506.15,82.91 506.79,82.91 507.43,82.91 508.07,82.91 508.71,82.91 509.35,82.91 509.99,82.91 510.64,82.91 511.28,82.91 511.92,82.91 512.56,82.91 513.20,82.91 513.84,82.91 514.48,82.91 515.12,82.91 515.76,82.91 516.40,82.91 517.04,82.91 517.68,82.91 518.32,82.91 518.96,82.91 519.60,82.91 520.24,82.91 520.88,82.91 521.52,82.91 522.17,82.91 522.81,82.91 523.45,82.91 524.09,82.91 524.73,82.91 525.37,82.91 526.01,82.91 526.65,82.91 527.29,82.91 527.93,82.91 528.57,82.91 529.21,82.91 529.85,82.91 530.49,82.91 531.13,82.91 531.77,82.91 532.41,82.91 533.05,82.91 533.69,82.91 534.34,82.91 534.98,82.91 535.62,82.91 536.26,82.91 536.90,82.91 537.54,82.91 538.18,82.91 538.82,82.91 539.46,82.91 540.10,82.91 540.74,82.91 541.38,82.91 542.02,82.91 542.66,82.91 543.30,82.91 543.94,82.91 544.58,82.91 545.22,82.91 545.86,82.91 546.51,82.91 547.15,82.91 547.79,82.91 548.43,82.91 549.07,82.91 549.71,82.91 550.35,82.91 550.99,82.91 551.63,82.91 552.27,82.91 552.91,82.91 553.55,82.91 554.19,82.91 554.83,82.91 555.47,82.91 556.11,82.91 556.75,82.91 557.39,82.91 558.04,82.91 558.68,82.91 559.32,82.91 559.96,82.91 560.60,82.91 561.24,82.91 561.88,82.91 562.52,82.91 563.16,82.91 563.80,82.91 564.44,82.91 565.08,82.91 565.72,82.91 566.36,82.91 567.00,82.91 567.64,82.91 568.28,82.91 568.92,82.91 569.56,82.91 570.21,82.91 570.85,82.91 571.49,82.91 572.13,82.91 572.77,82.91 573.41,82.91 574.05,82.91 574.69,82.91 575.33,82.91 575.97,82.91 576.61,82.91 577.25,82.91 577.89,82.91 578.53,82.91 579.17,82.91 579.81,82.91 580.45,82.91 581.09,82.91 581.73,82.91 582.38,82.91 583.02,82.91 583.66,82.91 584.30,82.91 584.94,82.91 585.58,82.91 586.22,82.91 586.86,82.91 587.50,82.91 588.14,82.91 588.78,82.91 589.42,82.91 590.06,82.91 590.70,82.91 591.34,82.91 591.98,82.91 592.62,82.91 593.26,174.24 593.90,174.24 594.55,174.24 595.19,174.24 595.83,174.24 596.47,174.24 597.11,174.24 597.75,174.24 598.39,174.24 599.03,174.24 599.67,174.24 600.31,174.24 600.95,174.24 601.59,174.24 602.23,174.24 602.87,174.24 603.51,174.24 604.15,174.24 604.79,174.24 605.43,174.24 606.08,174.24 606.72,174.24 607.36,174.24 608.00,174.24 608.64,174.24 609.28,174.24 609.92,174.24 610.56,174.24 611.20,174.24 611.84,174.24 612.48,174.24 613.12,174.24 613.76,174.24 614.40,174.24 615.04,174.24 615.68,174.24 616.32,174.24 616.96,174.24 617.60,174.24 618.25,174.24 618.89,174.24 619.53,174.24 620.17,174.24 620.81,174.24 621.45,174.24 622.09,174.24 622.73,174.24 623.37,174.24 624.01,174.24 624.65,174.24 625.29,174.24 625.93,174.24 626.57,174.24 627.21,174.24 627.85,174.24 628.49,174.24 629.13,174.24 629.77,174.24 630.42,174.24 631.06,174.24 631.70,174.24 632.34,174.24 632.98,174.24 633.62,174.24 634.26,174.24 634.90,174.24 635.54,174.24 636.18,174.24 636.82,174.24 637.46,174.24 638.10,174.24 638.74,174.24 639.38,174.24 640.02,174.24 640.66,174.24 641.30,174.24 641.94,174.24 642.59,174.24 643.23,174.24 643.87,174.24 644.51,174.24 645.15,174.24 645.79,174.24 646.43,174.24 647.07,174.24 647.71,174.24 648.35,174.24 648.99,174.24 649.63,174.24 650.27,174.24 650.91,174.24 651.55,174.24 652.19,174.24 652.83,174.24 653.47,174.24 654.12,174.24 654.76,174.24 655.40,174.24 656.04,174.24 656.68,174.24 657.32,174.24 657.96,174.24 658.60,174.24 659.24,174.24 659.88,174.24 660.52,174.24 661.16,174.24 661.80,174.24 662.44,174.24 663.08,174.24 663.72,174.24 664.36,174.24 665.00,174.24 665.64,174.24 666.29,174.24 666.93,174.24 667.57,174.24 668.21,174.24 668.85,174.24 669.49,174.24 670.13,174.24 670.77,174.24 671.41,174.24 672.05,174.24 672.69,174.24 673.33,174.24 673.97,174.24 674.61,174.24 675.25,174.24 675.89,174.24 676.53,174.24 677.17,174.24 677.81,174.24 678.46,174.24 679.10,174.24 679.74,174.24 680.38,174.24 681.02,174.24 681.66,174.24 682.30,174.24 682.94,174.24 683.58,174.24 684.22,174.24 684.86,174.24 685.50,174.24 686.14,174.24 686.78,174.24 687.42,174.24 688.06,174.24 688.70,174.24 689.34,174.24 689.98,174.24 690.63,174.24 691.27,174.24 691.91,174.24 692.55,174.24 693.19,174.24 693.83,174.24 694.47,174.24 695.11,174.24 695.75,174.24 696.39,174.24 697.03,174.24 697.67,174.24 698.31,174.24 698.95,174.24 699.59,174.24 700.23,174.24 700.87,174.24 701.51,174.24 702.16,174.24 702.80,174.24 703.44,174.24 704.08,174.24 704.72,174.24 705.36,174.24 706.00,174.24 706.64,174.24 707.28,174.24 707.92,174.24 708.56,174.24 709.20,174.24 709.84,174.24 710.48,174.24 711.12,174.24 711.76,174.24 712.40,174.24 713.04,174.24 713.68,174.24 714.33,174.24 714.97,174.24 715.61,174.24 716.25,174.24 716.89,174.24 717.53,174.24 718.17,174.24 718.81,174.24 719.45,174.24 720.09,174.24 720.73,174.24 721.37,174.24 722.01,174.24 722.65,174.24 723.29,174.24 723.93,174.24 724.57,174.24 725.21,174.24 725.85,174.24 726.50,174.24 727.14,174.24 727.78,174.24 728.42,174.24 729.06,174.24 729.70,174.24 730.34,174.24 730.98,174.24 731.62,174.24 732.26,174.24 732.90,174.24 733.54,174.24 734.18,174.24 734.82,174.24 735.46,135.79 736.10,135.79 736.74,135.79 737.38,135.79 738.03,135.79 738.67,135.79 739.31,135.79 739.95,135.79 740.59,135.79 741.23,135.79 741.87,135.79 742.51,135.79 743.15,135.79 743.79,135.79 744.43,135.79 745.07,135.79 745.71,135.79 746.35,135.79 746.99,135.79 747.63,135.79 748.27,135.79 748.91,135.79 749.55,135.79 750.20,135.79 750.84,135.79 751.48,135.79 752.12,135.79 752.76,135.79 753.40,135.79 754.04,135.79 754.68,135.79 755.32,135.79 755.96,135.79 756.60,135.79 757.24,135.79 757.88,135.79 758.52,135.79 759.16,135.79 759.80,135.79 760.44,135.79 761.08,135.79 761.72,135.79 762.37,135.79 763.01,135.79 763.65,135.79 764.29,135.79 764.93,135.79 765.57,135.79 766.21,135.79 766.85,135.79 767.49,135.79 768.13,135.79 768.77,135.79 769.41,135.79 770.05,135.79 770.69,135.79 771.33,135.79 771.97,135.79 772.61,135.79 773.25,135.79 773.89,135.79 774.54,135.79 775.18,135.79 775.82,135.79 776.46,135.79 777.10,135.79 777.74,135.79 778.38,135.79 779.02,135.79 779.66,135.79 780.30,135.79 780.94,135.79 781.58,135.79 782.22,135.79 782.86,135.79 783.50,135.79 784.14,135.79 784.78,135.79 785.42,135.79 786.07,135.79 786.71,135.79 787.35,135.79 787.99,135.79 788.63,135.79 789.27,135.79 789.91,135.79 790.55,135.79 791.19,135.79 791.83,135.79 792.47,135.79 793.11,135.79 793.75,135.79 794.39,135.79 795.03,135.79 795.67,135.79 796.31,135.79 796.95,135.79 797.59,135.79 798.24,135.79 798.88,135.79 799.52,135.79 800.16,135.79 800.80,135.79 801.44,135.79 802.08,135.79 802.72,135.79 803.36,135.79 804.00,135.79" />
  <circle cx="36.00" cy="217.50" r="3.2" fill="#b42318" /><text x="40.00" y="211.50" font-family="Arial, Helvetica, sans-serif" font-size="10" fill="#7a271a">p0</text><circle cx="158.88" cy="102.14" r="3.2" fill="#b42318" /><text x="162.88" y="96.14" font-family="Arial, Helvetica, sans-serif" font-size="10" fill="#7a271a">p1</text><circle cx="335.52" cy="260.76" r="3.2" fill="#b42318" /><text x="339.52" y="254.76" font-family="Arial, Helvetica, sans-serif" font-size="10" fill="#7a271a">p2</text><circle cx="519.84" cy="82.91" r="3.2" fill="#b42318" /><text x="523.84" y="76.91" font-family="Arial, Helvetica, sans-serif" font-size="10" fill="#7a271a">p3</text><circle cx="665.76" cy="174.24" r="3.2" fill="#b42318" /><text x="669.76" y="168.24" font-family="Arial, Helvetica, sans-serif" font-size="10" fill="#7a271a">p4</text><circle cx="804.00" cy="135.79" r="3.2" fill="#b42318" /><text x="808.00" y="129.79" font-family="Arial, Helvetica, sans-serif" font-size="10" fill="#7a271a">p5</text>
  <text x="420.0" y="22" text-anchor="middle" font-family="Arial, Helvetica, sans-serif" font-size="15" fill="#102a43">nearest interpolation</text>
  <text x="420.0" y="312" text-anchor="middle" font-family="Arial, Helvetica, sans-serif" font-size="12" fill="#334e68">normalized control time</text>
  <text x="14" y="160.0" transform="rotate(-90 14,160.0)" text-anchor="middle" font-family="Arial, Helvetica, sans-serif" font-size="12" fill="#334e68">control value</text>
  <text x="36" y="302" font-family="Arial, Helvetica, sans-serif" font-size="11" fill="#486581">0</text>
  <text x="804" y="302" text-anchor="end" font-family="Arial, Helvetica, sans-serif" font-size="11" fill="#486581">1</text>
  <text x="30" y="40" text-anchor="end" font-family="Arial, Helvetica, sans-serif" font-size="11" fill="#486581">1.76</text>
  <text x="30" y="288" text-anchor="end" font-family="Arial, Helvetica, sans-serif" font-size="11" fill="#486581">0.72</text>
</svg>
