<svg xmlns="http://www.w3.org/2000/svg" width="840" height="320" viewBox="0 0 840 320">
  <rect x="0" y="0" width="840" height="320" fill="#ffffff" />
  <rect x="36" y="36" width="768" height="248" fill="#f7fbff" stroke="#c8d9e6" />
  <polyline fill="none" stroke="#8f1d2c" stroke-width="1.5" stroke-dasharray="5 3" points="36.00,217.50 158.88,102.14 335.52,260.76 519.84,82.91 665.76,174.24 804.00,135.79" />
  <polyline fill="none" stroke="#005f73" stroke-width="2" points="36.00,217.50 36.64,217.41 37.28,217.31 37.92,217.21 38.56,217.11 39.20,217.01 39.84,216.91 40.48,216.80 41.12,216.70 41.76,216.59 42.41,216.48 43.05,216.37 43.69,216.25 44.33,216.14 44.97,216.02 45.61,215.90 46.25,215.78 46.89,215.66 47.53,215.54 48.17,215.41 48.81,215.28 49.45,215.15 50.09,215.02 50.73,214.88 51.37,214.75 52.01,214.61 52.65,214.47 53.29,214.33 53.93,214.18 54.58,214.03 55.22,213.88 55.86,213.73 56.50,213.58 57.14,213.42 57.78,213.26 58.42,213.10 59.06,212.93 59.70,212.77 60.34,212.60 60.98,212.42 61.62,212.25 62.26,212.07 62.90,211.89 63.54,211.70 64.18,211.52 64.82,211.33 65.46,211.14 66.11,210.94 66.75,210.74 67.39,210.54 68.03,210.33 68.67,210.13 69.31,209.92 69.95,209.70 70.59,209.48 71.23,209.26 71.87,209.04 72.51,208.81 73.15,208.57 73.79,208.34 74.43,208.10 75.07,207.86 75.71,207.61 76.35,207.36 76.99,207.10 77.63,206.84 78.28,206.58 78.92,206.31 79.56,206.04 80.20,205.76 80.84,205.48 81.48,205.20 82.12,204.91 82.76,204.62 83.40,204.32 84.04,204.01 84.68,203.71 85.32,203.39 85.96,203.08 86.60,202.75 87.24,202.43 87.88,202.09 88.52,201.76 89.16,201.41 89.80,201.06 90.45,200.71 91.09,200.35 91.73,199.98 92.37,199.61 93.01,199.23 93.65,198.85 94.29,198.46 94.93,198.07 95.57,197.67 96.21,197.26 96.85,196.84 97.49,196.42 98.13,195.99 98.77,195.56 99.41,195.12 100.05,194.67 100.69,194.22 101.33,193.75 101.97,193.28 102.62,192.81 103.26,192.32 103.90,191.83 104.54,191.33 105.18,190.82 105.82,190.31 106.46,189.78 107.10,189.25 107.74,188.71 108.38,188.16 109.02,187.60 109.66,187.04 110.30,186.46 110.94,185.88 111.58,185.28 112.22,184.68 112.86,184.07 113.50,183.45 114.15,182.82 114.79,182.17 115.43,181.52 116.07,180.86 116.71,180.19 117.35,179.50 117.99,178.81 118.63,178.10 119.27,177.39 119.91,176.66 120.55,175.92 121.19,175.17 121.83,174.41 122.47,173.63 123.11,172.85 123.75,172.05 124.39,171.24 125.03,170.41 125.67,169.57 126.32,168.72 126.96,167.86 127.60,166.98 128.24,166.09 128.88,165.18 129.52,164.26 130.16,163.33 130.80,162.38 131.44,161.42 132.08,160.44 132.72,159.44 133.36,158.43 134.00,157.41 134.64,156.36 135.28,155.31 135.92,154.23 136.56,153.14 137.20,152.03 137.84,150.90 138.49,149.76 139.13,148.59 139.77,147.41 140.41,146.21 141.05,144.99 141.69,143.75 142.33,142.50 142.97,141.22 143.61,139.92 144.25,138.60 144.89,137.26 145.53,135.90 146.17,134.52 146.81,133.12 147.45,131.70 148.09,130.25 148.73,128.78 149.37,127.28 150.02,125.77 150.66,124.23 151.30,122.66 151.94,121.07 152.58,119.45 153.22,117.81 153.86,116.15 154.50,114.46 155.14,112.74 155.78,110.99 156.42,109.22 157.06,107.41 157.70,105.58 158.34,103.72 158.98,102.15 159.62,102.24 160.26,102.34 160.90,102.43 161.54,102.52 162.19,102.62 162.83,102.72 163.47,102.81 164.11,102.91 164.75,103.01 165.39,103.11 166.03,103.21 166.67,103.31 167.31,103.42 167.95,103.52 168.59,103.63 169.23,103.74 169.87,103.85 170.51,103.95 171.15,104.07 171.79,104.18 172.43,104.29 173.07,104.41 173.71,104.52 174.36,104.64 175.00,104.76 175.64,104.88 176.28,105.00 176.92,105.12 177.56,105.24 178.20,105.37 178.84,105.49 179.48,105.62 180.12,105.75 180.76,105.88 181.40,106.01 182.04,106.15 182.68,106.28 183.32,106.42 183.96,106.55 184.60,106.69 185.24,106.83 185.88,106.98 186.53,107.12 187.17,107.27 187.81,107.41 188.45,107.56 189.09,107.71 189.73,107.86 190.37,108.02 191.01,108.17 191.65,108.33 192.29,108.49 192.93,108.65 193.57,108.81 194.21,108.97 194.85,109.14 195.49,109.31 196.13,109.48 196.77,109.65 197.41,109.82 198.06,109.99 198.70,110.17 199.34,110.35 199.98,110.53 200.62,110.71 201.26,110.90 201.90,111.09 202.54,111.27 203.18,111.46 203.82,111.66 204.46,111.85 205.10,112.05 205.74,112.25 206.38,112.45 207.02,112.65 207.66,112.86 208.30,113.07 208.94,113.28 209.58,113.49 210.23,113.71 210.87,113.92 211.51,114.14 212.15,114.37 212.79,114.59 213.43,114.82 214.07,115.05 214.71,115.28 215.35,115.51 215.99,115.75 216.63,115.99 217.27,116.23 217.91,116.48 218.55,116.73 219.19,116.98 219.83,117.23 220.47,117.49 221.11,117.74 221.75,118.01 222.40,118.27 223.04,118.54 223.68,118.81 224.32,119.08 224.96,119.36 225.60,119.64 226.24,119.92 226.88,120.20 227.52,120.49 228.16,120.78 228.80,121.08 229.44,121.38 230.08,121.68 230.72,121.98 231.36,122.29 232.00,122.60 232.64,122.92 233.28,123.24 233.92,123.56 234.57,123.88 235.21,124.21 235.85,124.54 236.49,124.88 237.13,125.22 237.77,125.56 238.41,125.91 239.05,126.26 239.69,126.62 240.33,126.97 240.97,127.34 241.61,127.70 242.25,128.07 242.89,128.45 243.53,128.83 244.17,129.21 244.81,129.60 245.45,129.99 246.10,130.38 246.74,130.78 247.38,131.19 248.02,131.60 248.66,132.01 249.30,132.43 249.94,132.85 250.58,133.28 251.22,133.71 251.86,134.14 252.50,134.58 253.14,135.03 253.78,135.48 254.42,135.94 255.06,136.40 255.70,136.86 256.34,137.33 256.98,137.81 257.62,138.29 258.27,138.78 258.91,139.27 259.55,139.77 260.19,140.27 260.83,140.78 261.47,141.29 262.11,141.81 262.75,142.33 263.39,142.86 264.03,143.40 264.67,143.94 265.31,144.49 265.95,145.05 266.59,145.61 267.23,146.17 267.87,146.74 268.51,147.32 269.15,147.91 269.79,148.50 270.44,149.10 271.08,149.70 271.72,150.31 272.36,150.93 273.00,151.56 273.64,152.19 274.28,152.83 274.92,153.47 275.56,154.12 276.20,154.78 276.84,155.45 277.48,156.12 278.12,156.80 278.76,157.49 279.40,158.19 280.04,158.89 280.68,159.61 281.32,160.33 281.96,161.05 282.61,161.79 283.25,162.53 283.89,163.28 284.53,164.04 285.17,164.81 285.81,165.59 286.45,166.37 287.09,167.17 287.73,167.97 288.37,168.78 289.01,169.60 289.65,170.43 290.29,171.26 290.93,172.11 291.57,172.97 292.21,173.83 292.85,174.71 293.49,175.59 294.14,176.49 294.78,177.39 295.42,178.31 296.06,179.23 296.70,180.16 297.34,181.11 297.98,182.06 298.62,183.03 299.26,184.00 299.90,184.99 300.54,185.99 301.18,187.00 301.82,188.01 302.46,189.04 303.10,190.09 303.74,191.14 304.38,192.20 305.02,193.28 305.66,194.37 306.31,195.47 306.95,196.58 307.59,197.70 308.23,198.84 308.87,199.99 309.51,201.15 310.15,202.32 310.79,203.51 311.43,204.71 312.07,205.92 312.71,207.15 313.35,208.39 313.99,209.64 314.63,210.91 315.27,212.19 315.91,213.48 316.55,214.79 317.19,216.11 317.83,217.45 318.48,218.80 319.12,220.17 319.76,221.55 320.40,222.95 321.04,224.36 321.68,225.79 322.32,227.23 322.96,228.69 323.60,230.17 324.24,231.66 324.88,233.17 325.52,234.69 326.16,236.23 326.80,237.79 327.44,239.36 328.08,240.96 328.72,242.56 329.36,244.19 330.01,245.84 330.65,247.50 331.29,249.18 331.93,250.88 332.57,252.60 333.21,254.33 333.85,256.09 334.49,257.86 335.13,259.66 335.77,260.72 336.41,260.63 337.05,260.53 337.69,260.43 338.33,260.33 338.97,260.22 339.61,260.12 340.25,260.02 340.89,259.91 341.53,259.80 342.18,259.70 342.82,259.59 343.46,259.48 344.10,259.37 344.74,259.25 345.38,259.14 346.02,259.03 346.66,258.91 347.30,258.79 347.94,258.67 348.58,258.55 349.22,258.43 349.86,258.31 350.50,258.19 351.14,258.06 351.78,257.94 352.42,257.81 353.06,257.68 353.70,257.55 354.35,257.42 354.99,257.29 355.63,257.15 356.27,257.02 356.91,256.88 357.55,256.74 358.19,256.60 358.83,256.46 359.47,256.32 360.11,256.18 360.75,256.03 361.39,255.88 362.03,255.73 362.67,255.58 363.31,255.43 363.95,255.28 364.59,255.12 365.23,254.97 365.87,254.81 366.52,254.65 367.16,254.49 367.80,254.32 368.44,254.16 369.08,253.99 369.72,253.82 370.36,253.65 371.00,253.48 371.64,253.31 372.28,253.13 372.92,252.95 373.56,252.77 374.20,252.59 374.84,252.41 375.48,252.22 376.12,252.04 376.76,251.85 377.40,251.66 378.05,251.46 378.69,251.27 379.33,251.07 379.97,250.87 380.61,250.67 381.25,250.47 381.89,250.26 382.53,250.05 383.17,249.84 383.81,249.63 384.45,249.42 385.09,249.20 385.73,248.98 386.37,248.76 387.01,248.54 387.65,248.31 388.29,248.08 388.93,247.85 389.57,247.62 390.22,247.38 390.86,247.15 391.50,246.91 392.14,246.66 392.78,246.42 393.42,246.17 394.06,245.92 394.70,245.67 395.34,245.41 395.98,245.15 396.62,244.89 397.26,244.63 397.90,244.36 398.54,244.09 399.18,243.82 399.82,243.54 400.46,243.26 401.10,242.98 401.74,242.70 402.39,242.41 403.03,242.12 403.67,241.83 404.31,241.53 404.95,241.23 405.59,240.93 406.23,240.63 406.87,240.32 407.51,240.01 408.15,239.69 408.79,239.37 409.43,239.05 410.07,238.72 410.71,238.40 411.35,238.06 411.99,237.73 412.63,237.39 413.27,237.05 413.91,236.70 414.56,236.35 415.20,236.00 415.84,235.64 416.48,235.28 417.12,234.91 417.76,234.55 418.40,234.17 419.04,233.80 419.68,233.42 420.32,233.03 420.96,232.64 421.60,232.25 422.24,231.86 422.88,231.45 423.52,231.05 424.16,230.64 424.80,230.23 425.44,229.81 426.09,229.39 426.73,228.96 427.37,228.53 428.01,228.10 428.65,227.66 429.29,227.21 429.93,226.76 430.57,226.31 431.21,225.85 431.85,225.38 432.49,224.92 433.13,224.44 433.77,223.96 434.41,223.48 435.05,222.99 435.69,222.50 436.33,222.00 436.97,221.50 437.61,220.99 438.26,220.47 438.90,219.95 439.54,219.43 440.18,218.90 440.82,218.36 441.46,217.82 442.10,217.27 442.74,216.72 443.38,216.16 444.02,215.59 444.66,215.02 445.30,214.45 445.94,213.86 446.58,213.27 447.22,212.68 447.86,212.08 448.50,211.47 449.14,210.85 449.78,210.23 450.43,209.61 451.07,208.97 451.71,208.33 452.35,207.69 452.99,207.03 453.63,206.37 454.27,205.70 454.91,205.03 455.55,204.35 456.19,203.66 456.83,202.96 457.47,202.26 458.11,201.55 458.75,200.83 459.39,200.10 460.03,199.37 460.67,198.63 461.31,197.88 461.95,197.12 462.60,196.36 463.24,195.59 463.88,194.81 464.52,194.02 465.16,193.22 465.80,192.41 466.44,191.60 467.08,190.78 467.72,189.95 468.36,189.11 469.00,188.26 469.64,187.40 470.28,186.53 470.92,185.66 471.56,184.77 472.20,183.88 472.84,182.98 473.48,182.06 474.13,181.14 474.77,180.21 475.41,179.27 476.05,178.32 476.69,177.35 477.33,176.38 477.97,175.40 478.61,174.41 479.25,173.41 479.89,172.39 480.53,171.37 481.17,170.33 481.81,169.29 482.45,168.23 483.09,167.17 483.73,166.09 484.37,165.00 485.01,163.90 485.65,162.78 486.30,161.66 486.94,160.52 487.58,159.37 488.22,158.21 488.86,157.04 489.50,155.86 490.14,154.66 490.78,153.45 491.42,152.23 492.06,150.99 492.70,149.74 493.34,148.48 493.98,147.21 494.62,145.92 495.26,144.62 495.90,143.31 496.54,141.98 497.18,140.63 497.82,139.28 498.47,137.91 499.11,136.52 499.75,135.12 500.39,133.71 501.03,132.28 501.67,130.83 502.31,129.38 502.95,127.90 503.59,126.41 504.23,124.91 504.87,123.38 505.51,121.85 506.15,120.29 506.79,118.72 507.43,117.14 508.07,115.53 508.71,113.91 509.35,112.28 509.99,110.62 510.64,108.95 511.28,107.26 511.92,105.56 512.56,103.83 513.20,102.09 513.84,100.33 514.48,98.55 515.12,96.75 515.76,94.94 516.40,93.10 517.04,91.25 517.68,89.37 518.32,87.48 518.96,85.57 519.60,83.63 520.24,82.95 520.88,83.02 521.52,83.08 522.17,83.15 522.81,83.21 523.45,83.28 524.09,83.35 524.73,83.42 525.37,83.49 526.01,83.56 526.65,83.63 527.29,83.70 527.93,83.78 528.57,83.85 529.21,83.93 529.85,84.01 530.49,84.08 531.13,84.16 531.77,84.24 532.41,84.32 533.05,84.41 533.69,84.49 534.34,84.57 534.98,84.66 535.62,84.75 536.26,84.83 536.90,84.92 537.54,85.01 538.18,85.10 538.82,85.20 539.46,85.29 540.10,85.38 540.74,85.48 541.38,85.58 542.02,85.68 542.66,85.78 543.30,85.88 543.94,85.98 544.58,86.09 545.22,86.19 545.86,86.30 546.51,86.41 547.15,86.52 547.79,86.63 548.43,86.74 549.07,86.85 549.71,86.97 550.35,87.09 550.99,87.21 551.63,87.33 552.27,87.45 552.91,87.57 553.55,87.70 554.19,87.82 554.83,87.95 555.47,88.08 556.11,88.21 556.75,88.35 557.39,88.48 558.04,88.62 558.68,88.76 559.32,88.90 559.96,89.04 560.60,89.19 561.24,89.34 561.88,89.48 562.52,89.63 563.16,89.79 563.80,89.94 564.44,90.10 565.08,90.26 565.72,90.42 566.36,90.58 567.00,90.75 567.64,90.91 568.28,91.08 568.92,91.25 569.56,91.43 570.21,91.60 570.85,91.78 571.49,91.96 572.13,92.15 572.77,92.33 573.41,92.52 574.05,92.71 574.69,92.91 575.33,93.10 575.97,93.30 576.61,93.50 577.25,93.71 577.89,93.91 578.53,94.12 579.17,94.33 579.81,94.55 580.45,94.77 581.09,94.99 581.73,95.21 582.38,95.44 583.02,95.67 583.66,95.90 584.30,96.13 584.94,96.37 585.58,96.61 586.22,96.86 586.86,97.11 587.50,97.36 588.14,97.61 588.78,97.87 589.42,98.13 590.06,98.40 590.70,98.67 591.34,98.94 591.98,99.22 592.62,99.50 593.26,99.78 593.90,100.07 594.55,100.36 595.19,100.65 595.83,100.95 596.47,101.25 597.11,101.56 597.75,101.87 598.39,102.18 599.03,102.50 599.67,102.83 600.31,103.15 600.95,103.49 601.59,103.82 602.23,104.16 602.87,104.51 603.51,104.86 604.15,105.21 604.79,105.57 605.43,105.93 606.08,106.30 606.72,106.68 607.36,107.05 608.00,107.44 608.64,107.83 609.28,108.22 609.92,108.62 610.56,109.02 611.20,109.43 611.84,109.85 612.48,110.27 613.12,110.69 613.76,111.13 614.40,111.56 615.04,112.01 615.68,112.46 616.32,112.91 616.96,113.37 617.60,113.84 618.25,114.31 618.89,114.79 619.53,115.28 620.17,115.77 620.81,116.27 621.45,116.78 622.09,117.29 622.73,117.81 623.37,118.33 624.01,118.87 624.65,119.41 625.29,119.95 625.93,120.51 626.57,121.07 627.21,121.64 627.85,122.22 628.49,122.80 629.13,123.39 629.77,123.99 630.42,124.60 631.06,125.22 631.70,125.84 632.34,126.47 632.98,127.11 633.62,127.76 634.26,128.42 634.90,129.09 635.54,129.76 636.18,130.45 636.82,131.14 637.46,131.84 638.10,132.56 638.74,133.28 639.38,134.01 640.02,134.75 640.66,135.50 641.30,136.26 641.94,137.03 642.59,137.81 643.23,138.60 643.87,139.40 644.51,140.22 645.15,141.04 645.79,141.87 646.43,142.72 647.07,143.58 647.71,144.44 648.35,145.32 648.99,146.21 649.63,147.12 650.27,148.03 650.91,148.96 651.55,149.90 652.19,150.85 652.83,151.81 653.47,152.79 654.12,153.78 654.76,154.78 655.40,155.80 656.04,156.83 656.68,157.87 657.32,158.93 657.96,160.00 658.60,161.08 659.24,162.18 659.88,163.30 660.52,164.43 661.16,165.57 661.80,166.73 662.44,167.90 663.08,169.09 663.72,170.30 664.36,171.52 665.00,172.76 665.64,174.01 666.29,174.22 666.93,174.19 667.57,174.16 668.21,174.13 668.85,174.10 669.49,174.07 670.13,174.04 670.77,174.01 671.41,173.98 672.05,173.95 672.69,173.91 673.33,173.88 673.97,173.85 674.61,173.81 675.25,173.78 675.89,173.75 676.53,173.71 677.17,173.67 677.81,173.64 678.46,173.60 679.10,173.56 679.74,173.53 680.38,173.49 681.02,173.45 681.66,173.41 682.30,173.37 682.94,173.33 683.58,173.29 684.22,173.25 684.86,173.21 685.50,173.16 686.14,173.12 686.78,173.08 687.42,173.03 688.06,172.99 688.70,172.94 689.34,172.89 689.98,172.85 690.63,172.80 691.27,172.75 691.91,172.70 692.55,172.65 693.19,172.60 693.83,172.55 694.47,172.50 695.11,172.45 695.75,172.39 696.39,172.34 697.03,172.28 697.67,172.23 698.31,172.17 698.95,172.11 699.59,172.06 700.23,172.00 700.87,171.94 701.51,171.88 702.16,171.82 702.80,171.75 703.44,171.69 704.08,171.63 704.72,171.56 705.36,171.50 706.00,171.43 706.64,171.36 707.28,171.29 707.92,171.23 708.56,171.15 709.20,171.08 709.84,171.01 710.48,170.94 711.12,170.86 711.76,170.79 712.40,170.71 713.04,170.63 713.68,170.55 714.33,170.48 714.97,170.39 715.61,170.31 716.25,170.23 716.89,170.14 717.53,170.06 718.17,169.97 718.81,169.88 719.45,169.80 720.09,169.70 720.73,169.61 721.37,169.52 722.01,169.43 722.65,169.33 723.29,169.23 723.93,169.13 724.57,169.04 725.21,168.93 725.85,168.83 726.50,168.73 727.14,168.62 727.78,168.52 728.42,168.41 729.06,168.30 729.70,168.19 730.34,168.07 730.98,167.96 731.62,167.84 732.26,167.72 732.90,167.61 733.54,167.48 734.18,167.36 734.82,167.24 735.46,167.11 736.10,166.98 736.74,166.85 737.38,166.72 738.03,166.59 738.67,166.45 739.31,166.32 739.95,166.18 740.59,166.04 741.23,165.89 741.87,165.75 742.51,165.60 743.15,165.45 743.79,165.30 744.43,165.15 745.07,164.99 745.71,164.83 746.35,164.67 746.99,164.51 747.63,164.35 748.27,164.18 748.91,164.01 749.55,163.84 750.20,163.67 750.84,163.49 751.48,163.31 752.12,163.13 752.76,162.95 753.40,162.76 754.04,162.57 754.68,162.38 755.32,162.18 755.96,161.99 756.60,161.79 757.24,161.59 757.88,161.38 758.52,161.17 759.16,160.96 759.80,160.75 760.44,160.53 761.08,160.31 761.72,160.09 762.37,159.86 763.01,159.63 763.65,159.40 764.29,159.16 764.93,158.92 765.57,158.68 766.21,158.43 766.85,158.18 767.49,157.93 768.13,157.68 768.77,157.41 769.41,157.15 770.05,156.88 770.69,156.61 771.33,156.34 771.97,156.06 772.61,155.78 773.25,155.49 773.89,155.20 774.54,154.90 775.18,154.61 775.82,154.30 776.46,153.99 777.10,153.68 777.74,153.37 778.38,153.05 779.02,152.72 779.66,152.39 780.30,152.06 780.94,151.72 781.58,151.38 782.22,151.03 782.86,150.68 783.50,150.32 784.14,149.95 784.78,149.59 785.42,149.21 786.07,148.83 786.71,148.45 787.35,148.06 787.99,147.67 788.63,147.27 789.27,146.86 789.91,146.45 790.55,146.03 791.19,145.61 791.83,145.18 792.47,144.74 793.11,144.30 793.75,143.86 794.39,143.40 795.03,142.94 795.67,142.48 796.31,142.00 796.95,141.52 797.59,141.04 798.24,140.55 798.88,140.05 799.52,139.54 800.16,139.02 800.80,138.50 801.44,137.98 802.08,137.44 802.72,136.90 803.36,136.35 804.00,135.79" />
  <circle cx="36.00" cy="217.50" r="3.2" fill="#b42318" /><text x="40.00" y="211.50" font-family="Arial, Helvetica, sans-serif" font-size="10" fill="#7a271a">p0</text><circle cx="158.88" cy="102.14" r="3.2" fill="#b42318" /><text x="162.88" y="96.14" font-family="Arial, Helvetica, sans-serif" font-size="10" fill="#7a271a">p1</text><circle cx="335.52" cy="260.76" r="3.2" fill="#b42318" /><text x="339.52" y="254.76" font-family="Arial, Helvetica, sans-serif" font-size="10" fill="#7a271a">p2</text><circle cx="519.84" cy="82.91" r="3.2" fill="#b42318" /><text x="523.84" y="76.91" font-family="Arial, Helvetica, sans-serif" font-size="10" fill="#7a271a">p3</text><circle cx="665.76" cy="174.24" r="3.2" fill="#b42318" /><text x="669.76" y="168.24" font-family="Arial, Helvetica, sans-serif" font-size="10" fill="#7a271a">p4</text><circle cx="804.00" cy="135.79" r="3.2" fill="#b42318" /><text x="808.00" y="129.79" font-family="Arial, Helvetica, sans-serif" font-size="10" fill="#7a271a">p5</text>
  <rect x="554" y="44" width="250" height="74" rx="6" ry="6" fill="#ffffff" stroke="#c8d9e6" />
  <line x1="564" y1="62" x2="612" y2="62" stroke="#005f73" stroke-width="2" />
  <text x="620" y="66" font-family="Arial, Helvetica, sans-serif" font-size="10" fill="#243b53">interpolated curve u(t)</text>
  <line x1="564" y1="82" x2="612" y2="82" stroke="#8f1d2c" stroke-width="1.5" stroke-dasharray="5 3" />
  <text x="620" y="86" font-family="Arial, Helvetica, sans-serif" font-size="10" fill="#243b53">piecewise control polyline</text>
  <circle cx="588" cy="100" r="3.2" fill="#b42318" />
  <text x="620" y="104" font-family="Arial, Helvetica, sans-serif" font-size="10" fill="#243b53">control points p_i</text>
  <text x="420.0" y="22" text-anchor="middle" font-family="Arial, Helvetica, sans-serif" font-size="15" fill="#102a43">exponential interpolation</text>
  <text x="420.0" y="312" text-anchor="middle" font-family="Arial, Helvetica, sans-serif" font-size="12" fill="#334e68">normalized control time</text>
  <text x="14" y="160.0" transform="rotate(-90 14,160.0)" text-anchor="middle" font-family="Arial, Helvetica, sans-serif" font-size="12" fill="#334e68">control value</text>
  <text x="36" y="302" font-family="Arial, Helvetica, sans-serif" font-size="11" fill="#486581">0</text>
  <text x="804" y="302" text-anchor="end" font-family="Arial, Helvetica, sans-serif" font-size="11" fill="#486581">1</text>
  <text x="30" y="40" text-anchor="end" font-family="Arial, Helvetica, sans-serif" font-size="11" fill="#486581">1.76</text>
  <text x="30" y="288" text-anchor="end" font-family="Arial, Helvetica, sans-serif" font-size="11" fill="#486581">0.72</text>
</svg>
