<svg xmlns="http://www.w3.org/2000/svg" width="840" height="320" viewBox="0 0 840 320">
  <rect x="0" y="0" width="840" height="320" fill="#ffffff" />
  <rect x="36" y="36" width="768" height="248" fill="#f7fbff" stroke="#c8d9e6" />
  <polyline fill="none" stroke="#8f1d2c" stroke-width="1.5" stroke-dasharray="5 3" points="36.00,217.50 158.88,102.14 335.52,260.76 519.84,82.91 665.76,174.24 804.00,135.79" />
  <polyline fill="none" stroke="#005f73" stroke-width="2" points="36.00,217.50 36.64,217.50 37.28,217.50 37.92,217.50 38.56,217.50 39.20,217.50 39.84,217.50 40.48,217.50 41.12,217.50 41.76,217.50 42.41,217.50 43.05,217.50 43.69,217.50 44.33,217.50 44.97,217.50 45.61,217.50 46.25,217.50 46.89,217.50 47.53,217.50 48.17,217.50 48.81,217.50 49.45,217.50 50.09,217.50 50.73,217.50 51.37,217.50 52.01,217.50 52.65,217.50 53.29,217.50 53.93,217.50 54.58,217.50 55.22,217.50 55.86,217.50 56.50,217.50 57.14,217.50 57.78,217.50 58.42,217.50 59.06,217.50 59.70,217.50 60.34,217.50 60.98,217.50 61.62,217.50 62.26,217.50 62.90,217.50 63.54,217.50 64.18,217.50 64.82,217.50 65.46,217.50 66.11,217.50 66.75,217.50 67.39,217.50 68.03,217.50 68.67,217.50 69.31,217.50 69.95,217.50 70.59,217.50 71.23,217.50 71.87,217.50 72.51,217.50 73.15,217.50 73.79,217.50 74.43,217.50 75.07,217.50 75.71,217.50 76.35,217.50 76.99,217.50 77.63,217.50 78.28,217.50 78.92,217.50 79.56,217.50 80.20,217.50 80.84,217.50 81.48,217.50 82.12,217.50 82.76,217.50 83.40,217.50 84.04,217.50 84.68,217.50 85.32,217.50 85.96,217.50 86.60,217.50 87.24,217.50 87.88,217.50 88.52,217.50 89.16,217.50 89.80,217.50 90.45,217.50 91.09,217.50 91.73,217.50 92.37,217.50 93.01,217.50 93.65,217.50 94.29,217.50 94.93,217.50 95.57,217.50 96.21,217.50 96.85,217.50 97.49,217.50 98.13,217.50 98.77,217.50 99.41,217.50 100.05,217.50 100.69,217.50 101.33,217.50 101.97,217.50 102.62,217.50 103.26,217.50 103.90,217.50 104.54,217.50 105.18,217.50 105.82,217.50 106.46,217.50 107.10,217.50 107.74,217.50 108.38,217.50 109.02,217.50 109.66,217.50 110.30,217.50 110.94,217.50 111.58,217.50 112.22,217.50 112.86,217.50 113.50,217.50 114.15,217.50 114.79,217.50 115.43,217.50 116.07,217.50 116.71,217.50 117.35,217.50 117.99,217.50 118.63,217.50 119.27,217.50 119.91,217.50 120.55,217.50 121.19,217.50 121.83,217.50 122.47,217.50 123.11,217.50 123.75,217.50 124.39,217.50 125.03,217.50 125.67,217.50 126.32,217.50 126.96,217.50 127.60,217.50 128.24,217.50 128.88,217.50 129.52,217.50 130.16,217.50 130.80,217.50 131.44,217.50 132.08,217.50 132.72,217.50 133.36,217.50 134.00,217.50 134.64,217.50 135.28,217.50 135.92,217.50 136.56,217.50 137.20,217.50 137.84,217.50 138.49,217.50 139.13,217.50 139.77,217.50 140.41,217.50 141.05,217.50 141.69,217.50 142.33,217.50 142.97,217.50 143.61,217.50 144.25,217.50 144.89,217.50 145.53,217.50 146.17,217.50 146.81,217.50 147.45,217.50 148.09,217.50 148.73,217.50 149.37,217.50 150.02,217.50 150.66,217.50 151.30,217.50 151.94,217.50 152.58,217.50 153.22,217.50 153.86,217.50 154.50,217.50 155.14,217.50 155.78,217.50 156.42,217.50 157.06,217.50 157.70,217.50 158.34,217.50 158.98,102.14 159.62,102.14 160.26,102.14 160.90,102.14 161.54,102.14 162.19,102.14 162.83,102.14 163.47,102.14 164.11,102.14 164.75,102.14 165.39,102.14 166.03,102.14 166.67,102.14 167.31,102.14 167.95,102.14 168.59,102.14 169.23,102.14 169.87,102.14 170.51,102.14 171.15,102.14 171.79,102.14 172.43,102.14 173.07,102.14 173.71,102.14 174.36,102.14 175.00,102.14 175.64,102.14 176.28,102.14 176.92,102.14 177.56,102.14 178.20,102.14 178.84,102.14 179.48,102.14 180.12,102.14 180.76,102.14 181.40,102.14 182.04,102.14 182.68,102.14 183.32,102.14 183.96,102.14 184.60,102.14 185.24,102.14 185.88,102.14 186.53,102.14 187.17,102.14 187.81,102.14 188.45,102.14 189.09,102.14 189.73,102.14 190.37,102.14 191.01,102.14 191.65,102.14 192.29,102.14 192.93,102.14 193.57,102.14 194.21,102.14 194.85,102.14 195.49,102.14 196.13,102.14 196.77,102.14 197.41,102.14 198.06,102.14 198.70,102.14 199.34,102.14 199.98,102.14 200.62,102.14 201.26,102.14 201.90,102.14 202.54,102.14 203.18,102.14 203.82,102.14 204.46,102.14 205.10,102.14 205.74,102.14 206.38,102.14 207.02,102.14 207.66,102.14 208.30,102.14 208.94,102.14 209.58,102.14 210.23,102.14 210.87,102.14 211.51,102.14 212.15,102.14 212.79,102.14 213.43,102.14 214.07,102.14 214.71,102.14 215.35,102.14 215.99,102.14 216.63,102.14 217.27,102.14 217.91,102.14 218.55,102.14 219.19,102.14 219.83,102.14 220.47,102.14 221.11,102.14 221.75,102.14 222.40,102.14 223.04,102.14 223.68,102.14 224.32,102.14 224.96,102.14 225.60,102.14 226.24,102.14 226.88,102.14 227.52,102.14 228.16,102.14 228.80,102.14 229.44,102.14 230.08,102.14 230.72,102.14 231.36,102.14 232.00,102.14 232.64,102.14 233.28,102.14 233.92,102.14 234.57,102.14 235.21,102.14 235.85,102.14 236.49,102.14 237.13,102.14 237.77,102.14 238.41,102.14 239.05,102.14 239.69,102.14 240.33,102.14 240.97,102.14 241.61,102.14 242.25,102.14 242.89,102.14 243.53,102.14 244.17,102.14 244.81,102.14 245.45,102.14 246.10,102.14 246.74,102.14 247.38,102.14 248.02,102.14 248.66,102.14 249.30,102.14 249.94,102.14 250.58,102.14 251.22,102.14 251.86,102.14 252.50,102.14 253.14,102.14 253.78,102.14 254.42,102.14 255.06,102.14 255.70,102.14 256.34,102.14 256.98,102.14 257.62,102.14 258.27,102.14 258.91,102.14 259.55,102.14 260.19,102.14 260.83,102.14 261.47,102.14 262.11,102.14 262.75,102.14 263.39,102.14 264.03,102.14 264.67,102.14 265.31,102.14 265.95,102.14 266.59,102.14 267.23,102.14 267.87,102.14 268.51,102.14 269.15,102.14 269.79,102.14 270.44,102.14 271.08,102.14 271.72,102.14 272.36,102.14 273.00,102.14 273.64,102.14 274.28,102.14 274.92,102.14 275.56,102.14 276.20,102.14 276.84,102.14 277.48,102.14 278.12,102.14 278.76,102.14 279.40,102.14 280.04,102.14 280.68,102.14 281.32,102.14 281.96,102.14 282.61,102.14 283.25,102.14 283.89,102.14 284.53,102.14 285.17,102.14 285.81,102.14 286.45,102.14 287.09,102.14 287.73,102.14 288.37,102.14 289.01,102.14 289.65,102.14 290.29,102.14 290.93,102.14 291.57,102.14 292.21,102.14 292.85,102.14 293.49,102.14 294.14,102.14 294.78,102.14 295.42,102.14 296.06,102.14 296.70,102.14 297.34,102.14 297.98,102.14 298.62,102.14 299.26,102.14 299.90,102.14 300.54,102.14 301.18,102.14 301.82,102.14 302.46,102.14 303.10,102.14 303.74,102.14 304.38,102.14 305.02,102.14 305.66,102.14 306.31,102.14 306.95,102.14 307.59,102.14 308.23,102.14 308.87,102.14 309.51,102.14 310.15,102.14 310.79,102.14 311.43,102.14 312.07,102.14 312.71,102.14 313.35,102.14 313.99,102.14 314.63,102.14 315.27,102.14 315.91,102.14 316.55,102.14 317.19,102.14 317.83,102.14 318.48,102.14 319.12,102.14 319.76,102.14 320.40,102.14 321.04,102.14 321.68,102.14 322.32,102.14 322.96,102.14 323.60,102.14 324.24,102.14 324.88,102.14 325.52,102.14 326.16,102.14 326.80,102.14 327.44,102.14 328.08,102.14 328.72,102.14 329.36,102.14 330.01,102.14 330.65,102.14 331.29,102.14 331.93,102.14 332.57,102.14 333.21,102.14 333.85,102.14 334.49,102.14 335.13,102.14 335.77,260.76 336.41,260.76 337.05,260.76 337.69,260.76 338.33,260.76 338.97,260.76 339.61,260.76 340.25,260.76 340.89,260.76 341.53,260.76 342.18,260.76 342.82,260.76 343.46,260.76 344.10,260.76 344.74,260.76 345.38,260.76 346.02,260.76 346.66,260.76 347.30,260.76 347.94,260.76 348.58,260.76 349.22,260.76 349.86,260.76 350.50,260.76 351.14,260.76 351.78,260.76 352.42,260.76 353.06,260.76 353.70,260.76 354.35,260.76 354.99,260.76 355.63,260.76 356.27,260.76 356.91,260.76 357.55,260.76 358.19,260.76 358.83,260.76 359.47,260.76 360.11,260.76 360.75,260.76 361.39,260.76 362.03,260.76 362.67,260.76 363.31,260.76 363.95,260.76 364.59,260.76 365.23,260.76 365.87,260.76 366.52,260.76 367.16,260.76 367.80,260.76 368.44,260.76 369.08,260.76 369.72,260.76 370.36,260.76 371.00,260.76 371.64,260.76 372.28,260.76 372.92,260.76 373.56,260.76 374.20,260.76 374.84,260.76 375.48,260.76 376.12,260.76 376.76,260.76 377.40,260.76 378.05,260.76 378.69,260.76 379.33,260.76 379.97,260.76 380.61,260.76 381.25,260.76 381.89,260.76 382.53,260.76 383.17,260.76 383.81,260.76 384.45,260.76 385.09,260.76 385.73,260.76 386.37,260.76 387.01,260.76 387.65,260.76 388.29,260.76 388.93,260.76 389.57,260.76 390.22,260.76 390.86,260.76 391.50,260.76 392.14,260.76 392.78,260.76 393.42,260.76 394.06,260.76 394.70,260.76 395.34,260.76 395.98,260.76 396.62,260.76 397.26,260.76 397.90,260.76 398.54,260.76 399.18,260.76 399.82,260.76 400.46,260.76 401.10,260.76 401.74,260.76 402.39,260.76 403.03,260.76 403.67,260.76 404.31,260.76 404.95,260.76 405.59,260.76 406.23,260.76 406.87,260.76 407.51,260.76 408.15,260.76 408.79,260.76 409.43,260.76 410.07,260.76 410.71,260.76 411.35,260.76 411.99,260.76 412.63,260.76 413.27,260.76 413.91,260.76 414.56,260.76 415.20,260.76 415.84,260.76 416.48,260.76 417.12,260.76 417.76,260.76 418.40,260.76 419.04,260.76 419.68,260.76 420.32,260.76 420.96,260.76 421.60,260.76 422.24,260.76 422.88,260.76 423.52,260.76 424.16,260.76 424.80,260.76 425.44,260.76 426.09,260.76 426.73,260.76 427.37,260.76 428.01,260.76 428.65,260.76 429.29,260.76 429.93,260.76 430.57,260.76 431.21,260.76 431.85,260.76 432.49,260.76 433.13,260.76 433.77,260.76 434.41,260.76 435.05,260.76 435.69,260.76 436.33,260.76 436.97,260.76 437.61,260.76 438.26,260.76 438.90,260.76 439.54,260.76 440.18,260.76 440.82,260.76 441.46,260.76 442.10,260.76 442.74,260.76 443.38,260.76 444.02,260.76 444.66,260.76 445.30,260.76 445.94,260.76 446.58,260.76 447.22,260.76 447.86,260.76 448.50,260.76 449.14,260.76 449.78,260.76 450.43,260.76 451.07,260.76 451.71,260.76 452.35,260.76 452.99,260.76 453.63,260.76 454.27,260.76 454.91,260.76 455.55,260.76 456.19,260.76 456.83,260.76 457.47,260.76 458.11,260.76 458.75,260.76 459.39,260.76 460.03,260.76 460.67,260.76 461.31,260.76 461.95,260.76 462.60,260.76 463.24,260.76 463.88,260.76 464.52,260.76 465.16,260.76 465.80,260.76 466.44,260.76 467.08,260.76 467.72,260.76 468.36,260.76 469.00,260.76 469.64,260.76 470.28,260.76 470.92,260.76 471.56,260.76 472.20,260.76 472.84,260.76 473.48,260.76 474.13,260.76 474.77,260.76 475.41,260.76 476.05,260.76 476.69,260.76 477.33,260.76 477.97,260.76 478.61,260.76 479.25,260.76 479.89,260.76 480.53,260.76 481.17,260.76 481.81,260.76 482.45,260.76 483.09,260.76 483.73,260.76 484.37,260.76 485.01,260.76 485.65,260.76 486.30,260.76 486.94,260.76 487.58,260.76 488.22,260.76 488.86,260.76 489.50,260.76 490.14,260.76 490.78,260.76 491.42,260.76 492.06,260.76 492.70,260.76 493.34,260.76 493.98,260.76 494.62,260.76 495.26,260.76 495.90,260.76 496.54,260.76 497.18,260.76 497.82,260.76 498.47,260.76 499.11,260.76 499.75,260.76 500.39,260.76 501.03,260.76 501.67,260.76 502.31,260.76 502.95,260.76 503.59,260.76 504.23,260.76 504.87,260.76 505.51,260.76 506.15,260.76 506.79,260.76 507.43,260.76 508.07,260.76 508.71,260.76 509.35,260.76 509.99,260.76 510.64,260.76 511.28,260.76 511.92,260.76 512.56,260.76 513.20,260.76 513.84,260.76 514.48,260.76 515.12,260.76 515.76,260.76 516.40,260.76 517.04,260.76 517.68,260.76 518.32,260.76 518.96,260.76 519.60,260.76 520.24,82.91 520.88,82.91 521.52,82.91 522.17,82.91 522.81,82.91 523.45,82.91 524.09,82.91 524.73,82.91 525.37,82.91 526.01,82.91 526.65,82.91 527.29,82.91 527.93,82.91 528.57,82.91 529.21,82.91 529.85,82.91 530.49,82.91 531.13,82.91 531.77,82.91 532.41,82.91 533.05,82.91 533.69,82.91 534.34,82.91 534.98,82.91 535.62,82.91 536.26,82.91 536.90,82.91 537.54,82.91 538.18,82.91 538.82,82.91 539.46,82.91 540.10,82.91 540.74,82.91 541.38,82.91 542.02,82.91 542.66,82.91 543.30,82.91 543.94,82.91 544.58,82.91 545.22,82.91 545.86,82.91 546.51,82.91 547.15,82.91 547.79,82.91 548.43,82.91 549.07,82.91 549.71,82.91 550.35,82.91 550.99,82.91 551.63,82.91 552.27,82.91 552.91,82.91 553.55,82.91 554.19,82.91 554.83,82.91 555.47,82.91 556.11,82.91 556.75,82.91 557.39,82.91 558.04,82.91 558.68,82.91 559.32,82.91 559.96,82.91 560.60,82.91 561.24,82.91 561.88,82.91 562.52,82.91 563.16,82.91 563.80,82.91 564.44,82.91 565.08,82.91 565.72,82.91 566.36,82.91 567.00,82.91 567.64,82.91 568.28,82.91 568.92,82.91 569.56,82.91 570.21,82.91 570.85,82.91 571.49,82.91 572.13,82.91 572.77,82.91 573.41,82.91 574.05,82.91 574.69,82.91 575.33,82.91 575.97,82.91 576.61,82.91 577.25,82.91 577.89,82.91 578.53,82.91 579.17,82.91 579.81,82.91 580.45,82.91 581.09,82.91 581.73,82.91 582.38,82.91 583.02,82.91 583.66,82.91 584.30,82.91 584.94,82.91 585.58,82.91 586.22,82.91 586.86,82.91 587.50,82.91 588.14,82.91 588.78,82.91 589.42,82.91 590.06,82.91 590.70,82.91 591.34,82.91 591.98,82.91 592.62,82.91 593.26,82.91 593.90,82.91 594.55,82.91 595.19,82.91 595.83,82.91 596.47,82.91 597.11,82.91 597.75,82.91 598.39,82.91 599.03,82.91 599.67,82.91 600.31,82.91 600.95,82.91 601.59,82.91 602.23,82.91 602.87,82.91 603.51,82.91 604.15,82.91 604.79,82.91 605.43,82.91 606.08,82.91 606.72,82.91 607.36,82.91 608.00,82.91 608.64,82.91 609.28,82.91 609.92,82.91 610.56,82.91 611.20,82.91 611.84,82.91 612.48,82.91 613.12,82.91 613.76,82.91 614.40,82.91 615.04,82.91 615.68,82.91 616.32,82.91 616.96,82.91 617.60,82.91 618.25,82.91 618.89,82.91 619.53,82.91 620.17,82.91 620.81,82.91 621.45,82.91 622.09,82.91 622.73,82.91 623.37,82.91 624.01,82.91 624.65,82.91 625.29,82.91 625.93,82.91 626.57,82.91 627.21,82.91 627.85,82.91 628.49,82.91 629.13,82.91 629.77,82.91 630.42,82.91 631.06,82.91 631.70,82.91 632.34,82.91 632.98,82.91 633.62,82.91 634.26,82.91 634.90,82.91 635.54,82.91 636.18,82.91 636.82,82.91 637.46,82.91 638.10,82.91 638.74,82.91 639.38,82.91 640.02,82.91 640.66,82.91 641.30,82.91 641.94,82.91 642.59,82.91 643.23,82.91 643.87,82.91 644.51,82.91 645.15,82.91 645.79,82.91 646.43,82.91 647.07,82.91 647.71,82.91 648.35,82.91 648.99,82.91 649.63,82.91 650.27,82.91 650.91,82.91 651.55,82.91 652.19,82.91 652.83,82.91 653.47,82.91 654.12,82.91 654.76,82.91 655.40,82.91 656.04,82.91 656.68,82.91 657.32,82.91 657.96,82.91 658.60,82.91 659.24,82.91 659.88,82.91 660.52,82.91 661.16,82.91 661.80,82.91 662.44,82.91 663.08,82.91 663.72,82.91 664.36,82.91 665.00,82.91 665.64,82.91 666.29,174.24 666.93,174.24 667.57,174.24 668.21,174.24 668.85,174.24 669.49,174.24 670.13,174.24 670.77,174.24 671.41,174.24 672.05,174.24 672.69,174.24 673.33,174.24 673.97,174.24 674.61,174.24 675.25,174.24 675.89,174.24 676.53,174.24 677.17,174.24 677.81,174.24 678.46,174.24 679.10,174.24 679.74,174.24 680.38,174.24 681.02,174.24 681.66,174.24 682.30,174.24 682.94,174.24 683.58,174.24 684.22,174.24 684.86,174.24 685.50,174.24 686.14,174.24 686.78,174.24 687.42,174.24 688.06,174.24 688.70,174.24 689.34,174.24 689.98,174.24 690.63,174.24 691.27,174.24 691.91,174.24 692.55,174.24 693.19,174.24 693.83,174.24 694.47,174.24 695.11,174.24 695.75,174.24 696.39,174.24 697.03,174.24 697.67,174.24 698.31,174.24 698.95,174.24 699.59,174.24 700.23,174.24 700.87,174.24 701.51,174.24 702.16,174.24 702.80,174.24 703.44,174.24 704.08,174.24 704.72,174.24 705.36,174.24 706.00,174.24 706.64,174.24 707.28,174.24 707.92,174.24 708.56,174.24 709.20,174.24 709.84,174.24 710.48,174.24 711.12,174.24 711.76,174.24 712.40,174.24 713.04,174.24 713.68,174.24 714.33,174.24 714.97,174.24 715.61,174.24 716.25,174.24 716.89,174.24 717.53,174.24 718.17,174.24 718.81,174.24 719.45,174.24 720.09,174.24 720.73,174.24 721.37,174.24 722.01,174.24 722.65,174.24 723.29,174.24 723.93,174.24 724.57,174.24 725.21,174.24 725.85,174.24 726.50,174.24 727.14,174.24 727.78,174.24 728.42,174.24 729.06,174.24 729.70,174.24 730.34,174.24 730.98,174.24 731.62,174.24 732.26,174.24 732.90,174.24 733.54,174.24 734.18,174.24 734.82,174.24 735.46,174.24 736.10,174.24 736.74,174.24 737.38,174.24 738.03,174.24 738.67,174.24 739.31,174.24 739.95,174.24 740.59,174.24 741.23,174.24 741.87,174.24 742.51,174.24 743.15,174.24 743.79,174.24 744.43,174.24 745.07,174.24 745.71,174.24 746.35,174.24 746.99,174.24 747.63,174.24 748.27,174.24 748.91,174.24 749.55,174.24 750.20,174.24 750.84,174.24 751.48,174.24 752.12,174.24 752.76,174.24 753.40,174.24 754.04,174.24 754.68,174.24 755.32,174.24 755.96,174.24 756.60,174.24 757.24,174.24 757.88,174.24 758.52,174.24 759.16,174.24 759.80,174.24 760.44,174.24 761.08,174.24 761.72,174.24 762.37,174.24 763.01,174.24 763.65,174.24 764.29,174.24 764.93,174.24 765.57,174.24 766.21,174.24 766.85,174.24 767.49,174.24 768.13,174.24 768.77,174.24 769.41,174.24 770.05,174.24 770.69,174.24 771.33,174.24 771.97,174.24 772.61,174.24 773.25,174.24 773.89,174.24 774.54,174.24 775.18,174.24 775.82,174.24 776.46,174.24 777.10,174.24 777.74,174.24 778.38,174.24 779.02,174.24 779.66,174.24 780.30,174.24 780.94,174.24 781.58,174.24 782.22,174.24 782.86,174.24 783.50,174.24 784.14,174.24 784.78,174.24 785.42,174.24 786.07,174.24 786.71,174.24 787.35,174.24 787.99,174.24 788.63,174.24 789.27,174.24 789.91,174.24 790.55,174.24 791.19,174.24 791.83,174.24 792.47,174.24 793.11,174.24 793.75,174.24 794.39,174.24 795.03,174.24 795.67,174.24 796.31,174.24 796.95,174.24 797.59,174.24 798.24,174.24 798.88,174.24 799.52,174.24 800.16,174.24 800.80,174.24 801.44,174.24 802.08,174.24 802.72,174.24 803.36,174.24 804.00,135.79" />
  <circle cx="36.00" cy="217.50" r="3.2" fill="#b42318" /><text x="40.00" y="211.50" font-family="Arial, Helvetica, sans-serif" font-size="10" fill="#7a271a">p0</text><circle cx="158.88" cy="102.14" r="3.2" fill="#b42318" /><text x="162.88" y="96.14" font-family="Arial, Helvetica, sans-serif" font-size="10" fill="#7a271a">p1</text><circle cx="335.52" cy="260.76" r="3.2" fill="#b42318" /><text x="339.52" y="254.76" font-family="Arial, Helvetica, sans-serif" font-size="10" fill="#7a271a">p2</text><circle cx="519.84" cy="82.91" r="3.2" fill="#b42318" /><text x="523.84" y="76.91" font-family="Arial, Helvetica, sans-serif" font-size="10" fill="#7a271a">p3</text><circle cx="665.76" cy="174.24" r="3.2" fill="#b42318" /><text x="669.76" y="168.24" font-family="Arial, Helvetica, sans-serif" font-size="10" fill="#7a271a">p4</text><circle cx="804.00" cy="135.79" r="3.2" fill="#b42318" /><text x="808.00" y="129.79" font-family="Arial, Helvetica, sans-serif" font-size="10" fill="#7a271a">p5</text>
  <text x="420.0" y="22" text-anchor="middle" font-family="Arial, Helvetica, sans-serif" font-size="15" fill="#102a43">none (stairstep) interpolation</text>
  <text x="420.0" y="312" text-anchor="middle" font-family="Arial, Helvetica, sans-serif" font-size="12" fill="#334e68">normalized control time</text>
  <text x="14" y="160.0" transform="rotate(-90 14,160.0)" text-anchor="middle" font-family="Arial, Helvetica, sans-serif" font-size="12" fill="#334e68">control value</text>
  <text x="36" y="302" font-family="Arial, Helvetica, sans-serif" font-size="11" fill="#486581">0</text>
  <text x="804" y="302" text-anchor="end" font-family="Arial, Helvetica, sans-serif" font-size="11" fill="#486581">1</text>
  <text x="30" y="40" text-anchor="end" font-family="Arial, Helvetica, sans-serif" font-size="11" fill="#486581">1.76</text>
  <text x="30" y="288" text-anchor="end" font-family="Arial, Helvetica, sans-serif" font-size="11" fill="#486581">0.72</text>
</svg>
