<svg xmlns="http://www.w3.org/2000/svg" width="840" height="280" viewBox="0 0 840 280">
  <rect x="0" y="0" width="840" height="280" fill="#ffffff" />
  <rect x="36" y="36" width="768" height="208" fill="#f7fbff" stroke="#c8d9e6" />
  <polyline fill="none" stroke="#005f73" stroke-width="2" points="36.00,243.84 36.75,243.20 37.50,242.56 38.25,241.93 39.00,241.29 39.75,240.65 40.50,240.01 41.26,239.37 42.01,238.74 42.76,238.10 43.51,237.46 44.26,236.82 45.01,236.18 45.76,235.55 46.51,234.91 47.26,234.27 48.01,233.63 48.76,233.00 49.51,232.36 50.26,231.72 51.01,231.09 51.77,230.45 52.52,229.81 53.27,229.18 54.02,228.54 54.77,227.90 55.52,227.27 56.27,226.63 57.02,226.00 57.77,225.36 58.52,224.72 59.27,224.09 60.02,223.45 60.77,222.82 61.52,222.18 62.28,221.55 63.03,220.92 63.78,220.28 64.53,219.65 65.28,219.01 66.03,218.38 66.78,217.75 67.53,217.11 68.28,216.48 69.03,215.85 69.78,215.22 70.53,214.59 71.28,213.95 72.04,213.32 72.79,212.69 73.54,212.06 74.29,211.43 75.04,210.80 75.79,210.17 76.54,209.54 77.29,208.91 78.04,208.28 78.79,207.65 79.54,207.03 80.29,206.40 81.04,205.77 81.79,205.14 82.55,204.52 83.30,203.89 84.05,203.26 84.80,202.64 85.55,202.01 86.30,201.39 87.05,200.76 87.80,200.14 88.55,199.52 89.30,198.89 90.05,198.27 90.80,197.65 91.55,197.03 92.30,196.41 93.06,195.78 93.81,195.16 94.56,194.54 95.31,193.92 96.06,193.31 96.81,192.69 97.56,192.07 98.31,191.45 99.06,190.83 99.81,190.22 100.56,189.60 101.31,188.99 102.06,188.37 102.82,187.76 103.57,187.14 104.32,186.53 105.07,185.91 105.82,185.30 106.57,184.69 107.32,184.08 108.07,183.47 108.82,182.86 109.57,182.25 110.32,181.64 111.07,181.03 111.82,180.42 112.57,179.82 113.33,179.21 114.08,178.60 114.83,178.00 115.58,177.39 116.33,176.79 117.08,176.18 117.83,175.58 118.58,174.98 119.33,174.38 120.08,173.78 120.83,173.18 121.58,172.58 122.33,171.98 123.09,171.38 123.84,170.78 124.59,170.18 125.34,169.59 126.09,168.99 126.84,168.40 127.59,167.80 128.34,167.21 129.09,166.62 129.84,166.03 130.59,165.43 131.34,164.84 132.09,164.25 132.84,163.67 133.60,163.08 134.35,162.49 135.10,161.90 135.85,161.32 136.60,160.73 137.35,160.15 138.10,159.56 138.85,158.98 139.60,158.40 140.35,157.82 141.10,157.24 141.85,156.66 142.60,156.08 143.35,155.50 144.11,154.92 144.86,154.35 145.61,153.77 146.36,153.20 147.11,152.62 147.86,152.05 148.61,151.48 149.36,150.91 150.11,150.34 150.86,149.77 151.61,149.20 152.36,148.63 153.11,148.07 153.87,147.50 154.62,146.94 155.37,146.37 156.12,145.81 156.87,145.25 157.62,144.69 158.37,144.13 159.12,143.57 159.87,143.01 160.62,142.45 161.37,141.89 162.12,141.34 162.87,140.78 163.62,140.23 164.38,139.68 165.13,139.13 165.88,138.58 166.63,138.03 167.38,137.48 168.13,136.93 168.88,136.38 169.63,135.84 170.38,135.29 171.13,134.75 171.88,134.21 172.63,133.67 173.38,133.13 174.13,132.59 174.89,132.05 175.64,131.51 176.39,130.97 177.14,130.44 177.89,129.90 178.64,129.37 179.39,128.84 180.14,128.31 180.89,127.78 181.64,127.25 182.39,126.72 183.14,126.20 183.89,125.67 184.65,125.15 185.40,124.62 186.15,124.10 186.90,123.58 187.65,123.06 188.40,122.54 189.15,122.02 189.90,121.51 190.65,120.99 191.40,120.48 192.15,119.97 192.90,119.45 193.65,118.94 194.40,118.43 195.16,117.93 195.91,117.42 196.66,116.91 197.41,116.41 198.16,115.91 198.91,115.40 199.66,114.90 200.41,114.40 201.16,113.90 201.91,113.41 202.66,112.91 203.41,112.42 204.16,111.92 204.91,111.43 205.67,110.94 206.42,110.45 207.17,109.96 207.92,109.47 208.67,108.99 209.42,108.50 210.17,108.02 210.92,107.54 211.67,107.06 212.42,106.58 213.17,106.10 213.92,105.62 214.67,105.15 215.43,104.67 216.18,104.20 216.93,103.73 217.68,103.26 218.43,102.79 219.18,102.32 219.93,101.85 220.68,101.39 221.43,100.92 222.18,100.46 222.93,100.00 223.68,99.54 224.43,99.08 225.18,98.62 225.94,98.17 226.69,97.71 227.44,97.26 228.19,96.81 228.94,96.36 229.69,95.91 230.44,95.46 231.19,95.02 231.94,94.57 232.69,94.13 233.44,93.69 234.19,93.25 234.94,92.81 235.70,92.37 236.45,91.93 237.20,91.50 237.95,91.07 238.70,90.63 239.45,90.20 240.20,89.78 240.95,89.35 241.70,88.92 242.45,88.50 243.20,88.07 243.95,87.65 244.70,87.23 245.45,86.81 246.21,86.40 246.96,85.98 247.71,85.57 248.46,85.15 249.21,84.74 249.96,84.33 250.71,83.92 251.46,83.52 252.21,83.11 252.96,82.71 253.71,82.31 254.46,81.91 255.21,81.51 255.96,81.11 256.72,80.71 257.47,80.32 258.22,79.93 258.97,79.53 259.72,79.14 260.47,78.76 261.22,78.37 261.97,77.98 262.72,77.60 263.47,77.22 264.22,76.84 264.97,76.46 265.72,76.08 266.48,75.71 267.23,75.33 267.98,74.96 268.73,74.59 269.48,74.22 270.23,73.85 270.98,73.48 271.73,73.12 272.48,72.76 273.23,72.40 273.98,72.04 274.73,71.68 275.48,71.32 276.23,70.97 276.99,70.61 277.74,70.26 278.49,69.91 279.24,69.56 279.99,69.22 280.74,68.87 281.49,68.53 282.24,68.19 282.99,67.85 283.74,67.51 284.49,67.17 285.24,66.83 285.99,66.50 286.74,66.17 287.50,65.84 288.25,65.51 289.00,65.18 289.75,64.86 290.50,64.54 291.25,64.21 292.00,63.89 292.75,63.57 293.50,63.26 294.25,62.94 295.00,62.63 295.75,62.32 296.50,62.01 297.26,61.70 298.01,61.39 298.76,61.09 299.51,60.79 300.26,60.49 301.01,60.19 301.76,59.89 302.51,59.59 303.26,59.30 304.01,59.00 304.76,58.71 305.51,58.43 306.26,58.14 307.01,57.85 307.77,57.57 308.52,57.29 309.27,57.01 310.02,56.73 310.77,56.45 311.52,56.18 312.27,55.90 313.02,55.63 313.77,55.36 314.52,55.09 315.27,54.83 316.02,54.56 316.77,54.30 317.52,54.04 318.28,53.78 319.03,53.52 319.78,53.27 320.53,53.01 321.28,52.76 322.03,52.51 322.78,52.26 323.53,52.02 324.28,51.77 325.03,51.53 325.78,51.29 326.53,51.05 327.28,50.81 328.04,50.58 328.79,50.34 329.54,50.11 330.29,49.88 331.04,49.65 331.79,49.43 332.54,49.20 333.29,48.98 334.04,48.76 334.79,48.54 335.54,48.32 336.29,48.11 337.04,47.89 337.79,47.68 338.55,47.47 339.30,47.26 340.05,47.06 340.80,46.85 341.55,46.65 342.30,46.45 343.05,46.25 343.80,46.05 344.55,45.86 345.30,45.66 346.05,45.47 346.80,45.28 347.55,45.10 348.30,44.91 349.06,44.73 349.81,44.54 350.56,44.36 351.31,44.19 352.06,44.01 352.81,43.84 353.56,43.66 354.31,43.49 355.06,43.32 355.81,43.16 356.56,42.99 357.31,42.83 358.06,42.67 358.82,42.51 359.57,42.35 360.32,42.19 361.07,42.04 361.82,41.89 362.57,41.74 363.32,41.59 364.07,41.45 364.82,41.30 365.57,41.16 366.32,41.02 367.07,40.88 367.82,40.74 368.57,40.61 369.33,40.48 370.08,40.35 370.83,40.22 371.58,40.09 372.33,39.97 373.08,39.84 373.83,39.72 374.58,39.60 375.33,39.48 376.08,39.37 376.83,39.26 377.58,39.14 378.33,39.04 379.09,38.93 379.84,38.82 380.59,38.72 381.34,38.62 382.09,38.52 382.84,38.42 383.59,38.32 384.34,38.23 385.09,38.14 385.84,38.05 386.59,37.96 387.34,37.87 388.09,37.79 388.84,37.70 389.60,37.62 390.35,37.54 391.10,37.47 391.85,37.39 392.60,37.32 393.35,37.25 394.10,37.18 394.85,37.11 395.60,37.05 396.35,36.99 397.10,36.92 397.85,36.87 398.60,36.81 399.35,36.75 400.11,36.70 400.86,36.65 401.61,36.60 402.36,36.55 403.11,36.51 403.86,36.46 404.61,36.42 405.36,36.38 406.11,36.34 406.86,36.31 407.61,36.27 408.36,36.24 409.11,36.21 409.87,36.19 410.62,36.16 411.37,36.14 412.12,36.11 412.87,36.09 413.62,36.07 414.37,36.06 415.12,36.04 415.87,36.03 416.62,36.02 417.37,36.01 418.12,36.01 418.87,36.00 419.62,36.00 420.38,36.00 421.13,36.00 421.88,36.00 422.63,36.01 423.38,36.02 424.13,36.03 424.88,36.04 425.63,36.05 426.38,36.07 427.13,36.08 427.88,36.10 428.63,36.12 429.38,36.15 430.13,36.17 430.89,36.20 431.64,36.23 432.39,36.26 433.14,36.29 433.89,36.33 434.64,36.36 435.39,36.40 436.14,36.44 436.89,36.48 437.64,36.53 438.39,36.58 439.14,36.62 439.89,36.67 440.65,36.73 441.40,36.78 442.15,36.84 442.90,36.90 443.65,36.96 444.40,37.02 445.15,37.08 445.90,37.15 446.65,37.22 447.40,37.28 448.15,37.36 448.90,37.43 449.65,37.51 450.40,37.58 451.16,37.66 451.91,37.74 452.66,37.83 453.41,37.91 454.16,38.00 454.91,38.09 455.66,38.18 456.41,38.27 457.16,38.37 457.91,38.47 458.66,38.57 459.41,38.67 460.16,38.77 460.91,38.87 461.67,38.98 462.42,39.09 463.17,39.20 463.92,39.31 464.67,39.43 465.42,39.54 466.17,39.66 466.92,39.78 467.67,39.90 468.42,40.03 469.17,40.15 469.92,40.28 470.67,40.41 471.43,40.54 472.18,40.68 472.93,40.81 473.68,40.95 474.43,41.09 475.18,41.23 475.93,41.37 476.68,41.52 477.43,41.67 478.18,41.81 478.93,41.97 479.68,42.12 480.43,42.27 481.18,42.43 481.94,42.59 482.69,42.75 483.44,42.91 484.19,43.07 484.94,43.24 485.69,43.41 486.44,43.58 487.19,43.75 487.94,43.92 488.69,44.10 489.44,44.27 490.19,44.45 490.94,44.64 491.70,44.82 492.45,45.00 493.20,45.19 493.95,45.38 494.70,45.57 495.45,45.76 496.20,45.95 496.95,46.15 497.70,46.35 498.45,46.55 499.20,46.75 499.95,46.95 500.70,47.16 501.45,47.37 502.21,47.57 502.96,47.79 503.71,48.00 504.46,48.21 505.21,48.43 505.96,48.65 506.71,48.87 507.46,49.09 508.21,49.31 508.96,49.54 509.71,49.77 510.46,49.99 511.21,50.23 511.96,50.46 512.72,50.69 513.47,50.93 514.22,51.17 514.97,51.41 515.72,51.65 516.47,51.89 517.22,52.14 517.97,52.39 518.72,52.64 519.47,52.89 520.22,53.14 520.97,53.39 521.72,53.65 522.48,53.91 523.23,54.17 523.98,54.43 524.73,54.69 525.48,54.96 526.23,55.23 526.98,55.50 527.73,55.77 528.48,56.04 529.23,56.31 529.98,56.59 530.73,56.87 531.48,57.15 532.23,57.43 532.99,57.71 533.74,57.99 534.49,58.28 535.24,58.57 535.99,58.86 536.74,59.15 537.49,59.44 538.24,59.74 538.99,60.04 539.74,60.34 540.49,60.64 541.24,60.94 541.99,61.24 542.74,61.55 543.50,61.85 544.25,62.16 545.00,62.47 545.75,62.79 546.50,63.10 547.25,63.42 548.00,63.73 548.75,64.05 549.50,64.37 550.25,64.70 551.00,65.02 551.75,65.35 552.50,65.67 553.26,66.00 554.01,66.33 554.76,66.67 555.51,67.00 556.26,67.34 557.01,67.68 557.76,68.01 558.51,68.36 559.26,68.70 560.01,69.04 560.76,69.39 561.51,69.74 562.26,70.09 563.01,70.44 563.77,70.79 564.52,71.14 565.27,71.50 566.02,71.86 566.77,72.22 567.52,72.58 568.27,72.94 569.02,73.30 569.77,73.67 570.52,74.03 571.27,74.40 572.02,74.77 572.77,75.14 573.52,75.52 574.28,75.89 575.03,76.27 575.78,76.65 576.53,77.03 577.28,77.41 578.03,77.79 578.78,78.18 579.53,78.56 580.28,78.95 581.03,79.34 581.78,79.73 582.53,80.12 583.28,80.52 584.04,80.91 584.79,81.31 585.54,81.71 586.29,82.11 587.04,82.51 587.79,82.91 588.54,83.32 589.29,83.72 590.04,84.13 590.79,84.54 591.54,84.95 592.29,85.36 593.04,85.77 593.79,86.19 594.55,86.60 595.30,87.02 596.05,87.44 596.80,87.86 597.55,88.29 598.30,88.71 599.05,89.13 599.80,89.56 600.55,89.99 601.30,90.42 602.05,90.85 602.80,91.28 603.55,91.72 604.30,92.15 605.06,92.59 605.81,93.03 606.56,93.47 607.31,93.91 608.06,94.35 608.81,94.79 609.56,95.24 610.31,95.69 611.06,96.13 611.81,96.58 612.56,97.03 613.31,97.49 614.06,97.94 614.82,98.40 615.57,98.85 616.32,99.31 617.07,99.77 617.82,100.23 618.57,100.69 619.32,101.15 620.07,101.62 620.82,102.08 621.57,102.55 622.32,103.02 623.07,103.49 623.82,103.96 624.57,104.43 625.33,104.91 626.08,105.38 626.83,105.86 627.58,106.34 628.33,106.82 629.08,107.30 629.83,107.78 630.58,108.26 631.33,108.75 632.08,109.23 632.83,109.72 633.58,110.21 634.33,110.69 635.09,111.18 635.84,111.68 636.59,112.17 637.34,112.66 638.09,113.16 638.84,113.66 639.59,114.15 640.34,114.65 641.09,115.15 641.84,115.65 642.59,116.16 643.34,116.66 644.09,117.17 644.84,117.67 645.60,118.18 646.35,118.69 647.10,119.20 647.85,119.71 648.60,120.22 649.35,120.74 650.10,121.25 650.85,121.77 651.60,122.28 652.35,122.80 653.10,123.32 653.85,123.84 654.60,124.36 655.35,124.88 656.11,125.41 656.86,125.93 657.61,126.46 658.36,126.99 659.11,127.51 659.86,128.04 660.61,128.57 661.36,129.11 662.11,129.64 662.86,130.17 663.61,130.71 664.36,131.24 665.11,131.78 665.87,132.32 666.62,132.86 667.37,133.40 668.12,133.94 668.87,134.48 669.62,135.02 670.37,135.57 671.12,136.11 671.87,136.66 672.62,137.20 673.37,137.75 674.12,138.30 674.87,138.85 675.62,139.40 676.38,139.95 677.13,140.51 677.88,141.06 678.63,141.62 679.38,142.17 680.13,142.73 680.88,143.29 681.63,143.85 682.38,144.41 683.13,144.97 683.88,145.53 684.63,146.09 685.38,146.65 686.13,147.22 686.89,147.78 687.64,148.35 688.39,148.92 689.14,149.48 689.89,150.05 690.64,150.62 691.39,151.19 692.14,151.77 692.89,152.34 693.64,152.91 694.39,153.49 695.14,154.06 695.89,154.64 696.65,155.21 697.40,155.79 698.15,156.37 698.90,156.95 699.65,157.53 700.40,158.11 701.15,158.69 701.90,159.27 702.65,159.86 703.40,160.44 704.15,161.02 704.90,161.61 705.65,162.20 706.40,162.78 707.16,163.37 707.91,163.96 708.66,164.55 709.41,165.14 710.16,165.73 710.91,166.32 711.66,166.91 712.41,167.51 713.16,168.10 713.91,168.70 714.66,169.29 715.41,169.89 716.16,170.48 716.91,171.08 717.67,171.68 718.42,172.28 719.17,172.88 719.92,173.48 720.67,174.08 721.42,174.68 722.17,175.28 722.92,175.88 723.67,176.49 724.42,177.09 725.17,177.69 725.92,178.30 726.67,178.91 727.43,179.51 728.18,180.12 728.93,180.73 729.68,181.33 730.43,181.94 731.18,182.55 731.93,183.16 732.68,183.77 733.43,184.38 734.18,185.00 734.93,185.61 735.68,186.22 736.43,186.83 737.18,187.45 737.94,188.06 738.69,188.68 739.44,189.29 740.19,189.91 740.94,190.53 741.69,191.14 742.44,191.76 743.19,192.38 743.94,193.00 744.69,193.61 745.44,194.23 746.19,194.85 746.94,195.47 747.70,196.10 748.45,196.72 749.20,197.34 749.95,197.96 750.70,198.58 751.45,199.21 752.20,199.83 752.95,200.45 753.70,201.08 754.45,201.70 755.20,202.33 755.95,202.95 756.70,203.58 757.45,204.20 758.21,204.83 758.96,205.46 759.71,206.08 760.46,206.71 761.21,207.34 761.96,207.97 762.71,208.60 763.46,209.23 764.21,209.86 764.96,210.49 765.71,211.12 766.46,211.75 767.21,212.38 767.96,213.01 768.72,213.64 769.47,214.27 770.22,214.90 770.97,215.53 771.72,216.17 772.47,216.80 773.22,217.43 773.97,218.06 774.72,218.70 775.47,219.33 776.22,219.96 776.97,220.60 777.72,221.23 778.48,221.87 779.23,222.50 779.98,223.14 780.73,223.77 781.48,224.41 782.23,225.04 782.98,225.68 783.73,226.31 784.48,226.95 785.23,227.59 785.98,228.22 786.73,228.86 787.48,229.49 788.23,230.13 788.99,230.77 789.74,231.40 790.49,232.04 791.24,232.68 791.99,233.32 792.74,233.95 793.49,234.59 794.24,235.23 794.99,235.87 795.74,236.50 796.49,237.14 797.24,237.78 797.99,238.42 798.74,239.05 799.50,239.69 800.25,240.33 801.00,240.97 801.75,241.61 802.50,242.25 803.25,242.88 804.00,243.84" />
  <text x="420.0" y="22" text-anchor="middle" font-family="Arial, Helvetica, sans-serif" font-size="15" fill="#102a43">cosine window (time domain)</text>
  <text x="420.0" y="272" text-anchor="middle" font-family="Arial, Helvetica, sans-serif" font-size="12" fill="#334e68">normalized sample index</text>
  <text x="14" y="140.0" transform="rotate(-90 14,140.0)" text-anchor="middle" font-family="Arial, Helvetica, sans-serif" font-size="12" fill="#334e68">amplitude</text>
  <text x="36" y="262" font-family="Arial, Helvetica, sans-serif" font-size="11" fill="#486581">0</text>
  <text x="804" y="262" text-anchor="end" font-family="Arial, Helvetica, sans-serif" font-size="11" fill="#486581">1</text>
  <text x="30" y="40" text-anchor="end" font-family="Arial, Helvetica, sans-serif" font-size="11" fill="#486581">1.0</text>
  <text x="30" y="248" text-anchor="end" font-family="Arial, Helvetica, sans-serif" font-size="11" fill="#486581">0.0</text>
</svg>
