<svg xmlns="http://www.w3.org/2000/svg" width="840" height="280" viewBox="0 0 840 280">
  <rect x="0" y="0" width="840" height="280" fill="#ffffff" />
  <rect x="36" y="36" width="768" height="208" fill="#f7fbff" stroke="#c8d9e6" />
  <polyline fill="none" stroke="#005f73" stroke-width="2" points="36.00,36.00 36.75,36.39 37.50,40.98 38.25,54.50 39.00,82.54 39.75,185.35 40.50,191.73 41.26,189.96 42.01,190.36 42.76,191.57 43.51,193.06 44.26,194.62 45.01,196.17 45.76,197.68 46.51,199.12 47.26,200.50 48.01,187.52 48.76,187.70 49.51,187.94 50.26,188.23 51.01,188.54 51.77,188.86 52.52,189.20 53.27,189.54 54.02,189.89 54.77,190.23 55.52,190.57 56.27,190.91 57.02,191.25 57.77,191.58 58.52,191.90 59.27,192.22 60.02,185.41 60.77,185.70 61.52,185.98 62.28,186.25 63.03,186.53 63.78,186.79 64.53,187.06 65.28,187.32 66.03,187.57 66.78,187.82 67.53,188.06 68.28,188.31 69.03,188.54 69.78,188.77 70.53,189.00 71.28,189.23 72.04,185.05 72.79,185.26 73.54,185.47 74.29,185.68 75.04,185.88 75.79,186.08 76.54,186.28 77.29,186.48 78.04,186.67 78.79,186.86 79.54,187.04 80.29,187.22 81.04,187.40 81.79,187.58 82.55,187.76 83.30,187.93 84.05,184.94 84.80,185.11 85.55,185.27 86.30,185.43 87.05,185.59 87.80,185.75 88.55,185.91 89.30,186.06 90.05,186.21 90.80,186.36 91.55,186.51 92.30,186.66 93.06,186.80 93.81,186.94 94.56,187.08 95.31,187.22 96.06,184.91 96.81,185.05 97.56,185.18 98.31,185.31 99.06,185.44 99.81,185.57 100.56,185.70 101.31,185.83 102.06,185.95 102.82,186.08 103.57,186.20 104.32,186.32 105.07,186.44 105.82,186.56 106.57,186.68 107.32,186.79 108.07,184.92 108.82,185.03 109.57,185.14 110.32,185.25 111.07,185.36 111.82,185.47 112.57,185.58 113.33,185.69 114.08,185.79 114.83,185.90 115.58,186.00 116.33,186.11 117.08,186.21 117.83,186.31 118.58,186.41 119.33,186.51 120.08,184.94 120.83,185.04 121.58,185.13 122.33,185.23 123.09,185.33 123.84,185.42 124.59,185.51 125.34,185.61 126.09,185.70 126.84,185.79 127.59,185.88 128.34,185.97 129.09,186.06 129.84,186.15 130.59,186.24 131.34,186.32 132.09,184.98 132.84,185.06 133.60,185.15 134.35,185.23 135.10,185.32 135.85,185.40 136.60,185.48 137.35,185.56 138.10,185.65 138.85,185.73 139.60,185.81 140.35,185.89 141.10,185.97 141.85,186.04 142.60,186.12 143.35,186.20 144.11,185.03 144.86,185.10 145.61,185.18 146.36,185.26 147.11,185.33 147.86,185.40 148.61,185.48 149.36,185.55 150.11,185.62 150.86,185.69 151.61,185.77 152.36,185.84 153.11,185.91 153.87,185.98 154.62,186.05 155.37,186.12 156.12,185.09 156.87,185.16 157.62,185.22 158.37,185.29 159.12,185.36 159.87,185.43 160.62,185.49 161.37,185.56 162.12,185.62 162.87,185.69 163.62,185.75 164.38,185.82 165.13,185.88 165.88,185.94 166.63,186.01 167.38,186.07 168.13,185.16 168.88,185.22 169.63,185.28 170.38,185.34 171.13,185.40 171.88,185.46 172.63,185.52 173.38,185.58 174.13,185.64 174.89,185.70 175.64,185.76 176.39,185.82 177.14,185.88 177.89,185.93 178.64,185.99 179.39,186.05 180.14,185.23 180.89,185.29 181.64,185.35 182.39,185.40 183.14,185.46 183.89,185.51 184.65,185.57 185.40,185.62 186.15,185.68 186.90,185.73 187.65,185.79 188.40,185.84 189.15,185.89 189.90,185.95 190.65,186.00 191.40,186.05 192.15,185.32 192.90,185.37 193.65,185.42 194.40,185.47 195.16,185.52 195.91,185.58 196.66,185.63 197.41,185.68 198.16,185.73 198.91,185.78 199.66,185.83 200.41,185.88 201.16,185.93 201.91,185.97 202.66,186.02 203.41,186.07 204.16,185.41 204.91,185.46 205.67,185.51 206.42,185.55 207.17,185.60 207.92,185.65 208.67,185.70 209.42,185.74 210.17,185.79 210.92,185.84 211.67,185.88 212.42,185.93 213.17,185.97 213.92,186.02 214.67,186.06 215.43,186.11 216.18,185.51 216.93,185.56 217.68,185.60 218.43,185.65 219.18,185.69 219.93,185.73 220.68,185.78 221.43,185.82 222.18,185.86 222.93,185.91 223.68,185.95 224.43,185.99 225.18,186.03 225.94,186.08 226.69,186.12 227.44,186.16 228.19,185.62 228.94,185.66 229.69,185.70 230.44,185.75 231.19,185.79 231.94,185.83 232.69,185.87 233.44,185.91 234.19,185.95 234.94,185.99 235.70,186.03 236.45,186.07 237.20,186.11 237.95,186.15 238.70,186.19 239.45,186.23 240.20,185.74 240.95,185.78 241.70,185.82 242.45,185.86 243.20,185.89 243.95,185.93 244.70,185.97 245.45,186.01 246.21,186.05 246.96,186.08 247.71,186.12 248.46,186.16 249.21,186.20 249.96,186.23 250.71,186.27 251.46,186.31 252.21,185.87 252.96,185.90 253.71,185.94 254.46,185.97 255.21,186.01 255.96,186.05 256.72,186.08 257.47,186.12 258.22,186.15 258.97,186.19 259.72,186.22 260.47,186.26 261.22,186.29 261.97,186.33 262.72,186.36 263.47,186.40 264.22,186.00 264.97,186.03 265.72,186.07 266.48,186.10 267.23,186.14 267.98,186.17 268.73,186.20 269.48,186.24 270.23,186.27 270.98,186.30 271.73,186.34 272.48,186.37 273.23,186.40 273.98,186.43 274.73,186.47 275.48,186.50 276.23,186.14 276.99,186.17 277.74,186.21 278.49,186.24 279.24,186.27 279.99,186.30 280.74,186.33 281.49,186.37 282.24,186.40 282.99,186.43 283.74,186.46 284.49,186.49 285.24,186.52 285.99,186.55 286.74,186.58 287.50,186.61 288.25,186.29 289.00,186.32 289.75,186.36 290.50,186.39 291.25,186.42 292.00,186.45 292.75,186.48 293.50,186.51 294.25,186.53 295.00,186.56 295.75,186.59 296.50,186.62 297.26,186.65 298.01,186.68 298.76,186.71 299.51,186.74 300.26,186.46 301.01,186.48 301.76,186.51 302.51,186.54 303.26,186.57 304.01,186.60 304.76,186.63 305.51,186.65 306.26,186.68 307.01,186.71 307.77,186.74 308.52,186.77 309.27,186.79 310.02,186.82 310.77,186.85 311.52,186.88 312.27,186.63 313.02,186.65 313.77,186.68 314.52,186.71 315.27,186.73 316.02,186.76 316.77,186.79 317.52,186.81 318.28,186.84 319.03,186.87 319.78,186.89 320.53,186.92 321.28,186.95 322.03,186.97 322.78,187.00 323.53,187.02 324.28,186.81 325.03,186.83 325.78,186.86 326.53,186.88 327.28,186.91 328.04,186.93 328.79,186.96 329.54,186.98 330.29,187.01 331.04,187.03 331.79,187.06 332.54,187.08 333.29,187.11 334.04,187.13 334.79,187.16 335.54,187.18 336.29,186.99 337.04,187.02 337.79,187.04 338.55,187.07 339.30,187.09 340.05,187.12 340.80,187.14 341.55,187.16 342.30,187.19 343.05,187.21 343.80,187.24 344.55,187.26 345.30,187.28 346.05,187.31 346.80,187.33 347.55,187.35 348.30,187.19 349.06,187.22 349.81,187.24 350.56,187.26 351.31,187.29 352.06,187.31 352.81,187.33 353.56,187.36 354.31,187.38 355.06,187.40 355.81,187.42 356.56,187.45 357.31,187.47 358.06,187.49 358.82,187.51 359.57,187.54 360.32,187.41 361.07,187.43 361.82,187.45 362.57,187.47 363.32,187.49 364.07,187.52 364.82,187.54 365.57,187.56 366.32,187.58 367.07,187.60 367.82,187.62 368.57,187.64 369.33,187.67 370.08,187.69 370.83,187.71 371.58,187.73 372.33,187.63 373.08,187.65 373.83,187.67 374.58,187.69 375.33,187.71 376.08,187.73 376.83,187.75 377.58,187.77 378.33,187.79 379.09,187.81 379.84,187.83 380.59,187.85 381.34,187.87 382.09,187.89 382.84,187.92 383.59,187.94 384.34,187.86 385.09,187.88 385.84,187.90 386.59,187.92 387.34,187.94 388.09,187.96 388.84,187.98 389.60,188.00 390.35,188.02 391.10,188.04 391.85,188.06 392.60,188.08 393.35,188.10 394.10,188.11 394.85,188.13 395.60,188.15 396.35,188.10 397.10,188.12 397.85,188.14 398.60,188.16 399.35,188.18 400.11,188.20 400.86,188.22 401.61,188.24 402.36,188.25 403.11,188.27 403.86,188.29 404.61,188.31 405.36,188.33 406.11,188.35 406.86,188.37 407.61,188.38 408.36,188.36 409.11,188.38 409.87,188.40 410.62,188.42 411.37,188.43 412.12,188.45 412.87,188.47 413.62,188.49 414.37,188.50 415.12,188.52 415.87,188.54 416.62,188.56 417.37,188.58 418.12,188.59 418.87,188.61 419.62,188.63 420.38,188.63 421.13,188.65 421.88,188.67 422.63,188.68 423.38,188.70 424.13,188.72 424.88,188.73 425.63,188.75 426.38,188.77 427.13,188.78 427.88,188.80 428.63,188.82 429.38,188.84 430.13,188.85 430.89,188.87 431.64,188.88 432.39,188.92 433.14,188.93 433.89,188.95 434.64,188.96 435.39,188.98 436.14,189.00 436.89,189.01 437.64,189.03 438.39,189.05 439.14,189.06 439.89,189.08 440.65,189.09 441.40,189.11 442.15,189.12 442.90,189.14 443.65,189.16 444.40,189.21 445.15,189.23 445.90,189.24 446.65,189.26 447.40,189.28 448.15,189.29 448.90,189.31 449.65,189.32 450.40,189.34 451.16,189.35 451.91,189.37 452.66,189.38 453.41,189.40 454.16,189.41 454.91,189.43 455.66,189.44 456.41,189.53 457.16,189.54 457.91,189.56 458.66,189.57 459.41,189.59 460.16,189.60 460.91,189.62 461.67,189.63 462.42,189.64 463.17,189.66 463.92,189.67 464.67,189.69 465.42,189.70 466.17,189.72 466.92,189.73 467.67,189.74 468.42,189.86 469.17,189.87 469.92,189.88 470.67,189.90 471.43,189.91 472.18,189.93 472.93,189.94 473.68,189.95 474.43,189.97 475.18,189.98 475.93,190.00 476.68,190.01 477.43,190.02 478.18,190.04 478.93,190.05 479.68,190.06 480.43,190.20 481.18,190.22 481.94,190.23 482.69,190.24 483.44,190.26 484.19,190.27 484.94,190.28 485.69,190.30 486.44,190.31 487.19,190.32 487.94,190.33 488.69,190.35 489.44,190.36 490.19,190.37 490.94,190.39 491.70,190.40 492.45,190.57 493.20,190.58 493.95,190.59 494.70,190.60 495.45,190.62 496.20,190.63 496.95,190.64 497.70,190.65 498.45,190.67 499.20,190.68 499.95,190.69 500.70,190.70 501.45,190.72 502.21,190.73 502.96,190.74 503.71,190.75 504.46,190.95 505.21,190.96 505.96,190.97 506.71,190.99 507.46,191.00 508.21,191.01 508.96,191.02 509.71,191.03 510.46,191.05 511.21,191.06 511.96,191.07 512.72,191.08 513.47,191.09 514.22,191.10 514.97,191.12 515.72,191.13 516.47,191.35 517.22,191.36 517.97,191.38 518.72,191.39 519.47,191.40 520.22,191.41 520.97,191.42 521.72,191.43 522.48,191.44 523.23,191.46 523.98,191.47 524.73,191.48 525.48,191.49 526.23,191.50 526.98,191.51 527.73,191.52 528.48,191.78 529.23,191.79 529.98,191.80 530.73,191.81 531.48,191.82 532.23,191.83 532.99,191.84 533.74,191.85 534.49,191.86 535.24,191.88 535.99,191.89 536.74,191.90 537.49,191.91 538.24,191.92 538.99,191.93 539.74,191.94 540.49,192.23 541.24,192.24 541.99,192.25 542.74,192.26 543.50,192.27 544.25,192.28 545.00,192.29 545.75,192.30 546.50,192.31 547.25,192.32 548.00,192.33 548.75,192.34 549.50,192.35 550.25,192.36 551.00,192.37 551.75,192.38 552.50,192.70 553.26,192.71 554.01,192.72 554.76,192.73 555.51,192.74 556.26,192.75 557.01,192.76 557.76,192.77 558.51,192.78 559.26,192.79 560.01,192.80 560.76,192.81 561.51,192.82 562.26,192.83 563.01,192.84 563.77,192.85 564.52,193.21 565.27,193.22 566.02,193.23 566.77,193.23 567.52,193.24 568.27,193.25 569.02,193.26 569.77,193.27 570.52,193.28 571.27,193.29 572.02,193.30 572.77,193.31 573.52,193.31 574.28,193.32 575.03,193.33 575.78,193.34 576.53,193.74 577.28,193.75 578.03,193.76 578.78,193.77 579.53,193.78 580.28,193.78 581.03,193.79 581.78,193.80 582.53,193.81 583.28,193.82 584.04,193.83 584.79,193.83 585.54,193.84 586.29,193.85 587.04,193.86 587.79,193.87 588.54,194.31 589.29,194.32 590.04,194.32 590.79,194.33 591.54,194.34 592.29,194.35 593.04,194.36 593.79,194.36 594.55,194.37 595.30,194.38 596.05,194.39 596.80,194.40 597.55,194.40 598.30,194.41 599.05,194.42 599.80,194.43 600.55,194.91 601.30,194.92 602.05,194.93 602.80,194.94 603.55,194.94 604.30,194.95 605.06,194.96 605.81,194.97 606.56,194.97 607.31,194.98 608.06,194.99 608.81,195.00 609.56,195.00 610.31,195.01 611.06,195.02 611.81,195.02 612.56,195.56 613.31,195.57 614.06,195.57 614.82,195.58 615.57,195.59 616.32,195.60 617.07,195.60 617.82,195.61 618.57,195.62 619.32,195.62 620.07,195.63 620.82,195.64 621.57,195.64 622.32,195.65 623.07,195.66 623.82,195.66 624.57,196.25 625.33,196.26 626.08,196.27 626.83,196.27 627.58,196.28 628.33,196.29 629.08,196.29 629.83,196.30 630.58,196.30 631.33,196.31 632.08,196.32 632.83,196.32 633.58,196.33 634.33,196.34 635.09,196.34 635.84,196.35 636.59,197.00 637.34,197.00 638.09,197.01 638.84,197.02 639.59,197.02 640.34,197.03 641.09,197.03 641.84,197.04 642.59,197.05 643.34,197.05 644.09,197.06 644.84,197.06 645.60,197.07 646.35,197.08 647.10,197.08 647.85,197.09 648.60,197.80 649.35,197.81 650.10,197.82 650.85,197.82 651.60,197.83 652.35,197.83 653.10,197.84 653.85,197.84 654.60,197.85 655.35,197.85 656.11,197.86 656.86,197.86 657.61,197.87 658.36,197.88 659.11,197.88 659.86,197.89 660.61,198.68 661.36,198.68 662.11,198.69 662.86,198.69 663.61,198.70 664.36,198.70 665.11,198.71 665.87,198.71 666.62,198.72 667.37,198.72 668.12,198.73 668.87,198.73 669.62,198.74 670.37,198.74 671.12,198.75 671.87,198.75 672.62,199.63 673.37,199.64 674.12,199.64 674.87,199.65 675.62,199.65 676.38,199.66 677.13,199.66 677.88,199.67 678.63,199.67 679.38,199.68 680.13,199.68 680.88,199.69 681.63,199.69 682.38,199.69 683.13,199.70 683.88,199.70 684.63,200.69 685.38,200.69 686.13,200.70 686.89,200.70 687.64,200.70 688.39,200.71 689.14,200.71 689.89,200.72 690.64,200.72 691.39,200.72 692.14,200.73 692.89,200.73 693.64,200.74 694.39,200.74 695.14,200.74 695.89,200.75 696.65,201.85 697.40,201.86 698.15,201.86 698.90,201.87 699.65,201.87 700.40,201.87 701.15,201.88 701.90,201.88 702.65,201.88 703.40,201.89 704.15,201.89 704.90,201.90 705.65,201.90 706.40,201.90 707.16,201.91 707.91,201.91 708.66,203.16 709.41,203.17 710.16,203.17 710.91,203.18 711.66,203.18 712.41,203.18 713.16,203.18 713.91,203.19 714.66,203.19 715.41,203.19 716.16,203.20 716.91,203.20 717.67,203.20 718.42,203.21 719.17,203.21 719.92,203.21 720.67,204.66 721.42,204.66 722.17,204.66 722.92,204.66 723.67,204.67 724.42,204.67 725.17,204.67 725.92,204.68 726.67,204.68 727.43,204.68 728.18,204.68 728.93,204.69 729.68,204.69 730.43,204.69 731.18,204.69 731.93,204.70 732.68,206.38 733.43,206.38 734.18,206.39 734.93,206.39 735.68,206.39 736.43,206.39 737.18,206.40 737.94,206.40 738.69,206.40 739.44,206.40 740.19,206.40 740.94,206.41 741.69,206.41 742.44,206.41 743.19,206.41 743.94,206.42 744.69,208.43 745.44,208.43 746.19,208.43 746.94,208.43 747.70,208.43 748.45,208.44 749.20,208.44 749.95,208.44 750.70,208.44 751.45,208.44 752.20,208.45 752.95,208.45 753.70,208.45 754.45,208.45 755.20,208.45 755.95,208.45 756.70,210.94 757.45,210.94 758.21,210.94 758.96,210.94 759.71,210.94 760.46,210.94 761.21,210.95 761.96,210.95 762.71,210.95 763.46,210.95 764.21,210.95 764.96,210.95 765.71,210.95 766.46,210.95 767.21,210.96 767.96,210.96 768.72,214.18 769.47,214.18 770.22,214.18 770.97,214.18 771.72,214.18 772.47,214.18 773.22,214.18 773.97,214.18 774.72,214.18 775.47,214.19 776.22,214.19 776.97,214.19 777.72,214.19 778.48,214.19 779.23,214.19 779.98,214.19 780.73,218.75 781.48,218.75 782.23,218.75 782.98,218.75 783.73,218.75 784.48,218.75 785.23,218.75 785.98,218.75 786.73,218.75 787.48,218.75 788.23,218.75 788.99,218.75 789.74,218.76 790.49,218.76 791.24,218.76 791.99,218.76 792.74,226.57 793.49,226.57 794.24,226.57 794.99,226.57 795.74,226.57 796.49,226.57 797.24,226.57 797.99,226.57 798.74,226.57 799.50,226.57 800.25,226.57 801.00,226.57 801.75,226.57 802.50,226.57 803.25,226.57 804.00,244.00" />
  <text x="420.0" y="22" text-anchor="middle" font-family="Arial, Helvetica, sans-serif" font-size="15" fill="#102a43">flattop window (magnitude spectrum)</text>
  <text x="420.0" y="272" text-anchor="middle" font-family="Arial, Helvetica, sans-serif" font-size="12" fill="#334e68">normalized frequency</text>
  <text x="14" y="140.0" transform="rotate(-90 14,140.0)" text-anchor="middle" font-family="Arial, Helvetica, sans-serif" font-size="12" fill="#334e68">magnitude (dB)</text>
  <text x="36" y="262" font-family="Arial, Helvetica, sans-serif" font-size="11" fill="#486581">0</text>
  <text x="804" y="262" text-anchor="end" font-family="Arial, Helvetica, sans-serif" font-size="11" fill="#486581">1</text>
  <text x="30" y="40" text-anchor="end" font-family="Arial, Helvetica, sans-serif" font-size="11" fill="#486581">0.0</text>
  <text x="30" y="248" text-anchor="end" font-family="Arial, Helvetica, sans-serif" font-size="11" fill="#486581">-160.0</text>
</svg>
