<svg xmlns="http://www.w3.org/2000/svg" width="840" height="280" viewBox="0 0 840 280">
  <rect x="0" y="0" width="840" height="280" fill="#ffffff" />
  <rect x="36" y="36" width="768" height="208" fill="#f7fbff" stroke="#c8d9e6" />
  <polyline fill="none" stroke="#005f73" stroke-width="2" points="36.00,244.09 36.75,244.09 37.50,244.09 38.25,244.09 39.00,244.09 39.75,244.09 40.50,244.09 41.26,244.10 42.01,244.10 42.76,244.10 43.51,244.11 44.26,244.11 45.01,244.12 45.76,244.12 46.51,244.13 47.26,244.13 48.01,244.14 48.76,244.15 49.51,244.15 50.26,244.16 51.01,244.17 51.77,244.18 52.52,244.19 53.27,244.20 54.02,244.21 54.77,244.22 55.52,244.23 56.27,244.24 57.02,244.25 57.77,244.27 58.52,244.28 59.27,244.29 60.02,244.31 60.77,244.32 61.52,244.34 62.28,244.35 63.03,244.37 63.78,244.39 64.53,244.40 65.28,244.42 66.03,244.44 66.78,244.46 67.53,244.48 68.28,244.50 69.03,244.52 69.78,244.54 70.53,244.56 71.28,244.59 72.04,244.61 72.79,244.64 73.54,244.66 74.29,244.69 75.04,244.71 75.79,244.74 76.54,244.77 77.29,244.80 78.04,244.83 78.79,244.86 79.54,244.89 80.29,244.92 81.04,244.96 81.79,244.99 82.55,245.03 83.30,245.06 84.05,245.10 84.80,245.13 85.55,245.17 86.30,245.21 87.05,245.25 87.80,245.29 88.55,245.33 89.30,245.38 90.05,245.42 90.80,245.46 91.55,245.51 92.30,245.56 93.06,245.60 93.81,245.65 94.56,245.70 95.31,245.75 96.06,245.81 96.81,245.86 97.56,245.91 98.31,245.97 99.06,246.02 99.81,246.08 100.56,246.14 101.31,246.20 102.06,246.26 102.82,246.32 103.57,246.38 104.32,246.44 105.07,246.51 105.82,246.57 106.57,246.64 107.32,246.71 108.07,246.78 108.82,246.85 109.57,246.92 110.32,246.99 111.07,247.07 111.82,247.14 112.57,247.22 113.33,247.29 114.08,247.37 114.83,247.45 115.58,247.53 116.33,247.62 117.08,247.70 117.83,247.78 118.58,247.87 119.33,247.95 120.08,248.04 120.83,248.13 121.58,248.22 122.33,248.31 123.09,248.40 123.84,248.50 124.59,248.59 125.34,248.69 126.09,248.78 126.84,248.88 127.59,248.98 128.34,249.08 129.09,249.18 129.84,249.28 130.59,249.39 131.34,249.49 132.09,249.60 132.84,249.70 133.60,249.81 134.35,249.92 135.10,250.03 135.85,250.14 136.60,250.25 137.35,250.36 138.10,250.47 138.85,250.58 139.60,250.70 140.35,250.81 141.10,250.93 141.85,251.05 142.60,251.16 143.35,251.28 144.11,251.40 144.86,251.52 145.61,251.64 146.36,251.76 147.11,251.88 147.86,252.00 148.61,252.12 149.36,252.24 150.11,252.37 150.86,252.49 151.61,252.61 152.36,252.74 153.11,252.86 153.87,252.98 154.62,253.11 155.37,253.23 156.12,253.36 156.87,253.48 157.62,253.60 158.37,253.73 159.12,253.85 159.87,253.98 160.62,254.10 161.37,254.22 162.12,254.35 162.87,254.47 163.62,254.59 164.38,254.71 165.13,254.83 165.88,254.96 166.63,255.08 167.38,255.19 168.13,255.31 168.88,255.43 169.63,255.55 170.38,255.66 171.13,255.78 171.88,255.89 172.63,256.00 173.38,256.12 174.13,256.23 174.89,256.33 175.64,256.44 176.39,256.55 177.14,256.65 177.89,256.75 178.64,256.85 179.39,256.95 180.14,257.05 180.89,257.14 181.64,257.24 182.39,257.33 183.14,257.42 183.89,257.50 184.65,257.59 185.40,257.67 186.15,257.75 186.90,257.83 187.65,257.90 188.40,257.97 189.15,258.04 189.90,258.10 190.65,258.17 191.40,258.23 192.15,258.28 192.90,258.33 193.65,258.38 194.40,258.43 195.16,258.47 195.91,258.51 196.66,258.54 197.41,258.58 198.16,258.60 198.91,258.63 199.66,258.64 200.41,258.66 201.16,258.67 201.91,258.68 202.66,258.68 203.41,258.67 204.16,258.67 204.91,258.65 205.67,258.64 206.42,258.61 207.17,258.59 207.92,258.55 208.67,258.51 209.42,258.47 210.17,258.42 210.92,258.37 211.67,258.31 212.42,258.24 213.17,258.17 213.92,258.09 214.67,258.01 215.43,257.92 216.18,257.82 216.93,257.72 217.68,257.61 218.43,257.50 219.18,257.37 219.93,257.25 220.68,257.11 221.43,256.97 222.18,256.82 222.93,256.66 223.68,256.50 224.43,256.33 225.18,256.15 225.94,255.96 226.69,255.77 227.44,255.57 228.19,255.36 228.94,255.14 229.69,254.92 230.44,254.68 231.19,254.44 231.94,254.19 232.69,253.94 233.44,253.67 234.19,253.40 234.94,253.12 235.70,252.82 236.45,252.52 237.20,252.22 237.95,251.90 238.70,251.57 239.45,251.24 240.20,250.89 240.95,250.54 241.70,250.18 242.45,249.81 243.20,249.42 243.95,249.03 244.70,248.63 245.45,248.22 246.21,247.80 246.96,247.38 247.71,246.94 248.46,246.49 249.21,246.03 249.96,245.56 250.71,245.09 251.46,244.60 252.21,244.10 252.96,243.59 253.71,243.07 254.46,242.55 255.21,242.01 255.96,241.46 256.72,240.90 257.47,240.33 258.22,239.75 258.97,239.16 259.72,238.56 260.47,237.95 261.22,237.33 261.97,236.70 262.72,236.06 263.47,235.40 264.22,234.74 264.97,234.07 265.72,233.38 266.48,232.69 267.23,231.98 267.98,231.27 268.73,230.54 269.48,229.81 270.23,229.06 270.98,228.30 271.73,227.53 272.48,226.76 273.23,225.97 273.98,225.17 274.73,224.36 275.48,223.54 276.23,222.71 276.99,221.87 277.74,221.01 278.49,220.15 279.24,219.28 279.99,218.40 280.74,217.51 281.49,216.60 282.24,215.69 282.99,214.77 283.74,213.84 284.49,212.90 285.24,211.94 285.99,210.98 286.74,210.01 287.50,209.03 288.25,208.04 289.00,207.04 289.75,206.03 290.50,205.01 291.25,203.98 292.00,202.95 292.75,201.90 293.50,200.84 294.25,199.78 295.00,198.71 295.75,197.63 296.50,196.54 297.26,195.44 298.01,194.33 298.76,193.22 299.51,192.09 300.26,190.96 301.01,189.82 301.76,188.67 302.51,187.52 303.26,186.36 304.01,185.19 304.76,184.01 305.51,182.83 306.26,181.64 307.01,180.44 307.77,179.24 308.52,178.02 309.27,176.81 310.02,175.58 310.77,174.35 311.52,173.12 312.27,171.88 313.02,170.63 313.77,169.38 314.52,168.12 315.27,166.86 316.02,165.59 316.77,164.32 317.52,163.04 318.28,161.76 319.03,160.47 319.78,159.19 320.53,157.89 321.28,156.60 322.03,155.29 322.78,153.99 323.53,152.68 324.28,151.37 325.03,150.06 325.78,148.75 326.53,147.43 327.28,146.11 328.04,144.79 328.79,143.47 329.54,142.14 330.29,140.82 331.04,139.49 331.79,138.16 332.54,136.83 333.29,135.50 334.04,134.18 334.79,132.85 335.54,131.52 336.29,130.19 337.04,128.86 337.79,127.54 338.55,126.21 339.30,124.89 340.05,123.56 340.80,122.24 341.55,120.93 342.30,119.61 343.05,118.30 343.80,116.98 344.55,115.68 345.30,114.37 346.05,113.07 346.80,111.77 347.55,110.48 348.30,109.19 349.06,107.90 349.81,106.62 350.56,105.34 351.31,104.07 352.06,102.81 352.81,101.55 353.56,100.29 354.31,99.04 355.06,97.80 355.81,96.56 356.56,95.33 357.31,94.11 358.06,92.89 358.82,91.68 359.57,90.48 360.32,89.29 361.07,88.11 361.82,86.93 362.57,85.76 363.32,84.60 364.07,83.45 364.82,82.31 365.57,81.17 366.32,80.05 367.07,78.94 367.82,77.84 368.57,76.74 369.33,75.66 370.08,74.59 370.83,73.53 371.58,72.48 372.33,71.44 373.08,70.41 373.83,69.40 374.58,68.39 375.33,67.40 376.08,66.42 376.83,65.45 377.58,64.50 378.33,63.56 379.09,62.63 379.84,61.71 380.59,60.81 381.34,59.92 382.09,59.05 382.84,58.19 383.59,57.34 384.34,56.51 385.09,55.69 385.84,54.89 386.59,54.10 387.34,53.33 388.09,52.57 388.84,51.83 389.60,51.10 390.35,50.39 391.10,49.69 391.85,49.01 392.60,48.35 393.35,47.70 394.10,47.07 394.85,46.45 395.60,45.86 396.35,45.27 397.10,44.71 397.85,44.16 398.60,43.63 399.35,43.11 400.11,42.62 400.86,42.14 401.61,41.67 402.36,41.23 403.11,40.80 403.86,40.39 404.61,40.00 405.36,39.63 406.11,39.27 406.86,38.93 407.61,38.61 408.36,38.31 409.11,38.03 409.87,37.76 410.62,37.52 411.37,37.29 412.12,37.08 412.87,36.89 413.62,36.72 414.37,36.56 415.12,36.43 415.87,36.31 416.62,36.21 417.37,36.13 418.12,36.07 418.87,36.03 419.62,36.01 420.38,36.00 421.13,36.01 421.88,36.05 422.63,36.10 423.38,36.17 424.13,36.26 424.88,36.37 425.63,36.49 426.38,36.64 427.13,36.80 427.88,36.98 428.63,37.18 429.38,37.40 430.13,37.64 430.89,37.89 431.64,38.17 432.39,38.46 433.14,38.77 433.89,39.10 434.64,39.45 435.39,39.81 436.14,40.19 436.89,40.60 437.64,41.01 438.39,41.45 439.14,41.90 439.89,42.37 440.65,42.86 441.40,43.37 442.15,43.89 442.90,44.43 443.65,44.99 444.40,45.56 445.15,46.15 445.90,46.76 446.65,47.38 447.40,48.02 448.15,48.68 448.90,49.35 449.65,50.04 450.40,50.74 451.16,51.46 451.91,52.20 452.66,52.95 453.41,53.71 454.16,54.50 454.91,55.29 455.66,56.10 456.41,56.93 457.16,57.76 457.91,58.62 458.66,59.49 459.41,60.37 460.16,61.26 460.91,62.17 461.67,63.09 462.42,64.03 463.17,64.98 463.92,65.94 464.67,66.91 465.42,67.89 466.17,68.89 466.92,69.90 467.67,70.92 468.42,71.96 469.17,73.00 469.92,74.06 470.67,75.12 471.43,76.20 472.18,77.29 472.93,78.39 473.68,79.49 474.43,80.61 475.18,81.74 475.93,82.88 476.68,84.02 477.43,85.18 478.18,86.34 478.93,87.52 479.68,88.70 480.43,89.89 481.18,91.08 481.94,92.29 482.69,93.50 483.44,94.72 484.19,95.95 484.94,97.18 485.69,98.42 486.44,99.67 487.19,100.92 487.94,102.17 488.69,103.44 489.44,104.71 490.19,105.98 490.94,107.26 491.70,108.54 492.45,109.83 493.20,111.12 493.95,112.42 494.70,113.72 495.45,115.02 496.20,116.33 496.95,117.64 497.70,118.95 498.45,120.27 499.20,121.58 499.95,122.90 500.70,124.23 501.45,125.55 502.21,126.87 502.96,128.20 503.71,129.53 504.46,130.85 505.21,132.18 505.96,133.51 506.71,134.84 507.46,136.17 508.21,137.50 508.96,138.83 509.71,140.15 510.46,141.48 511.21,142.80 511.96,144.13 512.72,145.45 513.47,146.77 514.22,148.09 514.97,149.40 515.72,150.72 516.47,152.03 517.22,153.34 517.97,154.64 518.72,155.95 519.47,157.24 520.22,158.54 520.97,159.83 521.72,161.12 522.48,162.40 523.23,163.68 523.98,164.96 524.73,166.23 525.48,167.49 526.23,168.75 526.98,170.01 527.73,171.26 528.48,172.50 529.23,173.74 529.98,174.97 530.73,176.20 531.48,177.42 532.23,178.63 532.99,179.84 533.74,181.04 534.49,182.23 535.24,183.42 535.99,184.60 536.74,185.77 537.49,186.94 538.24,188.10 538.99,189.25 539.74,190.39 540.49,191.53 541.24,192.65 541.99,193.77 542.74,194.89 543.50,195.99 544.25,197.08 545.00,198.17 545.75,199.25 546.50,200.31 547.25,201.37 548.00,202.42 548.75,203.47 549.50,204.50 550.25,205.52 551.00,206.54 551.75,207.54 552.50,208.54 553.26,209.52 554.01,210.50 554.76,211.46 555.51,212.42 556.26,213.37 557.01,214.31 557.76,215.23 558.51,216.15 559.26,217.06 560.01,217.95 560.76,218.84 561.51,219.72 562.26,220.58 563.01,221.44 563.77,222.29 564.52,223.12 565.27,223.95 566.02,224.76 566.77,225.57 567.52,226.36 568.27,227.15 569.02,227.92 569.77,228.68 570.52,229.43 571.27,230.18 572.02,230.91 572.77,231.63 573.52,232.34 574.28,233.04 575.03,233.73 575.78,234.41 576.53,235.07 577.28,235.73 578.03,236.38 578.78,237.02 579.53,237.64 580.28,238.26 581.03,238.86 581.78,239.46 582.53,240.04 583.28,240.62 584.04,241.18 584.79,241.73 585.54,242.28 586.29,242.81 587.04,243.33 587.79,243.85 588.54,244.35 589.29,244.84 590.04,245.33 590.79,245.80 591.54,246.26 592.29,246.71 593.04,247.16 593.79,247.59 594.55,248.02 595.30,248.43 596.05,248.83 596.80,249.23 597.55,249.62 598.30,249.99 599.05,250.36 599.80,250.72 600.55,251.07 601.30,251.41 602.05,251.74 602.80,252.06 603.55,252.37 604.30,252.68 605.06,252.97 605.81,253.26 606.56,253.54 607.31,253.81 608.06,254.07 608.81,254.32 609.56,254.57 610.31,254.80 611.06,255.03 611.81,255.25 612.56,255.46 613.31,255.67 614.06,255.87 614.82,256.06 615.57,256.24 616.32,256.41 617.07,256.58 617.82,256.74 618.57,256.89 619.32,257.04 620.07,257.18 620.82,257.31 621.57,257.44 622.32,257.56 623.07,257.67 623.82,257.77 624.57,257.87 625.33,257.96 626.08,258.05 626.83,258.13 627.58,258.21 628.33,258.28 629.08,258.34 629.83,258.40 630.58,258.45 631.33,258.49 632.08,258.53 632.83,258.57 633.58,258.60 634.33,258.62 635.09,258.64 635.84,258.66 636.59,258.67 637.34,258.68 638.09,258.68 638.84,258.67 639.59,258.66 640.34,258.65 641.09,258.64 641.84,258.61 642.59,258.59 643.34,258.56 644.09,258.53 644.84,258.49 645.60,258.45 646.35,258.41 647.10,258.36 647.85,258.31 648.60,258.25 649.35,258.20 650.10,258.14 650.85,258.07 651.60,258.00 652.35,257.94 653.10,257.86 653.85,257.79 654.60,257.71 655.35,257.63 656.11,257.55 656.86,257.46 657.61,257.37 658.36,257.28 659.11,257.19 659.86,257.10 660.61,257.00 661.36,256.90 662.11,256.80 662.86,256.70 663.61,256.60 664.36,256.49 665.11,256.39 665.87,256.28 666.62,256.17 667.37,256.06 668.12,255.95 668.87,255.84 669.62,255.72 670.37,255.61 671.12,255.49 671.87,255.37 672.62,255.25 673.37,255.14 674.12,255.02 674.87,254.90 675.62,254.77 676.38,254.65 677.13,254.53 677.88,254.41 678.63,254.29 679.38,254.16 680.13,254.04 680.88,253.91 681.63,253.79 682.38,253.67 683.13,253.54 683.88,253.42 684.63,253.29 685.38,253.17 686.13,253.05 686.89,252.92 687.64,252.80 688.39,252.67 689.14,252.55 689.89,252.43 690.64,252.30 691.39,252.18 692.14,252.06 692.89,251.94 693.64,251.82 694.39,251.70 695.14,251.58 695.89,251.46 696.65,251.34 697.40,251.22 698.15,251.10 698.90,250.99 699.65,250.87 700.40,250.76 701.15,250.64 701.90,250.53 702.65,250.41 703.40,250.30 704.15,250.19 704.90,250.08 705.65,249.97 706.40,249.86 707.16,249.76 707.91,249.65 708.66,249.54 709.41,249.44 710.16,249.34 710.91,249.23 711.66,249.13 712.41,249.03 713.16,248.93 713.91,248.83 714.66,248.74 715.41,248.64 716.16,248.54 716.91,248.45 717.67,248.36 718.42,248.27 719.17,248.18 719.92,248.09 720.67,248.00 721.42,247.91 722.17,247.83 722.92,247.74 723.67,247.66 724.42,247.57 725.17,247.49 725.92,247.41 726.67,247.33 727.43,247.26 728.18,247.18 728.93,247.10 729.68,247.03 730.43,246.96 731.18,246.88 731.93,246.81 732.68,246.74 733.43,246.67 734.18,246.61 734.93,246.54 735.68,246.48 736.43,246.41 737.18,246.35 737.94,246.29 738.69,246.23 739.44,246.17 740.19,246.11 740.94,246.05 741.69,245.99 742.44,245.94 743.19,245.88 743.94,245.83 744.69,245.78 745.44,245.73 746.19,245.68 746.94,245.63 747.70,245.58 748.45,245.53 749.20,245.49 749.95,245.44 750.70,245.40 751.45,245.36 752.20,245.31 752.95,245.27 753.70,245.23 754.45,245.19 755.20,245.15 755.95,245.12 756.70,245.08 757.45,245.04 758.21,245.01 758.96,244.97 759.71,244.94 760.46,244.91 761.21,244.88 761.96,244.84 762.71,244.81 763.46,244.79 764.21,244.76 764.96,244.73 765.71,244.70 766.46,244.67 767.21,244.65 767.96,244.62 768.72,244.60 769.47,244.58 770.22,244.55 770.97,244.53 771.72,244.51 772.47,244.49 773.22,244.47 773.97,244.45 774.72,244.43 775.47,244.41 776.22,244.39 776.97,244.38 777.72,244.36 778.48,244.34 779.23,244.33 779.98,244.31 780.73,244.30 781.48,244.29 782.23,244.27 782.98,244.26 783.73,244.25 784.48,244.23 785.23,244.22 785.98,244.21 786.73,244.20 787.48,244.19 788.23,244.18 788.99,244.17 789.74,244.17 790.49,244.16 791.24,244.15 791.99,244.14 792.74,244.14 793.49,244.13 794.24,244.12 794.99,244.12 795.74,244.11 796.49,244.11 797.24,244.11 797.99,244.10 798.74,244.10 799.50,244.10 800.25,244.09 801.00,244.09 801.75,244.09 802.50,244.09 803.25,244.09 804.00,244.09" />
  <text x="420.0" y="22" text-anchor="middle" font-family="Arial, Helvetica, sans-serif" font-size="15" fill="#102a43">flattop window (time domain)</text>
  <text x="420.0" y="272" text-anchor="middle" font-family="Arial, Helvetica, sans-serif" font-size="12" fill="#334e68">normalized sample index</text>
  <text x="14" y="140.0" transform="rotate(-90 14,140.0)" text-anchor="middle" font-family="Arial, Helvetica, sans-serif" font-size="12" fill="#334e68">amplitude</text>
  <text x="36" y="262" font-family="Arial, Helvetica, sans-serif" font-size="11" fill="#486581">0</text>
  <text x="804" y="262" text-anchor="end" font-family="Arial, Helvetica, sans-serif" font-size="11" fill="#486581">1</text>
  <text x="30" y="40" text-anchor="end" font-family="Arial, Helvetica, sans-serif" font-size="11" fill="#486581">1.0</text>
  <text x="30" y="248" text-anchor="end" font-family="Arial, Helvetica, sans-serif" font-size="11" fill="#486581">0.0</text>
</svg>
