<svg xmlns="http://www.w3.org/2000/svg" width="840" height="280" viewBox="0 0 840 280">
  <rect x="0" y="0" width="840" height="280" fill="#ffffff" />
  <rect x="36" y="36" width="768" height="208" fill="#f7fbff" stroke="#c8d9e6" />
  <polyline fill="none" stroke="#005f73" stroke-width="2" points="36.00,36.00 36.75,40.47 37.50,54.86 38.25,83.64 39.00,191.68 39.75,200.56 40.50,197.72 41.26,197.85 42.01,199.02 42.76,200.55 43.51,202.18 44.26,203.80 45.01,205.38 45.76,206.90 46.51,208.34 47.26,209.72 48.01,194.68 48.76,194.94 49.51,195.25 50.26,195.58 51.01,195.93 51.77,196.29 52.52,196.66 53.27,197.02 54.02,197.39 54.77,197.75 55.52,198.10 56.27,198.45 57.02,198.80 57.77,199.14 58.52,199.47 59.27,199.80 60.02,192.90 60.77,193.19 61.52,193.48 62.28,193.77 63.03,194.04 63.78,194.32 64.53,194.59 65.28,194.85 66.03,195.11 66.78,195.36 67.53,195.61 68.28,195.85 69.03,196.09 69.78,196.33 70.53,196.56 71.28,196.79 72.04,192.59 72.79,192.81 73.54,193.02 74.29,193.23 75.04,193.43 75.79,193.64 76.54,193.83 77.29,194.03 78.04,194.22 78.79,194.41 79.54,194.60 80.29,194.78 81.04,194.96 81.79,195.14 82.55,195.32 83.30,195.49 84.05,192.50 84.80,192.67 85.55,192.83 86.30,192.99 87.05,193.16 87.80,193.31 88.55,193.47 89.30,193.63 90.05,193.78 90.80,193.93 91.55,194.08 92.30,194.22 93.06,194.37 93.81,194.51 94.56,194.65 95.31,194.79 96.06,192.48 96.81,192.61 97.56,192.75 98.31,192.88 99.06,193.01 99.81,193.14 100.56,193.27 101.31,193.40 102.06,193.52 102.82,193.65 103.57,193.77 104.32,193.89 105.07,194.01 105.82,194.13 106.57,194.25 107.32,194.36 108.07,192.49 108.82,192.60 109.57,192.71 110.32,192.82 111.07,192.94 111.82,193.04 112.57,193.15 113.33,193.26 114.08,193.37 114.83,193.47 115.58,193.58 116.33,193.68 117.08,193.78 117.83,193.89 118.58,193.99 119.33,194.09 120.08,192.51 120.83,192.61 121.58,192.71 122.33,192.80 123.09,192.90 123.84,192.99 124.59,193.09 125.34,193.18 126.09,193.27 126.84,193.37 127.59,193.46 128.34,193.55 129.09,193.64 129.84,193.72 130.59,193.81 131.34,193.90 132.09,192.55 132.84,192.64 133.60,192.72 134.35,192.81 135.10,192.89 135.85,192.98 136.60,193.06 137.35,193.14 138.10,193.22 138.85,193.30 139.60,193.38 140.35,193.46 141.10,193.54 141.85,193.62 142.60,193.70 143.35,193.77 144.11,192.60 144.86,192.68 145.61,192.76 146.36,192.83 147.11,192.91 147.86,192.98 148.61,193.05 149.36,193.13 150.11,193.20 150.86,193.27 151.61,193.34 152.36,193.41 153.11,193.49 153.87,193.56 154.62,193.63 155.37,193.69 156.12,192.66 156.87,192.73 157.62,192.80 158.37,192.87 159.12,192.94 159.87,193.00 160.62,193.07 161.37,193.13 162.12,193.20 162.87,193.27 163.62,193.33 164.38,193.39 165.13,193.46 165.88,193.52 166.63,193.58 167.38,193.65 168.13,192.73 168.88,192.80 169.63,192.86 170.38,192.92 171.13,192.98 171.88,193.04 172.63,193.10 173.38,193.16 174.13,193.22 174.89,193.28 175.64,193.34 176.39,193.40 177.14,193.45 177.89,193.51 178.64,193.57 179.39,193.63 180.14,192.81 180.89,192.87 181.64,192.92 182.39,192.98 183.14,193.04 183.89,193.09 184.65,193.15 185.40,193.20 186.15,193.26 186.90,193.31 187.65,193.36 188.40,193.42 189.15,193.47 189.90,193.52 190.65,193.58 191.40,193.63 192.15,192.90 192.90,192.95 193.65,193.00 194.40,193.05 195.16,193.10 195.91,193.15 196.66,193.20 197.41,193.26 198.16,193.31 198.91,193.36 199.66,193.41 200.41,193.45 201.16,193.50 201.91,193.55 202.66,193.60 203.41,193.65 204.16,192.99 204.91,193.04 205.67,193.09 206.42,193.13 207.17,193.18 207.92,193.23 208.67,193.27 209.42,193.32 210.17,193.37 210.92,193.41 211.67,193.46 212.42,193.51 213.17,193.55 213.92,193.60 214.67,193.64 215.43,193.69 216.18,193.09 216.93,193.14 217.68,193.18 218.43,193.22 219.18,193.27 219.93,193.31 220.68,193.36 221.43,193.40 222.18,193.44 222.93,193.49 223.68,193.53 224.43,193.57 225.18,193.61 225.94,193.66 226.69,193.70 227.44,193.74 228.19,193.20 228.94,193.24 229.69,193.28 230.44,193.32 231.19,193.37 231.94,193.41 232.69,193.45 233.44,193.49 234.19,193.53 234.94,193.57 235.70,193.61 236.45,193.65 237.20,193.69 237.95,193.73 238.70,193.77 239.45,193.81 240.20,193.32 240.95,193.36 241.70,193.40 242.45,193.43 243.20,193.47 243.95,193.51 244.70,193.55 245.45,193.59 246.21,193.62 246.96,193.66 247.71,193.70 248.46,193.74 249.21,193.77 249.96,193.81 250.71,193.85 251.46,193.88 252.21,193.44 252.96,193.48 253.71,193.52 254.46,193.55 255.21,193.59 255.96,193.63 256.72,193.66 257.47,193.70 258.22,193.73 258.97,193.77 259.72,193.80 260.47,193.84 261.22,193.87 261.97,193.91 262.72,193.94 263.47,193.98 264.22,193.58 264.97,193.61 265.72,193.65 266.48,193.68 267.23,193.71 267.98,193.75 268.73,193.78 269.48,193.82 270.23,193.85 270.98,193.88 271.73,193.92 272.48,193.95 273.23,193.98 273.98,194.01 274.73,194.05 275.48,194.08 276.23,193.72 276.99,193.75 277.74,193.79 278.49,193.82 279.24,193.85 279.99,193.88 280.74,193.91 281.49,193.95 282.24,193.98 282.99,194.01 283.74,194.04 284.49,194.07 285.24,194.10 285.99,194.13 286.74,194.16 287.50,194.19 288.25,193.87 289.00,193.90 289.75,193.93 290.50,193.96 291.25,193.99 292.00,194.02 292.75,194.05 293.50,194.08 294.25,194.11 295.00,194.14 295.75,194.17 296.50,194.20 297.26,194.23 298.01,194.26 298.76,194.29 299.51,194.32 300.26,194.03 301.01,194.06 301.76,194.09 302.51,194.12 303.26,194.15 304.01,194.18 304.76,194.21 305.51,194.23 306.26,194.26 307.01,194.29 307.77,194.32 308.52,194.35 309.27,194.37 310.02,194.40 310.77,194.43 311.52,194.46 312.27,194.21 313.02,194.23 313.77,194.26 314.52,194.29 315.27,194.31 316.02,194.34 316.77,194.37 317.52,194.39 318.28,194.42 319.03,194.45 319.78,194.47 320.53,194.50 321.28,194.53 322.03,194.55 322.78,194.58 323.53,194.60 324.28,194.38 325.03,194.41 325.78,194.44 326.53,194.46 327.28,194.49 328.04,194.51 328.79,194.54 329.54,194.56 330.29,194.59 331.04,194.61 331.79,194.64 332.54,194.66 333.29,194.69 334.04,194.71 334.79,194.74 335.54,194.76 336.29,194.57 337.04,194.60 337.79,194.62 338.55,194.65 339.30,194.67 340.05,194.70 340.80,194.72 341.55,194.74 342.30,194.77 343.05,194.79 343.80,194.82 344.55,194.84 345.30,194.86 346.05,194.89 346.80,194.91 347.55,194.93 348.30,194.77 349.06,194.80 349.81,194.82 350.56,194.84 351.31,194.87 352.06,194.89 352.81,194.91 353.56,194.94 354.31,194.96 355.06,194.98 355.81,195.00 356.56,195.03 357.31,195.05 358.06,195.07 358.82,195.09 359.57,195.12 360.32,194.99 361.07,195.01 361.82,195.03 362.57,195.05 363.32,195.07 364.07,195.09 364.82,195.12 365.57,195.14 366.32,195.16 367.07,195.18 367.82,195.20 368.57,195.22 369.33,195.25 370.08,195.27 370.83,195.29 371.58,195.31 372.33,195.21 373.08,195.23 373.83,195.25 374.58,195.27 375.33,195.29 376.08,195.31 376.83,195.33 377.58,195.35 378.33,195.37 379.09,195.39 379.84,195.41 380.59,195.43 381.34,195.45 382.09,195.47 382.84,195.49 383.59,195.52 384.34,195.44 385.09,195.46 385.84,195.48 386.59,195.50 387.34,195.52 388.09,195.54 388.84,195.56 389.60,195.58 390.35,195.60 391.10,195.62 391.85,195.64 392.60,195.66 393.35,195.68 394.10,195.69 394.85,195.71 395.60,195.73 396.35,195.68 397.10,195.70 397.85,195.72 398.60,195.74 399.35,195.76 400.11,195.78 400.86,195.80 401.61,195.82 402.36,195.83 403.11,195.85 403.86,195.87 404.61,195.89 405.36,195.91 406.11,195.93 406.86,195.95 407.61,195.96 408.36,195.94 409.11,195.96 409.87,195.98 410.62,196.00 411.37,196.01 412.12,196.03 412.87,196.05 413.62,196.07 414.37,196.08 415.12,196.10 415.87,196.12 416.62,196.14 417.37,196.16 418.12,196.17 418.87,196.19 419.62,196.21 420.38,196.21 421.13,196.23 421.88,196.25 422.63,196.26 423.38,196.28 424.13,196.30 424.88,196.31 425.63,196.33 426.38,196.35 427.13,196.36 427.88,196.38 428.63,196.40 429.38,196.42 430.13,196.43 430.89,196.45 431.64,196.46 432.39,196.50 433.14,196.51 433.89,196.53 434.64,196.54 435.39,196.56 436.14,196.58 436.89,196.59 437.64,196.61 438.39,196.63 439.14,196.64 439.89,196.66 440.65,196.67 441.40,196.69 442.15,196.70 442.90,196.72 443.65,196.74 444.40,196.79 445.15,196.81 445.90,196.82 446.65,196.84 447.40,196.86 448.15,196.87 448.90,196.89 449.65,196.90 450.40,196.92 451.16,196.93 451.91,196.95 452.66,196.96 453.41,196.98 454.16,196.99 454.91,197.01 455.66,197.02 456.41,197.11 457.16,197.12 457.91,197.14 458.66,197.15 459.41,197.17 460.16,197.18 460.91,197.20 461.67,197.21 462.42,197.22 463.17,197.24 463.92,197.25 464.67,197.27 465.42,197.28 466.17,197.30 466.92,197.31 467.67,197.32 468.42,197.44 469.17,197.45 469.92,197.46 470.67,197.48 471.43,197.49 472.18,197.51 472.93,197.52 473.68,197.53 474.43,197.55 475.18,197.56 475.93,197.58 476.68,197.59 477.43,197.60 478.18,197.62 478.93,197.63 479.68,197.64 480.43,197.78 481.18,197.80 481.94,197.81 482.69,197.82 483.44,197.84 484.19,197.85 484.94,197.86 485.69,197.87 486.44,197.89 487.19,197.90 487.94,197.91 488.69,197.93 489.44,197.94 490.19,197.95 490.94,197.97 491.70,197.98 492.45,198.15 493.20,198.16 493.95,198.17 494.70,198.18 495.45,198.20 496.20,198.21 496.95,198.22 497.70,198.23 498.45,198.25 499.20,198.26 499.95,198.27 500.70,198.28 501.45,198.30 502.21,198.31 502.96,198.32 503.71,198.33 504.46,198.53 505.21,198.54 505.96,198.55 506.71,198.57 507.46,198.58 508.21,198.59 508.96,198.60 509.71,198.61 510.46,198.62 511.21,198.64 511.96,198.65 512.72,198.66 513.47,198.67 514.22,198.68 514.97,198.70 515.72,198.71 516.47,198.93 517.22,198.94 517.97,198.96 518.72,198.97 519.47,198.98 520.22,198.99 520.97,199.00 521.72,199.01 522.48,199.02 523.23,199.03 523.98,199.05 524.73,199.06 525.48,199.07 526.23,199.08 526.98,199.09 527.73,199.10 528.48,199.36 529.23,199.37 529.98,199.38 530.73,199.39 531.48,199.40 532.23,199.41 532.99,199.42 533.74,199.43 534.49,199.44 535.24,199.46 535.99,199.47 536.74,199.48 537.49,199.49 538.24,199.50 538.99,199.51 539.74,199.52 540.49,199.81 541.24,199.82 541.99,199.83 542.74,199.84 543.50,199.85 544.25,199.86 545.00,199.87 545.75,199.88 546.50,199.89 547.25,199.90 548.00,199.91 548.75,199.92 549.50,199.93 550.25,199.94 551.00,199.95 551.75,199.96 552.50,200.28 553.26,200.29 554.01,200.30 554.76,200.31 555.51,200.32 556.26,200.33 557.01,200.34 557.76,200.35 558.51,200.36 559.26,200.37 560.01,200.38 560.76,200.39 561.51,200.40 562.26,200.41 563.01,200.42 563.77,200.43 564.52,200.79 565.27,200.80 566.02,200.81 566.77,200.81 567.52,200.82 568.27,200.83 569.02,200.84 569.77,200.85 570.52,200.86 571.27,200.87 572.02,200.88 572.77,200.89 573.52,200.89 574.28,200.90 575.03,200.91 575.78,200.92 576.53,201.32 577.28,201.33 578.03,201.34 578.78,201.35 579.53,201.36 580.28,201.36 581.03,201.37 581.78,201.38 582.53,201.39 583.28,201.40 584.04,201.41 584.79,201.41 585.54,201.42 586.29,201.43 587.04,201.44 587.79,201.45 588.54,201.89 589.29,201.90 590.04,201.90 590.79,201.91 591.54,201.92 592.29,201.93 593.04,201.94 593.79,201.94 594.55,201.95 595.30,201.96 596.05,201.97 596.80,201.98 597.55,201.98 598.30,201.99 599.05,202.00 599.80,202.01 600.55,202.49 601.30,202.50 602.05,202.51 602.80,202.52 603.55,202.52 604.30,202.53 605.06,202.54 605.81,202.55 606.56,202.55 607.31,202.56 608.06,202.57 608.81,202.58 609.56,202.58 610.31,202.59 611.06,202.60 611.81,202.60 612.56,203.14 613.31,203.15 614.06,203.15 614.82,203.16 615.57,203.17 616.32,203.18 617.07,203.18 617.82,203.19 618.57,203.20 619.32,203.20 620.07,203.21 620.82,203.22 621.57,203.22 622.32,203.23 623.07,203.24 623.82,203.24 624.57,203.83 625.33,203.84 626.08,203.85 626.83,203.85 627.58,203.86 628.33,203.87 629.08,203.87 629.83,203.88 630.58,203.88 631.33,203.89 632.08,203.90 632.83,203.90 633.58,203.91 634.33,203.92 635.09,203.92 635.84,203.93 636.59,204.58 637.34,204.58 638.09,204.59 638.84,204.60 639.59,204.60 640.34,204.61 641.09,204.61 641.84,204.62 642.59,204.63 643.34,204.63 644.09,204.64 644.84,204.64 645.60,204.65 646.35,204.66 647.10,204.66 647.85,204.67 648.60,205.38 649.35,205.39 650.10,205.40 650.85,205.40 651.60,205.41 652.35,205.41 653.10,205.42 653.85,205.42 654.60,205.43 655.35,205.43 656.11,205.44 656.86,205.44 657.61,205.45 658.36,205.46 659.11,205.46 659.86,205.47 660.61,206.26 661.36,206.26 662.11,206.27 662.86,206.27 663.61,206.28 664.36,206.28 665.11,206.29 665.87,206.29 666.62,206.30 667.37,206.30 668.12,206.31 668.87,206.31 669.62,206.32 670.37,206.32 671.12,206.33 671.87,206.33 672.62,207.21 673.37,207.22 674.12,207.22 674.87,207.23 675.62,207.23 676.38,207.24 677.13,207.24 677.88,207.25 678.63,207.25 679.38,207.26 680.13,207.26 680.88,207.27 681.63,207.27 682.38,207.27 683.13,207.28 683.88,207.28 684.63,208.27 685.38,208.27 686.13,208.28 686.89,208.28 687.64,208.28 688.39,208.29 689.14,208.29 689.89,208.30 690.64,208.30 691.39,208.30 692.14,208.31 692.89,208.31 693.64,208.32 694.39,208.32 695.14,208.32 695.89,208.33 696.65,209.43 697.40,209.44 698.15,209.44 698.90,209.45 699.65,209.45 700.40,209.45 701.15,209.46 701.90,209.46 702.65,209.46 703.40,209.47 704.15,209.47 704.90,209.48 705.65,209.48 706.40,209.48 707.16,209.49 707.91,209.49 708.66,210.74 709.41,210.75 710.16,210.75 710.91,210.76 711.66,210.76 712.41,210.76 713.16,210.76 713.91,210.77 714.66,210.77 715.41,210.77 716.16,210.78 716.91,210.78 717.67,210.78 718.42,210.79 719.17,210.79 719.92,210.79 720.67,212.24 721.42,212.24 722.17,212.24 722.92,212.24 723.67,212.25 724.42,212.25 725.17,212.25 725.92,212.26 726.67,212.26 727.43,212.26 728.18,212.26 728.93,212.27 729.68,212.27 730.43,212.27 731.18,212.27 731.93,212.28 732.68,213.96 733.43,213.96 734.18,213.97 734.93,213.97 735.68,213.97 736.43,213.97 737.18,213.98 737.94,213.98 738.69,213.98 739.44,213.98 740.19,213.98 740.94,213.99 741.69,213.99 742.44,213.99 743.19,213.99 743.94,214.00 744.69,216.01 745.44,216.01 746.19,216.01 746.94,216.01 747.70,216.01 748.45,216.02 749.20,216.02 749.95,216.02 750.70,216.02 751.45,216.02 752.20,216.03 752.95,216.03 753.70,216.03 754.45,216.03 755.20,216.03 755.95,216.04 756.70,218.52 757.45,218.52 758.21,218.52 758.96,218.52 759.71,218.52 760.46,218.52 761.21,218.53 761.96,218.53 762.71,218.53 763.46,218.53 764.21,218.53 764.96,218.53 765.71,218.53 766.46,218.54 767.21,218.54 767.96,218.54 768.72,221.76 769.47,221.76 770.22,221.76 770.97,221.76 771.72,221.76 772.47,221.76 773.22,221.76 773.97,221.76 774.72,221.76 775.47,221.77 776.22,221.77 776.97,221.77 777.72,221.77 778.48,221.77 779.23,221.77 779.98,221.77 780.73,226.33 781.48,226.33 782.23,226.33 782.98,226.33 783.73,226.33 784.48,226.33 785.23,226.33 785.98,226.33 786.73,226.33 787.48,226.33 788.23,226.33 788.99,226.34 789.74,226.34 790.49,226.34 791.24,226.34 791.99,226.34 792.74,234.15 793.49,234.15 794.24,234.15 794.99,234.15 795.74,234.15 796.49,234.15 797.24,234.15 797.99,234.15 798.74,234.15 799.50,234.15 800.25,234.15 801.00,234.15 801.75,234.15 802.50,234.15 803.25,234.15 804.00,244.00" />
  <text x="420.0" y="22" text-anchor="middle" font-family="Arial, Helvetica, sans-serif" font-size="15" fill="#102a43">nuttall window (magnitude spectrum)</text>
  <text x="420.0" y="272" text-anchor="middle" font-family="Arial, Helvetica, sans-serif" font-size="12" fill="#334e68">normalized frequency</text>
  <text x="14" y="140.0" transform="rotate(-90 14,140.0)" text-anchor="middle" font-family="Arial, Helvetica, sans-serif" font-size="12" fill="#334e68">magnitude (dB)</text>
  <text x="36" y="262" font-family="Arial, Helvetica, sans-serif" font-size="11" fill="#486581">0</text>
  <text x="804" y="262" text-anchor="end" font-family="Arial, Helvetica, sans-serif" font-size="11" fill="#486581">1</text>
  <text x="30" y="40" text-anchor="end" font-family="Arial, Helvetica, sans-serif" font-size="11" fill="#486581">0.0</text>
  <text x="30" y="248" text-anchor="end" font-family="Arial, Helvetica, sans-serif" font-size="11" fill="#486581">-160.0</text>
</svg>
