<svg xmlns="http://www.w3.org/2000/svg" width="840" height="280" viewBox="0 0 840 280">
  <rect x="0" y="0" width="840" height="280" fill="#ffffff" />
  <rect x="36" y="36" width="768" height="208" fill="#f7fbff" stroke="#c8d9e6" />
  <polyline fill="none" stroke="#005f73" stroke-width="2" points="36.00,243.92 36.75,243.92 37.50,243.92 38.25,243.92 39.00,243.92 39.75,243.92 40.50,243.92 41.26,243.92 42.01,243.91 42.76,243.91 43.51,243.91 44.26,243.91 45.01,243.90 45.76,243.90 46.51,243.89 47.26,243.89 48.01,243.89 48.76,243.88 49.51,243.87 50.26,243.87 51.01,243.86 51.77,243.86 52.52,243.85 53.27,243.84 54.02,243.83 54.77,243.83 55.52,243.82 56.27,243.81 57.02,243.80 57.77,243.79 58.52,243.78 59.27,243.77 60.02,243.76 60.77,243.75 61.52,243.74 62.28,243.72 63.03,243.71 63.78,243.70 64.53,243.68 65.28,243.67 66.03,243.66 66.78,243.64 67.53,243.63 68.28,243.61 69.03,243.59 69.78,243.58 70.53,243.56 71.28,243.54 72.04,243.52 72.79,243.50 73.54,243.48 74.29,243.46 75.04,243.44 75.79,243.42 76.54,243.40 77.29,243.37 78.04,243.35 78.79,243.33 79.54,243.30 80.29,243.27 81.04,243.25 81.79,243.22 82.55,243.19 83.30,243.16 84.05,243.13 84.80,243.10 85.55,243.07 86.30,243.04 87.05,243.01 87.80,242.97 88.55,242.94 89.30,242.90 90.05,242.87 90.80,242.83 91.55,242.79 92.30,242.75 93.06,242.71 93.81,242.67 94.56,242.63 95.31,242.58 96.06,242.54 96.81,242.49 97.56,242.45 98.31,242.40 99.06,242.35 99.81,242.30 100.56,242.25 101.31,242.20 102.06,242.14 102.82,242.09 103.57,242.03 104.32,241.97 105.07,241.92 105.82,241.86 106.57,241.79 107.32,241.73 108.07,241.67 108.82,241.60 109.57,241.54 110.32,241.47 111.07,241.40 111.82,241.33 112.57,241.25 113.33,241.18 114.08,241.10 114.83,241.03 115.58,240.95 116.33,240.87 117.08,240.78 117.83,240.70 118.58,240.61 119.33,240.53 120.08,240.44 120.83,240.35 121.58,240.25 122.33,240.16 123.09,240.06 123.84,239.96 124.59,239.86 125.34,239.76 126.09,239.66 126.84,239.55 127.59,239.44 128.34,239.33 129.09,239.22 129.84,239.11 130.59,238.99 131.34,238.87 132.09,238.75 132.84,238.63 133.60,238.50 134.35,238.37 135.10,238.24 135.85,238.11 136.60,237.98 137.35,237.84 138.10,237.70 138.85,237.56 139.60,237.42 140.35,237.27 141.10,237.12 141.85,236.97 142.60,236.82 143.35,236.66 144.11,236.50 144.86,236.34 145.61,236.18 146.36,236.01 147.11,235.84 147.86,235.67 148.61,235.50 149.36,235.32 150.11,235.14 150.86,234.95 151.61,234.77 152.36,234.58 153.11,234.39 153.87,234.19 154.62,233.99 155.37,233.79 156.12,233.59 156.87,233.38 157.62,233.17 158.37,232.96 159.12,232.74 159.87,232.53 160.62,232.30 161.37,232.08 162.12,231.85 162.87,231.62 163.62,231.38 164.38,231.14 165.13,230.90 165.88,230.66 166.63,230.41 167.38,230.15 168.13,229.90 168.88,229.64 169.63,229.38 170.38,229.11 171.13,228.84 171.88,228.57 172.63,228.29 173.38,228.01 174.13,227.73 174.89,227.44 175.64,227.15 176.39,226.86 177.14,226.56 177.89,226.26 178.64,225.95 179.39,225.64 180.14,225.33 180.89,225.01 181.64,224.69 182.39,224.37 183.14,224.04 183.89,223.71 184.65,223.37 185.40,223.03 186.15,222.68 186.90,222.34 187.65,221.98 188.40,221.63 189.15,221.27 189.90,220.90 190.65,220.53 191.40,220.16 192.15,219.79 192.90,219.41 193.65,219.02 194.40,218.63 195.16,218.24 195.91,217.84 196.66,217.44 197.41,217.04 198.16,216.63 198.91,216.21 199.66,215.79 200.41,215.37 201.16,214.95 201.91,214.51 202.66,214.08 203.41,213.64 204.16,213.20 204.91,212.75 205.67,212.30 206.42,211.84 207.17,211.38 207.92,210.91 208.67,210.44 209.42,209.97 210.17,209.49 210.92,209.01 211.67,208.52 212.42,208.03 213.17,207.54 213.92,207.04 214.67,206.53 215.43,206.02 216.18,205.51 216.93,204.99 217.68,204.47 218.43,203.95 219.18,203.42 219.93,202.88 220.68,202.34 221.43,201.80 222.18,201.25 222.93,200.70 223.68,200.14 224.43,199.58 225.18,199.02 225.94,198.45 226.69,197.87 227.44,197.30 228.19,196.71 228.94,196.13 229.69,195.54 230.44,194.94 231.19,194.34 231.94,193.74 232.69,193.13 233.44,192.52 234.19,191.90 234.94,191.28 235.70,190.66 236.45,190.03 237.20,189.40 237.95,188.76 238.70,188.12 239.45,187.47 240.20,186.82 240.95,186.17 241.70,185.51 242.45,184.85 243.20,184.19 243.95,183.52 244.70,182.85 245.45,182.17 246.21,181.49 246.96,180.80 247.71,180.11 248.46,179.42 249.21,178.73 249.96,178.03 250.71,177.32 251.46,176.62 252.21,175.90 252.96,175.19 253.71,174.47 254.46,173.75 255.21,173.02 255.96,172.30 256.72,171.56 257.47,170.83 258.22,170.09 258.97,169.35 259.72,168.60 260.47,167.85 261.22,167.10 261.97,166.34 262.72,165.59 263.47,164.82 264.22,164.06 264.97,163.29 265.72,162.52 266.48,161.75 267.23,160.97 267.98,160.19 268.73,159.41 269.48,158.63 270.23,157.84 270.98,157.05 271.73,156.26 272.48,155.46 273.23,154.66 273.98,153.86 274.73,153.06 275.48,152.25 276.23,151.45 276.99,150.64 277.74,149.83 278.49,149.01 279.24,148.20 279.99,147.38 280.74,146.56 281.49,145.74 282.24,144.91 282.99,144.09 283.74,143.26 284.49,142.43 285.24,141.60 285.99,140.77 286.74,139.93 287.50,139.10 288.25,138.26 289.00,137.42 289.75,136.58 290.50,135.74 291.25,134.90 292.00,134.06 292.75,133.22 293.50,132.37 294.25,131.53 295.00,130.68 295.75,129.84 296.50,128.99 297.26,128.14 298.01,127.29 298.76,126.44 299.51,125.59 300.26,124.74 301.01,123.89 301.76,123.04 302.51,122.19 303.26,121.34 304.01,120.49 304.76,119.64 305.51,118.80 306.26,117.95 307.01,117.10 307.77,116.25 308.52,115.40 309.27,114.55 310.02,113.71 310.77,112.86 311.52,112.01 312.27,111.17 313.02,110.33 313.77,109.48 314.52,108.64 315.27,107.80 316.02,106.96 316.77,106.13 317.52,105.29 318.28,104.45 319.03,103.62 319.78,102.79 320.53,101.96 321.28,101.13 322.03,100.31 322.78,99.48 323.53,98.66 324.28,97.84 325.03,97.02 325.78,96.21 326.53,95.39 327.28,94.58 328.04,93.77 328.79,92.97 329.54,92.16 330.29,91.36 331.04,90.57 331.79,89.77 332.54,88.98 333.29,88.19 334.04,87.41 334.79,86.63 335.54,85.85 336.29,85.07 337.04,84.30 337.79,83.53 338.55,82.77 339.30,82.00 340.05,81.25 340.80,80.49 341.55,79.74 342.30,79.00 343.05,78.26 343.80,77.52 344.55,76.79 345.30,76.06 346.05,75.33 346.80,74.61 347.55,73.90 348.30,73.19 349.06,72.48 349.81,71.78 350.56,71.09 351.31,70.39 352.06,69.71 352.81,69.03 353.56,68.35 354.31,67.68 355.06,67.01 355.81,66.35 356.56,65.70 357.31,65.05 358.06,64.40 358.82,63.77 359.57,63.13 360.32,62.51 361.07,61.89 361.82,61.27 362.57,60.66 363.32,60.06 364.07,59.46 364.82,58.87 365.57,58.29 366.32,57.71 367.07,57.14 367.82,56.57 368.57,56.01 369.33,55.46 370.08,54.92 370.83,54.38 371.58,53.84 372.33,53.32 373.08,52.80 373.83,52.29 374.58,51.78 375.33,51.29 376.08,50.80 376.83,50.31 377.58,49.84 378.33,49.37 379.09,48.91 379.84,48.45 380.59,48.01 381.34,47.57 382.09,47.14 382.84,46.71 383.59,46.30 384.34,45.89 385.09,45.49 385.84,45.09 386.59,44.71 387.34,44.33 388.09,43.96 388.84,43.60 389.60,43.24 390.35,42.90 391.10,42.56 391.85,42.23 392.60,41.91 393.35,41.60 394.10,41.29 394.85,40.99 395.60,40.71 396.35,40.43 397.10,40.15 397.85,39.89 398.60,39.64 399.35,39.39 400.11,39.15 400.86,38.92 401.61,38.70 402.36,38.49 403.11,38.28 403.86,38.09 404.61,37.90 405.36,37.72 406.11,37.55 406.86,37.39 407.61,37.24 408.36,37.10 409.11,36.96 409.87,36.84 410.62,36.72 411.37,36.61 412.12,36.51 412.87,36.42 413.62,36.34 414.37,36.27 415.12,36.20 415.87,36.15 416.62,36.10 417.37,36.06 418.12,36.03 418.87,36.01 419.62,36.00 420.38,36.00 421.13,36.01 421.88,36.02 422.63,36.05 423.38,36.08 424.13,36.12 424.88,36.17 425.63,36.23 426.38,36.30 427.13,36.38 427.88,36.47 428.63,36.56 429.38,36.66 430.13,36.78 430.89,36.90 431.64,37.03 432.39,37.17 433.14,37.32 433.89,37.47 434.64,37.64 435.39,37.81 436.14,37.99 436.89,38.18 437.64,38.38 438.39,38.59 439.14,38.81 439.89,39.03 440.65,39.27 441.40,39.51 442.15,39.76 442.90,40.02 443.65,40.29 444.40,40.57 445.15,40.85 445.90,41.14 446.65,41.44 447.40,41.75 448.15,42.07 448.90,42.40 449.65,42.73 450.40,43.07 451.16,43.42 451.91,43.78 452.66,44.14 453.41,44.52 454.16,44.90 454.91,45.29 455.66,45.69 456.41,46.09 457.16,46.50 457.91,46.92 458.66,47.35 459.41,47.79 460.16,48.23 460.91,48.68 461.67,49.14 462.42,49.60 463.17,50.07 463.92,50.55 464.67,51.04 465.42,51.54 466.17,52.04 466.92,52.54 467.67,53.06 468.42,53.58 469.17,54.11 469.92,54.65 470.67,55.19 471.43,55.74 472.18,56.29 472.93,56.85 473.68,57.42 474.43,58.00 475.18,58.58 475.93,59.17 476.68,59.76 477.43,60.36 478.18,60.97 478.93,61.58 479.68,62.20 480.43,62.82 481.18,63.45 481.94,64.08 482.69,64.73 483.44,65.37 484.19,66.02 484.94,66.68 485.69,67.34 486.44,68.01 487.19,68.69 487.94,69.37 488.69,70.05 489.44,70.74 490.19,71.43 490.94,72.13 491.70,72.84 492.45,73.54 493.20,74.26 493.95,74.97 494.70,75.70 495.45,76.42 496.20,77.15 496.95,77.89 497.70,78.63 498.45,79.37 499.20,80.12 499.95,80.87 500.70,81.63 501.45,82.39 502.21,83.15 502.96,83.91 503.71,84.68 504.46,85.46 505.21,86.24 505.96,87.02 506.71,87.80 507.46,88.59 508.21,89.38 508.96,90.17 509.71,90.97 510.46,91.76 511.21,92.57 511.96,93.37 512.72,94.18 513.47,94.99 514.22,95.80 514.97,96.61 515.72,97.43 516.47,98.25 517.22,99.07 517.97,99.89 518.72,100.72 519.47,101.55 520.22,102.37 520.97,103.20 521.72,104.04 522.48,104.87 523.23,105.71 523.98,106.54 524.73,107.38 525.48,108.22 526.23,109.06 526.98,109.90 527.73,110.75 528.48,111.59 529.23,112.44 529.98,113.28 530.73,114.13 531.48,114.98 532.23,115.82 532.99,116.67 533.74,117.52 534.49,118.37 535.24,119.22 535.99,120.07 536.74,120.92 537.49,121.77 538.24,122.62 538.99,123.47 539.74,124.32 540.49,125.17 541.24,126.02 541.99,126.87 542.74,127.72 543.50,128.56 544.25,129.41 545.00,130.26 545.75,131.11 546.50,131.95 547.25,132.80 548.00,133.64 548.75,134.48 549.50,135.32 550.25,136.16 551.00,137.00 551.75,137.84 552.50,138.68 553.26,139.52 554.01,140.35 554.76,141.18 555.51,142.01 556.26,142.84 557.01,143.67 557.76,144.50 558.51,145.32 559.26,146.15 560.01,146.97 560.76,147.79 561.51,148.60 562.26,149.42 563.01,150.23 563.77,151.04 564.52,151.85 565.27,152.66 566.02,153.46 566.77,154.26 567.52,155.06 568.27,155.86 569.02,156.65 569.77,157.44 570.52,158.23 571.27,159.02 572.02,159.80 572.77,160.58 573.52,161.36 574.28,162.14 575.03,162.91 575.78,163.68 576.53,164.44 577.28,165.21 578.03,165.97 578.78,166.72 579.53,167.48 580.28,168.23 581.03,168.97 581.78,169.72 582.53,170.46 583.28,171.20 584.04,171.93 584.79,172.66 585.54,173.39 586.29,174.11 587.04,174.83 587.79,175.55 588.54,176.26 589.29,176.97 590.04,177.67 590.79,178.38 591.54,179.07 592.29,179.77 593.04,180.46 593.79,181.15 594.55,181.83 595.30,182.51 596.05,183.18 596.80,183.85 597.55,184.52 598.30,185.18 599.05,185.84 599.80,186.50 600.55,187.15 601.30,187.80 602.05,188.44 602.80,189.08 603.55,189.71 604.30,190.34 605.06,190.97 605.81,191.59 606.56,192.21 607.31,192.83 608.06,193.44 608.81,194.04 609.56,194.64 610.31,195.24 611.06,195.83 611.81,196.42 612.56,197.01 613.31,197.59 614.06,198.16 614.82,198.73 615.57,199.30 616.32,199.86 617.07,200.42 617.82,200.98 618.57,201.53 619.32,202.07 620.07,202.61 620.82,203.15 621.57,203.68 622.32,204.21 623.07,204.73 623.82,205.25 624.57,205.77 625.33,206.28 626.08,206.79 626.83,207.29 627.58,207.79 628.33,208.28 629.08,208.77 629.83,209.25 630.58,209.73 631.33,210.21 632.08,210.68 632.83,211.15 633.58,211.61 634.33,212.07 635.09,212.52 635.84,212.97 636.59,213.42 637.34,213.86 638.09,214.30 638.84,214.73 639.59,215.16 640.34,215.58 641.09,216.00 641.84,216.42 642.59,216.83 643.34,217.24 644.09,217.64 644.84,218.04 645.60,218.44 646.35,218.83 647.10,219.21 647.85,219.60 648.60,219.97 649.35,220.35 650.10,220.72 650.85,221.09 651.60,221.45 652.35,221.81 653.10,222.16 653.85,222.51 654.60,222.86 655.35,223.20 656.11,223.54 656.86,223.87 657.61,224.20 658.36,224.53 659.11,224.85 659.86,225.17 660.61,225.49 661.36,225.80 662.11,226.11 662.86,226.41 663.61,226.71 664.36,227.01 665.11,227.30 665.87,227.59 666.62,227.87 667.37,228.15 668.12,228.43 668.87,228.71 669.62,228.98 670.37,229.25 671.12,229.51 671.87,229.77 672.62,230.03 673.37,230.28 674.12,230.53 674.87,230.78 675.62,231.02 676.38,231.26 677.13,231.50 677.88,231.73 678.63,231.96 679.38,232.19 680.13,232.41 680.88,232.64 681.63,232.85 682.38,233.07 683.13,233.28 683.88,233.49 684.63,233.69 685.38,233.89 686.13,234.09 686.89,234.29 687.64,234.48 688.39,234.67 689.14,234.86 689.89,235.05 690.64,235.23 691.39,235.41 692.14,235.58 692.89,235.76 693.64,235.93 694.39,236.10 695.14,236.26 695.89,236.42 696.65,236.58 697.40,236.74 698.15,236.90 698.90,237.05 699.65,237.20 700.40,237.35 701.15,237.49 701.90,237.63 702.65,237.77 703.40,237.91 704.15,238.05 704.90,238.18 705.65,238.31 706.40,238.44 707.16,238.56 707.91,238.69 708.66,238.81 709.41,238.93 710.16,239.05 710.91,239.16 711.66,239.28 712.41,239.39 713.16,239.50 713.91,239.60 714.66,239.71 715.41,239.81 716.16,239.91 716.91,240.01 717.67,240.11 718.42,240.21 719.17,240.30 719.92,240.39 720.67,240.48 721.42,240.57 722.17,240.66 722.92,240.74 723.67,240.82 724.42,240.91 725.17,240.99 725.92,241.06 726.67,241.14 727.43,241.22 728.18,241.29 728.93,241.36 729.68,241.43 730.43,241.50 731.18,241.57 731.93,241.64 732.68,241.70 733.43,241.76 734.18,241.83 734.93,241.89 735.68,241.95 736.43,242.00 737.18,242.06 737.94,242.12 738.69,242.17 739.44,242.22 740.19,242.28 740.94,242.33 741.69,242.38 742.44,242.42 743.19,242.47 743.94,242.52 744.69,242.56 745.44,242.61 746.19,242.65 746.94,242.69 747.70,242.73 748.45,242.77 749.20,242.81 749.95,242.85 750.70,242.88 751.45,242.92 752.20,242.96 752.95,242.99 753.70,243.02 754.45,243.06 755.20,243.09 755.95,243.12 756.70,243.15 757.45,243.18 758.21,243.21 758.96,243.23 759.71,243.26 760.46,243.29 761.21,243.31 761.96,243.34 762.71,243.36 763.46,243.39 764.21,243.41 764.96,243.43 765.71,243.45 766.46,243.47 767.21,243.49 767.96,243.51 768.72,243.53 769.47,243.55 770.22,243.57 770.97,243.59 771.72,243.60 772.47,243.62 773.22,243.63 773.97,243.65 774.72,243.66 775.47,243.68 776.22,243.69 776.97,243.71 777.72,243.72 778.48,243.73 779.23,243.74 779.98,243.75 780.73,243.76 781.48,243.78 782.23,243.79 782.98,243.80 783.73,243.80 784.48,243.81 785.23,243.82 785.98,243.83 786.73,243.84 787.48,243.85 788.23,243.85 788.99,243.86 789.74,243.87 790.49,243.87 791.24,243.88 791.99,243.88 792.74,243.89 793.49,243.89 794.24,243.90 794.99,243.90 795.74,243.90 796.49,243.91 797.24,243.91 797.99,243.91 798.74,243.92 799.50,243.92 800.25,243.92 801.00,243.92 801.75,243.92 802.50,243.92 803.25,243.92 804.00,243.92" />
  <text x="420.0" y="22" text-anchor="middle" font-family="Arial, Helvetica, sans-serif" font-size="15" fill="#102a43">nuttall window (time domain)</text>
  <text x="420.0" y="272" text-anchor="middle" font-family="Arial, Helvetica, sans-serif" font-size="12" fill="#334e68">normalized sample index</text>
  <text x="14" y="140.0" transform="rotate(-90 14,140.0)" text-anchor="middle" font-family="Arial, Helvetica, sans-serif" font-size="12" fill="#334e68">amplitude</text>
  <text x="36" y="262" font-family="Arial, Helvetica, sans-serif" font-size="11" fill="#486581">0</text>
  <text x="804" y="262" text-anchor="end" font-family="Arial, Helvetica, sans-serif" font-size="11" fill="#486581">1</text>
  <text x="30" y="40" text-anchor="end" font-family="Arial, Helvetica, sans-serif" font-size="11" fill="#486581">1.0</text>
  <text x="30" y="248" text-anchor="end" font-family="Arial, Helvetica, sans-serif" font-size="11" fill="#486581">0.0</text>
</svg>
