<svg xmlns="http://www.w3.org/2000/svg" width="840" height="280" viewBox="0 0 840 280">
  <rect x="0" y="0" width="840" height="280" fill="#ffffff" />
  <rect x="36" y="36" width="768" height="208" fill="#f7fbff" stroke="#c8d9e6" />
  <polyline fill="none" stroke="#005f73" stroke-width="2" points="36.00,244.00 36.75,244.00 37.50,244.00 38.25,244.00 39.00,244.00 39.75,244.00 40.50,244.00 41.26,244.00 42.01,244.00 42.76,244.00 43.51,244.00 44.26,244.00 45.01,243.99 45.76,243.99 46.51,243.99 47.26,243.99 48.01,243.99 48.76,243.98 49.51,243.98 50.26,243.98 51.01,243.97 51.77,243.97 52.52,243.97 53.27,243.96 54.02,243.96 54.77,243.95 55.52,243.94 56.27,243.94 57.02,243.93 57.77,243.92 58.52,243.91 59.27,243.91 60.02,243.90 60.77,243.89 61.52,243.88 62.28,243.86 63.03,243.85 63.78,243.84 64.53,243.83 65.28,243.81 66.03,243.80 66.78,243.78 67.53,243.77 68.28,243.75 69.03,243.73 69.78,243.71 70.53,243.69 71.28,243.67 72.04,243.65 72.79,243.63 73.54,243.61 74.29,243.58 75.04,243.56 75.79,243.53 76.54,243.51 77.29,243.48 78.04,243.45 78.79,243.42 79.54,243.39 80.29,243.36 81.04,243.32 81.79,243.29 82.55,243.25 83.30,243.22 84.05,243.18 84.80,243.14 85.55,243.10 86.30,243.06 87.05,243.01 87.80,242.97 88.55,242.93 89.30,242.88 90.05,242.83 90.80,242.78 91.55,242.73 92.30,242.68 93.06,242.63 93.81,242.57 94.56,242.51 95.31,242.46 96.06,242.40 96.81,242.34 97.56,242.28 98.31,242.21 99.06,242.15 99.81,242.08 100.56,242.01 101.31,241.94 102.06,241.87 102.82,241.80 103.57,241.72 104.32,241.65 105.07,241.57 105.82,241.49 106.57,241.41 107.32,241.32 108.07,241.24 108.82,241.15 109.57,241.06 110.32,240.97 111.07,240.88 111.82,240.78 112.57,240.69 113.33,240.59 114.08,240.49 114.83,240.39 115.58,240.28 116.33,240.18 117.08,240.07 117.83,239.96 118.58,239.85 119.33,239.73 120.08,239.62 120.83,239.50 121.58,239.38 122.33,239.26 123.09,239.13 123.84,239.00 124.59,238.88 125.34,238.74 126.09,238.61 126.84,238.48 127.59,238.34 128.34,238.20 129.09,238.05 129.84,237.91 130.59,237.76 131.34,237.61 132.09,237.46 132.84,237.31 133.60,237.15 134.35,236.99 135.10,236.83 135.85,236.67 136.60,236.50 137.35,236.33 138.10,236.16 138.85,235.99 139.60,235.81 140.35,235.63 141.10,235.45 141.85,235.27 142.60,235.08 143.35,234.89 144.11,234.70 144.86,234.50 145.61,234.30 146.36,234.10 147.11,233.90 147.86,233.70 148.61,233.49 149.36,233.28 150.11,233.06 150.86,232.84 151.61,232.62 152.36,232.40 153.11,232.18 153.87,231.95 154.62,231.72 155.37,231.48 156.12,231.25 156.87,231.00 157.62,230.76 158.37,230.52 159.12,230.27 159.87,230.01 160.62,229.76 161.37,229.50 162.12,229.24 162.87,228.97 163.62,228.71 164.38,228.43 165.13,228.16 165.88,227.88 166.63,227.60 167.38,227.32 168.13,227.03 168.88,226.74 169.63,226.45 170.38,226.15 171.13,225.85 171.88,225.54 172.63,225.24 173.38,224.93 174.13,224.61 174.89,224.30 175.64,223.98 176.39,223.65 177.14,223.32 177.89,222.99 178.64,222.66 179.39,222.32 180.14,221.98 180.89,221.63 181.64,221.28 182.39,220.93 183.14,220.57 183.89,220.21 184.65,219.85 185.40,219.48 186.15,219.11 186.90,218.74 187.65,218.36 188.40,217.98 189.15,217.59 189.90,217.20 190.65,216.81 191.40,216.41 192.15,216.01 192.90,215.60 193.65,215.19 194.40,214.78 195.16,214.36 195.91,213.94 196.66,213.52 197.41,213.09 198.16,212.66 198.91,212.22 199.66,211.78 200.41,211.33 201.16,210.88 201.91,210.43 202.66,209.97 203.41,209.51 204.16,209.05 204.91,208.58 205.67,208.10 206.42,207.63 207.17,207.14 207.92,206.66 208.67,206.17 209.42,205.67 210.17,205.17 210.92,204.67 211.67,204.16 212.42,203.65 213.17,203.13 213.92,202.61 214.67,202.08 215.43,201.55 216.18,201.02 216.93,200.48 217.68,199.94 218.43,199.39 219.18,198.84 219.93,198.28 220.68,197.72 221.43,197.15 222.18,196.58 222.93,196.01 223.68,195.43 224.43,194.84 225.18,194.25 225.94,193.66 226.69,193.06 227.44,192.46 228.19,191.85 228.94,191.23 229.69,190.62 230.44,189.99 231.19,189.37 231.94,188.74 232.69,188.10 233.44,187.46 234.19,186.82 234.94,186.17 235.70,185.51 236.45,184.86 237.20,184.20 237.95,183.53 238.70,182.86 239.45,182.19 240.20,181.51 240.95,180.83 241.70,180.14 242.45,179.45 243.20,178.76 243.95,178.07 244.70,177.37 245.45,176.66 246.21,175.96 246.96,175.25 247.71,174.53 248.46,173.82 249.21,173.10 249.96,172.37 250.71,171.65 251.46,170.92 252.21,170.18 252.96,169.45 253.71,168.71 254.46,167.97 255.21,167.23 255.96,166.48 256.72,165.73 257.47,164.98 258.22,164.22 258.97,163.47 259.72,162.71 260.47,161.94 261.22,161.18 261.97,160.41 262.72,159.64 263.47,158.87 264.22,158.10 264.97,157.33 265.72,156.55 266.48,155.77 267.23,154.99 267.98,154.21 268.73,153.42 269.48,152.63 270.23,151.85 270.98,151.06 271.73,150.26 272.48,149.47 273.23,148.68 273.98,147.88 274.73,147.09 275.48,146.29 276.23,145.49 276.99,144.69 277.74,143.89 278.49,143.08 279.24,142.28 279.99,141.47 280.74,140.67 281.49,139.86 282.24,139.05 282.99,138.25 283.74,137.44 284.49,136.63 285.24,135.82 285.99,135.01 286.74,134.20 287.50,133.39 288.25,132.57 289.00,131.76 289.75,130.95 290.50,130.14 291.25,129.32 292.00,128.51 292.75,127.70 293.50,126.89 294.25,126.07 295.00,125.26 295.75,124.45 296.50,123.64 297.26,122.83 298.01,122.02 298.76,121.21 299.51,120.40 300.26,119.59 301.01,118.78 301.76,117.97 302.51,117.16 303.26,116.36 304.01,115.55 304.76,114.74 305.51,113.94 306.26,113.14 307.01,112.34 307.77,111.53 308.52,110.74 309.27,109.94 310.02,109.14 310.77,108.34 311.52,107.55 312.27,106.76 313.02,105.96 313.77,105.17 314.52,104.39 315.27,103.60 316.02,102.81 316.77,102.03 317.52,101.25 318.28,100.47 319.03,99.69 319.78,98.92 320.53,98.14 321.28,97.37 322.03,96.60 322.78,95.84 323.53,95.07 324.28,94.31 325.03,93.55 325.78,92.79 326.53,92.04 327.28,91.28 328.04,90.54 328.79,89.79 329.54,89.04 330.29,88.30 331.04,87.56 331.79,86.83 332.54,86.09 333.29,85.36 334.04,84.64 334.79,83.91 335.54,83.19 336.29,82.48 337.04,81.76 337.79,81.05 338.55,80.34 339.30,79.64 340.05,78.94 340.80,78.24 341.55,77.55 342.30,76.86 343.05,76.18 343.80,75.49 344.55,74.82 345.30,74.14 346.05,73.47 346.80,72.80 347.55,72.14 348.30,71.48 349.06,70.83 349.81,70.18 350.56,69.54 351.31,68.89 352.06,68.26 352.81,67.63 353.56,67.00 354.31,66.38 355.06,65.76 355.81,65.14 356.56,64.53 357.31,63.93 358.06,63.33 358.82,62.74 359.57,62.15 360.32,61.56 361.07,60.98 361.82,60.41 362.57,59.84 363.32,59.28 364.07,58.72 364.82,58.16 365.57,57.62 366.32,57.07 367.07,56.54 367.82,56.01 368.57,55.48 369.33,54.96 370.08,54.45 370.83,53.94 371.58,53.44 372.33,52.94 373.08,52.45 373.83,51.96 374.58,51.49 375.33,51.01 376.08,50.55 376.83,50.09 377.58,49.63 378.33,49.19 379.09,48.74 379.84,48.31 380.59,47.88 381.34,47.46 382.09,47.05 382.84,46.64 383.59,46.24 384.34,45.84 385.09,45.45 385.84,45.07 386.59,44.70 387.34,44.33 388.09,43.97 388.84,43.62 389.60,43.28 390.35,42.94 391.10,42.61 391.85,42.28 392.60,41.97 393.35,41.66 394.10,41.36 394.85,41.07 395.60,40.78 396.35,40.50 397.10,40.23 397.85,39.97 398.60,39.71 399.35,39.47 400.11,39.23 400.86,39.00 401.61,38.78 402.36,38.56 403.11,38.35 403.86,38.16 404.61,37.97 405.36,37.79 406.11,37.61 406.86,37.45 407.61,37.29 408.36,37.14 409.11,37.01 409.87,36.88 410.62,36.75 411.37,36.64 412.12,36.54 412.87,36.44 413.62,36.36 414.37,36.28 415.12,36.21 415.87,36.16 416.62,36.11 417.37,36.07 418.12,36.04 418.87,36.01 419.62,36.00 420.38,36.00 421.13,36.01 421.88,36.02 422.63,36.05 423.38,36.09 424.13,36.13 424.88,36.18 425.63,36.25 426.38,36.32 427.13,36.40 427.88,36.49 428.63,36.59 429.38,36.70 430.13,36.81 430.89,36.94 431.64,37.07 432.39,37.22 433.14,37.37 433.89,37.53 434.64,37.70 435.39,37.87 436.14,38.06 436.89,38.25 437.64,38.46 438.39,38.67 439.14,38.89 439.89,39.11 440.65,39.35 441.40,39.59 442.15,39.84 442.90,40.10 443.65,40.37 444.40,40.64 445.15,40.92 445.90,41.21 446.65,41.51 447.40,41.81 448.15,42.13 448.90,42.44 449.65,42.77 450.40,43.11 451.16,43.45 451.91,43.80 452.66,44.15 453.41,44.52 454.16,44.89 454.91,45.26 455.66,45.65 456.41,46.04 457.16,46.44 457.91,46.84 458.66,47.25 459.41,47.67 460.16,48.10 460.91,48.53 461.67,48.96 462.42,49.41 463.17,49.86 463.92,50.32 464.67,50.78 465.42,51.25 466.17,51.72 466.92,52.21 467.67,52.69 468.42,53.19 469.17,53.69 469.92,54.19 470.67,54.70 471.43,55.22 472.18,55.74 472.93,56.27 473.68,56.80 474.43,57.34 475.18,57.89 475.93,58.44 476.68,59.00 477.43,59.56 478.18,60.12 478.93,60.70 479.68,61.27 480.43,61.85 481.18,62.44 481.94,63.03 482.69,63.63 483.44,64.23 484.19,64.84 484.94,65.45 485.69,66.07 486.44,66.69 487.19,67.31 487.94,67.94 488.69,68.58 489.44,69.21 490.19,69.86 490.94,70.51 491.70,71.16 492.45,71.81 493.20,72.47 493.95,73.14 494.70,73.81 495.45,74.48 496.20,75.15 496.95,75.83 497.70,76.52 498.45,77.21 499.20,77.90 499.95,78.59 500.70,79.29 501.45,79.99 502.21,80.70 502.96,81.41 503.71,82.12 504.46,82.83 505.21,83.55 505.96,84.28 506.71,85.00 507.46,85.73 508.21,86.46 508.96,87.20 509.71,87.93 510.46,88.67 511.21,89.42 511.96,90.16 512.72,90.91 513.47,91.66 514.22,92.41 514.97,93.17 515.72,93.93 516.47,94.69 517.22,95.45 517.97,96.22 518.72,96.99 519.47,97.76 520.22,98.53 520.97,99.30 521.72,100.08 522.48,100.86 523.23,101.64 523.98,102.42 524.73,103.21 525.48,103.99 526.23,104.78 526.98,105.57 527.73,106.36 528.48,107.15 529.23,107.95 529.98,108.74 530.73,109.54 531.48,110.34 532.23,111.13 532.99,111.94 533.74,112.74 534.49,113.54 535.24,114.34 535.99,115.15 536.74,115.95 537.49,116.76 538.24,117.57 538.99,118.37 539.74,119.18 540.49,119.99 541.24,120.80 541.99,121.61 542.74,122.42 543.50,123.23 544.25,124.04 545.00,124.86 545.75,125.67 546.50,126.48 547.25,127.29 548.00,128.11 548.75,128.92 549.50,129.73 550.25,130.54 551.00,131.36 551.75,132.17 552.50,132.98 553.26,133.79 554.01,134.60 554.76,135.41 555.51,136.22 556.26,137.03 557.01,137.84 557.76,138.65 558.51,139.46 559.26,140.26 560.01,141.07 560.76,141.88 561.51,142.68 562.26,143.48 563.01,144.29 563.77,145.09 564.52,145.89 565.27,146.69 566.02,147.48 566.77,148.28 567.52,149.08 568.27,149.87 569.02,150.66 569.77,151.45 570.52,152.24 571.27,153.03 572.02,153.81 572.77,154.60 573.52,155.38 574.28,156.16 575.03,156.94 575.78,157.71 576.53,158.49 577.28,159.26 578.03,160.03 578.78,160.80 579.53,161.56 580.28,162.33 581.03,163.09 581.78,163.84 582.53,164.60 583.28,165.35 584.04,166.10 584.79,166.85 585.54,167.60 586.29,168.34 587.04,169.08 587.79,169.82 588.54,170.55 589.29,171.28 590.04,172.01 590.79,172.73 591.54,173.46 592.29,174.17 593.04,174.89 593.79,175.60 594.55,176.31 595.30,177.01 596.05,177.72 596.80,178.41 597.55,179.11 598.30,179.80 599.05,180.49 599.80,181.17 600.55,181.85 601.30,182.52 602.05,183.20 602.80,183.86 603.55,184.53 604.30,185.19 605.06,185.84 605.81,186.49 606.56,187.14 607.31,187.78 608.06,188.42 608.81,189.05 609.56,189.68 610.31,190.31 611.06,190.93 611.81,191.54 612.56,192.15 613.31,192.76 614.06,193.36 614.82,193.96 615.57,194.55 616.32,195.13 617.07,195.72 617.82,196.29 618.57,196.87 619.32,197.44 620.07,198.00 620.82,198.56 621.57,199.11 622.32,199.66 623.07,200.21 623.82,200.75 624.57,201.29 625.33,201.82 626.08,202.35 626.83,202.87 627.58,203.39 628.33,203.90 629.08,204.41 629.83,204.92 630.58,205.42 631.33,205.92 632.08,206.41 632.83,206.90 633.58,207.39 634.33,207.87 635.09,208.34 635.84,208.81 636.59,209.28 637.34,209.74 638.09,210.20 638.84,210.66 639.59,211.11 640.34,211.56 641.09,212.00 641.84,212.44 642.59,212.87 643.34,213.30 644.09,213.73 644.84,214.15 645.60,214.57 646.35,214.99 647.10,215.40 647.85,215.81 648.60,216.21 649.35,216.61 650.10,217.00 650.85,217.40 651.60,217.78 652.35,218.17 653.10,218.55 653.85,218.92 654.60,219.30 655.35,219.67 656.11,220.03 656.86,220.39 657.61,220.75 658.36,221.11 659.11,221.46 659.86,221.80 660.61,222.15 661.36,222.49 662.11,222.82 662.86,223.16 663.61,223.49 664.36,223.81 665.11,224.14 665.87,224.45 666.62,224.77 667.37,225.08 668.12,225.39 668.87,225.70 669.62,226.00 670.37,226.30 671.12,226.59 671.87,226.89 672.62,227.17 673.37,227.46 674.12,227.74 674.87,228.02 675.62,228.30 676.38,228.57 677.13,228.84 677.88,229.11 678.63,229.37 679.38,229.63 680.13,229.89 680.88,230.14 681.63,230.39 682.38,230.64 683.13,230.88 683.88,231.13 684.63,231.36 685.38,231.60 686.13,231.83 686.89,232.06 687.64,232.29 688.39,232.51 689.14,232.74 689.89,232.95 690.64,233.17 691.39,233.38 692.14,233.59 692.89,233.80 693.64,234.00 694.39,234.20 695.14,234.40 695.89,234.60 696.65,234.79 697.40,234.98 698.15,235.17 698.90,235.36 699.65,235.54 700.40,235.72 701.15,235.90 701.90,236.07 702.65,236.25 703.40,236.42 704.15,236.58 704.90,236.75 705.65,236.91 706.40,237.07 707.16,237.23 707.91,237.39 708.66,237.54 709.41,237.69 710.16,237.84 710.91,237.98 711.66,238.13 712.41,238.27 713.16,238.41 713.91,238.54 714.66,238.68 715.41,238.81 716.16,238.94 716.91,239.07 717.67,239.19 718.42,239.32 719.17,239.44 719.92,239.56 720.67,239.67 721.42,239.79 722.17,239.90 722.92,240.01 723.67,240.12 724.42,240.23 725.17,240.33 725.92,240.44 726.67,240.54 727.43,240.64 728.18,240.73 728.93,240.83 729.68,240.92 730.43,241.02 731.18,241.11 731.93,241.19 732.68,241.28 733.43,241.36 734.18,241.45 734.93,241.53 735.68,241.61 736.43,241.68 737.18,241.76 737.94,241.83 738.69,241.91 739.44,241.98 740.19,242.05 740.94,242.11 741.69,242.18 742.44,242.24 743.19,242.31 743.94,242.37 744.69,242.43 745.44,242.49 746.19,242.54 746.94,242.60 747.70,242.65 748.45,242.71 749.20,242.76 749.95,242.81 750.70,242.86 751.45,242.90 752.20,242.95 752.95,242.99 753.70,243.04 754.45,243.08 755.20,243.12 755.95,243.16 756.70,243.20 757.45,243.23 758.21,243.27 758.96,243.31 759.71,243.34 760.46,243.37 761.21,243.40 761.96,243.43 762.71,243.46 763.46,243.49 764.21,243.52 764.96,243.55 765.71,243.57 766.46,243.59 767.21,243.62 767.96,243.64 768.72,243.66 769.47,243.68 770.22,243.70 770.97,243.72 771.72,243.74 772.47,243.76 773.22,243.77 773.97,243.79 774.72,243.81 775.47,243.82 776.22,243.83 776.97,243.85 777.72,243.86 778.48,243.87 779.23,243.88 779.98,243.89 780.73,243.90 781.48,243.91 782.23,243.92 782.98,243.93 783.73,243.93 784.48,243.94 785.23,243.95 785.98,243.95 786.73,243.96 787.48,243.96 788.23,243.97 788.99,243.97 789.74,243.98 790.49,243.98 791.24,243.98 791.99,243.99 792.74,243.99 793.49,243.99 794.24,243.99 794.99,243.99 795.74,243.99 796.49,244.00 797.24,244.00 797.99,244.00 798.74,244.00 799.50,244.00 800.25,244.00 801.00,244.00 801.75,244.00 802.50,244.00 803.25,244.00 804.00,244.00" />
  <text x="420.0" y="22" text-anchor="middle" font-family="Arial, Helvetica, sans-serif" font-size="15" fill="#102a43">parzen window (time domain)</text>
  <text x="420.0" y="272" text-anchor="middle" font-family="Arial, Helvetica, sans-serif" font-size="12" fill="#334e68">normalized sample index</text>
  <text x="14" y="140.0" transform="rotate(-90 14,140.0)" text-anchor="middle" font-family="Arial, Helvetica, sans-serif" font-size="12" fill="#334e68">amplitude</text>
  <text x="36" y="262" font-family="Arial, Helvetica, sans-serif" font-size="11" fill="#486581">0</text>
  <text x="804" y="262" text-anchor="end" font-family="Arial, Helvetica, sans-serif" font-size="11" fill="#486581">1</text>
  <text x="30" y="40" text-anchor="end" font-family="Arial, Helvetica, sans-serif" font-size="11" fill="#486581">1.0</text>
  <text x="30" y="248" text-anchor="end" font-family="Arial, Helvetica, sans-serif" font-size="11" fill="#486581">0.0</text>
</svg>
