<svg xmlns="http://www.w3.org/2000/svg" width="840" height="280" viewBox="0 0 840 280">
  <rect x="0" y="0" width="840" height="280" fill="#ffffff" />
  <rect x="36" y="36" width="768" height="208" fill="#f7fbff" stroke="#c8d9e6" />
  <polyline fill="none" stroke="#005f73" stroke-width="2" points="36.00,36.00 36.75,48.41 37.50,66.58 38.25,76.15 39.00,82.78 39.75,87.89 40.50,92.04 41.26,95.54 42.01,98.57 42.76,101.24 43.51,103.63 44.26,105.78 45.01,107.75 45.76,109.56 46.51,111.24 47.26,112.80 48.01,114.29 48.76,115.66 49.51,116.95 50.26,118.17 51.01,119.33 51.77,120.43 52.52,121.49 53.27,122.49 54.02,123.45 54.77,124.37 55.52,125.26 56.27,126.11 57.02,126.93 57.77,127.72 58.52,128.49 59.27,129.23 60.02,130.00 60.77,130.69 61.52,131.37 62.28,132.02 63.03,132.66 63.78,133.28 64.53,133.88 65.28,134.47 66.03,135.04 66.78,135.60 67.53,136.14 68.28,136.67 69.03,137.19 69.78,137.70 70.53,138.19 71.28,138.68 72.04,139.23 72.79,139.70 73.54,140.15 74.29,140.60 75.04,141.04 75.79,141.47 76.54,141.89 77.29,142.31 78.04,142.71 78.79,143.11 79.54,143.51 80.29,143.89 81.04,144.27 81.79,144.65 82.55,145.01 83.30,145.38 84.05,145.83 84.80,146.18 85.55,146.53 86.30,146.87 87.05,147.20 87.80,147.53 88.55,147.86 89.30,148.18 90.05,148.50 90.80,148.81 91.55,149.12 92.30,149.42 93.06,149.72 93.81,150.01 94.56,150.31 95.31,150.59 96.06,151.01 96.81,151.29 97.56,151.57 98.31,151.84 99.06,152.11 99.81,152.38 100.56,152.64 101.31,152.91 102.06,153.16 102.82,153.42 103.57,153.67 104.32,153.92 105.07,154.17 105.82,154.42 106.57,154.66 107.32,154.90 108.07,155.29 108.82,155.53 109.57,155.76 110.32,155.99 111.07,156.22 111.82,156.44 112.57,156.66 113.33,156.89 114.08,157.10 114.83,157.32 115.58,157.54 116.33,157.75 117.08,157.96 117.83,158.17 118.58,158.38 119.33,158.58 120.08,158.97 120.83,159.17 121.58,159.37 122.33,159.57 123.09,159.77 123.84,159.96 124.59,160.15 125.34,160.35 126.09,160.54 126.84,160.72 127.59,160.91 128.34,161.10 129.09,161.28 129.84,161.46 130.59,161.64 131.34,161.82 132.09,162.22 132.84,162.40 133.60,162.57 134.35,162.74 135.10,162.92 135.85,163.09 136.60,163.26 137.35,163.43 138.10,163.60 138.85,163.76 139.60,163.93 140.35,164.09 141.10,164.25 141.85,164.42 142.60,164.58 143.35,164.74 144.11,165.14 144.86,165.30 145.61,165.46 146.36,165.61 147.11,165.77 147.86,165.92 148.61,166.07 149.36,166.22 150.11,166.37 150.86,166.52 151.61,166.67 152.36,166.82 153.11,166.97 153.87,167.11 154.62,167.26 155.37,167.40 156.12,167.83 156.87,167.97 157.62,168.11 158.37,168.25 159.12,168.39 159.87,168.53 160.62,168.66 161.37,168.80 162.12,168.94 162.87,169.07 163.62,169.21 164.38,169.34 165.13,169.48 165.88,169.61 166.63,169.74 167.38,169.87 168.13,170.32 168.88,170.45 169.63,170.58 170.38,170.70 171.13,170.83 171.88,170.96 172.63,171.08 173.38,171.21 174.13,171.33 174.89,171.46 175.64,171.58 176.39,171.70 177.14,171.83 177.89,171.95 178.64,172.07 179.39,172.19 180.14,172.66 180.89,172.78 181.64,172.90 182.39,173.02 183.14,173.13 183.89,173.25 184.65,173.37 185.40,173.48 186.15,173.60 186.90,173.71 187.65,173.83 188.40,173.94 189.15,174.05 189.90,174.16 190.65,174.28 191.40,174.39 192.15,174.89 192.90,175.00 193.65,175.11 194.40,175.22 195.16,175.33 195.91,175.44 196.66,175.54 197.41,175.65 198.16,175.76 198.91,175.86 199.66,175.97 200.41,176.08 201.16,176.18 201.91,176.29 202.66,176.39 203.41,176.49 204.16,177.03 204.91,177.13 205.67,177.24 206.42,177.34 207.17,177.44 207.92,177.54 208.67,177.64 209.42,177.74 210.17,177.84 210.92,177.94 211.67,178.04 212.42,178.14 213.17,178.23 213.92,178.33 214.67,178.43 215.43,178.53 216.18,179.10 216.93,179.20 217.68,179.30 218.43,179.39 219.18,179.49 219.93,179.58 220.68,179.67 221.43,179.77 222.18,179.86 222.93,179.96 223.68,180.05 224.43,180.14 225.18,180.23 225.94,180.33 226.69,180.42 227.44,180.51 228.19,181.13 228.94,181.22 229.69,181.31 230.44,181.40 231.19,181.49 231.94,181.58 232.69,181.67 233.44,181.76 234.19,181.84 234.94,181.93 235.70,182.02 236.45,182.11 237.20,182.19 237.95,182.28 238.70,182.37 239.45,182.45 240.20,183.12 240.95,183.21 241.70,183.29 242.45,183.38 243.20,183.46 243.95,183.55 244.70,183.63 245.45,183.72 246.21,183.80 246.96,183.88 247.71,183.97 248.46,184.05 249.21,184.13 249.96,184.21 250.71,184.30 251.46,184.38 252.21,185.10 252.96,185.19 253.71,185.27 254.46,185.35 255.21,185.43 255.96,185.51 256.72,185.59 257.47,185.67 258.22,185.75 258.97,185.83 259.72,185.90 260.47,185.98 261.22,186.06 261.97,186.14 262.72,186.22 263.47,186.30 264.22,187.09 264.97,187.16 265.72,187.24 266.48,187.32 267.23,187.39 267.98,187.47 268.73,187.55 269.48,187.62 270.23,187.70 270.98,187.77 271.73,187.85 272.48,187.92 273.23,188.00 273.98,188.07 274.73,188.15 275.48,188.22 276.23,189.09 276.99,189.16 277.74,189.23 278.49,189.31 279.24,189.38 279.99,189.45 280.74,189.53 281.49,189.60 282.24,189.67 282.99,189.74 283.74,189.82 284.49,189.89 285.24,189.96 285.99,190.03 286.74,190.10 287.50,190.17 288.25,191.12 289.00,191.19 289.75,191.26 290.50,191.33 291.25,191.40 292.00,191.47 292.75,191.54 293.50,191.61 294.25,191.68 295.00,191.75 295.75,191.82 296.50,191.89 297.26,191.96 298.01,192.03 298.76,192.10 299.51,192.17 300.26,193.21 301.01,193.28 301.76,193.35 302.51,193.42 303.26,193.48 304.01,193.55 304.76,193.62 305.51,193.69 306.26,193.75 307.01,193.82 307.77,193.89 308.52,193.95 309.27,194.02 310.02,194.09 310.77,194.15 311.52,194.22 312.27,195.39 313.02,195.45 313.77,195.52 314.52,195.58 315.27,195.65 316.02,195.71 316.77,195.78 317.52,195.84 318.28,195.91 319.03,195.97 319.78,196.04 320.53,196.10 321.28,196.16 322.03,196.23 322.78,196.29 323.53,196.35 324.28,197.67 325.03,197.73 325.78,197.80 326.53,197.86 327.28,197.92 328.04,197.99 328.79,198.05 329.54,198.11 330.29,198.17 331.04,198.24 331.79,198.30 332.54,198.36 333.29,198.42 334.04,198.48 334.79,198.55 335.54,198.61 336.29,200.11 337.04,200.17 337.79,200.23 338.55,200.29 339.30,200.35 340.05,200.41 340.80,200.47 341.55,200.54 342.30,200.60 343.05,200.66 343.80,200.72 344.55,200.78 345.30,200.84 346.05,200.90 346.80,200.96 347.55,201.02 348.30,202.76 349.06,202.82 349.81,202.88 350.56,202.94 351.31,202.99 352.06,203.05 352.81,203.11 353.56,203.17 354.31,203.23 355.06,203.29 355.81,203.35 356.56,203.41 357.31,203.46 358.06,203.52 358.82,203.58 359.57,203.64 360.32,205.71 361.07,205.76 361.82,205.82 362.57,205.88 363.32,205.94 364.07,205.99 364.82,206.05 365.57,206.11 366.32,206.17 367.07,206.22 367.82,206.28 368.57,206.34 369.33,206.39 370.08,206.45 370.83,206.51 371.58,206.56 372.33,209.10 373.08,209.16 373.83,209.21 374.58,209.27 375.33,209.32 376.08,209.38 376.83,209.44 377.58,209.49 378.33,209.55 379.09,209.60 379.84,209.66 380.59,209.71 381.34,209.77 382.09,209.83 382.84,209.88 383.59,209.94 384.34,213.21 385.09,213.26 385.84,213.32 386.59,213.37 387.34,213.43 388.09,213.48 388.84,213.54 389.60,213.59 390.35,213.65 391.10,213.70 391.85,213.76 392.60,213.81 393.35,213.86 394.10,213.92 394.85,213.97 395.60,214.03 396.35,218.64 397.10,218.69 397.85,218.74 398.60,218.80 399.35,218.85 400.11,218.90 400.86,218.96 401.61,219.01 402.36,219.07 403.11,219.12 403.86,219.17 404.61,219.22 405.36,219.28 406.11,219.33 406.86,219.38 407.61,219.44 408.36,227.30 409.11,227.36 409.87,227.41 410.62,227.46 411.37,227.51 412.12,227.57 412.87,227.62 413.62,227.67 414.37,227.72 415.12,227.78 415.87,227.83 416.62,227.88 417.37,227.93 418.12,227.99 418.87,228.04 419.62,228.09 420.38,244.00 421.13,244.00 421.88,244.00 422.63,244.00 423.38,244.00 424.13,244.00 424.88,244.00 425.63,244.00 426.38,244.00 427.13,244.00 427.88,244.00 428.63,244.00 429.38,244.00 430.13,244.00 430.89,244.00 431.64,244.00 432.39,228.97 433.14,229.02 433.89,229.07 434.64,229.12 435.39,229.17 436.14,229.22 436.89,229.27 437.64,229.33 438.39,229.38 439.14,229.43 439.89,229.48 440.65,229.53 441.40,229.58 442.15,229.63 442.90,229.68 443.65,229.73 444.40,221.97 445.15,222.02 445.90,222.07 446.65,222.12 447.40,222.17 448.15,222.22 448.90,222.27 449.65,222.32 450.40,222.37 451.16,222.42 451.91,222.47 452.66,222.52 453.41,222.57 454.16,222.62 454.91,222.67 455.66,222.72 456.41,218.22 457.16,218.27 457.91,218.32 458.66,218.37 459.41,218.42 460.16,218.47 460.91,218.52 461.67,218.57 462.42,218.62 463.17,218.67 463.92,218.72 464.67,218.76 465.42,218.81 466.17,218.86 466.92,218.91 467.67,218.96 468.42,215.80 469.17,215.85 469.92,215.90 470.67,215.95 471.43,215.99 472.18,216.04 472.93,216.09 473.68,216.14 474.43,216.19 475.18,216.24 475.93,216.29 476.68,216.34 477.43,216.39 478.18,216.44 478.93,216.49 479.68,216.54 480.43,214.11 481.18,214.16 481.94,214.21 482.69,214.26 483.44,214.31 484.19,214.35 484.94,214.40 485.69,214.45 486.44,214.50 487.19,214.55 487.94,214.60 488.69,214.65 489.44,214.70 490.19,214.75 490.94,214.80 491.70,214.85 492.45,212.89 493.20,212.94 493.95,212.99 494.70,213.03 495.45,213.08 496.20,213.13 496.95,213.18 497.70,213.23 498.45,213.28 499.20,213.33 499.95,213.38 500.70,213.43 501.45,213.48 502.21,213.52 502.96,213.57 503.71,213.62 504.46,211.99 505.21,212.04 505.96,212.09 506.71,212.14 507.46,212.19 508.21,212.24 508.96,212.28 509.71,212.33 510.46,212.38 511.21,212.43 511.96,212.48 512.72,212.53 513.47,212.58 514.22,212.63 514.97,212.68 515.72,212.73 516.47,211.34 517.22,211.39 517.97,211.43 518.72,211.48 519.47,211.53 520.22,211.58 520.97,211.63 521.72,211.68 522.48,211.73 523.23,211.78 523.98,211.83 524.73,211.88 525.48,211.93 526.23,211.98 526.98,212.02 527.73,212.07 528.48,210.87 529.23,210.92 529.98,210.97 530.73,211.02 531.48,211.07 532.23,211.12 532.99,211.17 533.74,211.22 534.49,211.27 535.24,211.32 535.99,211.37 536.74,211.42 537.49,211.47 538.24,211.51 538.99,211.56 539.74,211.61 540.49,210.56 541.24,210.61 541.99,210.66 542.74,210.71 543.50,210.76 544.25,210.81 545.00,210.86 545.75,210.91 546.50,210.96 547.25,211.01 548.00,211.06 548.75,211.11 549.50,211.16 550.25,211.21 551.00,211.26 551.75,211.31 552.50,210.38 553.26,210.43 554.01,210.48 554.76,210.53 555.51,210.58 556.26,210.63 557.01,210.69 557.76,210.74 558.51,210.79 559.26,210.84 560.01,210.89 560.76,210.94 561.51,210.99 562.26,211.04 563.01,211.09 563.77,211.14 564.52,210.32 565.27,210.37 566.02,210.42 566.77,210.47 567.52,210.52 568.27,210.57 569.02,210.62 569.77,210.68 570.52,210.73 571.27,210.78 572.02,210.83 572.77,210.88 573.52,210.93 574.28,210.98 575.03,211.04 575.78,211.09 576.53,210.35 577.28,210.40 578.03,210.46 578.78,210.51 579.53,210.56 580.28,210.61 581.03,210.67 581.78,210.72 582.53,210.77 583.28,210.82 584.04,210.88 584.79,210.93 585.54,210.98 586.29,211.03 587.04,211.09 587.79,211.14 588.54,210.48 589.29,210.54 590.04,210.59 590.79,210.64 591.54,210.70 592.29,210.75 593.04,210.80 593.79,210.86 594.55,210.91 595.30,210.96 596.05,211.02 596.80,211.07 597.55,211.13 598.30,211.18 599.05,211.23 599.80,211.29 600.55,210.70 601.30,210.76 602.05,210.81 602.80,210.86 603.55,210.92 604.30,210.97 605.06,211.03 605.81,211.08 606.56,211.14 607.31,211.20 608.06,211.25 608.81,211.31 609.56,211.36 610.31,211.42 611.06,211.47 611.81,211.53 612.56,211.00 613.31,211.06 614.06,211.12 614.82,211.17 615.57,211.23 616.32,211.29 617.07,211.34 617.82,211.40 618.57,211.46 619.32,211.52 620.07,211.57 620.82,211.63 621.57,211.69 622.32,211.75 623.07,211.80 623.82,211.86 624.57,211.39 625.33,211.45 626.08,211.51 626.83,211.57 627.58,211.63 628.33,211.69 629.08,211.75 629.83,211.81 630.58,211.87 631.33,211.93 632.08,211.99 632.83,212.05 633.58,212.11 634.33,212.17 635.09,212.23 635.84,212.29 636.59,211.87 637.34,211.93 638.09,211.99 638.84,212.05 639.59,212.12 640.34,212.18 641.09,212.24 641.84,212.30 642.59,212.36 643.34,212.43 644.09,212.49 644.84,212.55 645.60,212.62 646.35,212.68 647.10,212.74 647.85,212.81 648.60,212.44 649.35,212.50 650.10,212.57 650.85,212.63 651.60,212.70 652.35,212.76 653.10,212.83 653.85,212.89 654.60,212.96 655.35,213.02 656.11,213.09 656.86,213.16 657.61,213.22 658.36,213.29 659.11,213.36 659.86,213.42 660.61,213.10 661.36,213.17 662.11,213.24 662.86,213.31 663.61,213.38 664.36,213.44 665.11,213.51 665.87,213.58 666.62,213.65 667.37,213.72 668.12,213.79 668.87,213.87 669.62,213.94 670.37,214.01 671.12,214.08 671.87,214.15 672.62,213.87 673.37,213.95 674.12,214.02 674.87,214.09 675.62,214.17 676.38,214.24 677.13,214.31 677.88,214.39 678.63,214.46 679.38,214.54 680.13,214.61 680.88,214.69 681.63,214.77 682.38,214.84 683.13,214.92 683.88,215.00 684.63,214.76 685.38,214.84 686.13,214.92 686.89,215.00 687.64,215.08 688.39,215.16 689.14,215.24 689.89,215.32 690.64,215.40 691.39,215.48 692.14,215.57 692.89,215.65 693.64,215.73 694.39,215.82 695.14,215.90 695.89,215.98 696.65,215.79 697.40,215.88 698.15,215.96 698.90,216.05 699.65,216.14 700.40,216.22 701.15,216.31 701.90,216.40 702.65,216.49 703.40,216.58 704.15,216.67 704.90,216.76 705.65,216.85 706.40,216.95 707.16,217.04 707.91,217.13 708.66,216.98 709.41,217.08 710.16,217.17 710.91,217.27 711.66,217.37 712.41,217.46 713.16,217.56 713.91,217.66 714.66,217.76 715.41,217.86 716.16,217.96 716.91,218.07 717.67,218.17 718.42,218.27 719.17,218.38 719.92,218.48 720.67,218.38 721.42,218.48 722.17,218.59 722.92,218.70 723.67,218.81 724.42,218.92 725.17,219.03 725.92,219.14 726.67,219.26 727.43,219.37 728.18,219.49 728.93,219.60 729.68,219.72 730.43,219.84 731.18,219.96 731.93,220.08 732.68,220.02 733.43,220.15 734.18,220.27 734.93,220.40 735.68,220.53 736.43,220.65 737.18,220.78 737.94,220.92 738.69,221.05 739.44,221.18 740.19,221.32 740.94,221.46 741.69,221.59 742.44,221.73 743.19,221.88 743.94,222.02 744.69,222.01 745.44,222.16 746.19,222.31 746.94,222.46 747.70,222.61 748.45,222.77 749.20,222.93 749.95,223.08 750.70,223.25 751.45,223.41 752.20,223.57 752.95,223.74 753.70,223.91 754.45,224.08 755.20,224.26 755.95,224.44 756.70,224.50 757.45,224.68 758.21,224.87 758.96,225.05 759.71,225.25 760.46,225.44 761.21,225.64 761.96,225.84 762.71,226.05 763.46,226.26 764.21,226.47 764.96,226.69 765.71,226.91 766.46,227.14 767.21,227.37 767.96,227.60 768.72,227.75 769.47,227.99 770.22,228.24 770.97,228.50 771.72,228.76 772.47,229.03 773.22,229.30 773.97,229.58 774.72,229.87 775.47,230.16 776.22,230.46 776.97,230.78 777.72,231.09 778.48,231.42 779.23,231.76 779.98,232.11 780.73,232.41 781.48,232.78 782.23,233.16 782.98,233.56 783.73,233.97 784.48,234.40 785.23,234.84 785.98,235.30 786.73,235.78 787.48,236.28 788.23,236.81 788.99,237.36 789.74,237.94 790.49,238.55 791.24,239.20 791.99,239.88 792.74,240.58 793.49,241.36 794.24,242.19 794.99,243.10 795.74,244.00 796.49,244.00 797.24,244.00 797.99,244.00 798.74,244.00 799.50,244.00 800.25,244.00 801.00,244.00 801.75,244.00 802.50,244.00 803.25,244.00 804.00,244.00" />
  <text x="420.0" y="22" text-anchor="middle" font-family="Arial, Helvetica, sans-serif" font-size="15" fill="#102a43">sine window (magnitude spectrum)</text>
  <text x="420.0" y="272" text-anchor="middle" font-family="Arial, Helvetica, sans-serif" font-size="12" fill="#334e68">normalized frequency</text>
  <text x="14" y="140.0" transform="rotate(-90 14,140.0)" text-anchor="middle" font-family="Arial, Helvetica, sans-serif" font-size="12" fill="#334e68">magnitude (dB)</text>
  <text x="36" y="262" font-family="Arial, Helvetica, sans-serif" font-size="11" fill="#486581">0</text>
  <text x="804" y="262" text-anchor="end" font-family="Arial, Helvetica, sans-serif" font-size="11" fill="#486581">1</text>
  <text x="30" y="40" text-anchor="end" font-family="Arial, Helvetica, sans-serif" font-size="11" fill="#486581">0.0</text>
  <text x="30" y="248" text-anchor="end" font-family="Arial, Helvetica, sans-serif" font-size="11" fill="#486581">-160.0</text>
</svg>
