<svg xmlns="http://www.w3.org/2000/svg" width="840" height="280" viewBox="0 0 840 280">
  <rect x="0" y="0" width="840" height="280" fill="#ffffff" />
  <rect x="36" y="36" width="768" height="208" fill="#f7fbff" stroke="#c8d9e6" />
  <polyline fill="none" stroke="#005f73" stroke-width="2" points="36.00,243.90 36.75,243.49 37.50,243.09 38.25,242.68 39.00,242.27 39.75,241.87 40.50,241.46 41.26,241.05 42.01,240.65 42.76,240.24 43.51,239.84 44.26,239.43 45.01,239.02 45.76,238.62 46.51,238.21 47.26,237.80 48.01,237.40 48.76,236.99 49.51,236.59 50.26,236.18 51.01,235.77 51.77,235.37 52.52,234.96 53.27,234.55 54.02,234.15 54.77,233.74 55.52,233.34 56.27,232.93 57.02,232.52 57.77,232.12 58.52,231.71 59.27,231.30 60.02,230.90 60.77,230.49 61.52,230.09 62.28,229.68 63.03,229.27 63.78,228.87 64.53,228.46 65.28,228.05 66.03,227.65 66.78,227.24 67.53,226.84 68.28,226.43 69.03,226.02 69.78,225.62 70.53,225.21 71.28,224.80 72.04,224.40 72.79,223.99 73.54,223.59 74.29,223.18 75.04,222.77 75.79,222.37 76.54,221.96 77.29,221.55 78.04,221.15 78.79,220.74 79.54,220.34 80.29,219.93 81.04,219.52 81.79,219.12 82.55,218.71 83.30,218.30 84.05,217.90 84.80,217.49 85.55,217.09 86.30,216.68 87.05,216.27 87.80,215.87 88.55,215.46 89.30,215.05 90.05,214.65 90.80,214.24 91.55,213.84 92.30,213.43 93.06,213.02 93.81,212.62 94.56,212.21 95.31,211.80 96.06,211.40 96.81,210.99 97.56,210.59 98.31,210.18 99.06,209.77 99.81,209.37 100.56,208.96 101.31,208.55 102.06,208.15 102.82,207.74 103.57,207.34 104.32,206.93 105.07,206.52 105.82,206.12 106.57,205.71 107.32,205.30 108.07,204.90 108.82,204.49 109.57,204.09 110.32,203.68 111.07,203.27 111.82,202.87 112.57,202.46 113.33,202.05 114.08,201.65 114.83,201.24 115.58,200.84 116.33,200.43 117.08,200.02 117.83,199.62 118.58,199.21 119.33,198.80 120.08,198.40 120.83,197.99 121.58,197.59 122.33,197.18 123.09,196.77 123.84,196.37 124.59,195.96 125.34,195.55 126.09,195.15 126.84,194.74 127.59,194.34 128.34,193.93 129.09,193.52 129.84,193.12 130.59,192.71 131.34,192.30 132.09,191.90 132.84,191.49 133.60,191.09 134.35,190.68 135.10,190.27 135.85,189.87 136.60,189.46 137.35,189.05 138.10,188.65 138.85,188.24 139.60,187.84 140.35,187.43 141.10,187.02 141.85,186.62 142.60,186.21 143.35,185.80 144.11,185.40 144.86,184.99 145.61,184.59 146.36,184.18 147.11,183.77 147.86,183.37 148.61,182.96 149.36,182.55 150.11,182.15 150.86,181.74 151.61,181.34 152.36,180.93 153.11,180.52 153.87,180.12 154.62,179.71 155.37,179.30 156.12,178.90 156.87,178.49 157.62,178.09 158.37,177.68 159.12,177.27 159.87,176.87 160.62,176.46 161.37,176.05 162.12,175.65 162.87,175.24 163.62,174.84 164.38,174.43 165.13,174.02 165.88,173.62 166.63,173.21 167.38,172.80 168.13,172.40 168.88,171.99 169.63,171.59 170.38,171.18 171.13,170.77 171.88,170.37 172.63,169.96 173.38,169.55 174.13,169.15 174.89,168.74 175.64,168.34 176.39,167.93 177.14,167.52 177.89,167.12 178.64,166.71 179.39,166.30 180.14,165.90 180.89,165.49 181.64,165.09 182.39,164.68 183.14,164.27 183.89,163.87 184.65,163.46 185.40,163.05 186.15,162.65 186.90,162.24 187.65,161.84 188.40,161.43 189.15,161.02 189.90,160.62 190.65,160.21 191.40,159.80 192.15,159.40 192.90,158.99 193.65,158.59 194.40,158.18 195.16,157.77 195.91,157.37 196.66,156.96 197.41,156.55 198.16,156.15 198.91,155.74 199.66,155.34 200.41,154.93 201.16,154.52 201.91,154.12 202.66,153.71 203.41,153.30 204.16,152.90 204.91,152.49 205.67,152.09 206.42,151.68 207.17,151.27 207.92,150.87 208.67,150.46 209.42,150.05 210.17,149.65 210.92,149.24 211.67,148.84 212.42,148.43 213.17,148.02 213.92,147.62 214.67,147.21 215.43,146.80 216.18,146.40 216.93,145.99 217.68,145.59 218.43,145.18 219.18,144.77 219.93,144.37 220.68,143.96 221.43,143.55 222.18,143.15 222.93,142.74 223.68,142.34 224.43,141.93 225.18,141.52 225.94,141.12 226.69,140.71 227.44,140.30 228.19,139.90 228.94,139.49 229.69,139.09 230.44,138.68 231.19,138.27 231.94,137.87 232.69,137.46 233.44,137.05 234.19,136.65 234.94,136.24 235.70,135.84 236.45,135.43 237.20,135.02 237.95,134.62 238.70,134.21 239.45,133.80 240.20,133.40 240.95,132.99 241.70,132.59 242.45,132.18 243.20,131.77 243.95,131.37 244.70,130.96 245.45,130.55 246.21,130.15 246.96,129.74 247.71,129.34 248.46,128.93 249.21,128.52 249.96,128.12 250.71,127.71 251.46,127.30 252.21,126.90 252.96,126.49 253.71,126.09 254.46,125.68 255.21,125.27 255.96,124.87 256.72,124.46 257.47,124.05 258.22,123.65 258.97,123.24 259.72,122.84 260.47,122.43 261.22,122.02 261.97,121.62 262.72,121.21 263.47,120.80 264.22,120.40 264.97,119.99 265.72,119.59 266.48,119.18 267.23,118.77 267.98,118.37 268.73,117.96 269.48,117.55 270.23,117.15 270.98,116.74 271.73,116.34 272.48,115.93 273.23,115.52 273.98,115.12 274.73,114.71 275.48,114.30 276.23,113.90 276.99,113.49 277.74,113.09 278.49,112.68 279.24,112.27 279.99,111.87 280.74,111.46 281.49,111.05 282.24,110.65 282.99,110.24 283.74,109.84 284.49,109.43 285.24,109.02 285.99,108.62 286.74,108.21 287.50,107.80 288.25,107.40 289.00,106.99 289.75,106.59 290.50,106.18 291.25,105.77 292.00,105.37 292.75,104.96 293.50,104.55 294.25,104.15 295.00,103.74 295.75,103.34 296.50,102.93 297.26,102.52 298.01,102.12 298.76,101.71 299.51,101.30 300.26,100.90 301.01,100.49 301.76,100.09 302.51,99.68 303.26,99.27 304.01,98.87 304.76,98.46 305.51,98.05 306.26,97.65 307.01,97.24 307.77,96.84 308.52,96.43 309.27,96.02 310.02,95.62 310.77,95.21 311.52,94.80 312.27,94.40 313.02,93.99 313.77,93.59 314.52,93.18 315.27,92.77 316.02,92.37 316.77,91.96 317.52,91.55 318.28,91.15 319.03,90.74 319.78,90.34 320.53,89.93 321.28,89.52 322.03,89.12 322.78,88.71 323.53,88.30 324.28,87.90 325.03,87.49 325.78,87.09 326.53,86.68 327.28,86.27 328.04,85.87 328.79,85.46 329.54,85.05 330.29,84.65 331.04,84.24 331.79,83.84 332.54,83.43 333.29,83.02 334.04,82.62 334.79,82.21 335.54,81.80 336.29,81.40 337.04,80.99 337.79,80.59 338.55,80.18 339.30,79.77 340.05,79.37 340.80,78.96 341.55,78.55 342.30,78.15 343.05,77.74 343.80,77.34 344.55,76.93 345.30,76.52 346.05,76.12 346.80,75.71 347.55,75.30 348.30,74.90 349.06,74.49 349.81,74.09 350.56,73.68 351.31,73.27 352.06,72.87 352.81,72.46 353.56,72.05 354.31,71.65 355.06,71.24 355.81,70.84 356.56,70.43 357.31,70.02 358.06,69.62 358.82,69.21 359.57,68.80 360.32,68.40 361.07,67.99 361.82,67.59 362.57,67.18 363.32,66.77 364.07,66.37 364.82,65.96 365.57,65.55 366.32,65.15 367.07,64.74 367.82,64.34 368.57,63.93 369.33,63.52 370.08,63.12 370.83,62.71 371.58,62.30 372.33,61.90 373.08,61.49 373.83,61.09 374.58,60.68 375.33,60.27 376.08,59.87 376.83,59.46 377.58,59.05 378.33,58.65 379.09,58.24 379.84,57.84 380.59,57.43 381.34,57.02 382.09,56.62 382.84,56.21 383.59,55.80 384.34,55.40 385.09,54.99 385.84,54.59 386.59,54.18 387.34,53.77 388.09,53.37 388.84,52.96 389.60,52.55 390.35,52.15 391.10,51.74 391.85,51.34 392.60,50.93 393.35,50.52 394.10,50.12 394.85,49.71 395.60,49.30 396.35,48.90 397.10,48.49 397.85,48.09 398.60,47.68 399.35,47.27 400.11,46.87 400.86,46.46 401.61,46.05 402.36,45.65 403.11,45.24 403.86,44.84 404.61,44.43 405.36,44.02 406.11,43.62 406.86,43.21 407.61,42.80 408.36,42.40 409.11,41.99 409.87,41.59 410.62,41.18 411.37,40.77 412.12,40.37 412.87,39.96 413.62,39.55 414.37,39.15 415.12,38.74 415.87,38.34 416.62,37.93 417.37,37.52 418.12,37.12 418.87,36.71 419.62,36.30 420.38,36.10 421.13,36.51 421.88,36.91 422.63,37.32 423.38,37.73 424.13,38.13 424.88,38.54 425.63,38.95 426.38,39.35 427.13,39.76 427.88,40.16 428.63,40.57 429.38,40.98 430.13,41.38 430.89,41.79 431.64,42.20 432.39,42.60 433.14,43.01 433.89,43.41 434.64,43.82 435.39,44.23 436.14,44.63 436.89,45.04 437.64,45.45 438.39,45.85 439.14,46.26 439.89,46.66 440.65,47.07 441.40,47.48 442.15,47.88 442.90,48.29 443.65,48.70 444.40,49.10 445.15,49.51 445.90,49.91 446.65,50.32 447.40,50.73 448.15,51.13 448.90,51.54 449.65,51.95 450.40,52.35 451.16,52.76 451.91,53.16 452.66,53.57 453.41,53.98 454.16,54.38 454.91,54.79 455.66,55.20 456.41,55.60 457.16,56.01 457.91,56.41 458.66,56.82 459.41,57.23 460.16,57.63 460.91,58.04 461.67,58.45 462.42,58.85 463.17,59.26 463.92,59.66 464.67,60.07 465.42,60.48 466.17,60.88 466.92,61.29 467.67,61.70 468.42,62.10 469.17,62.51 469.92,62.91 470.67,63.32 471.43,63.73 472.18,64.13 472.93,64.54 473.68,64.95 474.43,65.35 475.18,65.76 475.93,66.16 476.68,66.57 477.43,66.98 478.18,67.38 478.93,67.79 479.68,68.20 480.43,68.60 481.18,69.01 481.94,69.41 482.69,69.82 483.44,70.23 484.19,70.63 484.94,71.04 485.69,71.45 486.44,71.85 487.19,72.26 487.94,72.66 488.69,73.07 489.44,73.48 490.19,73.88 490.94,74.29 491.70,74.70 492.45,75.10 493.20,75.51 493.95,75.91 494.70,76.32 495.45,76.73 496.20,77.13 496.95,77.54 497.70,77.95 498.45,78.35 499.20,78.76 499.95,79.16 500.70,79.57 501.45,79.98 502.21,80.38 502.96,80.79 503.71,81.20 504.46,81.60 505.21,82.01 505.96,82.41 506.71,82.82 507.46,83.23 508.21,83.63 508.96,84.04 509.71,84.45 510.46,84.85 511.21,85.26 511.96,85.66 512.72,86.07 513.47,86.48 514.22,86.88 514.97,87.29 515.72,87.70 516.47,88.10 517.22,88.51 517.97,88.91 518.72,89.32 519.47,89.73 520.22,90.13 520.97,90.54 521.72,90.95 522.48,91.35 523.23,91.76 523.98,92.16 524.73,92.57 525.48,92.98 526.23,93.38 526.98,93.79 527.73,94.20 528.48,94.60 529.23,95.01 529.98,95.41 530.73,95.82 531.48,96.23 532.23,96.63 532.99,97.04 533.74,97.45 534.49,97.85 535.24,98.26 535.99,98.66 536.74,99.07 537.49,99.48 538.24,99.88 538.99,100.29 539.74,100.70 540.49,101.10 541.24,101.51 541.99,101.91 542.74,102.32 543.50,102.73 544.25,103.13 545.00,103.54 545.75,103.95 546.50,104.35 547.25,104.76 548.00,105.16 548.75,105.57 549.50,105.98 550.25,106.38 551.00,106.79 551.75,107.20 552.50,107.60 553.26,108.01 554.01,108.41 554.76,108.82 555.51,109.23 556.26,109.63 557.01,110.04 557.76,110.45 558.51,110.85 559.26,111.26 560.01,111.66 560.76,112.07 561.51,112.48 562.26,112.88 563.01,113.29 563.77,113.70 564.52,114.10 565.27,114.51 566.02,114.91 566.77,115.32 567.52,115.73 568.27,116.13 569.02,116.54 569.77,116.95 570.52,117.35 571.27,117.76 572.02,118.16 572.77,118.57 573.52,118.98 574.28,119.38 575.03,119.79 575.78,120.20 576.53,120.60 577.28,121.01 578.03,121.41 578.78,121.82 579.53,122.23 580.28,122.63 581.03,123.04 581.78,123.45 582.53,123.85 583.28,124.26 584.04,124.66 584.79,125.07 585.54,125.48 586.29,125.88 587.04,126.29 587.79,126.70 588.54,127.10 589.29,127.51 590.04,127.91 590.79,128.32 591.54,128.73 592.29,129.13 593.04,129.54 593.79,129.95 594.55,130.35 595.30,130.76 596.05,131.16 596.80,131.57 597.55,131.98 598.30,132.38 599.05,132.79 599.80,133.20 600.55,133.60 601.30,134.01 602.05,134.41 602.80,134.82 603.55,135.23 604.30,135.63 605.06,136.04 605.81,136.45 606.56,136.85 607.31,137.26 608.06,137.66 608.81,138.07 609.56,138.48 610.31,138.88 611.06,139.29 611.81,139.70 612.56,140.10 613.31,140.51 614.06,140.91 614.82,141.32 615.57,141.73 616.32,142.13 617.07,142.54 617.82,142.95 618.57,143.35 619.32,143.76 620.07,144.16 620.82,144.57 621.57,144.98 622.32,145.38 623.07,145.79 623.82,146.20 624.57,146.60 625.33,147.01 626.08,147.41 626.83,147.82 627.58,148.23 628.33,148.63 629.08,149.04 629.83,149.45 630.58,149.85 631.33,150.26 632.08,150.66 632.83,151.07 633.58,151.48 634.33,151.88 635.09,152.29 635.84,152.70 636.59,153.10 637.34,153.51 638.09,153.91 638.84,154.32 639.59,154.73 640.34,155.13 641.09,155.54 641.84,155.95 642.59,156.35 643.34,156.76 644.09,157.16 644.84,157.57 645.60,157.98 646.35,158.38 647.10,158.79 647.85,159.20 648.60,159.60 649.35,160.01 650.10,160.41 650.85,160.82 651.60,161.23 652.35,161.63 653.10,162.04 653.85,162.45 654.60,162.85 655.35,163.26 656.11,163.66 656.86,164.07 657.61,164.48 658.36,164.88 659.11,165.29 659.86,165.70 660.61,166.10 661.36,166.51 662.11,166.91 662.86,167.32 663.61,167.73 664.36,168.13 665.11,168.54 665.87,168.95 666.62,169.35 667.37,169.76 668.12,170.16 668.87,170.57 669.62,170.98 670.37,171.38 671.12,171.79 671.87,172.20 672.62,172.60 673.37,173.01 674.12,173.41 674.87,173.82 675.62,174.23 676.38,174.63 677.13,175.04 677.88,175.45 678.63,175.85 679.38,176.26 680.13,176.66 680.88,177.07 681.63,177.48 682.38,177.88 683.13,178.29 683.88,178.70 684.63,179.10 685.38,179.51 686.13,179.91 686.89,180.32 687.64,180.73 688.39,181.13 689.14,181.54 689.89,181.95 690.64,182.35 691.39,182.76 692.14,183.16 692.89,183.57 693.64,183.98 694.39,184.38 695.14,184.79 695.89,185.20 696.65,185.60 697.40,186.01 698.15,186.41 698.90,186.82 699.65,187.23 700.40,187.63 701.15,188.04 701.90,188.45 702.65,188.85 703.40,189.26 704.15,189.66 704.90,190.07 705.65,190.48 706.40,190.88 707.16,191.29 707.91,191.70 708.66,192.10 709.41,192.51 710.16,192.91 710.91,193.32 711.66,193.73 712.41,194.13 713.16,194.54 713.91,194.95 714.66,195.35 715.41,195.76 716.16,196.16 716.91,196.57 717.67,196.98 718.42,197.38 719.17,197.79 719.92,198.20 720.67,198.60 721.42,199.01 722.17,199.41 722.92,199.82 723.67,200.23 724.42,200.63 725.17,201.04 725.92,201.45 726.67,201.85 727.43,202.26 728.18,202.66 728.93,203.07 729.68,203.48 730.43,203.88 731.18,204.29 731.93,204.70 732.68,205.10 733.43,205.51 734.18,205.91 734.93,206.32 735.68,206.73 736.43,207.13 737.18,207.54 737.94,207.95 738.69,208.35 739.44,208.76 740.19,209.16 740.94,209.57 741.69,209.98 742.44,210.38 743.19,210.79 743.94,211.20 744.69,211.60 745.44,212.01 746.19,212.41 746.94,212.82 747.70,213.23 748.45,213.63 749.20,214.04 749.95,214.45 750.70,214.85 751.45,215.26 752.20,215.66 752.95,216.07 753.70,216.48 754.45,216.88 755.20,217.29 755.95,217.70 756.70,218.10 757.45,218.51 758.21,218.91 758.96,219.32 759.71,219.73 760.46,220.13 761.21,220.54 761.96,220.95 762.71,221.35 763.46,221.76 764.21,222.16 764.96,222.57 765.71,222.98 766.46,223.38 767.21,223.79 767.96,224.20 768.72,224.60 769.47,225.01 770.22,225.41 770.97,225.82 771.72,226.23 772.47,226.63 773.22,227.04 773.97,227.45 774.72,227.85 775.47,228.26 776.22,228.66 776.97,229.07 777.72,229.48 778.48,229.88 779.23,230.29 779.98,230.70 780.73,231.10 781.48,231.51 782.23,231.91 782.98,232.32 783.73,232.73 784.48,233.13 785.23,233.54 785.98,233.95 786.73,234.35 787.48,234.76 788.23,235.16 788.99,235.57 789.74,235.98 790.49,236.38 791.24,236.79 791.99,237.20 792.74,237.60 793.49,238.01 794.24,238.41 794.99,238.82 795.74,239.23 796.49,239.63 797.24,240.04 797.99,240.45 798.74,240.85 799.50,241.26 800.25,241.66 801.00,242.07 801.75,242.48 802.50,242.88 803.25,243.29 804.00,243.90" />
  <text x="420.0" y="22" text-anchor="middle" font-family="Arial, Helvetica, sans-serif" font-size="15" fill="#102a43">triangular window (time domain)</text>
  <text x="420.0" y="272" text-anchor="middle" font-family="Arial, Helvetica, sans-serif" font-size="12" fill="#334e68">normalized sample index</text>
  <text x="14" y="140.0" transform="rotate(-90 14,140.0)" text-anchor="middle" font-family="Arial, Helvetica, sans-serif" font-size="12" fill="#334e68">amplitude</text>
  <text x="36" y="262" font-family="Arial, Helvetica, sans-serif" font-size="11" fill="#486581">0</text>
  <text x="804" y="262" text-anchor="end" font-family="Arial, Helvetica, sans-serif" font-size="11" fill="#486581">1</text>
  <text x="30" y="40" text-anchor="end" font-family="Arial, Helvetica, sans-serif" font-size="11" fill="#486581">1.0</text>
  <text x="30" y="248" text-anchor="end" font-family="Arial, Helvetica, sans-serif" font-size="11" fill="#486581">0.0</text>
</svg>
