<svg xmlns="http://www.w3.org/2000/svg" width="840" height="280" viewBox="0 0 840 280">
  <rect x="0" y="0" width="840" height="280" fill="#ffffff" />
  <rect x="36" y="36" width="768" height="208" fill="#f7fbff" stroke="#c8d9e6" />
  <polyline fill="none" stroke="#005f73" stroke-width="2" points="36.00,36.00 36.75,46.20 37.50,244.00 38.25,71.01 39.00,244.00 39.75,82.54 40.50,244.00 41.26,90.14 42.01,244.00 42.76,95.82 43.51,244.00 44.26,100.35 45.01,244.00 45.76,104.12 46.51,244.00 47.26,107.36 48.01,192.56 48.76,110.21 49.51,195.22 50.26,112.72 51.01,197.60 51.77,114.98 52.52,199.75 53.27,117.03 54.02,201.71 54.77,118.91 55.52,203.52 56.27,120.65 57.02,205.19 57.77,122.27 58.52,206.75 59.27,123.77 60.02,192.57 60.77,125.21 61.52,193.94 62.28,126.54 63.03,195.23 63.78,127.80 64.53,196.45 65.28,128.99 66.03,197.61 66.78,130.11 67.53,198.71 68.28,131.19 69.03,199.76 69.78,132.22 70.53,200.77 71.28,133.20 72.04,192.59 72.79,134.18 73.54,193.51 74.29,135.09 75.04,194.40 75.79,135.95 76.54,195.25 77.29,136.79 78.04,196.07 78.79,137.60 79.54,196.86 80.29,138.38 81.04,197.63 81.79,139.13 82.55,198.37 83.30,139.86 84.05,192.61 84.80,140.62 85.55,193.31 86.30,141.30 87.05,193.98 87.80,141.97 88.55,194.64 89.30,142.62 90.05,195.27 90.80,143.24 91.55,195.89 92.30,143.85 93.06,196.50 93.81,144.45 94.56,197.08 95.31,145.03 96.06,192.64 96.81,145.66 97.56,193.20 98.31,146.21 99.06,193.75 99.81,146.75 100.56,194.28 101.31,147.28 102.06,194.80 102.82,147.79 103.57,195.31 104.32,148.30 105.07,195.81 105.82,148.79 106.57,196.29 107.32,149.27 108.07,192.68 108.82,149.82 109.57,193.15 110.32,150.28 111.07,193.61 111.82,150.74 112.57,194.05 113.33,151.18 114.08,194.49 114.83,151.62 115.58,194.93 116.33,152.04 117.08,195.35 117.83,152.46 118.58,195.77 119.33,152.88 120.08,192.73 120.83,153.37 121.58,193.13 122.33,153.77 123.09,193.52 123.84,154.16 124.59,193.91 125.34,154.55 126.09,194.29 126.84,154.92 127.59,194.67 128.34,155.30 129.09,195.03 129.84,155.66 130.59,195.40 131.34,156.02 132.09,192.78 132.84,156.48 133.60,193.13 134.35,156.83 135.10,193.48 135.85,157.18 136.60,193.82 137.35,157.52 138.10,194.15 138.85,157.85 139.60,194.49 140.35,158.18 141.10,194.81 141.85,158.51 142.60,195.14 143.35,158.83 144.11,192.84 144.86,159.26 145.61,193.15 146.36,159.57 147.11,193.46 147.86,159.88 148.61,193.76 149.36,160.19 150.11,194.07 150.86,160.48 151.61,194.36 152.36,160.78 153.11,194.66 153.87,161.07 154.62,194.95 155.37,161.36 156.12,192.90 156.87,161.78 157.62,193.18 158.37,162.06 159.12,193.46 159.87,162.34 160.62,193.74 161.37,162.62 162.12,194.01 162.87,162.89 163.62,194.28 164.38,163.16 165.13,194.55 165.88,163.42 166.63,194.82 167.38,163.68 168.13,192.97 168.88,164.09 169.63,193.23 170.38,164.35 171.13,193.49 171.88,164.60 172.63,193.74 173.38,164.85 174.13,193.99 174.89,165.10 175.64,194.24 176.39,165.35 177.14,194.48 177.89,165.59 178.64,194.73 179.39,165.83 180.14,193.05 180.89,166.23 181.64,193.29 182.39,166.47 183.14,193.53 183.89,166.71 184.65,193.76 185.40,166.94 186.15,193.99 186.90,167.17 187.65,194.22 188.40,167.39 189.15,194.45 189.90,167.62 190.65,194.67 191.40,167.84 192.15,193.14 192.90,168.24 193.65,193.36 194.40,168.46 195.16,193.58 195.91,168.68 196.66,193.80 197.41,168.89 198.16,194.01 198.91,169.10 199.66,194.22 200.41,169.32 201.16,194.43 201.91,169.52 202.66,194.64 203.41,169.73 204.16,193.24 204.91,170.13 205.67,193.44 206.42,170.33 207.17,193.65 207.92,170.54 208.67,193.85 209.42,170.74 210.17,194.05 210.92,170.94 211.67,194.25 212.42,171.13 213.17,194.44 213.92,171.33 214.67,194.64 215.43,171.52 216.18,193.34 216.93,171.93 217.68,193.53 218.43,172.12 219.18,193.72 219.93,172.31 220.68,193.91 221.43,172.49 222.18,194.10 222.93,172.68 223.68,194.29 224.43,172.87 225.18,194.47 225.94,173.05 226.69,194.66 227.44,173.23 228.19,193.45 228.94,173.64 229.69,193.63 230.44,173.82 231.19,193.81 231.94,174.00 232.69,193.99 233.44,174.18 234.19,194.17 234.94,174.35 235.70,194.34 236.45,174.53 237.20,194.52 237.95,174.70 238.70,194.69 239.45,174.87 240.20,193.57 240.95,175.28 241.70,193.74 242.45,175.45 243.20,193.91 243.95,175.62 244.70,194.08 245.45,175.79 246.21,194.25 246.96,175.96 247.71,194.41 248.46,176.12 249.21,194.58 249.96,176.29 250.71,194.74 251.46,176.45 252.21,193.70 252.96,176.87 253.71,193.86 254.46,177.03 255.21,194.02 255.96,177.19 256.72,194.18 257.47,177.35 258.22,194.34 258.97,177.51 259.72,194.50 260.47,177.67 261.22,194.66 261.97,177.83 262.72,194.81 263.47,177.98 264.22,193.83 264.97,178.41 265.72,193.99 266.48,178.56 267.23,194.14 267.98,178.72 268.73,194.29 269.48,178.87 270.23,194.45 270.98,179.02 271.73,194.60 272.48,179.17 273.23,194.75 273.98,179.32 274.73,194.90 275.48,179.47 276.23,193.98 276.99,179.91 277.74,194.13 278.49,180.05 279.24,194.27 279.99,180.20 280.74,194.42 281.49,180.34 282.24,194.56 282.99,180.49 283.74,194.71 284.49,180.63 285.24,194.85 285.99,180.78 286.74,194.99 287.50,180.92 288.25,194.13 289.00,181.37 289.75,194.27 290.50,181.51 291.25,194.41 292.00,181.65 292.75,194.55 293.50,181.79 294.25,194.69 295.00,181.93 295.75,194.83 296.50,182.07 297.26,194.97 298.01,182.20 298.76,195.11 299.51,182.34 300.26,194.29 301.01,182.80 301.76,194.43 302.51,182.94 303.26,194.56 304.01,183.07 304.76,194.70 305.51,183.21 306.26,194.83 307.01,183.34 307.77,194.97 308.52,183.47 309.27,195.10 310.02,183.60 310.77,195.23 311.52,183.74 312.27,194.46 313.02,184.21 313.77,194.59 314.52,184.34 315.27,194.72 316.02,184.47 316.77,194.85 317.52,184.60 318.28,194.98 319.03,184.73 319.78,195.11 320.53,184.86 321.28,195.24 322.03,184.99 322.78,195.37 323.53,185.11 324.28,194.64 325.03,185.60 325.78,194.77 326.53,185.73 327.28,194.90 328.04,185.85 328.79,195.02 329.54,185.98 330.29,195.15 331.04,186.10 331.79,195.27 332.54,186.23 333.29,195.39 334.04,186.35 334.79,195.52 335.54,186.47 336.29,194.83 337.04,186.98 337.79,194.96 338.55,187.10 339.30,195.08 340.05,187.22 340.80,195.20 341.55,187.34 342.30,195.32 343.05,187.46 343.80,195.44 344.55,187.58 345.30,195.56 346.05,187.70 346.80,195.68 347.55,187.82 348.30,195.03 349.06,188.34 349.81,195.15 350.56,188.46 351.31,195.27 352.06,188.58 352.81,195.39 353.56,188.70 354.31,195.51 355.06,188.82 355.81,195.62 356.56,188.93 357.31,195.74 358.06,189.05 358.82,195.86 359.57,189.17 360.32,195.25 361.07,189.70 361.82,195.36 362.57,189.82 363.32,195.48 364.07,189.93 364.82,195.59 365.57,190.05 366.32,195.71 367.07,190.16 367.82,195.82 368.57,190.28 369.33,195.93 370.08,190.39 370.83,196.05 371.58,190.50 372.33,195.47 373.08,191.06 373.83,195.58 374.58,191.17 375.33,195.69 376.08,191.29 376.83,195.80 377.58,191.40 378.33,195.92 379.09,191.51 379.84,196.03 380.59,191.62 381.34,196.14 382.09,191.73 382.84,196.25 383.59,191.84 384.34,195.70 385.09,192.42 385.84,195.81 386.59,192.53 387.34,195.92 388.09,192.64 388.84,196.03 389.60,192.75 390.35,196.14 391.10,192.86 391.85,196.25 392.60,192.96 393.35,196.36 394.10,193.07 394.85,196.46 395.60,193.18 396.35,195.95 397.10,193.78 397.85,196.05 398.60,193.89 399.35,196.16 400.11,193.99 400.86,196.27 401.61,194.10 402.36,196.38 403.11,194.21 403.86,196.48 404.61,194.31 405.36,196.59 406.11,194.42 406.86,196.69 407.61,194.53 408.36,196.20 409.11,195.15 409.87,196.31 410.62,195.25 411.37,196.42 412.12,195.36 412.87,196.52 413.62,195.46 414.37,196.63 415.12,195.57 415.87,196.73 416.62,195.67 417.37,196.83 418.12,195.78 418.87,196.94 419.62,195.88 420.38,196.47 421.13,196.53 421.88,196.58 422.63,196.63 423.38,196.68 424.13,196.73 424.88,196.79 425.63,196.84 426.38,196.89 427.13,196.94 427.88,196.99 428.63,197.04 429.38,197.09 430.13,197.15 430.89,197.20 431.64,197.25 432.39,196.76 433.14,197.92 433.89,196.86 434.64,198.02 435.39,196.96 436.14,198.12 436.89,197.07 437.64,198.23 438.39,197.17 439.14,198.33 439.89,197.27 440.65,198.43 441.40,197.37 442.15,198.53 442.90,197.47 443.65,198.63 444.40,197.06 445.15,199.33 445.90,197.16 446.65,199.43 447.40,197.26 448.15,199.53 448.90,197.36 449.65,199.63 450.40,197.46 451.16,199.73 451.91,197.56 452.66,199.83 453.41,197.66 454.16,199.93 454.91,197.76 455.66,200.03 456.41,197.37 457.16,200.76 457.91,197.47 458.66,200.86 459.41,197.57 460.16,200.96 460.91,197.67 461.67,201.06 462.42,197.77 463.17,201.16 463.92,197.87 464.67,201.26 465.42,197.97 466.17,201.36 466.92,198.07 467.67,201.46 468.42,197.70 469.17,202.21 469.92,197.80 470.67,202.31 471.43,197.90 472.18,202.41 472.93,198.00 473.68,202.51 474.43,198.10 475.18,202.61 475.93,198.20 476.68,202.71 477.43,198.29 478.18,202.81 478.93,198.39 479.68,202.91 480.43,198.05 481.18,203.70 481.94,198.15 482.69,203.80 483.44,198.25 484.19,203.89 484.94,198.34 485.69,203.99 486.44,198.44 487.19,204.09 487.94,198.54 488.69,204.19 489.44,198.64 490.19,204.29 490.94,198.74 491.70,204.39 492.45,198.41 493.20,205.21 493.95,198.51 494.70,205.31 495.45,198.61 496.20,205.41 496.95,198.71 497.70,205.51 498.45,198.81 499.20,205.60 499.95,198.90 500.70,205.70 501.45,199.00 502.21,205.80 502.96,199.10 503.71,205.90 504.46,198.80 505.21,206.76 505.96,198.90 506.71,206.86 507.46,198.99 508.21,206.96 508.96,199.09 509.71,207.06 510.46,199.19 511.21,207.16 511.96,199.29 512.72,207.25 513.47,199.39 514.22,207.35 514.97,199.48 515.72,207.45 516.47,199.20 517.22,208.36 517.97,199.30 518.72,208.46 519.47,199.40 520.22,208.55 520.97,199.50 521.72,208.65 522.48,199.60 523.23,208.75 523.98,199.69 524.73,208.85 525.48,199.79 526.23,208.95 526.98,199.89 527.73,209.05 528.48,199.63 529.23,210.00 529.98,199.73 530.73,210.10 531.48,199.83 532.23,210.20 532.99,199.93 533.74,210.29 534.49,200.03 535.24,210.39 535.99,200.12 536.74,210.49 537.49,200.22 538.24,210.59 538.99,200.32 539.74,210.69 540.49,200.08 541.24,211.69 541.99,200.18 542.74,211.79 543.50,200.28 544.25,211.89 545.00,200.38 545.75,211.99 546.50,200.48 547.25,212.09 548.00,200.58 548.75,212.19 549.50,200.68 550.25,212.29 551.00,200.78 551.75,212.39 552.50,200.56 553.26,213.44 554.01,200.66 554.76,213.54 555.51,200.76 556.26,213.64 557.01,200.86 557.76,213.74 558.51,200.96 559.26,213.85 560.01,201.06 560.76,213.95 561.51,201.16 562.26,214.05 563.01,201.27 563.77,214.15 564.52,201.06 565.27,215.26 566.02,201.16 566.77,215.36 567.52,201.27 568.27,215.46 569.02,201.37 569.77,215.57 570.52,201.47 571.27,215.67 572.02,201.57 572.77,215.77 573.52,201.68 574.28,215.88 575.03,201.78 575.78,215.98 576.53,201.60 577.28,217.15 578.03,201.70 578.78,217.26 579.53,201.81 580.28,217.36 581.03,201.91 581.78,217.47 582.53,202.02 583.28,217.57 584.04,202.12 584.79,217.68 585.54,202.23 586.29,217.78 587.04,202.33 587.79,217.89 588.54,202.17 589.29,219.13 590.04,202.27 590.79,219.24 591.54,202.38 592.29,219.34 593.04,202.49 593.79,219.45 594.55,202.60 595.30,219.56 596.05,202.70 596.80,219.67 597.55,202.81 598.30,219.77 599.05,202.92 599.80,219.88 600.55,202.78 601.30,221.20 602.05,202.88 602.80,221.31 603.55,202.99 604.30,221.42 605.06,203.10 605.81,221.53 606.56,203.21 607.31,221.64 608.06,203.33 608.81,221.75 609.56,203.44 610.31,221.87 611.06,203.55 611.81,221.98 612.56,203.42 613.31,223.38 614.06,203.54 614.82,223.50 615.57,203.65 616.32,223.61 617.07,203.76 617.82,223.73 618.57,203.88 619.32,223.84 620.07,203.99 620.82,223.95 621.57,204.11 622.32,224.07 623.07,204.22 623.82,224.19 624.57,204.12 625.33,225.69 626.08,204.24 626.83,225.81 627.58,204.35 628.33,225.93 629.08,204.47 629.83,226.04 630.58,204.59 631.33,226.16 632.08,204.71 632.83,226.28 633.58,204.83 634.33,226.40 635.09,204.95 635.84,226.53 636.59,204.87 637.34,228.14 638.09,204.99 638.84,228.26 639.59,205.11 640.34,228.39 641.09,205.24 641.84,228.51 642.59,205.36 643.34,228.63 644.09,205.49 644.84,228.76 645.60,205.61 646.35,228.89 647.10,205.74 647.85,229.01 648.60,205.68 649.35,230.75 650.10,205.81 650.85,230.88 651.60,205.94 652.35,231.01 653.10,206.07 653.85,231.14 654.60,206.20 655.35,231.28 656.11,206.33 656.86,231.41 657.61,206.46 658.36,231.54 659.11,206.60 659.86,231.68 660.61,206.56 661.36,233.56 662.11,206.69 662.86,233.70 663.61,206.83 664.36,233.84 665.11,206.97 665.87,233.98 666.62,207.11 667.37,234.12 668.12,207.25 668.87,234.26 669.62,207.39 670.37,234.40 671.12,207.53 671.87,234.54 672.62,207.52 673.37,236.60 674.12,207.66 674.87,236.75 675.62,207.81 676.38,236.90 677.13,207.96 677.88,237.05 678.63,208.11 679.38,237.20 680.13,208.26 680.88,237.35 681.63,208.41 682.38,237.50 683.13,208.57 683.88,237.66 684.63,208.58 685.38,239.92 686.13,208.73 686.89,240.08 687.64,208.89 688.39,240.24 689.14,209.05 689.89,240.40 690.64,209.22 691.39,240.56 692.14,209.38 692.89,240.72 693.64,209.54 694.39,240.89 695.14,209.71 695.89,241.06 696.65,209.75 697.40,243.57 698.15,209.92 698.90,243.74 699.65,210.10 700.40,243.92 701.15,210.27 701.90,244.00 702.65,210.45 703.40,244.00 704.15,210.63 704.90,244.00 705.65,210.81 706.40,244.00 707.16,211.00 707.91,244.00 708.66,211.07 709.41,244.00 710.16,211.26 710.91,244.00 711.66,211.46 712.41,244.00 713.16,211.65 713.91,244.00 714.66,211.85 715.41,244.00 716.16,212.05 716.91,244.00 717.67,212.26 718.42,244.00 719.17,212.46 719.92,244.00 720.67,212.57 721.42,244.00 722.17,212.79 722.92,244.00 723.67,213.01 724.42,244.00 725.17,213.23 725.92,244.00 726.67,213.46 727.43,244.00 728.18,213.69 728.93,244.00 729.68,213.92 730.43,244.00 731.18,214.16 731.93,244.00 732.68,214.32 733.43,244.00 734.18,214.57 734.93,244.00 735.68,214.82 736.43,244.00 737.18,215.08 737.94,244.00 738.69,215.34 739.44,244.00 740.19,215.61 740.94,244.00 741.69,215.89 742.44,244.00 743.19,216.17 743.94,244.00 744.69,216.39 745.44,244.00 746.19,216.68 746.94,244.00 747.70,216.99 748.45,244.00 749.20,217.30 749.95,244.00 750.70,217.62 751.45,244.00 752.20,217.95 752.95,244.00 753.70,218.28 754.45,244.00 755.20,218.63 755.95,244.00 756.70,218.93 757.45,244.00 758.21,219.30 758.96,244.00 759.71,219.68 760.46,244.00 761.21,220.08 761.96,244.00 762.71,220.48 763.46,244.00 764.21,220.91 764.96,244.00 765.71,221.34 766.46,244.00 767.21,221.80 767.96,244.00 768.72,222.23 769.47,244.00 770.22,222.73 770.97,244.00 771.72,223.24 772.47,244.00 773.22,223.78 773.97,244.00 774.72,224.35 775.47,244.00 776.22,224.95 776.97,244.00 777.72,225.58 778.48,244.00 779.23,226.24 779.98,244.00 780.73,226.92 781.48,244.00 782.23,227.68 782.98,244.00 783.73,228.49 784.48,244.00 785.23,229.36 785.98,244.00 786.73,230.30 787.48,244.00 788.23,231.33 788.99,244.00 789.74,232.46 790.49,244.00 791.24,233.71 791.99,244.00 792.74,235.12 793.49,244.00 794.24,236.73 794.99,244.00 795.74,238.62 796.49,244.00 797.24,240.88 797.99,244.00 798.74,243.71 799.50,244.00 800.25,244.00 801.00,244.00 801.75,244.00 802.50,244.00 803.25,244.00 804.00,244.00" />
  <text x="420.0" y="22" text-anchor="middle" font-family="Arial, Helvetica, sans-serif" font-size="15" fill="#102a43">triangular window (magnitude spectrum)</text>
  <text x="420.0" y="272" text-anchor="middle" font-family="Arial, Helvetica, sans-serif" font-size="12" fill="#334e68">normalized frequency</text>
  <text x="14" y="140.0" transform="rotate(-90 14,140.0)" text-anchor="middle" font-family="Arial, Helvetica, sans-serif" font-size="12" fill="#334e68">magnitude (dB)</text>
  <text x="36" y="262" font-family="Arial, Helvetica, sans-serif" font-size="11" fill="#486581">0</text>
  <text x="804" y="262" text-anchor="end" font-family="Arial, Helvetica, sans-serif" font-size="11" fill="#486581">1</text>
  <text x="30" y="40" text-anchor="end" font-family="Arial, Helvetica, sans-serif" font-size="11" fill="#486581">0.0</text>
  <text x="30" y="248" text-anchor="end" font-family="Arial, Helvetica, sans-serif" font-size="11" fill="#486581">-160.0</text>
</svg>
