<svg xmlns="http://www.w3.org/2000/svg" width="980" height="360" viewBox="0 0 980 360">
  <rect x="0" y="0" width="980" height="360" fill="#ffffff" />
  <rect x="42" y="42" width="896" height="276" fill="#f7fbff" stroke="#c8d9e6" />
  <polyline fill="none" stroke="#94a3b8" stroke-width="2" points="42.00,234.00 42.75,233.84 43.49,233.68 44.24,233.52 44.99,233.36 45.73,233.20 46.48,233.04 47.23,232.88 47.97,232.72 48.72,232.56 49.47,232.40 50.21,232.24 50.96,232.08 51.71,231.92 52.45,231.76 53.20,231.60 53.95,231.44 54.69,231.28 55.44,231.12 56.19,230.96 56.93,230.80 57.68,230.64 58.43,230.48 59.17,230.32 59.92,230.16 60.67,230.00 61.41,229.84 62.16,229.68 62.91,229.52 63.65,229.36 64.40,229.20 65.15,229.04 65.89,228.88 66.64,228.72 67.39,228.56 68.13,228.40 68.88,228.24 69.63,228.08 70.37,227.92 71.12,227.76 71.87,227.60 72.61,227.44 73.36,227.28 74.11,227.12 74.85,226.96 75.60,226.80 76.35,226.64 77.09,226.48 77.84,226.32 78.59,226.16 79.33,226.00 80.08,225.84 80.83,225.68 81.57,225.52 82.32,225.36 83.07,225.20 83.81,225.04 84.56,224.88 85.31,224.72 86.05,224.56 86.80,224.40 87.55,224.24 88.29,224.08 89.04,223.92 89.79,223.76 90.53,223.60 91.28,223.44 92.03,223.28 92.77,223.12 93.52,222.96 94.27,222.80 95.01,222.64 95.76,222.48 96.51,222.32 97.25,222.16 98.00,222.00 98.75,221.84 99.49,221.68 100.24,221.52 100.99,221.36 101.73,221.20 102.48,221.04 103.23,220.88 103.97,220.72 104.72,220.56 105.47,220.40 106.21,220.24 106.96,220.08 107.71,219.92 108.45,219.76 109.20,219.60 109.95,219.44 110.69,219.28 111.44,219.12 112.19,218.96 112.93,218.80 113.68,218.64 114.43,218.48 115.17,218.32 115.92,218.16 116.67,218.00 117.41,217.84 118.16,217.68 118.91,217.52 119.65,217.36 120.40,217.20 121.15,217.04 121.89,216.88 122.64,216.72 123.39,216.56 124.13,216.40 124.88,216.24 125.63,216.08 126.37,215.92 127.12,215.76 127.87,215.60 128.61,215.44 129.36,215.28 130.11,215.12 130.85,214.96 131.60,214.80 132.35,214.64 133.09,214.48 133.84,214.32 134.59,214.16 135.33,214.00 136.08,213.84 136.83,213.68 137.57,213.52 138.32,213.36 139.07,213.20 139.81,213.04 140.56,212.88 141.31,212.72 142.05,212.56 142.80,212.40 143.55,212.24 144.29,212.08 145.04,211.92 145.79,211.76 146.53,211.60 147.28,211.44 148.03,211.28 148.77,211.12 149.52,210.96 150.27,210.80 151.01,210.64 151.76,210.48 152.51,210.32 153.25,210.16 154.00,210.00 154.75,209.84 155.49,209.68 156.24,209.52 156.99,209.36 157.73,209.20 158.48,209.04 159.23,208.88 159.97,208.72 160.72,208.56 161.47,208.40 162.21,208.24 162.96,208.08 163.71,207.92 164.45,207.76 165.20,207.60 165.95,207.44 166.69,207.28 167.44,207.12 168.19,206.96 168.93,206.80 169.68,206.64 170.43,206.48 171.17,206.32 171.92,206.16 172.67,206.00 173.41,205.84 174.16,205.68 174.91,205.52 175.65,205.36 176.40,205.20 177.15,205.04 177.89,204.88 178.64,204.72 179.39,204.56 180.13,204.40 180.88,204.24 181.63,204.08 182.37,203.92 183.12,203.76 183.87,203.60 184.61,203.44 185.36,203.28 186.11,203.12 186.85,202.96 187.60,202.80 188.35,202.64 189.09,202.48 189.84,202.32 190.59,202.16 191.33,202.00 192.08,201.84 192.83,201.68 193.57,201.52 194.32,201.36 195.07,201.20 195.81,201.04 196.56,200.88 197.31,200.72 198.05,200.56 198.80,200.40 199.55,200.24 200.29,200.08 201.04,199.92 201.79,199.76 202.53,199.60 203.28,199.44 204.03,199.28 204.77,199.12 205.52,198.96 206.27,198.80 207.01,198.64 207.76,198.48 208.51,198.32 209.25,198.16 210.00,198.00 210.75,197.84 211.49,197.68 212.24,197.52 212.99,197.36 213.73,197.20 214.48,197.04 215.23,196.88 215.97,196.72 216.72,196.56 217.47,196.40 218.21,196.24 218.96,196.08 219.71,195.92 220.45,195.76 221.20,195.60 221.95,195.44 222.69,195.28 223.44,195.12 224.19,194.96 224.93,194.80 225.68,194.64 226.43,194.48 227.17,194.32 227.92,194.16 228.67,194.00 229.41,193.84 230.16,193.68 230.91,193.52 231.65,193.36 232.40,193.20 233.15,193.04 233.89,192.88 234.64,192.72 235.39,192.56 236.13,192.40 236.88,192.24 237.63,192.08 238.37,191.92 239.12,191.76 239.87,191.60 240.61,191.44 241.36,191.28 242.11,191.12 242.85,190.96 243.60,190.80 244.35,190.64 245.09,190.48 245.84,190.32 246.59,190.16 247.33,190.00 248.08,189.84 248.83,189.68 249.57,189.52 250.32,189.36 251.07,189.20 251.81,189.04 252.56,188.88 253.31,188.72 254.05,188.56 254.80,188.40 255.55,188.24 256.29,188.08 257.04,187.92 257.79,187.76 258.53,187.60 259.28,187.44 260.03,187.28 260.77,187.12 261.52,186.96 262.27,186.80 263.01,186.64 263.76,186.48 264.51,186.32 265.25,186.16 266.00,186.00 266.75,185.84 267.49,185.68 268.24,185.52 268.99,185.36 269.73,185.20 270.48,185.04 271.23,184.88 271.97,184.72 272.72,184.56 273.47,184.40 274.21,184.24 274.96,184.08 275.71,183.92 276.45,183.76 277.20,183.60 277.95,183.44 278.69,183.28 279.44,183.12 280.19,182.96 280.93,182.80 281.68,182.64 282.43,182.48 283.17,182.32 283.92,182.16 284.67,182.00 285.41,181.84 286.16,181.68 286.91,181.52 287.65,181.36 288.40,181.20 289.15,181.04 289.89,180.88 290.64,180.72 291.39,180.56 292.13,180.40 292.88,180.24 293.63,180.08 294.37,179.92 295.12,179.76 295.87,179.60 296.61,179.44 297.36,179.28 298.11,179.12 298.85,178.96 299.60,178.80 300.35,178.64 301.09,178.48 301.84,178.32 302.59,178.16 303.33,178.00 304.08,177.84 304.83,177.68 305.57,177.52 306.32,177.36 307.07,177.20 307.81,177.04 308.56,176.88 309.31,176.72 310.05,176.56 310.80,176.40 311.55,176.24 312.29,176.08 313.04,175.92 313.79,175.76 314.53,175.60 315.28,175.44 316.03,175.28 316.77,175.12 317.52,174.96 318.27,174.80 319.01,174.64 319.76,174.48 320.51,174.32 321.25,174.16 322.00,174.00 322.75,173.84 323.49,173.68 324.24,173.52 324.99,173.36 325.73,173.20 326.48,173.04 327.23,172.88 327.97,172.72 328.72,172.56 329.47,172.40 330.21,172.24 330.96,172.08 331.71,171.92 332.45,171.76 333.20,171.60 333.95,171.44 334.69,171.28 335.44,171.12 336.19,170.96 336.93,170.80 337.68,170.64 338.43,170.48 339.17,170.32 339.92,170.16 340.67,170.00 341.41,169.84 342.16,169.68 342.91,169.52 343.65,169.36 344.40,169.20 345.15,169.04 345.89,168.88 346.64,168.72 347.39,168.56 348.13,168.40 348.88,168.24 349.63,168.08 350.37,167.92 351.12,167.76 351.87,167.60 352.61,167.44 353.36,167.28 354.11,167.12 354.85,166.96 355.60,166.80 356.35,166.64 357.09,166.48 357.84,166.32 358.59,166.16 359.33,166.00 360.08,165.84 360.83,165.68 361.57,165.52 362.32,165.36 363.07,165.20 363.81,165.04 364.56,164.88 365.31,164.72 366.05,164.56 366.80,164.40 367.55,164.24 368.29,164.08 369.04,163.92 369.79,163.76 370.53,163.60 371.28,163.44 372.03,163.28 372.77,163.12 373.52,162.96 374.27,162.80 375.01,162.64 375.76,162.48 376.51,162.32 377.25,162.16 378.00,162.00 378.75,161.84 379.49,161.68 380.24,161.52 380.99,161.36 381.73,161.20 382.48,161.04 383.23,160.88 383.97,160.72 384.72,160.56 385.47,160.40 386.21,160.24 386.96,160.08 387.71,159.92 388.45,159.76 389.20,159.60 389.95,159.44 390.69,159.28 391.44,159.12 392.19,158.96 392.93,158.80 393.68,158.64 394.43,158.48 395.17,158.32 395.92,158.16 396.67,158.00 397.41,157.84 398.16,157.68 398.91,157.52 399.65,157.36 400.40,157.20 401.15,157.04 401.89,156.88 402.64,156.72 403.39,156.56 404.13,156.40 404.88,156.24 405.63,156.08 406.37,155.92 407.12,155.76 407.87,155.60 408.61,155.44 409.36,155.28 410.11,155.12 410.85,154.96 411.60,154.80 412.35,154.64 413.09,154.48 413.84,154.32 414.59,154.16 415.33,154.00 416.08,153.84 416.83,153.68 417.57,153.52 418.32,153.36 419.07,153.20 419.81,153.04 420.56,152.88 421.31,152.72 422.05,152.56 422.80,152.40 423.55,152.24 424.29,152.08 425.04,151.92 425.79,151.76 426.53,151.60 427.28,151.44 428.03,151.28 428.77,151.12 429.52,150.96 430.27,150.80 431.01,150.64 431.76,150.48 432.51,150.32 433.25,150.16 434.00,150.00 434.75,149.84 435.49,149.68 436.24,149.52 436.99,149.36 437.73,149.20 438.48,149.04 439.23,148.88 439.97,148.72 440.72,148.56 441.47,148.40 442.21,148.24 442.96,148.08 443.71,147.92 444.45,147.76 445.20,147.60 445.95,147.44 446.69,147.28 447.44,147.12 448.19,146.96 448.93,146.80 449.68,146.64 450.43,146.48 451.17,146.32 451.92,146.16 452.67,146.00 453.41,145.84 454.16,145.68 454.91,145.52 455.65,145.36 456.40,145.20 457.15,145.04 457.89,144.88 458.64,144.72 459.39,144.56 460.13,144.40 460.88,144.24 461.63,144.08 462.37,143.92 463.12,143.76 463.87,143.60 464.61,143.44 465.36,143.28 466.11,143.12 466.85,142.96 467.60,142.80 468.35,142.64 469.09,142.48 469.84,142.32 470.59,142.16 471.33,142.00 472.08,141.84 472.83,141.68 473.57,141.52 474.32,141.36 475.07,141.20 475.81,141.04 476.56,140.88 477.31,140.72 478.05,140.56 478.80,140.40 479.55,140.24 480.29,140.08 481.04,139.92 481.79,139.76 482.53,139.60 483.28,139.44 484.03,139.28 484.77,139.12 485.52,138.96 486.27,138.80 487.01,138.64 487.76,138.48 488.51,138.32 489.25,138.16 490.00,138.00 490.75,137.84 491.49,137.68 492.24,137.52 492.99,137.36 493.73,137.20 494.48,137.04 495.23,136.88 495.97,136.72 496.72,136.56 497.47,136.40 498.21,136.24 498.96,136.08 499.71,135.92 500.45,135.76 501.20,135.60 501.95,135.44 502.69,135.28 503.44,135.12 504.19,134.96 504.93,134.80 505.68,134.64 506.43,134.48 507.17,134.32 507.92,134.16 508.67,134.00 509.41,133.84 510.16,133.68 510.91,133.52 511.65,133.36 512.40,133.20 513.15,133.04 513.89,132.88 514.64,132.72 515.39,132.56 516.13,132.40 516.88,132.24 517.63,132.08 518.37,131.92 519.12,131.76 519.87,131.60 520.61,131.44 521.36,131.28 522.11,131.12 522.85,130.96 523.60,130.80 524.35,130.64 525.09,130.48 525.84,130.32 526.59,130.16 527.33,130.00 528.08,129.84 528.83,129.68 529.57,129.52 530.32,129.36 531.07,129.20 531.81,129.04 532.56,128.88 533.31,128.72 534.05,128.56 534.80,128.40 535.55,128.24 536.29,128.08 537.04,127.92 537.79,127.76 538.53,127.60 539.28,127.44 540.03,127.28 540.77,127.12 541.52,126.96 542.27,126.80 543.01,126.64 543.76,126.48 544.51,126.32 545.25,126.16 546.00,126.00 546.75,125.84 547.49,125.68 548.24,125.52 548.99,125.36 549.73,125.20 550.48,125.04 551.23,124.88 551.97,124.72 552.72,124.56 553.47,124.40 554.21,124.24 554.96,124.08 555.71,123.92 556.45,123.76 557.20,123.60 557.95,123.44 558.69,123.28 559.44,123.12 560.19,122.96 560.93,122.80 561.68,122.64 562.43,122.48 563.17,122.32 563.92,122.16 564.67,122.00 565.41,121.84 566.16,121.68 566.91,121.52 567.65,121.36 568.40,121.20 569.15,121.04 569.89,120.88 570.64,120.72 571.39,120.56 572.13,120.40 572.88,120.24 573.63,120.08 574.37,119.92 575.12,119.76 575.87,119.60 576.61,119.44 577.36,119.28 578.11,119.12 578.85,118.96 579.60,118.80 580.35,118.64 581.09,118.48 581.84,118.32 582.59,118.16 583.33,118.00 584.08,117.84 584.83,117.68 585.57,117.52 586.32,117.36 587.07,117.20 587.81,117.04 588.56,116.88 589.31,116.72 590.05,116.56 590.80,116.40 591.55,116.24 592.29,116.08 593.04,115.92 593.79,115.76 594.53,115.60 595.28,115.44 596.03,115.28 596.77,115.12 597.52,114.96 598.27,114.80 599.01,114.64 599.76,114.48 600.51,114.32 601.25,114.16 602.00,114.00 602.75,113.84 603.49,113.68 604.24,113.52 604.99,113.36 605.73,113.20 606.48,113.04 607.23,112.88 607.97,112.72 608.72,112.56 609.47,112.40 610.21,112.24 610.96,112.08 611.71,111.92 612.45,111.76 613.20,111.60 613.95,111.44 614.69,111.28 615.44,111.12 616.19,110.96 616.93,110.80 617.68,110.64 618.43,110.48 619.17,110.32 619.92,110.16 620.67,110.00 621.41,109.84 622.16,109.68 622.91,109.52 623.65,109.36 624.40,109.20 625.15,109.04 625.89,108.88 626.64,108.72 627.39,108.56 628.13,108.40 628.88,108.24 629.63,108.08 630.37,107.92 631.12,107.76 631.87,107.60 632.61,107.44 633.36,107.28 634.11,107.12 634.85,106.96 635.60,106.80 636.35,106.64 637.09,106.48 637.84,106.32 638.59,106.16 639.33,106.00 640.08,105.84 640.83,105.68 641.57,105.52 642.32,105.36 643.07,105.20 643.81,105.04 644.56,104.88 645.31,104.72 646.05,104.56 646.80,104.40 647.55,104.24 648.29,104.08 649.04,103.92 649.79,103.76 650.53,103.60 651.28,103.44 652.03,103.28 652.77,103.12 653.52,102.96 654.27,102.80 655.01,102.64 655.76,102.48 656.51,102.32 657.25,102.16 658.00,102.00 658.75,101.84 659.49,101.68 660.24,101.52 660.99,101.36 661.73,101.20 662.48,101.04 663.23,100.88 663.97,100.72 664.72,100.56 665.47,100.40 666.21,100.24 666.96,100.08 667.71,99.92 668.45,99.76 669.20,99.60 669.95,99.44 670.69,99.28 671.44,99.12 672.19,98.96 672.93,98.80 673.68,98.64 674.43,98.48 675.17,98.32 675.92,98.16 676.67,98.00 677.41,97.84 678.16,97.68 678.91,97.52 679.65,97.36 680.40,97.20 681.15,97.04 681.89,96.88 682.64,96.72 683.39,96.56 684.13,96.40 684.88,96.24 685.63,96.08 686.37,95.92 687.12,95.76 687.87,95.60 688.61,95.44 689.36,95.28 690.11,95.12 690.85,94.96 691.60,94.80 692.35,94.64 693.09,94.48 693.84,94.32 694.59,94.16 695.33,94.00 696.08,93.84 696.83,93.68 697.57,93.52 698.32,93.36 699.07,93.20 699.81,93.04 700.56,92.88 701.31,92.72 702.05,92.56 702.80,92.40 703.55,92.24 704.29,92.08 705.04,91.92 705.79,91.76 706.53,91.60 707.28,91.44 708.03,91.28 708.77,91.12 709.52,90.96 710.27,90.80 711.01,90.64 711.76,90.48 712.51,90.32 713.25,90.16 714.00,90.00 714.75,89.84 715.49,89.68 716.24,89.52 716.99,89.36 717.73,89.20 718.48,89.04 719.23,88.88 719.97,88.72 720.72,88.56 721.47,88.40 722.21,88.24 722.96,88.08 723.71,87.92 724.45,87.76 725.20,87.60 725.95,87.44 726.69,87.28 727.44,87.12 728.19,86.96 728.93,86.80 729.68,86.64 730.43,86.48 731.17,86.32 731.92,86.16 732.67,86.00 733.41,85.84 734.16,85.68 734.91,85.52 735.65,85.36 736.40,85.20 737.15,85.04 737.89,84.88 738.64,84.72 739.39,84.56 740.13,84.40 740.88,84.24 741.63,84.08 742.37,83.92 743.12,83.76 743.87,83.60 744.61,83.44 745.36,83.28 746.11,83.12 746.85,82.96 747.60,82.80 748.35,82.64 749.09,82.48 749.84,82.32 750.59,82.16 751.33,82.00 752.08,81.84 752.83,81.68 753.57,81.52 754.32,81.36 755.07,81.20 755.81,81.04 756.56,80.88 757.31,80.72 758.05,80.56 758.80,80.40 759.55,80.24 760.29,80.08 761.04,79.92 761.79,79.76 762.53,79.60 763.28,79.44 764.03,79.28 764.77,79.12 765.52,78.96 766.27,78.80 767.01,78.64 767.76,78.48 768.51,78.32 769.25,78.16 770.00,78.00 770.75,77.84 771.49,77.68 772.24,77.52 772.99,77.36 773.73,77.20 774.48,77.04 775.23,76.88 775.97,76.72 776.72,76.56 777.47,76.40 778.21,76.24 778.96,76.08 779.71,75.92 780.45,75.76 781.20,75.60 781.95,75.44 782.69,75.28 783.44,75.12 784.19,74.96 784.93,74.80 785.68,74.64 786.43,74.48 787.17,74.32 787.92,74.16 788.67,74.00 789.41,73.84 790.16,73.68 790.91,73.52 791.65,73.36 792.40,73.20 793.15,73.04 793.89,72.88 794.64,72.72 795.39,72.56 796.13,72.40 796.88,72.24 797.63,72.08 798.37,71.92 799.12,71.76 799.87,71.60 800.61,71.44 801.36,71.28 802.11,71.12 802.85,70.96 803.60,70.80 804.35,70.64 805.09,70.48 805.84,70.32 806.59,70.16 807.33,70.00 808.08,69.84 808.83,69.68 809.57,69.52 810.32,69.36 811.07,69.20 811.81,69.04 812.56,68.88 813.31,68.72 814.05,68.56 814.80,68.40 815.55,68.24 816.29,68.08 817.04,67.92 817.79,67.76 818.53,67.60 819.28,67.44 820.03,67.28 820.77,67.12 821.52,66.96 822.27,66.80 823.01,66.64 823.76,66.48 824.51,66.32 825.25,66.16 826.00,66.00 826.75,65.84 827.49,65.68 828.24,65.52 828.99,65.36 829.73,65.20 830.48,65.04 831.23,64.88 831.97,64.72 832.72,64.56 833.47,64.40 834.21,64.24 834.96,64.08 835.71,63.92 836.45,63.76 837.20,63.60 837.95,63.44 838.69,63.28 839.44,63.12 840.19,62.96 840.93,62.80 841.68,62.64 842.43,62.48 843.17,62.32 843.92,62.16 844.67,62.00 845.41,61.84 846.16,61.68 846.91,61.52 847.65,61.36 848.40,61.20 849.15,61.04 849.89,60.88 850.64,60.72 851.39,60.56 852.13,60.40 852.88,60.24 853.63,60.08 854.37,59.92 855.12,59.76 855.87,59.60 856.61,59.44 857.36,59.28 858.11,59.12 858.85,58.96 859.60,58.80 860.35,58.64 861.09,58.48 861.84,58.32 862.59,58.16 863.33,58.00 864.08,57.84 864.83,57.68 865.57,57.52 866.32,57.36 867.07,57.20 867.81,57.04 868.56,56.88 869.31,56.72 870.05,56.56 870.80,56.40 871.55,56.24 872.29,56.08 873.04,55.92 873.79,55.76 874.53,55.60 875.28,55.44 876.03,55.28 876.77,55.12 877.52,54.96 878.27,54.80 879.01,54.64 879.76,54.48 880.51,54.32 881.25,54.16 882.00,54.00 882.75,53.84 883.49,53.68 884.24,53.52 884.99,53.36 885.73,53.20 886.48,53.04 887.23,52.88 887.97,52.72 888.72,52.56 889.47,52.40 890.21,52.24 890.96,52.08 891.71,51.92 892.45,51.76 893.20,51.60 893.95,51.44 894.69,51.28 895.44,51.12 896.19,50.96 896.93,50.80 897.68,50.64 898.43,50.48 899.17,50.32 899.92,50.16 900.67,50.00 901.41,49.84 902.16,49.68 902.91,49.52 903.65,49.36 904.40,49.20 905.15,49.04 905.89,48.88 906.64,48.72 907.39,48.56 908.13,48.40 908.88,48.24 909.63,48.08 910.37,47.92 911.12,47.76 911.87,47.60 912.61,47.44 913.36,47.28 914.11,47.12 914.85,46.96 915.60,46.80 916.35,46.64 917.09,46.48 917.84,46.32 918.59,46.16 919.33,46.00 920.08,45.84 920.83,45.68 921.57,45.52 922.32,45.36 923.07,45.20 923.81,45.04 924.56,44.88 925.31,44.72 926.05,44.56 926.80,44.40 927.55,44.24 928.29,44.08 929.04,43.92 929.79,43.76 930.53,43.60 931.28,43.44 932.03,43.28 932.77,43.12 933.52,42.96 934.27,42.80 935.01,42.64 935.76,42.48 936.51,42.32 937.25,42.16 938.00,42.00" /> <polyline fill="none" stroke="#ee9b00" stroke-width="2" points="42.00,234.00 42.75,233.84 43.49,233.68 44.24,233.52 44.99,233.36 45.73,233.20 46.48,233.04 47.23,232.88 47.97,232.72 48.72,232.56 49.47,232.40 50.21,232.24 50.96,232.08 51.71,231.92 52.45,231.76 53.20,231.60 53.95,231.44 54.69,231.28 55.44,231.12 56.19,230.96 56.93,230.80 57.68,230.64 58.43,230.48 59.17,230.32 59.92,230.16 60.67,230.00 61.41,229.84 62.16,229.68 62.91,229.52 63.65,229.36 64.40,229.20 65.15,229.04 65.89,228.88 66.64,228.72 67.39,228.56 68.13,228.40 68.88,228.24 69.63,228.08 70.37,227.92 71.12,227.76 71.87,227.60 72.61,227.44 73.36,227.28 74.11,227.12 74.85,226.96 75.60,226.80 76.35,226.64 77.09,226.48 77.84,226.32 78.59,226.16 79.33,226.00 80.08,225.84 80.83,225.68 81.57,225.52 82.32,225.36 83.07,225.20 83.81,225.04 84.56,224.88 85.31,224.72 86.05,224.56 86.80,224.40 87.55,224.24 88.29,224.08 89.04,223.92 89.79,223.76 90.53,223.60 91.28,223.44 92.03,223.28 92.77,223.12 93.52,222.96 94.27,222.80 95.01,222.64 95.76,222.48 96.51,222.32 97.25,222.16 98.00,222.00 98.75,221.84 99.49,221.68 100.24,221.52 100.99,221.36 101.73,221.20 102.48,221.04 103.23,220.88 103.97,220.72 104.72,220.56 105.47,220.40 106.21,220.24 106.96,220.08 107.71,219.92 108.45,219.76 109.20,219.60 109.95,219.44 110.69,219.28 111.44,219.12 112.19,218.96 112.93,218.80 113.68,218.64 114.43,218.48 115.17,218.32 115.92,218.16 116.67,218.00 117.41,217.84 118.16,217.68 118.91,217.52 119.65,217.36 120.40,217.20 121.15,217.04 121.89,216.88 122.64,216.72 123.39,216.56 124.13,216.40 124.88,216.24 125.63,216.08 126.37,215.92 127.12,215.76 127.87,215.60 128.61,215.44 129.36,215.28 130.11,215.12 130.85,214.96 131.60,214.80 132.35,214.64 133.09,214.48 133.84,214.32 134.59,214.16 135.33,214.00 136.08,213.84 136.83,213.68 137.57,213.52 138.32,213.36 139.07,213.20 139.81,213.04 140.56,212.88 141.31,212.72 142.05,212.56 142.80,212.40 143.55,212.24 144.29,212.08 145.04,211.92 145.79,211.76 146.53,211.60 147.28,211.44 148.03,211.28 148.77,211.12 149.52,210.96 150.27,210.80 151.01,210.64 151.76,210.48 152.51,210.32 153.25,210.16 154.00,210.00 154.75,209.84 155.49,209.68 156.24,209.52 156.99,209.36 157.73,209.20 158.48,209.04 159.23,208.88 159.97,208.72 160.72,208.56 161.47,208.40 162.21,208.24 162.96,208.08 163.71,207.92 164.45,207.76 165.20,207.60 165.95,207.44 166.69,207.28 167.44,207.12 168.19,206.96 168.93,206.80 169.68,206.64 170.43,206.48 171.17,206.32 171.92,206.16 172.67,206.00 173.41,205.84 174.16,205.68 174.91,205.52 175.65,205.36 176.40,205.20 177.15,205.04 177.89,204.88 178.64,204.72 179.39,204.56 180.13,204.40 180.88,204.24 181.63,204.08 182.37,203.92 183.12,203.76 183.87,203.60 184.61,203.44 185.36,203.28 186.11,203.12 186.85,202.96 187.60,202.80 188.35,202.64 189.09,202.48 189.84,202.32 190.59,202.16 191.33,202.00 192.08,201.84 192.83,201.68 193.57,201.52 194.32,201.36 195.07,201.20 195.81,201.04 196.56,200.88 197.31,200.72 198.05,200.56 198.80,200.40 199.55,200.24 200.29,200.08 201.04,199.92 201.79,199.76 202.53,199.60 203.28,199.44 204.03,199.28 204.77,199.12 205.52,198.96 206.27,198.80 207.01,198.64 207.76,198.48 208.51,198.32 209.25,198.16 210.00,198.00 210.75,197.84 211.49,197.68 212.24,197.52 212.99,197.36 213.73,197.20 214.48,197.04 215.23,196.88 215.97,196.72 216.72,196.56 217.47,196.40 218.21,196.24 218.96,196.08 219.71,195.92 220.45,195.76 221.20,195.60 221.95,195.44 222.69,195.28 223.44,195.12 224.19,194.96 224.93,194.80 225.68,194.64 226.43,194.48 227.17,194.32 227.92,194.16 228.67,194.00 229.41,193.84 230.16,193.68 230.91,193.52 231.65,193.36 232.40,193.20 233.15,193.04 233.89,192.88 234.64,192.72 235.39,192.56 236.13,192.40 236.88,192.24 237.63,192.08 238.37,191.92 239.12,191.76 239.87,191.60 240.61,191.44 241.36,191.28 242.11,191.12 242.85,190.96 243.60,190.80 244.35,190.64 245.09,190.48 245.84,190.32 246.59,190.16 247.33,190.00 248.08,189.84 248.83,189.68 249.57,189.52 250.32,189.36 251.07,189.20 251.81,189.04 252.56,188.88 253.31,188.72 254.05,188.56 254.80,188.40 255.55,188.24 256.29,188.08 257.04,187.92 257.79,187.76 258.53,187.60 259.28,187.44 260.03,187.28 260.77,187.12 261.52,186.96 262.27,186.80 263.01,186.64 263.76,186.48 264.51,186.32 265.25,186.16 266.00,186.00 266.75,185.84 267.49,185.68 268.24,185.52 268.99,185.36 269.73,185.20 270.48,185.04 271.23,184.88 271.97,184.72 272.72,184.56 273.47,184.40 274.21,184.24 274.96,184.08 275.71,183.92 276.45,183.76 277.20,183.60 277.95,183.44 278.69,183.28 279.44,183.12 280.19,182.96 280.93,182.80 281.68,182.64 282.43,182.48 283.17,182.32 283.92,182.16 284.67,182.00 285.41,181.84 286.16,181.68 286.91,181.52 287.65,181.36 288.40,181.20 289.15,181.04 289.89,180.88 290.64,180.72 291.39,180.56 292.13,180.40 292.88,180.24 293.63,180.08 294.37,179.92 295.12,179.76 295.87,179.60 296.61,179.44 297.36,179.28 298.11,179.12 298.85,178.96 299.60,178.80 300.35,178.64 301.09,178.48 301.84,178.32 302.59,178.16 303.33,178.00 304.08,177.84 304.83,177.68 305.57,177.52 306.32,177.36 307.07,177.20 307.81,177.04 308.56,176.88 309.31,176.72 310.05,176.56 310.80,176.40 311.55,176.24 312.29,176.08 313.04,175.92 313.79,175.76 314.53,175.60 315.28,175.44 316.03,175.28 316.77,175.12 317.52,174.96 318.27,174.80 319.01,174.64 319.76,174.48 320.51,174.32 321.25,174.16 322.00,174.00 322.75,173.84 323.49,173.68 324.24,173.52 324.99,173.36 325.73,173.20 326.48,173.04 327.23,172.88 327.97,172.72 328.72,172.56 329.47,172.40 330.21,172.24 330.96,172.08 331.71,171.92 332.45,171.76 333.20,171.60 333.95,171.44 334.69,171.28 335.44,171.12 336.19,170.96 336.93,170.80 337.68,170.64 338.43,170.48 339.17,170.32 339.92,170.16 340.67,170.00 341.41,169.84 342.16,169.68 342.91,169.52 343.65,169.36 344.40,169.20 345.15,169.04 345.89,168.88 346.64,168.72 347.39,168.56 348.13,168.40 348.88,168.24 349.63,168.08 350.37,167.92 351.12,167.76 351.87,167.60 352.61,167.44 353.36,167.28 354.11,167.12 354.85,166.96 355.60,166.80 356.35,166.64 357.09,166.48 357.84,166.32 358.59,166.16 359.33,166.00 360.08,165.84 360.83,165.68 361.57,165.52 362.32,165.36 363.07,165.20 363.81,165.04 364.56,164.88 365.31,164.72 366.05,164.56 366.80,164.40 367.55,164.24 368.29,164.08 369.04,163.92 369.79,163.76 370.53,163.60 371.28,163.44 372.03,163.28 372.77,163.12 373.52,162.96 374.27,162.80 375.01,162.64 375.76,162.48 376.51,162.32 377.25,162.16 378.00,162.00 378.75,161.84 379.49,161.68 380.24,161.52 380.99,161.36 381.73,161.20 382.48,161.04 383.23,160.88 383.97,160.72 384.72,160.56 385.47,160.40 386.21,160.24 386.96,160.08 387.71,159.92 388.45,159.76 389.20,159.60 389.95,159.44 390.69,159.28 391.44,159.12 392.19,158.96 392.93,158.80 393.68,158.64 394.43,158.48 395.17,158.32 395.92,158.16 396.67,158.00 397.41,157.84 398.16,157.68 398.91,157.52 399.65,157.36 400.40,157.20 401.15,157.04 401.89,156.88 402.64,156.72 403.39,156.56 404.13,156.40 404.88,156.24 405.63,156.08 406.37,155.92 407.12,155.76 407.87,155.60 408.61,155.44 409.36,155.28 410.11,155.12 410.85,154.96 411.60,154.80 412.35,154.64 413.09,154.48 413.84,154.32 414.59,154.16 415.33,154.00 416.08,153.84 416.83,153.68 417.57,153.52 418.32,153.36 419.07,153.20 419.81,153.04 420.56,152.88 421.31,152.72 422.05,152.56 422.80,152.40 423.55,152.24 424.29,152.08 425.04,151.92 425.79,151.76 426.53,151.60 427.28,151.44 428.03,151.28 428.77,151.12 429.52,150.96 430.27,150.80 431.01,150.64 431.76,150.48 432.51,150.32 433.25,150.16 434.00,150.00 434.75,149.84 435.49,149.68 436.24,149.52 436.99,149.36 437.73,149.20 438.48,149.04 439.23,148.88 439.97,148.72 440.72,148.56 441.47,148.40 442.21,148.24 442.96,148.08 443.71,147.92 444.45,147.76 445.20,147.60 445.95,147.44 446.69,147.28 447.44,147.12 448.19,146.96 448.93,146.80 449.68,146.64 450.43,146.48 451.17,146.32 451.92,146.16 452.67,146.00 453.41,145.84 454.16,145.68 454.91,145.52 455.65,145.36 456.40,145.20 457.15,145.04 457.89,144.88 458.64,144.72 459.39,144.56 460.13,144.40 460.88,144.24 461.63,144.08 462.37,143.92 463.12,143.76 463.87,143.60 464.61,143.44 465.36,143.28 466.11,143.12 466.85,142.96 467.60,142.80 468.35,142.64 469.09,142.48 469.84,142.32 470.59,142.16 471.33,142.00 472.08,141.84 472.83,141.68 473.57,141.52 474.32,141.36 475.07,141.20 475.81,141.04 476.56,140.88 477.31,140.72 478.05,140.56 478.80,140.40 479.55,140.24 480.29,140.08 481.04,139.92 481.79,139.76 482.53,139.60 483.28,139.44 484.03,139.28 484.77,139.12 485.52,138.96 486.27,138.80 487.01,138.64 487.76,138.48 488.51,138.32 489.25,138.16 490.00,138.00 490.75,137.84 491.49,137.68 492.24,137.52 492.99,137.36 493.73,137.20 494.48,137.04 495.23,136.88 495.97,136.72 496.72,136.56 497.47,136.40 498.21,136.24 498.96,136.08 499.71,135.92 500.45,135.76 501.20,135.60 501.95,135.44 502.69,135.28 503.44,135.12 504.19,134.96 504.93,134.80 505.68,134.64 506.43,134.48 507.17,134.32 507.92,134.16 508.67,134.00 509.41,133.84 510.16,133.68 510.91,133.52 511.65,133.36 512.40,133.20 513.15,133.04 513.89,132.88 514.64,132.72 515.39,132.56 516.13,132.40 516.88,132.24 517.63,132.08 518.37,131.92 519.12,131.76 519.87,131.60 520.61,131.44 521.36,131.28 522.11,131.12 522.85,130.96 523.60,130.80 524.35,130.64 525.09,130.48 525.84,130.32 526.59,130.16 527.33,130.00 528.08,129.84 528.83,129.68 529.57,129.52 530.32,129.36 531.07,129.20 531.81,129.04 532.56,128.88 533.31,128.72 534.05,128.56 534.80,128.40 535.55,128.24 536.29,128.08 537.04,127.92 537.79,127.76 538.53,127.60 539.28,127.44 540.03,127.28 540.77,127.12 541.52,126.96 542.27,126.80 543.01,126.64 543.76,126.48 544.51,126.32 545.25,126.16 546.00,126.00 546.75,125.84 547.49,125.68 548.24,125.52 548.99,125.36 549.73,125.20 550.48,125.04 551.23,124.88 551.97,124.72 552.72,124.56 553.47,124.40 554.21,124.24 554.96,124.08 555.71,123.92 556.45,123.76 557.20,123.60 557.95,123.44 558.69,123.28 559.44,123.12 560.19,122.96 560.93,122.80 561.68,122.64 562.43,122.48 563.17,122.32 563.92,122.16 564.67,122.00 565.41,121.84 566.16,121.68 566.91,121.52 567.65,121.36 568.40,121.20 569.15,121.04 569.89,120.88 570.64,120.72 571.39,120.56 572.13,120.40 572.88,120.24 573.63,120.08 574.37,119.92 575.12,119.76 575.87,119.60 576.61,119.44 577.36,119.28 578.11,119.12 578.85,118.96 579.60,118.80 580.35,118.64 581.09,118.48 581.84,118.32 582.59,118.16 583.33,118.00 584.08,117.84 584.83,117.68 585.57,117.52 586.32,117.36 587.07,117.20 587.81,117.04 588.56,116.88 589.31,116.72 590.05,116.56 590.80,116.40 591.55,116.24 592.29,116.08 593.04,115.92 593.79,115.76 594.53,115.60 595.28,115.44 596.03,115.28 596.77,115.12 597.52,114.96 598.27,114.80 599.01,114.64 599.76,114.48 600.51,114.32 601.25,114.16 602.00,114.00 602.75,113.84 603.49,113.68 604.24,113.52 604.99,113.36 605.73,113.20 606.48,113.04 607.23,112.88 607.97,112.72 608.72,112.56 609.47,112.40 610.21,112.24 610.96,112.08 611.71,111.92 612.45,111.76 613.20,111.60 613.95,111.44 614.69,111.28 615.44,111.12 616.19,110.96 616.93,110.80 617.68,110.64 618.43,110.48 619.17,110.32 619.92,110.16 620.67,110.00 621.41,109.84 622.16,109.68 622.91,109.52 623.65,109.36 624.40,109.20 625.15,109.04 625.89,108.88 626.64,108.72 627.39,108.56 628.13,108.40 628.88,108.24 629.63,108.08 630.37,107.92 631.12,107.76 631.87,107.60 632.61,107.44 633.36,107.28 634.11,107.12 634.85,106.96 635.60,106.80 636.35,106.64 637.09,106.48 637.84,106.32 638.59,106.16 639.33,106.00 640.08,105.84 640.83,105.68 641.57,105.52 642.32,105.36 643.07,105.20 643.81,105.04 644.56,104.88 645.31,104.72 646.05,104.56 646.80,104.40 647.55,104.24 648.29,104.08 649.04,103.92 649.79,103.76 650.53,103.60 651.28,103.44 652.03,103.28 652.77,103.12 653.52,102.96 654.27,102.80 655.01,102.64 655.76,102.48 656.51,102.32 657.25,102.16 658.00,102.00 658.75,101.84 659.49,101.68 660.24,101.52 660.99,101.36 661.73,101.20 662.48,101.04 663.23,100.88 663.97,100.72 664.72,100.56 665.47,100.40 666.21,100.24 666.96,100.08 667.71,99.92 668.45,99.76 669.20,99.60 669.95,99.56 670.69,99.52 671.44,99.48 672.19,99.44 672.93,99.40 673.68,99.36 674.43,99.32 675.17,99.28 675.92,99.24 676.67,99.20 677.41,99.16 678.16,99.12 678.91,99.08 679.65,99.04 680.40,99.00 681.15,98.96 681.89,98.92 682.64,98.88 683.39,98.84 684.13,98.80 684.88,98.76 685.63,98.72 686.37,98.68 687.12,98.64 687.87,98.60 688.61,98.56 689.36,98.52 690.11,98.48 690.85,98.44 691.60,98.40 692.35,98.36 693.09,98.32 693.84,98.28 694.59,98.24 695.33,98.20 696.08,98.16 696.83,98.12 697.57,98.08 698.32,98.04 699.07,98.00 699.81,97.96 700.56,97.92 701.31,97.88 702.05,97.84 702.80,97.80 703.55,97.76 704.29,97.72 705.04,97.68 705.79,97.64 706.53,97.60 707.28,97.56 708.03,97.52 708.77,97.48 709.52,97.44 710.27,97.40 711.01,97.36 711.76,97.32 712.51,97.28 713.25,97.24 714.00,97.20 714.75,97.16 715.49,97.12 716.24,97.08 716.99,97.04 717.73,97.00 718.48,96.96 719.23,96.92 719.97,96.88 720.72,96.84 721.47,96.80 722.21,96.76 722.96,96.72 723.71,96.68 724.45,96.64 725.20,96.60 725.95,96.56 726.69,96.52 727.44,96.48 728.19,96.44 728.93,96.40 729.68,96.36 730.43,96.32 731.17,96.28 731.92,96.24 732.67,96.20 733.41,96.16 734.16,96.12 734.91,96.08 735.65,96.04 736.40,96.00 737.15,95.96 737.89,95.92 738.64,95.88 739.39,95.84 740.13,95.80 740.88,95.76 741.63,95.72 742.37,95.68 743.12,95.64 743.87,95.60 744.61,95.56 745.36,95.52 746.11,95.48 746.85,95.44 747.60,95.40 748.35,95.36 749.09,95.32 749.84,95.28 750.59,95.24 751.33,95.20 752.08,95.16 752.83,95.12 753.57,95.08 754.32,95.04 755.07,95.00 755.81,94.96 756.56,94.92 757.31,94.88 758.05,94.84 758.80,94.80 759.55,94.76 760.29,94.72 761.04,94.68 761.79,94.64 762.53,94.60 763.28,94.56 764.03,94.52 764.77,94.48 765.52,94.44 766.27,94.40 767.01,94.36 767.76,94.32 768.51,94.28 769.25,94.24 770.00,94.20 770.75,94.16 771.49,94.12 772.24,94.08 772.99,94.04 773.73,94.00 774.48,93.96 775.23,93.92 775.97,93.88 776.72,93.84 777.47,93.80 778.21,93.76 778.96,93.72 779.71,93.68 780.45,93.64 781.20,93.60 781.95,93.56 782.69,93.52 783.44,93.48 784.19,93.44 784.93,93.40 785.68,93.36 786.43,93.32 787.17,93.28 787.92,93.24 788.67,93.20 789.41,93.16 790.16,93.12 790.91,93.08 791.65,93.04 792.40,93.00 793.15,92.96 793.89,92.92 794.64,92.88 795.39,92.84 796.13,92.80 796.88,92.76 797.63,92.72 798.37,92.68 799.12,92.64 799.87,92.60 800.61,92.56 801.36,92.52 802.11,92.48 802.85,92.44 803.60,92.40 804.35,92.36 805.09,92.32 805.84,92.28 806.59,92.24 807.33,92.20 808.08,92.16 808.83,92.12 809.57,92.08 810.32,92.04 811.07,92.00 811.81,91.96 812.56,91.92 813.31,91.88 814.05,91.84 814.80,91.80 815.55,91.76 816.29,91.72 817.04,91.68 817.79,91.64 818.53,91.60 819.28,91.56 820.03,91.52 820.77,91.48 821.52,91.44 822.27,91.40 823.01,91.36 823.76,91.32 824.51,91.28 825.25,91.24 826.00,91.20 826.75,91.16 827.49,91.12 828.24,91.08 828.99,91.04 829.73,91.00 830.48,90.96 831.23,90.92 831.97,90.88 832.72,90.84 833.47,90.80 834.21,90.76 834.96,90.72 835.71,90.68 836.45,90.64 837.20,90.60 837.95,90.56 838.69,90.52 839.44,90.48 840.19,90.44 840.93,90.40 841.68,90.36 842.43,90.32 843.17,90.28 843.92,90.24 844.67,90.20 845.41,90.16 846.16,90.12 846.91,90.08 847.65,90.04 848.40,90.00 849.15,89.96 849.89,89.92 850.64,89.88 851.39,89.84 852.13,89.80 852.88,89.76 853.63,89.72 854.37,89.68 855.12,89.64 855.87,89.60 856.61,89.56 857.36,89.52 858.11,89.48 858.85,89.44 859.60,89.40 860.35,89.36 861.09,89.32 861.84,89.28 862.59,89.24 863.33,89.20 864.08,89.16 864.83,89.12 865.57,89.08 866.32,89.04 867.07,89.00 867.81,88.96 868.56,88.92 869.31,88.88 870.05,88.84 870.80,88.80 871.55,88.76 872.29,88.72 873.04,88.68 873.79,88.64 874.53,88.60 875.28,88.56 876.03,88.52 876.77,88.48 877.52,88.44 878.27,88.40 879.01,88.36 879.76,88.32 880.51,88.28 881.25,88.24 882.00,88.20 882.75,88.16 883.49,88.12 884.24,88.08 884.99,88.04 885.73,88.00 886.48,87.96 887.23,87.92 887.97,87.88 888.72,87.84 889.47,87.80 890.21,87.76 890.96,87.72 891.71,87.68 892.45,87.64 893.20,87.60 893.95,87.56 894.69,87.52 895.44,87.48 896.19,87.44 896.93,87.40 897.68,87.36 898.43,87.32 899.17,87.28 899.92,87.24 900.67,87.20 901.41,87.16 902.16,87.12 902.91,87.08 903.65,87.04 904.40,87.00 905.15,86.96 905.89,86.92 906.64,86.88 907.39,86.84 908.13,86.80 908.88,86.76 909.63,86.72 910.37,86.68 911.12,86.64 911.87,86.60 912.61,86.56 913.36,86.52 914.11,86.48 914.85,86.44 915.60,86.40 916.35,86.36 917.09,86.32 917.84,86.28 918.59,86.24 919.33,86.20 920.08,86.16 920.83,86.12 921.57,86.08 922.32,86.04 923.07,86.00 923.81,85.96 924.56,85.92 925.31,85.88 926.05,85.84 926.80,85.80 927.55,85.76 928.29,85.72 929.04,85.68 929.79,85.64 930.53,85.60 931.28,85.56 932.03,85.52 932.77,85.48 933.52,85.44 934.27,85.40 935.01,85.36 935.76,85.32 936.51,85.28 937.25,85.24 938.00,85.20" /> <polyline fill="none" stroke="#ca6702" stroke-width="2" points="42.00,318.00 42.75,317.68 43.49,317.36 44.24,317.04 44.99,316.72 45.73,316.40 46.48,316.08 47.23,315.76 47.97,315.44 48.72,315.12 49.47,314.80 50.21,314.48 50.96,314.16 51.71,313.84 52.45,313.52 53.20,313.20 53.95,312.88 54.69,312.56 55.44,312.24 56.19,311.92 56.93,311.60 57.68,311.28 58.43,310.96 59.17,310.64 59.92,310.32 60.67,310.00 61.41,309.68 62.16,309.36 62.91,309.04 63.65,308.72 64.40,308.40 65.15,308.08 65.89,307.76 66.64,307.44 67.39,307.12 68.13,306.80 68.88,306.48 69.63,306.16 70.37,305.84 71.12,305.52 71.87,305.20 72.61,304.88 73.36,304.56 74.11,304.24 74.85,303.92 75.60,303.60 76.35,303.28 77.09,302.96 77.84,302.64 78.59,302.32 79.33,302.00 80.08,301.68 80.83,301.36 81.57,301.04 82.32,300.72 83.07,300.40 83.81,300.08 84.56,299.76 85.31,299.44 86.05,299.12 86.80,298.80 87.55,298.48 88.29,298.16 89.04,297.84 89.79,297.52 90.53,297.20 91.28,296.88 92.03,296.56 92.77,296.24 93.52,295.92 94.27,295.60 95.01,295.28 95.76,294.96 96.51,294.64 97.25,294.32 98.00,294.00 98.75,293.68 99.49,293.36 100.24,293.04 100.99,292.72 101.73,292.40 102.48,292.08 103.23,291.76 103.97,291.44 104.72,291.12 105.47,290.80 106.21,290.48 106.96,290.16 107.71,289.84 108.45,289.52 109.20,289.20 109.95,288.88 110.69,288.56 111.44,288.24 112.19,287.92 112.93,287.60 113.68,287.28 114.43,286.96 115.17,286.64 115.92,286.32 116.67,286.00 117.41,285.68 118.16,285.36 118.91,285.04 119.65,284.72 120.40,284.40 121.15,284.08 121.89,283.76 122.64,283.44 123.39,283.12 124.13,282.80 124.88,282.48 125.63,282.16 126.37,281.84 127.12,281.52 127.87,281.20 128.61,280.88 129.36,280.56 130.11,280.24 130.85,279.92 131.60,279.60 132.35,279.28 133.09,278.96 133.84,278.64 134.59,278.32 135.33,278.00 136.08,277.68 136.83,277.36 137.57,277.04 138.32,276.72 139.07,276.40 139.81,276.08 140.56,275.76 141.31,275.44 142.05,275.12 142.80,274.80 143.55,274.48 144.29,274.16 145.04,273.84 145.79,273.52 146.53,273.20 147.28,272.88 148.03,272.56 148.77,272.24 149.52,271.92 150.27,271.60 151.01,271.28 151.76,270.96 152.51,270.64 153.25,270.32 154.00,270.00 154.75,269.68 155.49,269.36 156.24,269.04 156.99,268.72 157.73,268.40 158.48,268.08 159.23,267.76 159.97,267.44 160.72,267.12 161.47,266.80 162.21,266.48 162.96,266.16 163.71,265.84 164.45,265.52 165.20,265.20 165.95,264.88 166.69,264.56 167.44,264.24 168.19,263.92 168.93,263.60 169.68,263.28 170.43,262.96 171.17,262.64 171.92,262.32 172.67,262.00 173.41,261.68 174.16,261.36 174.91,261.04 175.65,260.72 176.40,260.40 177.15,260.08 177.89,259.76 178.64,259.44 179.39,259.12 180.13,258.80 180.88,258.48 181.63,258.16 182.37,257.84 183.12,257.52 183.87,257.20 184.61,256.88 185.36,256.56 186.11,256.24 186.85,255.92 187.60,255.60 188.35,255.28 189.09,254.96 189.84,254.64 190.59,254.32 191.33,254.00 192.08,253.68 192.83,253.36 193.57,253.04 194.32,252.72 195.07,252.40 195.81,252.08 196.56,251.76 197.31,251.44 198.05,251.12 198.80,250.80 199.55,250.48 200.29,250.16 201.04,249.84 201.79,249.52 202.53,249.20 203.28,248.88 204.03,248.56 204.77,248.24 205.52,247.92 206.27,247.60 207.01,247.28 207.76,246.96 208.51,246.64 209.25,246.32 210.00,246.00 210.75,245.68 211.49,245.36 212.24,245.04 212.99,244.72 213.73,244.40 214.48,244.08 215.23,243.76 215.97,243.44 216.72,243.12 217.47,242.80 218.21,242.48 218.96,242.16 219.71,241.84 220.45,241.52 221.20,241.20 221.95,240.88 222.69,240.56 223.44,240.24 224.19,239.92 224.93,239.60 225.68,239.28 226.43,238.96 227.17,238.64 227.92,238.32 228.67,238.00 229.41,237.68 230.16,237.36 230.91,237.04 231.65,236.72 232.40,236.40 233.15,236.08 233.89,235.76 234.64,235.44 235.39,235.12 236.13,234.80 236.88,234.48 237.63,234.16 238.37,233.84 239.12,233.52 239.87,233.20 240.61,232.88 241.36,232.56 242.11,232.24 242.85,231.92 243.60,231.60 244.35,231.28 245.09,230.96 245.84,230.64 246.59,230.32 247.33,230.00 248.08,229.68 248.83,229.36 249.57,229.04 250.32,228.72 251.07,228.40 251.81,228.08 252.56,227.76 253.31,227.44 254.05,227.12 254.80,226.80 255.55,226.48 256.29,226.16 257.04,225.84 257.79,225.52 258.53,225.20 259.28,224.88 260.03,224.56 260.77,224.24 261.52,223.92 262.27,223.60 263.01,223.28 263.76,222.96 264.51,222.64 265.25,222.32 266.00,222.00 266.75,221.68 267.49,221.36 268.24,221.04 268.99,220.72 269.73,220.40 270.48,220.08 271.23,219.76 271.97,219.44 272.72,219.12 273.47,218.80 274.21,218.48 274.96,218.16 275.71,217.84 276.45,217.52 277.20,217.20 277.95,216.88 278.69,216.56 279.44,216.24 280.19,215.92 280.93,215.60 281.68,215.28 282.43,214.96 283.17,214.64 283.92,214.32 284.67,214.00 285.41,213.68 286.16,213.36 286.91,213.04 287.65,212.72 288.40,212.40 289.15,212.08 289.89,211.76 290.64,211.44 291.39,211.12 292.13,210.80 292.88,210.48 293.63,210.16 294.37,209.84 295.12,209.52 295.87,209.20 296.61,208.88 297.36,208.56 298.11,208.24 298.85,207.92 299.60,207.60 300.35,207.28 301.09,206.96 301.84,206.64 302.59,206.32 303.33,206.00 304.08,205.68 304.83,205.36 305.57,205.04 306.32,204.72 307.07,204.40 307.81,204.08 308.56,203.76 309.31,203.44 310.05,203.12 310.80,202.80 311.55,202.48 312.29,202.16 313.04,201.84 313.79,201.52 314.53,201.20 315.28,200.88 316.03,200.56 316.77,200.24 317.52,199.92 318.27,199.60 319.01,199.28 319.76,198.96 320.51,198.64 321.25,198.32 322.00,198.00 322.75,197.68 323.49,197.36 324.24,197.04 324.99,196.72 325.73,196.40 326.48,196.08 327.23,195.76 327.97,195.44 328.72,195.12 329.47,194.80 330.21,194.48 330.96,194.16 331.71,193.84 332.45,193.52 333.20,193.20 333.95,192.88 334.69,192.56 335.44,192.24 336.19,191.92 336.93,191.60 337.68,191.28 338.43,190.96 339.17,190.64 339.92,190.32 340.67,190.00 341.41,189.68 342.16,189.36 342.91,189.04 343.65,188.72 344.40,188.40 345.15,188.08 345.89,187.76 346.64,187.44 347.39,187.12 348.13,186.80 348.88,186.48 349.63,186.16 350.37,185.84 351.12,185.52 351.87,185.20 352.61,184.88 353.36,184.56 354.11,184.24 354.85,183.92 355.60,183.60 356.35,183.28 357.09,182.96 357.84,182.64 358.59,182.32 359.33,182.00 360.08,181.68 360.83,181.36 361.57,181.04 362.32,180.72 363.07,180.40 363.81,180.08 364.56,179.76 365.31,179.44 366.05,179.12 366.80,178.80 367.55,178.48 368.29,178.16 369.04,177.84 369.79,177.52 370.53,177.20 371.28,176.88 372.03,176.56 372.77,176.24 373.52,175.92 374.27,175.60 375.01,175.28 375.76,174.96 376.51,174.64 377.25,174.32 378.00,174.00 378.75,173.68 379.49,173.36 380.24,173.04 380.99,172.72 381.73,172.40 382.48,172.08 383.23,171.76 383.97,171.44 384.72,171.12 385.47,170.80 386.21,170.48 386.96,170.16 387.71,169.84 388.45,169.52 389.20,169.20 389.95,168.88 390.69,168.56 391.44,168.24 392.19,167.92 392.93,167.60 393.68,167.28 394.43,166.96 395.17,166.64 395.92,166.32 396.67,166.00 397.41,165.68 398.16,165.36 398.91,165.04 399.65,164.72 400.40,164.40 401.15,164.08 401.89,163.76 402.64,163.44 403.39,163.12 404.13,162.80 404.88,162.48 405.63,162.16 406.37,161.84 407.12,161.52 407.87,161.20 408.61,160.88 409.36,160.56 410.11,160.24 410.85,159.92 411.60,159.60 412.35,159.28 413.09,158.96 413.84,158.64 414.59,158.32 415.33,158.00 416.08,157.68 416.83,157.36 417.57,157.04 418.32,156.72 419.07,156.40 419.81,156.08 420.56,155.76 421.31,155.44 422.05,155.12 422.80,154.80 423.55,154.48 424.29,154.16 425.04,153.84 425.79,153.52 426.53,153.20 427.28,152.88 428.03,152.56 428.77,152.24 429.52,151.92 430.27,151.60 431.01,151.28 431.76,150.96 432.51,150.64 433.25,150.32 434.00,150.00 434.75,149.84 435.49,149.68 436.24,149.52 436.99,149.36 437.73,149.20 438.48,149.04 439.23,148.88 439.97,148.72 440.72,148.56 441.47,148.40 442.21,148.24 442.96,148.08 443.71,147.92 444.45,147.76 445.20,147.60 445.95,147.44 446.69,147.28 447.44,147.12 448.19,146.96 448.93,146.80 449.68,146.64 450.43,146.48 451.17,146.32 451.92,146.16 452.67,146.00 453.41,145.84 454.16,145.68 454.91,145.52 455.65,145.36 456.40,145.20 457.15,145.04 457.89,144.88 458.64,144.72 459.39,144.56 460.13,144.40 460.88,144.24 461.63,144.08 462.37,143.92 463.12,143.76 463.87,143.60 464.61,143.44 465.36,143.28 466.11,143.12 466.85,142.96 467.60,142.80 468.35,142.64 469.09,142.48 469.84,142.32 470.59,142.16 471.33,142.00 472.08,141.84 472.83,141.68 473.57,141.52 474.32,141.36 475.07,141.20 475.81,141.04 476.56,140.88 477.31,140.72 478.05,140.56 478.80,140.40 479.55,140.24 480.29,140.08 481.04,139.92 481.79,139.76 482.53,139.60 483.28,139.44 484.03,139.28 484.77,139.12 485.52,138.96 486.27,138.80 487.01,138.64 487.76,138.48 488.51,138.32 489.25,138.16 490.00,138.00 490.75,137.84 491.49,137.68 492.24,137.52 492.99,137.36 493.73,137.20 494.48,137.04 495.23,136.88 495.97,136.72 496.72,136.56 497.47,136.40 498.21,136.24 498.96,136.08 499.71,135.92 500.45,135.76 501.20,135.60 501.95,135.44 502.69,135.28 503.44,135.12 504.19,134.96 504.93,134.80 505.68,134.64 506.43,134.48 507.17,134.32 507.92,134.16 508.67,134.00 509.41,133.84 510.16,133.68 510.91,133.52 511.65,133.36 512.40,133.20 513.15,133.04 513.89,132.88 514.64,132.72 515.39,132.56 516.13,132.40 516.88,132.24 517.63,132.08 518.37,131.92 519.12,131.76 519.87,131.60 520.61,131.44 521.36,131.28 522.11,131.12 522.85,130.96 523.60,130.80 524.35,130.64 525.09,130.48 525.84,130.32 526.59,130.16 527.33,130.00 528.08,129.84 528.83,129.68 529.57,129.52 530.32,129.36 531.07,129.20 531.81,129.04 532.56,128.88 533.31,128.72 534.05,128.56 534.80,128.40 535.55,128.24 536.29,128.08 537.04,127.92 537.79,127.76 538.53,127.60 539.28,127.44 540.03,127.28 540.77,127.12 541.52,126.96 542.27,126.80 543.01,126.64 543.76,126.48 544.51,126.32 545.25,126.16 546.00,126.00 546.75,125.84 547.49,125.68 548.24,125.52 548.99,125.36 549.73,125.20 550.48,125.04 551.23,124.88 551.97,124.72 552.72,124.56 553.47,124.40 554.21,124.24 554.96,124.08 555.71,123.92 556.45,123.76 557.20,123.60 557.95,123.44 558.69,123.28 559.44,123.12 560.19,122.96 560.93,122.80 561.68,122.64 562.43,122.48 563.17,122.32 563.92,122.16 564.67,122.00 565.41,121.84 566.16,121.68 566.91,121.52 567.65,121.36 568.40,121.20 569.15,121.04 569.89,120.88 570.64,120.72 571.39,120.56 572.13,120.40 572.88,120.24 573.63,120.08 574.37,119.92 575.12,119.76 575.87,119.60 576.61,119.44 577.36,119.28 578.11,119.12 578.85,118.96 579.60,118.80 580.35,118.64 581.09,118.48 581.84,118.32 582.59,118.16 583.33,118.00 584.08,117.84 584.83,117.68 585.57,117.52 586.32,117.36 587.07,117.20 587.81,117.04 588.56,116.88 589.31,116.72 590.05,116.56 590.80,116.40 591.55,116.24 592.29,116.08 593.04,115.92 593.79,115.76 594.53,115.60 595.28,115.44 596.03,115.28 596.77,115.12 597.52,114.96 598.27,114.80 599.01,114.64 599.76,114.48 600.51,114.32 601.25,114.16 602.00,114.00 602.75,113.84 603.49,113.68 604.24,113.52 604.99,113.36 605.73,113.20 606.48,113.04 607.23,112.88 607.97,112.72 608.72,112.56 609.47,112.40 610.21,112.24 610.96,112.08 611.71,111.92 612.45,111.76 613.20,111.60 613.95,111.44 614.69,111.28 615.44,111.12 616.19,110.96 616.93,110.80 617.68,110.64 618.43,110.48 619.17,110.32 619.92,110.16 620.67,110.00 621.41,109.84 622.16,109.68 622.91,109.52 623.65,109.36 624.40,109.20 625.15,109.04 625.89,108.88 626.64,108.72 627.39,108.56 628.13,108.40 628.88,108.24 629.63,108.08 630.37,107.92 631.12,107.76 631.87,107.60 632.61,107.44 633.36,107.28 634.11,107.12 634.85,106.96 635.60,106.80 636.35,106.64 637.09,106.48 637.84,106.32 638.59,106.16 639.33,106.00 640.08,105.84 640.83,105.68 641.57,105.52 642.32,105.36 643.07,105.20 643.81,105.04 644.56,104.88 645.31,104.72 646.05,104.56 646.80,104.40 647.55,104.24 648.29,104.08 649.04,103.92 649.79,103.76 650.53,103.60 651.28,103.44 652.03,103.28 652.77,103.12 653.52,102.96 654.27,102.80 655.01,102.64 655.76,102.48 656.51,102.32 657.25,102.16 658.00,102.00 658.75,101.84 659.49,101.68 660.24,101.52 660.99,101.36 661.73,101.20 662.48,101.04 663.23,100.88 663.97,100.72 664.72,100.56 665.47,100.40 666.21,100.24 666.96,100.08 667.71,99.92 668.45,99.76 669.20,99.60 669.95,99.44 670.69,99.28 671.44,99.12 672.19,98.96 672.93,98.80 673.68,98.64 674.43,98.48 675.17,98.32 675.92,98.16 676.67,98.00 677.41,97.84 678.16,97.68 678.91,97.52 679.65,97.36 680.40,97.20 681.15,97.04 681.89,96.88 682.64,96.72 683.39,96.56 684.13,96.40 684.88,96.24 685.63,96.08 686.37,95.92 687.12,95.76 687.87,95.60 688.61,95.44 689.36,95.28 690.11,95.12 690.85,94.96 691.60,94.80 692.35,94.64 693.09,94.48 693.84,94.32 694.59,94.16 695.33,94.00 696.08,93.84 696.83,93.68 697.57,93.52 698.32,93.36 699.07,93.20 699.81,93.04 700.56,92.88 701.31,92.72 702.05,92.56 702.80,92.40 703.55,92.24 704.29,92.08 705.04,91.92 705.79,91.76 706.53,91.60 707.28,91.44 708.03,91.28 708.77,91.12 709.52,90.96 710.27,90.80 711.01,90.64 711.76,90.48 712.51,90.32 713.25,90.16 714.00,90.00 714.75,89.84 715.49,89.68 716.24,89.52 716.99,89.36 717.73,89.20 718.48,89.04 719.23,88.88 719.97,88.72 720.72,88.56 721.47,88.40 722.21,88.24 722.96,88.08 723.71,87.92 724.45,87.76 725.20,87.60 725.95,87.44 726.69,87.28 727.44,87.12 728.19,86.96 728.93,86.80 729.68,86.64 730.43,86.48 731.17,86.32 731.92,86.16 732.67,86.00 733.41,85.84 734.16,85.68 734.91,85.52 735.65,85.36 736.40,85.20 737.15,85.04 737.89,84.88 738.64,84.72 739.39,84.56 740.13,84.40 740.88,84.24 741.63,84.08 742.37,83.92 743.12,83.76 743.87,83.60 744.61,83.44 745.36,83.28 746.11,83.12 746.85,82.96 747.60,82.80 748.35,82.64 749.09,82.48 749.84,82.32 750.59,82.16 751.33,82.00 752.08,81.84 752.83,81.68 753.57,81.52 754.32,81.36 755.07,81.20 755.81,81.04 756.56,80.88 757.31,80.72 758.05,80.56 758.80,80.40 759.55,80.24 760.29,80.08 761.04,79.92 761.79,79.76 762.53,79.60 763.28,79.44 764.03,79.28 764.77,79.12 765.52,78.96 766.27,78.80 767.01,78.64 767.76,78.48 768.51,78.32 769.25,78.16 770.00,78.00 770.75,77.84 771.49,77.68 772.24,77.52 772.99,77.36 773.73,77.20 774.48,77.04 775.23,76.88 775.97,76.72 776.72,76.56 777.47,76.40 778.21,76.24 778.96,76.08 779.71,75.92 780.45,75.76 781.20,75.60 781.95,75.44 782.69,75.28 783.44,75.12 784.19,74.96 784.93,74.80 785.68,74.64 786.43,74.48 787.17,74.32 787.92,74.16 788.67,74.00 789.41,73.84 790.16,73.68 790.91,73.52 791.65,73.36 792.40,73.20 793.15,73.04 793.89,72.88 794.64,72.72 795.39,72.56 796.13,72.40 796.88,72.24 797.63,72.08 798.37,71.92 799.12,71.76 799.87,71.60 800.61,71.44 801.36,71.28 802.11,71.12 802.85,70.96 803.60,70.80 804.35,70.64 805.09,70.48 805.84,70.32 806.59,70.16 807.33,70.00 808.08,69.84 808.83,69.68 809.57,69.52 810.32,69.36 811.07,69.20 811.81,69.04 812.56,68.88 813.31,68.72 814.05,68.56 814.80,68.40 815.55,68.24 816.29,68.08 817.04,67.92 817.79,67.76 818.53,67.60 819.28,67.44 820.03,67.28 820.77,67.12 821.52,66.96 822.27,66.80 823.01,66.64 823.76,66.48 824.51,66.32 825.25,66.16 826.00,66.00 826.75,65.84 827.49,65.68 828.24,65.52 828.99,65.36 829.73,65.20 830.48,65.04 831.23,64.88 831.97,64.72 832.72,64.56 833.47,64.40 834.21,64.24 834.96,64.08 835.71,63.92 836.45,63.76 837.20,63.60 837.95,63.44 838.69,63.28 839.44,63.12 840.19,62.96 840.93,62.80 841.68,62.64 842.43,62.48 843.17,62.32 843.92,62.16 844.67,62.00 845.41,61.84 846.16,61.68 846.91,61.52 847.65,61.36 848.40,61.20 849.15,61.04 849.89,60.88 850.64,60.72 851.39,60.56 852.13,60.40 852.88,60.24 853.63,60.08 854.37,59.92 855.12,59.76 855.87,59.60 856.61,59.44 857.36,59.28 858.11,59.12 858.85,58.96 859.60,58.80 860.35,58.64 861.09,58.48 861.84,58.32 862.59,58.16 863.33,58.00 864.08,57.84 864.83,57.68 865.57,57.52 866.32,57.36 867.07,57.20 867.81,57.04 868.56,56.88 869.31,56.72 870.05,56.56 870.80,56.40 871.55,56.24 872.29,56.08 873.04,55.92 873.79,55.76 874.53,55.60 875.28,55.44 876.03,55.28 876.77,55.12 877.52,54.96 878.27,54.80 879.01,54.64 879.76,54.48 880.51,54.32 881.25,54.16 882.00,54.00 882.75,53.84 883.49,53.68 884.24,53.52 884.99,53.36 885.73,53.20 886.48,53.04 887.23,52.88 887.97,52.72 888.72,52.56 889.47,52.40 890.21,52.24 890.96,52.08 891.71,51.92 892.45,51.76 893.20,51.60 893.95,51.44 894.69,51.28 895.44,51.12 896.19,50.96 896.93,50.80 897.68,50.64 898.43,50.48 899.17,50.32 899.92,50.16 900.67,50.00 901.41,49.84 902.16,49.68 902.91,49.52 903.65,49.36 904.40,49.20 905.15,49.04 905.89,48.88 906.64,48.72 907.39,48.56 908.13,48.40 908.88,48.24 909.63,48.08 910.37,47.92 911.12,47.76 911.87,47.60 912.61,47.44 913.36,47.28 914.11,47.12 914.85,46.96 915.60,46.80 916.35,46.64 917.09,46.48 917.84,46.32 918.59,46.16 919.33,46.00 920.08,45.84 920.83,45.68 921.57,45.52 922.32,45.36 923.07,45.20 923.81,45.04 924.56,44.88 925.31,44.72 926.05,44.56 926.80,44.40 927.55,44.24 928.29,44.08 929.04,43.92 929.79,43.76 930.53,43.60 931.28,43.44 932.03,43.28 932.77,43.12 933.52,42.96 934.27,42.80 935.01,42.64 935.76,42.48 936.51,42.32 937.25,42.16 938.00,42.00" /> <polyline fill="none" stroke="#ae2012" stroke-width="2" points="42.00,234.00 42.75,233.84 43.49,233.68 44.24,233.52 44.99,233.36 45.73,233.20 46.48,233.04 47.23,232.88 47.97,232.72 48.72,232.56 49.47,232.40 50.21,232.24 50.96,232.08 51.71,231.92 52.45,231.76 53.20,231.60 53.95,231.44 54.69,231.28 55.44,231.12 56.19,230.96 56.93,230.80 57.68,230.64 58.43,230.48 59.17,230.32 59.92,230.16 60.67,230.00 61.41,229.84 62.16,229.68 62.91,229.52 63.65,229.36 64.40,229.20 65.15,229.04 65.89,228.88 66.64,228.72 67.39,228.56 68.13,228.40 68.88,228.24 69.63,228.08 70.37,227.92 71.12,227.76 71.87,227.60 72.61,227.44 73.36,227.28 74.11,227.12 74.85,226.96 75.60,226.80 76.35,226.64 77.09,226.48 77.84,226.32 78.59,226.16 79.33,226.00 80.08,225.84 80.83,225.68 81.57,225.52 82.32,225.36 83.07,225.20 83.81,225.04 84.56,224.88 85.31,224.72 86.05,224.56 86.80,224.40 87.55,224.24 88.29,224.08 89.04,223.92 89.79,223.76 90.53,223.60 91.28,223.44 92.03,223.28 92.77,223.12 93.52,222.96 94.27,222.80 95.01,222.64 95.76,222.48 96.51,222.32 97.25,222.16 98.00,222.00 98.75,221.84 99.49,221.68 100.24,221.52 100.99,221.36 101.73,221.20 102.48,221.04 103.23,220.88 103.97,220.72 104.72,220.56 105.47,220.40 106.21,220.24 106.96,220.08 107.71,219.92 108.45,219.76 109.20,219.60 109.95,219.44 110.69,219.28 111.44,219.12 112.19,218.96 112.93,218.80 113.68,218.64 114.43,218.48 115.17,218.32 115.92,218.16 116.67,218.00 117.41,217.84 118.16,217.68 118.91,217.52 119.65,217.36 120.40,217.20 121.15,217.04 121.89,216.88 122.64,216.72 123.39,216.56 124.13,216.40 124.88,216.24 125.63,216.08 126.37,215.92 127.12,215.76 127.87,215.60 128.61,215.44 129.36,215.28 130.11,215.12 130.85,214.96 131.60,214.80 132.35,214.64 133.09,214.48 133.84,214.32 134.59,214.16 135.33,214.00 136.08,213.84 136.83,213.68 137.57,213.52 138.32,213.36 139.07,213.20 139.81,213.04 140.56,212.88 141.31,212.72 142.05,212.56 142.80,212.40 143.55,212.24 144.29,212.08 145.04,211.92 145.79,211.76 146.53,211.60 147.28,211.44 148.03,211.28 148.77,211.12 149.52,210.96 150.27,210.80 151.01,210.64 151.76,210.48 152.51,210.32 153.25,210.16 154.00,210.00 154.75,209.84 155.49,209.68 156.24,209.52 156.99,209.36 157.73,209.20 158.48,209.04 159.23,208.88 159.97,208.72 160.72,208.56 161.47,208.40 162.21,208.24 162.96,208.08 163.71,207.92 164.45,207.76 165.20,207.60 165.95,207.44 166.69,207.28 167.44,207.12 168.19,206.96 168.93,206.80 169.68,206.64 170.43,206.48 171.17,206.32 171.92,206.16 172.67,206.00 173.41,205.84 174.16,205.68 174.91,205.52 175.65,205.36 176.40,205.20 177.15,205.04 177.89,204.88 178.64,204.72 179.39,204.56 180.13,204.40 180.88,204.24 181.63,204.08 182.37,203.92 183.12,203.76 183.87,203.60 184.61,203.44 185.36,203.28 186.11,203.12 186.85,202.96 187.60,202.80 188.35,202.64 189.09,202.48 189.84,202.32 190.59,202.16 191.33,202.00 192.08,201.84 192.83,201.68 193.57,201.52 194.32,201.36 195.07,201.20 195.81,201.04 196.56,200.88 197.31,200.72 198.05,200.56 198.80,200.40 199.55,200.24 200.29,200.08 201.04,199.92 201.79,199.76 202.53,199.60 203.28,199.44 204.03,199.28 204.77,199.12 205.52,198.96 206.27,198.80 207.01,198.64 207.76,198.48 208.51,198.32 209.25,198.16 210.00,198.00 210.75,197.84 211.49,197.68 212.24,197.52 212.99,197.36 213.73,197.20 214.48,197.04 215.23,196.88 215.97,196.72 216.72,196.56 217.47,196.40 218.21,196.24 218.96,196.08 219.71,195.92 220.45,195.76 221.20,195.60 221.95,195.44 222.69,195.28 223.44,195.12 224.19,194.96 224.93,194.80 225.68,194.64 226.43,194.48 227.17,194.32 227.92,194.16 228.67,194.00 229.41,193.84 230.16,193.68 230.91,193.52 231.65,193.36 232.40,193.20 233.15,193.04 233.89,192.88 234.64,192.72 235.39,192.56 236.13,192.40 236.88,192.24 237.63,192.08 238.37,191.92 239.12,191.76 239.87,191.60 240.61,191.44 241.36,191.28 242.11,191.12 242.85,190.96 243.60,190.80 244.35,190.64 245.09,190.48 245.84,190.32 246.59,190.16 247.33,190.00 248.08,189.84 248.83,189.68 249.57,189.52 250.32,189.36 251.07,189.20 251.81,189.04 252.56,188.88 253.31,188.72 254.05,188.56 254.80,188.40 255.55,188.24 256.29,188.08 257.04,187.92 257.79,187.76 258.53,187.60 259.28,187.44 260.03,187.28 260.77,187.12 261.52,186.96 262.27,186.80 263.01,186.64 263.76,186.48 264.51,186.32 265.25,186.16 266.00,186.00 266.75,185.84 267.49,185.68 268.24,185.52 268.99,185.36 269.73,185.20 270.48,185.04 271.23,184.88 271.97,184.72 272.72,184.56 273.47,184.40 274.21,184.24 274.96,184.08 275.71,183.92 276.45,183.76 277.20,183.60 277.95,183.44 278.69,183.28 279.44,183.12 280.19,182.96 280.93,182.80 281.68,182.64 282.43,182.48 283.17,182.32 283.92,182.16 284.67,182.00 285.41,181.84 286.16,181.68 286.91,181.52 287.65,181.36 288.40,181.20 289.15,181.04 289.89,180.88 290.64,180.72 291.39,180.56 292.13,180.40 292.88,180.24 293.63,180.08 294.37,179.92 295.12,179.76 295.87,179.60 296.61,179.44 297.36,179.28 298.11,179.12 298.85,178.96 299.60,178.80 300.35,178.64 301.09,178.48 301.84,178.32 302.59,178.16 303.33,178.00 304.08,177.84 304.83,177.68 305.57,177.52 306.32,177.36 307.07,177.20 307.81,177.04 308.56,176.88 309.31,176.72 310.05,176.56 310.80,176.40 311.55,176.24 312.29,176.08 313.04,175.92 313.79,175.76 314.53,175.60 315.28,175.44 316.03,175.28 316.77,175.12 317.52,174.96 318.27,174.80 319.01,174.64 319.76,174.48 320.51,174.32 321.25,174.16 322.00,174.00 322.75,173.84 323.49,173.68 324.24,173.52 324.99,173.36 325.73,173.20 326.48,173.04 327.23,172.88 327.97,172.72 328.72,172.56 329.47,172.40 330.21,172.24 330.96,172.08 331.71,171.92 332.45,171.76 333.20,171.60 333.95,171.44 334.69,171.28 335.44,171.12 336.19,170.96 336.93,170.80 337.68,170.64 338.43,170.48 339.17,170.32 339.92,170.16 340.67,170.00 341.41,169.84 342.16,169.68 342.91,169.52 343.65,169.36 344.40,169.20 345.15,169.04 345.89,168.88 346.64,168.72 347.39,168.56 348.13,168.40 348.88,168.24 349.63,168.08 350.37,167.92 351.12,167.76 351.87,167.60 352.61,167.44 353.36,167.28 354.11,167.12 354.85,166.96 355.60,166.80 356.35,166.64 357.09,166.48 357.84,166.32 358.59,166.16 359.33,166.00 360.08,165.84 360.83,165.68 361.57,165.52 362.32,165.36 363.07,165.20 363.81,165.04 364.56,164.88 365.31,164.72 366.05,164.56 366.80,164.40 367.55,164.24 368.29,164.08 369.04,163.92 369.79,163.76 370.53,163.60 371.28,163.44 372.03,163.28 372.77,163.12 373.52,162.96 374.27,162.80 375.01,162.64 375.76,162.48 376.51,162.32 377.25,162.16 378.00,162.00 378.75,161.84 379.49,161.68 380.24,161.52 380.99,161.36 381.73,161.20 382.48,161.04 383.23,160.88 383.97,160.72 384.72,160.56 385.47,160.40 386.21,160.24 386.96,160.08 387.71,159.92 388.45,159.76 389.20,159.60 389.95,159.44 390.69,159.28 391.44,159.12 392.19,158.96 392.93,158.80 393.68,158.64 394.43,158.48 395.17,158.32 395.92,158.16 396.67,158.00 397.41,157.84 398.16,157.68 398.91,157.52 399.65,157.36 400.40,157.20 401.15,157.04 401.89,156.88 402.64,156.72 403.39,156.56 404.13,156.40 404.88,156.24 405.63,156.08 406.37,155.92 407.12,155.76 407.87,155.60 408.61,155.44 409.36,155.28 410.11,155.12 410.85,154.96 411.60,154.80 412.35,154.64 413.09,154.48 413.84,154.32 414.59,154.16 415.33,154.00 416.08,153.84 416.83,153.68 417.57,153.52 418.32,153.36 419.07,153.20 419.81,153.04 420.56,152.88 421.31,152.72 422.05,152.56 422.80,152.40 423.55,152.24 424.29,152.08 425.04,151.92 425.79,151.76 426.53,151.60 427.28,151.44 428.03,151.28 428.77,151.12 429.52,150.96 430.27,150.80 431.01,150.64 431.76,150.48 432.51,150.32 433.25,150.16 434.00,150.00 434.75,149.84 435.49,149.68 436.24,149.52 436.99,149.36 437.73,149.20 438.48,149.04 439.23,148.88 439.97,148.72 440.72,148.56 441.47,148.40 442.21,148.24 442.96,148.08 443.71,147.92 444.45,147.76 445.20,147.60 445.95,147.44 446.69,147.28 447.44,147.12 448.19,146.96 448.93,146.80 449.68,146.64 450.43,146.48 451.17,146.32 451.92,146.16 452.67,146.00 453.41,145.84 454.16,145.68 454.91,145.52 455.65,145.36 456.40,145.20 457.15,145.04 457.89,144.88 458.64,144.72 459.39,144.56 460.13,144.40 460.88,144.24 461.63,144.08 462.37,143.92 463.12,143.76 463.87,143.60 464.61,143.44 465.36,143.28 466.11,143.12 466.85,142.96 467.60,142.80 468.35,142.64 469.09,142.48 469.84,142.32 470.59,142.16 471.33,142.00 472.08,141.84 472.83,141.68 473.57,141.52 474.32,141.36 475.07,141.20 475.81,141.04 476.56,140.88 477.31,140.72 478.05,140.56 478.80,140.40 479.55,140.24 480.29,140.08 481.04,139.92 481.79,139.76 482.53,139.60 483.28,139.44 484.03,139.28 484.77,139.12 485.52,138.96 486.27,138.80 487.01,138.64 487.76,138.48 488.51,138.32 489.25,138.16 490.00,138.00 490.75,137.84 491.49,137.68 492.24,137.52 492.99,137.36 493.73,137.20 494.48,137.04 495.23,136.88 495.97,136.72 496.72,136.56 497.47,136.40 498.21,136.24 498.96,136.08 499.71,135.92 500.45,135.76 501.20,135.60 501.95,135.44 502.69,135.28 503.44,135.12 504.19,134.96 504.93,134.80 505.68,134.64 506.43,134.48 507.17,134.32 507.92,134.16 508.67,134.00 509.41,133.84 510.16,133.68 510.91,133.52 511.65,133.36 512.40,133.20 513.15,133.04 513.89,132.88 514.64,132.72 515.39,132.56 516.13,132.40 516.88,132.24 517.63,132.08 518.37,131.92 519.12,131.76 519.87,131.60 520.61,131.44 521.36,131.28 522.11,131.12 522.85,130.96 523.60,130.80 524.35,130.64 525.09,130.48 525.84,130.32 526.59,130.16 527.33,130.00 528.08,129.84 528.83,129.68 529.57,129.52 530.32,129.36 531.07,129.20 531.81,129.04 532.56,128.88 533.31,128.72 534.05,128.56 534.80,128.40 535.55,128.24 536.29,128.08 537.04,127.92 537.79,127.76 538.53,127.60 539.28,127.44 540.03,127.28 540.77,127.12 541.52,126.96 542.27,126.80 543.01,126.64 543.76,126.48 544.51,126.32 545.25,126.16 546.00,126.00 546.75,125.84 547.49,125.68 548.24,125.52 548.99,125.36 549.73,125.20 550.48,125.04 551.23,124.88 551.97,124.72 552.72,124.56 553.47,124.40 554.21,124.24 554.96,124.08 555.71,123.92 556.45,123.76 557.20,123.60 557.95,123.44 558.69,123.28 559.44,123.12 560.19,122.96 560.93,122.80 561.68,122.64 562.43,122.48 563.17,122.32 563.92,122.16 564.67,122.00 565.41,121.84 566.16,121.68 566.91,121.52 567.65,121.36 568.40,121.20 569.15,121.04 569.89,120.88 570.64,120.72 571.39,120.56 572.13,120.40 572.88,120.24 573.63,120.08 574.37,119.92 575.12,119.76 575.87,119.60 576.61,119.44 577.36,119.28 578.11,119.12 578.85,118.96 579.60,118.80 580.35,118.64 581.09,118.48 581.84,118.32 582.59,118.16 583.33,118.00 584.08,117.84 584.83,117.68 585.57,117.52 586.32,117.36 587.07,117.20 587.81,117.04 588.56,116.88 589.31,116.72 590.05,116.56 590.80,116.40 591.55,116.24 592.29,116.08 593.04,115.92 593.79,115.76 594.53,115.60 595.28,115.44 596.03,115.28 596.77,115.12 597.52,114.96 598.27,114.80 599.01,114.64 599.76,114.48 600.51,114.32 601.25,114.16 602.00,114.00 602.75,113.84 603.49,113.68 604.24,113.52 604.99,113.36 605.73,113.20 606.48,113.04 607.23,112.88 607.97,112.72 608.72,112.56 609.47,112.40 610.21,112.24 610.96,112.08 611.71,111.92 612.45,111.76 613.20,111.60 613.95,111.44 614.69,111.28 615.44,111.12 616.19,110.96 616.93,110.80 617.68,110.64 618.43,110.48 619.17,110.32 619.92,110.16 620.67,110.00 621.41,109.84 622.16,109.68 622.91,109.52 623.65,109.36 624.40,109.20 625.15,109.04 625.89,108.88 626.64,108.72 627.39,108.56 628.13,108.40 628.88,108.24 629.63,108.08 630.37,107.92 631.12,107.76 631.87,107.60 632.61,107.44 633.36,107.28 634.11,107.12 634.85,106.96 635.60,106.80 636.35,106.64 637.09,106.48 637.84,106.32 638.59,106.16 639.33,106.00 640.08,105.84 640.83,105.68 641.57,105.52 642.32,105.36 643.07,105.20 643.81,105.04 644.56,104.88 645.31,104.72 646.05,104.56 646.80,104.40 647.55,104.24 648.29,104.08 649.04,103.92 649.79,103.76 650.53,103.60 651.28,103.44 652.03,103.28 652.77,103.12 653.52,102.96 654.27,102.80 655.01,102.64 655.76,102.48 656.51,102.32 657.25,102.16 658.00,102.00 658.75,101.84 659.49,101.68 660.24,101.52 660.99,101.36 661.73,101.20 662.48,101.04 663.23,100.88 663.97,100.72 664.72,100.56 665.47,100.40 666.21,100.24 666.96,100.08 667.71,99.92 668.45,99.76 669.20,99.60 669.95,99.44 670.69,99.28 671.44,99.12 672.19,98.96 672.93,98.80 673.68,98.64 674.43,98.48 675.17,98.32 675.92,98.16 676.67,98.00 677.41,97.84 678.16,97.68 678.91,97.52 679.65,97.36 680.40,97.20 681.15,97.04 681.89,96.88 682.64,96.72 683.39,96.56 684.13,96.40 684.88,96.24 685.63,96.08 686.37,95.92 687.12,95.76 687.87,95.60 688.61,95.44 689.36,95.28 690.11,95.12 690.85,94.96 691.60,94.80 692.35,94.64 693.09,94.48 693.84,94.32 694.59,94.16 695.33,94.00 696.08,93.84 696.83,93.68 697.57,93.52 698.32,93.36 699.07,93.20 699.81,93.04 700.56,92.88 701.31,92.72 702.05,92.56 702.80,92.40 703.55,92.24 704.29,92.08 705.04,91.92 705.79,91.76 706.53,91.60 707.28,91.44 708.03,91.28 708.77,91.12 709.52,90.96 710.27,90.80 711.01,90.64 711.76,90.48 712.51,90.32 713.25,90.16 714.00,90.00 714.75,89.84 715.49,89.68 716.24,89.52 716.99,89.36 717.73,89.20 718.48,89.04 719.23,88.88 719.97,88.72 720.72,88.56 721.47,88.40 722.21,88.24 722.96,88.08 723.71,87.92 724.45,87.76 725.20,87.60 725.95,87.44 726.69,87.28 727.44,87.12 728.19,86.96 728.93,86.80 729.68,86.64 730.43,86.48 731.17,86.32 731.92,86.16 732.67,86.00 733.41,85.84 734.16,85.68 734.91,85.52 735.65,85.36 736.40,85.20 737.15,85.04 737.89,84.88 738.64,84.72 739.39,84.56 740.13,84.40 740.88,84.24 741.63,84.08 742.37,83.92 743.12,83.76 743.87,83.60 744.61,83.44 745.36,83.28 746.11,83.12 746.85,82.96 747.60,82.80 748.35,82.64 749.09,82.48 749.84,82.32 750.59,82.16 751.33,82.00 752.08,81.84 752.83,81.68 753.57,81.52 754.32,81.36 755.07,81.20 755.81,81.04 756.56,80.88 757.31,80.72 758.05,80.56 758.80,80.40 759.55,80.24 760.29,80.08 761.04,79.92 761.79,79.76 762.53,79.60 763.28,79.44 764.03,79.28 764.77,79.12 765.52,78.96 766.27,78.80 767.01,78.64 767.76,78.48 768.51,78.32 769.25,78.16 770.00,78.00 770.75,77.84 771.49,77.68 772.24,77.52 772.99,77.36 773.73,77.20 774.48,77.04 775.23,76.88 775.97,76.72 776.72,76.56 777.47,76.40 778.21,76.24 778.96,76.08 779.71,75.92 780.45,75.76 781.20,75.60 781.95,75.44 782.69,75.28 783.44,75.12 784.19,74.96 784.93,74.80 785.68,74.64 786.43,74.48 787.17,74.32 787.92,74.16 788.67,74.00 789.41,73.84 790.16,73.68 790.91,73.52 791.65,73.36 792.40,73.20 793.15,73.04 793.89,72.88 794.64,72.72 795.39,72.56 796.13,72.40 796.88,72.24 797.63,72.08 798.37,71.92 799.12,71.76 799.87,71.60 800.61,71.44 801.36,71.28 802.11,71.12 802.85,70.96 803.60,70.80 804.35,70.64 805.09,70.48 805.84,70.32 806.59,70.16 807.33,70.00 808.08,69.84 808.83,69.68 809.57,69.52 810.32,69.36 811.07,69.20 811.81,69.04 812.56,68.88 813.31,68.72 814.05,68.56 814.80,68.40 815.55,68.24 816.29,68.08 817.04,67.92 817.79,67.76 818.53,67.60 819.28,67.44 820.03,67.28 820.77,67.12 821.52,66.96 822.27,66.80 823.01,66.64 823.76,66.48 824.51,66.32 825.25,66.16 826.00,66.00 826.75,65.84 827.49,65.68 828.24,65.52 828.99,65.36 829.73,65.20 830.48,65.04 831.23,64.88 831.97,64.72 832.72,64.56 833.47,64.40 834.21,64.24 834.96,64.08 835.71,63.92 836.45,63.76 837.20,63.60 837.95,63.44 838.69,63.28 839.44,63.12 840.19,62.96 840.93,62.80 841.68,62.64 842.43,62.48 843.17,62.32 843.92,62.16 844.67,62.00 845.41,61.84 846.16,61.68 846.91,61.52 847.65,61.36 848.40,61.20 849.15,61.04 849.89,60.88 850.64,60.72 851.39,60.56 852.13,60.40 852.88,60.24 853.63,60.08 854.37,59.92 855.12,59.76 855.87,59.60 856.61,59.44 857.36,59.28 858.11,59.12 858.85,58.96 859.60,58.80 860.35,58.64 861.09,58.48 861.84,58.32 862.59,58.16 863.33,58.00 864.08,57.84 864.83,57.68 865.57,57.52 866.32,57.36 867.07,57.20 867.81,57.04 868.56,56.88 869.31,56.72 870.05,56.56 870.80,56.40 871.55,56.24 872.29,56.08 873.04,55.92 873.79,55.76 874.53,55.60 875.28,55.44 876.03,55.28 876.77,55.12 877.52,54.96 878.27,54.80 879.01,54.64 879.76,54.48 880.51,54.32 881.25,54.16 882.00,54.00 882.75,53.84 883.49,53.68 884.24,53.52 884.99,53.36 885.73,53.20 886.48,53.04 887.23,52.88 887.97,52.72 888.72,52.56 889.47,52.40 890.21,52.24 890.96,52.08 891.71,51.92 892.45,51.76 893.20,51.60 893.95,51.44 894.69,51.28 895.44,51.12 896.19,50.96 896.93,50.80 897.68,50.64 898.43,50.48 899.17,50.32 899.92,50.16 900.67,50.00 901.41,49.84 902.16,49.68 902.91,49.52 903.65,49.36 904.40,49.20 905.15,49.04 905.89,48.88 906.64,48.72 907.39,48.56 908.13,48.40 908.88,48.24 909.63,48.08 910.37,47.92 911.12,47.76 911.87,47.60 912.61,47.44 913.36,47.28 914.11,47.12 914.85,46.96 915.60,46.80 916.35,46.64 917.09,46.48 917.84,46.32 918.59,46.16 919.33,46.00 920.08,45.84 920.83,45.68 921.57,45.52 922.32,45.36 923.07,45.20 923.81,45.04 924.56,44.88 925.31,44.72 926.05,44.56 926.80,44.40 927.55,44.40 928.29,44.40 929.04,44.40 929.79,44.40 930.53,44.40 931.28,44.40 932.03,44.40 932.77,44.40 933.52,44.40 934.27,44.40 935.01,44.40 935.76,44.40 936.51,44.40 937.25,44.40 938.00,44.40" />
  <line x1="56.0" y1="56.0" x2="78.0" y2="56.0" stroke="#94a3b8" stroke-width="2" /><text x="84.0" y="60.0" font-family="Arial, Helvetica, sans-serif" font-size="11" fill="#243b53">identity</text> <line x1="56.0" y1="72.0" x2="78.0" y2="72.0" stroke="#ee9b00" stroke-width="2" /><text x="84.0" y="76.0" font-family="Arial, Helvetica, sans-serif" font-size="11" fill="#243b53">compressor 4:1 @ -24 dB</text> <line x1="56.0" y1="88.0" x2="78.0" y2="88.0" stroke="#ca6702" stroke-width="2" /><text x="84.0" y="92.0" font-family="Arial, Helvetica, sans-serif" font-size="11" fill="#243b53">expander 2:1 @ -45 dB</text> <line x1="56.0" y1="104.0" x2="78.0" y2="104.0" stroke="#ae2012" stroke-width="2" /><text x="84.0" y="108.0" font-family="Arial, Helvetica, sans-serif" font-size="11" fill="#243b53">limiter ceiling -1 dB</text>
  <text x="490.0" y="24" text-anchor="middle" font-family="Arial, Helvetica, sans-serif" font-size="16" fill="#102a43">Dynamics transfer curves (dB in -> dB out)</text>
  <text x="490.0" y="352" text-anchor="middle" font-family="Arial, Helvetica, sans-serif" font-size="12" fill="#334e68">input level (dBFS)</text>
  <text x="14" y="180.0" transform="rotate(-90 14,180.0)" text-anchor="middle" font-family="Arial, Helvetica, sans-serif" font-size="12" fill="#334e68">output level (dBFS)</text>
  <text x="42" y="336" font-family="Arial, Helvetica, sans-serif" font-size="11" fill="#486581">-80.00</text>
  <text x="938" y="336" text-anchor="end" font-family="Arial, Helvetica, sans-serif" font-size="11" fill="#486581">0.00</text>
  <text x="36" y="46" text-anchor="end" font-family="Arial, Helvetica, sans-serif" font-size="11" fill="#486581">0.00</text>
  <text x="36" y="322" text-anchor="end" font-family="Arial, Helvetica, sans-serif" font-size="11" fill="#486581">-115.00</text>
</svg>
