<svg xmlns="http://www.w3.org/2000/svg" width="980" height="360" viewBox="0 0 980 360">
  <rect x="0" y="0" width="980" height="360" fill="#ffffff" />
  <rect x="42" y="42" width="896" height="276" fill="#f7fbff" stroke="#c8d9e6" />
  <polyline fill="none" stroke="#9b2226" stroke-width="2" points="42.00,318.00 43.12,317.13 44.24,316.49 45.36,315.91 46.48,315.37 47.60,314.86 48.72,314.37 49.84,313.89 50.96,313.43 52.08,312.97 53.20,312.53 54.32,312.10 55.44,311.67 56.56,311.26 57.68,310.84 58.80,310.44 59.92,310.04 61.04,309.64 62.16,309.25 63.28,308.86 64.40,308.48 65.52,308.10 66.64,307.73 67.76,307.35 68.88,306.98 70.00,306.62 71.12,306.26 72.24,305.90 73.36,305.54 74.48,305.18 75.60,304.83 76.72,304.48 77.84,304.13 78.96,303.79 80.08,303.45 81.20,303.10 82.32,302.76 83.44,302.43 84.56,302.09 85.68,301.76 86.80,301.42 87.92,301.09 89.04,300.76 90.16,300.44 91.28,300.11 92.40,299.79 93.52,299.46 94.64,299.14 95.76,298.82 96.88,298.50 98.00,298.18 99.12,297.87 100.24,297.55 101.36,297.24 102.48,296.93 103.60,296.62 104.72,296.30 105.84,296.00 106.96,295.69 108.08,295.38 109.20,295.07 110.32,294.77 111.44,294.46 112.56,294.16 113.68,293.86 114.80,293.56 115.92,293.26 117.04,292.96 118.16,292.66 119.28,292.36 120.40,292.06 121.52,291.77 122.64,291.47 123.76,291.18 124.88,290.89 126.00,290.59 127.12,290.30 128.24,290.01 129.36,289.72 130.48,289.43 131.60,289.14 132.72,288.85 133.84,288.56 134.96,288.28 136.08,287.99 137.20,287.71 138.32,287.42 139.44,287.14 140.56,286.85 141.68,286.57 142.80,286.29 143.92,286.01 145.04,285.73 146.16,285.45 147.28,285.17 148.40,284.89 149.52,284.61 150.64,284.33 151.76,284.05 152.88,283.78 154.00,283.50 155.12,283.22 156.24,282.95 157.36,282.67 158.48,282.40 159.60,282.13 160.72,281.85 161.84,281.58 162.96,281.31 164.08,281.04 165.20,280.77 166.32,280.50 167.44,280.23 168.56,279.96 169.68,279.69 170.80,279.42 171.92,279.15 173.04,278.88 174.16,278.62 175.28,278.35 176.40,278.08 177.52,277.82 178.64,277.55 179.76,277.29 180.88,277.02 182.00,276.76 183.12,276.49 184.24,276.23 185.36,275.97 186.48,275.70 187.60,275.44 188.72,275.18 189.84,274.92 190.96,274.66 192.08,274.40 193.20,274.14 194.32,273.88 195.44,273.62 196.56,273.36 197.68,273.10 198.80,272.84 199.92,272.59 201.04,272.33 202.16,272.07 203.28,271.81 204.40,271.56 205.52,271.30 206.64,271.05 207.76,270.79 208.88,270.54 210.00,270.28 211.12,270.03 212.24,269.77 213.36,269.52 214.48,269.27 215.60,269.01 216.72,268.76 217.84,268.51 218.96,268.26 220.08,268.00 221.20,267.75 222.32,267.50 223.44,267.25 224.56,267.00 225.68,266.75 226.80,266.50 227.92,266.25 229.04,266.00 230.16,265.75 231.28,265.50 232.40,265.26 233.52,265.01 234.64,264.76 235.76,264.51 236.88,264.26 238.00,264.02 239.12,263.77 240.24,263.52 241.36,263.28 242.48,263.03 243.60,262.79 244.72,262.54 245.84,262.30 246.96,262.05 248.08,261.81 249.20,261.56 250.32,261.32 251.44,261.08 252.56,260.83 253.68,260.59 254.80,260.35 255.92,260.10 257.04,259.86 258.16,259.62 259.28,259.38 260.40,259.14 261.52,258.90 262.64,258.65 263.76,258.41 264.88,258.17 266.00,257.93 267.12,257.69 268.24,257.45 269.36,257.21 270.48,256.97 271.60,256.73 272.72,256.49 273.84,256.26 274.96,256.02 276.08,255.78 277.20,255.54 278.32,255.30 279.44,255.07 280.56,254.83 281.68,254.59 282.80,254.35 283.92,254.12 285.04,253.88 286.16,253.64 287.28,253.41 288.40,253.17 289.52,252.94 290.64,252.70 291.76,252.47 292.88,252.23 294.00,252.00 295.12,251.76 296.24,251.53 297.36,251.29 298.48,251.06 299.60,250.83 300.72,250.59 301.84,250.36 302.96,250.13 304.08,249.89 305.20,249.66 306.32,249.43 307.44,249.20 308.56,248.96 309.68,248.73 310.80,248.50 311.92,248.27 313.04,248.04 314.16,247.81 315.28,247.57 316.40,247.34 317.52,247.11 318.64,246.88 319.76,246.65 320.88,246.42 322.00,246.19 323.12,245.96 324.24,245.73 325.36,245.50 326.48,245.27 327.60,245.05 328.72,244.82 329.84,244.59 330.96,244.36 332.08,244.13 333.20,243.90 334.32,243.68 335.44,243.45 336.56,243.22 337.68,242.99 338.80,242.77 339.92,242.54 341.04,242.31 342.16,242.09 343.28,241.86 344.40,241.63 345.52,241.41 346.64,241.18 347.76,240.95 348.88,240.73 350.00,240.50 351.12,240.28 352.24,240.05 353.36,239.83 354.48,239.60 355.60,239.38 356.72,239.15 357.84,238.93 358.96,238.70 360.08,238.48 361.20,238.26 362.32,238.03 363.44,237.81 364.56,237.59 365.68,237.36 366.80,237.14 367.92,236.92 369.04,236.69 370.16,236.47 371.28,236.25 372.40,236.03 373.52,235.80 374.64,235.58 375.76,235.36 376.88,235.14 378.00,234.92 379.12,234.69 380.24,234.47 381.36,234.25 382.48,234.03 383.60,233.81 384.72,233.59 385.84,233.37 386.96,233.15 388.08,232.93 389.20,232.71 390.32,232.49 391.44,232.27 392.56,232.05 393.68,231.83 394.80,231.61 395.92,231.39 397.04,231.17 398.16,230.95 399.28,230.73 400.40,230.51 401.52,230.30 402.64,230.08 403.76,229.86 404.88,229.64 406.00,229.42 407.12,229.20 408.24,228.99 409.36,228.77 410.48,228.55 411.60,228.33 412.72,228.12 413.84,227.90 414.96,227.68 416.08,227.47 417.20,227.25 418.32,227.03 419.44,226.82 420.56,226.60 421.68,226.38 422.80,226.17 423.92,225.95 425.04,225.73 426.16,225.52 427.28,225.30 428.40,225.09 429.52,224.87 430.64,224.66 431.76,224.44 432.88,224.23 434.00,224.01 435.12,223.80 436.24,223.58 437.36,223.37 438.48,223.15 439.60,222.94 440.72,222.72 441.84,222.51 442.96,222.30 444.08,222.08 445.20,221.87 446.32,221.66 447.44,221.44 448.56,221.23 449.68,221.02 450.80,220.80 451.92,220.59 453.04,220.38 454.16,220.16 455.28,219.95 456.40,219.74 457.52,219.53 458.64,219.31 459.76,219.10 460.88,218.89 462.00,218.68 463.12,218.47 464.24,218.25 465.36,218.04 466.48,217.83 467.60,217.62 468.72,217.41 469.84,217.20 470.96,216.99 472.08,216.78 473.20,216.57 474.32,216.35 475.44,216.14 476.56,215.93 477.68,215.72 478.80,215.51 479.92,215.30 481.04,215.09 482.16,214.88 483.28,214.67 484.40,214.46 485.52,214.25 486.64,214.04 487.76,213.83 488.88,213.62 490.00,213.42 491.12,213.21 492.24,213.00 493.36,212.79 494.48,212.58 495.60,212.37 496.72,212.16 497.84,211.95 498.96,211.75 500.08,211.54 501.20,211.33 502.32,211.12 503.44,210.91 504.56,210.71 505.68,210.50 506.80,210.29 507.92,210.08 509.04,209.87 510.16,209.67 511.28,209.46 512.40,209.25 513.52,209.05 514.64,208.84 515.76,208.63 516.88,208.42 518.00,208.22 519.12,208.01 520.24,207.81 521.36,207.60 522.48,207.39 523.60,207.19 524.72,206.98 525.84,206.77 526.96,206.57 528.08,206.36 529.20,206.16 530.32,205.95 531.44,205.75 532.56,205.54 533.68,205.33 534.80,205.13 535.92,204.92 537.04,204.72 538.16,204.51 539.28,204.31 540.40,204.10 541.52,203.90 542.64,203.70 543.76,203.49 544.88,203.29 546.00,203.08 547.12,202.88 548.24,202.67 549.36,202.47 550.48,202.27 551.60,202.06 552.72,201.86 553.84,201.65 554.96,201.45 556.08,201.25 557.20,201.04 558.32,200.84 559.44,200.64 560.56,200.43 561.68,200.23 562.80,200.03 563.92,199.82 565.04,199.62 566.16,199.42 567.28,199.22 568.40,199.01 569.52,198.81 570.64,198.61 571.76,198.41 572.88,198.20 574.00,198.00 575.12,197.80 576.24,197.60 577.36,197.40 578.48,197.19 579.60,196.99 580.72,196.79 581.84,196.59 582.96,196.39 584.08,196.19 585.20,195.99 586.32,195.78 587.44,195.58 588.56,195.38 589.68,195.18 590.80,194.98 591.92,194.78 593.04,194.58 594.16,194.38 595.28,194.18 596.40,193.98 597.52,193.78 598.64,193.58 599.76,193.38 600.88,193.18 602.00,192.98 603.12,192.78 604.24,192.58 605.36,192.38 606.48,192.18 607.60,191.98 608.72,191.78 609.84,191.58 610.96,191.38 612.08,191.18 613.20,190.98 614.32,190.78 615.44,190.58 616.56,190.38 617.68,190.18 618.80,189.98 619.92,189.78 621.04,189.59 622.16,189.39 623.28,189.19 624.40,188.99 625.52,188.79 626.64,188.59 627.76,188.40 628.88,188.20 630.00,188.00 631.12,187.80 632.24,187.60 633.36,187.41 634.48,187.21 635.60,187.01 636.72,186.81 637.84,186.61 638.96,186.42 640.08,186.22 641.20,186.02 642.32,185.82 643.44,185.63 644.56,185.43 645.68,185.23 646.80,185.04 647.92,184.84 649.04,184.64 650.16,184.45 651.28,184.25 652.40,184.05 653.52,183.86 654.64,183.66 655.76,183.46 656.88,183.27 658.00,183.07 659.12,182.87 660.24,182.68 661.36,182.48 662.48,182.29 663.60,182.09 664.72,181.89 665.84,181.70 666.96,181.50 668.08,181.31 669.20,181.11 670.32,180.92 671.44,180.72 672.56,180.52 673.68,180.33 674.80,180.13 675.92,179.94 677.04,179.74 678.16,179.55 679.28,179.35 680.40,179.16 681.52,178.96 682.64,178.77 683.76,178.57 684.88,178.38 686.00,178.19 687.12,177.99 688.24,177.80 689.36,177.60 690.48,177.41 691.60,177.21 692.72,177.02 693.84,176.83 694.96,176.63 696.08,176.44 697.20,176.24 698.32,176.05 699.44,175.86 700.56,175.66 701.68,175.47 702.80,175.27 703.92,175.08 705.04,174.89 706.16,174.69 707.28,174.50 708.40,174.31 709.52,174.11 710.64,173.92 711.76,173.73 712.88,173.54 714.00,173.34 715.12,173.15 716.24,172.96 717.36,172.76 718.48,172.57 719.60,172.38 720.72,172.19 721.84,171.99 722.96,171.80 724.08,171.61 725.20,171.42 726.32,171.23 727.44,171.03 728.56,170.84 729.68,170.65 730.80,170.46 731.92,170.26 733.04,170.07 734.16,169.88 735.28,169.69 736.40,169.50 737.52,169.31 738.64,169.11 739.76,168.92 740.88,168.73 742.00,168.54 743.12,168.35 744.24,168.16 745.36,167.97 746.48,167.78 747.60,167.58 748.72,167.39 749.84,167.20 750.96,167.01 752.08,166.82 753.20,166.63 754.32,166.44 755.44,166.25 756.56,166.06 757.68,165.87 758.80,165.68 759.92,165.49 761.04,165.30 762.16,165.11 763.28,164.92 764.40,164.73 765.52,164.54 766.64,164.35 767.76,164.16 768.88,163.97 770.00,163.78 771.12,163.59 772.24,163.40 773.36,163.21 774.48,163.02 775.60,162.83 776.72,162.64 777.84,162.45 778.96,162.26 780.08,162.07 781.20,161.88 782.32,161.69 783.44,161.50 784.56,161.31 785.68,161.13 786.80,160.94 787.92,160.75 789.04,160.56 790.16,160.37 791.28,160.18 792.40,159.99 793.52,159.80 794.64,159.61 795.76,159.43 796.88,159.24 798.00,159.05 799.12,158.86 800.24,158.67 801.36,158.48 802.48,158.30 803.60,158.11 804.72,157.92 805.84,157.73 806.96,157.54 808.08,157.36 809.20,157.17 810.32,156.98 811.44,156.79 812.56,156.61 813.68,156.42 814.80,156.23 815.92,156.04 817.04,155.85 818.16,155.67 819.28,155.48 820.40,155.29 821.52,155.11 822.64,154.92 823.76,154.73 824.88,154.54 826.00,154.36 827.12,154.17 828.24,153.98 829.36,153.80 830.48,153.61 831.60,153.42 832.72,153.24 833.84,153.05 834.96,152.86 836.08,152.68 837.20,152.49 838.32,152.30 839.44,152.12 840.56,151.93 841.68,151.74 842.80,151.56 843.92,151.37 845.04,151.19 846.16,151.00 847.28,150.81 848.40,150.63 849.52,150.44 850.64,150.26 851.76,150.07 852.88,149.88 854.00,149.70 855.12,149.51 856.24,149.33 857.36,149.14 858.48,148.96 859.60,148.77 860.72,148.58 861.84,148.40 862.96,148.21 864.08,148.03 865.20,147.84 866.32,147.66 867.44,147.47 868.56,147.29 869.68,147.10 870.80,146.92 871.92,146.73 873.04,146.55 874.16,146.36 875.28,146.18 876.40,145.99 877.52,145.81 878.64,145.62 879.76,145.44 880.88,145.26 882.00,145.07 883.12,144.89 884.24,144.70 885.36,144.52 886.48,144.33 887.60,144.15 888.72,143.97 889.84,143.78 890.96,143.60 892.08,143.41 893.20,143.23 894.32,143.04 895.44,142.86 896.56,142.68 897.68,142.49 898.80,142.31 899.92,142.13 901.04,141.94 902.16,141.76 903.28,141.57 904.40,141.39 905.52,141.21 906.64,141.02 907.76,140.84 908.88,140.66 910.00,140.47 911.12,140.29 912.24,140.11 913.36,139.93 914.48,139.74 915.60,139.56 916.72,139.38 917.84,139.19 918.96,139.01 920.08,138.83 921.20,138.64 922.32,138.46 923.44,138.28 924.56,138.10 925.68,137.91 926.80,137.73 927.92,137.55 929.04,137.37 930.16,137.18 931.28,137.00 932.40,136.82 933.52,136.64 934.64,136.45 935.76,136.27 936.88,136.09 938.00,135.91" /> <polyline fill="none" stroke="#005f73" stroke-width="2" points="42.00,318.00 43.12,317.74 44.24,317.48 45.36,317.22 46.48,316.95 47.60,316.69 48.72,316.43 49.84,316.17 50.96,315.91 52.08,315.65 53.20,315.39 54.32,315.12 55.44,314.86 56.56,314.60 57.68,314.34 58.80,314.08 59.92,313.82 61.04,313.56 62.16,313.29 63.28,313.03 64.40,312.77 65.52,312.51 66.64,312.25 67.76,311.99 68.88,311.72 70.00,311.46 71.12,311.20 72.24,310.94 73.36,310.68 74.48,310.42 75.60,310.16 76.72,309.89 77.84,309.63 78.96,309.37 80.08,309.11 81.20,308.85 82.32,308.59 83.44,308.33 84.56,308.06 85.68,307.80 86.80,307.54 87.92,307.28 89.04,307.02 90.16,306.76 91.28,306.50 92.40,306.23 93.52,305.97 94.64,305.71 95.76,305.45 96.88,305.19 98.00,304.93 99.12,304.67 100.24,304.40 101.36,304.14 102.48,303.88 103.60,303.62 104.72,303.36 105.84,303.10 106.96,302.84 108.08,302.57 109.20,302.31 110.32,302.05 111.44,301.79 112.56,301.53 113.68,301.27 114.80,301.01 115.92,300.74 117.04,300.48 118.16,300.22 119.28,299.96 120.40,299.70 121.52,299.44 122.64,299.17 123.76,298.91 124.88,298.65 126.00,298.39 127.12,298.13 128.24,297.87 129.36,297.61 130.48,297.34 131.60,297.08 132.72,296.82 133.84,296.56 134.96,296.30 136.08,296.04 137.20,295.78 138.32,295.51 139.44,295.25 140.56,294.99 141.68,294.73 142.80,294.47 143.92,294.21 145.04,293.95 146.16,293.68 147.28,293.42 148.40,293.16 149.52,292.90 150.64,292.64 151.76,292.38 152.88,292.12 154.00,291.85 155.12,291.59 156.24,291.33 157.36,291.07 158.48,290.81 159.60,290.55 160.72,290.29 161.84,290.02 162.96,289.76 164.08,289.50 165.20,289.24 166.32,288.98 167.44,288.72 168.56,288.45 169.68,288.19 170.80,287.93 171.92,287.67 173.04,287.41 174.16,287.15 175.28,286.89 176.40,286.62 177.52,286.36 178.64,286.10 179.76,285.84 180.88,285.58 182.00,285.32 183.12,285.06 184.24,284.79 185.36,284.53 186.48,284.27 187.60,284.01 188.72,283.75 189.84,283.49 190.96,283.23 192.08,282.96 193.20,282.70 194.32,282.44 195.44,282.18 196.56,281.92 197.68,281.66 198.80,281.40 199.92,281.13 201.04,280.87 202.16,280.61 203.28,280.35 204.40,280.09 205.52,279.83 206.64,279.57 207.76,279.30 208.88,279.04 210.00,278.78 211.12,278.52 212.24,278.26 213.36,278.00 214.48,277.73 215.60,277.47 216.72,277.21 217.84,276.95 218.96,276.69 220.08,276.43 221.20,276.17 222.32,275.90 223.44,275.64 224.56,275.38 225.68,275.12 226.80,274.86 227.92,274.60 229.04,274.34 230.16,274.07 231.28,273.81 232.40,273.55 233.52,273.29 234.64,273.03 235.76,272.77 236.88,272.51 238.00,272.24 239.12,271.98 240.24,271.72 241.36,271.46 242.48,271.20 243.60,270.94 244.72,270.68 245.84,270.41 246.96,270.15 248.08,269.89 249.20,269.63 250.32,269.37 251.44,269.11 252.56,268.85 253.68,268.58 254.80,268.32 255.92,268.06 257.04,267.80 258.16,267.54 259.28,267.28 260.40,267.02 261.52,266.75 262.64,266.49 263.76,266.23 264.88,265.97 266.00,265.71 267.12,265.45 268.24,265.18 269.36,264.92 270.48,264.66 271.60,264.40 272.72,264.14 273.84,263.88 274.96,263.62 276.08,263.35 277.20,263.09 278.32,262.83 279.44,262.57 280.56,262.31 281.68,262.05 282.80,261.79 283.92,261.52 285.04,261.26 286.16,261.00 287.28,260.74 288.40,260.48 289.52,260.22 290.64,259.96 291.76,259.69 292.88,259.43 294.00,259.17 295.12,258.91 296.24,258.65 297.36,258.39 298.48,258.13 299.60,257.86 300.72,257.60 301.84,257.34 302.96,257.08 304.08,256.82 305.20,256.56 306.32,256.30 307.44,256.03 308.56,255.77 309.68,255.51 310.80,255.25 311.92,254.99 313.04,254.73 314.16,254.46 315.28,254.20 316.40,253.94 317.52,253.68 318.64,253.42 319.76,253.16 320.88,252.90 322.00,252.63 323.12,252.37 324.24,252.11 325.36,251.85 326.48,251.59 327.60,251.33 328.72,251.07 329.84,250.80 330.96,250.54 332.08,250.28 333.20,250.02 334.32,249.76 335.44,249.50 336.56,249.24 337.68,248.97 338.80,248.71 339.92,248.45 341.04,248.19 342.16,247.93 343.28,247.67 344.40,247.41 345.52,247.14 346.64,246.88 347.76,246.62 348.88,246.36 350.00,246.10 351.12,245.84 352.24,245.58 353.36,245.31 354.48,245.05 355.60,244.79 356.72,244.53 357.84,244.27 358.96,244.01 360.08,243.75 361.20,243.48 362.32,243.22 363.44,242.96 364.56,242.70 365.68,242.44 366.80,242.18 367.92,241.91 369.04,241.65 370.16,241.39 371.28,241.13 372.40,240.87 373.52,240.61 374.64,240.35 375.76,240.08 376.88,239.82 378.00,239.56 379.12,239.30 380.24,239.04 381.36,238.78 382.48,238.52 383.60,238.25 384.72,237.99 385.84,237.73 386.96,237.47 388.08,237.21 389.20,236.95 390.32,236.69 391.44,236.42 392.56,236.16 393.68,235.90 394.80,235.64 395.92,235.38 397.04,235.12 398.16,234.86 399.28,234.59 400.40,234.33 401.52,234.07 402.64,233.81 403.76,233.55 404.88,233.29 406.00,233.03 407.12,232.76 408.24,232.50 409.36,232.24 410.48,231.98 411.60,231.72 412.72,231.46 413.84,231.19 414.96,230.93 416.08,230.67 417.20,230.41 418.32,230.15 419.44,229.89 420.56,229.63 421.68,229.36 422.80,229.10 423.92,228.84 425.04,228.58 426.16,228.32 427.28,228.06 428.40,227.80 429.52,227.53 430.64,227.27 431.76,227.01 432.88,226.75 434.00,226.49 435.12,226.23 436.24,225.97 437.36,225.70 438.48,225.44 439.60,225.18 440.72,224.92 441.84,224.66 442.96,224.40 444.08,224.14 445.20,223.87 446.32,223.61 447.44,223.35 448.56,223.09 449.68,222.83 450.80,222.57 451.92,222.31 453.04,222.04 454.16,221.78 455.28,221.52 456.40,221.26 457.52,221.00 458.64,220.74 459.76,220.48 460.88,220.21 462.00,219.95 463.12,219.69 464.24,219.43 465.36,219.17 466.48,218.91 467.60,218.64 468.72,218.38 469.84,218.12 470.96,217.86 472.08,217.60 473.20,217.34 474.32,217.08 475.44,216.81 476.56,216.55 477.68,216.29 478.80,216.03 479.92,215.77 481.04,215.51 482.16,215.25 483.28,214.98 484.40,214.72 485.52,214.46 486.64,214.20 487.76,213.94 488.88,213.68 490.00,213.42 491.12,213.15 492.24,212.89 493.36,212.63 494.48,212.37 495.60,212.11 496.72,211.85 497.84,211.59 498.96,211.32 500.08,211.06 501.20,210.80 502.32,210.54 503.44,210.28 504.56,210.02 505.68,209.76 506.80,209.49 507.92,209.23 509.04,208.97 510.16,208.71 511.28,208.45 512.40,208.19 513.52,207.92 514.64,207.66 515.76,207.40 516.88,207.14 518.00,206.88 519.12,206.62 520.24,206.36 521.36,206.09 522.48,205.83 523.60,205.57 524.72,205.31 525.84,205.05 526.96,204.79 528.08,204.53 529.20,204.26 530.32,204.00 531.44,203.74 532.56,203.48 533.68,203.22 534.80,202.96 535.92,202.70 537.04,202.43 538.16,202.17 539.28,201.91 540.40,201.65 541.52,201.39 542.64,201.13 543.76,200.87 544.88,200.60 546.00,200.34 547.12,200.08 548.24,199.82 549.36,199.56 550.48,199.30 551.60,199.04 552.72,198.77 553.84,198.51 554.96,198.25 556.08,197.99 557.20,197.73 558.32,197.47 559.44,197.20 560.56,196.94 561.68,196.68 562.80,196.42 563.92,196.16 565.04,195.90 566.16,195.64 567.28,195.37 568.40,195.11 569.52,194.85 570.64,194.59 571.76,194.33 572.88,194.07 574.00,193.81 575.12,193.54 576.24,193.28 577.36,193.02 578.48,192.76 579.60,192.50 580.72,192.24 581.84,191.98 582.96,191.71 584.08,191.45 585.20,191.19 586.32,190.93 587.44,190.67 588.56,190.41 589.68,190.15 590.80,189.88 591.92,189.62 593.04,189.36 594.16,189.10 595.28,188.84 596.40,188.58 597.52,188.32 598.64,188.05 599.76,187.79 600.88,187.53 602.00,187.27 603.12,187.01 604.24,186.75 605.36,186.49 606.48,186.22 607.60,185.96 608.72,185.70 609.84,185.44 610.96,185.18 612.08,184.92 613.20,184.65 614.32,184.39 615.44,184.13 616.56,183.87 617.68,183.61 618.80,183.35 619.92,183.09 621.04,182.82 622.16,182.56 623.28,182.30 624.40,182.04 625.52,181.78 626.64,181.52 627.76,181.26 628.88,180.99 630.00,180.73 631.12,180.47 632.24,180.21 633.36,179.95 634.48,179.69 635.60,179.43 636.72,179.16 637.84,178.90 638.96,178.64 640.08,178.38 641.20,178.12 642.32,177.86 643.44,177.60 644.56,177.33 645.68,177.07 646.80,176.81 647.92,176.55 649.04,176.29 650.16,176.03 651.28,175.77 652.40,175.50 653.52,175.24 654.64,174.98 655.76,174.72 656.88,174.46 658.00,174.20 659.12,173.93 660.24,173.67 661.36,173.41 662.48,173.15 663.60,172.89 664.72,172.63 665.84,172.37 666.96,172.10 668.08,171.84 669.20,171.58 670.32,171.32 671.44,171.06 672.56,170.80 673.68,170.54 674.80,170.27 675.92,170.01 677.04,169.75 678.16,169.49 679.28,169.23 680.40,168.97 681.52,168.71 682.64,168.44 683.76,168.18 684.88,167.92 686.00,167.66 687.12,167.40 688.24,167.14 689.36,166.88 690.48,166.61 691.60,166.35 692.72,166.09 693.84,165.83 694.96,165.57 696.08,165.31 697.20,165.05 698.32,164.78 699.44,164.52 700.56,164.26 701.68,164.00 702.80,163.74 703.92,163.48 705.04,163.22 706.16,162.95 707.28,162.69 708.40,162.43 709.52,162.17 710.64,161.91 711.76,161.65 712.88,161.38 714.00,161.12 715.12,160.86 716.24,160.60 717.36,160.34 718.48,160.08 719.60,159.82 720.72,159.55 721.84,159.29 722.96,159.03 724.08,158.77 725.20,158.51 726.32,158.25 727.44,157.99 728.56,157.72 729.68,157.46 730.80,157.20 731.92,156.94 733.04,156.68 734.16,156.42 735.28,156.16 736.40,155.89 737.52,155.63 738.64,155.37 739.76,155.11 740.88,154.85 742.00,154.59 743.12,154.33 744.24,154.06 745.36,153.80 746.48,153.54 747.60,153.28 748.72,153.02 749.84,152.76 750.96,152.50 752.08,152.23 753.20,151.97 754.32,151.71 755.44,151.45 756.56,151.19 757.68,150.93 758.80,150.66 759.92,150.40 761.04,150.14 762.16,149.88 763.28,149.62 764.40,149.36 765.52,149.10 766.64,148.83 767.76,148.57 768.88,148.31 770.00,148.05 771.12,147.79 772.24,147.53 773.36,147.27 774.48,147.00 775.60,146.74 776.72,146.48 777.84,146.22 778.96,145.96 780.08,145.70 781.20,145.44 782.32,145.17 783.44,144.91 784.56,144.65 785.68,144.39 786.80,144.13 787.92,143.87 789.04,143.61 790.16,143.34 791.28,143.08 792.40,142.82 793.52,142.56 794.64,142.30 795.76,142.04 796.88,141.78 798.00,141.51 799.12,141.25 800.24,140.99 801.36,140.73 802.48,140.47 803.60,140.21 804.72,139.94 805.84,139.68 806.96,139.42 808.08,139.16 809.20,138.90 810.32,138.64 811.44,138.38 812.56,138.11 813.68,137.85 814.80,137.59 815.92,137.33 817.04,137.07 818.16,136.81 819.28,136.55 820.40,136.28 821.52,136.02 822.64,135.76 823.76,135.50 824.88,135.24 826.00,134.98 827.12,134.72 828.24,134.45 829.36,134.19 830.48,133.93 831.60,133.67 832.72,133.41 833.84,133.15 834.96,132.89 836.08,132.62 837.20,132.36 838.32,132.10 839.44,131.84 840.56,131.58 841.68,131.32 842.80,131.06 843.92,130.79 845.04,130.53 846.16,130.27 847.28,130.01 848.40,129.75 849.52,129.49 850.64,129.23 851.76,128.96 852.88,128.70 854.00,128.44 855.12,128.18 856.24,127.92 857.36,127.66 858.48,127.39 859.60,127.13 860.72,126.87 861.84,126.61 862.96,126.35 864.08,126.09 865.20,125.83 866.32,125.56 867.44,125.30 868.56,125.04 869.68,124.78 870.80,124.52 871.92,124.26 873.04,124.00 874.16,123.73 875.28,123.47 876.40,123.21 877.52,122.95 878.64,122.69 879.76,122.43 880.88,122.17 882.00,121.90 883.12,121.64 884.24,121.38 885.36,121.12 886.48,120.86 887.60,120.60 888.72,120.34 889.84,120.07 890.96,119.81 892.08,119.55 893.20,119.29 894.32,119.03 895.44,118.77 896.56,118.51 897.68,118.24 898.80,117.98 899.92,117.72 901.04,117.46 902.16,117.20 903.28,116.94 904.40,116.67 905.52,116.41 906.64,116.15 907.76,115.89 908.88,115.63 910.00,115.37 911.12,115.11 912.24,114.84 913.36,114.58 914.48,114.32 915.60,114.06 916.72,113.80 917.84,113.54 918.96,113.28 920.08,113.01 921.20,112.75 922.32,112.49 923.44,112.23 924.56,111.97 925.68,111.71 926.80,111.45 927.92,111.18 929.04,110.92 930.16,110.66 931.28,110.40 932.40,110.14 933.52,109.88 934.64,109.62 935.76,109.35 936.88,109.09 938.00,108.83" /> <polyline fill="none" stroke="#3a0ca3" stroke-width="2" points="42.00,318.00 43.12,317.98 44.24,317.94 45.36,317.89 46.48,317.83 47.60,317.77 48.72,317.71 49.84,317.64 50.96,317.56 52.08,317.48 53.20,317.40 54.32,317.32 55.44,317.23 56.56,317.14 57.68,317.04 58.80,316.95 59.92,316.85 61.04,316.74 62.16,316.64 63.28,316.53 64.40,316.42 65.52,316.31 66.64,316.20 67.76,316.08 68.88,315.96 70.00,315.84 71.12,315.72 72.24,315.60 73.36,315.47 74.48,315.35 75.60,315.22 76.72,315.09 77.84,314.95 78.96,314.82 80.08,314.68 81.20,314.55 82.32,314.41 83.44,314.27 84.56,314.12 85.68,313.98 86.80,313.84 87.92,313.69 89.04,313.54 90.16,313.39 91.28,313.24 92.40,313.09 93.52,312.94 94.64,312.78 95.76,312.63 96.88,312.47 98.00,312.31 99.12,312.15 100.24,311.99 101.36,311.83 102.48,311.66 103.60,311.50 104.72,311.33 105.84,311.16 106.96,311.00 108.08,310.83 109.20,310.65 110.32,310.48 111.44,310.31 112.56,310.14 113.68,309.96 114.80,309.78 115.92,309.61 117.04,309.43 118.16,309.25 119.28,309.07 120.40,308.89 121.52,308.70 122.64,308.52 123.76,308.33 124.88,308.15 126.00,307.96 127.12,307.77 128.24,307.58 129.36,307.39 130.48,307.20 131.60,307.01 132.72,306.82 133.84,306.63 134.96,306.43 136.08,306.24 137.20,306.04 138.32,305.84 139.44,305.64 140.56,305.44 141.68,305.24 142.80,305.04 143.92,304.84 145.04,304.64 146.16,304.43 147.28,304.23 148.40,304.02 149.52,303.82 150.64,303.61 151.76,303.40 152.88,303.19 154.00,302.98 155.12,302.77 156.24,302.56 157.36,302.35 158.48,302.14 159.60,301.92 160.72,301.71 161.84,301.49 162.96,301.27 164.08,301.06 165.20,300.84 166.32,300.62 167.44,300.40 168.56,300.18 169.68,299.96 170.80,299.74 171.92,299.51 173.04,299.29 174.16,299.07 175.28,298.84 176.40,298.62 177.52,298.39 178.64,298.16 179.76,297.93 180.88,297.71 182.00,297.48 183.12,297.25 184.24,297.02 185.36,296.78 186.48,296.55 187.60,296.32 188.72,296.08 189.84,295.85 190.96,295.61 192.08,295.38 193.20,295.14 194.32,294.90 195.44,294.67 196.56,294.43 197.68,294.19 198.80,293.95 199.92,293.71 201.04,293.46 202.16,293.22 203.28,292.98 204.40,292.74 205.52,292.49 206.64,292.25 207.76,292.00 208.88,291.76 210.00,291.51 211.12,291.26 212.24,291.01 213.36,290.76 214.48,290.51 215.60,290.26 216.72,290.01 217.84,289.76 218.96,289.51 220.08,289.26 221.20,289.00 222.32,288.75 223.44,288.49 224.56,288.24 225.68,287.98 226.80,287.73 227.92,287.47 229.04,287.21 230.16,286.95 231.28,286.69 232.40,286.43 233.52,286.17 234.64,285.91 235.76,285.65 236.88,285.39 238.00,285.13 239.12,284.86 240.24,284.60 241.36,284.34 242.48,284.07 243.60,283.80 244.72,283.54 245.84,283.27 246.96,283.00 248.08,282.74 249.20,282.47 250.32,282.20 251.44,281.93 252.56,281.66 253.68,281.39 254.80,281.12 255.92,280.84 257.04,280.57 258.16,280.30 259.28,280.02 260.40,279.75 261.52,279.48 262.64,279.20 263.76,278.92 264.88,278.65 266.00,278.37 267.12,278.09 268.24,277.81 269.36,277.54 270.48,277.26 271.60,276.98 272.72,276.70 273.84,276.41 274.96,276.13 276.08,275.85 277.20,275.57 278.32,275.29 279.44,275.00 280.56,274.72 281.68,274.43 282.80,274.15 283.92,273.86 285.04,273.58 286.16,273.29 287.28,273.00 288.40,272.71 289.52,272.42 290.64,272.14 291.76,271.85 292.88,271.56 294.00,271.27 295.12,270.97 296.24,270.68 297.36,270.39 298.48,270.10 299.60,269.80 300.72,269.51 301.84,269.22 302.96,268.92 304.08,268.63 305.20,268.33 306.32,268.04 307.44,267.74 308.56,267.44 309.68,267.14 310.80,266.85 311.92,266.55 313.04,266.25 314.16,265.95 315.28,265.65 316.40,265.35 317.52,265.05 318.64,264.75 319.76,264.44 320.88,264.14 322.00,263.84 323.12,263.53 324.24,263.23 325.36,262.93 326.48,262.62 327.60,262.31 328.72,262.01 329.84,261.70 330.96,261.40 332.08,261.09 333.20,260.78 334.32,260.47 335.44,260.16 336.56,259.85 337.68,259.54 338.80,259.23 339.92,258.92 341.04,258.61 342.16,258.30 343.28,257.99 344.40,257.68 345.52,257.36 346.64,257.05 347.76,256.74 348.88,256.42 350.00,256.11 351.12,255.79 352.24,255.47 353.36,255.16 354.48,254.84 355.60,254.52 356.72,254.21 357.84,253.89 358.96,253.57 360.08,253.25 361.20,252.93 362.32,252.61 363.44,252.29 364.56,251.97 365.68,251.65 366.80,251.33 367.92,251.01 369.04,250.68 370.16,250.36 371.28,250.04 372.40,249.71 373.52,249.39 374.64,249.06 375.76,248.74 376.88,248.41 378.00,248.09 379.12,247.76 380.24,247.43 381.36,247.11 382.48,246.78 383.60,246.45 384.72,246.12 385.84,245.79 386.96,245.46 388.08,245.13 389.20,244.80 390.32,244.47 391.44,244.14 392.56,243.81 393.68,243.48 394.80,243.15 395.92,242.81 397.04,242.48 398.16,242.15 399.28,241.81 400.40,241.48 401.52,241.14 402.64,240.81 403.76,240.47 404.88,240.13 406.00,239.80 407.12,239.46 408.24,239.12 409.36,238.79 410.48,238.45 411.60,238.11 412.72,237.77 413.84,237.43 414.96,237.09 416.08,236.75 417.20,236.41 418.32,236.07 419.44,235.73 420.56,235.38 421.68,235.04 422.80,234.70 423.92,234.36 425.04,234.01 426.16,233.67 427.28,233.32 428.40,232.98 429.52,232.63 430.64,232.29 431.76,231.94 432.88,231.60 434.00,231.25 435.12,230.90 436.24,230.55 437.36,230.21 438.48,229.86 439.60,229.51 440.72,229.16 441.84,228.81 442.96,228.46 444.08,228.11 445.20,227.76 446.32,227.41 447.44,227.06 448.56,226.70 449.68,226.35 450.80,226.00 451.92,225.65 453.04,225.29 454.16,224.94 455.28,224.58 456.40,224.23 457.52,223.87 458.64,223.52 459.76,223.16 460.88,222.81 462.00,222.45 463.12,222.09 464.24,221.74 465.36,221.38 466.48,221.02 467.60,220.66 468.72,220.30 469.84,219.94 470.96,219.58 472.08,219.23 473.20,218.86 474.32,218.50 475.44,218.14 476.56,217.78 477.68,217.42 478.80,217.06 479.92,216.70 481.04,216.33 482.16,215.97 483.28,215.61 484.40,215.24 485.52,214.88 486.64,214.51 487.76,214.15 488.88,213.78 490.00,213.42 491.12,213.05 492.24,212.68 493.36,212.32 494.48,211.95 495.60,211.58 496.72,211.21 497.84,210.84 498.96,210.48 500.08,210.11 501.20,209.74 502.32,209.37 503.44,209.00 504.56,208.63 505.68,208.26 506.80,207.88 507.92,207.51 509.04,207.14 510.16,206.77 511.28,206.40 512.40,206.02 513.52,205.65 514.64,205.27 515.76,204.90 516.88,204.53 518.00,204.15 519.12,203.78 520.24,203.40 521.36,203.02 522.48,202.65 523.60,202.27 524.72,201.89 525.84,201.52 526.96,201.14 528.08,200.76 529.20,200.38 530.32,200.00 531.44,199.63 532.56,199.25 533.68,198.87 534.80,198.49 535.92,198.11 537.04,197.73 538.16,197.34 539.28,196.96 540.40,196.58 541.52,196.20 542.64,195.82 543.76,195.43 544.88,195.05 546.00,194.67 547.12,194.28 548.24,193.90 549.36,193.51 550.48,193.13 551.60,192.74 552.72,192.36 553.84,191.97 554.96,191.59 556.08,191.20 557.20,190.81 558.32,190.43 559.44,190.04 560.56,189.65 561.68,189.26 562.80,188.87 563.92,188.48 565.04,188.09 566.16,187.71 567.28,187.32 568.40,186.92 569.52,186.53 570.64,186.14 571.76,185.75 572.88,185.36 574.00,184.97 575.12,184.58 576.24,184.18 577.36,183.79 578.48,183.40 579.60,183.00 580.72,182.61 581.84,182.22 582.96,181.82 584.08,181.43 585.20,181.03 586.32,180.64 587.44,180.24 588.56,179.84 589.68,179.45 590.80,179.05 591.92,178.65 593.04,178.26 594.16,177.86 595.28,177.46 596.40,177.06 597.52,176.66 598.64,176.26 599.76,175.86 600.88,175.46 602.00,175.06 603.12,174.66 604.24,174.26 605.36,173.86 606.48,173.46 607.60,173.06 608.72,172.66 609.84,172.25 610.96,171.85 612.08,171.45 613.20,171.05 614.32,170.64 615.44,170.24 616.56,169.83 617.68,169.43 618.80,169.03 619.92,168.62 621.04,168.21 622.16,167.81 623.28,167.40 624.40,167.00 625.52,166.59 626.64,166.18 627.76,165.78 628.88,165.37 630.00,164.96 631.12,164.55 632.24,164.14 633.36,163.73 634.48,163.32 635.60,162.92 636.72,162.51 637.84,162.10 638.96,161.68 640.08,161.27 641.20,160.86 642.32,160.45 643.44,160.04 644.56,159.63 645.68,159.22 646.80,158.80 647.92,158.39 649.04,157.98 650.16,157.56 651.28,157.15 652.40,156.74 653.52,156.32 654.64,155.91 655.76,155.49 656.88,155.08 658.00,154.66 659.12,154.24 660.24,153.83 661.36,153.41 662.48,153.00 663.60,152.58 664.72,152.16 665.84,151.74 666.96,151.32 668.08,150.91 669.20,150.49 670.32,150.07 671.44,149.65 672.56,149.23 673.68,148.81 674.80,148.39 675.92,147.97 677.04,147.55 678.16,147.13 679.28,146.71 680.40,146.29 681.52,145.86 682.64,145.44 683.76,145.02 684.88,144.60 686.00,144.17 687.12,143.75 688.24,143.33 689.36,142.90 690.48,142.48 691.60,142.05 692.72,141.63 693.84,141.20 694.96,140.78 696.08,140.35 697.20,139.93 698.32,139.50 699.44,139.07 700.56,138.65 701.68,138.22 702.80,137.79 703.92,137.36 705.04,136.94 706.16,136.51 707.28,136.08 708.40,135.65 709.52,135.22 710.64,134.79 711.76,134.36 712.88,133.93 714.00,133.50 715.12,133.07 716.24,132.64 717.36,132.21 718.48,131.78 719.60,131.34 720.72,130.91 721.84,130.48 722.96,130.05 724.08,129.61 725.20,129.18 726.32,128.75 727.44,128.31 728.56,127.88 729.68,127.45 730.80,127.01 731.92,126.58 733.04,126.14 734.16,125.71 735.28,125.27 736.40,124.83 737.52,124.40 738.64,123.96 739.76,123.52 740.88,123.09 742.00,122.65 743.12,122.21 744.24,121.77 745.36,121.34 746.48,120.90 747.60,120.46 748.72,120.02 749.84,119.58 750.96,119.14 752.08,118.70 753.20,118.26 754.32,117.82 755.44,117.38 756.56,116.94 757.68,116.50 758.80,116.05 759.92,115.61 761.04,115.17 762.16,114.73 763.28,114.28 764.40,113.84 765.52,113.40 766.64,112.96 767.76,112.51 768.88,112.07 770.00,111.62 771.12,111.18 772.24,110.73 773.36,110.29 774.48,109.84 775.60,109.40 776.72,108.95 777.84,108.50 778.96,108.06 780.08,107.61 781.20,107.16 782.32,106.72 783.44,106.27 784.56,105.82 785.68,105.37 786.80,104.92 787.92,104.48 789.04,104.03 790.16,103.58 791.28,103.13 792.40,102.68 793.52,102.23 794.64,101.78 795.76,101.33 796.88,100.88 798.00,100.43 799.12,99.97 800.24,99.52 801.36,99.07 802.48,98.62 803.60,98.17 804.72,97.71 805.84,97.26 806.96,96.81 808.08,96.35 809.20,95.90 810.32,95.45 811.44,94.99 812.56,94.54 813.68,94.08 814.80,93.63 815.92,93.17 817.04,92.72 818.16,92.26 819.28,91.80 820.40,91.35 821.52,90.89 822.64,90.43 823.76,89.98 824.88,89.52 826.00,89.06 827.12,88.60 828.24,88.14 829.36,87.69 830.48,87.23 831.60,86.77 832.72,86.31 833.84,85.85 834.96,85.39 836.08,84.93 837.20,84.47 838.32,84.01 839.44,83.55 840.56,83.09 841.68,82.62 842.80,82.16 843.92,81.70 845.04,81.24 846.16,80.78 847.28,80.31 848.40,79.85 849.52,79.39 850.64,78.92 851.76,78.46 852.88,78.00 854.00,77.53 855.12,77.07 856.24,76.60 857.36,76.14 858.48,75.67 859.60,75.21 860.72,74.74 861.84,74.28 862.96,73.81 864.08,73.34 865.20,72.88 866.32,72.41 867.44,71.94 868.56,71.47 869.68,71.01 870.80,70.54 871.92,70.07 873.04,69.60 874.16,69.13 875.28,68.66 876.40,68.19 877.52,67.73 878.64,67.26 879.76,66.79 880.88,66.31 882.00,65.84 883.12,65.37 884.24,64.90 885.36,64.43 886.48,63.96 887.60,63.49 888.72,63.02 889.84,62.54 890.96,62.07 892.08,61.60 893.20,61.12 894.32,60.65 895.44,60.18 896.56,59.70 897.68,59.23 898.80,58.76 899.92,58.28 901.04,57.81 902.16,57.33 903.28,56.86 904.40,56.38 905.52,55.90 906.64,55.43 907.76,54.95 908.88,54.48 910.00,54.00 911.12,53.52 912.24,53.04 913.36,52.57 914.48,52.09 915.60,51.61 916.72,51.13 917.84,50.65 918.96,50.18 920.08,49.70 921.20,49.22 922.32,48.74 923.44,48.26 924.56,47.78 925.68,47.30 926.80,46.82 927.92,46.34 929.04,45.86 930.16,45.38 931.28,44.89 932.40,44.41 933.52,43.93 934.64,43.45 935.76,42.97 936.88,42.48 938.00,42.00" />
  <line x1="56.0" y1="56.0" x2="78.0" y2="56.0" stroke="#9b2226" stroke-width="2" /><text x="84.0" y="60.0" font-family="Arial, Helvetica, sans-serif" font-size="11" fill="#243b53">p=0.8</text> <line x1="56.0" y1="72.0" x2="78.0" y2="72.0" stroke="#005f73" stroke-width="2" /><text x="84.0" y="76.0" font-family="Arial, Helvetica, sans-serif" font-size="11" fill="#243b53">p=1.0</text> <line x1="56.0" y1="88.0" x2="78.0" y2="88.0" stroke="#3a0ca3" stroke-width="2" /><text x="84.0" y="92.0" font-family="Arial, Helvetica, sans-serif" font-size="11" fill="#243b53">p=1.4</text>
  <text x="490.0" y="24" text-anchor="middle" font-family="Arial, Helvetica, sans-serif" font-size="16" fill="#102a43">Carrier/modulator mask exponent curves</text>
  <text x="490.0" y="352" text-anchor="middle" font-family="Arial, Helvetica, sans-serif" font-size="12" fill="#334e68">normalized modulator magnitude</text>
  <text x="14" y="180.0" transform="rotate(-90 14,180.0)" text-anchor="middle" font-family="Arial, Helvetica, sans-serif" font-size="12" fill="#334e68">mask gain</text>
  <text x="42" y="336" font-family="Arial, Helvetica, sans-serif" font-size="11" fill="#486581">0.00</text>
  <text x="938" y="336" text-anchor="end" font-family="Arial, Helvetica, sans-serif" font-size="11" fill="#486581">2.00</text>
  <text x="36" y="46" text-anchor="end" font-family="Arial, Helvetica, sans-serif" font-size="11" fill="#486581">2.64</text>
  <text x="36" y="322" text-anchor="end" font-family="Arial, Helvetica, sans-serif" font-size="11" fill="#486581">0.00</text>
</svg>
