<svg xmlns="http://www.w3.org/2000/svg" width="980" height="360" viewBox="0 0 980 360">
  <rect x="0" y="0" width="980" height="360" fill="#ffffff" />
  <rect x="42" y="42" width="896" height="276" fill="#f7fbff" stroke="#c8d9e6" />
  <polyline fill="none" stroke="#005f73" stroke-width="2" points="42.00,318.00 43.12,317.66 44.24,317.31 45.36,316.97 46.48,316.62 47.60,316.28 48.72,315.93 49.84,315.59 50.96,315.24 52.08,314.90 53.20,314.55 54.32,314.21 55.44,313.86 56.56,313.52 57.68,313.17 58.80,312.83 59.92,312.48 61.04,312.14 62.16,311.79 63.28,311.45 64.40,311.10 65.52,310.76 66.64,310.41 67.76,310.07 68.88,309.72 70.00,309.38 71.12,309.03 72.24,308.69 73.36,308.34 74.48,308.00 75.60,307.65 76.72,307.31 77.84,306.96 78.96,306.62 80.08,306.27 81.20,305.93 82.32,305.58 83.44,305.24 84.56,304.89 85.68,304.55 86.80,304.20 87.92,303.86 89.04,303.51 90.16,303.17 91.28,302.82 92.40,302.48 93.52,302.13 94.64,301.79 95.76,301.44 96.88,301.10 98.00,300.75 99.12,300.41 100.24,300.06 101.36,299.72 102.48,299.37 103.60,299.03 104.72,298.68 105.84,298.34 106.96,297.99 108.08,297.65 109.20,297.30 110.32,296.96 111.44,296.61 112.56,296.27 113.68,295.92 114.80,295.58 115.92,295.23 117.04,294.89 118.16,294.54 119.28,294.20 120.40,293.85 121.52,293.51 122.64,293.16 123.76,292.82 124.88,292.47 126.00,292.13 127.12,291.78 128.24,291.44 129.36,291.09 130.48,290.75 131.60,290.40 132.72,290.06 133.84,289.71 134.96,289.37 136.08,289.02 137.20,288.68 138.32,288.33 139.44,287.99 140.56,287.64 141.68,287.30 142.80,286.95 143.92,286.61 145.04,286.26 146.16,285.92 147.28,285.57 148.40,285.23 149.52,284.88 150.64,284.54 151.76,284.19 152.88,283.85 154.00,283.50 155.12,283.16 156.24,282.81 157.36,282.47 158.48,282.12 159.60,281.78 160.72,281.43 161.84,281.09 162.96,280.74 164.08,280.40 165.20,280.05 166.32,279.71 167.44,279.36 168.56,279.02 169.68,278.67 170.80,278.33 171.92,277.98 173.04,277.64 174.16,277.29 175.28,276.95 176.40,276.60 177.52,276.26 178.64,275.91 179.76,275.57 180.88,275.22 182.00,274.88 183.12,274.53 184.24,274.19 185.36,273.84 186.48,273.50 187.60,273.15 188.72,272.81 189.84,272.46 190.96,272.12 192.08,271.77 193.20,271.43 194.32,271.08 195.44,270.74 196.56,270.39 197.68,270.05 198.80,269.70 199.92,269.36 201.04,269.01 202.16,268.67 203.28,268.32 204.40,267.98 205.52,267.63 206.64,267.29 207.76,266.94 208.88,266.60 210.00,266.25 211.12,265.91 212.24,265.56 213.36,265.22 214.48,264.87 215.60,264.53 216.72,264.18 217.84,263.84 218.96,263.49 220.08,263.15 221.20,262.80 222.32,262.46 223.44,262.11 224.56,261.77 225.68,261.42 226.80,261.08 227.92,260.73 229.04,260.39 230.16,260.04 231.28,259.70 232.40,259.35 233.52,259.01 234.64,258.66 235.76,258.32 236.88,257.97 238.00,257.63 239.12,257.28 240.24,256.94 241.36,256.59 242.48,256.25 243.60,255.90 244.72,255.56 245.84,255.21 246.96,254.87 248.08,254.52 249.20,254.18 250.32,253.83 251.44,253.49 252.56,253.14 253.68,252.80 254.80,252.45 255.92,252.11 257.04,251.76 258.16,251.42 259.28,251.07 260.40,250.73 261.52,250.38 262.64,250.04 263.76,249.69 264.88,249.35 266.00,249.00 267.12,248.66 268.24,248.31 269.36,247.97 270.48,247.62 271.60,247.28 272.72,246.93 273.84,246.59 274.96,246.24 276.08,245.90 277.20,245.55 278.32,245.21 279.44,244.86 280.56,244.52 281.68,244.17 282.80,243.83 283.92,243.48 285.04,243.14 286.16,242.79 287.28,242.45 288.40,242.10 289.52,241.76 290.64,241.41 291.76,241.07 292.88,240.72 294.00,240.38 295.12,240.03 296.24,239.69 297.36,239.34 298.48,239.00 299.60,238.65 300.72,238.31 301.84,237.96 302.96,237.62 304.08,237.27 305.20,236.93 306.32,236.58 307.44,236.24 308.56,235.89 309.68,235.55 310.80,235.20 311.92,234.86 313.04,234.51 314.16,234.17 315.28,233.82 316.40,233.48 317.52,233.13 318.64,232.79 319.76,232.44 320.88,232.10 322.00,231.75 323.12,231.41 324.24,231.06 325.36,230.72 326.48,230.37 327.60,230.03 328.72,229.68 329.84,229.34 330.96,228.99 332.08,228.65 333.20,228.30 334.32,227.96 335.44,227.61 336.56,227.27 337.68,226.92 338.80,226.58 339.92,226.23 341.04,225.89 342.16,225.54 343.28,225.20 344.40,224.85 345.52,224.51 346.64,224.16 347.76,223.82 348.88,223.47 350.00,223.13 351.12,222.78 352.24,222.44 353.36,222.09 354.48,221.75 355.60,221.40 356.72,221.06 357.84,220.71 358.96,220.37 360.08,220.02 361.20,219.68 362.32,219.33 363.44,218.99 364.56,218.64 365.68,218.30 366.80,217.95 367.92,217.61 369.04,217.26 370.16,216.92 371.28,216.57 372.40,216.23 373.52,215.88 374.64,215.54 375.76,215.19 376.88,214.85 378.00,214.50 379.12,214.16 380.24,213.81 381.36,213.47 382.48,213.12 383.60,212.78 384.72,212.43 385.84,212.09 386.96,211.74 388.08,211.40 389.20,211.05 390.32,210.71 391.44,210.36 392.56,210.02 393.68,209.67 394.80,209.33 395.92,208.98 397.04,208.64 398.16,208.29 399.28,207.95 400.40,207.60 401.52,207.26 402.64,206.91 403.76,206.57 404.88,206.22 406.00,205.88 407.12,205.53 408.24,205.19 409.36,204.84 410.48,204.50 411.60,204.15 412.72,203.81 413.84,203.46 414.96,203.12 416.08,202.77 417.20,202.43 418.32,202.08 419.44,201.74 420.56,201.39 421.68,201.05 422.80,200.70 423.92,200.36 425.04,200.01 426.16,199.67 427.28,199.32 428.40,198.98 429.52,198.63 430.64,198.29 431.76,197.94 432.88,197.60 434.00,197.25 435.12,196.91 436.24,196.56 437.36,196.22 438.48,195.87 439.60,195.53 440.72,195.18 441.84,194.84 442.96,194.49 444.08,194.15 445.20,193.80 446.32,193.46 447.44,193.11 448.56,192.77 449.68,192.42 450.80,192.08 451.92,191.73 453.04,191.39 454.16,191.04 455.28,190.70 456.40,190.35 457.52,190.01 458.64,189.66 459.76,189.32 460.88,188.97 462.00,188.63 463.12,188.28 464.24,187.94 465.36,187.59 466.48,187.25 467.60,186.90 468.72,186.56 469.84,186.21 470.96,185.87 472.08,185.52 473.20,185.18 474.32,184.83 475.44,184.49 476.56,184.14 477.68,183.80 478.80,183.45 479.92,183.11 481.04,182.76 482.16,182.42 483.28,182.07 484.40,181.73 485.52,181.38 486.64,181.04 487.76,180.69 488.88,180.35 490.00,180.00 491.12,179.66 492.24,179.31 493.36,178.97 494.48,178.62 495.60,178.28 496.72,177.93 497.84,177.59 498.96,177.24 500.08,176.90 501.20,176.55 502.32,176.21 503.44,175.86 504.56,175.52 505.68,175.17 506.80,174.83 507.92,174.48 509.04,174.14 510.16,173.79 511.28,173.45 512.40,173.10 513.52,172.76 514.64,172.41 515.76,172.07 516.88,171.72 518.00,171.38 519.12,171.03 520.24,170.69 521.36,170.34 522.48,170.00 523.60,169.65 524.72,169.31 525.84,168.96 526.96,168.62 528.08,168.27 529.20,167.93 530.32,167.58 531.44,167.24 532.56,166.89 533.68,166.55 534.80,166.20 535.92,165.86 537.04,165.51 538.16,165.17 539.28,164.82 540.40,164.48 541.52,164.13 542.64,163.79 543.76,163.44 544.88,163.10 546.00,162.75 547.12,162.41 548.24,162.06 549.36,161.72 550.48,161.37 551.60,161.03 552.72,160.68 553.84,160.34 554.96,159.99 556.08,159.65 557.20,159.30 558.32,158.96 559.44,158.61 560.56,158.27 561.68,157.92 562.80,157.58 563.92,157.23 565.04,156.89 566.16,156.54 567.28,156.20 568.40,155.85 569.52,155.51 570.64,155.16 571.76,154.82 572.88,154.47 574.00,154.13 575.12,153.78 576.24,153.44 577.36,153.09 578.48,152.75 579.60,152.40 580.72,152.06 581.84,151.71 582.96,151.37 584.08,151.02 585.20,150.68 586.32,150.33 587.44,149.99 588.56,149.64 589.68,149.30 590.80,148.95 591.92,148.61 593.04,148.26 594.16,147.92 595.28,147.57 596.40,147.23 597.52,146.88 598.64,146.54 599.76,146.19 600.88,145.85 602.00,145.50 603.12,145.16 604.24,144.81 605.36,144.47 606.48,144.12 607.60,143.78 608.72,143.43 609.84,143.09 610.96,142.74 612.08,142.40 613.20,142.05 614.32,141.71 615.44,141.36 616.56,141.02 617.68,140.67 618.80,140.33 619.92,139.98 621.04,139.64 622.16,139.29 623.28,138.95 624.40,138.60 625.52,138.26 626.64,137.91 627.76,137.57 628.88,137.22 630.00,136.88 631.12,136.53 632.24,136.19 633.36,135.84 634.48,135.50 635.60,135.15 636.72,134.81 637.84,134.46 638.96,134.12 640.08,133.77 641.20,133.43 642.32,133.08 643.44,132.74 644.56,132.39 645.68,132.05 646.80,131.70 647.92,131.36 649.04,131.01 650.16,130.67 651.28,130.32 652.40,129.98 653.52,129.63 654.64,129.29 655.76,128.94 656.88,128.60 658.00,128.25 659.12,127.91 660.24,127.56 661.36,127.22 662.48,126.87 663.60,126.53 664.72,126.18 665.84,125.84 666.96,125.49 668.08,125.15 669.20,124.80 670.32,124.46 671.44,124.11 672.56,123.77 673.68,123.42 674.80,123.08 675.92,122.73 677.04,122.39 678.16,122.04 679.28,121.70 680.40,121.35 681.52,121.01 682.64,120.66 683.76,120.32 684.88,119.97 686.00,119.63 687.12,119.28 688.24,118.94 689.36,118.59 690.48,118.25 691.60,117.90 692.72,117.56 693.84,117.21 694.96,116.87 696.08,116.52 697.20,116.18 698.32,115.83 699.44,115.49 700.56,115.14 701.68,114.80 702.80,114.45 703.92,114.11 705.04,113.76 706.16,113.42 707.28,113.07 708.40,112.73 709.52,112.38 710.64,112.04 711.76,111.69 712.88,111.35 714.00,111.00 715.12,110.66 716.24,110.31 717.36,109.97 718.48,109.62 719.60,109.28 720.72,108.93 721.84,108.59 722.96,108.24 724.08,107.90 725.20,107.55 726.32,107.21 727.44,106.86 728.56,106.52 729.68,106.17 730.80,105.83 731.92,105.48 733.04,105.14 734.16,104.79 735.28,104.45 736.40,104.10 737.52,103.76 738.64,103.41 739.76,103.07 740.88,102.72 742.00,102.38 743.12,102.03 744.24,101.69 745.36,101.34 746.48,101.00 747.60,100.65 748.72,100.31 749.84,99.96 750.96,99.62 752.08,99.27 753.20,98.93 754.32,98.58 755.44,98.24 756.56,97.89 757.68,97.55 758.80,97.20 759.92,96.86 761.04,96.51 762.16,96.17 763.28,95.82 764.40,95.48 765.52,95.13 766.64,94.79 767.76,94.44 768.88,94.10 770.00,93.75 771.12,93.41 772.24,93.06 773.36,92.72 774.48,92.37 775.60,92.03 776.72,91.68 777.84,91.34 778.96,90.99 780.08,90.65 781.20,90.30 782.32,89.96 783.44,89.61 784.56,89.27 785.68,88.92 786.80,88.58 787.92,88.23 789.04,87.89 790.16,87.54 791.28,87.20 792.40,86.85 793.52,86.51 794.64,86.16 795.76,85.82 796.88,85.47 798.00,85.13 799.12,84.78 800.24,84.44 801.36,84.09 802.48,83.75 803.60,83.40 804.72,83.06 805.84,82.71 806.96,82.37 808.08,82.02 809.20,81.68 810.32,81.33 811.44,80.99 812.56,80.64 813.68,80.30 814.80,79.95 815.92,79.61 817.04,79.26 818.16,78.92 819.28,78.57 820.40,78.23 821.52,77.88 822.64,77.54 823.76,77.19 824.88,76.85 826.00,76.50 827.12,76.16 828.24,75.81 829.36,75.47 830.48,75.12 831.60,74.78 832.72,74.43 833.84,74.09 834.96,73.74 836.08,73.40 837.20,73.05 838.32,72.71 839.44,72.36 840.56,72.02 841.68,71.67 842.80,71.33 843.92,70.98 845.04,70.64 846.16,70.29 847.28,69.95 848.40,69.60 849.52,69.26 850.64,68.91 851.76,68.57 852.88,68.22 854.00,67.88 855.12,67.53 856.24,67.19 857.36,66.84 858.48,66.50 859.60,66.15 860.72,65.81 861.84,65.46 862.96,65.12 864.08,64.77 865.20,64.43 866.32,64.08 867.44,63.74 868.56,63.39 869.68,63.05 870.80,62.70 871.92,62.36 873.04,62.01 874.16,61.67 875.28,61.32 876.40,60.98 877.52,60.63 878.64,60.29 879.76,59.94 880.88,59.60 882.00,59.25 883.12,58.91 884.24,58.56 885.36,58.22 886.48,57.87 887.60,57.53 888.72,57.18 889.84,56.84 890.96,56.49 892.08,56.15 893.20,55.80 894.32,55.46 895.44,55.11 896.56,54.77 897.68,54.42 898.80,54.08 899.92,53.73 901.04,53.39 902.16,53.04 903.28,52.70 904.40,52.35 905.52,52.01 906.64,51.66 907.76,51.32 908.88,50.97 910.00,50.63 911.12,50.28 912.24,49.94 913.36,49.59 914.48,49.25 915.60,48.90 916.72,48.56 917.84,48.21 918.96,47.87 920.08,47.52 921.20,47.18 922.32,46.83 923.44,46.49 924.56,46.14 925.68,45.80 926.80,45.45 927.92,45.11 929.04,44.76 930.16,44.42 931.28,44.07 932.40,43.73 933.52,43.38 934.64,43.04 935.76,42.69 936.88,42.35 938.00,42.00" /> <polyline fill="none" stroke="#0a9396" stroke-width="2" points="42.00,318.00 43.12,317.86 44.24,317.72 45.36,317.58 46.48,317.44 47.60,317.30 48.72,317.16 49.84,317.02 50.96,316.88 52.08,316.74 53.20,316.60 54.32,316.46 55.44,316.31 56.56,316.17 57.68,316.03 58.80,315.89 59.92,315.74 61.04,315.60 62.16,315.46 63.28,315.31 64.40,315.17 65.52,315.02 66.64,314.88 67.76,314.73 68.88,314.59 70.00,314.44 71.12,314.29 72.24,314.15 73.36,314.00 74.48,313.85 75.60,313.71 76.72,313.56 77.84,313.41 78.96,313.26 80.08,313.12 81.20,312.97 82.32,312.82 83.44,312.67 84.56,312.52 85.68,312.37 86.80,312.22 87.92,312.07 89.04,311.92 90.16,311.77 91.28,311.61 92.40,311.46 93.52,311.31 94.64,311.16 95.76,311.00 96.88,310.85 98.00,310.70 99.12,310.54 100.24,310.39 101.36,310.24 102.48,310.08 103.60,309.93 104.72,309.77 105.84,309.62 106.96,309.46 108.08,309.30 109.20,309.15 110.32,308.99 111.44,308.83 112.56,308.68 113.68,308.52 114.80,308.36 115.92,308.20 117.04,308.04 118.16,307.88 119.28,307.73 120.40,307.57 121.52,307.41 122.64,307.25 123.76,307.08 124.88,306.92 126.00,306.76 127.12,306.60 128.24,306.44 129.36,306.28 130.48,306.11 131.60,305.95 132.72,305.79 133.84,305.62 134.96,305.46 136.08,305.30 137.20,305.13 138.32,304.97 139.44,304.80 140.56,304.64 141.68,304.47 142.80,304.30 143.92,304.14 145.04,303.97 146.16,303.80 147.28,303.64 148.40,303.47 149.52,303.30 150.64,303.13 151.76,302.96 152.88,302.79 154.00,302.62 155.12,302.45 156.24,302.28 157.36,302.11 158.48,301.94 159.60,301.77 160.72,301.60 161.84,301.43 162.96,301.25 164.08,301.08 165.20,300.91 166.32,300.74 167.44,300.56 168.56,300.39 169.68,300.21 170.80,300.04 171.92,299.86 173.04,299.69 174.16,299.51 175.28,299.34 176.40,299.16 177.52,298.98 178.64,298.81 179.76,298.63 180.88,298.45 182.00,298.27 183.12,298.09 184.24,297.91 185.36,297.73 186.48,297.55 187.60,297.37 188.72,297.19 189.84,297.01 190.96,296.83 192.08,296.65 193.20,296.47 194.32,296.29 195.44,296.10 196.56,295.92 197.68,295.74 198.80,295.55 199.92,295.37 201.04,295.18 202.16,295.00 203.28,294.81 204.40,294.63 205.52,294.44 206.64,294.26 207.76,294.07 208.88,293.88 210.00,293.69 211.12,293.51 212.24,293.32 213.36,293.13 214.48,292.94 215.60,292.75 216.72,292.56 217.84,292.37 218.96,292.18 220.08,291.99 221.20,291.80 222.32,291.61 223.44,291.41 224.56,291.22 225.68,291.03 226.80,290.84 227.92,290.64 229.04,290.45 230.16,290.25 231.28,290.06 232.40,289.86 233.52,289.67 234.64,289.47 235.76,289.28 236.88,289.08 238.00,288.88 239.12,288.68 240.24,288.49 241.36,288.29 242.48,288.09 243.60,287.89 244.72,287.69 245.84,287.49 246.96,287.29 248.08,287.09 249.20,286.89 250.32,286.69 251.44,286.48 252.56,286.28 253.68,286.08 254.80,285.88 255.92,285.67 257.04,285.47 258.16,285.26 259.28,285.06 260.40,284.85 261.52,284.65 262.64,284.44 263.76,284.24 264.88,284.03 266.00,283.82 267.12,283.61 268.24,283.40 269.36,283.20 270.48,282.99 271.60,282.78 272.72,282.57 273.84,282.36 274.96,282.15 276.08,281.94 277.20,281.72 278.32,281.51 279.44,281.30 280.56,281.09 281.68,280.87 282.80,280.66 283.92,280.45 285.04,280.23 286.16,280.02 287.28,279.80 288.40,279.58 289.52,279.37 290.64,279.15 291.76,278.93 292.88,278.72 294.00,278.50 295.12,278.28 296.24,278.06 297.36,277.84 298.48,277.62 299.60,277.40 300.72,277.18 301.84,276.96 302.96,276.74 304.08,276.52 305.20,276.29 306.32,276.07 307.44,275.85 308.56,275.62 309.68,275.40 310.80,275.17 311.92,274.95 313.04,274.72 314.16,274.50 315.28,274.27 316.40,274.04 317.52,273.82 318.64,273.59 319.76,273.36 320.88,273.13 322.00,272.90 323.12,272.67 324.24,272.44 325.36,272.21 326.48,271.98 327.60,271.75 328.72,271.52 329.84,271.28 330.96,271.05 332.08,270.82 333.20,270.58 334.32,270.35 335.44,270.11 336.56,269.88 337.68,269.64 338.80,269.41 339.92,269.17 341.04,268.93 342.16,268.69 343.28,268.46 344.40,268.22 345.52,267.98 346.64,267.74 347.76,267.50 348.88,267.26 350.00,267.02 351.12,266.78 352.24,266.53 353.36,266.29 354.48,266.05 355.60,265.80 356.72,265.56 357.84,265.32 358.96,265.07 360.08,264.82 361.20,264.58 362.32,264.33 363.44,264.09 364.56,263.84 365.68,263.59 366.80,263.34 367.92,263.09 369.04,262.84 370.16,262.59 371.28,262.34 372.40,262.09 373.52,261.84 374.64,261.59 375.76,261.33 376.88,261.08 378.00,260.83 379.12,260.57 380.24,260.32 381.36,260.06 382.48,259.81 383.60,259.55 384.72,259.30 385.84,259.04 386.96,258.78 388.08,258.52 389.20,258.26 390.32,258.00 391.44,257.74 392.56,257.48 393.68,257.22 394.80,256.96 395.92,256.70 397.04,256.44 398.16,256.18 399.28,255.91 400.40,255.65 401.52,255.38 402.64,255.12 403.76,254.85 404.88,254.59 406.00,254.32 407.12,254.05 408.24,253.79 409.36,253.52 410.48,253.25 411.60,252.98 412.72,252.71 413.84,252.44 414.96,252.17 416.08,251.90 417.20,251.62 418.32,251.35 419.44,251.08 420.56,250.80 421.68,250.53 422.80,250.26 423.92,249.98 425.04,249.70 426.16,249.43 427.28,249.15 428.40,248.87 429.52,248.59 430.64,248.32 431.76,248.04 432.88,247.76 434.00,247.48 435.12,247.20 436.24,246.91 437.36,246.63 438.48,246.35 439.60,246.07 440.72,245.78 441.84,245.50 442.96,245.21 444.08,244.93 445.20,244.64 446.32,244.35 447.44,244.07 448.56,243.78 449.68,243.49 450.80,243.20 451.92,242.91 453.04,242.62 454.16,242.33 455.28,242.04 456.40,241.75 457.52,241.46 458.64,241.16 459.76,240.87 460.88,240.57 462.00,240.28 463.12,239.98 464.24,239.69 465.36,239.39 466.48,239.09 467.60,238.80 468.72,238.50 469.84,238.20 470.96,237.90 472.08,237.60 473.20,237.30 474.32,237.00 475.44,236.69 476.56,236.39 477.68,236.09 478.80,235.78 479.92,235.48 481.04,235.17 482.16,234.87 483.28,234.56 484.40,234.26 485.52,233.95 486.64,233.64 487.76,233.33 488.88,233.02 490.00,232.71 491.12,232.40 492.24,232.09 493.36,231.78 494.48,231.46 495.60,231.15 496.72,230.84 497.84,230.52 498.96,230.21 500.08,229.89 501.20,229.58 502.32,229.26 503.44,228.94 504.56,228.62 505.68,228.30 506.80,227.98 507.92,227.66 509.04,227.34 510.16,227.02 511.28,226.70 512.40,226.38 513.52,226.05 514.64,225.73 515.76,225.40 516.88,225.08 518.00,224.75 519.12,224.43 520.24,224.10 521.36,223.77 522.48,223.44 523.60,223.11 524.72,222.78 525.84,222.45 526.96,222.12 528.08,221.79 529.20,221.46 530.32,221.12 531.44,220.79 532.56,220.45 533.68,220.12 534.80,219.78 535.92,219.45 537.04,219.11 538.16,218.77 539.28,218.43 540.40,218.09 541.52,217.75 542.64,217.41 543.76,217.07 544.88,216.73 546.00,216.38 547.12,216.04 548.24,215.70 549.36,215.35 550.48,215.01 551.60,214.66 552.72,214.31 553.84,213.96 554.96,213.62 556.08,213.27 557.20,212.92 558.32,212.57 559.44,212.21 560.56,211.86 561.68,211.51 562.80,211.16 563.92,210.80 565.04,210.45 566.16,210.09 567.28,209.74 568.40,209.38 569.52,209.02 570.64,208.66 571.76,208.30 572.88,207.94 574.00,207.58 575.12,207.22 576.24,206.86 577.36,206.50 578.48,206.13 579.60,205.77 580.72,205.40 581.84,205.04 582.96,204.67 584.08,204.31 585.20,203.94 586.32,203.57 587.44,203.20 588.56,202.83 589.68,202.46 590.80,202.09 591.92,201.71 593.04,201.34 594.16,200.97 595.28,200.59 596.40,200.22 597.52,199.84 598.64,199.46 599.76,199.09 600.88,198.71 602.00,198.33 603.12,197.95 604.24,197.57 605.36,197.19 606.48,196.80 607.60,196.42 608.72,196.04 609.84,195.65 610.96,195.27 612.08,194.88 613.20,194.49 614.32,194.11 615.44,193.72 616.56,193.33 617.68,192.94 618.80,192.55 619.92,192.16 621.04,191.76 622.16,191.37 623.28,190.98 624.40,190.58 625.52,190.19 626.64,189.79 627.76,189.39 628.88,189.00 630.00,188.60 631.12,188.20 632.24,187.80 633.36,187.40 634.48,186.99 635.60,186.59 636.72,186.19 637.84,185.78 638.96,185.38 640.08,184.97 641.20,184.57 642.32,184.16 643.44,183.75 644.56,183.34 645.68,182.93 646.80,182.52 647.92,182.11 649.04,181.69 650.16,181.28 651.28,180.87 652.40,180.45 653.52,180.04 654.64,179.62 655.76,179.20 656.88,178.78 658.00,178.36 659.12,177.94 660.24,177.52 661.36,177.10 662.48,176.68 663.60,176.25 664.72,175.83 665.84,175.40 666.96,174.98 668.08,174.55 669.20,174.12 670.32,173.69 671.44,173.27 672.56,172.83 673.68,172.40 674.80,171.97 675.92,171.54 677.04,171.10 678.16,170.67 679.28,170.23 680.40,169.80 681.52,169.36 682.64,168.92 683.76,168.48 684.88,168.04 686.00,167.60 687.12,167.16 688.24,166.72 689.36,166.27 690.48,165.83 691.60,165.38 692.72,164.94 693.84,164.49 694.96,164.04 696.08,163.59 697.20,163.14 698.32,162.69 699.44,162.24 700.56,161.79 701.68,161.33 702.80,160.88 703.92,160.42 705.04,159.97 706.16,159.51 707.28,159.05 708.40,158.59 709.52,158.13 710.64,157.67 711.76,157.21 712.88,156.75 714.00,156.28 715.12,155.82 716.24,155.35 717.36,154.89 718.48,154.42 719.60,153.95 720.72,153.48 721.84,153.01 722.96,152.54 724.08,152.07 725.20,151.60 726.32,151.12 727.44,150.65 728.56,150.17 729.68,149.69 730.80,149.22 731.92,148.74 733.04,148.26 734.16,147.78 735.28,147.29 736.40,146.81 737.52,146.33 738.64,145.84 739.76,145.36 740.88,144.87 742.00,144.38 743.12,143.90 744.24,143.41 745.36,142.92 746.48,142.42 747.60,141.93 748.72,141.44 749.84,140.94 750.96,140.45 752.08,139.95 753.20,139.45 754.32,138.96 755.44,138.46 756.56,137.96 757.68,137.45 758.80,136.95 759.92,136.45 761.04,135.94 762.16,135.44 763.28,134.93 764.40,134.42 765.52,133.91 766.64,133.40 767.76,132.89 768.88,132.38 770.00,131.87 771.12,131.36 772.24,130.84 773.36,130.33 774.48,129.81 775.60,129.29 776.72,128.77 777.84,128.25 778.96,127.73 780.08,127.21 781.20,126.68 782.32,126.16 783.44,125.64 784.56,125.11 785.68,124.58 786.80,124.05 787.92,123.52 789.04,122.99 790.16,122.46 791.28,121.93 792.40,121.39 793.52,120.86 794.64,120.32 795.76,119.79 796.88,119.25 798.00,118.71 799.12,118.17 800.24,117.63 801.36,117.09 802.48,116.54 803.60,116.00 804.72,115.45 805.84,114.90 806.96,114.36 808.08,113.81 809.20,113.26 810.32,112.71 811.44,112.15 812.56,111.60 813.68,111.05 814.80,110.49 815.92,109.93 817.04,109.38 818.16,108.82 819.28,108.26 820.40,107.69 821.52,107.13 822.64,106.57 823.76,106.00 824.88,105.44 826.00,104.87 827.12,104.30 828.24,103.73 829.36,103.16 830.48,102.59 831.60,102.02 832.72,101.44 833.84,100.87 834.96,100.29 836.08,99.72 837.20,99.14 838.32,98.56 839.44,97.98 840.56,97.39 841.68,96.81 842.80,96.23 843.92,95.64 845.04,95.06 846.16,94.47 847.28,93.88 848.40,93.29 849.52,92.70 850.64,92.10 851.76,91.51 852.88,90.91 854.00,90.32 855.12,89.72 856.24,89.12 857.36,88.52 858.48,87.92 859.60,87.32 860.72,86.72 861.84,86.11 862.96,85.50 864.08,84.90 865.20,84.29 866.32,83.68 867.44,83.07 868.56,82.46 869.68,81.84 870.80,81.23 871.92,80.61 873.04,80.00 874.16,79.38 875.28,78.76 876.40,78.14 877.52,77.52 878.64,76.89 879.76,76.27 880.88,75.64 882.00,75.02 883.12,74.39 884.24,73.76 885.36,73.13 886.48,72.49 887.60,71.86 888.72,71.23 889.84,70.59 890.96,69.95 892.08,69.31 893.20,68.68 894.32,68.03 895.44,67.39 896.56,66.75 897.68,66.10 898.80,65.46 899.92,64.81 901.04,64.16 902.16,63.51 903.28,62.86 904.40,62.21 905.52,61.55 906.64,60.90 907.76,60.24 908.88,59.58 910.00,58.92 911.12,58.26 912.24,57.60 913.36,56.94 914.48,56.27 915.60,55.61 916.72,54.94 917.84,54.27 918.96,53.60 920.08,52.93 921.20,52.26 922.32,51.58 923.44,50.91 924.56,50.23 925.68,49.55 926.80,48.87 927.92,48.19 929.04,47.51 930.16,46.82 931.28,46.14 932.40,45.45 933.52,44.77 934.64,44.08 935.76,43.39 936.88,42.69 938.00,42.00" /> <polyline fill="none" stroke="#ee9b00" stroke-width="2" points="42.00,318.00 43.12,317.89 44.24,317.79 45.36,317.68 46.48,317.57 47.60,317.47 48.72,317.36 49.84,317.25 50.96,317.15 52.08,317.04 53.20,316.93 54.32,316.83 55.44,316.72 56.56,316.61 57.68,316.51 58.80,316.40 59.92,316.29 61.04,316.19 62.16,316.08 63.28,315.97 64.40,315.87 65.52,315.76 66.64,315.65 67.76,315.55 68.88,315.44 70.00,315.33 71.12,315.23 72.24,315.12 73.36,315.01 74.48,314.91 75.60,314.80 76.72,314.70 77.84,314.59 78.96,314.48 80.08,314.38 81.20,314.27 82.32,314.16 83.44,314.06 84.56,313.95 85.68,313.84 86.80,313.74 87.92,313.63 89.04,313.52 90.16,313.42 91.28,313.31 92.40,313.20 93.52,313.10 94.64,312.99 95.76,312.88 96.88,312.78 98.00,312.67 99.12,312.56 100.24,312.46 101.36,312.35 102.48,312.24 103.60,312.14 104.72,312.03 105.84,311.92 106.96,311.82 108.08,311.71 109.20,311.60 110.32,311.50 111.44,311.39 112.56,311.28 113.68,311.18 114.80,311.07 115.92,310.96 117.04,310.86 118.16,310.75 119.28,310.64 120.40,310.54 121.52,310.43 122.64,310.32 123.76,310.22 124.88,310.11 126.00,310.00 127.12,309.90 128.24,309.79 129.36,309.68 130.48,309.58 131.60,309.47 132.72,309.36 133.84,309.26 134.96,309.15 136.08,309.04 137.20,308.94 138.32,308.83 139.44,308.72 140.56,308.62 141.68,308.51 142.80,308.41 143.92,308.30 145.04,308.19 146.16,308.09 147.28,307.98 148.40,307.87 149.52,307.77 150.64,307.66 151.76,307.55 152.88,307.45 154.00,307.34 155.12,307.23 156.24,307.13 157.36,307.02 158.48,306.91 159.60,306.81 160.72,306.70 161.84,306.59 162.96,306.49 164.08,306.38 165.20,306.27 166.32,306.17 167.44,306.06 168.56,305.95 169.68,305.85 170.80,305.74 171.92,305.63 173.04,305.53 174.16,305.42 175.28,305.31 176.40,305.21 177.52,305.10 178.64,304.99 179.76,304.89 180.88,304.78 182.00,304.67 183.12,304.57 184.24,304.46 185.36,304.35 186.48,304.25 187.60,304.14 188.72,304.03 189.84,303.93 190.96,303.82 192.08,303.71 193.20,303.61 194.32,303.50 195.44,303.39 196.56,303.29 197.68,303.18 198.80,303.07 199.92,302.97 201.04,302.86 202.16,302.75 203.28,302.65 204.40,302.54 205.52,302.43 206.64,302.33 207.76,302.22 208.88,302.11 210.00,302.01 211.12,301.90 212.24,301.80 213.36,301.69 214.48,301.58 215.60,301.48 216.72,301.37 217.84,301.26 218.96,301.16 220.08,301.05 221.20,300.94 222.32,300.84 223.44,300.73 224.56,300.62 225.68,300.52 226.80,300.41 227.92,300.30 229.04,300.20 230.16,300.09 231.28,299.98 232.40,299.88 233.52,299.77 234.64,299.66 235.76,299.56 236.88,299.45 238.00,299.34 239.12,299.24 240.24,299.13 241.36,299.02 242.48,298.92 243.60,298.81 244.72,298.70 245.84,298.60 246.96,298.49 248.08,298.38 249.20,298.28 250.32,298.17 251.44,298.06 252.56,297.96 253.68,297.85 254.80,297.74 255.92,297.64 257.04,297.53 258.16,297.42 259.28,297.32 260.40,297.21 261.52,297.10 262.64,297.00 263.76,296.89 264.88,296.78 266.00,296.68 267.12,296.57 268.24,296.46 269.36,296.36 270.48,296.25 271.60,296.14 272.72,296.04 273.84,295.93 274.96,295.82 276.08,295.72 277.20,295.61 278.32,295.51 279.44,295.40 280.56,295.29 281.68,295.19 282.80,295.08 283.92,294.97 285.04,294.87 286.16,294.76 287.28,294.65 288.40,294.55 289.52,294.44 290.64,294.33 291.76,294.23 292.88,294.12 294.00,294.01 295.12,293.91 296.24,293.80 297.36,293.69 298.48,293.59 299.60,293.48 300.72,293.37 301.84,293.27 302.96,293.16 304.08,293.05 305.20,292.95 306.32,292.84 307.44,292.73 308.56,292.63 309.68,292.52 310.80,292.41 311.92,292.31 313.04,292.20 314.16,292.09 315.28,291.99 316.40,291.88 317.52,291.77 318.64,291.67 319.76,291.56 320.88,291.45 322.00,291.35 323.12,291.24 324.24,291.13 325.36,291.03 326.48,290.92 327.60,290.81 328.72,290.71 329.84,290.60 330.96,290.49 332.08,290.39 333.20,290.28 334.32,290.17 335.44,290.07 336.56,289.96 337.68,289.85 338.80,289.75 339.92,289.64 341.04,289.53 342.16,289.43 343.28,289.32 344.40,289.22 345.52,289.11 346.64,289.00 347.76,288.90 348.88,288.79 350.00,288.68 351.12,288.58 352.24,288.47 353.36,288.36 354.48,288.26 355.60,288.15 356.72,288.04 357.84,287.94 358.96,287.83 360.08,287.72 361.20,287.62 362.32,287.51 363.44,287.40 364.56,287.30 365.68,287.19 366.80,287.08 367.92,286.98 369.04,286.87 370.16,286.76 371.28,286.66 372.40,286.55 373.52,286.44 374.64,286.34 375.76,286.23 376.88,286.12 378.00,286.02 379.12,285.91 380.24,285.80 381.36,285.70 382.48,285.59 383.60,285.48 384.72,285.38 385.84,285.27 386.96,285.16 388.08,285.06 389.20,284.95 390.32,284.84 391.44,284.74 392.56,284.63 393.68,284.52 394.80,284.42 395.92,284.31 397.04,284.20 398.16,284.10 399.28,283.99 400.40,283.88 401.52,283.78 402.64,283.67 403.76,283.56 404.88,283.46 406.00,283.35 407.12,283.24 408.24,283.14 409.36,283.03 410.48,282.93 411.60,282.82 412.72,282.71 413.84,282.61 414.96,282.50 416.08,282.39 417.20,282.29 418.32,282.18 419.44,282.07 420.56,281.97 421.68,281.86 422.80,281.75 423.92,281.65 425.04,281.54 426.16,281.43 427.28,281.33 428.40,281.22 429.52,281.11 430.64,281.01 431.76,280.90 432.88,280.79 434.00,280.69 435.12,280.58 436.24,280.47 437.36,280.37 438.48,280.26 439.60,280.15 440.72,280.05 441.84,279.94 442.96,279.83 444.08,279.73 445.20,279.62 446.32,279.51 447.44,279.41 448.56,279.30 449.68,279.19 450.80,279.09 451.92,278.98 453.04,278.87 454.16,278.77 455.28,278.66 456.40,278.55 457.52,278.45 458.64,278.34 459.76,278.23 460.88,278.13 462.00,278.02 463.12,277.91 464.24,277.81 465.36,277.70 466.48,277.59 467.60,277.49 468.72,277.38 469.84,277.27 470.96,277.17 472.08,277.06 473.20,276.95 474.32,276.85 475.44,276.74 476.56,276.63 477.68,276.53 478.80,276.42 479.92,276.32 481.04,276.21 482.16,276.10 483.28,276.00 484.40,275.89 485.52,275.78 486.64,275.68 487.76,275.57 488.88,275.46 490.00,275.36 491.12,275.25 492.24,275.14 493.36,275.04 494.48,274.93 495.60,274.82 496.72,274.72 497.84,274.61 498.96,274.50 500.08,274.40 501.20,274.29 502.32,274.18 503.44,274.08 504.56,273.97 505.68,273.86 506.80,273.76 507.92,273.65 509.04,273.54 510.16,273.44 511.28,273.33 512.40,273.22 513.52,273.12 514.64,273.01 515.76,272.90 516.88,272.80 518.00,272.69 519.12,272.58 520.24,272.48 521.36,272.37 522.48,272.26 523.60,272.16 524.72,272.05 525.84,271.94 526.96,271.84 528.08,271.73 529.20,271.62 530.32,271.52 531.44,271.41 532.56,271.30 533.68,271.20 534.80,271.09 535.92,270.98 537.04,270.88 538.16,270.77 539.28,270.66 540.40,270.56 541.52,270.45 542.64,270.34 543.76,270.24 544.88,270.13 546.00,270.03 547.12,269.92 548.24,269.81 549.36,269.71 550.48,269.60 551.60,269.49 552.72,269.39 553.84,269.28 554.96,269.17 556.08,269.07 557.20,268.96 558.32,268.85 559.44,268.75 560.56,268.64 561.68,268.53 562.80,268.43 563.92,268.32 565.04,268.21 566.16,268.11 567.28,268.00 568.40,267.89 569.52,267.79 570.64,267.68 571.76,267.57 572.88,267.47 574.00,267.36 575.12,267.25 576.24,267.15 577.36,267.04 578.48,266.93 579.60,266.83 580.72,266.72 581.84,266.61 582.96,266.51 584.08,266.40 585.20,266.29 586.32,266.19 587.44,266.08 588.56,265.97 589.68,265.87 590.80,265.76 591.92,265.65 593.04,265.55 594.16,265.44 595.28,265.33 596.40,265.23 597.52,265.12 598.64,265.01 599.76,264.91 600.88,264.80 602.00,264.69 603.12,264.59 604.24,264.48 605.36,264.37 606.48,264.27 607.60,264.16 608.72,264.05 609.84,263.95 610.96,263.84 612.08,263.74 613.20,263.63 614.32,263.52 615.44,263.42 616.56,263.31 617.68,263.20 618.80,263.10 619.92,262.99 621.04,262.88 622.16,262.78 623.28,262.67 624.40,262.56 625.52,262.46 626.64,262.35 627.76,262.24 628.88,262.14 630.00,262.03 631.12,261.92 632.24,261.82 633.36,261.71 634.48,261.60 635.60,261.50 636.72,261.39 637.84,261.28 638.96,261.18 640.08,261.07 641.20,260.96 642.32,260.86 643.44,260.75 644.56,260.64 645.68,260.54 646.80,260.43 647.92,260.32 649.04,260.22 650.16,260.11 651.28,260.00 652.40,259.90 653.52,259.79 654.64,259.68 655.76,259.58 656.88,259.47 658.00,259.36 659.12,259.26 660.24,259.15 661.36,259.04 662.48,258.94 663.60,258.83 664.72,258.72 665.84,258.62 666.96,258.51 668.08,258.40 669.20,258.30 670.32,258.19 671.44,258.08 672.56,257.98 673.68,257.87 674.80,257.76 675.92,257.66 677.04,257.55 678.16,257.45 679.28,257.34 680.40,257.23 681.52,257.13 682.64,257.02 683.76,256.91 684.88,256.81 686.00,256.70 687.12,256.59 688.24,256.49 689.36,256.38 690.48,256.27 691.60,256.17 692.72,256.06 693.84,255.95 694.96,255.85 696.08,255.74 697.20,255.63 698.32,255.53 699.44,255.42 700.56,255.31 701.68,255.21 702.80,255.10 703.92,254.99 705.04,254.89 706.16,254.78 707.28,254.67 708.40,254.57 709.52,254.46 710.64,254.35 711.76,254.25 712.88,254.14 714.00,254.03 715.12,253.93 716.24,253.82 717.36,253.71 718.48,253.61 719.60,253.50 720.72,253.39 721.84,253.29 722.96,253.18 724.08,253.07 725.20,252.97 726.32,252.86 727.44,252.75 728.56,252.65 729.68,252.54 730.80,252.43 731.92,252.33 733.04,252.22 734.16,252.11 735.28,252.01 736.40,251.90 737.52,251.79 738.64,251.69 739.76,251.58 740.88,251.47 742.00,251.37 743.12,251.26 744.24,251.15 745.36,251.05 746.48,250.94 747.60,250.84 748.72,250.73 749.84,250.62 750.96,250.52 752.08,250.41 753.20,250.30 754.32,250.20 755.44,250.09 756.56,249.98 757.68,249.88 758.80,249.77 759.92,249.66 761.04,249.56 762.16,249.45 763.28,249.34 764.40,249.24 765.52,249.13 766.64,249.02 767.76,248.92 768.88,248.81 770.00,248.70 771.12,248.60 772.24,248.49 773.36,248.38 774.48,248.28 775.60,248.17 776.72,248.06 777.84,247.96 778.96,247.85 780.08,247.74 781.20,247.64 782.32,247.53 783.44,247.42 784.56,247.32 785.68,247.21 786.80,247.10 787.92,247.00 789.04,246.89 790.16,246.78 791.28,246.68 792.40,246.57 793.52,246.46 794.64,246.36 795.76,246.25 796.88,246.14 798.00,246.04 799.12,245.93 800.24,245.82 801.36,245.72 802.48,245.61 803.60,245.50 804.72,245.40 805.84,245.29 806.96,245.18 808.08,245.08 809.20,244.97 810.32,244.86 811.44,244.76 812.56,244.65 813.68,244.55 814.80,244.44 815.92,244.33 817.04,244.23 818.16,244.12 819.28,244.01 820.40,243.91 821.52,243.80 822.64,243.69 823.76,243.59 824.88,243.48 826.00,243.37 827.12,243.27 828.24,243.16 829.36,243.05 830.48,242.95 831.60,242.84 832.72,242.73 833.84,242.63 834.96,242.52 836.08,242.41 837.20,242.31 838.32,242.20 839.44,242.09 840.56,241.99 841.68,241.88 842.80,241.77 843.92,241.67 845.04,241.56 846.16,241.45 847.28,241.35 848.40,241.24 849.52,241.13 850.64,241.03 851.76,240.92 852.88,240.81 854.00,240.71 855.12,240.60 856.24,240.49 857.36,240.39 858.48,240.28 859.60,240.17 860.72,240.07 861.84,239.96 862.96,239.85 864.08,239.75 865.20,239.64 866.32,239.53 867.44,239.43 868.56,239.32 869.68,239.21 870.80,239.11 871.92,239.00 873.04,238.89 874.16,238.79 875.28,238.68 876.40,238.57 877.52,238.47 878.64,238.36 879.76,238.26 880.88,238.15 882.00,238.04 883.12,237.94 884.24,237.83 885.36,237.72 886.48,237.62 887.60,237.51 888.72,237.40 889.84,237.30 890.96,237.19 892.08,237.08 893.20,236.98 894.32,236.87 895.44,236.76 896.56,236.66 897.68,236.55 898.80,236.44 899.92,236.34 901.04,236.23 902.16,236.12 903.28,236.02 904.40,235.91 905.52,235.80 906.64,235.70 907.76,235.59 908.88,235.48 910.00,235.38 911.12,235.27 912.24,235.16 913.36,235.06 914.48,234.95 915.60,234.84 916.72,234.74 917.84,234.63 918.96,234.52 920.08,234.42 921.20,234.31 922.32,234.20 923.44,234.10 924.56,233.99 925.68,233.88 926.80,233.78 927.92,233.67 929.04,233.56 930.16,233.46 931.28,233.35 932.40,233.24 933.52,233.14 934.64,233.03 935.76,232.92 936.88,232.82 938.00,232.71" /> <polyline fill="none" stroke="#ca6702" stroke-width="2" points="42.00,318.00 43.12,317.31 44.24,316.62 45.36,315.93 46.48,315.25 47.60,314.56 48.72,313.88 49.84,313.19 50.96,312.51 52.08,311.82 53.20,311.14 54.32,310.46 55.44,309.78 56.56,309.10 57.68,308.42 58.80,307.75 59.92,307.07 61.04,306.39 62.16,305.72 63.28,305.05 64.40,304.37 65.52,303.70 66.64,303.03 67.76,302.36 68.88,301.69 70.00,301.02 71.12,300.35 72.24,299.68 73.36,299.02 74.48,298.35 75.60,297.69 76.72,297.02 77.84,296.36 78.96,295.70 80.08,295.04 81.20,294.38 82.32,293.72 83.44,293.06 84.56,292.40 85.68,291.75 86.80,291.09 87.92,290.43 89.04,289.78 90.16,289.13 91.28,288.47 92.40,287.82 93.52,287.17 94.64,286.52 95.76,285.87 96.88,285.23 98.00,284.58 99.12,283.93 100.24,283.29 101.36,282.64 102.48,282.00 103.60,281.35 104.72,280.71 105.84,280.07 106.96,279.43 108.08,278.79 109.20,278.15 110.32,277.51 111.44,276.88 112.56,276.24 113.68,275.61 114.80,274.97 115.92,274.34 117.04,273.71 118.16,273.07 119.28,272.44 120.40,271.81 121.52,271.18 122.64,270.56 123.76,269.93 124.88,269.30 126.00,268.68 127.12,268.05 128.24,267.43 129.36,266.80 130.48,266.18 131.60,265.56 132.72,264.94 133.84,264.32 134.96,263.70 136.08,263.08 137.20,262.47 138.32,261.85 139.44,261.23 140.56,260.62 141.68,260.01 142.80,259.39 143.92,258.78 145.04,258.17 146.16,257.56 147.28,256.95 148.40,256.34 149.52,255.73 150.64,255.13 151.76,254.52 152.88,253.92 154.00,253.31 155.12,252.71 156.24,252.11 157.36,251.51 158.48,250.90 159.60,250.30 160.72,249.71 161.84,249.11 162.96,248.51 164.08,247.91 165.20,247.32 166.32,246.72 167.44,246.13 168.56,245.54 169.68,244.94 170.80,244.35 171.92,243.76 173.04,243.17 174.16,242.58 175.28,242.00 176.40,241.41 177.52,240.82 178.64,240.24 179.76,239.65 180.88,239.07 182.00,238.49 183.12,237.91 184.24,237.33 185.36,236.75 186.48,236.17 187.60,235.59 188.72,235.01 189.84,234.43 190.96,233.86 192.08,233.28 193.20,232.71 194.32,232.14 195.44,231.56 196.56,230.99 197.68,230.42 198.80,229.85 199.92,229.28 201.04,228.72 202.16,228.15 203.28,227.58 204.40,227.02 205.52,226.45 206.64,225.89 207.76,225.33 208.88,224.76 210.00,224.20 211.12,223.64 212.24,223.08 213.36,222.53 214.48,221.97 215.60,221.41 216.72,220.85 217.84,220.30 218.96,219.75 220.08,219.19 221.20,218.64 222.32,218.09 223.44,217.54 224.56,216.99 225.68,216.44 226.80,215.89 227.92,215.34 229.04,214.80 230.16,214.25 231.28,213.71 232.40,213.16 233.52,212.62 234.64,212.08 235.76,211.54 236.88,211.00 238.00,210.46 239.12,209.92 240.24,209.38 241.36,208.84 242.48,208.31 243.60,207.77 244.72,207.24 245.84,206.70 246.96,206.17 248.08,205.64 249.20,205.11 250.32,204.58 251.44,204.05 252.56,203.52 253.68,202.99 254.80,202.47 255.92,201.94 257.04,201.42 258.16,200.89 259.28,200.37 260.40,199.85 261.52,199.33 262.64,198.81 263.76,198.29 264.88,197.77 266.00,197.25 267.12,196.73 268.24,196.22 269.36,195.70 270.48,195.19 271.60,194.67 272.72,194.16 273.84,193.65 274.96,193.14 276.08,192.63 277.20,192.12 278.32,191.61 279.44,191.10 280.56,190.60 281.68,190.09 282.80,189.58 283.92,189.08 285.04,188.58 286.16,188.07 287.28,187.57 288.40,187.07 289.52,186.57 290.64,186.07 291.76,185.58 292.88,185.08 294.00,184.58 295.12,184.09 296.24,183.59 297.36,183.10 298.48,182.61 299.60,182.11 300.72,181.62 301.84,181.13 302.96,180.64 304.08,180.15 305.20,179.67 306.32,179.18 307.44,178.69 308.56,178.21 309.68,177.72 310.80,177.24 311.92,176.76 313.04,176.28 314.16,175.79 315.28,175.31 316.40,174.84 317.52,174.36 318.64,173.88 319.76,173.40 320.88,172.93 322.00,172.45 323.12,171.98 324.24,171.51 325.36,171.03 326.48,170.56 327.60,170.09 328.72,169.62 329.84,169.15 330.96,168.69 332.08,168.22 333.20,167.75 334.32,167.29 335.44,166.82 336.56,166.36 337.68,165.90 338.80,165.43 339.92,164.97 341.04,164.51 342.16,164.05 343.28,163.60 344.40,163.14 345.52,162.68 346.64,162.23 347.76,161.77 348.88,161.32 350.00,160.86 351.12,160.41 352.24,159.96 353.36,159.51 354.48,159.06 355.60,158.61 356.72,158.16 357.84,157.71 358.96,157.27 360.08,156.82 361.20,156.38 362.32,155.93 363.44,155.49 364.56,155.05 365.68,154.61 366.80,154.17 367.92,153.73 369.04,153.29 370.16,152.85 371.28,152.42 372.40,151.98 373.52,151.54 374.64,151.11 375.76,150.68 376.88,150.24 378.00,149.81 379.12,149.38 380.24,148.95 381.36,148.52 382.48,148.09 383.60,147.67 384.72,147.24 385.84,146.81 386.96,146.39 388.08,145.97 389.20,145.54 390.32,145.12 391.44,144.70 392.56,144.28 393.68,143.86 394.80,143.44 395.92,143.02 397.04,142.61 398.16,142.19 399.28,141.77 400.40,141.36 401.52,140.95 402.64,140.53 403.76,140.12 404.88,139.71 406.00,139.30 407.12,138.89 408.24,138.48 409.36,138.08 410.48,137.67 411.60,137.26 412.72,136.86 413.84,136.45 414.96,136.05 416.08,135.65 417.20,135.25 418.32,134.85 419.44,134.45 420.56,134.05 421.68,133.65 422.80,133.25 423.92,132.86 425.04,132.46 426.16,132.07 427.28,131.67 428.40,131.28 429.52,130.89 430.64,130.50 431.76,130.11 432.88,129.72 434.00,129.33 435.12,128.94 436.24,128.55 437.36,128.17 438.48,127.78 439.60,127.40 440.72,127.01 441.84,126.63 442.96,126.25 444.08,125.87 445.20,125.49 446.32,125.11 447.44,124.73 448.56,124.36 449.68,123.98 450.80,123.60 451.92,123.23 453.04,122.85 454.16,122.48 455.28,122.11 456.40,121.74 457.52,121.37 458.64,121.00 459.76,120.63 460.88,120.26 462.00,119.89 463.12,119.53 464.24,119.16 465.36,118.80 466.48,118.44 467.60,118.07 468.72,117.71 469.84,117.35 470.96,116.99 472.08,116.63 473.20,116.27 474.32,115.91 475.44,115.56 476.56,115.20 477.68,114.85 478.80,114.49 479.92,114.14 481.04,113.79 482.16,113.44 483.28,113.09 484.40,112.74 485.52,112.39 486.64,112.04 487.76,111.69 488.88,111.35 490.00,111.00 491.12,110.66 492.24,110.31 493.36,109.97 494.48,109.63 495.60,109.29 496.72,108.95 497.84,108.61 498.96,108.27 500.08,107.93 501.20,107.59 502.32,107.26 503.44,106.92 504.56,106.59 505.68,106.25 506.80,105.92 507.92,105.59 509.04,105.26 510.16,104.93 511.28,104.60 512.40,104.27 513.52,103.95 514.64,103.62 515.76,103.29 516.88,102.97 518.00,102.64 519.12,102.32 520.24,102.00 521.36,101.68 522.48,101.36 523.60,101.04 524.72,100.72 525.84,100.40 526.96,100.08 528.08,99.77 529.20,99.45 530.32,99.14 531.44,98.83 532.56,98.51 533.68,98.20 534.80,97.89 535.92,97.58 537.04,97.27 538.16,96.96 539.28,96.65 540.40,96.35 541.52,96.04 542.64,95.74 543.76,95.43 544.88,95.13 546.00,94.83 547.12,94.53 548.24,94.23 549.36,93.93 550.48,93.63 551.60,93.33 552.72,93.03 553.84,92.74 554.96,92.44 556.08,92.15 557.20,91.85 558.32,91.56 559.44,91.27 560.56,90.98 561.68,90.69 562.80,90.40 563.92,90.11 565.04,89.82 566.16,89.53 567.28,89.25 568.40,88.96 569.52,88.68 570.64,88.40 571.76,88.11 572.88,87.83 574.00,87.55 575.12,87.27 576.24,86.99 577.36,86.71 578.48,86.44 579.60,86.16 580.72,85.88 581.84,85.61 582.96,85.34 584.08,85.06 585.20,84.79 586.32,84.52 587.44,84.25 588.56,83.98 589.68,83.71 590.80,83.44 591.92,83.18 593.04,82.91 594.16,82.64 595.28,82.38 596.40,82.12 597.52,81.85 598.64,81.59 599.76,81.33 600.88,81.07 602.00,80.81 603.12,80.55 604.24,80.30 605.36,80.04 606.48,79.78 607.60,79.53 608.72,79.28 609.84,79.02 610.96,78.77 612.08,78.52 613.20,78.27 614.32,78.02 615.44,77.77 616.56,77.52 617.68,77.27 618.80,77.03 619.92,76.78 621.04,76.54 622.16,76.29 623.28,76.05 624.40,75.81 625.52,75.57 626.64,75.33 627.76,75.09 628.88,74.85 630.00,74.61 631.12,74.38 632.24,74.14 633.36,73.91 634.48,73.67 635.60,73.44 636.72,73.21 637.84,72.97 638.96,72.74 640.08,72.51 641.20,72.28 642.32,72.06 643.44,71.83 644.56,71.60 645.68,71.38 646.80,71.15 647.92,70.93 649.04,70.71 650.16,70.48 651.28,70.26 652.40,70.04 653.52,69.82 654.64,69.60 655.76,69.39 656.88,69.17 658.00,68.95 659.12,68.74 660.24,68.52 661.36,68.31 662.48,68.10 663.60,67.89 664.72,67.67 665.84,67.46 666.96,67.26 668.08,67.05 669.20,66.84 670.32,66.63 671.44,66.43 672.56,66.22 673.68,66.02 674.80,65.82 675.92,65.61 677.04,65.41 678.16,65.21 679.28,65.01 680.40,64.81 681.52,64.62 682.64,64.42 683.76,64.22 684.88,64.03 686.00,63.83 687.12,63.64 688.24,63.45 689.36,63.25 690.48,63.06 691.60,62.87 692.72,62.68 693.84,62.49 694.96,62.31 696.08,62.12 697.20,61.93 698.32,61.75 699.44,61.57 700.56,61.38 701.68,61.20 702.80,61.02 703.92,60.84 705.04,60.66 706.16,60.48 707.28,60.30 708.40,60.12 709.52,59.95 710.64,59.77 711.76,59.60 712.88,59.42 714.00,59.25 715.12,59.08 716.24,58.91 717.36,58.74 718.48,58.57 719.60,58.40 720.72,58.23 721.84,58.06 722.96,57.90 724.08,57.73 725.20,57.57 726.32,57.40 727.44,57.24 728.56,57.08 729.68,56.92 730.80,56.76 731.92,56.60 733.04,56.44 734.16,56.28 735.28,56.13 736.40,55.97 737.52,55.82 738.64,55.66 739.76,55.51 740.88,55.36 742.00,55.21 743.12,55.06 744.24,54.91 745.36,54.76 746.48,54.61 747.60,54.46 748.72,54.32 749.84,54.17 750.96,54.03 752.08,53.88 753.20,53.74 754.32,53.60 755.44,53.46 756.56,53.32 757.68,53.18 758.80,53.04 759.92,52.90 761.04,52.77 762.16,52.63 763.28,52.49 764.40,52.36 765.52,52.23 766.64,52.10 767.76,51.96 768.88,51.83 770.00,51.70 771.12,51.57 772.24,51.45 773.36,51.32 774.48,51.19 775.60,51.07 776.72,50.94 777.84,50.82 778.96,50.70 780.08,50.57 781.20,50.45 782.32,50.33 783.44,50.21 784.56,50.09 785.68,49.98 786.80,49.86 787.92,49.74 789.04,49.63 790.16,49.51 791.28,49.40 792.40,49.29 793.52,49.18 794.64,49.07 795.76,48.96 796.88,48.85 798.00,48.74 799.12,48.63 800.24,48.52 801.36,48.42 802.48,48.31 803.60,48.21 804.72,48.11 805.84,48.00 806.96,47.90 808.08,47.80 809.20,47.70 810.32,47.60 811.44,47.51 812.56,47.41 813.68,47.31 814.80,47.22 815.92,47.12 817.04,47.03 818.16,46.94 819.28,46.85 820.40,46.75 821.52,46.66 822.64,46.58 823.76,46.49 824.88,46.40 826.00,46.31 827.12,46.23 828.24,46.14 829.36,46.06 830.48,45.97 831.60,45.89 832.72,45.81 833.84,45.73 834.96,45.65 836.08,45.57 837.20,45.49 838.32,45.42 839.44,45.34 840.56,45.26 841.68,45.19 842.80,45.12 843.92,45.04 845.04,44.97 846.16,44.90 847.28,44.83 848.40,44.76 849.52,44.69 850.64,44.62 851.76,44.56 852.88,44.49 854.00,44.43 855.12,44.36 856.24,44.30 857.36,44.24 858.48,44.17 859.60,44.11 860.72,44.05 861.84,43.99 862.96,43.94 864.08,43.88 865.20,43.82 866.32,43.77 867.44,43.71 868.56,43.66 869.68,43.60 870.80,43.55 871.92,43.50 873.04,43.45 874.16,43.40 875.28,43.35 876.40,43.30 877.52,43.26 878.64,43.21 879.76,43.17 880.88,43.12 882.00,43.08 883.12,43.04 884.24,42.99 885.36,42.95 886.48,42.91 887.60,42.87 888.72,42.83 889.84,42.80 890.96,42.76 892.08,42.72 893.20,42.69 894.32,42.66 895.44,42.62 896.56,42.59 897.68,42.56 898.80,42.53 899.92,42.50 901.04,42.47 902.16,42.44 903.28,42.41 904.40,42.39 905.52,42.36 906.64,42.34 907.76,42.31 908.88,42.29 910.00,42.27 911.12,42.25 912.24,42.23 913.36,42.21 914.48,42.19 915.60,42.17 916.72,42.16 917.84,42.14 918.96,42.12 920.08,42.11 921.20,42.10 922.32,42.08 923.44,42.07 924.56,42.06 925.68,42.05 926.80,42.04 927.92,42.03 929.04,42.03 930.16,42.02 931.28,42.02 932.40,42.01 933.52,42.01 934.64,42.00 935.76,42.00 936.88,42.00 938.00,42.00" /> <polyline fill="none" stroke="#ae2012" stroke-width="2" points="42.00,318.00 43.12,317.66 44.24,317.31 45.36,316.97 46.48,316.63 47.60,316.29 48.72,315.95 49.84,315.61 50.96,315.27 52.08,314.93 53.20,314.59 54.32,314.26 55.44,313.92 56.56,313.59 57.68,313.25 58.80,312.92 59.92,312.59 61.04,312.26 62.16,311.93 63.28,311.60 64.40,311.27 65.52,310.95 66.64,310.62 67.76,310.29 68.88,309.97 70.00,309.64 71.12,309.32 72.24,309.00 73.36,308.68 74.48,308.36 75.60,308.04 76.72,307.72 77.84,307.40 78.96,307.08 80.08,306.77 81.20,306.45 82.32,306.14 83.44,305.83 84.56,305.51 85.68,305.20 86.80,304.89 87.92,304.58 89.04,304.27 90.16,303.96 91.28,303.65 92.40,303.35 93.52,303.04 94.64,302.74 95.76,302.43 96.88,302.13 98.00,301.83 99.12,301.53 100.24,301.23 101.36,300.93 102.48,300.63 103.60,300.33 104.72,300.03 105.84,299.74 106.96,299.44 108.08,299.15 109.20,298.85 110.32,298.56 111.44,298.27 112.56,297.98 113.68,297.69 114.80,297.40 115.92,297.11 117.04,296.82 118.16,296.53 119.28,296.25 120.40,295.96 121.52,295.68 122.64,295.40 123.76,295.11 124.88,294.83 126.00,294.55 127.12,294.27 128.24,293.99 129.36,293.71 130.48,293.44 131.60,293.16 132.72,292.88 133.84,292.61 134.96,292.34 136.08,292.06 137.20,291.79 138.32,291.52 139.44,291.25 140.56,290.98 141.68,290.71 142.80,290.44 143.92,290.18 145.04,289.91 146.16,289.64 147.28,289.38 148.40,289.12 149.52,288.85 150.64,288.59 151.76,288.33 152.88,288.07 154.00,287.81 155.12,287.55 156.24,287.30 157.36,287.04 158.48,286.78 159.60,286.53 160.72,286.28 161.84,286.02 162.96,285.77 164.08,285.52 165.20,285.27 166.32,285.02 167.44,284.77 168.56,284.52 169.68,284.27 170.80,284.03 171.92,283.78 173.04,283.54 174.16,283.29 175.28,283.05 176.40,282.81 177.52,282.57 178.64,282.33 179.76,282.09 180.88,281.85 182.00,281.61 183.12,281.38 184.24,281.14 185.36,280.91 186.48,280.67 187.60,280.44 188.72,280.21 189.84,279.97 190.96,279.74 192.08,279.51 193.20,279.28 194.32,279.06 195.44,278.83 196.56,278.60 197.68,278.38 198.80,278.15 199.92,277.93 201.04,277.71 202.16,277.48 203.28,277.26 204.40,277.04 205.52,276.82 206.64,276.60 207.76,276.39 208.88,276.17 210.00,275.95 211.12,275.74 212.24,275.52 213.36,275.31 214.48,275.10 215.60,274.89 216.72,274.67 217.84,274.46 218.96,274.26 220.08,274.05 221.20,273.84 222.32,273.63 223.44,273.43 224.56,273.22 225.68,273.02 226.80,272.82 227.92,272.61 229.04,272.41 230.16,272.21 231.28,272.01 232.40,271.81 233.52,271.62 234.64,271.42 235.76,271.22 236.88,271.03 238.00,270.83 239.12,270.64 240.24,270.45 241.36,270.25 242.48,270.06 243.60,269.87 244.72,269.68 245.84,269.49 246.96,269.31 248.08,269.12 249.20,268.93 250.32,268.75 251.44,268.57 252.56,268.38 253.68,268.20 254.80,268.02 255.92,267.84 257.04,267.66 258.16,267.48 259.28,267.30 260.40,267.12 261.52,266.95 262.64,266.77 263.76,266.60 264.88,266.42 266.00,266.25 267.12,266.08 268.24,265.91 269.36,265.74 270.48,265.57 271.60,265.40 272.72,265.23 273.84,265.06 274.96,264.90 276.08,264.73 277.20,264.57 278.32,264.40 279.44,264.24 280.56,264.08 281.68,263.92 282.80,263.76 283.92,263.60 285.04,263.44 286.16,263.28 287.28,263.13 288.40,262.97 289.52,262.82 290.64,262.66 291.76,262.51 292.88,262.36 294.00,262.21 295.12,262.06 296.24,261.91 297.36,261.76 298.48,261.61 299.60,261.46 300.72,261.32 301.84,261.17 302.96,261.03 304.08,260.88 305.20,260.74 306.32,260.60 307.44,260.46 308.56,260.32 309.68,260.18 310.80,260.04 311.92,259.90 313.04,259.77 314.16,259.63 315.28,259.49 316.40,259.36 317.52,259.23 318.64,259.10 319.76,258.96 320.88,258.83 322.00,258.70 323.12,258.57 324.24,258.45 325.36,258.32 326.48,258.19 327.60,258.07 328.72,257.94 329.84,257.82 330.96,257.70 332.08,257.57 333.20,257.45 334.32,257.33 335.44,257.21 336.56,257.09 337.68,256.98 338.80,256.86 339.92,256.74 341.04,256.63 342.16,256.51 343.28,256.40 344.40,256.29 345.52,256.18 346.64,256.07 347.76,255.96 348.88,255.85 350.00,255.74 351.12,255.63 352.24,255.52 353.36,255.42 354.48,255.31 355.60,255.21 356.72,255.11 357.84,255.00 358.96,254.90 360.08,254.80 361.20,254.70 362.32,254.60 363.44,254.51 364.56,254.41 365.68,254.31 366.80,254.22 367.92,254.12 369.04,254.03 370.16,253.94 371.28,253.85 372.40,253.75 373.52,253.66 374.64,253.58 375.76,253.49 376.88,253.40 378.00,253.31 379.12,253.23 380.24,253.14 381.36,253.06 382.48,252.97 383.60,252.89 384.72,252.81 385.84,252.73 386.96,252.65 388.08,252.57 389.20,252.49 390.32,252.42 391.44,252.34 392.56,252.26 393.68,252.19 394.80,252.12 395.92,252.04 397.04,251.97 398.16,251.90 399.28,251.83 400.40,251.76 401.52,251.69 402.64,251.62 403.76,251.56 404.88,251.49 406.00,251.43 407.12,251.36 408.24,251.30 409.36,251.24 410.48,251.17 411.60,251.11 412.72,251.05 413.84,250.99 414.96,250.94 416.08,250.88 417.20,250.82 418.32,250.77 419.44,250.71 420.56,250.66 421.68,250.60 422.80,250.55 423.92,250.50 425.04,250.45 426.16,250.40 427.28,250.35 428.40,250.30 429.52,250.26 430.64,250.21 431.76,250.17 432.88,250.12 434.00,250.08 435.12,250.04 436.24,249.99 437.36,249.95 438.48,249.91 439.60,249.87 440.72,249.83 441.84,249.80 442.96,249.76 444.08,249.72 445.20,249.69 446.32,249.66 447.44,249.62 448.56,249.59 449.68,249.56 450.80,249.53 451.92,249.50 453.04,249.47 454.16,249.44 455.28,249.41 456.40,249.39 457.52,249.36 458.64,249.34 459.76,249.31 460.88,249.29 462.00,249.27 463.12,249.25 464.24,249.23 465.36,249.21 466.48,249.19 467.60,249.17 468.72,249.16 469.84,249.14 470.96,249.12 472.08,249.11 473.20,249.10 474.32,249.08 475.44,249.07 476.56,249.06 477.68,249.05 478.80,249.04 479.92,249.03 481.04,249.03 482.16,249.02 483.28,249.02 484.40,249.01 485.52,249.01 486.64,249.00 487.76,249.00 488.88,249.00 490.00,249.00 491.12,249.00 492.24,249.00 493.36,249.00 494.48,249.01 495.60,249.01 496.72,249.02 497.84,249.02 498.96,249.03 500.08,249.03 501.20,249.04 502.32,249.05 503.44,249.06 504.56,249.07 505.68,249.08 506.80,249.10 507.92,249.11 509.04,249.12 510.16,249.14 511.28,249.16 512.40,249.17 513.52,249.19 514.64,249.21 515.76,249.23 516.88,249.25 518.00,249.27 519.12,249.29 520.24,249.31 521.36,249.34 522.48,249.36 523.60,249.39 524.72,249.41 525.84,249.44 526.96,249.47 528.08,249.50 529.20,249.53 530.32,249.56 531.44,249.59 532.56,249.62 533.68,249.66 534.80,249.69 535.92,249.72 537.04,249.76 538.16,249.80 539.28,249.83 540.40,249.87 541.52,249.91 542.64,249.95 543.76,249.99 544.88,250.04 546.00,250.08 547.12,250.12 548.24,250.17 549.36,250.21 550.48,250.26 551.60,250.30 552.72,250.35 553.84,250.40 554.96,250.45 556.08,250.50 557.20,250.55 558.32,250.60 559.44,250.66 560.56,250.71 561.68,250.77 562.80,250.82 563.92,250.88 565.04,250.94 566.16,250.99 567.28,251.05 568.40,251.11 569.52,251.17 570.64,251.24 571.76,251.30 572.88,251.36 574.00,251.43 575.12,251.49 576.24,251.56 577.36,251.62 578.48,251.69 579.60,251.76 580.72,251.83 581.84,251.90 582.96,251.97 584.08,252.04 585.20,252.12 586.32,252.19 587.44,252.26 588.56,252.34 589.68,252.42 590.80,252.49 591.92,252.57 593.04,252.65 594.16,252.73 595.28,252.81 596.40,252.89 597.52,252.97 598.64,253.06 599.76,253.14 600.88,253.23 602.00,253.31 603.12,253.40 604.24,253.49 605.36,253.58 606.48,253.66 607.60,253.75 608.72,253.85 609.84,253.94 610.96,254.03 612.08,254.12 613.20,254.22 614.32,254.31 615.44,254.41 616.56,254.51 617.68,254.60 618.80,254.70 619.92,254.80 621.04,254.90 622.16,255.00 623.28,255.11 624.40,255.21 625.52,255.31 626.64,255.42 627.76,255.52 628.88,255.63 630.00,255.74 631.12,255.85 632.24,255.96 633.36,256.07 634.48,256.18 635.60,256.29 636.72,256.40 637.84,256.51 638.96,256.63 640.08,256.74 641.20,256.86 642.32,256.98 643.44,257.09 644.56,257.21 645.68,257.33 646.80,257.45 647.92,257.57 649.04,257.70 650.16,257.82 651.28,257.94 652.40,258.07 653.52,258.19 654.64,258.32 655.76,258.45 656.88,258.57 658.00,258.70 659.12,258.83 660.24,258.96 661.36,259.10 662.48,259.23 663.60,259.36 664.72,259.49 665.84,259.63 666.96,259.77 668.08,259.90 669.20,260.04 670.32,260.18 671.44,260.32 672.56,260.46 673.68,260.60 674.80,260.74 675.92,260.88 677.04,261.03 678.16,261.17 679.28,261.32 680.40,261.46 681.52,261.61 682.64,261.76 683.76,261.91 684.88,262.06 686.00,262.21 687.12,262.36 688.24,262.51 689.36,262.66 690.48,262.82 691.60,262.97 692.72,263.13 693.84,263.28 694.96,263.44 696.08,263.60 697.20,263.76 698.32,263.92 699.44,264.08 700.56,264.24 701.68,264.40 702.80,264.57 703.92,264.73 705.04,264.90 706.16,265.06 707.28,265.23 708.40,265.40 709.52,265.57 710.64,265.74 711.76,265.91 712.88,266.08 714.00,266.25 715.12,266.42 716.24,266.60 717.36,266.77 718.48,266.95 719.60,267.12 720.72,267.30 721.84,267.48 722.96,267.66 724.08,267.84 725.20,268.02 726.32,268.20 727.44,268.38 728.56,268.57 729.68,268.75 730.80,268.93 731.92,269.12 733.04,269.31 734.16,269.49 735.28,269.68 736.40,269.87 737.52,270.06 738.64,270.25 739.76,270.45 740.88,270.64 742.00,270.83 743.12,271.03 744.24,271.22 745.36,271.42 746.48,271.62 747.60,271.81 748.72,272.01 749.84,272.21 750.96,272.41 752.08,272.61 753.20,272.82 754.32,273.02 755.44,273.22 756.56,273.43 757.68,273.63 758.80,273.84 759.92,274.05 761.04,274.26 762.16,274.46 763.28,274.67 764.40,274.89 765.52,275.10 766.64,275.31 767.76,275.52 768.88,275.74 770.00,275.95 771.12,276.17 772.24,276.39 773.36,276.60 774.48,276.82 775.60,277.04 776.72,277.26 777.84,277.48 778.96,277.71 780.08,277.93 781.20,278.15 782.32,278.38 783.44,278.60 784.56,278.83 785.68,279.06 786.80,279.28 787.92,279.51 789.04,279.74 790.16,279.97 791.28,280.21 792.40,280.44 793.52,280.67 794.64,280.91 795.76,281.14 796.88,281.38 798.00,281.61 799.12,281.85 800.24,282.09 801.36,282.33 802.48,282.57 803.60,282.81 804.72,283.05 805.84,283.29 806.96,283.54 808.08,283.78 809.20,284.03 810.32,284.27 811.44,284.52 812.56,284.77 813.68,285.02 814.80,285.27 815.92,285.52 817.04,285.77 818.16,286.02 819.28,286.28 820.40,286.53 821.52,286.78 822.64,287.04 823.76,287.30 824.88,287.55 826.00,287.81 827.12,288.07 828.24,288.33 829.36,288.59 830.48,288.85 831.60,289.12 832.72,289.38 833.84,289.64 834.96,289.91 836.08,290.18 837.20,290.44 838.32,290.71 839.44,290.98 840.56,291.25 841.68,291.52 842.80,291.79 843.92,292.06 845.04,292.34 846.16,292.61 847.28,292.88 848.40,293.16 849.52,293.44 850.64,293.71 851.76,293.99 852.88,294.27 854.00,294.55 855.12,294.83 856.24,295.11 857.36,295.40 858.48,295.68 859.60,295.96 860.72,296.25 861.84,296.53 862.96,296.82 864.08,297.11 865.20,297.40 866.32,297.69 867.44,297.98 868.56,298.27 869.68,298.56 870.80,298.85 871.92,299.15 873.04,299.44 874.16,299.74 875.28,300.03 876.40,300.33 877.52,300.63 878.64,300.93 879.76,301.23 880.88,301.53 882.00,301.83 883.12,302.13 884.24,302.43 885.36,302.74 886.48,303.04 887.60,303.35 888.72,303.65 889.84,303.96 890.96,304.27 892.08,304.58 893.20,304.89 894.32,305.20 895.44,305.51 896.56,305.83 897.68,306.14 898.80,306.45 899.92,306.77 901.04,307.08 902.16,307.40 903.28,307.72 904.40,308.04 905.52,308.36 906.64,308.68 907.76,309.00 908.88,309.32 910.00,309.64 911.12,309.97 912.24,310.29 913.36,310.62 914.48,310.95 915.60,311.27 916.72,311.60 917.84,311.93 918.96,312.26 920.08,312.59 921.20,312.92 922.32,313.25 923.44,313.59 924.56,313.92 925.68,314.26 926.80,314.59 927.92,314.93 929.04,315.27 930.16,315.61 931.28,315.95 932.40,316.29 933.52,316.63 934.64,316.97 935.76,317.31 936.88,317.66 938.00,318.00" />
  <line x1="56.0" y1="56.0" x2="78.0" y2="56.0" stroke="#005f73" stroke-width="2" /><text x="84.0" y="60.0" font-family="Arial, Helvetica, sans-serif" font-size="11" fill="#243b53">linear</text> <line x1="56.0" y1="72.0" x2="78.0" y2="72.0" stroke="#0a9396" stroke-width="2" /><text x="84.0" y="76.0" font-family="Arial, Helvetica, sans-serif" font-size="11" fill="#243b53">geometric</text> <line x1="56.0" y1="88.0" x2="78.0" y2="88.0" stroke="#ee9b00" stroke-width="2" /><text x="84.0" y="92.0" font-family="Arial, Helvetica, sans-serif" font-size="11" fill="#243b53">product</text> <line x1="56.0" y1="104.0" x2="78.0" y2="104.0" stroke="#ca6702" stroke-width="2" /><text x="84.0" y="108.0" font-family="Arial, Helvetica, sans-serif" font-size="11" fill="#243b53">max_mag</text> <line x1="56.0" y1="120.0" x2="78.0" y2="120.0" stroke="#ae2012" stroke-width="2" /><text x="84.0" y="124.0" font-family="Arial, Helvetica, sans-serif" font-size="11" fill="#243b53">min_mag</text>
  <text x="490.0" y="24" text-anchor="middle" font-family="Arial, Helvetica, sans-serif" font-size="16" fill="#102a43">Morph magnitude curves vs alpha (example magnitudes)</text>
  <text x="490.0" y="352" text-anchor="middle" font-family="Arial, Helvetica, sans-serif" font-size="12" fill="#334e68">alpha (0=A, 1=B)</text>
  <text x="14" y="180.0" transform="rotate(-90 14,180.0)" text-anchor="middle" font-family="Arial, Helvetica, sans-serif" font-size="12" fill="#334e68">output magnitude</text>
  <text x="42" y="336" font-family="Arial, Helvetica, sans-serif" font-size="11" fill="#486581">0.00</text>
  <text x="938" y="336" text-anchor="end" font-family="Arial, Helvetica, sans-serif" font-size="11" fill="#486581">1.00</text>
  <text x="36" y="46" text-anchor="end" font-family="Arial, Helvetica, sans-serif" font-size="11" fill="#486581">1.00</text>
  <text x="36" y="322" text-anchor="end" font-family="Arial, Helvetica, sans-serif" font-size="11" fill="#486581">0.20</text>
</svg>
