<svg xmlns="http://www.w3.org/2000/svg" width="980" height="360" viewBox="0 0 980 360">
  <rect x="0" y="0" width="980" height="360" fill="#ffffff" />
  <rect x="42" y="42" width="896" height="276" fill="#f7fbff" stroke="#c8d9e6" />
  <polyline fill="none" stroke="#4361ee" stroke-width="2" points="42.00,318.00 43.12,317.81 44.24,317.63 45.36,317.44 46.48,317.25 47.60,317.06 48.72,316.87 49.84,316.68 50.96,316.49 52.08,316.30 53.20,316.10 54.32,315.91 55.44,315.72 56.56,315.52 57.68,315.33 58.80,315.13 59.92,314.94 61.04,314.74 62.16,314.55 63.28,314.35 64.40,314.15 65.52,313.95 66.64,313.75 67.76,313.55 68.88,313.35 70.00,313.15 71.12,312.95 72.24,312.74 73.36,312.54 74.48,312.34 75.60,312.13 76.72,311.93 77.84,311.72 78.96,311.52 80.08,311.31 81.20,311.10 82.32,310.89 83.44,310.68 84.56,310.47 85.68,310.26 86.80,310.05 87.92,309.84 89.04,309.63 90.16,309.42 91.28,309.20 92.40,308.99 93.52,308.77 94.64,308.56 95.76,308.34 96.88,308.12 98.00,307.91 99.12,307.69 100.24,307.47 101.36,307.25 102.48,307.03 103.60,306.81 104.72,306.59 105.84,306.36 106.96,306.14 108.08,305.92 109.20,305.69 110.32,305.47 111.44,305.24 112.56,305.01 113.68,304.79 114.80,304.56 115.92,304.33 117.04,304.10 118.16,303.87 119.28,303.64 120.40,303.41 121.52,303.17 122.64,302.94 123.76,302.71 124.88,302.47 126.00,302.24 127.12,302.00 128.24,301.76 129.36,301.53 130.48,301.29 131.60,301.05 132.72,300.81 133.84,300.57 134.96,300.33 136.08,300.08 137.20,299.84 138.32,299.60 139.44,299.35 140.56,299.11 141.68,298.86 142.80,298.61 143.92,298.37 145.04,298.12 146.16,297.87 147.28,297.62 148.40,297.37 149.52,297.12 150.64,296.86 151.76,296.61 152.88,296.36 154.00,296.10 155.12,295.85 156.24,295.59 157.36,295.33 158.48,295.08 159.60,294.82 160.72,294.56 161.84,294.30 162.96,294.04 164.08,293.77 165.20,293.51 166.32,293.25 167.44,292.98 168.56,292.72 169.68,292.45 170.80,292.18 171.92,291.92 173.04,291.65 174.16,291.38 175.28,291.11 176.40,290.84 177.52,290.56 178.64,290.29 179.76,290.02 180.88,289.74 182.00,289.47 183.12,289.19 184.24,288.91 185.36,288.64 186.48,288.36 187.60,288.08 188.72,287.80 189.84,287.51 190.96,287.23 192.08,286.95 193.20,286.66 194.32,286.38 195.44,286.09 196.56,285.81 197.68,285.52 198.80,285.23 199.92,284.94 201.04,284.65 202.16,284.36 203.28,284.07 204.40,283.77 205.52,283.48 206.64,283.18 207.76,282.89 208.88,282.59 210.00,282.29 211.12,282.00 212.24,281.70 213.36,281.40 214.48,281.09 215.60,280.79 216.72,280.49 217.84,280.18 218.96,279.88 220.08,279.57 221.20,279.27 222.32,278.96 223.44,278.65 224.56,278.34 225.68,278.03 226.80,277.72 227.92,277.41 229.04,277.09 230.16,276.78 231.28,276.46 232.40,276.15 233.52,275.83 234.64,275.51 235.76,275.19 236.88,274.87 238.00,274.55 239.12,274.23 240.24,273.91 241.36,273.58 242.48,273.26 243.60,272.93 244.72,272.60 245.84,272.28 246.96,271.95 248.08,271.62 249.20,271.29 250.32,270.96 251.44,270.62 252.56,270.29 253.68,269.95 254.80,269.62 255.92,269.28 257.04,268.95 258.16,268.61 259.28,268.27 260.40,267.93 261.52,267.59 262.64,267.24 263.76,266.90 264.88,266.56 266.00,266.21 267.12,265.86 268.24,265.52 269.36,265.17 270.48,264.82 271.60,264.47 272.72,264.12 273.84,263.77 274.96,263.41 276.08,263.06 277.20,262.70 278.32,262.35 279.44,261.99 280.56,261.63 281.68,261.27 282.80,260.91 283.92,260.55 285.04,260.19 286.16,259.83 287.28,259.46 288.40,259.10 289.52,258.73 290.64,258.36 291.76,258.00 292.88,257.63 294.00,257.26 295.12,256.89 296.24,256.51 297.36,256.14 298.48,255.77 299.60,255.39 300.72,255.02 301.84,254.64 302.96,254.26 304.08,253.88 305.20,253.50 306.32,253.12 307.44,252.74 308.56,252.36 309.68,251.97 310.80,251.59 311.92,251.20 313.04,250.82 314.16,250.43 315.28,250.04 316.40,249.65 317.52,249.26 318.64,248.87 319.76,248.48 320.88,248.08 322.00,247.69 323.12,247.29 324.24,246.90 325.36,246.50 326.48,246.10 327.60,245.70 328.72,245.30 329.84,244.90 330.96,244.50 332.08,244.10 333.20,243.69 334.32,243.29 335.44,242.88 336.56,242.48 337.68,242.07 338.80,241.66 339.92,241.25 341.04,240.84 342.16,240.43 343.28,240.02 344.40,239.60 345.52,239.19 346.64,238.77 347.76,238.36 348.88,237.94 350.00,237.52 351.12,237.10 352.24,236.68 353.36,236.26 354.48,235.84 355.60,235.42 356.72,235.00 357.84,234.57 358.96,234.15 360.08,233.72 361.20,233.30 362.32,232.87 363.44,232.44 364.56,232.01 365.68,231.58 366.80,231.15 367.92,230.72 369.04,230.29 370.16,229.85 371.28,229.42 372.40,228.98 373.52,228.55 374.64,228.11 375.76,227.67 376.88,227.24 378.00,226.80 379.12,226.36 380.24,225.92 381.36,225.47 382.48,225.03 383.60,224.59 384.72,224.15 385.84,223.70 386.96,223.26 388.08,222.81 389.20,222.36 390.32,221.92 391.44,221.47 392.56,221.02 393.68,220.57 394.80,220.12 395.92,219.67 397.04,219.22 398.16,218.76 399.28,218.31 400.40,217.86 401.52,217.40 402.64,216.95 403.76,216.49 404.88,216.03 406.00,215.58 407.12,215.12 408.24,214.66 409.36,214.20 410.48,213.74 411.60,213.28 412.72,212.82 413.84,212.36 414.96,211.90 416.08,211.43 417.20,210.97 418.32,210.51 419.44,210.04 420.56,209.58 421.68,209.11 422.80,208.65 423.92,208.18 425.04,207.71 426.16,207.24 427.28,206.78 428.40,206.31 429.52,205.84 430.64,205.37 431.76,204.90 432.88,204.43 434.00,203.96 435.12,203.48 436.24,203.01 437.36,202.54 438.48,202.07 439.60,201.59 440.72,201.12 441.84,200.65 442.96,200.17 444.08,199.70 445.20,199.22 446.32,198.75 447.44,198.27 448.56,197.79 449.68,197.32 450.80,196.84 451.92,196.36 453.04,195.88 454.16,195.41 455.28,194.93 456.40,194.45 457.52,193.97 458.64,193.49 459.76,193.01 460.88,192.53 462.00,192.05 463.12,191.57 464.24,191.09 465.36,190.61 466.48,190.13 467.60,189.65 468.72,189.17 469.84,188.69 470.96,188.20 472.08,187.72 473.20,187.24 474.32,186.76 475.44,186.28 476.56,185.79 477.68,185.31 478.80,184.83 479.92,184.35 481.04,183.86 482.16,183.38 483.28,182.90 484.40,182.42 485.52,181.93 486.64,181.45 487.76,180.97 488.88,180.48 490.00,180.00 491.12,179.52 492.24,179.03 493.36,178.55 494.48,178.07 495.60,177.58 496.72,177.10 497.84,176.62 498.96,176.14 500.08,175.65 501.20,175.17 502.32,174.69 503.44,174.21 504.56,173.72 505.68,173.24 506.80,172.76 507.92,172.28 509.04,171.80 510.16,171.31 511.28,170.83 512.40,170.35 513.52,169.87 514.64,169.39 515.76,168.91 516.88,168.43 518.00,167.95 519.12,167.47 520.24,166.99 521.36,166.51 522.48,166.03 523.60,165.55 524.72,165.07 525.84,164.59 526.96,164.12 528.08,163.64 529.20,163.16 530.32,162.68 531.44,162.21 532.56,161.73 533.68,161.25 534.80,160.78 535.92,160.30 537.04,159.83 538.16,159.35 539.28,158.88 540.40,158.41 541.52,157.93 542.64,157.46 543.76,156.99 544.88,156.52 546.00,156.04 547.12,155.57 548.24,155.10 549.36,154.63 550.48,154.16 551.60,153.69 552.72,153.22 553.84,152.76 554.96,152.29 556.08,151.82 557.20,151.35 558.32,150.89 559.44,150.42 560.56,149.96 561.68,149.49 562.80,149.03 563.92,148.57 565.04,148.10 566.16,147.64 567.28,147.18 568.40,146.72 569.52,146.26 570.64,145.80 571.76,145.34 572.88,144.88 574.00,144.42 575.12,143.97 576.24,143.51 577.36,143.05 578.48,142.60 579.60,142.14 580.72,141.69 581.84,141.24 582.96,140.78 584.08,140.33 585.20,139.88 586.32,139.43 587.44,138.98 588.56,138.53 589.68,138.08 590.80,137.64 591.92,137.19 593.04,136.74 594.16,136.30 595.28,135.85 596.40,135.41 597.52,134.97 598.64,134.53 599.76,134.08 600.88,133.64 602.00,133.20 603.12,132.76 604.24,132.33 605.36,131.89 606.48,131.45 607.60,131.02 608.72,130.58 609.84,130.15 610.96,129.71 612.08,129.28 613.20,128.85 614.32,128.42 615.44,127.99 616.56,127.56 617.68,127.13 618.80,126.70 619.92,126.28 621.04,125.85 622.16,125.43 623.28,125.00 624.40,124.58 625.52,124.16 626.64,123.74 627.76,123.32 628.88,122.90 630.00,122.48 631.12,122.06 632.24,121.64 633.36,121.23 634.48,120.81 635.60,120.40 636.72,119.98 637.84,119.57 638.96,119.16 640.08,118.75 641.20,118.34 642.32,117.93 643.44,117.52 644.56,117.12 645.68,116.71 646.80,116.31 647.92,115.90 649.04,115.50 650.16,115.10 651.28,114.70 652.40,114.30 653.52,113.90 654.64,113.50 655.76,113.10 656.88,112.71 658.00,112.31 659.12,111.92 660.24,111.52 661.36,111.13 662.48,110.74 663.60,110.35 664.72,109.96 665.84,109.57 666.96,109.18 668.08,108.80 669.20,108.41 670.32,108.03 671.44,107.64 672.56,107.26 673.68,106.88 674.80,106.50 675.92,106.12 677.04,105.74 678.16,105.36 679.28,104.98 680.40,104.61 681.52,104.23 682.64,103.86 683.76,103.49 684.88,103.11 686.00,102.74 687.12,102.37 688.24,102.00 689.36,101.64 690.48,101.27 691.60,100.90 692.72,100.54 693.84,100.17 694.96,99.81 696.08,99.45 697.20,99.09 698.32,98.73 699.44,98.37 700.56,98.01 701.68,97.65 702.80,97.30 703.92,96.94 705.04,96.59 706.16,96.23 707.28,95.88 708.40,95.53 709.52,95.18 710.64,94.83 711.76,94.48 712.88,94.14 714.00,93.79 715.12,93.44 716.24,93.10 717.36,92.76 718.48,92.41 719.60,92.07 720.72,91.73 721.84,91.39 722.96,91.05 724.08,90.72 725.20,90.38 726.32,90.05 727.44,89.71 728.56,89.38 729.68,89.04 730.80,88.71 731.92,88.38 733.04,88.05 734.16,87.72 735.28,87.40 736.40,87.07 737.52,86.74 738.64,86.42 739.76,86.09 740.88,85.77 742.00,85.45 743.12,85.13 744.24,84.81 745.36,84.49 746.48,84.17 747.60,83.85 748.72,83.54 749.84,83.22 750.96,82.91 752.08,82.59 753.20,82.28 754.32,81.97 755.44,81.66 756.56,81.35 757.68,81.04 758.80,80.73 759.92,80.43 761.04,80.12 762.16,79.82 763.28,79.51 764.40,79.21 765.52,78.91 766.64,78.60 767.76,78.30 768.88,78.00 770.00,77.71 771.12,77.41 772.24,77.11 773.36,76.82 774.48,76.52 775.60,76.23 776.72,75.93 777.84,75.64 778.96,75.35 780.08,75.06 781.20,74.77 782.32,74.48 783.44,74.19 784.56,73.91 785.68,73.62 786.80,73.34 787.92,73.05 789.04,72.77 790.16,72.49 791.28,72.20 792.40,71.92 793.52,71.64 794.64,71.36 795.76,71.09 796.88,70.81 798.00,70.53 799.12,70.26 800.24,69.98 801.36,69.71 802.48,69.44 803.60,69.16 804.72,68.89 805.84,68.62 806.96,68.35 808.08,68.08 809.20,67.82 810.32,67.55 811.44,67.28 812.56,67.02 813.68,66.75 814.80,66.49 815.92,66.23 817.04,65.96 818.16,65.70 819.28,65.44 820.40,65.18 821.52,64.92 822.64,64.67 823.76,64.41 824.88,64.15 826.00,63.90 827.12,63.64 828.24,63.39 829.36,63.14 830.48,62.88 831.60,62.63 832.72,62.38 833.84,62.13 834.96,61.88 836.08,61.63 837.20,61.39 838.32,61.14 839.44,60.89 840.56,60.65 841.68,60.40 842.80,60.16 843.92,59.92 845.04,59.67 846.16,59.43 847.28,59.19 848.40,58.95 849.52,58.71 850.64,58.47 851.76,58.24 852.88,58.00 854.00,57.76 855.12,57.53 856.24,57.29 857.36,57.06 858.48,56.83 859.60,56.59 860.72,56.36 861.84,56.13 862.96,55.90 864.08,55.67 865.20,55.44 866.32,55.21 867.44,54.99 868.56,54.76 869.68,54.53 870.80,54.31 871.92,54.08 873.04,53.86 874.16,53.64 875.28,53.41 876.40,53.19 877.52,52.97 878.64,52.75 879.76,52.53 880.88,52.31 882.00,52.09 883.12,51.88 884.24,51.66 885.36,51.44 886.48,51.23 887.60,51.01 888.72,50.80 889.84,50.58 890.96,50.37 892.08,50.16 893.20,49.95 894.32,49.74 895.44,49.53 896.56,49.32 897.68,49.11 898.80,48.90 899.92,48.69 901.04,48.48 902.16,48.28 903.28,48.07 904.40,47.87 905.52,47.66 906.64,47.46 907.76,47.26 908.88,47.05 910.00,46.85 911.12,46.65 912.24,46.45 913.36,46.25 914.48,46.05 915.60,45.85 916.72,45.65 917.84,45.45 918.96,45.26 920.08,45.06 921.20,44.87 922.32,44.67 923.44,44.48 924.56,44.28 925.68,44.09 926.80,43.90 927.92,43.70 929.04,43.51 930.16,43.32 931.28,43.13 932.40,42.94 933.52,42.75 934.64,42.56 935.76,42.37 936.88,42.19 938.00,42.00" />
  <line x1="56.0" y1="56.0" x2="78.0" y2="56.0" stroke="#4361ee" stroke-width="2" /><text x="84.0" y="60.0" font-family="Arial, Helvetica, sans-serif" font-size="11" fill="#243b53">output phase angle</text>
  <text x="490.0" y="24" text-anchor="middle" font-family="Arial, Helvetica, sans-serif" font-size="16" fill="#102a43">Phase mix curve (example phase pair)</text>
  <text x="490.0" y="352" text-anchor="middle" font-family="Arial, Helvetica, sans-serif" font-size="12" fill="#334e68">phase mix (0=A phase, 1=B phase)</text>
  <text x="14" y="180.0" transform="rotate(-90 14,180.0)" text-anchor="middle" font-family="Arial, Helvetica, sans-serif" font-size="12" fill="#334e68">output angle (radians)</text>
  <text x="42" y="336" font-family="Arial, Helvetica, sans-serif" font-size="11" fill="#486581">0.00</text>
  <text x="938" y="336" text-anchor="end" font-family="Arial, Helvetica, sans-serif" font-size="11" fill="#486581">1.00</text>
  <text x="36" y="46" text-anchor="end" font-family="Arial, Helvetica, sans-serif" font-size="11" fill="#486581">1.80</text>
  <text x="36" y="322" text-anchor="end" font-family="Arial, Helvetica, sans-serif" font-size="11" fill="#486581">0.00</text>
</svg>
