<svg xmlns="http://www.w3.org/2000/svg" width="980" height="360" viewBox="0 0 980 360">
  <rect x="0" y="0" width="980" height="360" fill="#ffffff" />
  <rect x="42" y="42" width="896" height="276" fill="#f7fbff" stroke="#c8d9e6" />
  <polyline fill="none" stroke="#005f73" stroke-width="2" points="42.00,318.00 43.12,317.94 44.24,317.87 45.36,317.81 46.48,317.74 47.60,317.68 48.72,317.61 49.84,317.55 50.96,317.48 52.08,317.42 53.20,317.35 54.32,317.28 55.44,317.22 56.56,317.15 57.68,317.09 58.80,317.02 59.92,316.95 61.04,316.88 62.16,316.82 63.28,316.75 64.40,316.68 65.52,316.61 66.64,316.54 67.76,316.47 68.88,316.40 70.00,316.33 71.12,316.26 72.24,316.20 73.36,316.12 74.48,316.05 75.60,315.98 76.72,315.91 77.84,315.84 78.96,315.77 80.08,315.70 81.20,315.63 82.32,315.55 83.44,315.48 84.56,315.41 85.68,315.34 86.80,315.26 87.92,315.19 89.04,315.12 90.16,315.04 91.28,314.97 92.40,314.89 93.52,314.82 94.64,314.74 95.76,314.67 96.88,314.59 98.00,314.52 99.12,314.44 100.24,314.37 101.36,314.29 102.48,314.21 103.60,314.14 104.72,314.06 105.84,313.98 106.96,313.90 108.08,313.83 109.20,313.75 110.32,313.67 111.44,313.59 112.56,313.51 113.68,313.43 114.80,313.35 115.92,313.27 117.04,313.19 118.16,313.11 119.28,313.03 120.40,312.95 121.52,312.87 122.64,312.78 123.76,312.70 124.88,312.62 126.00,312.54 127.12,312.46 128.24,312.37 129.36,312.29 130.48,312.21 131.60,312.12 132.72,312.04 133.84,311.95 134.96,311.87 136.08,311.78 137.20,311.70 138.32,311.61 139.44,311.52 140.56,311.44 141.68,311.35 142.80,311.26 143.92,311.18 145.04,311.09 146.16,311.00 147.28,310.91 148.40,310.83 149.52,310.74 150.64,310.65 151.76,310.56 152.88,310.47 154.00,310.38 155.12,310.29 156.24,310.20 157.36,310.11 158.48,310.02 159.60,309.92 160.72,309.83 161.84,309.74 162.96,309.65 164.08,309.55 165.20,309.46 166.32,309.37 167.44,309.27 168.56,309.18 169.68,309.08 170.80,308.99 171.92,308.89 173.04,308.80 174.16,308.70 175.28,308.61 176.40,308.51 177.52,308.41 178.64,308.32 179.76,308.22 180.88,308.12 182.00,308.02 183.12,307.92 184.24,307.83 185.36,307.73 186.48,307.63 187.60,307.53 188.72,307.43 189.84,307.33 190.96,307.23 192.08,307.12 193.20,307.02 194.32,306.92 195.44,306.82 196.56,306.72 197.68,306.61 198.80,306.51 199.92,306.41 201.04,306.30 202.16,306.20 203.28,306.09 204.40,305.99 205.52,305.88 206.64,305.78 207.76,305.67 208.88,305.56 210.00,305.46 211.12,305.35 212.24,305.24 213.36,305.13 214.48,305.02 215.60,304.91 216.72,304.80 217.84,304.70 218.96,304.59 220.08,304.47 221.20,304.36 222.32,304.25 223.44,304.14 224.56,304.03 225.68,303.92 226.80,303.80 227.92,303.69 229.04,303.58 230.16,303.46 231.28,303.35 232.40,303.23 233.52,303.12 234.64,303.00 235.76,302.89 236.88,302.77 238.00,302.65 239.12,302.54 240.24,302.42 241.36,302.30 242.48,302.18 243.60,302.06 244.72,301.95 245.84,301.83 246.96,301.71 248.08,301.59 249.20,301.46 250.32,301.34 251.44,301.22 252.56,301.10 253.68,300.98 254.80,300.85 255.92,300.73 257.04,300.61 258.16,300.48 259.28,300.36 260.40,300.23 261.52,300.11 262.64,299.98 263.76,299.85 264.88,299.73 266.00,299.60 267.12,299.47 268.24,299.34 269.36,299.22 270.48,299.09 271.60,298.96 272.72,298.83 273.84,298.70 274.96,298.57 276.08,298.43 277.20,298.30 278.32,298.17 279.44,298.04 280.56,297.90 281.68,297.77 282.80,297.64 283.92,297.50 285.04,297.37 286.16,297.23 287.28,297.10 288.40,296.96 289.52,296.82 290.64,296.68 291.76,296.55 292.88,296.41 294.00,296.27 295.12,296.13 296.24,295.99 297.36,295.85 298.48,295.71 299.60,295.57 300.72,295.43 301.84,295.28 302.96,295.14 304.08,295.00 305.20,294.85 306.32,294.71 307.44,294.57 308.56,294.42 309.68,294.27 310.80,294.13 311.92,293.98 313.04,293.83 314.16,293.69 315.28,293.54 316.40,293.39 317.52,293.24 318.64,293.09 319.76,292.94 320.88,292.79 322.00,292.64 323.12,292.49 324.24,292.33 325.36,292.18 326.48,292.03 327.60,291.87 328.72,291.72 329.84,291.56 330.96,291.41 332.08,291.25 333.20,291.09 334.32,290.94 335.44,290.78 336.56,290.62 337.68,290.46 338.80,290.30 339.92,290.14 341.04,289.98 342.16,289.82 343.28,289.66 344.40,289.50 345.52,289.33 346.64,289.17 347.76,289.01 348.88,288.84 350.00,288.68 351.12,288.51 352.24,288.34 353.36,288.18 354.48,288.01 355.60,287.84 356.72,287.67 357.84,287.50 358.96,287.33 360.08,287.16 361.20,286.99 362.32,286.82 363.44,286.65 364.56,286.48 365.68,286.30 366.80,286.13 367.92,285.96 369.04,285.78 370.16,285.60 371.28,285.43 372.40,285.25 373.52,285.07 374.64,284.90 375.76,284.72 376.88,284.54 378.00,284.36 379.12,284.18 380.24,283.99 381.36,283.81 382.48,283.63 383.60,283.45 384.72,283.26 385.84,283.08 386.96,282.89 388.08,282.71 389.20,282.52 390.32,282.33 391.44,282.15 392.56,281.96 393.68,281.77 394.80,281.58 395.92,281.39 397.04,281.20 398.16,281.01 399.28,280.81 400.40,280.62 401.52,280.43 402.64,280.23 403.76,280.04 404.88,279.84 406.00,279.65 407.12,279.45 408.24,279.25 409.36,279.05 410.48,278.85 411.60,278.65 412.72,278.45 413.84,278.25 414.96,278.05 416.08,277.85 417.20,277.65 418.32,277.44 419.44,277.24 420.56,277.03 421.68,276.83 422.80,276.62 423.92,276.41 425.04,276.20 426.16,275.99 427.28,275.78 428.40,275.57 429.52,275.36 430.64,275.15 431.76,274.94 432.88,274.72 434.00,274.51 435.12,274.30 436.24,274.08 437.36,273.86 438.48,273.65 439.60,273.43 440.72,273.21 441.84,272.99 442.96,272.77 444.08,272.55 445.20,272.33 446.32,272.11 447.44,271.88 448.56,271.66 449.68,271.43 450.80,271.21 451.92,270.98 453.04,270.75 454.16,270.53 455.28,270.30 456.40,270.07 457.52,269.84 458.64,269.61 459.76,269.37 460.88,269.14 462.00,268.91 463.12,268.67 464.24,268.44 465.36,268.20 466.48,267.97 467.60,267.73 468.72,267.49 469.84,267.25 470.96,267.01 472.08,266.77 473.20,266.53 474.32,266.29 475.44,266.04 476.56,265.80 477.68,265.55 478.80,265.31 479.92,265.06 481.04,264.81 482.16,264.56 483.28,264.31 484.40,264.06 485.52,263.81 486.64,263.56 487.76,263.31 488.88,263.05 490.00,262.80 491.12,262.54 492.24,262.29 493.36,262.03 494.48,261.77 495.60,261.51 496.72,261.25 497.84,260.99 498.96,260.73 500.08,260.47 501.20,260.20 502.32,259.94 503.44,259.67 504.56,259.41 505.68,259.14 506.80,258.87 507.92,258.60 509.04,258.33 510.16,258.06 511.28,257.79 512.40,257.52 513.52,257.24 514.64,256.97 515.76,256.69 516.88,256.42 518.00,256.14 519.12,255.86 520.24,255.58 521.36,255.30 522.48,255.02 523.60,254.74 524.72,254.45 525.84,254.17 526.96,253.88 528.08,253.60 529.20,253.31 530.32,253.02 531.44,252.73 532.56,252.44 533.68,252.15 534.80,251.86 535.92,251.56 537.04,251.27 538.16,250.97 539.28,250.68 540.40,250.38 541.52,250.08 542.64,249.78 543.76,249.48 544.88,249.18 546.00,248.87 547.12,248.57 548.24,248.27 549.36,247.96 550.48,247.65 551.60,247.34 552.72,247.04 553.84,246.73 554.96,246.41 556.08,246.10 557.20,245.79 558.32,245.47 559.44,245.16 560.56,244.84 561.68,244.52 562.80,244.20 563.92,243.88 565.04,243.56 566.16,243.24 567.28,242.92 568.40,242.59 569.52,242.27 570.64,241.94 571.76,241.61 572.88,241.28 574.00,240.95 575.12,240.62 576.24,240.29 577.36,239.96 578.48,239.62 579.60,239.28 580.72,238.95 581.84,238.61 582.96,238.27 584.08,237.93 585.20,237.59 586.32,237.24 587.44,236.90 588.56,236.55 589.68,236.21 590.80,235.86 591.92,235.51 593.04,235.16 594.16,234.81 595.28,234.46 596.40,234.10 597.52,233.75 598.64,233.39 599.76,233.03 600.88,232.67 602.00,232.31 603.12,231.95 604.24,231.59 605.36,231.23 606.48,230.86 607.60,230.49 608.72,230.13 609.84,229.76 610.96,229.39 612.08,229.02 613.20,228.64 614.32,228.27 615.44,227.89 616.56,227.52 617.68,227.14 618.80,226.76 619.92,226.38 621.04,226.00 622.16,225.61 623.28,225.23 624.40,224.84 625.52,224.46 626.64,224.07 627.76,223.68 628.88,223.29 630.00,222.89 631.12,222.50 632.24,222.10 633.36,221.71 634.48,221.31 635.60,220.91 636.72,220.51 637.84,220.11 638.96,219.70 640.08,219.30 641.20,218.89 642.32,218.48 643.44,218.07 644.56,217.66 645.68,217.25 646.80,216.84 647.92,216.42 649.04,216.00 650.16,215.59 651.28,215.17 652.40,214.75 653.52,214.32 654.64,213.90 655.76,213.48 656.88,213.05 658.00,212.62 659.12,212.19 660.24,211.76 661.36,211.33 662.48,210.89 663.60,210.46 664.72,210.02 665.84,209.58 666.96,209.14 668.08,208.70 669.20,208.25 670.32,207.81 671.44,207.36 672.56,206.92 673.68,206.47 674.80,206.02 675.92,205.56 677.04,205.11 678.16,204.65 679.28,204.19 680.40,203.74 681.52,203.28 682.64,202.81 683.76,202.35 684.88,201.88 686.00,201.42 687.12,200.95 688.24,200.48 689.36,200.01 690.48,199.53 691.60,199.06 692.72,198.58 693.84,198.10 694.96,197.62 696.08,197.14 697.20,196.66 698.32,196.17 699.44,195.68 700.56,195.20 701.68,194.71 702.80,194.21 703.92,193.72 705.04,193.23 706.16,192.73 707.28,192.23 708.40,191.73 709.52,191.23 710.64,190.72 711.76,190.22 712.88,189.71 714.00,189.20 715.12,188.69 716.24,188.18 717.36,187.66 718.48,187.15 719.60,186.63 720.72,186.11 721.84,185.59 722.96,185.06 724.08,184.54 725.20,184.01 726.32,183.48 727.44,182.95 728.56,182.42 729.68,181.88 730.80,181.35 731.92,180.81 733.04,180.27 734.16,179.72 735.28,179.18 736.40,178.63 737.52,178.09 738.64,177.54 739.76,176.99 740.88,176.43 742.00,175.88 743.12,175.32 744.24,174.76 745.36,174.20 746.48,173.64 747.60,173.07 748.72,172.50 749.84,171.94 750.96,171.36 752.08,170.79 753.20,170.22 754.32,169.64 755.44,169.06 756.56,168.48 757.68,167.90 758.80,167.31 759.92,166.72 761.04,166.14 762.16,165.54 763.28,164.95 764.40,164.36 765.52,163.76 766.64,163.16 767.76,162.56 768.88,161.95 770.00,161.35 771.12,160.74 772.24,160.13 773.36,159.52 774.48,158.91 775.60,158.29 776.72,157.67 777.84,157.05 778.96,156.43 780.08,155.80 781.20,155.18 782.32,154.55 783.44,153.92 784.56,153.28 785.68,152.65 786.80,152.01 787.92,151.37 789.04,150.73 790.16,150.08 791.28,149.43 792.40,148.78 793.52,148.13 794.64,147.48 795.76,146.82 796.88,146.17 798.00,145.51 799.12,144.84 800.24,144.18 801.36,143.51 802.48,142.84 803.60,142.17 804.72,141.49 805.84,140.82 806.96,140.14 808.08,139.46 809.20,138.77 810.32,138.09 811.44,137.40 812.56,136.71 813.68,136.01 814.80,135.32 815.92,134.62 817.04,133.92 818.16,133.22 819.28,132.51 820.40,131.80 821.52,131.09 822.64,130.38 823.76,129.67 824.88,128.95 826.00,128.23 827.12,127.51 828.24,126.78 829.36,126.05 830.48,125.32 831.60,124.59 832.72,123.85 833.84,123.12 834.96,122.38 836.08,121.63 837.20,120.89 838.32,120.14 839.44,119.39 840.56,118.63 841.68,117.88 842.80,117.12 843.92,116.36 845.04,115.59 846.16,114.83 847.28,114.06 848.40,113.29 849.52,112.51 850.64,111.73 851.76,110.95 852.88,110.17 854.00,109.39 855.12,108.60 856.24,107.81 857.36,107.01 858.48,106.22 859.60,105.42 860.72,104.62 861.84,103.81 862.96,103.00 864.08,102.19 865.20,101.38 866.32,100.57 867.44,99.75 868.56,98.92 869.68,98.10 870.80,97.27 871.92,96.44 873.04,95.61 874.16,94.77 875.28,93.93 876.40,93.09 877.52,92.25 878.64,91.40 879.76,90.55 880.88,89.70 882.00,88.84 883.12,87.98 884.24,87.12 885.36,86.25 886.48,85.38 887.60,84.51 888.72,83.64 889.84,82.76 890.96,81.88 892.08,81.00 893.20,80.11 894.32,79.22 895.44,78.33 896.56,77.43 897.68,76.53 898.80,75.63 899.92,74.72 901.04,73.82 902.16,72.90 903.28,71.99 904.40,71.07 905.52,70.15 906.64,69.23 907.76,68.30 908.88,67.37 910.00,66.43 911.12,65.50 912.24,64.56 913.36,63.61 914.48,62.67 915.60,61.72 916.72,60.76 917.84,59.80 918.96,58.84 920.08,57.88 921.20,56.91 922.32,55.94 923.44,54.97 924.56,53.99 925.68,53.01 926.80,52.03 927.92,51.04 929.04,50.05 930.16,49.06 931.28,48.06 932.40,47.06 933.52,46.05 934.64,45.05 935.76,44.03 936.88,43.02 938.00,42.00" />
  <line x1="56.0" y1="56.0" x2="78.0" y2="56.0" stroke="#005f73" stroke-width="2" /><text x="84.0" y="60.0" font-family="Arial, Helvetica, sans-serif" font-size="11" fill="#243b53">ratio</text>
  <text x="490.0" y="24" text-anchor="middle" font-family="Arial, Helvetica, sans-serif" font-size="16" fill="#102a43">Pitch ratio vs semitone shift</text>
  <text x="490.0" y="352" text-anchor="middle" font-family="Arial, Helvetica, sans-serif" font-size="12" fill="#334e68">semitones</text>
  <text x="14" y="180.0" transform="rotate(-90 14,180.0)" text-anchor="middle" font-family="Arial, Helvetica, sans-serif" font-size="12" fill="#334e68">ratio</text>
  <text x="42" y="336" font-family="Arial, Helvetica, sans-serif" font-size="11" fill="#486581">-24.00</text>
  <text x="938" y="336" text-anchor="end" font-family="Arial, Helvetica, sans-serif" font-size="11" fill="#486581">24.00</text>
  <text x="36" y="46" text-anchor="end" font-family="Arial, Helvetica, sans-serif" font-size="11" fill="#486581">4.00</text>
  <text x="36" y="322" text-anchor="end" font-family="Arial, Helvetica, sans-serif" font-size="11" fill="#486581">0.25</text>
</svg>
