<svg xmlns="http://www.w3.org/2000/svg" width="980" height="360" viewBox="0 0 980 360">
  <rect x="0" y="0" width="980" height="360" fill="#ffffff" />
  <rect x="42" y="42" width="896" height="276" fill="#f7fbff" stroke="#c8d9e6" />
  <polyline fill="none" stroke="#0a9396" stroke-width="2" points="42.00,318.00 43.12,317.84 44.24,317.68 45.36,317.52 46.48,317.36 47.60,317.20 48.72,317.04 49.84,316.88 50.96,316.72 52.08,316.55 53.20,316.39 54.32,316.23 55.44,316.07 56.56,315.90 57.68,315.74 58.80,315.58 59.92,315.41 61.04,315.25 62.16,315.09 63.28,314.92 64.40,314.76 65.52,314.59 66.64,314.42 67.76,314.26 68.88,314.09 70.00,313.93 71.12,313.76 72.24,313.59 73.36,313.43 74.48,313.26 75.60,313.09 76.72,312.92 77.84,312.75 78.96,312.59 80.08,312.42 81.20,312.25 82.32,312.08 83.44,311.91 84.56,311.74 85.68,311.57 86.80,311.40 87.92,311.23 89.04,311.05 90.16,310.88 91.28,310.71 92.40,310.54 93.52,310.37 94.64,310.19 95.76,310.02 96.88,309.85 98.00,309.67 99.12,309.50 100.24,309.32 101.36,309.15 102.48,308.98 103.60,308.80 104.72,308.62 105.84,308.45 106.96,308.27 108.08,308.10 109.20,307.92 110.32,307.74 111.44,307.57 112.56,307.39 113.68,307.21 114.80,307.03 115.92,306.85 117.04,306.67 118.16,306.49 119.28,306.32 120.40,306.14 121.52,305.96 122.64,305.77 123.76,305.59 124.88,305.41 126.00,305.23 127.12,305.05 128.24,304.87 129.36,304.69 130.48,304.50 131.60,304.32 132.72,304.14 133.84,303.95 134.96,303.77 136.08,303.58 137.20,303.40 138.32,303.22 139.44,303.03 140.56,302.84 141.68,302.66 142.80,302.47 143.92,302.29 145.04,302.10 146.16,301.91 147.28,301.72 148.40,301.54 149.52,301.35 150.64,301.16 151.76,300.97 152.88,300.78 154.00,300.59 155.12,300.40 156.24,300.21 157.36,300.02 158.48,299.83 159.60,299.64 160.72,299.45 161.84,299.26 162.96,299.07 164.08,298.87 165.20,298.68 166.32,298.49 167.44,298.29 168.56,298.10 169.68,297.91 170.80,297.71 171.92,297.52 173.04,297.32 174.16,297.13 175.28,296.93 176.40,296.73 177.52,296.54 178.64,296.34 179.76,296.14 180.88,295.95 182.00,295.75 183.12,295.55 184.24,295.35 185.36,295.15 186.48,294.95 187.60,294.75 188.72,294.55 189.84,294.35 190.96,294.15 192.08,293.95 193.20,293.75 194.32,293.55 195.44,293.35 196.56,293.15 197.68,292.94 198.80,292.74 199.92,292.54 201.04,292.33 202.16,292.13 203.28,291.92 204.40,291.72 205.52,291.51 206.64,291.31 207.76,291.10 208.88,290.90 210.00,290.69 211.12,290.48 212.24,290.28 213.36,290.07 214.48,289.86 215.60,289.65 216.72,289.44 217.84,289.23 218.96,289.03 220.08,288.82 221.20,288.61 222.32,288.39 223.44,288.18 224.56,287.97 225.68,287.76 226.80,287.55 227.92,287.34 229.04,287.12 230.16,286.91 231.28,286.70 232.40,286.48 233.52,286.27 234.64,286.05 235.76,285.84 236.88,285.62 238.00,285.41 239.12,285.19 240.24,284.98 241.36,284.76 242.48,284.54 243.60,284.32 244.72,284.11 245.84,283.89 246.96,283.67 248.08,283.45 249.20,283.23 250.32,283.01 251.44,282.79 252.56,282.57 253.68,282.35 254.80,282.13 255.92,281.91 257.04,281.68 258.16,281.46 259.28,281.24 260.40,281.01 261.52,280.79 262.64,280.57 263.76,280.34 264.88,280.12 266.00,279.89 267.12,279.67 268.24,279.44 269.36,279.21 270.48,278.99 271.60,278.76 272.72,278.53 273.84,278.30 274.96,278.08 276.08,277.85 277.20,277.62 278.32,277.39 279.44,277.16 280.56,276.93 281.68,276.70 282.80,276.47 283.92,276.23 285.04,276.00 286.16,275.77 287.28,275.54 288.40,275.30 289.52,275.07 290.64,274.84 291.76,274.60 292.88,274.37 294.00,274.13 295.12,273.90 296.24,273.66 297.36,273.42 298.48,273.19 299.60,272.95 300.72,272.71 301.84,272.47 302.96,272.24 304.08,272.00 305.20,271.76 306.32,271.52 307.44,271.28 308.56,271.04 309.68,270.80 310.80,270.55 311.92,270.31 313.04,270.07 314.16,269.83 315.28,269.58 316.40,269.34 317.52,269.10 318.64,268.85 319.76,268.61 320.88,268.36 322.00,268.12 323.12,267.87 324.24,267.62 325.36,267.38 326.48,267.13 327.60,266.88 328.72,266.63 329.84,266.39 330.96,266.14 332.08,265.89 333.20,265.64 334.32,265.39 335.44,265.14 336.56,264.88 337.68,264.63 338.80,264.38 339.92,264.13 341.04,263.87 342.16,263.62 343.28,263.37 344.40,263.11 345.52,262.86 346.64,262.60 347.76,262.35 348.88,262.09 350.00,261.83 351.12,261.58 352.24,261.32 353.36,261.06 354.48,260.80 355.60,260.55 356.72,260.29 357.84,260.03 358.96,259.77 360.08,259.51 361.20,259.25 362.32,258.98 363.44,258.72 364.56,258.46 365.68,258.20 366.80,257.93 367.92,257.67 369.04,257.41 370.16,257.14 371.28,256.88 372.40,256.61 373.52,256.34 374.64,256.08 375.76,255.81 376.88,255.54 378.00,255.28 379.12,255.01 380.24,254.74 381.36,254.47 382.48,254.20 383.60,253.93 384.72,253.66 385.84,253.39 386.96,253.12 388.08,252.84 389.20,252.57 390.32,252.30 391.44,252.02 392.56,251.75 393.68,251.48 394.80,251.20 395.92,250.93 397.04,250.65 398.16,250.37 399.28,250.10 400.40,249.82 401.52,249.54 402.64,249.26 403.76,248.98 404.88,248.70 406.00,248.42 407.12,248.14 408.24,247.86 409.36,247.58 410.48,247.30 411.60,247.02 412.72,246.74 413.84,246.45 414.96,246.17 416.08,245.89 417.20,245.60 418.32,245.32 419.44,245.03 420.56,244.74 421.68,244.46 422.80,244.17 423.92,243.88 425.04,243.59 426.16,243.31 427.28,243.02 428.40,242.73 429.52,242.44 430.64,242.15 431.76,241.86 432.88,241.56 434.00,241.27 435.12,240.98 436.24,240.69 437.36,240.39 438.48,240.10 439.60,239.80 440.72,239.51 441.84,239.21 442.96,238.92 444.08,238.62 445.20,238.32 446.32,238.02 447.44,237.73 448.56,237.43 449.68,237.13 450.80,236.83 451.92,236.53 453.04,236.23 454.16,235.93 455.28,235.62 456.40,235.32 457.52,235.02 458.64,234.71 459.76,234.41 460.88,234.11 462.00,233.80 463.12,233.50 464.24,233.19 465.36,232.88 466.48,232.58 467.60,232.27 468.72,231.96 469.84,231.65 470.96,231.34 472.08,231.03 473.20,230.72 474.32,230.41 475.44,230.10 476.56,229.79 477.68,229.47 478.80,229.16 479.92,228.85 481.04,228.53 482.16,228.22 483.28,227.90 484.40,227.59 485.52,227.27 486.64,226.95 487.76,226.64 488.88,226.32 490.00,226.00 491.12,225.68 492.24,225.36 493.36,225.04 494.48,224.72 495.60,224.40 496.72,224.08 497.84,223.75 498.96,223.43 500.08,223.11 501.20,222.78 502.32,222.46 503.44,222.13 504.56,221.81 505.68,221.48 506.80,221.15 507.92,220.83 509.04,220.50 510.16,220.17 511.28,219.84 512.40,219.51 513.52,219.18 514.64,218.85 515.76,218.52 516.88,218.19 518.00,217.85 519.12,217.52 520.24,217.19 521.36,216.85 522.48,216.52 523.60,216.18 524.72,215.85 525.84,215.51 526.96,215.17 528.08,214.83 529.20,214.49 530.32,214.16 531.44,213.82 532.56,213.48 533.68,213.14 534.80,212.79 535.92,212.45 537.04,212.11 538.16,211.77 539.28,211.42 540.40,211.08 541.52,210.73 542.64,210.39 543.76,210.04 544.88,209.69 546.00,209.35 547.12,209.00 548.24,208.65 549.36,208.30 550.48,207.95 551.60,207.60 552.72,207.25 553.84,206.90 554.96,206.55 556.08,206.19 557.20,205.84 558.32,205.49 559.44,205.13 560.56,204.78 561.68,204.42 562.80,204.06 563.92,203.71 565.04,203.35 566.16,202.99 567.28,202.63 568.40,202.27 569.52,201.91 570.64,201.55 571.76,201.19 572.88,200.83 574.00,200.46 575.12,200.10 576.24,199.74 577.36,199.37 578.48,199.01 579.60,198.64 580.72,198.27 581.84,197.91 582.96,197.54 584.08,197.17 585.20,196.80 586.32,196.43 587.44,196.06 588.56,195.69 589.68,195.32 590.80,194.94 591.92,194.57 593.04,194.20 594.16,193.82 595.28,193.45 596.40,193.07 597.52,192.70 598.64,192.32 599.76,191.94 600.88,191.56 602.00,191.19 603.12,190.81 604.24,190.43 605.36,190.05 606.48,189.66 607.60,189.28 608.72,188.90 609.84,188.52 610.96,188.13 612.08,187.75 613.20,187.36 614.32,186.97 615.44,186.59 616.56,186.20 617.68,185.81 618.80,185.42 619.92,185.03 621.04,184.64 622.16,184.25 623.28,183.86 624.40,183.47 625.52,183.08 626.64,182.68 627.76,182.29 628.88,181.89 630.00,181.50 631.12,181.10 632.24,180.70 633.36,180.31 634.48,179.91 635.60,179.51 636.72,179.11 637.84,178.71 638.96,178.31 640.08,177.91 641.20,177.50 642.32,177.10 643.44,176.70 644.56,176.29 645.68,175.89 646.80,175.48 647.92,175.07 649.04,174.67 650.16,174.26 651.28,173.85 652.40,173.44 653.52,173.03 654.64,172.62 655.76,172.21 656.88,171.79 658.00,171.38 659.12,170.97 660.24,170.55 661.36,170.14 662.48,169.72 663.60,169.31 664.72,168.89 665.84,168.47 666.96,168.05 668.08,167.63 669.20,167.21 670.32,166.79 671.44,166.37 672.56,165.95 673.68,165.52 674.80,165.10 675.92,164.67 677.04,164.25 678.16,163.82 679.28,163.39 680.40,162.97 681.52,162.54 682.64,162.11 683.76,161.68 684.88,161.25 686.00,160.82 687.12,160.38 688.24,159.95 689.36,159.52 690.48,159.08 691.60,158.65 692.72,158.21 693.84,157.78 694.96,157.34 696.08,156.90 697.20,156.46 698.32,156.02 699.44,155.58 700.56,155.14 701.68,154.70 702.80,154.26 703.92,153.81 705.04,153.37 706.16,152.92 707.28,152.48 708.40,152.03 709.52,151.58 710.64,151.13 711.76,150.68 712.88,150.24 714.00,149.78 715.12,149.33 716.24,148.88 717.36,148.43 718.48,147.97 719.60,147.52 720.72,147.07 721.84,146.61 722.96,146.15 724.08,145.69 725.20,145.24 726.32,144.78 727.44,144.32 728.56,143.86 729.68,143.39 730.80,142.93 731.92,142.47 733.04,142.01 734.16,141.54 735.28,141.07 736.40,140.61 737.52,140.14 738.64,139.67 739.76,139.20 740.88,138.73 742.00,138.26 743.12,137.79 744.24,137.32 745.36,136.85 746.48,136.37 747.60,135.90 748.72,135.42 749.84,134.95 750.96,134.47 752.08,133.99 753.20,133.51 754.32,133.03 755.44,132.55 756.56,132.07 757.68,131.59 758.80,131.11 759.92,130.62 761.04,130.14 762.16,129.65 763.28,129.17 764.40,128.68 765.52,128.19 766.64,127.70 767.76,127.21 768.88,126.72 770.00,126.23 771.12,125.74 772.24,125.25 773.36,124.75 774.48,124.26 775.60,123.76 776.72,123.27 777.84,122.77 778.96,122.27 780.08,121.77 781.20,121.27 782.32,120.77 783.44,120.27 784.56,119.77 785.68,119.26 786.80,118.76 787.92,118.26 789.04,117.75 790.16,117.24 791.28,116.73 792.40,116.23 793.52,115.72 794.64,115.21 795.76,114.70 796.88,114.18 798.00,113.67 799.12,113.16 800.24,112.64 801.36,112.13 802.48,111.61 803.60,111.09 804.72,110.57 805.84,110.05 806.96,109.53 808.08,109.01 809.20,108.49 810.32,107.97 811.44,107.44 812.56,106.92 813.68,106.39 814.80,105.87 815.92,105.34 817.04,104.81 818.16,104.28 819.28,103.75 820.40,103.22 821.52,102.69 822.64,102.15 823.76,101.62 824.88,101.09 826.00,100.55 827.12,100.01 828.24,99.48 829.36,98.94 830.48,98.40 831.60,97.86 832.72,97.32 833.84,96.77 834.96,96.23 836.08,95.69 837.20,95.14 838.32,94.59 839.44,94.05 840.56,93.50 841.68,92.95 842.80,92.40 843.92,91.85 845.04,91.30 846.16,90.75 847.28,90.19 848.40,89.64 849.52,89.08 850.64,88.53 851.76,87.97 852.88,87.41 854.00,86.85 855.12,86.29 856.24,85.73 857.36,85.17 858.48,84.60 859.60,84.04 860.72,83.47 861.84,82.91 862.96,82.34 864.08,81.77 865.20,81.20 866.32,80.63 867.44,80.06 868.56,79.49 869.68,78.91 870.80,78.34 871.92,77.76 873.04,77.19 874.16,76.61 875.28,76.03 876.40,75.45 877.52,74.87 878.64,74.29 879.76,73.71 880.88,73.13 882.00,72.54 883.12,71.96 884.24,71.37 885.36,70.78 886.48,70.20 887.60,69.61 888.72,69.02 889.84,68.42 890.96,67.83 892.08,67.24 893.20,66.64 894.32,66.05 895.44,65.45 896.56,64.85 897.68,64.26 898.80,63.66 899.92,63.06 901.04,62.45 902.16,61.85 903.28,61.25 904.40,60.64 905.52,60.04 906.64,59.43 907.76,58.82 908.88,58.21 910.00,57.60 911.12,56.99 912.24,56.38 913.36,55.77 914.48,55.15 915.60,54.54 916.72,53.92 917.84,53.30 918.96,52.68 920.08,52.06 921.20,51.44 922.32,50.82 923.44,50.20 924.56,49.57 925.68,48.95 926.80,48.32 927.92,47.69 929.04,47.07 930.16,46.44 931.28,45.81 932.40,45.17 933.52,44.54 934.64,43.91 935.76,43.27 936.88,42.64 938.00,42.00" />
  <line x1="56.0" y1="56.0" x2="78.0" y2="56.0" stroke="#0a9396" stroke-width="2" /><text x="84.0" y="60.0" font-family="Arial, Helvetica, sans-serif" font-size="11" fill="#243b53">ratio</text>
  <text x="490.0" y="24" text-anchor="middle" font-family="Arial, Helvetica, sans-serif" font-size="16" fill="#102a43">Pitch ratio vs cent shift</text>
  <text x="490.0" y="352" text-anchor="middle" font-family="Arial, Helvetica, sans-serif" font-size="12" fill="#334e68">cents</text>
  <text x="14" y="180.0" transform="rotate(-90 14,180.0)" text-anchor="middle" font-family="Arial, Helvetica, sans-serif" font-size="12" fill="#334e68">ratio</text>
  <text x="42" y="336" font-family="Arial, Helvetica, sans-serif" font-size="11" fill="#486581">-1200.00</text>
  <text x="938" y="336" text-anchor="end" font-family="Arial, Helvetica, sans-serif" font-size="11" fill="#486581">1200.00</text>
  <text x="36" y="46" text-anchor="end" font-family="Arial, Helvetica, sans-serif" font-size="11" fill="#486581">2.00</text>
  <text x="36" y="322" text-anchor="end" font-family="Arial, Helvetica, sans-serif" font-size="11" fill="#486581">0.50</text>
</svg>
