<svg xmlns="http://www.w3.org/2000/svg" width="980" height="360" viewBox="0 0 980 360">
  <rect x="0" y="0" width="980" height="360" fill="#ffffff" />
  <rect x="42" y="42" width="896" height="276" fill="#f7fbff" stroke="#c8d9e6" />
  <polyline fill="none" stroke="#94a3b8" stroke-width="2" points="42.00,318.00 42.75,317.77 43.49,317.54 44.24,317.31 44.99,317.08 45.73,316.85 46.48,316.62 47.23,316.39 47.97,316.16 48.72,315.93 49.47,315.70 50.21,315.47 50.96,315.24 51.71,315.01 52.45,314.78 53.20,314.55 53.95,314.32 54.69,314.09 55.44,313.86 56.19,313.63 56.93,313.40 57.68,313.17 58.43,312.94 59.17,312.71 59.92,312.48 60.67,312.25 61.41,312.02 62.16,311.79 62.91,311.56 63.65,311.33 64.40,311.10 65.15,310.87 65.89,310.64 66.64,310.41 67.39,310.18 68.13,309.95 68.88,309.72 69.63,309.49 70.37,309.26 71.12,309.03 71.87,308.80 72.61,308.57 73.36,308.34 74.11,308.11 74.85,307.88 75.60,307.65 76.35,307.42 77.09,307.19 77.84,306.96 78.59,306.73 79.33,306.50 80.08,306.27 80.83,306.04 81.57,305.81 82.32,305.58 83.07,305.35 83.81,305.12 84.56,304.89 85.31,304.66 86.05,304.43 86.80,304.20 87.55,303.97 88.29,303.74 89.04,303.51 89.79,303.28 90.53,303.05 91.28,302.82 92.03,302.59 92.77,302.36 93.52,302.13 94.27,301.90 95.01,301.67 95.76,301.44 96.51,301.21 97.25,300.98 98.00,300.75 98.75,300.52 99.49,300.29 100.24,300.06 100.99,299.83 101.73,299.60 102.48,299.37 103.23,299.14 103.97,298.91 104.72,298.68 105.47,298.45 106.21,298.22 106.96,297.99 107.71,297.76 108.45,297.53 109.20,297.30 109.95,297.07 110.69,296.84 111.44,296.61 112.19,296.38 112.93,296.15 113.68,295.92 114.43,295.69 115.17,295.46 115.92,295.23 116.67,295.00 117.41,294.77 118.16,294.54 118.91,294.31 119.65,294.08 120.40,293.85 121.15,293.62 121.89,293.39 122.64,293.16 123.39,292.93 124.13,292.70 124.88,292.47 125.63,292.24 126.37,292.01 127.12,291.78 127.87,291.55 128.61,291.32 129.36,291.09 130.11,290.86 130.85,290.63 131.60,290.40 132.35,290.17 133.09,289.94 133.84,289.71 134.59,289.48 135.33,289.25 136.08,289.02 136.83,288.79 137.57,288.56 138.32,288.33 139.07,288.10 139.81,287.87 140.56,287.64 141.31,287.41 142.05,287.18 142.80,286.95 143.55,286.72 144.29,286.49 145.04,286.26 145.79,286.03 146.53,285.80 147.28,285.57 148.03,285.34 148.77,285.11 149.52,284.88 150.27,284.65 151.01,284.42 151.76,284.19 152.51,283.96 153.25,283.73 154.00,283.50 154.75,283.27 155.49,283.04 156.24,282.81 156.99,282.58 157.73,282.35 158.48,282.12 159.23,281.89 159.97,281.66 160.72,281.43 161.47,281.20 162.21,280.97 162.96,280.74 163.71,280.51 164.45,280.28 165.20,280.05 165.95,279.82 166.69,279.59 167.44,279.36 168.19,279.13 168.93,278.90 169.68,278.67 170.43,278.44 171.17,278.21 171.92,277.98 172.67,277.75 173.41,277.52 174.16,277.29 174.91,277.06 175.65,276.83 176.40,276.60 177.15,276.37 177.89,276.14 178.64,275.91 179.39,275.68 180.13,275.45 180.88,275.22 181.63,274.99 182.37,274.76 183.12,274.53 183.87,274.30 184.61,274.07 185.36,273.84 186.11,273.61 186.85,273.38 187.60,273.15 188.35,272.92 189.09,272.69 189.84,272.46 190.59,272.23 191.33,272.00 192.08,271.77 192.83,271.54 193.57,271.31 194.32,271.08 195.07,270.85 195.81,270.62 196.56,270.39 197.31,270.16 198.05,269.93 198.80,269.70 199.55,269.47 200.29,269.24 201.04,269.01 201.79,268.78 202.53,268.55 203.28,268.32 204.03,268.09 204.77,267.86 205.52,267.63 206.27,267.40 207.01,267.17 207.76,266.94 208.51,266.71 209.25,266.48 210.00,266.25 210.75,266.02 211.49,265.79 212.24,265.56 212.99,265.33 213.73,265.10 214.48,264.87 215.23,264.64 215.97,264.41 216.72,264.18 217.47,263.95 218.21,263.72 218.96,263.49 219.71,263.26 220.45,263.03 221.20,262.80 221.95,262.57 222.69,262.34 223.44,262.11 224.19,261.88 224.93,261.65 225.68,261.42 226.43,261.19 227.17,260.96 227.92,260.73 228.67,260.50 229.41,260.27 230.16,260.04 230.91,259.81 231.65,259.58 232.40,259.35 233.15,259.12 233.89,258.89 234.64,258.66 235.39,258.43 236.13,258.20 236.88,257.97 237.63,257.74 238.37,257.51 239.12,257.28 239.87,257.05 240.61,256.82 241.36,256.59 242.11,256.36 242.85,256.13 243.60,255.90 244.35,255.67 245.09,255.44 245.84,255.21 246.59,254.98 247.33,254.75 248.08,254.52 248.83,254.29 249.57,254.06 250.32,253.83 251.07,253.60 251.81,253.37 252.56,253.14 253.31,252.91 254.05,252.68 254.80,252.45 255.55,252.22 256.29,251.99 257.04,251.76 257.79,251.53 258.53,251.30 259.28,251.07 260.03,250.84 260.77,250.61 261.52,250.38 262.27,250.15 263.01,249.92 263.76,249.69 264.51,249.46 265.25,249.23 266.00,249.00 266.75,248.77 267.49,248.54 268.24,248.31 268.99,248.08 269.73,247.85 270.48,247.62 271.23,247.39 271.97,247.16 272.72,246.93 273.47,246.70 274.21,246.47 274.96,246.24 275.71,246.01 276.45,245.78 277.20,245.55 277.95,245.32 278.69,245.09 279.44,244.86 280.19,244.63 280.93,244.40 281.68,244.17 282.43,243.94 283.17,243.71 283.92,243.48 284.67,243.25 285.41,243.02 286.16,242.79 286.91,242.56 287.65,242.33 288.40,242.10 289.15,241.87 289.89,241.64 290.64,241.41 291.39,241.18 292.13,240.95 292.88,240.72 293.63,240.49 294.37,240.26 295.12,240.03 295.87,239.80 296.61,239.57 297.36,239.34 298.11,239.11 298.85,238.88 299.60,238.65 300.35,238.42 301.09,238.19 301.84,237.96 302.59,237.73 303.33,237.50 304.08,237.27 304.83,237.04 305.57,236.81 306.32,236.58 307.07,236.35 307.81,236.12 308.56,235.89 309.31,235.66 310.05,235.43 310.80,235.20 311.55,234.97 312.29,234.74 313.04,234.51 313.79,234.28 314.53,234.05 315.28,233.82 316.03,233.59 316.77,233.36 317.52,233.13 318.27,232.90 319.01,232.67 319.76,232.44 320.51,232.21 321.25,231.98 322.00,231.75 322.75,231.52 323.49,231.29 324.24,231.06 324.99,230.83 325.73,230.60 326.48,230.37 327.23,230.14 327.97,229.91 328.72,229.68 329.47,229.45 330.21,229.22 330.96,228.99 331.71,228.76 332.45,228.53 333.20,228.30 333.95,228.07 334.69,227.84 335.44,227.61 336.19,227.38 336.93,227.15 337.68,226.92 338.43,226.69 339.17,226.46 339.92,226.23 340.67,226.00 341.41,225.77 342.16,225.54 342.91,225.31 343.65,225.08 344.40,224.85 345.15,224.62 345.89,224.39 346.64,224.16 347.39,223.93 348.13,223.70 348.88,223.47 349.63,223.24 350.37,223.01 351.12,222.78 351.87,222.55 352.61,222.32 353.36,222.09 354.11,221.86 354.85,221.63 355.60,221.40 356.35,221.17 357.09,220.94 357.84,220.71 358.59,220.48 359.33,220.25 360.08,220.02 360.83,219.79 361.57,219.56 362.32,219.33 363.07,219.10 363.81,218.87 364.56,218.64 365.31,218.41 366.05,218.18 366.80,217.95 367.55,217.72 368.29,217.49 369.04,217.26 369.79,217.03 370.53,216.80 371.28,216.57 372.03,216.34 372.77,216.11 373.52,215.88 374.27,215.65 375.01,215.42 375.76,215.19 376.51,214.96 377.25,214.73 378.00,214.50 378.75,214.27 379.49,214.04 380.24,213.81 380.99,213.58 381.73,213.35 382.48,213.12 383.23,212.89 383.97,212.66 384.72,212.43 385.47,212.20 386.21,211.97 386.96,211.74 387.71,211.51 388.45,211.28 389.20,211.05 389.95,210.82 390.69,210.59 391.44,210.36 392.19,210.13 392.93,209.90 393.68,209.67 394.43,209.44 395.17,209.21 395.92,208.98 396.67,208.75 397.41,208.52 398.16,208.29 398.91,208.06 399.65,207.83 400.40,207.60 401.15,207.37 401.89,207.14 402.64,206.91 403.39,206.68 404.13,206.45 404.88,206.22 405.63,205.99 406.37,205.76 407.12,205.53 407.87,205.30 408.61,205.07 409.36,204.84 410.11,204.61 410.85,204.38 411.60,204.15 412.35,203.92 413.09,203.69 413.84,203.46 414.59,203.23 415.33,203.00 416.08,202.77 416.83,202.54 417.57,202.31 418.32,202.08 419.07,201.85 419.81,201.62 420.56,201.39 421.31,201.16 422.05,200.93 422.80,200.70 423.55,200.47 424.29,200.24 425.04,200.01 425.79,199.78 426.53,199.55 427.28,199.32 428.03,199.09 428.77,198.86 429.52,198.63 430.27,198.40 431.01,198.17 431.76,197.94 432.51,197.71 433.25,197.48 434.00,197.25 434.75,197.02 435.49,196.79 436.24,196.56 436.99,196.33 437.73,196.10 438.48,195.87 439.23,195.64 439.97,195.41 440.72,195.18 441.47,194.95 442.21,194.72 442.96,194.49 443.71,194.26 444.45,194.03 445.20,193.80 445.95,193.57 446.69,193.34 447.44,193.11 448.19,192.88 448.93,192.65 449.68,192.42 450.43,192.19 451.17,191.96 451.92,191.73 452.67,191.50 453.41,191.27 454.16,191.04 454.91,190.81 455.65,190.58 456.40,190.35 457.15,190.12 457.89,189.89 458.64,189.66 459.39,189.43 460.13,189.20 460.88,188.97 461.63,188.74 462.37,188.51 463.12,188.28 463.87,188.05 464.61,187.82 465.36,187.59 466.11,187.36 466.85,187.13 467.60,186.90 468.35,186.67 469.09,186.44 469.84,186.21 470.59,185.98 471.33,185.75 472.08,185.52 472.83,185.29 473.57,185.06 474.32,184.83 475.07,184.60 475.81,184.37 476.56,184.14 477.31,183.91 478.05,183.68 478.80,183.45 479.55,183.22 480.29,182.99 481.04,182.76 481.79,182.53 482.53,182.30 483.28,182.07 484.03,181.84 484.77,181.61 485.52,181.38 486.27,181.15 487.01,180.92 487.76,180.69 488.51,180.46 489.25,180.23 490.00,180.00 490.75,179.77 491.49,179.54 492.24,179.31 492.99,179.08 493.73,178.85 494.48,178.62 495.23,178.39 495.97,178.16 496.72,177.93 497.47,177.70 498.21,177.47 498.96,177.24 499.71,177.01 500.45,176.78 501.20,176.55 501.95,176.32 502.69,176.09 503.44,175.86 504.19,175.63 504.93,175.40 505.68,175.17 506.43,174.94 507.17,174.71 507.92,174.48 508.67,174.25 509.41,174.02 510.16,173.79 510.91,173.56 511.65,173.33 512.40,173.10 513.15,172.87 513.89,172.64 514.64,172.41 515.39,172.18 516.13,171.95 516.88,171.72 517.63,171.49 518.37,171.26 519.12,171.03 519.87,170.80 520.61,170.57 521.36,170.34 522.11,170.11 522.85,169.88 523.60,169.65 524.35,169.42 525.09,169.19 525.84,168.96 526.59,168.73 527.33,168.50 528.08,168.27 528.83,168.04 529.57,167.81 530.32,167.58 531.07,167.35 531.81,167.12 532.56,166.89 533.31,166.66 534.05,166.43 534.80,166.20 535.55,165.97 536.29,165.74 537.04,165.51 537.79,165.28 538.53,165.05 539.28,164.82 540.03,164.59 540.77,164.36 541.52,164.13 542.27,163.90 543.01,163.67 543.76,163.44 544.51,163.21 545.25,162.98 546.00,162.75 546.75,162.52 547.49,162.29 548.24,162.06 548.99,161.83 549.73,161.60 550.48,161.37 551.23,161.14 551.97,160.91 552.72,160.68 553.47,160.45 554.21,160.22 554.96,159.99 555.71,159.76 556.45,159.53 557.20,159.30 557.95,159.07 558.69,158.84 559.44,158.61 560.19,158.38 560.93,158.15 561.68,157.92 562.43,157.69 563.17,157.46 563.92,157.23 564.67,157.00 565.41,156.77 566.16,156.54 566.91,156.31 567.65,156.08 568.40,155.85 569.15,155.62 569.89,155.39 570.64,155.16 571.39,154.93 572.13,154.70 572.88,154.47 573.63,154.24 574.37,154.01 575.12,153.78 575.87,153.55 576.61,153.32 577.36,153.09 578.11,152.86 578.85,152.63 579.60,152.40 580.35,152.17 581.09,151.94 581.84,151.71 582.59,151.48 583.33,151.25 584.08,151.02 584.83,150.79 585.57,150.56 586.32,150.33 587.07,150.10 587.81,149.87 588.56,149.64 589.31,149.41 590.05,149.18 590.80,148.95 591.55,148.72 592.29,148.49 593.04,148.26 593.79,148.03 594.53,147.80 595.28,147.57 596.03,147.34 596.77,147.11 597.52,146.88 598.27,146.65 599.01,146.42 599.76,146.19 600.51,145.96 601.25,145.73 602.00,145.50 602.75,145.27 603.49,145.04 604.24,144.81 604.99,144.58 605.73,144.35 606.48,144.12 607.23,143.89 607.97,143.66 608.72,143.43 609.47,143.20 610.21,142.97 610.96,142.74 611.71,142.51 612.45,142.28 613.20,142.05 613.95,141.82 614.69,141.59 615.44,141.36 616.19,141.13 616.93,140.90 617.68,140.67 618.43,140.44 619.17,140.21 619.92,139.98 620.67,139.75 621.41,139.52 622.16,139.29 622.91,139.06 623.65,138.83 624.40,138.60 625.15,138.37 625.89,138.14 626.64,137.91 627.39,137.68 628.13,137.45 628.88,137.22 629.63,136.99 630.37,136.76 631.12,136.53 631.87,136.30 632.61,136.07 633.36,135.84 634.11,135.61 634.85,135.38 635.60,135.15 636.35,134.92 637.09,134.69 637.84,134.46 638.59,134.23 639.33,134.00 640.08,133.77 640.83,133.54 641.57,133.31 642.32,133.08 643.07,132.85 643.81,132.62 644.56,132.39 645.31,132.16 646.05,131.93 646.80,131.70 647.55,131.47 648.29,131.24 649.04,131.01 649.79,130.78 650.53,130.55 651.28,130.32 652.03,130.09 652.77,129.86 653.52,129.63 654.27,129.40 655.01,129.17 655.76,128.94 656.51,128.71 657.25,128.48 658.00,128.25 658.75,128.02 659.49,127.79 660.24,127.56 660.99,127.33 661.73,127.10 662.48,126.87 663.23,126.64 663.97,126.41 664.72,126.18 665.47,125.95 666.21,125.72 666.96,125.49 667.71,125.26 668.45,125.03 669.20,124.80 669.95,124.57 670.69,124.34 671.44,124.11 672.19,123.88 672.93,123.65 673.68,123.42 674.43,123.19 675.17,122.96 675.92,122.73 676.67,122.50 677.41,122.27 678.16,122.04 678.91,121.81 679.65,121.58 680.40,121.35 681.15,121.12 681.89,120.89 682.64,120.66 683.39,120.43 684.13,120.20 684.88,119.97 685.63,119.74 686.37,119.51 687.12,119.28 687.87,119.05 688.61,118.82 689.36,118.59 690.11,118.36 690.85,118.13 691.60,117.90 692.35,117.67 693.09,117.44 693.84,117.21 694.59,116.98 695.33,116.75 696.08,116.52 696.83,116.29 697.57,116.06 698.32,115.83 699.07,115.60 699.81,115.37 700.56,115.14 701.31,114.91 702.05,114.68 702.80,114.45 703.55,114.22 704.29,113.99 705.04,113.76 705.79,113.53 706.53,113.30 707.28,113.07 708.03,112.84 708.77,112.61 709.52,112.38 710.27,112.15 711.01,111.92 711.76,111.69 712.51,111.46 713.25,111.23 714.00,111.00 714.75,110.77 715.49,110.54 716.24,110.31 716.99,110.08 717.73,109.85 718.48,109.62 719.23,109.39 719.97,109.16 720.72,108.93 721.47,108.70 722.21,108.47 722.96,108.24 723.71,108.01 724.45,107.78 725.20,107.55 725.95,107.32 726.69,107.09 727.44,106.86 728.19,106.63 728.93,106.40 729.68,106.17 730.43,105.94 731.17,105.71 731.92,105.48 732.67,105.25 733.41,105.02 734.16,104.79 734.91,104.56 735.65,104.33 736.40,104.10 737.15,103.87 737.89,103.64 738.64,103.41 739.39,103.18 740.13,102.95 740.88,102.72 741.63,102.49 742.37,102.26 743.12,102.03 743.87,101.80 744.61,101.57 745.36,101.34 746.11,101.11 746.85,100.88 747.60,100.65 748.35,100.42 749.09,100.19 749.84,99.96 750.59,99.73 751.33,99.50 752.08,99.27 752.83,99.04 753.57,98.81 754.32,98.58 755.07,98.35 755.81,98.12 756.56,97.89 757.31,97.66 758.05,97.43 758.80,97.20 759.55,96.97 760.29,96.74 761.04,96.51 761.79,96.28 762.53,96.05 763.28,95.82 764.03,95.59 764.77,95.36 765.52,95.13 766.27,94.90 767.01,94.67 767.76,94.44 768.51,94.21 769.25,93.98 770.00,93.75 770.75,93.52 771.49,93.29 772.24,93.06 772.99,92.83 773.73,92.60 774.48,92.37 775.23,92.14 775.97,91.91 776.72,91.68 777.47,91.45 778.21,91.22 778.96,90.99 779.71,90.76 780.45,90.53 781.20,90.30 781.95,90.07 782.69,89.84 783.44,89.61 784.19,89.38 784.93,89.15 785.68,88.92 786.43,88.69 787.17,88.46 787.92,88.23 788.67,88.00 789.41,87.77 790.16,87.54 790.91,87.31 791.65,87.08 792.40,86.85 793.15,86.62 793.89,86.39 794.64,86.16 795.39,85.93 796.13,85.70 796.88,85.47 797.63,85.24 798.37,85.01 799.12,84.78 799.87,84.55 800.61,84.32 801.36,84.09 802.11,83.86 802.85,83.63 803.60,83.40 804.35,83.17 805.09,82.94 805.84,82.71 806.59,82.48 807.33,82.25 808.08,82.02 808.83,81.79 809.57,81.56 810.32,81.33 811.07,81.10 811.81,80.87 812.56,80.64 813.31,80.41 814.05,80.18 814.80,79.95 815.55,79.72 816.29,79.49 817.04,79.26 817.79,79.03 818.53,78.80 819.28,78.57 820.03,78.34 820.77,78.11 821.52,77.88 822.27,77.65 823.01,77.42 823.76,77.19 824.51,76.96 825.25,76.73 826.00,76.50 826.75,76.27 827.49,76.04 828.24,75.81 828.99,75.58 829.73,75.35 830.48,75.12 831.23,74.89 831.97,74.66 832.72,74.43 833.47,74.20 834.21,73.97 834.96,73.74 835.71,73.51 836.45,73.28 837.20,73.05 837.95,72.82 838.69,72.59 839.44,72.36 840.19,72.13 840.93,71.90 841.68,71.67 842.43,71.44 843.17,71.21 843.92,70.98 844.67,70.75 845.41,70.52 846.16,70.29 846.91,70.06 847.65,69.83 848.40,69.60 849.15,69.37 849.89,69.14 850.64,68.91 851.39,68.68 852.13,68.45 852.88,68.22 853.63,67.99 854.37,67.76 855.12,67.53 855.87,67.30 856.61,67.07 857.36,66.84 858.11,66.61 858.85,66.38 859.60,66.15 860.35,65.92 861.09,65.69 861.84,65.46 862.59,65.23 863.33,65.00 864.08,64.77 864.83,64.54 865.57,64.31 866.32,64.08 867.07,63.85 867.81,63.62 868.56,63.39 869.31,63.16 870.05,62.93 870.80,62.70 871.55,62.47 872.29,62.24 873.04,62.01 873.79,61.78 874.53,61.55 875.28,61.32 876.03,61.09 876.77,60.86 877.52,60.63 878.27,60.40 879.01,60.17 879.76,59.94 880.51,59.71 881.25,59.48 882.00,59.25 882.75,59.02 883.49,58.79 884.24,58.56 884.99,58.33 885.73,58.10 886.48,57.87 887.23,57.64 887.97,57.41 888.72,57.18 889.47,56.95 890.21,56.72 890.96,56.49 891.71,56.26 892.45,56.03 893.20,55.80 893.95,55.57 894.69,55.34 895.44,55.11 896.19,54.88 896.93,54.65 897.68,54.42 898.43,54.19 899.17,53.96 899.92,53.73 900.67,53.50 901.41,53.27 902.16,53.04 902.91,52.81 903.65,52.58 904.40,52.35 905.15,52.12 905.89,51.89 906.64,51.66 907.39,51.43 908.13,51.20 908.88,50.97 909.63,50.74 910.37,50.51 911.12,50.28 911.87,50.05 912.61,49.82 913.36,49.59 914.11,49.36 914.85,49.13 915.60,48.90 916.35,48.67 917.09,48.44 917.84,48.21 918.59,47.98 919.33,47.75 920.08,47.52 920.83,47.29 921.57,47.06 922.32,46.83 923.07,46.60 923.81,46.37 924.56,46.14 925.31,45.91 926.05,45.68 926.80,45.45 927.55,45.22 928.29,44.99 929.04,44.76 929.79,44.53 930.53,44.30 931.28,44.07 932.03,43.84 932.77,43.61 933.52,43.38 934.27,43.15 935.01,42.92 935.76,42.69 936.51,42.46 937.25,42.23 938.00,42.00" /> <polyline fill="none" stroke="#005f73" stroke-width="2" points="42.00,295.98 42.75,295.98 43.49,295.97 44.24,295.97 44.99,295.96 45.73,295.95 46.48,295.95 47.23,295.94 47.97,295.94 48.72,295.93 49.47,295.92 50.21,295.92 50.96,295.91 51.71,295.90 52.45,295.90 53.20,295.89 53.95,295.88 54.69,295.88 55.44,295.87 56.19,295.86 56.93,295.86 57.68,295.85 58.43,295.84 59.17,295.84 59.92,295.83 60.67,295.82 61.41,295.81 62.16,295.81 62.91,295.80 63.65,295.79 64.40,295.78 65.15,295.78 65.89,295.77 66.64,295.76 67.39,295.75 68.13,295.74 68.88,295.73 69.63,295.73 70.37,295.72 71.12,295.71 71.87,295.70 72.61,295.69 73.36,295.68 74.11,295.68 74.85,295.67 75.60,295.66 76.35,295.65 77.09,295.64 77.84,295.63 78.59,295.62 79.33,295.61 80.08,295.60 80.83,295.59 81.57,295.58 82.32,295.57 83.07,295.56 83.81,295.55 84.56,295.54 85.31,295.53 86.05,295.52 86.80,295.51 87.55,295.50 88.29,295.49 89.04,295.48 89.79,295.47 90.53,295.46 91.28,295.45 92.03,295.44 92.77,295.43 93.52,295.41 94.27,295.40 95.01,295.39 95.76,295.38 96.51,295.37 97.25,295.36 98.00,295.34 98.75,295.33 99.49,295.32 100.24,295.31 100.99,295.29 101.73,295.28 102.48,295.27 103.23,295.26 103.97,295.24 104.72,295.23 105.47,295.22 106.21,295.20 106.96,295.19 107.71,295.18 108.45,295.16 109.20,295.15 109.95,295.13 110.69,295.12 111.44,295.10 112.19,295.09 112.93,295.08 113.68,295.06 114.43,295.05 115.17,295.03 115.92,295.02 116.67,295.00 117.41,294.98 118.16,294.97 118.91,294.95 119.65,294.94 120.40,294.92 121.15,294.90 121.89,294.89 122.64,294.87 123.39,294.85 124.13,294.84 124.88,294.82 125.63,294.80 126.37,294.79 127.12,294.77 127.87,294.75 128.61,294.73 129.36,294.71 130.11,294.69 130.85,294.68 131.60,294.66 132.35,294.64 133.09,294.62 133.84,294.60 134.59,294.58 135.33,294.56 136.08,294.54 136.83,294.52 137.57,294.50 138.32,294.48 139.07,294.46 139.81,294.44 140.56,294.42 141.31,294.40 142.05,294.37 142.80,294.35 143.55,294.33 144.29,294.31 145.04,294.29 145.79,294.26 146.53,294.24 147.28,294.22 148.03,294.19 148.77,294.17 149.52,294.15 150.27,294.12 151.01,294.10 151.76,294.07 152.51,294.05 153.25,294.02 154.00,294.00 154.75,293.97 155.49,293.95 156.24,293.92 156.99,293.90 157.73,293.87 158.48,293.84 159.23,293.82 159.97,293.79 160.72,293.76 161.47,293.73 162.21,293.70 162.96,293.68 163.71,293.65 164.45,293.62 165.20,293.59 165.95,293.56 166.69,293.53 167.44,293.50 168.19,293.47 168.93,293.44 169.68,293.41 170.43,293.38 171.17,293.35 171.92,293.31 172.67,293.28 173.41,293.25 174.16,293.22 174.91,293.18 175.65,293.15 176.40,293.12 177.15,293.08 177.89,293.05 178.64,293.01 179.39,292.98 180.13,292.94 180.88,292.91 181.63,292.87 182.37,292.83 183.12,292.80 183.87,292.76 184.61,292.72 185.36,292.68 186.11,292.65 186.85,292.61 187.60,292.57 188.35,292.53 189.09,292.49 189.84,292.45 190.59,292.41 191.33,292.37 192.08,292.33 192.83,292.28 193.57,292.24 194.32,292.20 195.07,292.16 195.81,292.11 196.56,292.07 197.31,292.02 198.05,291.98 198.80,291.94 199.55,291.89 200.29,291.84 201.04,291.80 201.79,291.75 202.53,291.70 203.28,291.66 204.03,291.61 204.77,291.56 205.52,291.51 206.27,291.46 207.01,291.41 207.76,291.36 208.51,291.31 209.25,291.26 210.00,291.20 210.75,291.15 211.49,291.10 212.24,291.04 212.99,290.99 213.73,290.94 214.48,290.88 215.23,290.82 215.97,290.77 216.72,290.71 217.47,290.65 218.21,290.60 218.96,290.54 219.71,290.48 220.45,290.42 221.20,290.36 221.95,290.30 222.69,290.24 223.44,290.18 224.19,290.11 224.93,290.05 225.68,289.99 226.43,289.92 227.17,289.86 227.92,289.79 228.67,289.73 229.41,289.66 230.16,289.59 230.91,289.53 231.65,289.46 232.40,289.39 233.15,289.32 233.89,289.25 234.64,289.18 235.39,289.10 236.13,289.03 236.88,288.96 237.63,288.88 238.37,288.81 239.12,288.73 239.87,288.66 240.61,288.58 241.36,288.50 242.11,288.43 242.85,288.35 243.60,288.27 244.35,288.19 245.09,288.11 245.84,288.02 246.59,287.94 247.33,287.86 248.08,287.77 248.83,287.69 249.57,287.60 250.32,287.52 251.07,287.43 251.81,287.34 252.56,287.25 253.31,287.16 254.05,287.07 254.80,286.98 255.55,286.89 256.29,286.80 257.04,286.70 257.79,286.61 258.53,286.51 259.28,286.41 260.03,286.32 260.77,286.22 261.52,286.12 262.27,286.02 263.01,285.92 263.76,285.82 264.51,285.71 265.25,285.61 266.00,285.50 266.75,285.40 267.49,285.29 268.24,285.18 268.99,285.08 269.73,284.97 270.48,284.85 271.23,284.74 271.97,284.63 272.72,284.52 273.47,284.40 274.21,284.29 274.96,284.17 275.71,284.05 276.45,283.93 277.20,283.81 277.95,283.69 278.69,283.57 279.44,283.45 280.19,283.32 280.93,283.20 281.68,283.07 282.43,282.94 283.17,282.81 283.92,282.68 284.67,282.55 285.41,282.42 286.16,282.29 286.91,282.15 287.65,282.02 288.40,281.88 289.15,281.74 289.89,281.60 290.64,281.46 291.39,281.32 292.13,281.18 292.88,281.03 293.63,280.89 294.37,280.74 295.12,280.59 295.87,280.44 296.61,280.29 297.36,280.14 298.11,279.99 298.85,279.83 299.60,279.68 300.35,279.52 301.09,279.36 301.84,279.20 302.59,279.04 303.33,278.88 304.08,278.71 304.83,278.55 305.57,278.38 306.32,278.21 307.07,278.04 307.81,277.87 308.56,277.70 309.31,277.52 310.05,277.35 310.80,277.17 311.55,276.99 312.29,276.81 313.04,276.63 313.79,276.45 314.53,276.26 315.28,276.08 316.03,275.89 316.77,275.70 317.52,275.51 318.27,275.32 319.01,275.12 319.76,274.93 320.51,274.73 321.25,274.53 322.00,274.33 322.75,274.13 323.49,273.93 324.24,273.72 324.99,273.51 325.73,273.31 326.48,273.10 327.23,272.88 327.97,272.67 328.72,272.46 329.47,272.24 330.21,272.02 330.96,271.80 331.71,271.58 332.45,271.35 333.20,271.13 333.95,270.90 334.69,270.67 335.44,270.44 336.19,270.21 336.93,269.97 337.68,269.74 338.43,269.50 339.17,269.26 339.92,269.02 340.67,268.77 341.41,268.53 342.16,268.28 342.91,268.03 343.65,267.78 344.40,267.52 345.15,267.27 345.89,267.01 346.64,266.75 347.39,266.49 348.13,266.23 348.88,265.96 349.63,265.70 350.37,265.43 351.12,265.16 351.87,264.89 352.61,264.61 353.36,264.33 354.11,264.06 354.85,263.77 355.60,263.49 356.35,263.21 357.09,262.92 357.84,262.63 358.59,262.34 359.33,262.05 360.08,261.75 360.83,261.46 361.57,261.16 362.32,260.85 363.07,260.55 363.81,260.25 364.56,259.94 365.31,259.63 366.05,259.32 366.80,259.00 367.55,258.69 368.29,258.37 369.04,258.05 369.79,257.73 370.53,257.40 371.28,257.07 372.03,256.74 372.77,256.41 373.52,256.08 374.27,255.74 375.01,255.41 375.76,255.07 376.51,254.72 377.25,254.38 378.00,254.03 378.75,253.68 379.49,253.33 380.24,252.98 380.99,252.62 381.73,252.27 382.48,251.91 383.23,251.54 383.97,251.18 384.72,250.81 385.47,250.45 386.21,250.07 386.96,249.70 387.71,249.33 388.45,248.95 389.20,248.57 389.95,248.19 390.69,247.80 391.44,247.41 392.19,247.03 392.93,246.63 393.68,246.24 394.43,245.84 395.17,245.45 395.92,245.05 396.67,244.64 397.41,244.24 398.16,243.83 398.91,243.42 399.65,243.01 400.40,242.60 401.15,242.18 401.89,241.76 402.64,241.34 403.39,240.92 404.13,240.50 404.88,240.07 405.63,239.64 406.37,239.21 407.12,238.78 407.87,238.34 408.61,237.90 409.36,237.46 410.11,237.02 410.85,236.58 411.60,236.13 412.35,235.68 413.09,235.23 413.84,234.78 414.59,234.32 415.33,233.86 416.08,233.41 416.83,232.94 417.57,232.48 418.32,232.01 419.07,231.55 419.81,231.08 420.56,230.60 421.31,230.13 422.05,229.65 422.80,229.18 423.55,228.70 424.29,228.21 425.04,227.73 425.79,227.24 426.53,226.76 427.28,226.27 428.03,225.77 428.77,225.28 429.52,224.78 430.27,224.29 431.01,223.79 431.76,223.29 432.51,222.78 433.25,222.28 434.00,221.77 434.75,221.26 435.49,220.75 436.24,220.24 436.99,219.72 437.73,219.21 438.48,218.69 439.23,218.17 439.97,217.65 440.72,217.13 441.47,216.60 442.21,216.08 442.96,215.55 443.71,215.02 444.45,214.49 445.20,213.96 445.95,213.42 446.69,212.89 447.44,212.35 448.19,211.81 448.93,211.27 449.68,210.73 450.43,210.19 451.17,209.64 451.92,209.09 452.67,208.55 453.41,208.00 454.16,207.45 454.91,206.90 455.65,206.35 456.40,205.79 457.15,205.24 457.89,204.68 458.64,204.12 459.39,203.57 460.13,203.01 460.88,202.45 461.63,201.88 462.37,201.32 463.12,200.76 463.87,200.19 464.61,199.63 465.36,199.06 466.11,198.49 466.85,197.92 467.60,197.35 468.35,196.78 469.09,196.21 469.84,195.64 470.59,195.07 471.33,194.49 472.08,193.92 472.83,193.35 473.57,192.77 474.32,192.19 475.07,191.62 475.81,191.04 476.56,190.46 477.31,189.88 478.05,189.30 478.80,188.73 479.55,188.15 480.29,187.57 481.04,186.99 481.79,186.40 482.53,185.82 483.28,185.24 484.03,184.66 484.77,184.08 485.52,183.50 486.27,182.91 487.01,182.33 487.76,181.75 488.51,181.17 489.25,180.58 490.00,180.00 490.75,179.42 491.49,178.83 492.24,178.25 492.99,177.67 493.73,177.09 494.48,176.50 495.23,175.92 495.97,175.34 496.72,174.76 497.47,174.18 498.21,173.60 498.96,173.01 499.71,172.43 500.45,171.85 501.20,171.27 501.95,170.70 502.69,170.12 503.44,169.54 504.19,168.96 504.93,168.38 505.68,167.81 506.43,167.23 507.17,166.65 507.92,166.08 508.67,165.51 509.41,164.93 510.16,164.36 510.91,163.79 511.65,163.22 512.40,162.65 513.15,162.08 513.89,161.51 514.64,160.94 515.39,160.37 516.13,159.81 516.88,159.24 517.63,158.68 518.37,158.12 519.12,157.55 519.87,156.99 520.61,156.43 521.36,155.88 522.11,155.32 522.85,154.76 523.60,154.21 524.35,153.65 525.09,153.10 525.84,152.55 526.59,152.00 527.33,151.45 528.08,150.91 528.83,150.36 529.57,149.81 530.32,149.27 531.07,148.73 531.81,148.19 532.56,147.65 533.31,147.11 534.05,146.58 534.80,146.04 535.55,145.51 536.29,144.98 537.04,144.45 537.79,143.92 538.53,143.40 539.28,142.87 540.03,142.35 540.77,141.83 541.52,141.31 542.27,140.79 543.01,140.28 543.76,139.76 544.51,139.25 545.25,138.74 546.00,138.23 546.75,137.72 547.49,137.22 548.24,136.71 548.99,136.21 549.73,135.71 550.48,135.22 551.23,134.72 551.97,134.23 552.72,133.73 553.47,133.24 554.21,132.76 554.96,132.27 555.71,131.79 556.45,131.30 557.20,130.82 557.95,130.35 558.69,129.87 559.44,129.40 560.19,128.92 560.93,128.45 561.68,127.99 562.43,127.52 563.17,127.06 563.92,126.59 564.67,126.14 565.41,125.68 566.16,125.22 566.91,124.77 567.65,124.32 568.40,123.87 569.15,123.42 569.89,122.98 570.64,122.54 571.39,122.10 572.13,121.66 572.88,121.22 573.63,120.79 574.37,120.36 575.12,119.93 575.87,119.50 576.61,119.08 577.36,118.66 578.11,118.24 578.85,117.82 579.60,117.40 580.35,116.99 581.09,116.58 581.84,116.17 582.59,115.76 583.33,115.36 584.08,114.95 584.83,114.55 585.57,114.16 586.32,113.76 587.07,113.37 587.81,112.97 588.56,112.59 589.31,112.20 590.05,111.81 590.80,111.43 591.55,111.05 592.29,110.67 593.04,110.30 593.79,109.93 594.53,109.55 595.28,109.19 596.03,108.82 596.77,108.46 597.52,108.09 598.27,107.73 599.01,107.38 599.76,107.02 600.51,106.67 601.25,106.32 602.00,105.97 602.75,105.62 603.49,105.28 604.24,104.93 604.99,104.59 605.73,104.26 606.48,103.92 607.23,103.59 607.97,103.26 608.72,102.93 609.47,102.60 610.21,102.27 610.96,101.95 611.71,101.63 612.45,101.31 613.20,101.00 613.95,100.68 614.69,100.37 615.44,100.06 616.19,99.75 616.93,99.45 617.68,99.15 618.43,98.84 619.17,98.54 619.92,98.25 620.67,97.95 621.41,97.66 622.16,97.37 622.91,97.08 623.65,96.79 624.40,96.51 625.15,96.23 625.89,95.94 626.64,95.67 627.39,95.39 628.13,95.11 628.88,94.84 629.63,94.57 630.37,94.30 631.12,94.04 631.87,93.77 632.61,93.51 633.36,93.25 634.11,92.99 634.85,92.73 635.60,92.48 636.35,92.22 637.09,91.97 637.84,91.72 638.59,91.47 639.33,91.23 640.08,90.98 640.83,90.74 641.57,90.50 642.32,90.26 643.07,90.03 643.81,89.79 644.56,89.56 645.31,89.33 646.05,89.10 646.80,88.87 647.55,88.65 648.29,88.42 649.04,88.20 649.79,87.98 650.53,87.76 651.28,87.54 652.03,87.33 652.77,87.12 653.52,86.90 654.27,86.69 655.01,86.49 655.76,86.28 656.51,86.07 657.25,85.87 658.00,85.67 658.75,85.47 659.49,85.27 660.24,85.07 660.99,84.88 661.73,84.68 662.48,84.49 663.23,84.30 663.97,84.11 664.72,83.92 665.47,83.74 666.21,83.55 666.96,83.37 667.71,83.19 668.45,83.01 669.20,82.83 669.95,82.65 670.69,82.48 671.44,82.30 672.19,82.13 672.93,81.96 673.68,81.79 674.43,81.62 675.17,81.45 675.92,81.29 676.67,81.12 677.41,80.96 678.16,80.80 678.91,80.64 679.65,80.48 680.40,80.32 681.15,80.17 681.89,80.01 682.64,79.86 683.39,79.71 684.13,79.56 684.88,79.41 685.63,79.26 686.37,79.11 687.12,78.97 687.87,78.82 688.61,78.68 689.36,78.54 690.11,78.40 690.85,78.26 691.60,78.12 692.35,77.98 693.09,77.85 693.84,77.71 694.59,77.58 695.33,77.45 696.08,77.32 696.83,77.19 697.57,77.06 698.32,76.93 699.07,76.80 699.81,76.68 700.56,76.55 701.31,76.43 702.05,76.31 702.80,76.19 703.55,76.07 704.29,75.95 705.04,75.83 705.79,75.71 706.53,75.60 707.28,75.48 708.03,75.37 708.77,75.26 709.52,75.15 710.27,75.03 711.01,74.92 711.76,74.82 712.51,74.71 713.25,74.60 714.00,74.50 714.75,74.39 715.49,74.29 716.24,74.18 716.99,74.08 717.73,73.98 718.48,73.88 719.23,73.78 719.97,73.68 720.72,73.59 721.47,73.49 722.21,73.39 722.96,73.30 723.71,73.20 724.45,73.11 725.20,73.02 725.95,72.93 726.69,72.84 727.44,72.75 728.19,72.66 728.93,72.57 729.68,72.48 730.43,72.40 731.17,72.31 731.92,72.23 732.67,72.14 733.41,72.06 734.16,71.98 734.91,71.89 735.65,71.81 736.40,71.73 737.15,71.65 737.89,71.57 738.64,71.50 739.39,71.42 740.13,71.34 740.88,71.27 741.63,71.19 742.37,71.12 743.12,71.04 743.87,70.97 744.61,70.90 745.36,70.82 746.11,70.75 746.85,70.68 747.60,70.61 748.35,70.54 749.09,70.47 749.84,70.41 750.59,70.34 751.33,70.27 752.08,70.21 752.83,70.14 753.57,70.08 754.32,70.01 755.07,69.95 755.81,69.89 756.56,69.82 757.31,69.76 758.05,69.70 758.80,69.64 759.55,69.58 760.29,69.52 761.04,69.46 761.79,69.40 762.53,69.35 763.28,69.29 764.03,69.23 764.77,69.18 765.52,69.12 766.27,69.06 767.01,69.01 767.76,68.96 768.51,68.90 769.25,68.85 770.00,68.80 770.75,68.74 771.49,68.69 772.24,68.64 772.99,68.59 773.73,68.54 774.48,68.49 775.23,68.44 775.97,68.39 776.72,68.34 777.47,68.30 778.21,68.25 778.96,68.20 779.71,68.16 780.45,68.11 781.20,68.06 781.95,68.02 782.69,67.98 783.44,67.93 784.19,67.89 784.93,67.84 785.68,67.80 786.43,67.76 787.17,67.72 787.92,67.67 788.67,67.63 789.41,67.59 790.16,67.55 790.91,67.51 791.65,67.47 792.40,67.43 793.15,67.39 793.89,67.35 794.64,67.32 795.39,67.28 796.13,67.24 796.88,67.20 797.63,67.17 798.37,67.13 799.12,67.09 799.87,67.06 800.61,67.02 801.36,66.99 802.11,66.95 802.85,66.92 803.60,66.88 804.35,66.85 805.09,66.82 805.84,66.78 806.59,66.75 807.33,66.72 808.08,66.69 808.83,66.65 809.57,66.62 810.32,66.59 811.07,66.56 811.81,66.53 812.56,66.50 813.31,66.47 814.05,66.44 814.80,66.41 815.55,66.38 816.29,66.35 817.04,66.32 817.79,66.30 818.53,66.27 819.28,66.24 820.03,66.21 820.77,66.18 821.52,66.16 822.27,66.13 823.01,66.10 823.76,66.08 824.51,66.05 825.25,66.03 826.00,66.00 826.75,65.98 827.49,65.95 828.24,65.93 828.99,65.90 829.73,65.88 830.48,65.85 831.23,65.83 831.97,65.81 832.72,65.78 833.47,65.76 834.21,65.74 834.96,65.71 835.71,65.69 836.45,65.67 837.20,65.65 837.95,65.63 838.69,65.60 839.44,65.58 840.19,65.56 840.93,65.54 841.68,65.52 842.43,65.50 843.17,65.48 843.92,65.46 844.67,65.44 845.41,65.42 846.16,65.40 846.91,65.38 847.65,65.36 848.40,65.34 849.15,65.32 849.89,65.31 850.64,65.29 851.39,65.27 852.13,65.25 852.88,65.23 853.63,65.21 854.37,65.20 855.12,65.18 855.87,65.16 856.61,65.15 857.36,65.13 858.11,65.11 858.85,65.10 859.60,65.08 860.35,65.06 861.09,65.05 861.84,65.03 862.59,65.02 863.33,65.00 864.08,64.98 864.83,64.97 865.57,64.95 866.32,64.94 867.07,64.92 867.81,64.91 868.56,64.90 869.31,64.88 870.05,64.87 870.80,64.85 871.55,64.84 872.29,64.82 873.04,64.81 873.79,64.80 874.53,64.78 875.28,64.77 876.03,64.76 876.77,64.74 877.52,64.73 878.27,64.72 879.01,64.71 879.76,64.69 880.51,64.68 881.25,64.67 882.00,64.66 882.75,64.64 883.49,64.63 884.24,64.62 884.99,64.61 885.73,64.60 886.48,64.59 887.23,64.57 887.97,64.56 888.72,64.55 889.47,64.54 890.21,64.53 890.96,64.52 891.71,64.51 892.45,64.50 893.20,64.49 893.95,64.48 894.69,64.47 895.44,64.46 896.19,64.45 896.93,64.44 897.68,64.43 898.43,64.42 899.17,64.41 899.92,64.40 900.67,64.39 901.41,64.38 902.16,64.37 902.91,64.36 903.65,64.35 904.40,64.34 905.15,64.33 905.89,64.32 906.64,64.32 907.39,64.31 908.13,64.30 908.88,64.29 909.63,64.28 910.37,64.27 911.12,64.27 911.87,64.26 912.61,64.25 913.36,64.24 914.11,64.23 914.85,64.22 915.60,64.22 916.35,64.21 917.09,64.20 917.84,64.19 918.59,64.19 919.33,64.18 920.08,64.17 920.83,64.16 921.57,64.16 922.32,64.15 923.07,64.14 923.81,64.14 924.56,64.13 925.31,64.12 926.05,64.12 926.80,64.11 927.55,64.10 928.29,64.10 929.04,64.09 929.79,64.08 930.53,64.08 931.28,64.07 932.03,64.06 932.77,64.06 933.52,64.05 934.27,64.05 935.01,64.04 935.76,64.03 936.51,64.03 937.25,64.02 938.00,64.02" /> <polyline fill="none" stroke="#9b2226" stroke-width="2" points="42.00,300.68 42.75,300.63 43.49,300.58 44.24,300.53 44.99,300.48 45.73,300.43 46.48,300.38 47.23,300.33 47.97,300.29 48.72,300.24 49.47,300.19 50.21,300.14 50.96,300.09 51.71,300.04 52.45,299.99 53.20,299.94 53.95,299.88 54.69,299.83 55.44,299.78 56.19,299.73 56.93,299.68 57.68,299.63 58.43,299.58 59.17,299.53 59.92,299.47 60.67,299.42 61.41,299.37 62.16,299.32 62.91,299.26 63.65,299.21 64.40,299.16 65.15,299.11 65.89,299.05 66.64,299.00 67.39,298.95 68.13,298.89 68.88,298.84 69.63,298.78 70.37,298.73 71.12,298.68 71.87,298.62 72.61,298.57 73.36,298.51 74.11,298.46 74.85,298.40 75.60,298.35 76.35,298.29 77.09,298.23 77.84,298.18 78.59,298.12 79.33,298.07 80.08,298.01 80.83,297.95 81.57,297.90 82.32,297.84 83.07,297.78 83.81,297.72 84.56,297.67 85.31,297.61 86.05,297.55 86.80,297.49 87.55,297.43 88.29,297.38 89.04,297.32 89.79,297.26 90.53,297.20 91.28,297.14 92.03,297.08 92.77,297.02 93.52,296.96 94.27,296.90 95.01,296.84 95.76,296.78 96.51,296.72 97.25,296.66 98.00,296.60 98.75,296.54 99.49,296.47 100.24,296.41 100.99,296.35 101.73,296.29 102.48,296.23 103.23,296.16 103.97,296.10 104.72,296.04 105.47,295.97 106.21,295.91 106.96,295.85 107.71,295.78 108.45,295.72 109.20,295.66 109.95,295.59 110.69,295.53 111.44,295.46 112.19,295.40 112.93,295.33 113.68,295.26 114.43,295.20 115.17,295.13 115.92,295.07 116.67,295.00 117.41,294.93 118.16,294.87 118.91,294.80 119.65,294.73 120.40,294.66 121.15,294.60 121.89,294.53 122.64,294.46 123.39,294.39 124.13,294.32 124.88,294.25 125.63,294.18 126.37,294.11 127.12,294.04 127.87,293.97 128.61,293.90 129.36,293.83 130.11,293.76 130.85,293.69 131.60,293.62 132.35,293.55 133.09,293.48 133.84,293.40 134.59,293.33 135.33,293.26 136.08,293.19 136.83,293.11 137.57,293.04 138.32,292.97 139.07,292.89 139.81,292.82 140.56,292.74 141.31,292.67 142.05,292.59 142.80,292.52 143.55,292.44 144.29,292.37 145.04,292.29 145.79,292.21 146.53,292.14 147.28,292.06 148.03,291.98 148.77,291.91 149.52,291.83 150.27,291.75 151.01,291.67 151.76,291.59 152.51,291.51 153.25,291.44 154.00,291.36 154.75,291.28 155.49,291.20 156.24,291.12 156.99,291.03 157.73,290.95 158.48,290.87 159.23,290.79 159.97,290.71 160.72,290.63 161.47,290.54 162.21,290.46 162.96,290.38 163.71,290.29 164.45,290.21 165.20,290.13 165.95,290.04 166.69,289.96 167.44,289.87 168.19,289.79 168.93,289.70 169.68,289.61 170.43,289.53 171.17,289.44 171.92,289.35 172.67,289.27 173.41,289.18 174.16,289.09 174.91,289.00 175.65,288.91 176.40,288.83 177.15,288.74 177.89,288.65 178.64,288.56 179.39,288.47 180.13,288.37 180.88,288.28 181.63,288.19 182.37,288.10 183.12,288.01 183.87,287.91 184.61,287.82 185.36,287.73 186.11,287.63 186.85,287.54 187.60,287.45 188.35,287.35 189.09,287.26 189.84,287.16 190.59,287.06 191.33,286.97 192.08,286.87 192.83,286.77 193.57,286.68 194.32,286.58 195.07,286.48 195.81,286.38 196.56,286.28 197.31,286.18 198.05,286.08 198.80,285.98 199.55,285.88 200.29,285.78 201.04,285.68 201.79,285.58 202.53,285.47 203.28,285.37 204.03,285.27 204.77,285.16 205.52,285.06 206.27,284.95 207.01,284.85 207.76,284.74 208.51,284.64 209.25,284.53 210.00,284.43 210.75,284.32 211.49,284.21 212.24,284.10 212.99,283.99 213.73,283.88 214.48,283.78 215.23,283.67 215.97,283.56 216.72,283.44 217.47,283.33 218.21,283.22 218.96,283.11 219.71,283.00 220.45,282.88 221.20,282.77 221.95,282.66 222.69,282.54 223.44,282.43 224.19,282.31 224.93,282.19 225.68,282.08 226.43,281.96 227.17,281.84 227.92,281.72 228.67,281.61 229.41,281.49 230.16,281.37 230.91,281.25 231.65,281.13 232.40,281.00 233.15,280.88 233.89,280.76 234.64,280.64 235.39,280.51 236.13,280.39 236.88,280.27 237.63,280.14 238.37,280.02 239.12,279.89 239.87,279.76 240.61,279.64 241.36,279.51 242.11,279.38 242.85,279.25 243.60,279.12 244.35,278.99 245.09,278.86 245.84,278.73 246.59,278.60 247.33,278.46 248.08,278.33 248.83,278.20 249.57,278.06 250.32,277.93 251.07,277.79 251.81,277.66 252.56,277.52 253.31,277.38 254.05,277.25 254.80,277.11 255.55,276.97 256.29,276.83 257.04,276.69 257.79,276.55 258.53,276.41 259.28,276.26 260.03,276.12 260.77,275.98 261.52,275.83 262.27,275.69 263.01,275.54 263.76,275.40 264.51,275.25 265.25,275.10 266.00,274.95 266.75,274.80 267.49,274.65 268.24,274.50 268.99,274.35 269.73,274.20 270.48,274.05 271.23,273.90 271.97,273.74 272.72,273.59 273.47,273.43 274.21,273.28 274.96,273.12 275.71,272.96 276.45,272.80 277.20,272.64 277.95,272.48 278.69,272.32 279.44,272.16 280.19,272.00 280.93,271.84 281.68,271.67 282.43,271.51 283.17,271.34 283.92,271.18 284.67,271.01 285.41,270.84 286.16,270.68 286.91,270.51 287.65,270.34 288.40,270.17 289.15,269.99 289.89,269.82 290.64,269.65 291.39,269.47 292.13,269.30 292.88,269.12 293.63,268.95 294.37,268.77 295.12,268.59 295.87,268.41 296.61,268.23 297.36,268.05 298.11,267.87 298.85,267.69 299.60,267.50 300.35,267.32 301.09,267.13 301.84,266.95 302.59,266.76 303.33,266.57 304.08,266.38 304.83,266.19 305.57,266.00 306.32,265.81 307.07,265.62 307.81,265.42 308.56,265.23 309.31,265.03 310.05,264.84 310.80,264.64 311.55,264.44 312.29,264.24 313.04,264.04 313.79,263.84 314.53,263.64 315.28,263.43 316.03,263.23 316.77,263.02 317.52,262.82 318.27,262.61 319.01,262.40 319.76,262.19 320.51,261.98 321.25,261.77 322.00,261.56 322.75,261.34 323.49,261.13 324.24,260.91 324.99,260.70 325.73,260.48 326.48,260.26 327.23,260.04 327.97,259.82 328.72,259.60 329.47,259.37 330.21,259.15 330.96,258.92 331.71,258.69 332.45,258.47 333.20,258.24 333.95,258.01 334.69,257.78 335.44,257.54 336.19,257.31 336.93,257.07 337.68,256.84 338.43,256.60 339.17,256.36 339.92,256.12 340.67,255.88 341.41,255.64 342.16,255.40 342.91,255.15 343.65,254.91 344.40,254.66 345.15,254.41 345.89,254.16 346.64,253.91 347.39,253.66 348.13,253.40 348.88,253.15 349.63,252.89 350.37,252.64 351.12,252.38 351.87,252.12 352.61,251.86 353.36,251.60 354.11,251.33 354.85,251.07 355.60,250.80 356.35,250.53 357.09,250.26 357.84,249.99 358.59,249.72 359.33,249.45 360.08,249.18 360.83,248.90 361.57,248.62 362.32,248.34 363.07,248.06 363.81,247.78 364.56,247.50 365.31,247.22 366.05,246.93 366.80,246.65 367.55,246.36 368.29,246.07 369.04,245.78 369.79,245.48 370.53,245.19 371.28,244.89 372.03,244.60 372.77,244.30 373.52,244.00 374.27,243.70 375.01,243.40 375.76,243.09 376.51,242.79 377.25,242.48 378.00,242.17 378.75,241.86 379.49,241.55 380.24,241.24 380.99,240.92 381.73,240.61 382.48,240.29 383.23,239.97 383.97,239.65 384.72,239.33 385.47,239.01 386.21,238.68 386.96,238.35 387.71,238.03 388.45,237.70 389.20,237.37 389.95,237.03 390.69,236.70 391.44,236.36 392.19,236.03 392.93,235.69 393.68,235.35 394.43,235.00 395.17,234.66 395.92,234.32 396.67,233.97 397.41,233.62 398.16,233.27 398.91,232.92 399.65,232.57 400.40,232.21 401.15,231.86 401.89,231.50 402.64,231.14 403.39,230.78 404.13,230.42 404.88,230.05 405.63,229.69 406.37,229.32 407.12,228.95 407.87,228.58 408.61,228.21 409.36,227.84 410.11,227.46 410.85,227.09 411.60,226.71 412.35,226.33 413.09,225.95 413.84,225.57 414.59,225.18 415.33,224.80 416.08,224.41 416.83,224.02 417.57,223.63 418.32,223.24 419.07,222.84 419.81,222.45 420.56,222.05 421.31,221.65 422.05,221.26 422.80,220.85 423.55,220.45 424.29,220.05 425.04,219.64 425.79,219.24 426.53,218.83 427.28,218.42 428.03,218.01 428.77,217.59 429.52,217.18 430.27,216.76 431.01,216.35 431.76,215.93 432.51,215.51 433.25,215.09 434.00,214.66 434.75,214.24 435.49,213.81 436.24,213.39 436.99,212.96 437.73,212.53 438.48,212.10 439.23,211.66 439.97,211.23 440.72,210.80 441.47,210.36 442.21,209.92 442.96,209.48 443.71,209.04 444.45,208.60 445.20,208.16 445.95,207.72 446.69,207.27 447.44,206.82 448.19,206.38 448.93,205.93 449.68,205.48 450.43,205.03 451.17,204.58 451.92,204.12 452.67,203.67 453.41,203.21 454.16,202.76 454.91,202.30 455.65,201.84 456.40,201.38 457.15,200.92 457.89,200.46 458.64,200.00 459.39,199.54 460.13,199.07 460.88,198.61 461.63,198.14 462.37,197.67 463.12,197.21 463.87,196.74 464.61,196.27 465.36,195.80 466.11,195.33 466.85,194.86 467.60,194.39 468.35,193.91 469.09,193.44 469.84,192.96 470.59,192.49 471.33,192.01 472.08,191.54 472.83,191.06 473.57,190.59 474.32,190.11 475.07,189.63 475.81,189.15 476.56,188.67 477.31,188.19 478.05,187.71 478.80,187.23 479.55,186.75 480.29,186.27 481.04,185.79 481.79,185.31 482.53,184.83 483.28,184.34 484.03,183.86 484.77,183.38 485.52,182.90 486.27,182.41 487.01,181.93 487.76,181.45 488.51,180.97 489.25,180.48 490.00,180.00 490.75,179.52 491.49,179.03 492.24,178.55 492.99,178.07 493.73,177.59 494.48,177.10 495.23,176.62 495.97,176.14 496.72,175.66 497.47,175.17 498.21,174.69 498.96,174.21 499.71,173.73 500.45,173.25 501.20,172.77 501.95,172.29 502.69,171.81 503.44,171.33 504.19,170.85 504.93,170.37 505.68,169.89 506.43,169.41 507.17,168.94 507.92,168.46 508.67,167.99 509.41,167.51 510.16,167.04 510.91,166.56 511.65,166.09 512.40,165.61 513.15,165.14 513.89,164.67 514.64,164.20 515.39,163.73 516.13,163.26 516.88,162.79 517.63,162.33 518.37,161.86 519.12,161.39 519.87,160.93 520.61,160.46 521.36,160.00 522.11,159.54 522.85,159.08 523.60,158.62 524.35,158.16 525.09,157.70 525.84,157.24 526.59,156.79 527.33,156.33 528.08,155.88 528.83,155.42 529.57,154.97 530.32,154.52 531.07,154.07 531.81,153.62 532.56,153.18 533.31,152.73 534.05,152.28 534.80,151.84 535.55,151.40 536.29,150.96 537.04,150.52 537.79,150.08 538.53,149.64 539.28,149.20 540.03,148.77 540.77,148.34 541.52,147.90 542.27,147.47 543.01,147.04 543.76,146.61 544.51,146.19 545.25,145.76 546.00,145.34 546.75,144.91 547.49,144.49 548.24,144.07 548.99,143.65 549.73,143.24 550.48,142.82 551.23,142.41 551.97,141.99 552.72,141.58 553.47,141.17 554.21,140.76 554.96,140.36 555.71,139.95 556.45,139.55 557.20,139.15 557.95,138.74 558.69,138.35 559.44,137.95 560.19,137.55 560.93,137.16 561.68,136.76 562.43,136.37 563.17,135.98 563.92,135.59 564.67,135.20 565.41,134.82 566.16,134.43 566.91,134.05 567.65,133.67 568.40,133.29 569.15,132.91 569.89,132.54 570.64,132.16 571.39,131.79 572.13,131.42 572.88,131.05 573.63,130.68 574.37,130.31 575.12,129.95 575.87,129.58 576.61,129.22 577.36,128.86 578.11,128.50 578.85,128.14 579.60,127.79 580.35,127.43 581.09,127.08 581.84,126.73 582.59,126.38 583.33,126.03 584.08,125.68 584.83,125.34 585.57,125.00 586.32,124.65 587.07,124.31 587.81,123.97 588.56,123.64 589.31,123.30 590.05,122.97 590.80,122.63 591.55,122.30 592.29,121.97 593.04,121.65 593.79,121.32 594.53,120.99 595.28,120.67 596.03,120.35 596.77,120.03 597.52,119.71 598.27,119.39 599.01,119.08 599.76,118.76 600.51,118.45 601.25,118.14 602.00,117.83 602.75,117.52 603.49,117.21 604.24,116.91 604.99,116.60 605.73,116.30 606.48,116.00 607.23,115.70 607.97,115.40 608.72,115.11 609.47,114.81 610.21,114.52 610.96,114.22 611.71,113.93 612.45,113.64 613.20,113.35 613.95,113.07 614.69,112.78 615.44,112.50 616.19,112.22 616.93,111.94 617.68,111.66 618.43,111.38 619.17,111.10 619.92,110.82 620.67,110.55 621.41,110.28 622.16,110.01 622.91,109.74 623.65,109.47 624.40,109.20 625.15,108.93 625.89,108.67 626.64,108.40 627.39,108.14 628.13,107.88 628.88,107.62 629.63,107.36 630.37,107.11 631.12,106.85 631.87,106.60 632.61,106.34 633.36,106.09 634.11,105.84 634.85,105.59 635.60,105.34 636.35,105.09 637.09,104.85 637.84,104.60 638.59,104.36 639.33,104.12 640.08,103.88 640.83,103.64 641.57,103.40 642.32,103.16 643.07,102.93 643.81,102.69 644.56,102.46 645.31,102.22 646.05,101.99 646.80,101.76 647.55,101.53 648.29,101.31 649.04,101.08 649.79,100.85 650.53,100.63 651.28,100.40 652.03,100.18 652.77,99.96 653.52,99.74 654.27,99.52 655.01,99.30 655.76,99.09 656.51,98.87 657.25,98.66 658.00,98.44 658.75,98.23 659.49,98.02 660.24,97.81 660.99,97.60 661.73,97.39 662.48,97.18 663.23,96.98 663.97,96.77 664.72,96.57 665.47,96.36 666.21,96.16 666.96,95.96 667.71,95.76 668.45,95.56 669.20,95.36 669.95,95.16 670.69,94.97 671.44,94.77 672.19,94.58 672.93,94.38 673.68,94.19 674.43,94.00 675.17,93.81 675.92,93.62 676.67,93.43 677.41,93.24 678.16,93.05 678.91,92.87 679.65,92.68 680.40,92.50 681.15,92.31 681.89,92.13 682.64,91.95 683.39,91.77 684.13,91.59 684.88,91.41 685.63,91.23 686.37,91.05 687.12,90.88 687.87,90.70 688.61,90.53 689.36,90.35 690.11,90.18 690.85,90.01 691.60,89.83 692.35,89.66 693.09,89.49 693.84,89.32 694.59,89.16 695.33,88.99 696.08,88.82 696.83,88.66 697.57,88.49 698.32,88.33 699.07,88.16 699.81,88.00 700.56,87.84 701.31,87.68 702.05,87.52 702.80,87.36 703.55,87.20 704.29,87.04 705.04,86.88 705.79,86.72 706.53,86.57 707.28,86.41 708.03,86.26 708.77,86.10 709.52,85.95 710.27,85.80 711.01,85.65 711.76,85.50 712.51,85.35 713.25,85.20 714.00,85.05 714.75,84.90 715.49,84.75 716.24,84.60 716.99,84.46 717.73,84.31 718.48,84.17 719.23,84.02 719.97,83.88 720.72,83.74 721.47,83.59 722.21,83.45 722.96,83.31 723.71,83.17 724.45,83.03 725.20,82.89 725.95,82.75 726.69,82.62 727.44,82.48 728.19,82.34 728.93,82.21 729.68,82.07 730.43,81.94 731.17,81.80 731.92,81.67 732.67,81.54 733.41,81.40 734.16,81.27 734.91,81.14 735.65,81.01 736.40,80.88 737.15,80.75 737.89,80.62 738.64,80.49 739.39,80.36 740.13,80.24 740.88,80.11 741.63,79.98 742.37,79.86 743.12,79.73 743.87,79.61 744.61,79.49 745.36,79.36 746.11,79.24 746.85,79.12 747.60,79.00 748.35,78.87 749.09,78.75 749.84,78.63 750.59,78.51 751.33,78.39 752.08,78.28 752.83,78.16 753.57,78.04 754.32,77.92 755.07,77.81 755.81,77.69 756.56,77.57 757.31,77.46 758.05,77.34 758.80,77.23 759.55,77.12 760.29,77.00 761.04,76.89 761.79,76.78 762.53,76.67 763.28,76.56 764.03,76.44 764.77,76.33 765.52,76.22 766.27,76.12 767.01,76.01 767.76,75.90 768.51,75.79 769.25,75.68 770.00,75.57 770.75,75.47 771.49,75.36 772.24,75.26 772.99,75.15 773.73,75.05 774.48,74.94 775.23,74.84 775.97,74.73 776.72,74.63 777.47,74.53 778.21,74.42 778.96,74.32 779.71,74.22 780.45,74.12 781.20,74.02 781.95,73.92 782.69,73.82 783.44,73.72 784.19,73.62 784.93,73.52 785.68,73.42 786.43,73.32 787.17,73.23 787.92,73.13 788.67,73.03 789.41,72.94 790.16,72.84 790.91,72.74 791.65,72.65 792.40,72.55 793.15,72.46 793.89,72.37 794.64,72.27 795.39,72.18 796.13,72.09 796.88,71.99 797.63,71.90 798.37,71.81 799.12,71.72 799.87,71.63 800.61,71.53 801.36,71.44 802.11,71.35 802.85,71.26 803.60,71.17 804.35,71.09 805.09,71.00 805.84,70.91 806.59,70.82 807.33,70.73 808.08,70.65 808.83,70.56 809.57,70.47 810.32,70.39 811.07,70.30 811.81,70.21 812.56,70.13 813.31,70.04 814.05,69.96 814.80,69.87 815.55,69.79 816.29,69.71 817.04,69.62 817.79,69.54 818.53,69.46 819.28,69.37 820.03,69.29 820.77,69.21 821.52,69.13 822.27,69.05 823.01,68.97 823.76,68.88 824.51,68.80 825.25,68.72 826.00,68.64 826.75,68.56 827.49,68.49 828.24,68.41 828.99,68.33 829.73,68.25 830.48,68.17 831.23,68.09 831.97,68.02 832.72,67.94 833.47,67.86 834.21,67.79 834.96,67.71 835.71,67.63 836.45,67.56 837.20,67.48 837.95,67.41 838.69,67.33 839.44,67.26 840.19,67.18 840.93,67.11 841.68,67.03 842.43,66.96 843.17,66.89 843.92,66.81 844.67,66.74 845.41,66.67 846.16,66.60 846.91,66.52 847.65,66.45 848.40,66.38 849.15,66.31 849.89,66.24 850.64,66.17 851.39,66.10 852.13,66.03 852.88,65.96 853.63,65.89 854.37,65.82 855.12,65.75 855.87,65.68 856.61,65.61 857.36,65.54 858.11,65.47 858.85,65.40 859.60,65.34 860.35,65.27 861.09,65.20 861.84,65.13 862.59,65.07 863.33,65.00 864.08,64.93 864.83,64.87 865.57,64.80 866.32,64.74 867.07,64.67 867.81,64.60 868.56,64.54 869.31,64.47 870.05,64.41 870.80,64.34 871.55,64.28 872.29,64.22 873.04,64.15 873.79,64.09 874.53,64.03 875.28,63.96 876.03,63.90 876.77,63.84 877.52,63.77 878.27,63.71 879.01,63.65 879.76,63.59 880.51,63.53 881.25,63.46 882.00,63.40 882.75,63.34 883.49,63.28 884.24,63.22 884.99,63.16 885.73,63.10 886.48,63.04 887.23,62.98 887.97,62.92 888.72,62.86 889.47,62.80 890.21,62.74 890.96,62.68 891.71,62.62 892.45,62.57 893.20,62.51 893.95,62.45 894.69,62.39 895.44,62.33 896.19,62.28 896.93,62.22 897.68,62.16 898.43,62.10 899.17,62.05 899.92,61.99 900.67,61.93 901.41,61.88 902.16,61.82 902.91,61.77 903.65,61.71 904.40,61.65 905.15,61.60 905.89,61.54 906.64,61.49 907.39,61.43 908.13,61.38 908.88,61.32 909.63,61.27 910.37,61.22 911.12,61.16 911.87,61.11 912.61,61.05 913.36,61.00 914.11,60.95 914.85,60.89 915.60,60.84 916.35,60.79 917.09,60.74 917.84,60.68 918.59,60.63 919.33,60.58 920.08,60.53 920.83,60.47 921.57,60.42 922.32,60.37 923.07,60.32 923.81,60.27 924.56,60.22 925.31,60.17 926.05,60.12 926.80,60.06 927.55,60.01 928.29,59.96 929.04,59.91 929.79,59.86 930.53,59.81 931.28,59.76 932.03,59.71 932.77,59.67 933.52,59.62 934.27,59.57 935.01,59.52 935.76,59.47 936.51,59.42 937.25,59.37 938.00,59.32" /> <polyline fill="none" stroke="#3a0ca3" stroke-width="2" points="42.00,295.00 42.75,295.00 43.49,295.00 44.24,295.00 44.99,295.00 45.73,295.00 46.48,295.00 47.23,295.00 47.97,295.00 48.72,295.00 49.47,295.00 50.21,295.00 50.96,295.00 51.71,295.00 52.45,295.00 53.20,295.00 53.95,295.00 54.69,295.00 55.44,295.00 56.19,295.00 56.93,295.00 57.68,295.00 58.43,295.00 59.17,295.00 59.92,295.00 60.67,295.00 61.41,295.00 62.16,295.00 62.91,295.00 63.65,295.00 64.40,295.00 65.15,295.00 65.89,295.00 66.64,295.00 67.39,295.00 68.13,295.00 68.88,295.00 69.63,295.00 70.37,295.00 71.12,295.00 71.87,295.00 72.61,295.00 73.36,295.00 74.11,295.00 74.85,295.00 75.60,295.00 76.35,295.00 77.09,295.00 77.84,295.00 78.59,295.00 79.33,295.00 80.08,295.00 80.83,295.00 81.57,295.00 82.32,295.00 83.07,295.00 83.81,295.00 84.56,295.00 85.31,295.00 86.05,295.00 86.80,295.00 87.55,295.00 88.29,295.00 89.04,295.00 89.79,295.00 90.53,295.00 91.28,295.00 92.03,295.00 92.77,295.00 93.52,295.00 94.27,295.00 95.01,295.00 95.76,295.00 96.51,295.00 97.25,295.00 98.00,295.00 98.75,295.00 99.49,295.00 100.24,295.00 100.99,295.00 101.73,295.00 102.48,295.00 103.23,295.00 103.97,295.00 104.72,295.00 105.47,295.00 106.21,295.00 106.96,295.00 107.71,295.00 108.45,295.00 109.20,295.00 109.95,295.00 110.69,295.00 111.44,295.00 112.19,295.00 112.93,295.00 113.68,295.00 114.43,295.00 115.17,295.00 115.92,295.00 116.67,295.00 117.41,295.00 118.16,295.00 118.91,294.99 119.65,294.99 120.40,294.98 121.15,294.98 121.89,294.97 122.64,294.96 123.39,294.94 124.13,294.93 124.88,294.92 125.63,294.90 126.37,294.88 127.12,294.87 127.87,294.85 128.61,294.83 129.36,294.80 130.11,294.78 130.85,294.75 131.60,294.73 132.35,294.70 133.09,294.67 133.84,294.64 134.59,294.61 135.33,294.58 136.08,294.54 136.83,294.51 137.57,294.47 138.32,294.43 139.07,294.39 139.81,294.35 140.56,294.31 141.31,294.27 142.05,294.22 142.80,294.17 143.55,294.13 144.29,294.08 145.04,294.03 145.79,293.98 146.53,293.93 147.28,293.87 148.03,293.82 148.77,293.76 149.52,293.70 150.27,293.64 151.01,293.58 151.76,293.52 152.51,293.46 153.25,293.40 154.00,293.33 154.75,293.27 155.49,293.20 156.24,293.13 156.99,293.06 157.73,292.99 158.48,292.92 159.23,292.84 159.97,292.77 160.72,292.69 161.47,292.62 162.21,292.54 162.96,292.46 163.71,292.38 164.45,292.29 165.20,292.21 165.95,292.13 166.69,292.04 167.44,291.95 168.19,291.87 168.93,291.78 169.68,291.69 170.43,291.59 171.17,291.50 171.92,291.41 172.67,291.31 173.41,291.22 174.16,291.12 174.91,291.02 175.65,290.92 176.40,290.82 177.15,290.72 177.89,290.61 178.64,290.51 179.39,290.40 180.13,290.30 180.88,290.19 181.63,290.08 182.37,289.97 183.12,289.86 183.87,289.75 184.61,289.63 185.36,289.52 186.11,289.40 186.85,289.29 187.60,289.17 188.35,289.05 189.09,288.93 189.84,288.81 190.59,288.68 191.33,288.56 192.08,288.44 192.83,288.31 193.57,288.18 194.32,288.05 195.07,287.93 195.81,287.80 196.56,287.66 197.31,287.53 198.05,287.40 198.80,287.26 199.55,287.13 200.29,286.99 201.04,286.85 201.79,286.71 202.53,286.57 203.28,286.43 204.03,286.29 204.77,286.15 205.52,286.00 206.27,285.86 207.01,285.71 207.76,285.57 208.51,285.42 209.25,285.27 210.00,285.12 210.75,284.97 211.49,284.81 212.24,284.66 212.99,284.51 213.73,284.35 214.48,284.19 215.23,284.04 215.97,283.88 216.72,283.72 217.47,283.56 218.21,283.39 218.96,283.23 219.71,283.07 220.45,282.90 221.20,282.74 221.95,282.57 222.69,282.40 223.44,282.24 224.19,282.07 224.93,281.90 225.68,281.72 226.43,281.55 227.17,281.38 227.92,281.20 228.67,281.03 229.41,280.85 230.16,280.67 230.91,280.50 231.65,280.32 232.40,280.14 233.15,279.95 233.89,279.77 234.64,279.59 235.39,279.41 236.13,279.22 236.88,279.03 237.63,278.85 238.37,278.66 239.12,278.47 239.87,278.28 240.61,278.09 241.36,277.90 242.11,277.71 242.85,277.51 243.60,277.32 244.35,277.12 245.09,276.93 245.84,276.73 246.59,276.53 247.33,276.33 248.08,276.13 248.83,275.93 249.57,275.73 250.32,275.53 251.07,275.33 251.81,275.12 252.56,274.92 253.31,274.71 254.05,274.50 254.80,274.30 255.55,274.09 256.29,273.88 257.04,273.67 257.79,273.46 258.53,273.25 259.28,273.03 260.03,272.82 260.77,272.61 261.52,272.39 262.27,272.17 263.01,271.96 263.76,271.74 264.51,271.52 265.25,271.30 266.00,271.08 266.75,270.86 267.49,270.64 268.24,270.41 268.99,270.19 269.73,269.97 270.48,269.74 271.23,269.51 271.97,269.29 272.72,269.06 273.47,268.83 274.21,268.60 274.96,268.37 275.71,268.14 276.45,267.91 277.20,267.68 277.95,267.44 278.69,267.21 279.44,266.97 280.19,266.74 280.93,266.50 281.68,266.26 282.43,266.03 283.17,265.79 283.92,265.55 284.67,265.31 285.41,265.07 286.16,264.83 286.91,264.58 287.65,264.34 288.40,264.10 289.15,263.85 289.89,263.61 290.64,263.36 291.39,263.11 292.13,262.86 292.88,262.62 293.63,262.37 294.37,262.12 295.12,261.87 295.87,261.62 296.61,261.36 297.36,261.11 298.11,260.86 298.85,260.60 299.60,260.35 300.35,260.09 301.09,259.84 301.84,259.58 302.59,259.32 303.33,259.06 304.08,258.80 304.83,258.54 305.57,258.28 306.32,258.02 307.07,257.76 307.81,257.50 308.56,257.23 309.31,256.97 310.05,256.71 310.80,256.44 311.55,256.18 312.29,255.91 313.04,255.64 313.79,255.37 314.53,255.11 315.28,254.84 316.03,254.57 316.77,254.30 317.52,254.02 318.27,253.75 319.01,253.48 319.76,253.21 320.51,252.93 321.25,252.66 322.00,252.39 322.75,252.11 323.49,251.83 324.24,251.56 324.99,251.28 325.73,251.00 326.48,250.72 327.23,250.44 327.97,250.16 328.72,249.88 329.47,249.60 330.21,249.32 330.96,249.04 331.71,248.76 332.45,248.47 333.20,248.19 333.95,247.91 334.69,247.62 335.44,247.33 336.19,247.05 336.93,246.76 337.68,246.47 338.43,246.19 339.17,245.90 339.92,245.61 340.67,245.32 341.41,245.03 342.16,244.74 342.91,244.45 343.65,244.16 344.40,243.86 345.15,243.57 345.89,243.28 346.64,242.98 347.39,242.69 348.13,242.39 348.88,242.10 349.63,241.80 350.37,241.51 351.12,241.21 351.87,240.91 352.61,240.61 353.36,240.32 354.11,240.02 354.85,239.72 355.60,239.42 356.35,239.12 357.09,238.82 357.84,238.51 358.59,238.21 359.33,237.91 360.08,237.61 360.83,237.30 361.57,237.00 362.32,236.69 363.07,236.39 363.81,236.08 364.56,235.78 365.31,235.47 366.05,235.17 366.80,234.86 367.55,234.55 368.29,234.24 369.04,233.93 369.79,233.63 370.53,233.32 371.28,233.01 372.03,232.70 372.77,232.38 373.52,232.07 374.27,231.76 375.01,231.45 375.76,231.14 376.51,230.82 377.25,230.51 378.00,230.20 378.75,229.88 379.49,229.57 380.24,229.25 380.99,228.94 381.73,228.62 382.48,228.31 383.23,227.99 383.97,227.67 384.72,227.36 385.47,227.04 386.21,226.72 386.96,226.40 387.71,226.08 388.45,225.76 389.20,225.44 389.95,225.12 390.69,224.80 391.44,224.48 392.19,224.16 392.93,223.84 393.68,223.52 394.43,223.20 395.17,222.87 395.92,222.55 396.67,222.23 397.41,221.90 398.16,221.58 398.91,221.25 399.65,220.93 400.40,220.61 401.15,220.28 401.89,219.95 402.64,219.63 403.39,219.30 404.13,218.98 404.88,218.65 405.63,218.32 406.37,217.99 407.12,217.67 407.87,217.34 408.61,217.01 409.36,216.68 410.11,216.35 410.85,216.02 411.60,215.69 412.35,215.36 413.09,215.03 413.84,214.70 414.59,214.37 415.33,214.04 416.08,213.71 416.83,213.38 417.57,213.05 418.32,212.71 419.07,212.38 419.81,212.05 420.56,211.71 421.31,211.38 422.05,211.05 422.80,210.71 423.55,210.38 424.29,210.05 425.04,209.71 425.79,209.38 426.53,209.04 427.28,208.71 428.03,208.37 428.77,208.04 429.52,207.70 430.27,207.36 431.01,207.03 431.76,206.69 432.51,206.35 433.25,206.02 434.00,205.68 434.75,205.34 435.49,205.01 436.24,204.67 436.99,204.33 437.73,203.99 438.48,203.65 439.23,203.32 439.97,202.98 440.72,202.64 441.47,202.30 442.21,201.96 442.96,201.62 443.71,201.28 444.45,200.94 445.20,200.60 445.95,200.26 446.69,199.92 447.44,199.58 448.19,199.24 448.93,198.90 449.68,198.56 450.43,198.22 451.17,197.88 451.92,197.53 452.67,197.19 453.41,196.85 454.16,196.51 454.91,196.17 455.65,195.83 456.40,195.48 457.15,195.14 457.89,194.80 458.64,194.46 459.39,194.11 460.13,193.77 460.88,193.43 461.63,193.08 462.37,192.74 463.12,192.40 463.87,192.06 464.61,191.71 465.36,191.37 466.11,191.02 466.85,190.68 467.60,190.34 468.35,189.99 469.09,189.65 469.84,189.31 470.59,188.96 471.33,188.62 472.08,188.27 472.83,187.93 473.57,187.59 474.32,187.24 475.07,186.90 475.81,186.55 476.56,186.21 477.31,185.86 478.05,185.52 478.80,185.17 479.55,184.83 480.29,184.48 481.04,184.14 481.79,183.79 482.53,183.45 483.28,183.10 484.03,182.76 484.77,182.41 485.52,182.07 486.27,181.72 487.01,181.38 487.76,181.03 488.51,180.69 489.25,180.34 490.00,180.00 490.75,179.66 491.49,179.31 492.24,178.97 492.99,178.62 493.73,178.28 494.48,177.93 495.23,177.59 495.97,177.24 496.72,176.90 497.47,176.55 498.21,176.21 498.96,175.86 499.71,175.52 500.45,175.17 501.20,174.83 501.95,174.48 502.69,174.14 503.44,173.79 504.19,173.45 504.93,173.10 505.68,172.76 506.43,172.41 507.17,172.07 507.92,171.73 508.67,171.38 509.41,171.04 510.16,170.69 510.91,170.35 511.65,170.01 512.40,169.66 513.15,169.32 513.89,168.98 514.64,168.63 515.39,168.29 516.13,167.94 516.88,167.60 517.63,167.26 518.37,166.92 519.12,166.57 519.87,166.23 520.61,165.89 521.36,165.54 522.11,165.20 522.85,164.86 523.60,164.52 524.35,164.17 525.09,163.83 525.84,163.49 526.59,163.15 527.33,162.81 528.08,162.47 528.83,162.12 529.57,161.78 530.32,161.44 531.07,161.10 531.81,160.76 532.56,160.42 533.31,160.08 534.05,159.74 534.80,159.40 535.55,159.06 536.29,158.72 537.04,158.38 537.79,158.04 538.53,157.70 539.28,157.36 540.03,157.02 540.77,156.68 541.52,156.35 542.27,156.01 543.01,155.67 543.76,155.33 544.51,154.99 545.25,154.66 546.00,154.32 546.75,153.98 547.49,153.65 548.24,153.31 548.99,152.97 549.73,152.64 550.48,152.30 551.23,151.96 551.97,151.63 552.72,151.29 553.47,150.96 554.21,150.62 554.96,150.29 555.71,149.95 556.45,149.62 557.20,149.29 557.95,148.95 558.69,148.62 559.44,148.29 560.19,147.95 560.93,147.62 561.68,147.29 562.43,146.95 563.17,146.62 563.92,146.29 564.67,145.96 565.41,145.63 566.16,145.30 566.91,144.97 567.65,144.64 568.40,144.31 569.15,143.98 569.89,143.65 570.64,143.32 571.39,142.99 572.13,142.66 572.88,142.33 573.63,142.01 574.37,141.68 575.12,141.35 575.87,141.02 576.61,140.70 577.36,140.37 578.11,140.05 578.85,139.72 579.60,139.39 580.35,139.07 581.09,138.75 581.84,138.42 582.59,138.10 583.33,137.77 584.08,137.45 584.83,137.13 585.57,136.80 586.32,136.48 587.07,136.16 587.81,135.84 588.56,135.52 589.31,135.20 590.05,134.88 590.80,134.56 591.55,134.24 592.29,133.92 593.04,133.60 593.79,133.28 594.53,132.96 595.28,132.64 596.03,132.33 596.77,132.01 597.52,131.69 598.27,131.38 599.01,131.06 599.76,130.75 600.51,130.43 601.25,130.12 602.00,129.80 602.75,129.49 603.49,129.18 604.24,128.86 604.99,128.55 605.73,128.24 606.48,127.93 607.23,127.62 607.97,127.30 608.72,126.99 609.47,126.68 610.21,126.37 610.96,126.07 611.71,125.76 612.45,125.45 613.20,125.14 613.95,124.83 614.69,124.53 615.44,124.22 616.19,123.92 616.93,123.61 617.68,123.31 618.43,123.00 619.17,122.70 619.92,122.39 620.67,122.09 621.41,121.79 622.16,121.49 622.91,121.18 623.65,120.88 624.40,120.58 625.15,120.28 625.89,119.98 626.64,119.68 627.39,119.39 628.13,119.09 628.88,118.79 629.63,118.49 630.37,118.20 631.12,117.90 631.87,117.61 632.61,117.31 633.36,117.02 634.11,116.72 634.85,116.43 635.60,116.14 636.35,115.84 637.09,115.55 637.84,115.26 638.59,114.97 639.33,114.68 640.08,114.39 640.83,114.10 641.57,113.81 642.32,113.53 643.07,113.24 643.81,112.95 644.56,112.67 645.31,112.38 646.05,112.09 646.80,111.81 647.55,111.53 648.29,111.24 649.04,110.96 649.79,110.68 650.53,110.40 651.28,110.12 652.03,109.84 652.77,109.56 653.52,109.28 654.27,109.00 655.01,108.72 655.76,108.44 656.51,108.17 657.25,107.89 658.00,107.61 658.75,107.34 659.49,107.07 660.24,106.79 660.99,106.52 661.73,106.25 662.48,105.98 663.23,105.70 663.97,105.43 664.72,105.16 665.47,104.89 666.21,104.63 666.96,104.36 667.71,104.09 668.45,103.82 669.20,103.56 669.95,103.29 670.69,103.03 671.44,102.77 672.19,102.50 672.93,102.24 673.68,101.98 674.43,101.72 675.17,101.46 675.92,101.20 676.67,100.94 677.41,100.68 678.16,100.42 678.91,100.16 679.65,99.91 680.40,99.65 681.15,99.40 681.89,99.14 682.64,98.89 683.39,98.64 684.13,98.38 684.88,98.13 685.63,97.88 686.37,97.63 687.12,97.38 687.87,97.14 688.61,96.89 689.36,96.64 690.11,96.39 690.85,96.15 691.60,95.90 692.35,95.66 693.09,95.42 693.84,95.17 694.59,94.93 695.33,94.69 696.08,94.45 696.83,94.21 697.57,93.97 698.32,93.74 699.07,93.50 699.81,93.26 700.56,93.03 701.31,92.79 702.05,92.56 702.80,92.32 703.55,92.09 704.29,91.86 705.04,91.63 705.79,91.40 706.53,91.17 707.28,90.94 708.03,90.71 708.77,90.49 709.52,90.26 710.27,90.03 711.01,89.81 711.76,89.59 712.51,89.36 713.25,89.14 714.00,88.92 714.75,88.70 715.49,88.48 716.24,88.26 716.99,88.04 717.73,87.83 718.48,87.61 719.23,87.39 719.97,87.18 720.72,86.97 721.47,86.75 722.21,86.54 722.96,86.33 723.71,86.12 724.45,85.91 725.20,85.70 725.95,85.50 726.69,85.29 727.44,85.08 728.19,84.88 728.93,84.67 729.68,84.47 730.43,84.27 731.17,84.07 731.92,83.87 732.67,83.67 733.41,83.47 734.16,83.27 734.91,83.07 735.65,82.88 736.40,82.68 737.15,82.49 737.89,82.29 738.64,82.10 739.39,81.91 740.13,81.72 740.88,81.53 741.63,81.34 742.37,81.15 743.12,80.97 743.87,80.78 744.61,80.59 745.36,80.41 746.11,80.23 746.85,80.05 747.60,79.86 748.35,79.68 749.09,79.50 749.84,79.33 750.59,79.15 751.33,78.97 752.08,78.80 752.83,78.62 753.57,78.45 754.32,78.28 755.07,78.10 755.81,77.93 756.56,77.76 757.31,77.60 758.05,77.43 758.80,77.26 759.55,77.10 760.29,76.93 761.04,76.77 761.79,76.61 762.53,76.44 763.28,76.28 764.03,76.12 764.77,75.96 765.52,75.81 766.27,75.65 767.01,75.49 767.76,75.34 768.51,75.19 769.25,75.03 770.00,74.88 770.75,74.73 771.49,74.58 772.24,74.43 772.99,74.29 773.73,74.14 774.48,74.00 775.23,73.85 775.97,73.71 776.72,73.57 777.47,73.43 778.21,73.29 778.96,73.15 779.71,73.01 780.45,72.87 781.20,72.74 781.95,72.60 782.69,72.47 783.44,72.34 784.19,72.20 784.93,72.07 785.68,71.95 786.43,71.82 787.17,71.69 787.92,71.56 788.67,71.44 789.41,71.32 790.16,71.19 790.91,71.07 791.65,70.95 792.40,70.83 793.15,70.71 793.89,70.60 794.64,70.48 795.39,70.37 796.13,70.25 796.88,70.14 797.63,70.03 798.37,69.92 799.12,69.81 799.87,69.70 800.61,69.60 801.36,69.49 802.11,69.39 802.85,69.28 803.60,69.18 804.35,69.08 805.09,68.98 805.84,68.88 806.59,68.78 807.33,68.69 808.08,68.59 808.83,68.50 809.57,68.41 810.32,68.31 811.07,68.22 811.81,68.13 812.56,68.05 813.31,67.96 814.05,67.87 814.80,67.79 815.55,67.71 816.29,67.62 817.04,67.54 817.79,67.46 818.53,67.38 819.28,67.31 820.03,67.23 820.77,67.16 821.52,67.08 822.27,67.01 823.01,66.94 823.76,66.87 824.51,66.80 825.25,66.73 826.00,66.67 826.75,66.60 827.49,66.54 828.24,66.48 828.99,66.42 829.73,66.36 830.48,66.30 831.23,66.24 831.97,66.18 832.72,66.13 833.47,66.07 834.21,66.02 834.96,65.97 835.71,65.92 836.45,65.87 837.20,65.83 837.95,65.78 838.69,65.73 839.44,65.69 840.19,65.65 840.93,65.61 841.68,65.57 842.43,65.53 843.17,65.49 843.92,65.46 844.67,65.42 845.41,65.39 846.16,65.36 846.91,65.33 847.65,65.30 848.40,65.27 849.15,65.25 849.89,65.22 850.64,65.20 851.39,65.17 852.13,65.15 852.88,65.13 853.63,65.12 854.37,65.10 855.12,65.08 855.87,65.07 856.61,65.06 857.36,65.04 858.11,65.03 858.85,65.02 859.60,65.02 860.35,65.01 861.09,65.01 861.84,65.00 862.59,65.00 863.33,65.00 864.08,65.00 864.83,65.00 865.57,65.00 866.32,65.00 867.07,65.00 867.81,65.00 868.56,65.00 869.31,65.00 870.05,65.00 870.80,65.00 871.55,65.00 872.29,65.00 873.04,65.00 873.79,65.00 874.53,65.00 875.28,65.00 876.03,65.00 876.77,65.00 877.52,65.00 878.27,65.00 879.01,65.00 879.76,65.00 880.51,65.00 881.25,65.00 882.00,65.00 882.75,65.00 883.49,65.00 884.24,65.00 884.99,65.00 885.73,65.00 886.48,65.00 887.23,65.00 887.97,65.00 888.72,65.00 889.47,65.00 890.21,65.00 890.96,65.00 891.71,65.00 892.45,65.00 893.20,65.00 893.95,65.00 894.69,65.00 895.44,65.00 896.19,65.00 896.93,65.00 897.68,65.00 898.43,65.00 899.17,65.00 899.92,65.00 900.67,65.00 901.41,65.00 902.16,65.00 902.91,65.00 903.65,65.00 904.40,65.00 905.15,65.00 905.89,65.00 906.64,65.00 907.39,65.00 908.13,65.00 908.88,65.00 909.63,65.00 910.37,65.00 911.12,65.00 911.87,65.00 912.61,65.00 913.36,65.00 914.11,65.00 914.85,65.00 915.60,65.00 916.35,65.00 917.09,65.00 917.84,65.00 918.59,65.00 919.33,65.00 920.08,65.00 920.83,65.00 921.57,65.00 922.32,65.00 923.07,65.00 923.81,65.00 924.56,65.00 925.31,65.00 926.05,65.00 926.80,65.00 927.55,65.00 928.29,65.00 929.04,65.00 929.79,65.00 930.53,65.00 931.28,65.00 932.03,65.00 932.77,65.00 933.52,65.00 934.27,65.00 935.01,65.00 935.76,65.00 936.51,65.00 937.25,65.00 938.00,65.00" />
  <line x1="56.0" y1="56.0" x2="78.0" y2="56.0" stroke="#94a3b8" stroke-width="2" /><text x="84.0" y="60.0" font-family="Arial, Helvetica, sans-serif" font-size="11" fill="#243b53">identity</text> <line x1="56.0" y1="72.0" x2="78.0" y2="72.0" stroke="#005f73" stroke-width="2" /><text x="84.0" y="76.0" font-family="Arial, Helvetica, sans-serif" font-size="11" fill="#243b53">tanh</text> <line x1="56.0" y1="88.0" x2="78.0" y2="88.0" stroke="#9b2226" stroke-width="2" /><text x="84.0" y="92.0" font-family="Arial, Helvetica, sans-serif" font-size="11" fill="#243b53">arctan</text> <line x1="56.0" y1="104.0" x2="78.0" y2="104.0" stroke="#3a0ca3" stroke-width="2" /><text x="84.0" y="108.0" font-family="Arial, Helvetica, sans-serif" font-size="11" fill="#243b53">cubic</text>
  <text x="490.0" y="24" text-anchor="middle" font-family="Arial, Helvetica, sans-serif" font-size="16" fill="#102a43">Soft-clip transfer functions (linear amplitude domain)</text>
  <text x="490.0" y="352" text-anchor="middle" font-family="Arial, Helvetica, sans-serif" font-size="12" fill="#334e68">input amplitude</text>
  <text x="14" y="180.0" transform="rotate(-90 14,180.0)" text-anchor="middle" font-family="Arial, Helvetica, sans-serif" font-size="12" fill="#334e68">output amplitude</text>
  <text x="42" y="336" font-family="Arial, Helvetica, sans-serif" font-size="11" fill="#486581">-1.20</text>
  <text x="938" y="336" text-anchor="end" font-family="Arial, Helvetica, sans-serif" font-size="11" fill="#486581">1.20</text>
  <text x="36" y="46" text-anchor="end" font-family="Arial, Helvetica, sans-serif" font-size="11" fill="#486581">1.20</text>
  <text x="36" y="322" text-anchor="end" font-family="Arial, Helvetica, sans-serif" font-size="11" fill="#486581">-1.20</text>
</svg>
